# Blender 4.3.2
# www.blender.org
mtllib container.mtl
o 立方体
v -0.710656 0.000000 0.591222
v -0.710656 0.000000 0.591222
v -0.710656 0.000000 0.591222
v -0.710656 0.546726 0.591222
v -0.710656 0.546726 0.591222
v -0.710656 0.546726 0.591222
v -0.710656 0.000000 -0.564907
v -0.710656 0.000000 -0.564907
v -0.710656 0.000000 -0.564907
v -0.710656 0.546726 -0.564907
v -0.710656 0.546726 -0.564907
v -0.710656 0.546726 -0.564907
v 0.693782 0.000000 0.591222
v 0.693782 0.000000 0.591222
v 0.693782 0.000000 0.591222
v 0.693782 0.546726 0.591222
v 0.693782 0.546726 0.591222
v 0.693782 0.546726 0.591222
v 0.693782 0.000000 -0.564907
v 0.693782 0.000000 -0.564907
v 0.693782 0.000000 -0.564907
v 0.693782 0.546726 -0.564907
v 0.693782 0.546726 -0.564907
v 0.693782 0.546726 -0.564907
v -0.710656 0.546726 0.013157
v -0.710656 0.546726 0.013157
v -0.008437 0.546726 -0.564907
v -0.008437 0.546726 -0.564907
v 0.693782 0.546726 0.013157
v 0.693782 0.546726 0.013157
v -0.008437 0.546726 0.591222
v -0.008437 0.546726 0.591222
v -0.710656 0.546726 -0.275875
v -0.710656 0.546726 -0.275875
v 0.342673 0.546726 -0.564907
v 0.342673 0.546726 -0.564907
v 0.693782 0.546726 0.302189
v 0.693782 0.546726 0.302189
v -0.359546 0.546726 0.591222
v -0.359546 0.546726 0.591222
v -0.710656 0.546726 0.302189
v -0.710656 0.546726 0.302189
v -0.359546 0.546726 -0.564907
v -0.359546 0.546726 -0.564907
v 0.693782 0.546726 -0.275875
v 0.693782 0.546726 -0.275875
v 0.342673 0.546726 0.591222
v 0.342673 0.546726 0.591222
v -0.710656 0.546726 -0.420391
v -0.710656 0.546726 -0.420391
v 0.518227 0.546726 -0.564907
v 0.518227 0.546726 -0.564907
v 0.693782 0.546726 0.446706
v 0.693782 0.546726 0.446706
v -0.535101 0.546726 0.591222
v -0.535101 0.546726 0.591222
v -0.710656 0.546726 0.157673
v -0.710656 0.546726 0.157673
v -0.183992 0.546726 -0.564907
v -0.183992 0.546726 -0.564907
v 0.693782 0.546726 -0.131359
v 0.693782 0.546726 -0.131359
v 0.167118 0.546726 0.591222
v 0.167118 0.546726 0.591222
v -0.008437 0.546726 0.446706
v -0.008437 0.546726 0.446706
v 0.518227 0.546726 0.013157
v 0.518227 0.546726 0.013157
v -0.710656 0.546726 -0.131359
v -0.710656 0.546726 -0.131359
v 0.167118 0.546726 -0.564907
v 0.167118 0.546726 -0.564907
v 0.693782 0.546726 0.157673
v 0.693782 0.546726 0.157673
v -0.183992 0.546726 0.591222
v -0.183992 0.546726 0.591222
v -0.710656 0.546726 0.446706
v -0.710656 0.546726 0.446706
v -0.535101 0.546726 -0.564907
v -0.535101 0.546726 -0.564907
v 0.693782 0.546726 -0.420391
v 0.693782 0.546726 -0.420391
v 0.518227 0.546726 0.591222
v 0.518227 0.546726 0.591222
v -0.008437 0.546726 -0.420391
v -0.008437 0.546726 -0.420391
v -0.535101 0.546726 0.013157
v -0.535101 0.546726 0.013157
v -0.359546 0.546726 -0.420391
v -0.359546 0.546726 -0.420391
v -0.535101 0.546726 -0.275875
v -0.535101 0.546726 -0.275875
v 0.342673 0.546726 -0.420391
v 0.342673 0.546726 -0.420391
v 0.518227 0.546726 -0.275875
v 0.518227 0.546726 -0.275875
v 0.342673 0.546726 0.446706
v 0.342673 0.546726 0.446706
v 0.518227 0.546726 0.302189
v 0.518227 0.546726 0.302189
v -0.359546 0.546726 0.446706
v -0.359546 0.546726 0.446706
v -0.535101 0.546726 0.302189
v -0.535101 0.546726 0.302189
v -0.535101 0.546726 0.157673
v -0.535101 0.546726 0.157673
v -0.183992 0.546726 0.446706
v -0.183992 0.546726 0.446706
v 0.518227 0.546726 0.157673
v 0.518227 0.546726 0.157673
v 0.518227 0.546726 0.446706
v 0.518227 0.546726 0.446706
v 0.518227 0.546726 0.446706
v 0.167118 0.546726 -0.420391
v 0.167118 0.546726 -0.420391
v 0.518227 0.546726 -0.420391
v 0.518227 0.546726 -0.420391
v 0.518227 0.546726 -0.420391
v 0.518227 0.546726 -0.131359
v 0.518227 0.546726 -0.131359
v -0.535101 0.546726 -0.420391
v -0.535101 0.546726 -0.420391
v -0.535101 0.546726 -0.420391
v -0.183992 0.546726 -0.420391
v -0.183992 0.546726 -0.420391
v -0.535101 0.546726 -0.131359
v -0.535101 0.546726 -0.131359
v 0.167118 0.546726 0.446706
v 0.167118 0.546726 0.446706
v -0.535101 0.546726 0.446706
v -0.535101 0.546726 0.446706
v -0.535101 0.546726 0.446706
v -0.008437 0.213877 0.446706
v 0.518227 0.213877 0.013157
v -0.008437 0.213877 -0.420391
v -0.535101 0.213877 0.013157
v -0.359546 0.213877 -0.420391
v -0.535101 0.213877 -0.275875
v 0.342673 0.213877 -0.420391
v 0.518227 0.213877 -0.275875
v 0.342673 0.213877 0.446706
v 0.518227 0.213877 0.302189
v -0.359546 0.213877 0.446706
v -0.535101 0.213877 0.302189
v -0.535101 0.213877 0.157673
v -0.183992 0.213877 0.446706
v 0.518227 0.213877 0.157673
v 0.518227 0.213877 0.446706
v 0.518227 0.213877 0.446706
v 0.167118 0.213877 -0.420391
v 0.518227 0.213877 -0.420391
v 0.518227 0.213877 -0.420391
v 0.518227 0.213877 -0.131359
v -0.535101 0.213877 -0.420391
v -0.535101 0.213877 -0.420391
v -0.183992 0.213877 -0.420391
v -0.535101 0.213877 -0.131359
v 0.167118 0.213877 0.446706
v -0.535101 0.213877 0.446706
v -0.535101 0.213877 0.446706
v -0.008437 0.077612 0.013157
v -0.008437 0.077612 0.302189
v -0.008437 0.077612 -0.275875
v 0.342673 0.077612 0.013157
v -0.359546 0.077612 0.013157
v -0.359546 0.077612 -0.275875
v 0.342673 0.077612 -0.275875
v 0.342673 0.077612 0.302189
v -0.359546 0.077612 0.302189
v -0.008437 0.077612 0.446706
v -0.008437 0.077612 0.446706
v -0.008437 0.077612 -0.131359
v 0.518227 0.077612 0.013157
v 0.518227 0.077612 0.013157
v -0.183992 0.077612 0.013157
v -0.008437 0.077612 0.157673
v -0.008437 0.077612 -0.420391
v -0.008437 0.077612 -0.420391
v 0.167118 0.077612 0.013157
v -0.535101 0.077612 0.013157
v -0.535101 0.077612 0.013157
v -0.359546 0.077612 -0.131359
v -0.359546 0.077612 -0.420391
v -0.359546 0.077612 -0.420391
v -0.183992 0.077612 -0.275875
v -0.535101 0.077612 -0.275875
v -0.535101 0.077612 -0.275875
v 0.342673 0.077612 -0.131359
v 0.342673 0.077612 -0.420391
v 0.342673 0.077612 -0.420391
v 0.518227 0.077612 -0.275875
v 0.518227 0.077612 -0.275875
v 0.167118 0.077612 -0.275875
v 0.342673 0.077612 0.446706
v 0.342673 0.077612 0.446706
v 0.342673 0.077612 0.157673
v 0.518227 0.077612 0.302189
v 0.518227 0.077612 0.302189
v 0.167118 0.077612 0.302189
v -0.359546 0.077612 0.446706
v -0.359546 0.077612 0.446706
v -0.359546 0.077612 0.157673
v -0.183992 0.077612 0.302189
v -0.535101 0.077612 0.302189
v -0.535101 0.077612 0.302189
v -0.535101 0.077612 0.157673
v -0.535101 0.077612 0.157673
v -0.183992 0.077612 0.157673
v -0.183992 0.077612 0.446706
v -0.183992 0.077612 0.446706
v 0.167118 0.077612 0.157673
v 0.518227 0.077612 0.157673
v 0.518227 0.077612 0.157673
v 0.518227 0.077612 0.446706
v 0.518227 0.077612 0.446706
v 0.518227 0.077612 0.446706
v 0.167118 0.077612 -0.420391
v 0.167118 0.077612 -0.420391
v 0.518227 0.077612 -0.420391
v 0.518227 0.077612 -0.420391
v 0.518227 0.077612 -0.420391
v 0.518227 0.077612 -0.131359
v 0.518227 0.077612 -0.131359
v -0.535101 0.077612 -0.420391
v -0.535101 0.077612 -0.420391
v -0.535101 0.077612 -0.420391
v -0.183992 0.077612 -0.420391
v -0.183992 0.077612 -0.420391
v -0.183992 0.077612 -0.131359
v -0.535101 0.077612 -0.131359
v -0.535101 0.077612 -0.131359
v 0.167118 0.077612 -0.131359
v 0.167118 0.077612 0.446706
v 0.167118 0.077612 0.446706
v -0.535101 0.077612 0.446706
v -0.535101 0.077612 0.446706
v -0.535101 0.077612 0.446706
vn -1.0000 -0.0000 -0.0000
vn -0.0000 -0.0000 -1.0000
vn 1.0000 -0.0000 -0.0000
vn -0.0000 -0.0000 1.0000
vn -0.0000 -1.0000 -0.0000
vn -0.0000 1.0000 -0.0000
vt 0.375000 0.250000
vt 0.375000 0.000000
vt 0.625000 0.000000
vt 0.625000 0.031250
vt 0.625000 0.218750
vt 0.625000 0.250000
vt 0.625000 0.187500
vt 0.625000 0.062500
vt 0.625000 0.093750
vt 0.625000 0.156250
vt 0.625000 0.125000
vt 0.375000 0.500000
vt 0.625000 0.281250
vt 0.625000 0.468750
vt 0.625000 0.500000
vt 0.625000 0.437500
vt 0.625000 0.312500
vt 0.625000 0.343750
vt 0.625000 0.406250
vt 0.625000 0.375000
vt 0.375000 0.750000
vt 0.625000 0.531250
vt 0.625000 0.718750
vt 0.625000 0.750000
vt 0.625000 0.687500
vt 0.625000 0.562500
vt 0.625000 0.593750
vt 0.625000 0.656250
vt 0.625000 0.625000
vt 0.375000 1.000000
vt 0.625000 0.781250
vt 0.625000 0.968750
vt 0.625000 1.000000
vt 0.625000 0.937500
vt 0.625000 0.812500
vt 0.625000 0.843750
vt 0.625000 0.906250
vt 0.625000 0.875000
vt 0.125000 0.500000
vt 0.125000 0.750000
vt 0.843750 0.718750
vt 0.875000 0.718750
vt 0.875000 0.750000
vt 0.843750 0.750000
vt 0.718750 0.718750
vt 0.750000 0.718750
vt 0.750000 0.750000
vt 0.718750 0.750000
vt 0.843750 0.593750
vt 0.875000 0.593750
vt 0.875000 0.625000
vt 0.843750 0.625000
vt 0.843750 0.531250
vt 0.875000 0.531250
vt 0.875000 0.562500
vt 0.843750 0.562500
vt 0.656250 0.718750
vt 0.687500 0.718750
vt 0.687500 0.750000
vt 0.656250 0.750000
vt 0.781250 0.718750
vt 0.812500 0.718750
vt 0.812500 0.750000
vt 0.781250 0.750000
vt 0.843750 0.656250
vt 0.875000 0.656250
vt 0.875000 0.687500
vt 0.843750 0.687500
vt 0.656250 0.593750
vt 0.656250 0.562500
vt 0.656250 0.625000
vt 0.656250 0.656250
vt 0.656250 0.687500
vt 0.656250 0.531250
vt 0.687500 0.531250
vt 0.687500 0.500000
vt 0.718750 0.500000
vt 0.718750 0.531250
vt 0.750000 0.500000
vt 0.750000 0.531250
vt 0.656250 0.500000
vt 0.812500 0.531250
vt 0.812500 0.500000
vt 0.843750 0.500000
vt 0.875000 0.500000
vt 0.781250 0.500000
vt 0.781250 0.531250
vt 0.718750 0.593750
vt 0.750000 0.593750
vt 0.750000 0.625000
vt 0.718750 0.625000
vt 0.781250 0.593750
vt 0.812500 0.593750
vt 0.812500 0.625000
vt 0.781250 0.625000
vt 0.812500 0.562500
vt 0.781250 0.562500
vt 0.687500 0.593750
vt 0.687500 0.625000
vt 0.687500 0.562500
vt 0.750000 0.562500
vt 0.718750 0.562500
vt 0.687500 0.656250
vt 0.687500 0.687500
vt 0.718750 0.656250
vt 0.750000 0.656250
vt 0.750000 0.687500
vt 0.718750 0.687500
vt 0.781250 0.656250
vt 0.812500 0.656250
vt 0.812500 0.687500
vt 0.781250 0.687500
s 0
f 9/1/1 3/2/1 6/3/1
f 9/1/1 6/3/1 78/4/1
f 50/5/1 12/6/1 9/1/1
f 34/7/1 50/5/1 9/1/1
f 9/1/1 78/4/1 42/8/1
f 9/1/1 42/8/1 58/9/1
f 70/10/1 34/7/1 9/1/1
f 9/1/1 58/9/1 26/11/1
f 26/11/1 70/10/1 9/1/1
f 19/12/2 7/1/2 10/6/2
f 19/12/2 10/6/2 79/13/2
f 51/14/2 22/15/2 19/12/2
f 35/16/2 51/14/2 19/12/2
f 19/12/2 79/13/2 43/17/2
f 19/12/2 43/17/2 59/18/2
f 71/19/2 35/16/2 19/12/2
f 19/12/2 59/18/2 27/20/2
f 27/20/2 71/19/2 19/12/2
f 15/21/3 21/12/3 24/15/3
f 15/21/3 24/15/3 82/22/3
f 54/23/3 18/24/3 15/21/3
f 38/25/3 54/23/3 15/21/3
f 15/21/3 82/22/3 46/26/3
f 15/21/3 46/26/3 62/27/3
f 74/28/3 38/25/3 15/21/3
f 15/21/3 62/27/3 30/29/3
f 30/29/3 74/28/3 15/21/3
f 1/30/4 13/21/4 16/24/4
f 1/30/4 16/24/4 83/31/4
f 55/32/4 4/33/4 1/30/4
f 39/34/4 55/32/4 1/30/4
f 1/30/4 83/31/4 47/35/4
f 1/30/4 47/35/4 63/36/4
f 75/37/4 39/34/4 1/30/4
f 1/30/4 63/36/4 31/38/4
f 31/38/4 75/37/4 1/30/4
f 8/39/5 20/12/5 14/21/5
f 8/39/5 14/21/5 2/40/5
f 131/41/6 77/42/6 5/43/6
f 131/41/6 5/43/6 56/44/6
f 129/45/6 66/46/6 32/47/6
f 129/45/6 32/47/6 64/48/6
f 126/49/6 69/50/6 25/51/6
f 126/49/6 25/51/6 87/52/6
f 122/53/6 49/54/6 33/55/6
f 122/53/6 33/55/6 91/56/6
f 112/57/6 98/58/6 48/59/6
f 112/57/6 48/59/6 84/60/6
f 108/61/6 102/62/6 40/63/6
f 108/61/6 40/63/6 76/64/6
f 105/65/6 57/66/6 41/67/6
f 105/65/6 41/67/6 103/68/6
f 87/52/6 25/51/6 57/66/6
f 87/52/6 57/66/6 105/65/6
f 101/62/2 107/61/2 146/61/2
f 101/62/2 146/61/2 143/62/2
f 127/49/3 88/52/3 136/52/3
f 127/49/3 136/52/3 157/49/3
f 66/46/6 108/61/6 76/64/6
f 66/46/6 76/64/6 32/47/6
f 120/69/1 96/70/1 140/70/1
f 120/69/1 140/70/1 153/69/1
f 130/41/2 101/62/2 143/62/2
f 130/41/2 143/62/2 159/41/2
f 107/61/2 65/46/2 133/46/2
f 107/61/2 133/46/2 146/61/2
f 68/71/1 120/69/1 153/69/1
f 68/71/1 153/69/1 134/71/1
f 110/72/1 68/71/1 134/71/1
f 110/72/1 134/71/1 147/72/1
f 73/28/6 109/72/6 99/73/6
f 73/28/6 99/73/6 37/25/6
f 29/29/6 67/71/6 109/72/6
f 29/29/6 109/72/6 73/28/6
f 104/68/3 132/41/3 160/41/3
f 104/68/3 160/41/3 144/68/3
f 53/23/6 112/57/6 84/60/6
f 53/23/6 84/60/6 17/24/6
f 37/25/6 99/73/6 112/57/6
f 37/25/6 112/57/6 53/23/6
f 116/74/4 93/75/4 139/75/4
f 116/74/4 139/75/4 151/74/4
f 100/73/1 110/72/1 147/72/1
f 100/73/1 147/72/1 142/73/1
f 36/76/6 72/77/6 115/78/6
f 36/76/6 115/78/6 94/75/6
f 72/77/6 28/79/6 86/80/6
f 72/77/6 86/80/6 115/78/6
f 81/22/6 117/74/6 95/70/6
f 81/22/6 95/70/6 45/26/6
f 23/15/6 52/81/6 117/74/6
f 23/15/6 117/74/6 81/22/6
f 52/81/6 36/76/6 94/75/6
f 52/81/6 94/75/6 117/74/6
f 61/27/6 119/69/6 67/71/6
f 61/27/6 67/71/6 29/29/6
f 45/26/6 95/70/6 119/69/6
f 45/26/6 119/69/6 61/27/6
f 88/52/3 106/65/3 145/65/3
f 88/52/3 145/65/3 136/52/3
f 89/82/4 121/53/4 154/53/4
f 89/82/4 154/53/4 137/82/4
f 44/83/6 80/84/6 122/53/6
f 44/83/6 122/53/6 90/82/6
f 80/84/6 11/85/6 49/54/6
f 80/84/6 49/54/6 122/53/6
f 97/58/2 111/57/2 148/57/2
f 97/58/2 148/57/2 141/58/2
f 28/79/6 60/86/6 125/87/6
f 28/79/6 125/87/6 86/80/6
f 60/86/6 44/83/6 90/82/6
f 60/86/6 90/82/6 125/87/6
f 106/65/3 104/68/3 144/68/3
f 106/65/3 144/68/3 145/65/3
f 65/46/2 128/45/2 158/45/2
f 65/46/2 158/45/2 133/46/2
f 123/53/3 92/56/3 138/56/3
f 123/53/3 138/56/3 155/53/3
f 113/57/1 100/73/1 142/73/1
f 113/57/1 142/73/1 149/57/1
f 128/45/2 97/58/2 141/58/2
f 128/45/2 141/58/2 158/45/2
f 91/56/6 33/55/6 69/50/6
f 91/56/6 69/50/6 126/49/6
f 124/87/4 89/82/4 137/82/4
f 124/87/4 137/82/4 156/87/4
f 96/70/1 118/74/1 152/74/1
f 96/70/1 152/74/1 140/70/1
f 85/80/4 124/87/4 156/87/4
f 85/80/4 156/87/4 135/80/4
f 98/58/6 129/45/6 64/48/6
f 98/58/6 64/48/6 48/59/6
f 114/78/4 85/80/4 135/80/4
f 114/78/4 135/80/4 150/78/4
f 92/56/3 127/49/3 157/49/3
f 92/56/3 157/49/3 138/56/3
f 102/62/6 131/41/6 56/44/6
f 102/62/6 56/44/6 40/63/6
f 93/75/4 114/78/4 150/78/4
f 93/75/4 150/78/4 139/75/4
f 103/68/6 41/67/6 77/42/6
f 103/68/6 77/42/6 131/41/6
f 156/87/4 137/82/4 183/82/4
f 156/87/4 183/82/4 227/87/4
f 136/52/3 145/65/3 207/65/3
f 136/52/3 207/65/3 181/52/3
f 151/74/4 139/75/4 189/75/4
f 151/74/4 189/75/4 219/74/4
f 146/61/2 133/46/2 170/46/2
f 146/61/2 170/46/2 209/61/2
f 133/46/2 158/45/2 233/45/2
f 133/46/2 233/45/2 170/46/2
f 135/80/4 156/87/4 227/87/4
f 135/80/4 227/87/4 177/80/4
f 147/72/1 134/71/1 174/71/1
f 147/72/1 174/71/1 213/72/1
f 145/65/3 144/68/3 205/68/3
f 145/65/3 205/68/3 207/65/3
f 138/56/3 157/49/3 231/49/3
f 138/56/3 231/49/3 187/56/3
f 140/70/1 152/74/1 221/74/1
f 140/70/1 221/74/1 192/70/1
f 158/45/2 141/58/2 194/58/2
f 158/45/2 194/58/2 233/45/2
f 142/73/1 147/72/1 213/72/1
f 142/73/1 213/72/1 198/73/1
f 157/49/3 136/52/3 181/52/3
f 157/49/3 181/52/3 231/49/3
f 150/78/4 135/80/4 177/80/4
f 150/78/4 177/80/4 217/78/4
f 137/82/4 154/53/4 224/53/4
f 137/82/4 224/53/4 183/82/4
f 139/75/4 150/78/4 217/78/4
f 139/75/4 217/78/4 189/75/4
f 155/53/3 138/56/3 187/56/3
f 155/53/3 187/56/3 226/53/3
f 141/58/2 148/57/2 214/57/2
f 141/58/2 214/57/2 194/58/2
f 153/69/1 140/70/1 192/70/1
f 153/69/1 192/70/1 223/69/1
f 159/41/2 143/62/2 200/62/2
f 159/41/2 200/62/2 235/41/2
f 149/57/1 142/73/1 198/73/1
f 149/57/1 198/73/1 216/57/1
f 134/71/1 153/69/1 223/69/1
f 134/71/1 223/69/1 174/71/1
f 143/62/2 146/61/2 209/61/2
f 143/62/2 209/61/2 200/62/2
f 144/68/3 160/41/3 237/41/3
f 144/68/3 237/41/3 205/68/3
f 232/88/6 172/89/6 161/90/6
f 232/88/6 161/90/6 179/91/6
f 229/92/6 182/93/6 165/94/6
f 229/92/6 165/94/6 175/95/6
f 228/87/6 184/82/6 166/96/6
f 228/87/6 166/96/6 185/97/6
f 222/69/6 188/98/6 164/99/6
f 222/69/6 164/99/6 173/71/6
f 220/74/6 190/75/6 167/100/6
f 220/74/6 167/100/6 191/70/6
f 218/78/6 178/80/6 163/101/6
f 218/78/6 163/101/6 193/102/6
f 212/72/6 196/103/6 168/104/6
f 212/72/6 168/104/6 197/73/6
f 211/105/6 176/106/6 162/107/6
f 211/105/6 162/107/6 199/108/6
f 208/109/6 202/110/6 169/111/6
f 208/109/6 169/111/6 203/112/6
f 202/110/6 206/65/6 204/68/6
f 202/110/6 204/68/6 169/111/6
f 165/94/6 180/52/6 206/65/6
f 165/94/6 206/65/6 202/110/6
f 176/106/6 208/109/6 203/112/6
f 176/106/6 203/112/6 162/107/6
f 161/90/6 175/95/6 208/109/6
f 161/90/6 208/109/6 176/106/6
f 175/95/6 165/94/6 202/110/6
f 175/95/6 202/110/6 208/109/6
f 162/107/6 203/112/6 210/61/6
f 162/107/6 210/61/6 171/46/6
f 203/112/6 169/111/6 201/62/6
f 203/112/6 201/62/6 210/61/6
f 196/103/6 211/105/6 199/108/6
f 196/103/6 199/108/6 168/104/6
f 164/99/6 179/91/6 211/105/6
f 164/99/6 211/105/6 196/103/6
f 179/91/6 161/90/6 176/106/6
f 179/91/6 176/106/6 211/105/6
f 173/71/6 164/99/6 196/103/6
f 173/71/6 196/103/6 212/72/6
f 197/73/6 168/104/6 195/58/6
f 197/73/6 195/58/6 215/57/6
f 190/75/6 218/78/6 193/102/6
f 190/75/6 193/102/6 167/100/6
f 191/70/6 167/100/6 188/98/6
f 191/70/6 188/98/6 222/69/6
f 184/82/6 225/53/6 186/56/6
f 184/82/6 186/56/6 166/96/6
f 178/80/6 228/87/6 185/97/6
f 178/80/6 185/97/6 163/101/6
f 172/89/6 229/92/6 175/95/6
f 172/89/6 175/95/6 161/90/6
f 163/101/6 185/97/6 229/92/6
f 163/101/6 229/92/6 172/89/6
f 185/97/6 166/96/6 182/93/6
f 185/97/6 182/93/6 229/92/6
f 182/93/6 230/49/6 180/52/6
f 182/93/6 180/52/6 165/94/6
f 166/96/6 186/56/6 230/49/6
f 166/96/6 230/49/6 182/93/6
f 188/98/6 232/88/6 179/91/6
f 188/98/6 179/91/6 164/99/6
f 167/100/6 193/102/6 232/88/6
f 167/100/6 232/88/6 188/98/6
f 193/102/6 163/101/6 172/89/6
f 193/102/6 172/89/6 232/88/6
f 168/104/6 199/108/6 234/45/6
f 168/104/6 234/45/6 195/58/6
f 199/108/6 162/107/6 171/46/6
f 199/108/6 171/46/6 234/45/6
f 169/111/6 204/68/6 236/41/6
f 169/111/6 236/41/6 201/62/6
