# Blender 3.5.0
# www.blender.org
mtllib remesh_original-34.mtl
o mesh23/mesh23-geometry#mesh23-geometry.143
v -0.301229 0.569382 0.378760
v -0.301844 0.569072 0.385000
v -0.301844 0.569072 0.395000
v -0.302172 0.575000 0.377811
v -0.304344 0.575000 0.385000
v -0.304344 0.575000 0.395000
v -0.302500 0.585000 0.377482
v -0.305000 0.585000 0.385000
v -0.305000 0.585000 0.395000
v -0.302500 0.595000 0.377482
v -0.305000 0.595000 0.385000
v -0.305000 0.595000 0.395000
v -0.302361 0.605000 0.377621
v -0.304722 0.605000 0.385000
v -0.304722 0.605000 0.395000
v -0.301482 0.610847 0.378507
v -0.302222 0.611270 0.385000
v -0.302222 0.611270 0.395000
v -0.299288 0.569382 0.378760
v -0.298931 0.569072 0.385000
v -0.298931 0.569072 0.395000
v -0.298672 0.575000 0.377811
v -0.297344 0.575000 0.385000
v -0.297344 0.575000 0.395000
v -0.298412 0.585000 0.377482
v -0.296825 0.585000 0.385000
v -0.296825 0.585000 0.395000
v -0.298412 0.595000 0.377482
v -0.296825 0.595000 0.385000
v -0.296825 0.595000 0.395000
v -0.298528 0.605000 0.377621
v -0.297056 0.605000 0.385000
v -0.297056 0.605000 0.395000
v -0.299096 0.610847 0.378507
v -0.298644 0.611270 0.385000
v -0.298644 0.611270 0.395000
v -0.301844 0.569072 0.405000
v -0.301844 0.569072 0.415000
v -0.301844 0.569072 0.425000
v -0.301229 0.569382 0.432093
v -0.304344 0.575000 0.405000
v -0.304344 0.575000 0.415000
v -0.304344 0.575000 0.425000
v -0.302172 0.575000 0.433426
v -0.305000 0.585000 0.405000
v -0.305000 0.585000 0.415000
v -0.305000 0.585000 0.425000
v -0.302500 0.585000 0.433714
v -0.305000 0.595000 0.405000
v -0.305000 0.595000 0.415000
v -0.305000 0.595000 0.425000
v -0.302500 0.595000 0.433713
v -0.304722 0.605000 0.405000
v -0.304722 0.605000 0.415000
v -0.304722 0.605000 0.425000
v -0.302361 0.605000 0.433601
v -0.302222 0.611270 0.405000
v -0.302222 0.611270 0.415000
v -0.302222 0.611270 0.425000
v -0.301482 0.610847 0.432326
v -0.298931 0.569072 0.405000
v -0.298931 0.569072 0.415000
v -0.298931 0.569072 0.425000
v -0.299288 0.569382 0.432093
v -0.297344 0.575000 0.405000
v -0.297344 0.575000 0.415000
v -0.297344 0.575000 0.425000
v -0.298672 0.575000 0.433426
v -0.296825 0.585000 0.405000
v -0.296825 0.585000 0.415000
v -0.296825 0.585000 0.425000
v -0.298412 0.585000 0.433714
v -0.296825 0.595000 0.405000
v -0.296825 0.595000 0.415000
v -0.296825 0.595000 0.425000
v -0.298412 0.595000 0.433713
v -0.297056 0.605000 0.405000
v -0.297056 0.605000 0.415000
v -0.297056 0.605000 0.425000
v -0.298528 0.605000 0.433601
v -0.298644 0.611270 0.405000
v -0.298644 0.611270 0.415000
v -0.298644 0.611270 0.425000
v -0.299096 0.610847 0.432326
vn -0.9342 -0.2950 -0.2006
vn -0.9214 -0.3886 -0.0000
vn -0.9518 -0.0518 -0.3024
vn -0.9979 -0.0655 -0.0000
vn -0.9489 -0.0000 -0.3156
vn -1.0000 -0.0000 -0.0000
vn -0.9504 0.0220 -0.3102
vn -0.9996 0.0278 -0.0000
vn -0.9359 0.2770 -0.2177
vn -0.9289 0.3704 -0.0000
vn -0.0000 -0.9988 -0.0495
vn -0.0000 -1.0000 -0.0000
vn -0.0000 -0.1665 -0.9860
vn 0.9724 -0.1959 -0.1265
vn 0.9660 -0.2587 -0.0000
vn -0.0000 -0.0328 -0.9995
vn 0.9801 -0.0413 -0.1943
vn 0.9987 -0.0518 -0.0000
vn -0.0000 -0.0000 -1.0000
vn 0.9784 -0.0000 -0.2066
vn 1.0000 -0.0000 -0.0000
vn -0.0000 0.0139 -0.9999
vn 0.9794 0.0184 -0.2011
vn 0.9997 0.0231 -0.0000
vn -0.0000 0.1498 -0.9887
vn 0.9730 0.1833 -0.1405
vn -0.0000 0.9979 -0.0651
vn 0.9694 0.2454 -0.0000
vn -0.0000 1.0000 -0.0000
vn -0.9379 -0.2998 0.1744
vn -0.9635 -0.0512 0.2626
vn -0.9612 -0.0000 0.2758
vn -0.9626 0.0216 0.2702
vn -0.9402 0.2823 0.1906
vn -0.0000 -0.9991 0.0435
vn 0.9739 -0.1985 0.1097
vn -0.0000 -0.2309 0.9730
vn 0.9850 -0.0407 0.1676
vn -0.0000 -0.0287 0.9996
vn 0.9838 -0.0000 0.1792
vn -0.0000 -0.0000 1.0000
vn 0.9846 0.0181 0.1740
vn -0.0000 0.0112 0.9999
vn 0.9748 0.1863 0.1227
vn -0.0000 0.9983 0.0577
vn -0.0000 0.2131 0.9770
s 0
usemtl material_0_2.2250
f 5//1 4//1 1//1 2//1
f 6//2 5//2 2//2 3//2
f 8//3 7//3 4//3 5//3
f 9//4 8//4 5//4 6//4
f 11//5 10//5 7//5 8//5
f 12//6 11//6 8//6 9//6
f 14//7 13//7 10//7 11//7
f 15//8 14//8 11//8 12//8
f 17//9 16//9 13//9 14//9
f 18//10 17//10 14//10 15//10
f 20//11 2//11 1//11 19//11
f 21//12 3//12 2//12 20//12
f 4//13 22//13 19//13 1//13
f 22//14 23//14 20//14 19//14
f 23//15 24//15 21//15 20//15
f 7//16 25//16 22//16 4//16
f 25//17 26//17 23//17 22//17
f 26//18 27//18 24//18 23//18
f 10//19 28//19 25//19 7//19
f 28//20 29//20 26//20 25//20
f 29//21 30//21 27//21 26//21
f 13//22 31//22 28//22 10//22
f 31//23 32//23 29//23 28//23
f 32//24 33//24 30//24 29//24
f 16//25 34//25 31//25 13//25
f 34//26 35//26 32//26 31//26
f 17//27 35//27 34//27 16//27
f 35//28 36//28 33//28 32//28
f 18//29 36//29 35//29 17//29
f 41//2 6//2 3//2 37//2
f 42//2 41//2 37//2 38//2
f 43//2 42//2 38//2 39//2
f 44//30 43//30 39//30 40//30
f 45//4 9//4 6//4 41//4
f 46//4 45//4 41//4 42//4
f 47//4 46//4 42//4 43//4
f 48//31 47//31 43//31 44//31
f 49//6 12//6 9//6 45//6
f 50//6 49//6 45//6 46//6
f 51//6 50//6 46//6 47//6
f 52//32 51//32 47//32 48//32
f 53//8 15//8 12//8 49//8
f 54//8 53//8 49//8 50//8
f 55//8 54//8 50//8 51//8
f 56//33 55//33 51//33 52//33
f 57//10 18//10 15//10 53//10
f 58//10 57//10 53//10 54//10
f 59//10 58//10 54//10 55//10
f 60//34 59//34 55//34 56//34
f 61//12 37//12 3//12 21//12
f 62//12 38//12 37//12 61//12
f 63//12 39//12 38//12 62//12
f 64//35 40//35 39//35 63//35
f 24//15 65//15 61//15 21//15
f 65//15 66//15 62//15 61//15
f 66//15 67//15 63//15 62//15
f 67//36 68//36 64//36 63//36
f 68//37 44//37 40//37 64//37
f 27//18 69//18 65//18 24//18
f 69//18 70//18 66//18 65//18
f 70//18 71//18 67//18 66//18
f 71//38 72//38 68//38 67//38
f 72//39 48//39 44//39 68//39
f 30//21 73//21 69//21 27//21
f 73//21 74//21 70//21 69//21
f 74//21 75//21 71//21 70//21
f 75//40 76//40 72//40 71//40
f 76//41 52//41 48//41 72//41
f 33//24 77//24 73//24 30//24
f 77//24 78//24 74//24 73//24
f 78//24 79//24 75//24 74//24
f 79//42 80//42 76//42 75//42
f 80//43 56//43 52//43 76//43
f 36//28 81//28 77//28 33//28
f 57//29 81//29 36//29 18//29
f 81//28 82//28 78//28 77//28
f 58//29 82//29 81//29 57//29
f 82//28 83//28 79//28 78//28
f 59//29 83//29 82//29 58//29
f 83//44 84//44 80//44 79//44
f 60//45 84//45 83//45 59//45
f 84//46 60//46 56//46 80//46
