# Blender 3.5.0
# www.blender.org
mtllib remesh_original-44.mtl
o HK137_LT1/HK137_LT/mesh31/mesh31-geometry#mesh31-geometry
v 0.299430 0.279319 0.539378
v 0.298829 0.278625 0.545000
v 0.298551 0.278315 0.555000
v 0.298215 0.285000 0.537928
v 0.295967 0.285000 0.545000
v 0.295760 0.285000 0.555000
v 0.298185 0.295000 0.537873
v 0.295745 0.295000 0.545000
v 0.295335 0.295000 0.555000
v 0.299390 0.300841 0.539306
v 0.298606 0.301816 0.545000
v 0.298127 0.302371 0.555000
v 0.305000 0.277172 0.537620
v 0.305000 0.273947 0.545000
v 0.305000 0.273638 0.555000
v 0.305000 0.285000 0.534069
v 0.305000 0.295000 0.533985
v 0.305644 0.304504 0.537824
v 0.304111 0.306816 0.545000
v 0.304529 0.307371 0.555000
v 0.309407 0.310264 0.539659
v 0.309111 0.310396 0.545000
v 0.309529 0.310209 0.555000
v 0.315000 0.275397 0.536165
v 0.315000 0.270702 0.545000
v 0.315000 0.270701 0.555000
v 0.315000 0.285000 0.532277
v 0.315000 0.295000 0.532226
v 0.315000 0.305000 0.535640
v 0.317692 0.309956 0.559609
v 0.315000 0.310367 0.539525
v 0.315000 0.310733 0.545000
v 0.314615 0.310302 0.555765
v 0.289744 0.279556 0.579468
v 0.289744 0.279556 0.580917
v 0.289084 0.285000 0.577958
v 0.289154 0.285603 0.584550
v 0.289811 0.289338 0.590410
v 0.288980 0.295000 0.577735
v 0.289070 0.294477 0.584860
v 0.289811 0.290795 0.590410
v 0.289605 0.300741 0.579170
v 0.289605 0.300741 0.581434
v 0.299074 0.269258 0.578659
v 0.299074 0.269258 0.582973
v 0.298065 0.277734 0.565000
v 0.295384 0.275481 0.575730
v 0.295057 0.274861 0.585278
v 0.297707 0.276832 0.592999
v 0.294698 0.285000 0.565000
v 0.291691 0.285000 0.572958
v 0.291040 0.282672 0.587584
v 0.295414 0.285789 0.595037
v 0.299788 0.288906 0.600080
v 0.294295 0.295000 0.565000
v 0.291519 0.295000 0.572735
v 0.290812 0.297462 0.588101
v 0.295300 0.294422 0.595097
v 0.299788 0.291381 0.600080
v 0.297662 0.302945 0.565000
v 0.295028 0.304877 0.575231
v 0.293354 0.304445 0.584860
v 0.297749 0.305000 0.592895
v 0.298591 0.311193 0.577958
v 0.298584 0.311208 0.585000
v 0.299520 0.310418 0.590742
v 0.309228 0.269690 0.567994
v 0.305537 0.268283 0.575195
v 0.304164 0.267839 0.585784
v 0.306939 0.268949 0.592333
v 0.305537 0.272334 0.564796
v 0.302562 0.271406 0.571993
v 0.300273 0.270166 0.589639
v 0.304075 0.274353 0.595999
v 0.307877 0.278541 0.600285
v 0.301210 0.282240 0.599665
v 0.304726 0.285344 0.600480
v 0.300791 0.298048 0.599784
v 0.304474 0.294829 0.600522
v 0.303632 0.307945 0.565000
v 0.301545 0.309012 0.571292
v 0.304474 0.305130 0.597955
v 0.307457 0.301884 0.600355
v 0.308632 0.310619 0.565000
v 0.304927 0.312651 0.574775
v 0.305000 0.314156 0.585000
v 0.305000 0.311450 0.592605
v 0.315000 0.269570 0.567210
v 0.315000 0.266892 0.575000
v 0.315000 0.265781 0.585000
v 0.315000 0.268460 0.593460
v 0.315000 0.270395 0.562210
v 0.315000 0.272873 0.598460
v 0.315000 0.277873 0.600412
v 0.315000 0.285000 0.601058
v 0.315000 0.295000 0.601164
v 0.317692 0.309956 0.560136
v 0.315000 0.307770 0.599079
v 0.315000 0.302770 0.600517
v 0.314615 0.310957 0.564082
v 0.315000 0.314771 0.575000
v 0.315000 0.315833 0.585000
v 0.315000 0.312248 0.594079
v 0.325000 0.277230 0.537643
v 0.325000 0.274186 0.545000
v 0.325000 0.274103 0.555000
v 0.325000 0.285000 0.534261
v 0.325000 0.295000 0.534192
v 0.324289 0.304472 0.537884
v 0.325723 0.306622 0.545000
v 0.324289 0.307624 0.555765
v 0.320482 0.310225 0.539709
v 0.320723 0.310337 0.545000
v 0.320482 0.310225 0.552942
v 0.330530 0.279354 0.539418
v 0.330993 0.278805 0.545000
v 0.331062 0.278725 0.555000
v 0.331568 0.285000 0.538126
v 0.333503 0.285000 0.545000
v 0.333618 0.285000 0.555000
v 0.331591 0.295000 0.538078
v 0.333719 0.295000 0.545000
v 0.334130 0.295000 0.555000
v 0.330561 0.300787 0.539354
v 0.331209 0.301622 0.545000
v 0.331575 0.302062 0.555000
v 0.320619 0.269737 0.568286
v 0.324372 0.268418 0.575337
v 0.325558 0.267974 0.585385
v 0.322596 0.268998 0.592280
v 0.324372 0.272680 0.564971
v 0.327286 0.271604 0.572228
v 0.329263 0.270481 0.588974
v 0.325589 0.274552 0.595932
v 0.321914 0.278623 0.600264
v 0.328581 0.282757 0.599583
v 0.325148 0.285655 0.600439
v 0.329001 0.297399 0.599710
v 0.325401 0.294439 0.600482
v 0.324972 0.308092 0.564082
v 0.328287 0.308824 0.571508
v 0.325401 0.305086 0.597690
v 0.322335 0.301810 0.600335
v 0.321620 0.310769 0.566803
v 0.324972 0.312518 0.574905
v 0.325000 0.313849 0.585000
v 0.325000 0.311278 0.592331
v 0.330745 0.269388 0.578894
v 0.330745 0.269388 0.582308
v 0.331546 0.278138 0.565000
v 0.334425 0.275726 0.576023
v 0.334737 0.275165 0.584641
v 0.332063 0.277148 0.592916
v 0.334674 0.285000 0.565000
v 0.337991 0.285000 0.573538
v 0.339001 0.285000 0.587600
v 0.333259 0.285655 0.595750
v 0.330097 0.289424 0.600041
v 0.335167 0.295000 0.565000
v 0.338164 0.295000 0.573355
v 0.339155 0.295000 0.587915
v 0.333382 0.294439 0.595826
v 0.330097 0.290732 0.600041
v 0.332040 0.302648 0.565000
v 0.334782 0.304602 0.575541
v 0.336249 0.304229 0.584437
v 0.331892 0.305000 0.592582
v 0.331226 0.311062 0.578175
v 0.331110 0.310964 0.585000
v 0.330253 0.310223 0.590400
v 0.340087 0.279848 0.579818
v 0.340087 0.279848 0.580308
v 0.340642 0.285000 0.578538
v 0.340642 0.285000 0.582600
v 0.340727 0.295000 0.578355
v 0.340727 0.295000 0.582915
v 0.340200 0.300381 0.579573
v 0.340200 0.300381 0.580729
vn -0.9148 -0.3362 -0.2237
vn -0.9174 -0.3971 -0.0284
vn -0.9495 -0.0128 -0.3134
vn -0.9990 -0.0323 -0.0308
vn -0.9122 0.3218 -0.2538
vn -0.9277 0.3696 -0.0515
vn -0.5138 -0.8145 -0.2692
vn -0.5952 -0.8029 -0.0331
vn -0.4375 -0.3465 -0.8298
vn -0.4949 -0.0067 -0.8689
vn -0.4373 0.3389 -0.8331
vn -0.5903 0.7502 -0.2979
vn -0.6425 0.7650 -0.0444
vn -0.6854 0.6893 -0.2347
vn -0.5400 0.8416 0.0071
vn -0.2493 -0.8702 -0.4250
vn -0.2953 -0.9553 -0.0149
vn -0.1811 -0.3860 -0.9045
vn -0.1748 -0.0066 -0.9846
vn -0.1957 0.3475 -0.9170
vn -0.1525 0.4922 -0.8570
vn -0.0388 0.9981 -0.0471
vn -0.0413 0.9987 0.0298
vn -0.9936 -0.1112 0.0170
vn -0.9999 -0.0100 0.0118
vn -0.9925 -0.0117 0.1216
vn -0.9950 0.0986 0.0151
vn -0.8359 -0.5471 -0.0442
vn -0.6217 -0.7808 -0.0625
vn -0.9117 -0.4025 -0.0823
vn -0.8568 -0.4117 -0.3104
vn -0.7552 -0.3738 -0.5384
vn -0.8272 -0.4300 0.3617
vn -0.7644 -0.4154 0.4931
vn -0.8007 -0.3528 0.4842
vn -0.9937 -0.0411 -0.1045
vn -0.9379 -0.0308 -0.3456
vn -0.8889 -0.0225 -0.4575
vn -0.8156 0.2948 0.4979
vn -0.6431 -0.0118 0.7657
vn -0.7491 -0.0113 0.6623
vn -0.9248 0.3719 -0.0803
vn -0.8738 0.3797 -0.3039
vn -0.7749 0.3393 -0.5333
vn -0.6504 0.7569 -0.0641
vn -0.8643 0.3714 0.3392
vn -0.7681 0.3784 0.5165
vn -0.8209 0.5669 -0.0686
vn -0.7984 0.5114 0.3177
vn -0.2052 -0.9775 -0.0481
vn -0.5855 -0.8072 -0.0754
vn -0.4161 -0.8473 -0.3301
vn -0.5737 -0.7560 -0.3152
vn -0.5194 -0.6958 -0.4960
vn -0.6040 -0.7679 0.2132
vn -0.3473 -0.7920 0.5021
vn -0.6637 -0.5243 0.5335
vn -0.6221 -0.4153 0.6638
vn -0.2767 -0.3487 0.8955
vn -0.5038 -0.1602 0.8488
vn -0.5094 0.1144 0.8529
vn -0.0873 -0.0053 0.9962
vn -0.6262 0.7748 -0.0871
vn -0.6231 0.7187 -0.3085
vn -0.6458 0.3760 0.6645
vn -0.2169 0.2361 0.9472
vn -0.4809 0.8726 -0.0860
vn -0.4770 0.8149 -0.3292
vn -0.5582 0.6832 -0.4708
vn -0.3436 0.9356 -0.0811
vn -0.3428 0.9026 0.2605
vn -0.4532 0.5413 0.7082
vn -0.1128 -0.9512 -0.2871
vn -0.1709 -0.9816 -0.0855
vn -0.1335 -0.9548 0.2658
vn -0.2525 -0.9640 -0.0832
vn -0.1938 -0.9318 -0.3070
vn -0.2036 -0.6807 0.7037
vn -0.1809 -0.5000 0.8469
vn -0.0445 -0.0703 0.9965
vn -0.0587 -0.0083 0.9982
vn -0.1387 0.3763 0.9161
vn -0.0482 0.0644 0.9968
vn 0.2120 0.9746 -0.0721
vn -0.0397 0.9974 -0.0599
vn -0.1570 0.9435 -0.2918
vn -0.1831 0.9754 -0.1232
vn -0.1403 0.9264 0.3494
vn -0.2032 0.6827 0.7019
vn 0.2622 -0.8707 -0.4161
vn 0.3255 -0.9455 -0.0040
vn 0.1915 -0.3789 -0.9054
vn 0.1938 -0.0059 -0.9810
vn 0.2093 0.3420 -0.9161
vn 0.1627 0.4942 -0.8540
vn 0.6931 0.6869 -0.2188
vn 0.0486 0.9978 -0.0455
vn 0.5800 0.8145 0.0132
vn 0.0482 0.9984 0.0306
vn 0.2639 0.9530 0.1488
vn 0.5175 -0.8195 -0.2461
vn 0.6084 -0.7936 -0.0086
vn 0.4459 -0.3251 -0.8340
vn 0.9339 -0.3009 -0.1930
vn 0.9264 -0.3763 -0.0100
vn 0.5075 -0.0056 -0.8617
vn 0.9592 -0.0122 -0.2824
vn 0.9990 -0.0364 -0.0263
vn 0.4411 0.3230 -0.8373
vn 0.9307 0.2886 -0.2247
vn 0.5933 0.7570 -0.2738
vn 0.9369 0.3468 -0.0440
vn 0.6364 0.7711 -0.0208
vn 0.1343 -0.9478 -0.2893
vn 0.1858 -0.9788 -0.0868
vn 0.1547 -0.9532 0.2597
vn 0.2918 -0.9527 -0.0852
vn 0.2308 -0.9212 -0.3133
vn 0.4356 -0.8325 -0.3423
vn 0.4110 -0.7741 0.4816
vn 0.2254 -0.6763 0.7012
vn 0.1984 -0.5025 0.8415
vn 0.3061 -0.3477 0.8862
vn 0.0505 -0.0694 0.9963
vn 0.0633 -0.0087 0.9980
vn 0.2892 0.9545 -0.0729
vn 0.2503 0.2456 0.9365
vn 0.1602 0.3884 0.9075
vn 0.0540 0.0632 0.9965
vn 0.2570 0.9294 -0.2648
vn 0.4733 0.8154 -0.3334
vn 0.1819 0.9336 -0.3088
vn 0.2056 0.9717 -0.1160
vn 0.1666 0.9232 0.3464
vn 0.2289 0.6825 0.6941
vn 0.2038 -0.9777 -0.0502
vn 0.6042 -0.7932 -0.0754
vn 0.5844 -0.7427 -0.3270
vn 0.5306 -0.6828 -0.5022
vn 0.8429 -0.5359 -0.0469
vn 0.6086 -0.7503 0.2583
vn 0.6536 -0.5693 0.4987
vn 0.9147 -0.3957 -0.0820
vn 0.8562 -0.4046 -0.3211
vn 0.7949 -0.3847 0.4691
vn 0.6157 -0.4144 0.6703
vn 0.4932 -0.1708 0.8530
vn 0.9933 -0.0500 -0.1040
vn 0.9361 -0.0344 -0.3499
vn 0.8124 -0.0242 0.5826
vn 0.7969 -0.0143 0.6040
vn 0.4999 0.1248 0.8570
vn 0.0867 -0.0064 0.9962
vn 0.9298 0.3592 -0.0803
vn 0.6069 0.7904 -0.0835
vn 0.8777 0.3699 -0.3048
vn 0.6245 0.7138 -0.3172
vn 0.7956 0.3457 0.4974
vn 0.6512 0.3724 0.6612
vn 0.5707 0.6690 -0.4763
vn 0.8277 0.5586 -0.0544
vn 0.3461 0.9358 -0.0664
vn 0.8085 0.5002 0.3101
vn 0.3553 0.8985 0.2576
vn 0.4697 0.5435 0.6956
vn 0.6210 -0.7807 -0.0694
vn 0.7565 -0.3588 -0.5468
vn 0.9942 -0.1073 -0.0000
vn 0.8175 -0.4060 0.4086
vn 0.8865 -0.0199 -0.4623
vn 1.0000 -0.0085 -0.0000
vn 0.9518 -0.0210 0.3059
vn 0.7789 0.3251 -0.5363
vn 0.9952 0.0976 -0.0000
vn 0.6524 0.7549 -0.0672
vn 0.8532 0.3503 0.3864
s 0
usemtl material_0_0.44631
f 5//1 4//1 1//1 2//1
f 6//2 5//2 2//2 3//2
f 8//3 7//3 4//3 5//3
f 9//4 8//4 5//4 6//4
f 11//5 10//5 7//5 8//5
f 12//6 11//6 8//6 9//6
f 14//7 2//7 1//7 13//7
f 15//8 3//8 2//8 14//8
f 4//9 16//9 13//9 1//9
f 7//10 17//10 16//10 4//10
f 10//11 18//11 17//11 7//11
f 11//12 19//12 18//12 10//12
f 12//13 20//13 19//13 11//13
f 22//14 21//14 18//14 19//14
f 23//15 22//15 19//15 20//15
f 25//16 14//16 13//16 24//16
f 26//17 15//17 14//17 25//17
f 16//18 27//18 24//18 13//18
f 17//19 28//19 27//19 16//19
f 18//20 29//20 28//20 17//20
f 21//21 31//21 29//21 18//21
f 22//22 32//22 31//22 21//22
f 23//23 33//23 32//23 22//23
f 37//24 36//24 34//24 35//24
f 40//25 39//25 36//25 37//25
f 41//26 40//26 37//26 38//26
f 43//27 42//27 39//27 40//27
f 48//28 47//28 44//28 45//28
f 48//29 35//29 34//29 47//29
f 50//30 6//30 3//30 46//30
f 51//31 50//31 46//31 47//31
f 36//32 51//32 47//32 34//32
f 52//33 37//33 35//33 48//33
f 53//34 52//34 48//34 49//34
f 53//35 38//35 37//35 52//35
f 55//36 9//36 6//36 50//36
f 56//37 55//37 50//37 51//37
f 39//38 56//38 51//38 36//38
f 41//39 58//39 57//39 40//39
f 58//40 41//40 38//40 53//40
f 59//41 58//41 53//41 54//41
f 60//42 12//42 9//42 55//42
f 61//43 60//43 55//43 56//43
f 42//44 61//44 56//44 39//44
f 43//45 62//45 61//45 42//45
f 62//46 43//46 40//46 57//46
f 63//47 62//47 57//47 58//47
f 65//48 64//48 61//48 62//48
f 66//49 65//49 62//49 63//49
f 69//50 45//50 44//50 68//50
f 71//51 46//51 3//51 15//51
f 72//52 71//52 67//52 68//52
f 72//53 47//53 46//53 71//53
f 47//54 72//54 68//54 44//54
f 73//55 48//55 45//55 69//55
f 74//56 73//56 69//56 70//56
f 74//57 49//57 48//57 73//57
f 76//58 53//58 49//58 74//58
f 77//59 76//59 74//59 75//59
f 77//60 54//60 53//60 76//60
f 59//61 79//61 78//61 58//61
f 79//62 59//62 54//62 77//62
f 60//63 80//63 20//63 12//63
f 61//64 81//64 80//64 60//64
f 82//65 63//65 58//65 78//65
f 83//66 82//66 78//66 79//66
f 84//67 23//67 20//67 80//67
f 85//68 84//68 80//68 81//68
f 64//69 85//69 81//69 61//69
f 65//70 86//70 85//70 64//70
f 66//71 87//71 86//71 65//71
f 87//72 66//72 63//72 82//72
f 89//73 68//73 67//73 88//73
f 90//74 69//74 68//74 89//74
f 91//75 70//75 69//75 90//75
f 92//76 71//76 15//76 26//76
f 71//77 92//77 88//77 67//77
f 93//78 74//78 70//78 91//78
f 94//79 75//79 74//79 93//79
f 95//80 77//80 75//80 94//80
f 96//81 79//81 77//81 95//81
f 83//82 99//82 98//82 82//82
f 99//83 83//83 79//83 96//83
f 33//84 100//84 97//84 30//84
f 84//85 100//85 33//85 23//85
f 85//86 101//86 100//86 84//86
f 86//87 102//87 101//87 85//87
f 87//88 103//88 102//88 86//88
f 103//89 87//89 82//89 98//89
f 105//90 25//90 24//90 104//90
f 106//91 26//91 25//91 105//91
f 27//92 107//92 104//92 24//92
f 28//93 108//93 107//93 27//93
f 29//94 109//94 108//94 28//94
f 31//95 112//95 109//95 29//95
f 112//96 113//96 110//96 109//96
f 32//97 113//97 112//97 31//97
f 113//98 114//98 111//98 110//98
f 33//99 114//99 113//99 32//99
f 114//100 33//100 30//100 111//100
f 116//101 105//101 104//101 115//101
f 117//102 106//102 105//102 116//102
f 107//103 118//103 115//103 104//103
f 118//104 119//104 116//104 115//104
f 119//105 120//105 117//105 116//105
f 108//106 121//106 118//106 107//106
f 121//107 122//107 119//107 118//107
f 122//108 123//108 120//108 119//108
f 109//109 124//109 121//109 108//109
f 124//110 125//110 122//110 121//110
f 110//111 125//111 124//111 109//111
f 125//112 126//112 123//112 122//112
f 111//113 126//113 125//113 110//113
f 128//114 89//114 88//114 127//114
f 129//115 90//115 89//115 128//115
f 130//116 91//116 90//116 129//116
f 131//117 92//117 26//117 106//117
f 92//118 131//118 127//118 88//118
f 131//119 132//119 128//119 127//119
f 133//120 134//120 130//120 129//120
f 134//121 93//121 91//121 130//121
f 135//122 94//122 93//122 134//122
f 136//123 137//123 135//123 134//123
f 137//124 95//124 94//124 135//124
f 139//125 96//125 95//125 137//125
f 97//126 140//126 111//126 30//126
f 142//127 143//127 139//127 138//127
f 99//128 143//128 142//128 98//128
f 143//129 99//129 96//129 139//129
f 100//130 144//130 140//130 97//130
f 144//131 145//131 141//131 140//131
f 101//132 145//132 144//132 100//132
f 102//133 146//133 145//133 101//133
f 103//134 147//134 146//134 102//134
f 147//135 103//135 98//135 142//135
f 149//136 129//136 128//136 148//136
f 150//137 131//137 106//137 117//137
f 151//138 132//138 131//138 150//138
f 132//139 151//139 148//139 128//139
f 151//140 152//140 149//140 148//140
f 152//141 133//141 129//141 149//141
f 153//142 134//142 133//142 152//142
f 120//143 154//143 150//143 117//143
f 154//144 155//144 151//144 150//144
f 156//145 157//145 153//145 152//145
f 157//146 136//146 134//146 153//146
f 158//147 137//147 136//147 157//147
f 123//148 159//148 154//148 120//148
f 159//149 160//149 155//149 154//149
f 161//150 162//150 157//150 156//150
f 162//151 163//151 158//151 157//151
f 139//152 163//152 162//152 138//152
f 163//153 139//153 137//153 158//153
f 126//154 164//154 159//154 123//154
f 140//155 164//155 126//155 111//155
f 164//156 165//156 160//156 159//156
f 141//157 165//157 164//157 140//157
f 166//158 167//158 162//158 161//158
f 167//159 142//159 138//159 162//159
f 145//160 168//160 165//160 141//160
f 168//161 169//161 166//161 165//161
f 146//162 169//162 168//162 145//162
f 169//163 170//163 167//163 166//163
f 147//164 170//164 169//164 146//164
f 170//165 147//165 142//165 167//165
f 172//166 152//166 151//166 171//166
f 155//167 173//167 171//167 151//167
f 173//168 174//168 172//168 171//168
f 174//169 156//169 152//169 172//169
f 160//170 175//170 173//170 155//170
f 175//171 176//171 174//171 173//171
f 176//172 161//172 156//172 174//172
f 165//173 177//173 175//173 160//173
f 177//174 178//174 176//174 175//174
f 166//175 178//175 177//175 165//175
f 178//176 166//176 161//176 176//176
