# SSTK version 0.8.0
# 26
mtllib original-26.mtl
o tlp1/tlp/mesh13/mesh13-geometry#mesh13-geometry
v 0.516009 -0.838628 0.219828
v -0.515131 -0.838628 0.232872
v 0.516009 -0.838628 0.232872
v -0.515131 -0.838628 0.219828
v 0.516009 -0.840528 0.220588
v 0.516009 -0.839636 0.219610
v -0.515131 -0.840528 0.232872
v 0.516009 -0.840528 0.232872
v -0.515131 -0.839636 0.219610
v -0.515131 -0.840528 0.220588
vn 0 1 0
vn 0 -1 0
vn 1 0 0
vn -1 0 0
vn 0 0.21120057806852752 -0.9774427429898489
vn 0 -0.21120057806852752 0.9774427429898489
vn 0 -0.7384869125012145 -0.6742678103427625
vn 0 0.7384869125012145 0.6742678103427625
usemtl material_0_0
f 1//1 2//1 3//1
f 2//1 1//1 4//1
f 3//2 2//2 1//2
f 4//2 1//2 2//2
f 3//3 5//3 1//3
f 1//4 5//4 3//4
f 6//5 4//5 1//5
f 1//6 4//6 6//6
f 4//4 7//4 2//4
f 2//3 7//3 4//3
f 5//3 3//3 8//3
f 8//4 3//4 5//4
f 1//3 5//3 6//3
f 6//4 5//4 1//4
f 4//5 6//5 9//5
f 9//6 6//6 4//6
f 7//4 4//4 10//4
f 10//3 4//3 7//3
f 7//2 5//2 8//2
f 8//1 5//1 7//1
f 10//7 6//7 5//7
f 5//8 6//8 10//8
f 6//7 10//7 9//7
f 9//8 10//8 6//8
f 10//4 4//4 9//4
f 9//3 4//3 10//3
f 5//2 7//2 10//2
f 10//1 7//1 5//1
