# SSTK version 0.8.0
# 24
mtllib original-24.mtl
o brr1/brr/mesh12/mesh12-geometry#mesh12-geometry
v 0.516009 0.778485 0.240148
v 0.516009 0.779565 0.242643
v 0.516009 0.778485 0.242643
v 0.516009 0.779565 0.240148
v 0.516009 0.799385 0.242643
v -0.515131 0.778485 0.242643
v -0.515131 0.779565 0.240148
v 0.516009 0.799385 0.244119
v 0.516009 0.785178 0.242643
v -0.515131 0.778485 0.240148
v 0.516009 0.779635 0.244119
v -0.515131 0.779565 0.242643
v -0.515131 0.799385 0.242643
v -0.515131 0.785178 0.242643
v 0.516009 0.785801 0.242643
v -0.515131 0.779635 0.244119
v -0.515131 0.799385 0.244119
v 0.516009 0.794187 0.242643
v 0.516009 0.785178 0.241812
v 0.516009 0.789335 0.242643
v -0.515131 0.794187 0.242643
v 0.516009 0.793564 0.242643
v -0.515131 0.785178 0.241812
v 0.516009 0.785801 0.241812
v -0.515131 0.789335 0.242643
v 0.516009 0.791277 0.242643
v -0.515131 0.785801 0.242643
v 0.516009 0.794187 0.241812
v 0.516009 0.793564 0.241812
v -0.515131 0.785801 0.241812
v -0.515131 0.789335 0.234327
v 0.516009 0.789335 0.234327
v -0.515131 0.793564 0.242643
v -0.515131 0.794187 0.241812
v -0.515131 0.791277 0.234327
v 0.516009 0.791277 0.234327
v -0.515131 0.791277 0.242643
v -0.515131 0.793564 0.241812
v -0.515131 0.785801 0.234327
v -0.515131 0.805829 0.232872
v 0.516009 0.778485 0.232872
v 0.516009 0.785801 0.234327
v -0.515131 0.793564 0.234327
v 0.516009 0.793564 0.234327
v -0.515131 0.785801 0.234951
v -0.515131 0.785178 0.234327
v -0.515131 0.794187 0.234327
v 0.516009 0.785178 0.234327
v 0.516009 0.794187 0.234327
v 0.516009 0.785801 0.234951
v -0.515131 0.785178 0.234951
v -0.515131 0.779565 0.234327
v -0.515131 0.805829 0.234327
v -0.515131 0.793564 0.234951
v 0.516009 0.779565 0.234327
v 0.516009 0.805829 0.234327
v 0.516009 0.794187 0.234951
v -0.515131 0.778485 0.232872
v -0.515131 0.794187 0.234951
v 0.516009 0.793564 0.234951
v 0.516009 0.779565 0.236406
v 0.516009 0.785178 0.234951
v 0.516009 0.780259 0.232872
v -0.515131 0.778485 0.236406
v -0.499019 0.780259 0.232872
v 0.516009 0.805829 0.232872
v 0.516009 0.778485 0.236406
v -0.515131 0.779565 0.236406
v -0.499019 0.778485 0.232872
vn 1 0 0
vn -1 0 0
vn 0 -1 0
vn 0 1 0
vn 0 0 -1
vn 0 0 1
vn 0 -0.7888027500657016 0.6146464198942238
vn 0 0.7888027500657016 -0.6146464198942238
usemtl material_0_0
f 1//1 2//1 3//1
f 2//1 1//1 4//1
f 3//2 2//2 1//2
f 4//2 1//2 2//2
f 5//1 3//1 2//1
f 2//2 3//2 5//2
f 6//3 1//3 3//3
f 3//4 1//4 6//4
f 1//5 7//5 4//5
f 4//6 7//6 1//6
f 7//4 2//4 4//4
f 4//3 2//3 7//3
f 8//1 3//1 5//1
f 5//2 3//2 8//2
f 5//1 2//1 9//1
f 9//2 2//2 5//2
f 1//3 6//3 10//3
f 10//4 6//4 1//4
f 11//7 6//7 3//7
f 3//8 6//8 11//8
f 7//5 1//5 10//5
f 10//6 1//6 7//6
f 2//4 7//4 12//4
f 12//3 7//3 2//3
f 3//1 8//1 11//1
f 11//2 8//2 3//2
f 13//4 8//4 5//4
f 5//3 8//3 13//3
f 2//5 14//5 9//5
f 9//6 14//6 2//6
f 5//1 9//1 15//1
f 15//2 9//2 5//2
f 6//2 7//2 10//2
f 10//1 7//1 6//1
f 6//7 11//7 16//7
f 16//8 11//8 6//8
f 6//2 12//2 7//2
f 7//1 12//1 6//1
f 14//5 2//5 12//5
f 12//6 2//6 14//6
f 8//6 16//6 11//6
f 11//5 16//5 8//5
f 8//4 13//4 17//4
f 17//3 13//3 8//3
f 18//5 13//5 5//5
f 5//6 13//6 18//6
f 14//3 19//3 9//3
f 9//4 19//4 14//4
f 19//1 15//1 9//1
f 9//2 15//2 19//2
f 5//1 15//1 20//1
f 20//2 15//2 5//2
f 16//2 13//2 6//2
f 6//1 13//1 16//1
f 6//2 14//2 12//2
f 12//1 14//1 6//1
f 16//6 8//6 17//6
f 17//5 8//5 16//5
f 13//2 16//2 17//2
f 17//1 16//1 13//1
f 13//5 18//5 21//5
f 21//6 18//6 13//6
f 5//1 22//1 18//1
f 18//2 22//2 5//2
f 19//3 14//3 23//3
f 23//4 14//4 19//4
f 15//1 19//1 24//1
f 24//2 19//2 15//2
f 15//5 25//5 20//5
f 20//6 25//6 15//6
f 5//1 20//1 26//1
f 26//2 20//2 5//2
f 6//2 13//2 21//2
f 21//1 13//1 6//1
f 6//2 27//2 14//2
f 14//1 27//1 6//1
f 28//4 21//4 18//4
f 18//3 21//3 28//3
f 5//1 26//1 22//1
f 22//2 26//2 5//2
f 29//1 18//1 22//1
f 22//2 18//2 29//2
f 14//2 30//2 23//2
f 23//1 30//1 14//1
f 30//5 19//5 23//5
f 23//6 19//6 30//6
f 19//5 30//5 24//5
f 24//6 30//6 19//6
f 24//4 27//4 15//4
f 15//3 27//3 24//3
f 25//5 15//5 27//5
f 27//6 15//6 25//6
f 31//3 20//3 25//3
f 25//4 20//4 31//4
f 32//1 26//1 20//1
f 20//2 26//2 32//2
f 6//2 21//2 33//2
f 33//1 21//1 6//1
f 6//2 25//2 27//2
f 27//1 25//1 6//1
f 30//2 14//2 27//2
f 27//1 14//1 30//1
f 21//4 28//4 34//4
f 34//3 28//3 21//3
f 18//1 29//1 28//1
f 28//2 29//2 18//2
f 26//5 33//5 22//5
f 22//6 33//6 26//6
f 33//3 29//3 22//3
f 22//4 29//4 33//4
f 27//4 24//4 30//4
f 30//3 24//3 27//3
f 20//3 31//3 32//3
f 32//4 31//4 20//4
f 25//2 35//2 31//2
f 31//1 35//1 25//1
f 26//1 32//1 36//1
f 36//2 32//2 26//2
f 34//2 33//2 21//2
f 21//1 33//1 34//1
f 6//2 33//2 37//2
f 37//1 33//1 6//1
f 6//2 37//2 25//2
f 25//1 37//1 6//1
f 29//5 34//5 28//5
f 28//6 34//6 29//6
f 33//5 26//5 37//5
f 37//6 26//6 33//6
f 29//3 33//3 38//3
f 38//4 33//4 29//4
f 39//6 32//6 31//6
f 31//5 32//5 39//5
f 35//2 25//2 37//2
f 37//1 25//1 35//1
f 35//2 40//2 31//2
f 31//1 40//1 35//1
f 32//1 41//1 36//1
f 36//2 41//2 32//2
f 35//4 26//4 36//4
f 36//3 26//3 35//3
f 33//2 34//2 38//2
f 38//1 34//1 33//1
f 34//5 29//5 38//5
f 38//6 29//6 34//6
f 26//4 35//4 37//4
f 37//3 35//3 26//3
f 32//6 39//6 42//6
f 42//5 39//5 32//5
f 31//2 40//2 39//2
f 39//1 40//1 31//1
f 43//2 40//2 35//2
f 35//1 40//1 43//1
f 42//1 41//1 32//1
f 32//2 41//2 42//2
f 36//1 41//1 44//1
f 44//2 41//2 36//2
f 44//6 35//6 36//6
f 36//5 35//5 44//5
f 45//4 42//4 39//4
f 39//3 42//3 45//3
f 39//2 40//2 46//2
f 46//1 40//1 39//1
f 47//2 40//2 43//2
f 43//1 40//1 47//1
f 35//6 44//6 43//6
f 43//5 44//5 35//5
f 48//1 41//1 42//1
f 42//2 41//2 48//2
f 44//1 41//1 49//1
f 49//2 41//2 44//2
f 42//4 45//4 50//4
f 50//3 45//3 42//3
f 39//2 51//2 45//2
f 45//1 51//1 39//1
f 46//2 40//2 52//2
f 52//1 40//1 46//1
f 51//2 39//2 46//2
f 46//1 39//1 51//1
f 40//2 47//2 53//2
f 53//1 47//1 40//1
f 54//2 47//2 43//2
f 43//1 47//1 54//1
f 44//3 54//3 43//3
f 43//4 54//4 44//4
f 55//1 41//1 48//1
f 48//2 41//2 55//2
f 50//1 48//1 42//1
f 42//2 48//2 50//2
f 49//1 41//1 56//1
f 56//2 41//2 49//2
f 57//1 44//1 49//1
f 49//2 44//2 57//2
f 51//6 50//6 45//6
f 45//5 50//5 51//5
f 58//2 52//2 40//2
f 40//1 52//1 58//1
f 52//6 48//6 46//6
f 46//5 48//5 52//5
f 48//3 51//3 46//3
f 46//4 51//4 48//4
f 47//6 56//6 53//6
f 53//5 56//5 47//5
f 56//4 40//4 53//4
f 53//3 40//3 56//3
f 47//2 54//2 59//2
f 59//1 54//1 47//1
f 54//3 44//3 60//3
f 60//4 44//4 54//4
f 61//1 41//1 55//1
f 55//2 41//2 61//2
f 48//6 52//6 55//6
f 55//5 52//5 48//5
f 48//1 50//1 62//1
f 62//2 50//2 48//2
f 56//1 41//1 63//1
f 63//2 41//2 56//2
f 56//6 47//6 49//6
f 49//5 47//5 56//5
f 44//1 57//1 60//1
f 60//2 57//2 44//2
f 49//4 59//4 57//4
f 57//3 59//3 49//3
f 50//6 51//6 62//6
f 62//5 51//5 50//5
f 64//2 52//2 58//2
f 58//1 52//1 64//1
f 40//5 65//5 58//5
f 58//6 65//6 40//6
f 51//3 48//3 62//3
f 62//4 48//4 51//4
f 40//4 56//4 66//4
f 66//3 56//3 40//3
f 54//6 57//6 59//6
f 59//5 57//5 54//5
f 59//4 49//4 47//4
f 47//3 49//3 59//3
f 57//6 54//6 60//6
f 60//5 54//5 57//5
f 41//1 61//1 67//1
f 67//2 61//2 41//2
f 52//4 61//4 55//4
f 55//3 61//3 52//3
f 66//1 56//1 63//1
f 63//2 56//2 66//2
f 52//2 64//2 68//2
f 68//1 64//1 52//1
f 69//3 64//3 58//3
f 58//4 64//4 69//4
f 40//5 63//5 65//5
f 65//6 63//6 40//6
f 58//5 65//5 69//5
f 69//6 65//6 58//6
f 63//5 40//5 66//5
f 66//6 40//6 63//6
f 61//6 64//6 67//6
f 67//5 64//5 61//5
f 67//3 69//3 41//3
f 41//4 69//4 67//4
f 61//4 52//4 68//4
f 68//3 52//3 61//3
f 64//6 61//6 68//6
f 68//5 61//5 64//5
f 69//3 67//3 64//3
f 64//4 67//4 69//4
