# SSTK version 0.8.0
# 27
mtllib original-27.mtl
o trr1/trr/mesh14/mesh14-geometry#mesh14-geometry
v -0.515131 -0.840528 0.233443
v 0.516009 -0.840528 0.232872
v 0.516009 -0.840528 0.233443
v -0.515131 -0.840528 0.232872
v 0.516009 -0.814430 0.232872
v 0.516009 -0.839440 0.234196
v -0.515131 -0.838628 0.232872
v 0.516009 -0.814430 0.234196
v 0.516009 -0.838628 0.232872
v -0.515131 -0.839440 0.234196
v 0.516009 -0.833769 0.234196
v -0.515131 -0.814430 0.232872
v 0.516009 -0.819156 0.234196
v -0.515131 -0.814430 0.234196
v 0.516009 -0.815565 0.232872
v 0.516009 -0.832445 0.234196
v -0.515131 -0.815565 0.232872
v 0.516009 -0.819724 0.234196
v -0.515131 -0.819156 0.234196
v -0.515131 -0.833769 0.234196
v 0.516009 -0.827530 0.234196
v 0.516009 -0.832445 0.236464
v 0.516009 -0.821992 0.234196
v 0.516009 -0.819156 0.234952
v -0.515131 -0.819156 0.234952
v -0.515131 -0.833769 0.236464
v -0.515131 -0.832445 0.234196
v 0.516009 -0.826774 0.234196
v 0.516009 -0.833769 0.236464
v -0.515131 -0.832445 0.236464
v 0.516009 -0.823560 0.234196
v -0.515131 -0.821992 0.234196
v 0.516009 -0.819724 0.234952
v -0.515131 -0.819724 0.234952
v -0.515131 -0.819724 0.234196
v -0.515131 -0.827530 0.234196
v 0.516009 -0.826774 0.234952
v 0.516009 -0.821992 0.241946
v -0.515131 -0.821992 0.241946
v -0.515131 -0.826774 0.234196
v 0.516009 -0.827530 0.234952
v -0.515131 -0.826774 0.234952
v -0.515131 -0.827530 0.234952
v 0.516009 -0.823560 0.241946
v -0.515131 -0.823560 0.241946
v -0.515131 -0.823560 0.234196
v 0.516009 -0.814430 0.241946
v -0.515131 -0.819724 0.241946
v -0.515131 -0.832256 0.241946
v 0.516009 -0.826774 0.241946
v 0.516009 -0.819724 0.241946
v -0.515131 -0.826774 0.241946
v 0.516009 -0.827341 0.241946
v 0.516009 -0.819156 0.241946
v 0.516009 -0.819724 0.241379
v -0.515131 -0.819156 0.241946
v -0.515131 -0.827341 0.241946
v 0.516009 -0.832256 0.241946
v 0.516009 -0.827341 0.241379
v -0.515131 -0.814430 0.241946
v 0.516009 -0.826774 0.241379
v -0.515131 -0.819724 0.241379
v -0.515131 -0.819156 0.241379
v -0.515131 -0.826774 0.241379
v 0.516009 -0.833580 0.242513
v 0.516009 -0.819156 0.241379
v -0.515131 -0.814430 0.243379
v -0.515131 -0.833580 0.242513
v -0.515131 -0.827341 0.241379
v 0.516009 -0.832256 0.239678
v 0.516009 -0.814430 0.243379
v 0.516009 -0.833580 0.239678
v -0.515131 -0.832578 0.243379
v -0.515131 -0.833580 0.239678
v -0.515131 -0.832256 0.239678
v 0.516009 -0.832578 0.243379
vn 0 -1 0
vn 0 1 0
vn 1 0 0
vn -1 0 0
vn 0 -0.5689756749937246 0.8223543526153647
vn 0 0.5689756749937246 -0.8223543526153647
vn 0 0 -1
vn 0 0 1
vn 0 -0.653912502612418 0.756570181098333
vn 0 0.653912502612418 -0.756570181098333
usemtl material_0_0
f 1//1 2//1 3//1
f 2//1 1//1 4//1
f 3//2 2//2 1//2
f 4//2 1//2 2//2
f 5//3 3//3 2//3
f 2//4 3//4 5//4
f 6//5 1//5 3//5
f 3//6 1//6 6//6
f 1//4 7//4 4//4
f 4//3 7//3 1//3
f 7//7 2//7 4//7
f 4//8 2//8 7//8
f 8//3 3//3 5//3
f 5//4 3//4 8//4
f 5//3 2//3 9//3
f 9//4 2//4 5//4
f 1//5 6//5 10//5
f 10//6 6//6 1//6
f 3//3 11//3 6//3
f 6//4 11//4 3//4
f 1//4 12//4 7//4
f 7//3 12//3 1//3
f 2//7 7//7 9//7
f 9//8 7//8 2//8
f 13//3 3//3 8//3
f 8//4 3//4 13//4
f 5//2 14//2 8//2
f 8//1 14//1 5//1
f 5//3 9//3 15//3
f 15//4 9//4 5//4
f 11//8 10//8 6//8
f 6//7 10//7 11//7
f 10//4 12//4 1//4
f 1//3 12//3 10//3
f 11//3 3//3 16//3
f 16//4 3//4 11//4
f 7//4 12//4 17//4
f 17//3 12//3 7//3
f 17//7 9//7 7//7
f 7//8 9//8 17//8
f 18//3 3//3 13//3
f 13//4 3//4 18//4
f 8//8 19//8 13//8
f 13//7 19//7 8//7
f 14//2 5//2 12//2
f 12//1 5//1 14//1
f 19//8 8//8 14//8
f 14//7 8//7 19//7
f 9//7 17//7 15//7
f 15//8 17//8 9//8
f 15//7 12//7 5//7
f 5//8 12//8 15//8
f 10//8 11//8 20//8
f 20//7 11//7 10//7
f 20//4 12//4 10//4
f 10//3 12//3 20//3
f 16//3 3//3 21//3
f 21//4 3//4 16//4
f 22//3 11//3 16//3
f 16//4 11//4 22//4
f 12//7 15//7 17//7
f 17//8 15//8 12//8
f 23//3 3//3 18//3
f 18//4 3//4 23//4
f 24//3 18//3 13//3
f 13//4 18//4 24//4
f 25//2 13//2 19//2
f 19//1 13//1 25//1
f 12//4 19//4 14//4
f 14//3 19//3 12//3
f 11//1 26//1 20//1
f 20//2 26//2 11//2
f 27//4 12//4 20//4
f 20//3 12//3 27//3
f 21//3 3//3 28//3
f 28//4 3//4 21//4
f 21//8 27//8 16//8
f 16//7 27//7 21//7
f 11//3 22//3 29//3
f 29//4 22//4 11//4
f 16//2 30//2 22//2
f 22//1 30//1 16//1
f 31//3 3//3 23//3
f 23//4 3//4 31//4
f 18//8 32//8 23//8
f 23//7 32//7 18//7
f 18//3 24//3 33//3
f 33//4 24//4 18//4
f 13//2 25//2 24//2
f 24//1 25//1 13//1
f 19//4 34//4 25//4
f 25//3 34//3 19//3
f 19//4 12//4 35//4
f 35//3 12//3 19//3
f 26//1 11//1 29//1
f 29//2 11//2 26//2
f 26//4 27//4 20//4
f 20//3 27//3 26//3
f 36//4 12//4 27//4
f 27//3 12//3 36//3
f 28//3 3//3 31//3
f 31//4 3//4 28//4
f 37//3 21//3 28//3
f 28//4 21//4 37//4
f 27//8 21//8 36//8
f 36//7 21//7 27//7
f 30//2 16//2 27//2
f 27//1 16//1 30//1
f 22//8 26//8 29//8
f 29//7 26//7 22//7
f 26//8 22//8 30//8
f 30//7 22//7 26//7
f 38//3 31//3 23//3
f 23//4 31//4 38//4
f 32//8 18//8 35//8
f 35//7 18//7 32//7
f 39//2 23//2 32//2
f 32//1 23//1 39//1
f 24//8 34//8 33//8
f 33//7 34//7 24//7
f 34//1 18//1 33//1
f 33//2 18//2 34//2
f 34//8 24//8 25//8
f 25//7 24//7 34//7
f 34//4 19//4 35//4
f 35//3 19//3 34//3
f 35//4 12//4 32//4
f 32//3 12//3 35//3
f 27//4 26//4 30//4
f 30//3 26//3 27//3
f 40//4 12//4 36//4
f 36//3 12//3 40//3
f 31//8 40//8 28//8
f 28//7 40//7 31//7
f 21//3 37//3 41//3
f 41//4 37//4 21//4
f 28//2 42//2 37//2
f 37//1 42//1 28//1
f 21//1 43//1 36//1
f 36//2 43//2 21//2
f 31//3 38//3 44//3
f 44//4 38//4 31//4
f 23//2 39//2 38//2
f 38//1 39//1 23//1
f 18//1 34//1 35//1
f 35//2 34//2 18//2
f 32//4 45//4 39//4
f 39//3 45//3 32//3
f 32//4 12//4 46//4
f 46//3 12//3 32//3
f 46//4 12//4 40//4
f 40//3 12//3 46//3
f 43//4 40//4 36//4
f 36//3 40//3 43//3
f 40//8 31//8 46//8
f 46//7 31//7 40//7
f 42//2 28//2 40//2
f 40//1 28//1 42//1
f 37//8 43//8 41//8
f 41//7 43//7 37//7
f 43//1 21//1 41//1
f 41//2 21//2 43//2
f 43//8 37//8 42//8
f 42//7 37//7 43//7
f 47//3 44//3 38//3
f 38//4 44//4 47//4
f 45//1 31//1 44//1
f 44//2 31//2 45//2
f 48//7 38//7 39//7
f 39//8 38//8 48//8
f 45//4 32//4 46//4
f 46//3 32//3 45//3
f 49//4 39//4 45//4
f 45//3 39//3 49//3
f 40//4 43//4 42//4
f 42//3 43//3 40//3
f 31//1 45//1 46//1
f 46//2 45//2 31//2
f 47//3 50//3 44//3
f 44//4 50//4 47//4
f 47//3 38//3 51//3
f 51//4 38//4 47//4
f 50//7 45//7 44//7
f 44//8 45//8 50//8
f 38//7 48//7 51//7
f 51//8 48//8 38//8
f 49//4 48//4 39//4
f 39//3 48//3 49//3
f 49//4 45//4 52//4
f 52//3 45//3 49//3
f 47//3 53//3 50//3
f 50//4 53//4 47//4
f 47//3 51//3 54//3
f 54//4 51//4 47//4
f 45//7 50//7 52//7
f 52//8 50//8 45//8
f 48//1 55//1 51//1
f 51//2 55//2 48//2
f 49//4 56//4 48//4
f 48//3 56//3 49//3
f 49//4 52//4 57//4
f 57//3 52//3 49//3
f 47//3 58//3 53//3
f 53//4 58//4 47//4
f 59//3 50//3 53//3
f 53//4 50//4 59//4
f 55//3 54//3 51//3
f 51//4 54//4 55//4
f 54//7 60//7 47//7
f 47//8 60//8 54//8
f 61//2 52//2 50//2
f 50//1 52//1 61//1
f 55//1 48//1 62//1
f 62//2 48//2 55//2
f 49//4 60//4 56//4
f 56//3 60//3 49//3
f 63//4 48//4 56//4
f 56//3 48//3 63//3
f 64//4 57//4 52//4
f 52//3 57//3 64//3
f 57//7 58//7 49//7
f 49//8 58//8 57//8
f 47//3 65//3 58//3
f 58//4 65//4 47//4
f 58//7 57//7 53//7
f 53//8 57//8 58//8
f 50//3 59//3 61//3
f 61//4 59//4 50//4
f 57//1 59//1 53//1
f 53//2 59//2 57//2
f 54//3 55//3 66//3
f 66//4 55//4 54//4
f 60//7 54//7 56//7
f 56//8 54//8 60//8
f 67//2 47//2 60//2
f 60//1 47//1 67//1
f 52//2 61//2 64//2
f 64//1 61//1 52//1
f 48//4 63//4 62//4
f 62//3 63//3 48//3
f 63//7 55//7 62//7
f 62//8 55//8 63//8
f 68//4 60//4 49//4
f 49//3 60//3 68//3
f 56//2 66//2 63//2
f 63//1 66//1 56//1
f 57//4 64//4 69//4
f 69//3 64//3 57//3
f 70//2 49//2 58//2
f 58//1 49//1 70//1
f 71//3 65//3 47//3
f 47//4 65//4 71//4
f 72//3 58//3 65//3
f 65//4 58//4 72//4
f 59//7 64//7 61//7
f 61//8 64//8 59//8
f 59//1 57//1 69//1
f 69//2 57//2 59//2
f 55//7 63//7 66//7
f 66//8 63//8 55//8
f 66//2 56//2 54//2
f 54//1 56//1 66//1
f 47//2 67//2 71//2
f 71//1 67//1 47//1
f 60//4 73//4 67//4
f 67//3 73//3 60//3
f 73//4 60//4 68//4
f 68//3 60//3 73//3
f 68//4 49//4 74//4
f 74//3 49//3 68//3
f 64//7 59//7 69//7
f 69//8 59//8 64//8
f 49//2 70//2 75//2
f 75//1 70//1 49//1
f 58//3 72//3 70//3
f 70//4 72//4 58//4
f 65//3 71//3 76//3
f 76//4 71//4 65//4
f 68//1 72//1 65//1
f 65//2 72//2 68//2
f 73//8 71//8 67//8
f 67//7 71//7 73//7
f 68//9 76//9 73//9
f 73//10 76//10 68//10
f 74//4 49//4 75//4
f 75//3 49//3 74//3
f 72//1 68//1 74//1
f 74//2 68//2 72//2
f 72//7 75//7 70//7
f 70//8 75//8 72//8
f 71//8 73//8 76//8
f 76//7 73//7 71//7
f 76//9 68//9 65//9
f 65//10 68//10 76//10
f 75//7 72//7 74//7
f 74//8 72//8 75//8
