# SSTK version 0.8.0
# 4
mtllib original-4.mtl
o mesh2/mesh2-geometry#mesh2-geometry
v 0.516009 0.813521 -0.277154
v 0.532640 0.813521 0.232872
v 0.532640 0.813521 -0.277154
v 0.516009 0.813521 0.232872
v 0.532640 -0.862703 0.232872
v 0.532640 -0.862703 -0.277154
v 0.516009 -0.862703 0.232872
v 0.516009 -0.862703 -0.277154
vt 0 2.799657
vt -0.555556 0
vt 0 0
vt -0.555556 2.799657
vn 0 1 0
vn 0 -1 0
vn -1 0 0
vn 0 0 -1
vn 0 0 1
vn 1 0 0
usemtl material_0_0
f 1//1 2//1 3//1
f 2//1 1//1 4//1
f 3//2 2//2 1//2
f 4//2 1//2 2//2
f 2//3 3//3 5//3
f 6//4 1//4 3//4
f 3//5 1//5 6//5
f 1//3 7//3 4//3
f 4//6 7//6 1//6
f 6//3 5//3 3//3
f 1//4 6//4 8//4
f 8//5 6//5 1//5
f 7//3 1//3 8//3
f 8//6 1//6 7//6
f 7//2 6//2 5//2
f 5//1 6//1 7//1
f 6//2 7//2 8//2
f 8//1 7//1 6//1
usemtl material_1_0
f 5/1/6 3/2/6 2/3/6
f 3/2/6 5/1/6 6/4/6
