# SSTK version 0.8.0
# 31
mtllib original-31.mtl
o C8_1/C8/mesh15/mesh15-geometry#mesh15-geometry
v -0.508201 0.802434 0.310485
v -0.509587 -0.851615 0.310485
v -0.509587 0.802434 0.310485
v -0.508201 -0.851615 0.310485
v -0.509587 0.802434 0.313257
v -0.508201 0.802434 0.313257
v -0.508201 -0.851615 0.313257
v -0.509587 -0.851615 0.313257
v -0.509286 0.802434 0.315456
v -0.508225 0.802434 0.313619
v -0.508225 -0.851615 0.313619
v -0.509587 -0.851615 0.315657
v -0.509599 -0.851615 0.313438
v -0.509013 0.802434 0.315217
v -0.509587 0.802434 0.315657
v -0.508296 0.802434 0.313974
v -0.508296 -0.851615 0.313974
v -0.509286 -0.851615 0.315456
v -0.509599 0.802434 0.313438
v -0.508774 0.802434 0.314944
v -0.509013 -0.851615 0.315217
v -0.508412 0.802434 0.314318
v -0.508412 -0.851615 0.314318
v -0.509912 -0.851615 0.315818
v -0.509634 0.802434 0.313615
v -0.508573 0.802434 0.314643
v -0.508774 -0.851615 0.314944
v -0.509912 0.802434 0.315818
v -0.508573 -0.851615 0.314643
v -0.509634 -0.851615 0.313615
v -0.509693 -0.851615 0.313787
v -0.509693 0.802434 0.313787
v -0.510256 0.802434 0.315934
v -0.509773 -0.851615 0.313950
v -0.509773 0.802434 0.313950
v -0.510256 -0.851615 0.315934
v -0.509993 0.802434 0.314237
v -0.509874 -0.851615 0.314101
v -0.509874 0.802434 0.314101
v -0.510611 -0.851615 0.316005
v -0.509993 -0.851615 0.314237
v -0.510129 0.802434 0.314356
v -0.510611 0.802434 0.316005
v -0.510280 -0.851615 0.314457
v -0.510129 -0.851615 0.314356
v -0.510280 0.802434 0.314457
v -0.510973 0.802434 0.316029
v -0.510443 -0.851615 0.314537
v -0.510443 0.802434 0.314537
v -0.510973 -0.851615 0.316029
v -0.510614 0.802434 0.314596
v -0.510614 -0.851615 0.314596
v -0.519289 -0.851615 0.316029
v -0.510792 0.802434 0.314631
v -0.519289 0.802434 0.316029
v -0.519289 -0.851615 0.314643
v -0.510792 -0.851615 0.314631
v -0.510973 0.802434 0.314643
v -0.519289 0.802434 0.314643
v -0.520736 0.802434 0.315934
v -0.510973 -0.851615 0.314643
v -0.520555 -0.851615 0.314560
v -0.520555 0.802434 0.314560
v -0.520736 -0.851615 0.315934
v -0.522158 -0.851615 0.315651
v -0.521800 0.802434 0.314312
v -0.521800 -0.851615 0.314312
v -0.522158 0.802434 0.315651
v -0.523532 -0.851615 0.315185
v -0.523001 -0.851615 0.313904
v -0.523001 0.802434 0.313904
v -0.523532 0.802434 0.315185
v -0.524833 -0.851615 0.314543
v -0.524140 -0.851615 0.313343
v -0.524140 0.802434 0.313343
v -0.524833 0.802434 0.314543
v -0.526038 0.802434 0.313737
v -0.525195 -0.851615 0.312638
v -0.525195 0.802434 0.312638
v -0.526038 -0.851615 0.313737
v -0.527129 -0.851615 0.312781
v -0.526149 0.802434 0.311801
v -0.526149 -0.851615 0.311801
v -0.527129 0.802434 0.312781
v -0.528085 0.802434 0.311691
v -0.526986 -0.851615 0.310847
v -0.526986 0.802434 0.310847
v -0.528085 -0.851615 0.311691
v -0.527691 0.802434 0.309792
v -0.527691 -0.851615 0.309792
v -0.528891 0.802434 0.310485
v -0.528252 0.802434 0.308654
v -0.528891 -0.851615 0.310485
v -0.528252 -0.851615 0.308654
v -0.529532 -0.851615 0.309184
v -0.528660 0.802434 0.307452
v -0.528660 -0.851615 0.307452
v -0.529532 0.802434 0.309184
v -0.528907 -0.851615 0.306207
v -0.528907 0.802434 0.306207
v -0.529999 -0.851615 0.307811
v -0.528990 -0.851615 0.304941
v -0.528990 0.802434 0.304941
v -0.529999 0.802434 0.307811
v -0.530376 -0.851615 0.274450
v -0.530376 0.802434 0.274450
v -0.530281 0.802434 0.306388
v -0.530281 -0.851615 0.306388
v -0.528990 -0.851615 0.293868
v -0.528990 0.802434 0.293868
v -0.530376 -0.851615 0.304941
v -0.528990 -0.851615 0.292468
v -0.528990 0.802434 0.292468
v -0.530376 0.802434 0.304941
v -0.528990 -0.851615 0.275836
v -0.510973 -0.851615 0.293868
v -0.510973 0.802434 0.293868
v -0.528990 0.802434 0.275836
v -0.510973 -0.851615 0.275836
v -0.510973 -0.851615 0.292468
v -0.510973 0.802434 0.275836
v -0.510973 0.802434 0.292468
v -0.510973 -0.851615 0.274450
v -0.510973 0.802434 0.274450
vn 0 0 -1
vn 0 0 1
vn -1 0 0
vn -0.9994645906263837 0 -0.03271898659853464
vn 1 0 0
vn 0.9994645906263837 0 0.03271898659853464
vn 0 1 0
vn 0 -1 0
vn -0.9914448886106773 0 -0.13052598533534088
vn 0.9914448886106773 0 0.13052598533534088
vn 0.6087613233345315 0 0.7933534213778811
vn 0.7071067811865478 0 0.7071067811865476
vn -0.7071067811865478 0 -0.7071067811865476
vn -0.6087613233345315 0 -0.7933534213778811
vn 0.500000174843842 0 0.8660253028382761
vn -0.500000174843842 0 -0.8660253028382761
vn 0.9659258492011171 0 0.2588189595935752
vn -0.9659258492011171 0 -0.2588189595935752
vn 0.7933534213778815 0 0.6087613233345311
vn -0.7933534213778815 0 -0.6087613233345311
vn 0.3826828980362604 0 0.9238797538373537
vn -0.3826828980362604 0 -0.9238797538373537
vn 0.9238797538373539 0 0.38268289803625993
vn -0.9238797538373539 0 -0.38268289803625993
vn 0.8660253028382763 0 0.5000001748438415
vn -0.8660253028382763 0 -0.5000001748438415
vn 0.2588189595935757 0 0.9659258492011171
vn -0.2588189595935757 0 -0.9659258492011171
vn 0.13052598533534132 0 0.9914448886106773
vn -0.13052598533534132 0 -0.9914448886106773
vn 0.03271898659853508 0 0.9994645906263837
vn -0.03271898659853508 0 -0.9994645906263837
vn -0.03271898659853464 0 0.9994645906263837
vn 0.03271898659853464 0 -0.9994645906263837
vn -0.13052598533534088 0 0.9914448886106773
vn 0.13052598533534088 0 -0.9914448886106773
vn -0.2588189595935752 0 0.9659258492011171
vn 0.2588189595935752 0 -0.9659258492011171
vn -0.38268289803625993 0 0.9238797538373539
vn 0.38268289803625993 0 -0.9238797538373539
vn -0.5000001748438415 0 0.8660253028382763
vn 0.5000001748438415 0 -0.8660253028382763
vn -0.6087613233345311 0 0.7933534213778815
vn 0.6087613233345311 0 -0.7933534213778815
vn -0.7071067811865476 0 0.7071067811865478
vn 0.7071067811865476 0 -0.7071067811865478
vn -0.7933534213778811 0 0.6087613233345315
vn 0.7933534213778811 0 -0.6087613233345315
vn -0.8660253028382761 0 0.500000174843842
vn 0.8660253028382761 0 -0.500000174843842
vn 0.9238797538373537 0 -0.3826828980362604
vn -0.9238797538373537 0 0.3826828980362604
vn 0.9659258492011171 0 -0.2588189595935757
vn -0.9659258492011171 0 0.2588189595935757
vn 0.9914448886106773 0 -0.13052598533534132
vn -0.9914448886106773 0 0.13052598533534132
vn 0.9994645906263837 0 -0.03271898659853508
vn -0.9994645906263837 0 0.03271898659853508
usemtl material_0_0
f 1//1 2//1 3//1
f 2//1 1//1 4//1
f 3//2 2//2 1//2
f 4//2 1//2 2//2
f 2//3 5//4 3//3
f 3//5 5//6 2//5
f 3//7 6//7 1//7
f 1//8 6//8 3//8
f 6//6 4//5 1//5
f 1//3 4//3 6//4
f 7//8 2//8 4//8
f 4//7 2//7 7//7
f 5//4 2//3 8//4
f 8//6 2//5 5//6
f 9//7 3//7 5//7
f 5//8 3//8 9//8
f 6//7 3//7 10//7
f 10//8 3//8 6//8
f 4//5 6//6 7//6
f 7//4 6//4 4//3
f 2//8 7//8 11//8
f 11//7 7//7 2//7
f 2//8 12//8 8//8
f 8//7 12//7 2//7
f 13//9 5//4 8//4
f 8//6 5//6 13//10
f 14//7 3//7 9//7
f 9//8 3//8 14//8
f 9//7 5//7 15//7
f 15//8 5//8 9//8
f 10//7 3//7 16//7
f 16//8 3//8 10//8
f 10//10 7//6 6//6
f 6//4 7//4 10//9
f 7//6 10//10 11//10
f 11//9 10//9 7//4
f 2//8 11//8 17//8
f 17//7 11//7 2//7
f 2//8 18//8 12//8
f 12//7 18//7 2//7
f 8//8 12//8 13//8
f 13//7 12//7 8//7
f 5//4 13//9 19//9
f 19//10 13//10 5//6
f 20//7 3//7 14//7
f 14//8 3//8 20//8
f 9//11 21//12 14//12
f 14//13 21//13 9//14
f 15//7 5//7 19//7
f 19//8 5//8 15//8
f 12//15 9//11 15//15
f 15//16 9//14 12//16
f 16//7 3//7 22//7
f 22//8 3//8 16//8
f 16//17 11//10 10//10
f 10//9 11//9 16//18
f 11//10 16//17 17//17
f 17//18 16//18 11//9
f 2//8 17//8 23//8
f 23//7 17//7 2//7
f 2//8 21//8 18//8
f 18//7 21//7 2//7
f 9//11 12//15 18//11
f 18//14 12//16 9//14
f 13//8 12//8 24//8
f 24//7 12//7 13//7
f 13//9 25//18 19//9
f 19//10 25//17 13//10
f 26//7 3//7 20//7
f 20//8 3//8 26//8
f 14//12 27//19 20//19
f 20//20 27//20 14//13
f 21//12 9//11 18//11
f 18//14 9//14 21//13
f 27//19 14//12 21//12
f 21//13 14//13 27//20
f 15//7 19//7 28//7
f 28//8 19//8 15//8
f 15//15 24//21 12//15
f 12//16 24//22 15//16
f 22//7 3//7 26//7
f 26//8 3//8 22//8
f 22//23 17//17 16//17
f 16//18 17//18 22//24
f 17//17 22//23 23//23
f 23//24 22//24 17//18
f 2//8 23//8 29//8
f 29//7 23//7 2//7
f 2//8 27//8 21//8
f 21//7 27//7 2//7
f 13//8 24//8 30//8
f 30//7 24//7 13//7
f 25//18 13//9 30//18
f 30//17 13//10 25//17
f 28//7 19//7 25//7
f 25//8 19//8 28//8
f 20//19 29//25 26//25
f 26//26 29//26 20//20
f 29//25 20//19 27//19
f 27//20 20//20 29//26
f 24//21 15//15 28//21
f 28//22 15//16 24//22
f 26//25 23//23 22//23
f 22//24 23//24 26//26
f 23//23 26//25 29//25
f 29//26 26//26 23//24
f 2//8 29//8 27//8
f 27//7 29//7 2//7
f 30//8 24//8 31//8
f 31//7 24//7 30//7
f 30//18 32//24 25//18
f 25//17 32//23 30//17
f 28//7 25//7 32//7
f 32//8 25//8 28//8
f 33//27 24//21 28//21
f 28//22 24//22 33//28
f 31//8 24//8 34//8
f 34//7 24//7 31//7
f 32//24 30//18 31//24
f 31//23 30//17 32//23
f 28//7 32//7 35//7
f 35//8 32//8 28//8
f 24//21 33//27 36//27
f 36//28 33//28 24//22
f 28//7 37//7 33//7
f 33//8 37//8 28//8
f 34//8 24//8 38//8
f 38//7 24//7 34//7
f 35//26 31//24 34//26
f 34//25 31//23 35//25
f 31//24 35//26 32//24
f 32//23 35//25 31//23
f 28//7 35//7 39//7
f 39//8 35//8 28//8
f 33//27 40//29 36//27
f 36//28 40//30 33//28
f 41//8 24//8 36//8
f 36//7 24//7 41//7
f 28//7 39//7 37//7
f 37//8 39//8 28//8
f 33//7 37//7 42//7
f 42//8 37//8 33//8
f 38//8 24//8 41//8
f 41//7 24//7 38//7
f 39//20 34//26 38//20
f 38//19 34//25 39//19
f 34//26 39//20 35//26
f 35//25 39//19 34//25
f 40//29 33//27 43//29
f 43//30 33//28 40//30
f 44//8 36//8 40//8
f 40//7 36//7 44//7
f 41//8 36//8 45//8
f 45//7 36//7 41//7
f 39//20 41//13 37//13
f 37//12 41//12 39//19
f 41//13 42//14 37//13
f 37//12 42//11 41//12
f 33//7 42//7 46//7
f 46//8 42//8 33//8
f 41//13 39//20 38//20
f 38//19 39//19 41//12
f 33//7 46//7 43//7
f 43//8 46//8 33//8
f 47//31 40//29 43//29
f 43//30 40//30 47//32
f 45//8 36//8 44//8
f 44//7 36//7 45//7
f 44//8 40//8 48//8
f 48//7 40//7 44//7
f 42//14 41//13 45//14
f 45//11 41//12 42//11
f 45//14 46//16 42//14
f 42//11 46//15 45//11
f 43//7 46//7 49//7
f 49//8 46//8 43//8
f 40//29 47//31 50//31
f 50//32 47//32 40//30
f 43//7 51//7 47//7
f 47//8 51//8 43//8
f 46//16 45//14 44//16
f 44//15 45//11 46//15
f 48//8 40//8 52//8
f 52//7 40//7 48//7
f 49//22 44//16 48//22
f 48//21 44//15 49//21
f 44//16 49//22 46//16
f 46//15 49//21 44//15
f 43//7 49//7 51//7
f 51//8 49//8 43//8
f 47//31 53//33 50//31
f 50//32 53//34 47//32
f 52//8 40//8 50//8
f 50//7 40//7 52//7
f 47//7 51//7 54//7
f 54//8 51//8 47//8
f 52//28 49//22 48//22
f 48//21 49//21 52//27
f 49//22 52//28 51//28
f 51//27 52//27 49//21
f 53//33 47//31 55//33
f 55//34 47//32 53//34
f 56//8 50//8 53//8
f 53//7 50//7 56//7
f 52//8 50//8 57//8
f 57//7 50//7 52//7
f 52//28 54//30 51//28
f 51//27 54//29 52//27
f 47//7 54//7 58//7
f 58//8 54//8 47//8
f 47//7 59//7 55//7
f 55//8 59//8 47//8
f 60//35 53//33 55//33
f 55//34 53//34 60//36
f 61//8 50//8 56//8
f 56//7 50//7 61//7
f 56//8 53//8 62//8
f 62//7 53//7 56//7
f 57//8 50//8 61//8
f 61//7 50//7 57//7
f 54//30 52//28 57//30
f 57//29 52//27 54//29
f 57//30 58//32 54//30
f 54//29 58//31 57//29
f 47//7 58//7 59//7
f 59//8 58//8 47//8
f 55//7 59//7 63//7
f 63//8 59//8 55//8
f 53//33 60//35 64//35
f 64//36 60//36 53//34
f 55//7 63//7 60//7
f 60//8 63//8 55//8
f 59//34 61//32 56//34
f 56//33 61//31 59//33
f 62//8 53//8 64//8
f 64//7 53//7 62//7
f 62//36 59//34 56//34
f 56//33 59//33 62//35
f 58//32 57//30 61//32
f 61//31 57//29 58//31
f 61//32 59//34 58//32
f 58//31 59//33 61//31
f 59//34 62//36 63//36
f 63//35 62//35 59//33
f 60//35 65//37 64//35
f 64//36 65//38 60//36
f 60//7 63//7 66//7
f 66//8 63//8 60//8
f 62//8 64//8 67//8
f 67//7 64//7 62//7
f 62//36 66//38 63//36
f 63//35 66//37 62//35
f 65//37 60//35 68//37
f 68//38 60//36 65//38
f 67//8 64//8 65//8
f 65//7 64//7 67//7
f 60//7 66//7 68//7
f 68//8 66//8 60//8
f 66//38 62//36 67//38
f 67//37 62//35 66//37
f 68//37 69//39 65//37
f 65//38 69//40 68//38
f 67//8 65//8 70//8
f 70//7 65//7 67//7
f 68//7 66//7 71//7
f 71//8 66//8 68//8
f 70//40 66//38 67//38
f 67//37 66//37 70//39
f 69//39 68//37 72//39
f 72//40 68//38 69//40
f 70//8 65//8 69//8
f 69//7 65//7 70//7
f 66//38 70//40 71//40
f 71//39 70//39 66//37
f 68//7 71//7 72//7
f 72//8 71//8 68//8
f 72//39 73//41 69//39
f 69//40 73//42 72//40
f 70//8 69//8 74//8
f 74//7 69//7 70//7
f 70//40 75//42 71//40
f 71//39 75//41 70//39
f 72//7 71//7 75//7
f 75//8 71//8 72//8
f 73//41 72//39 76//41
f 76//42 72//40 73//42
f 74//8 69//8 73//8
f 73//7 69//7 74//7
f 75//42 70//40 74//42
f 74//41 70//39 75//41
f 72//7 75//7 76//7
f 76//8 75//8 72//8
f 77//43 73//41 76//41
f 76//42 73//42 77//44
f 74//8 73//8 78//8
f 78//7 73//7 74//7
f 74//42 79//44 75//42
f 75//41 79//43 74//41
f 76//7 75//7 79//7
f 79//8 75//8 76//8
f 73//41 77//43 80//43
f 80//44 77//44 73//42
f 76//7 79//7 77//7
f 77//8 79//8 76//8
f 78//8 73//8 80//8
f 80//7 73//7 78//7
f 79//44 74//42 78//44
f 78//43 74//41 79//43
f 77//43 81//45 80//43
f 80//44 81//46 77//44
f 77//7 79//7 82//7
f 82//8 79//8 77//8
f 78//8 80//8 83//8
f 83//7 80//7 78//7
f 83//46 79//44 78//44
f 78//43 79//43 83//45
f 81//45 77//43 84//45
f 84//46 77//44 81//46
f 83//8 80//8 81//8
f 81//7 80//7 83//7
f 79//44 83//46 82//46
f 82//45 83//45 79//43
f 77//7 82//7 84//7
f 84//8 82//8 77//8
f 85//47 81//45 84//45
f 84//46 81//46 85//48
f 83//8 81//8 86//8
f 86//7 81//7 83//7
f 86//48 82//46 83//46
f 83//45 82//45 86//47
f 84//7 82//7 87//7
f 87//8 82//8 84//8
f 81//45 85//47 88//47
f 88//48 85//48 81//46
f 84//7 89//7 85//7
f 85//8 89//8 84//8
f 86//8 81//8 90//8
f 90//7 81//7 86//7
f 82//46 86//48 87//48
f 87//47 86//47 82//45
f 84//7 87//7 89//7
f 89//8 87//8 84//8
f 91//49 88//47 85//47
f 85//48 88//48 91//50
f 90//8 81//8 88//8
f 88//7 81//7 90//7
f 85//7 89//7 92//7
f 92//8 89//8 85//8
f 90//50 87//48 86//48
f 86//47 87//47 90//49
f 87//48 90//50 89//50
f 89//49 90//49 87//47
f 88//47 91//49 93//49
f 93//50 91//50 88//48
f 85//7 92//7 91//7
f 91//8 92//8 85//8
f 90//8 88//8 94//8
f 94//7 88//7 90//7
f 89//50 94//51 92//51
f 92//52 94//52 89//49
f 94//51 89//50 90//50
f 90//49 89//49 94//52
f 91//49 95//52 93//49
f 93//50 95//51 91//50
f 94//8 88//8 93//8
f 93//7 88//7 94//7
f 91//7 92//7 96//7
f 96//8 92//8 91//8
f 97//53 92//51 94//51
f 94//52 92//52 97//54
f 95//52 91//49 98//52
f 98//51 91//50 95//51
f 99//8 93//8 95//8
f 95//7 93//7 99//7
f 94//8 93//8 97//8
f 97//7 93//7 94//7
f 92//51 97//53 96//53
f 96//54 97//54 92//52
f 91//7 96//7 100//7
f 100//8 96//8 91//8
f 91//7 100//7 98//7
f 98//8 100//8 91//8
f 98//52 101//54 95//52
f 95//51 101//53 98//51
f 97//8 93//8 99//8
f 99//7 93//7 97//7
f 99//8 95//8 102//8
f 102//7 95//7 99//7
f 99//55 96//53 97//53
f 97//54 96//54 99//56
f 96//53 99//55 100//55
f 100//56 99//56 96//54
f 98//7 100//7 103//7
f 103//8 100//8 98//8
f 101//54 98//52 104//54
f 104//53 98//51 101//53
f 105//8 95//8 101//8
f 101//7 95//7 105//7
f 105//8 102//8 95//8
f 95//7 102//7 105//7
f 102//57 100//55 99//55
f 99//56 100//56 102//58
f 100//55 102//57 103//57
f 103//58 102//58 100//56
f 103//7 106//7 98//7
f 98//8 106//8 103//8
f 98//7 106//7 104//7
f 104//8 106//8 98//8
f 107//56 101//54 104//54
f 104//53 101//53 107//55
f 105//8 101//8 108//8
f 108//7 101//7 105//7
f 105//8 109//8 102//8
f 102//7 109//7 105//7
f 109//5 103//57 102//57
f 102//58 103//58 109//3
f 110//7 106//7 103//7
f 103//8 106//8 110//8
f 104//7 106//7 107//7
f 107//8 106//8 104//8
f 101//54 107//56 108//56
f 108//55 107//55 101//53
f 105//8 108//8 111//8
f 111//7 108//7 105//7
f 105//8 112//8 109//8
f 109//7 112//7 105//7
f 103//57 109//5 110//5
f 110//3 109//3 103//58
f 113//7 106//7 110//7
f 110//8 106//8 113//8
f 107//7 106//7 114//7
f 114//8 106//8 107//8
f 107//56 111//58 108//56
f 108//55 111//57 107//55
f 114//58 105//3 111//58
f 111//57 105//5 114//57
f 105//8 115//8 112//8
f 112//7 115//7 105//7
f 112//8 116//8 109//8
f 109//7 116//7 112//7
f 109//2 117//2 110//2
f 110//1 117//1 109//1
f 118//7 106//7 113//7
f 113//8 106//8 118//8
f 117//7 113//7 110//7
f 110//8 113//8 117//8
f 105//3 114//58 106//3
f 106//5 114//57 105//5
f 111//58 107//56 114//58
f 114//57 107//55 111//57
f 105//8 119//8 115//8
f 115//7 119//7 105//7
f 115//5 113//5 112//5
f 112//3 113//3 115//3
f 116//8 112//8 120//8
f 120//7 112//7 116//7
f 117//2 109//2 116//2
f 116//1 109//1 117//1
f 121//7 106//7 118//7
f 118//8 106//8 121//8
f 113//5 115//5 118//5
f 118//3 115//3 113//3
f 113//7 117//7 122//7
f 122//8 117//8 113//8
f 106//1 123//1 105//1
f 105//2 123//2 106//2
f 119//8 105//8 123//8
f 123//7 105//7 119//7
f 121//2 115//2 119//2
f 119//1 115//1 121//1
f 122//1 112//1 113//1
f 113//2 112//2 122//2
f 112//1 122//1 120//1
f 120//2 122//2 112//2
f 120//5 117//5 116//5
f 116//3 117//3 120//3
f 106//7 121//7 124//7
f 124//8 121//8 106//8
f 115//2 121//2 118//2
f 118//1 121//1 115//1
f 117//5 120//5 122//5
f 122//3 120//3 117//3
f 123//1 106//1 124//1
f 124//2 106//2 123//2
f 123//5 121//5 119//5
f 119//3 121//3 123//3
f 121//5 123//5 124//5
f 124//3 123//3 121//3
