# Blender 3.5.0
# www.blender.org
mtllib remesh_original-19.mtl
o mesh25/mesh25-geometry#mesh25-geometry
v 0.299724 -0.260846 0.569744
v 0.299416 -0.261634 0.575000
v 0.299247 -0.262000 0.585000
v 0.299247 -0.262000 0.595000
v 0.299247 -0.262000 0.605000
v 0.299247 -0.262000 0.615000
v 0.299498 -0.261333 0.620661
v 0.299585 -0.255000 0.569616
v 0.298832 -0.255000 0.575000
v 0.298494 -0.255000 0.585000
v 0.298494 -0.255000 0.595000
v 0.298494 -0.255000 0.605000
v 0.298494 -0.255000 0.615000
v 0.299247 -0.255000 0.620991
v 0.299585 -0.245000 0.569616
v 0.298832 -0.245000 0.575000
v 0.298494 -0.245000 0.585000
v 0.298494 -0.245000 0.595000
v 0.298494 -0.245000 0.605000
v 0.298494 -0.245000 0.615000
v 0.299247 -0.245000 0.620991
v 0.309356 -0.270183 0.569815
v 0.309034 -0.270274 0.575000
v 0.309034 -0.270274 0.585000
v 0.309034 -0.270274 0.595000
v 0.309034 -0.270274 0.605000
v 0.309034 -0.270274 0.615000
v 0.309356 -0.270183 0.620272
v 0.305614 -0.264507 0.569582
v 0.304034 -0.266634 0.575000
v 0.304034 -0.267000 0.585000
v 0.304034 -0.267000 0.595000
v 0.304034 -0.267000 0.605000
v 0.304034 -0.267000 0.615000
v 0.305614 -0.264800 0.621271
v 0.305000 -0.255000 0.569232
v 0.305000 -0.255000 0.622791
v 0.305000 -0.245000 0.569232
v 0.305000 -0.245000 0.622813
v 0.315000 -0.270345 0.569670
v 0.315000 -0.270857 0.575000
v 0.315000 -0.271025 0.585000
v 0.315000 -0.271025 0.595000
v 0.315000 -0.271025 0.605000
v 0.315000 -0.271025 0.615000
v 0.315000 -0.270512 0.620698
v 0.315000 -0.265000 0.569286
v 0.315000 -0.265000 0.622497
v 0.315000 -0.255000 0.569232
v 0.315000 -0.255000 0.623625
v 0.315000 -0.245000 0.569232
v 0.315000 -0.245000 0.623651
v 0.299585 -0.235000 0.569616
v 0.298832 -0.235000 0.575000
v 0.298494 -0.235000 0.585000
v 0.298494 -0.235000 0.595000
v 0.298494 -0.235000 0.605000
v 0.298494 -0.235000 0.615000
v 0.299247 -0.235000 0.620991
v 0.299585 -0.225000 0.569616
v 0.298838 -0.225000 0.575000
v 0.298505 -0.225000 0.585000
v 0.298505 -0.225000 0.595000
v 0.298505 -0.225000 0.605000
v 0.298505 -0.225000 0.615000
v 0.299253 -0.225000 0.620984
v 0.299724 -0.219697 0.569744
v 0.299422 -0.219368 0.575000
v 0.299259 -0.219192 0.585000
v 0.299259 -0.219192 0.595000
v 0.299259 -0.219192 0.605000
v 0.299259 -0.219192 0.615000
v 0.299506 -0.219461 0.620651
v 0.305000 -0.235000 0.569232
v 0.305000 -0.235000 0.622813
v 0.305000 -0.225000 0.569232
v 0.305000 -0.225000 0.622871
v 0.305000 -0.219450 0.569616
v 0.305000 -0.217935 0.575000
v 0.305000 -0.216946 0.585000
v 0.305000 -0.216922 0.595000
v 0.305000 -0.216922 0.605000
v 0.305000 -0.216982 0.615000
v 0.305000 -0.218521 0.621465
v 0.315000 -0.235000 0.569232
v 0.315000 -0.235000 0.623651
v 0.315000 -0.225000 0.569232
v 0.315000 -0.225000 0.623700
v 0.315000 -0.219298 0.569616
v 0.315000 -0.216839 0.575000
v 0.315000 -0.215052 0.585000
v 0.315000 -0.215023 0.595000
v 0.315000 -0.215023 0.605000
v 0.315000 -0.215331 0.615000
v 0.315000 -0.217819 0.621874
v 0.325000 -0.270404 0.569616
v 0.325000 -0.271020 0.575000
v 0.325000 -0.271232 0.585000
v 0.325000 -0.271232 0.595000
v 0.325000 -0.271232 0.605000
v 0.325000 -0.271232 0.615000
v 0.325000 -0.270616 0.620834
v 0.325000 -0.265000 0.569232
v 0.325000 -0.265000 0.622647
v 0.325000 -0.255000 0.569232
v 0.325000 -0.255000 0.623642
v 0.325000 -0.245000 0.569232
v 0.325000 -0.245000 0.623658
v 0.331194 -0.270262 0.569744
v 0.331921 -0.270438 0.575000
v 0.332052 -0.270482 0.585000
v 0.332052 -0.270482 0.595000
v 0.332052 -0.270482 0.605000
v 0.332052 -0.270482 0.615000
v 0.331368 -0.270321 0.620453
v 0.334716 -0.264716 0.569539
v 0.336921 -0.267585 0.575000
v 0.337052 -0.268397 0.585000
v 0.337052 -0.268414 0.595000
v 0.337052 -0.268414 0.605000
v 0.337052 -0.268508 0.615000
v 0.334821 -0.265441 0.621730
v 0.335000 -0.255000 0.569232
v 0.335000 -0.255000 0.623658
v 0.335000 -0.245000 0.569232
v 0.335000 -0.245000 0.623670
v 0.340376 -0.261194 0.569744
v 0.341088 -0.262585 0.575000
v 0.341628 -0.263397 0.585000
v 0.341645 -0.263414 0.595000
v 0.341645 -0.263414 0.605000
v 0.341748 -0.263508 0.615000
v 0.341234 -0.262402 0.621227
v 0.340564 -0.255000 0.569616
v 0.342286 -0.255000 0.575000
v 0.343492 -0.255000 0.585000
v 0.343540 -0.255000 0.595000
v 0.343540 -0.255000 0.605000
v 0.343621 -0.255000 0.615000
v 0.341851 -0.255000 0.621841
v 0.340564 -0.245000 0.569616
v 0.342400 -0.245000 0.575000
v 0.343733 -0.245000 0.585000
v 0.343794 -0.245000 0.595000
v 0.343794 -0.245000 0.605000
v 0.343748 -0.245000 0.615000
v 0.341851 -0.245000 0.621841
v 0.325000 -0.235000 0.569232
v 0.325000 -0.235000 0.623658
v 0.325000 -0.225000 0.569232
v 0.325000 -0.225000 0.623672
v 0.325000 -0.219277 0.569616
v 0.325000 -0.216721 0.575000
v 0.325000 -0.214867 0.585000
v 0.325000 -0.214846 0.595000
v 0.325000 -0.214846 0.605000
v 0.325000 -0.215230 0.615000
v 0.325000 -0.217806 0.621843
v 0.335000 -0.235000 0.569232
v 0.335000 -0.235000 0.623670
v 0.335000 -0.225000 0.569232
v 0.335000 -0.225000 0.623521
v 0.335000 -0.219404 0.569616
v 0.335000 -0.217514 0.575000
v 0.335000 -0.216205 0.585000
v 0.335000 -0.216189 0.595000
v 0.335000 -0.216189 0.605000
v 0.335000 -0.216325 0.615000
v 0.335000 -0.218231 0.621686
v 0.340564 -0.235000 0.569616
v 0.342402 -0.235000 0.575000
v 0.343737 -0.235000 0.585000
v 0.343798 -0.235000 0.595000
v 0.343798 -0.235000 0.605000
v 0.343750 -0.235000 0.615000
v 0.341851 -0.235000 0.621841
v 0.340564 -0.225000 0.569616
v 0.342228 -0.225000 0.575000
v 0.343358 -0.225000 0.585000
v 0.343389 -0.225000 0.595000
v 0.343389 -0.225000 0.605000
v 0.343365 -0.225000 0.615000
v 0.341671 -0.225000 0.621661
v 0.340376 -0.219663 0.569744
v 0.341027 -0.219066 0.575000
v 0.341490 -0.218636 0.585000
v 0.341490 -0.218636 0.595000
v 0.341490 -0.218636 0.605000
v 0.341490 -0.218636 0.615000
v 0.340994 -0.219091 0.620987
vn -0.9929 -0.0585 -0.1033
vn -0.9949 -0.0975 -0.0270
vn -0.9943 -0.1070 -0.0000
vn -0.9930 -0.0770 0.0900
vn -0.9904 -0.0000 -0.1385
vn -0.9994 -0.0000 -0.0338
vn -1.0000 -0.0000 -0.0000
vn -0.9922 -0.0000 0.1247
vn -0.6999 -0.6635 -0.2644
vn -0.6081 -0.7319 -0.3074
vn -0.5687 -0.8224 -0.0150
vn -0.7281 -0.6848 -0.0312
vn -0.5479 -0.8366 -0.0000
vn -0.7223 -0.6916 -0.0000
vn -0.6669 -0.7022 0.2493
vn -0.5996 -0.7524 0.2728
vn -0.0592 -0.0340 -0.9977
vn -0.2319 -0.1231 0.9649
vn -0.0708 -0.0000 -0.9975
vn -0.3002 -0.0010 0.9539
vn -0.0646 -0.9962 -0.0592
vn -0.1110 -0.9938 -0.0083
vn -0.1248 -0.9922 -0.0000
vn -0.0946 -0.9939 0.0575
vn -0.0323 -0.0668 -0.9972
vn -0.1147 -0.2839 0.9520
vn -0.0158 -0.0212 -0.9997
vn -0.1061 -0.1350 0.9851
vn -0.0000 -0.0000 -1.0000
vn -0.0833 -0.0024 0.9965
vn -0.9904 0.0003 -0.1380
vn -0.9994 0.0009 -0.0335
vn -1.0000 0.0012 -0.0000
vn -0.9922 0.0009 0.1243
vn -0.9928 0.0667 -0.0999
vn -0.9929 0.1160 -0.0256
vn -0.9917 0.1286 -0.0000
vn -0.9921 0.0905 0.0869
vn -0.3019 -0.0000 0.9533
vn -0.3070 -0.0024 0.9517
vn -0.0489 0.0477 -0.9977
vn -0.1527 0.9730 -0.1729
vn -0.3086 0.9494 -0.0578
vn -0.3660 0.9306 -0.0011
vn -0.3677 0.9300 -0.0000
vn -0.3634 0.9316 0.0028
vn -0.2769 0.9495 0.1474
vn -0.2426 0.1439 0.9594
vn -0.0835 -0.0000 0.9965
vn -0.0830 -0.0054 0.9965
vn -0.0005 0.0681 -0.9977
vn -0.0584 0.9365 -0.3456
vn -0.1464 0.9798 -0.1360
vn -0.1863 0.9825 -0.0026
vn -0.1865 0.9825 -0.0000
vn -0.1747 0.9845 0.0181
vn -0.1177 0.9507 0.2870
vn -0.0682 0.2297 0.9709
vn -0.0114 -0.9944 -0.1048
vn -0.0185 -0.9996 -0.0190
vn -0.0207 -0.9998 -0.0000
vn -0.0161 -0.9951 0.0974
vn -0.0056 -0.0713 -0.9974
vn -0.0152 -0.3088 0.9510
vn -0.0027 -0.0027 -1.0000
vn -0.0083 -0.1055 0.9944
vn -0.0012 -0.0021 1.0000
vn 0.0557 -0.9954 -0.0779
vn 0.0950 -0.9954 -0.0134
vn 0.1058 -0.9944 -0.0000
vn 0.0795 -0.9941 0.0732
vn 0.0290 -0.0630 -0.9976
vn 0.6485 -0.6670 -0.3669
vn 0.4423 -0.8958 -0.0441
vn 0.3836 -0.9235 -0.0008
vn 0.3822 -0.9241 -0.0000
vn 0.3747 -0.9271 -0.0044
vn 0.5624 -0.7560 0.3349
vn 0.0734 -0.3038 0.9499
vn 0.0158 -0.0158 -0.9998
vn 0.0418 -0.1418 0.9890
vn -0.0014 -0.0014 1.0000
vn 0.5962 -0.6771 -0.4314
vn 0.7505 -0.6562 -0.0784
vn 0.7370 -0.6758 -0.0018
vn 0.7364 -0.6765 -0.0000
vn 0.7326 -0.6806 -0.0102
vn 0.5577 -0.7483 0.3592
vn 0.0615 -0.0291 -0.9977
vn 0.9671 -0.0995 -0.2342
vn 0.9779 -0.1874 -0.0930
vn 0.9759 -0.2182 -0.0033
vn 0.9756 -0.2196 -0.0000
vn 0.9761 -0.2173 -0.0100
vn 0.9702 -0.1589 0.1830
vn 0.2030 -0.1469 0.9681
vn 0.0689 -0.0000 -0.9976
vn 0.9495 -0.0054 -0.3137
vn 0.9919 -0.0176 -0.1259
vn 0.9997 -0.0248 -0.0054
vn 0.9997 -0.0254 -0.0000
vn 0.9998 -0.0191 -0.0018
vn 0.9659 -0.0061 0.2589
vn 0.2571 -0.0006 0.9664
vn -0.0007 -0.0000 1.0000
vn 0.0010 -0.0032 1.0000
vn -0.0001 0.0671 -0.9977
vn -0.0063 0.9065 -0.4222
vn -0.0150 0.9837 -0.1791
vn -0.0181 0.9998 -0.0025
vn -0.0177 0.9998 -0.0000
vn -0.0139 0.9993 0.0345
vn -0.0048 0.9381 0.3464
vn 0.0027 0.2464 0.9692
vn -0.0012 -0.0000 1.0000
vn 0.0070 0.0067 1.0000
vn 0.0004 0.0677 -0.9977
vn 0.0424 0.9235 -0.3813
vn 0.1046 0.9823 -0.1554
vn 0.1328 0.9911 -0.0018
vn 0.1331 0.9911 -0.0000
vn 0.1210 0.9923 0.0258
vn 0.0744 0.9466 0.3136
vn 0.0203 0.2537 0.9671
vn 0.9464 -0.0001 -0.3229
vn 0.9912 -0.0003 -0.1322
vn 1.0000 -0.0004 -0.0061
vn 1.0000 -0.0004 -0.0000
vn 1.0000 -0.0003 0.0047
vn 0.9636 -0.0001 0.2674
vn 0.2579 -0.0000 0.9662
vn 0.9509 0.0083 -0.3092
vn 0.9921 0.0274 -0.1223
vn 0.9992 0.0394 -0.0046
vn 0.9992 0.0409 -0.0000
vn 0.9992 0.0397 0.0036
vn 0.9659 0.0296 0.2571
vn 0.2631 0.0182 0.9646
vn 0.0478 0.0476 -0.9977
vn 0.9684 0.1218 -0.2176
vn 0.1551 0.9598 -0.2339
vn 0.9670 0.2413 -0.0822
vn 0.3021 0.9491 -0.0895
vn 0.9589 0.2838 -0.0015
vn 0.3518 0.9361 -0.0007
vn 0.9583 0.2859 -0.0000
vn 0.3528 0.9357 -0.0000
vn 0.9587 0.2843 0.0011
vn 0.3441 0.9389 0.0064
vn 0.9621 0.2096 0.1742
vn 0.2517 0.9496 0.1867
vn 0.2071 0.2005 0.9576
s 0
usemtl material_0_0.770
f 9//1 8//1 1//1 2//1
f 10//2 9//2 2//2 3//2
f 11//3 10//3 3//3 4//3
f 12//3 11//3 4//3 5//3
f 13//3 12//3 5//3 6//3
f 14//4 13//4 6//4 7//4
f 16//5 15//5 8//5 9//5
f 17//6 16//6 9//6 10//6
f 18//7 17//7 10//7 11//7
f 19//7 18//7 11//7 12//7
f 20//7 19//7 12//7 13//7
f 21//8 20//8 13//8 14//8
f 30//9 29//9 22//9 23//9
f 30//10 2//10 1//10 29//10
f 31//11 30//11 23//11 24//11
f 31//12 3//12 2//12 30//12
f 32//13 31//13 24//13 25//13
f 32//14 4//14 3//14 31//14
f 33//13 32//13 25//13 26//13
f 33//14 5//14 4//14 32//14
f 34//13 33//13 26//13 27//13
f 34//14 6//14 5//14 33//14
f 35//15 34//15 27//15 28//15
f 35//16 7//16 6//16 34//16
f 8//17 36//17 29//17 1//17
f 37//18 14//18 7//18 35//18
f 15//19 38//19 36//19 8//19
f 39//20 21//20 14//20 37//20
f 41//21 23//21 22//21 40//21
f 42//22 24//22 23//22 41//22
f 43//23 25//23 24//23 42//23
f 44//23 26//23 25//23 43//23
f 45//23 27//23 26//23 44//23
f 46//24 28//24 27//24 45//24
f 29//25 47//25 40//25 22//25
f 48//26 35//26 28//26 46//26
f 36//27 49//27 47//27 29//27
f 50//28 37//28 35//28 48//28
f 38//29 51//29 49//29 36//29
f 52//30 39//30 37//30 50//30
f 54//5 53//5 15//5 16//5
f 55//6 54//6 16//6 17//6
f 56//7 55//7 17//7 18//7
f 57//7 56//7 18//7 19//7
f 58//7 57//7 19//7 20//7
f 59//8 58//8 20//8 21//8
f 61//31 60//31 53//31 54//31
f 62//32 61//32 54//32 55//32
f 63//33 62//33 55//33 56//33
f 64//33 63//33 56//33 57//33
f 65//33 64//33 57//33 58//33
f 66//34 65//34 58//34 59//34
f 68//35 67//35 60//35 61//35
f 69//36 68//36 61//36 62//36
f 70//37 69//37 62//37 63//37
f 71//37 70//37 63//37 64//37
f 72//37 71//37 64//37 65//37
f 73//38 72//38 65//38 66//38
f 53//19 74//19 38//19 15//19
f 75//39 59//39 21//39 39//39
f 60//19 76//19 74//19 53//19
f 77//40 66//40 59//40 75//40
f 67//41 78//41 76//41 60//41
f 68//42 79//42 78//42 67//42
f 69//43 80//43 79//43 68//43
f 70//44 81//44 80//44 69//44
f 71//45 82//45 81//45 70//45
f 72//46 83//46 82//46 71//46
f 73//47 84//47 83//47 72//47
f 84//48 73//48 66//48 77//48
f 74//29 85//29 51//29 38//29
f 86//49 75//49 39//49 52//49
f 76//29 87//29 85//29 74//29
f 88//50 77//50 75//50 86//50
f 78//51 89//51 87//51 76//51
f 79//52 90//52 89//52 78//52
f 80//53 91//53 90//53 79//53
f 81//54 92//54 91//54 80//54
f 82//55 93//55 92//55 81//55
f 83//56 94//56 93//56 82//56
f 84//57 95//57 94//57 83//57
f 95//58 84//58 77//58 88//58
f 97//59 41//59 40//59 96//59
f 98//60 42//60 41//60 97//60
f 99//61 43//61 42//61 98//61
f 100//61 44//61 43//61 99//61
f 101//61 45//61 44//61 100//61
f 102//62 46//62 45//62 101//62
f 47//63 103//63 96//63 40//63
f 104//64 48//64 46//64 102//64
f 49//65 105//65 103//65 47//65
f 106//66 50//66 48//66 104//66
f 51//29 107//29 105//29 49//29
f 108//67 52//67 50//67 106//67
f 110//68 97//68 96//68 109//68
f 111//69 98//69 97//69 110//69
f 112//70 99//70 98//70 111//70
f 113//70 100//70 99//70 112//70
f 114//70 101//70 100//70 113//70
f 115//71 102//71 101//71 114//71
f 103//72 116//72 109//72 96//72
f 116//73 117//73 110//73 109//73
f 117//74 118//74 111//74 110//74
f 118//75 119//75 112//75 111//75
f 119//76 120//76 113//76 112//76
f 120//77 121//77 114//77 113//77
f 121//78 122//78 115//78 114//78
f 122//79 104//79 102//79 115//79
f 105//80 123//80 116//80 103//80
f 124//81 106//81 104//81 122//81
f 107//29 125//29 123//29 105//29
f 126//82 108//82 106//82 124//82
f 128//83 117//83 116//83 127//83
f 129//84 118//84 117//84 128//84
f 130//85 119//85 118//85 129//85
f 131//86 120//86 119//86 130//86
f 132//87 121//87 120//87 131//87
f 133//88 122//88 121//88 132//88
f 123//89 134//89 127//89 116//89
f 134//90 135//90 128//90 127//90
f 135//91 136//91 129//91 128//91
f 136//92 137//92 130//92 129//92
f 137//93 138//93 131//93 130//93
f 138//94 139//94 132//94 131//94
f 139//95 140//95 133//95 132//95
f 140//96 124//96 122//96 133//96
f 125//97 141//97 134//97 123//97
f 141//98 142//98 135//98 134//98
f 142//99 143//99 136//99 135//99
f 143//100 144//100 137//100 136//100
f 144//101 145//101 138//101 137//101
f 145//102 146//102 139//102 138//102
f 146//103 147//103 140//103 139//103
f 147//104 126//104 124//104 140//104
f 85//29 148//29 107//29 51//29
f 149//105 86//105 52//105 108//105
f 87//29 150//29 148//29 85//29
f 151//106 88//106 86//106 149//106
f 89//107 152//107 150//107 87//107
f 90//108 153//108 152//108 89//108
f 91//109 154//109 153//109 90//109
f 92//110 155//110 154//110 91//110
f 93//111 156//111 155//111 92//111
f 94//112 157//112 156//112 93//112
f 95//113 158//113 157//113 94//113
f 158//114 95//114 88//114 151//114
f 148//29 159//29 125//29 107//29
f 160//115 149//115 108//115 126//115
f 150//29 161//29 159//29 148//29
f 162//116 151//116 149//116 160//116
f 152//117 163//117 161//117 150//117
f 153//118 164//118 163//118 152//118
f 154//119 165//119 164//119 153//119
f 155//120 166//120 165//120 154//120
f 156//121 167//121 166//121 155//121
f 157//122 168//122 167//122 156//122
f 158//123 169//123 168//123 157//123
f 169//124 158//124 151//124 162//124
f 159//97 170//97 141//97 125//97
f 170//125 171//125 142//125 141//125
f 171//126 172//126 143//126 142//126
f 172//127 173//127 144//127 143//127
f 173//128 174//128 145//128 144//128
f 174//129 175//129 146//129 145//129
f 175//130 176//130 147//130 146//130
f 176//131 160//131 126//131 147//131
f 161//97 177//97 170//97 159//97
f 177//132 178//132 171//132 170//132
f 178//133 179//133 172//133 171//133
f 179//134 180//134 173//134 172//134
f 180//135 181//135 174//135 173//135
f 181//136 182//136 175//136 174//136
f 182//137 183//137 176//137 175//137
f 183//138 162//138 160//138 176//138
f 163//139 184//139 177//139 161//139
f 184//140 185//140 178//140 177//140
f 164//141 185//141 184//141 163//141
f 185//142 186//142 179//142 178//142
f 165//143 186//143 185//143 164//143
f 186//144 187//144 180//144 179//144
f 166//145 187//145 186//145 165//145
f 187//146 188//146 181//146 180//146
f 167//147 188//147 187//147 166//147
f 188//148 189//148 182//148 181//148
f 168//149 189//149 188//149 167//149
f 189//150 190//150 183//150 182//150
f 169//151 190//151 189//151 168//151
f 190//152 169//152 162//152 183//152
