# Blender 3.5.0
# www.blender.org
mtllib remesh_original-13.mtl
o mesh20/mesh20-geometry#mesh20-geometry.161
v -0.410644 -0.291047 0.569432
v -0.410930 -0.291521 0.575000
v -0.410597 -0.290981 0.580511
v -0.410644 -0.288812 0.569432
v -0.410930 -0.288271 0.575000
v -0.410597 -0.288882 0.580511
v -0.405000 -0.291339 0.569305
v -0.405000 -0.292580 0.575000
v -0.405000 -0.291241 0.580619
v -0.405000 -0.288642 0.569305
v -0.405000 -0.287379 0.575000
v -0.405000 -0.288737 0.580619
v -0.399642 -0.290738 0.569641
v -0.399489 -0.291059 0.575000
v -0.399677 -0.290674 0.580314
v -0.399642 -0.289377 0.569641
v -0.399489 -0.289108 0.575000
v -0.399677 -0.289434 0.580314
vn -0.9987 -0.0000 -0.0514
vn -0.9982 -0.0000 0.0604
vn -0.1163 -0.9814 -0.1525
vn -0.1136 -0.9791 0.1687
vn -0.0225 -0.0000 -0.9997
vn -0.0920 0.9828 -0.1598
vn -0.0899 0.9803 0.1761
vn -0.0193 -0.0000 0.9998
vn 0.1939 -0.9710 -0.1399
vn 0.1912 -0.9691 0.1561
vn 0.0626 -0.0000 -0.9980
vn 0.9996 -0.0000 -0.0285
vn 0.2231 0.9651 -0.1369
vn 0.9994 -0.0000 0.0353
vn 0.2201 0.9635 0.1522
vn 0.0571 -0.0000 0.9984
s 0
usemtl material_0_0.51634
f 5//1 4//1 1//1 2//1
f 6//2 5//2 2//2 3//2
f 8//3 2//3 1//3 7//3
f 9//4 3//4 2//4 8//4
f 4//5 10//5 7//5 1//5
f 5//6 11//6 10//6 4//6
f 6//7 12//7 11//7 5//7
f 12//8 6//8 3//8 9//8
f 14//9 8//9 7//9 13//9
f 15//10 9//10 8//10 14//10
f 10//11 16//11 13//11 7//11
f 16//12 17//12 14//12 13//12
f 11//13 17//13 16//13 10//13
f 17//14 18//14 15//14 14//14
f 12//15 18//15 17//15 11//15
f 18//16 12//16 9//16 15//16
