# Blender 3.5.0
# www.blender.org
mtllib remesh_original-11.mtl
o mesh18/mesh18-geometry#mesh18-geometry.244
v -0.450287 -0.290563 0.569752
v -0.450365 -0.290715 0.575000
v -0.450200 -0.290391 0.580168
v -0.450287 -0.287222 0.569752
v -0.450365 -0.285984 0.575000
v -0.450200 -0.287423 0.580168
v -0.445000 -0.290968 0.569566
v -0.445000 -0.291735 0.575000
v -0.445000 -0.290767 0.580338
v -0.445000 -0.287139 0.569566
v -0.445000 -0.284536 0.575000
v -0.445000 -0.287397 0.580338
v -0.439234 -0.290728 0.569670
v -0.438911 -0.291020 0.575000
v -0.439313 -0.290632 0.580284
v -0.439234 -0.288964 0.569670
v -0.438911 -0.288553 0.575000
v -0.439313 -0.289107 0.580284
vn -0.9999 -0.0000 -0.0149
vn -0.9995 -0.0000 0.0320
vn -0.1336 -0.9873 -0.0860
vn -0.1319 -0.9836 0.1231
vn -0.0351 -0.0000 -0.9994
vn -0.1397 0.9315 -0.3360
vn -0.1339 0.9164 0.3772
vn -0.0328 -0.0000 0.9995
vn 0.0808 -0.9917 -0.1000
vn 0.0720 -0.9890 0.1290
vn 0.0179 -0.0000 -0.9998
vn 0.9982 -0.0000 -0.0606
vn 0.4291 0.8664 -0.2555
vn 0.9971 -0.0000 0.0760
vn 0.4193 0.8595 0.2922
vn 0.0096 -0.0000 1.0000
s 0
usemtl material_0_0.51630
f 5//1 4//1 1//1 2//1
f 6//2 5//2 2//2 3//2
f 8//3 2//3 1//3 7//3
f 9//4 3//4 2//4 8//4
f 4//5 10//5 7//5 1//5
f 5//6 11//6 10//6 4//6
f 6//7 12//7 11//7 5//7
f 12//8 6//8 3//8 9//8
f 14//9 8//9 7//9 13//9
f 15//10 9//10 8//10 14//10
f 10//11 16//11 13//11 7//11
f 16//12 17//12 14//12 13//12
f 11//13 17//13 16//13 10//13
f 17//14 18//14 15//14 14//14
f 12//15 18//15 17//15 11//15
f 18//16 12//16 9//16 15//16
