# Blender 3.5.0
# www.blender.org
mtllib remesh_original-20.mtl
o mesh26/mesh26-geometry#mesh26-geometry.173
v 0.299724 0.299663 0.569744
v 0.299416 0.299296 0.575000
v 0.299247 0.299097 0.585000
v 0.299247 0.299097 0.595000
v 0.299247 0.299097 0.605000
v 0.299498 0.299398 0.610829
v 0.299585 0.305000 0.569616
v 0.298832 0.305000 0.575000
v 0.298494 0.305000 0.585000
v 0.298494 0.305000 0.595000
v 0.298494 0.305000 0.605000
v 0.299247 0.305000 0.611244
v 0.299585 0.315000 0.569616
v 0.298832 0.315000 0.575000
v 0.298494 0.315000 0.585000
v 0.298494 0.315000 0.595000
v 0.298494 0.315000 0.605000
v 0.299247 0.315000 0.611244
v 0.305000 0.299369 0.569616
v 0.305000 0.297580 0.575000
v 0.305000 0.296416 0.585000
v 0.305000 0.296409 0.595000
v 0.305000 0.296802 0.605000
v 0.305000 0.298597 0.611541
v 0.305000 0.305000 0.569232
v 0.305000 0.305000 0.613442
v 0.305000 0.315000 0.569232
v 0.305000 0.315000 0.613802
v 0.315000 0.299162 0.569616
v 0.315000 0.296228 0.575000
v 0.315000 0.294126 0.585000
v 0.315000 0.294119 0.595000
v 0.315000 0.294900 0.605000
v 0.315000 0.297841 0.611949
v 0.315000 0.305000 0.569232
v 0.315000 0.305000 0.614507
v 0.315000 0.315000 0.569232
v 0.315000 0.315000 0.615116
v 0.299585 0.325000 0.569616
v 0.298832 0.325000 0.575000
v 0.298494 0.325000 0.585000
v 0.298494 0.325000 0.595000
v 0.298494 0.325000 0.605000
v 0.299247 0.325000 0.611244
v 0.299585 0.335000 0.569616
v 0.298832 0.335000 0.575000
v 0.298494 0.335000 0.585000
v 0.298494 0.335000 0.595000
v 0.298494 0.335000 0.605000
v 0.299247 0.335000 0.611244
v 0.299724 0.340669 0.569744
v 0.299416 0.341326 0.575000
v 0.299247 0.341649 0.585000
v 0.299247 0.341649 0.595000
v 0.299247 0.341649 0.605000
v 0.299498 0.341100 0.610829
v 0.305000 0.325000 0.569232
v 0.305000 0.325000 0.613802
v 0.305000 0.335000 0.569232
v 0.305000 0.335000 0.613790
v 0.305000 0.342238 0.569616
v 0.305000 0.345470 0.575000
v 0.305000 0.346469 0.585000
v 0.305000 0.346468 0.595000
v 0.305000 0.346387 0.605000
v 0.305000 0.343156 0.611889
v 0.315000 0.325000 0.569232
v 0.315000 0.325000 0.615116
v 0.315000 0.335000 0.569232
v 0.315000 0.335000 0.615104
v 0.314715 0.345389 0.569569
v 0.311787 0.349144 0.575000
v 0.311787 0.349820 0.585000
v 0.311787 0.349819 0.595000
v 0.311787 0.349738 0.605000
v 0.314715 0.345865 0.612272
v 0.317858 0.350203 0.569794
v 0.316787 0.350304 0.575000
v 0.316787 0.350304 0.585000
v 0.316787 0.350304 0.595000
v 0.316787 0.350304 0.605000
v 0.317858 0.350203 0.610393
v 0.325000 0.299132 0.569616
v 0.325000 0.296088 0.575000
v 0.325000 0.293910 0.585000
v 0.325000 0.293908 0.595000
v 0.325000 0.294689 0.605000
v 0.325000 0.297735 0.611999
v 0.325000 0.305000 0.569232
v 0.325000 0.305000 0.614557
v 0.325000 0.315000 0.569232
v 0.325000 0.315000 0.615116
v 0.335000 0.299307 0.569616
v 0.335000 0.296958 0.575000
v 0.335000 0.295299 0.585000
v 0.335000 0.295297 0.595000
v 0.335000 0.295689 0.605000
v 0.335000 0.298041 0.612036
v 0.335000 0.305000 0.569232
v 0.335000 0.305000 0.614285
v 0.335000 0.315000 0.569232
v 0.335000 0.315000 0.614499
v 0.340376 0.299621 0.569744
v 0.341180 0.298814 0.575000
v 0.341796 0.298195 0.585000
v 0.341796 0.298195 0.595000
v 0.341796 0.298195 0.605000
v 0.341197 0.298797 0.611423
v 0.340564 0.305000 0.569616
v 0.342381 0.305000 0.575000
v 0.343665 0.305000 0.585000
v 0.343696 0.305000 0.595000
v 0.343554 0.305000 0.605000
v 0.341706 0.305000 0.612037
v 0.340564 0.315000 0.569616
v 0.342402 0.315000 0.575000
v 0.343738 0.315000 0.585000
v 0.343799 0.315000 0.595000
v 0.343516 0.315000 0.605000
v 0.341616 0.315000 0.611941
v 0.325000 0.325000 0.569232
v 0.325000 0.325000 0.615116
v 0.325000 0.335000 0.569232
v 0.325000 0.335000 0.615112
v 0.325000 0.345000 0.569441
v 0.325000 0.345000 0.612890
v 0.325000 0.350171 0.569825
v 0.325000 0.350342 0.575000
v 0.325000 0.350342 0.585000
v 0.325000 0.350342 0.595000
v 0.325000 0.350342 0.605000
v 0.325000 0.350171 0.610335
v 0.335000 0.325000 0.569232
v 0.335000 0.325000 0.614499
v 0.335000 0.335000 0.569232
v 0.335000 0.335000 0.614362
v 0.334066 0.344515 0.569677
v 0.335164 0.347003 0.575000
v 0.335164 0.347730 0.585000
v 0.335164 0.347740 0.595000
v 0.335164 0.347641 0.605000
v 0.334066 0.345017 0.611723
v 0.330110 0.350025 0.569973
v 0.330164 0.350038 0.575000
v 0.330164 0.350038 0.585000
v 0.330164 0.350038 0.595000
v 0.330164 0.350038 0.605000
v 0.330110 0.350025 0.610054
v 0.340564 0.325000 0.569616
v 0.342394 0.325000 0.575000
v 0.343721 0.325000 0.585000
v 0.343782 0.325000 0.595000
v 0.343508 0.325000 0.605000
v 0.341616 0.325000 0.611941
v 0.340564 0.335000 0.569616
v 0.342236 0.335000 0.575000
v 0.343383 0.335000 0.585000
v 0.343422 0.335000 0.595000
v 0.343207 0.335000 0.605000
v 0.341496 0.335000 0.611808
v 0.340376 0.340858 0.569744
v 0.341043 0.342003 0.575000
v 0.341530 0.342730 0.585000
v 0.341539 0.342740 0.595000
v 0.341457 0.342641 0.605000
v 0.340917 0.341695 0.611117
vn -0.9927 -0.0661 -0.1012
vn -0.9931 -0.1144 -0.0263
vn -0.9920 -0.1265 -0.0000
vn -0.9924 -0.0897 0.0848
vn -0.9904 -0.0000 -0.1385
vn -0.9994 -0.0000 -0.0338
vn -1.0000 -0.0000 -0.0000
vn -0.9928 -0.0000 0.1197
vn -0.1806 -0.9629 -0.2003
vn -0.3607 -0.9303 -0.0664
vn -0.4228 -0.9062 -0.0003
vn -0.3974 -0.9175 0.0180
vn -0.2713 -0.9480 0.1662
vn -0.0491 -0.0472 -0.9977
vn -0.2583 -0.1882 0.9476
vn -0.0708 -0.0000 -0.9975
vn -0.3819 -0.0166 0.9240
vn -0.0712 -0.9135 -0.4005
vn -0.1769 -0.9714 -0.1586
vn -0.2232 -0.9748 -0.0007
vn -0.2048 -0.9771 0.0573
vn -0.1310 -0.9354 0.3284
vn -0.0007 -0.0668 -0.9978
vn -0.0816 -0.3113 0.9468
vn -0.0000 -0.0000 -1.0000
vn -0.1180 -0.0480 0.9918
vn -0.9928 0.0609 -0.1027
vn -0.9944 0.1025 -0.0269
vn -0.9936 0.1125 -0.0000
vn -0.9930 0.0810 0.0863
vn -0.4063 -0.0000 0.9137
vn -0.4055 0.0006 0.9141
vn -0.0537 0.0402 -0.9977
vn -0.4442 0.8373 -0.3189
vn -0.6192 0.7832 -0.0570
vn -0.6422 0.7666 -0.0000
vn -0.6389 0.7692 0.0031
vn -0.5173 0.8175 0.2532
vn -0.3272 0.1571 0.9318
vn -0.1303 -0.0000 0.9915
vn -0.1303 0.0012 0.9915
vn -0.0089 0.0407 -0.9991
vn -0.3144 0.7563 -0.5737
vn -0.4583 0.8857 -0.0742
vn -0.4427 0.8967 0.0001
vn -0.4427 0.8966 0.0073
vn -0.3128 0.8215 0.4768
vn -0.1158 0.2382 0.9643
vn -0.5179 0.7232 -0.4569
vn -0.1622 0.9862 -0.0333
vn -0.0965 0.9953 -0.0000
vn -0.1045 0.9945 0.0040
vn -0.4080 0.8264 0.3881
vn -0.0075 -0.8743 -0.4853
vn -0.0174 -0.9777 -0.2092
vn -0.0213 -0.9998 -0.0005
vn -0.0210 -0.9967 0.0778
vn -0.0155 -0.9188 0.3943
vn -0.0001 -0.0655 -0.9979
vn -0.0065 -0.3343 0.9425
vn -0.0025 -0.0583 0.9983
vn 0.0467 -0.8931 -0.4474
vn 0.1102 -0.9761 -0.1872
vn 0.1375 -0.9905 -0.0002
vn 0.1184 -0.9913 0.0581
vn 0.0602 -0.9317 0.3583
vn 0.0006 -0.0663 -0.9978
vn 0.0160 -0.3201 0.9472
vn 0.0444 -0.0386 0.9983
vn 0.1797 -0.9393 -0.2923
vn 0.3416 -0.9326 -0.1167
vn 0.3922 -0.9199 -0.0001
vn 0.3694 -0.9291 0.0182
vn 0.2473 -0.9441 0.2181
vn 0.0481 -0.0470 -0.9977
vn 0.9620 -0.1183 -0.2460
vn 0.9684 -0.2289 -0.0991
vn 0.9637 -0.2669 -0.0015
vn 0.9657 -0.2595 0.0068
vn 0.9669 -0.1772 0.1837
vn 0.2234 -0.2155 0.9506
vn 0.0689 -0.0000 -0.9976
vn 0.9469 -0.0010 -0.3215
vn 0.9915 -0.0047 -0.1299
vn 1.0000 -0.0088 -0.0046
vn 0.9998 -0.0033 0.0212
vn 0.9659 0.0074 0.2589
vn 0.3393 -0.0040 0.9407
vn -0.0000 -0.0000 1.0000
vn -0.0004 0.0008 1.0000
vn -0.0058 0.0267 -0.9996
vn -0.0199 0.2351 0.9718
vn -0.0040 0.0621 -0.9981
vn -0.0003 0.9997 -0.0263
vn -0.0046 1.0000 -0.0000
vn -0.0003 0.9997 0.0254
vn -0.0072 0.4245 0.9054
vn 0.0616 -0.0000 0.9981
vn 0.0682 0.0070 0.9976
vn 0.0132 0.0341 -0.9993
vn 0.0969 0.2392 0.9661
vn 0.0303 0.0747 -0.9967
vn 0.6651 0.7056 -0.2446
vn 0.0440 0.9989 -0.0182
vn 0.4710 0.8816 -0.0320
vn 0.0588 0.9983 -0.0000
vn 0.4184 0.9083 -0.0005
vn 0.4250 0.9052 0.0045
vn 0.5941 0.7706 0.2307
vn 0.0442 0.9989 0.0179
vn 0.0963 0.4131 0.9056
vn 0.9466 0.0004 -0.3225
vn 0.9913 0.0012 -0.1320
vn 1.0000 0.0017 -0.0061
vn 0.9996 0.0013 0.0279
vn 0.9647 0.0004 0.2634
vn 0.3606 -0.0000 0.9327
vn 0.9510 0.0075 -0.3092
vn 0.9921 0.0246 -0.1227
vn 0.9994 0.0349 -0.0050
vn 0.9992 0.0330 0.0245
vn 0.9671 0.0221 0.2534
vn 0.3632 0.0147 0.9316
vn 0.0505 0.0409 -0.9979
vn 0.9687 0.1062 -0.2244
vn 0.5432 0.7621 -0.3524
vn 0.9756 0.2016 -0.0871
vn 0.6309 0.7726 -0.0715
vn 0.9721 0.2347 -0.0024
vn 0.6174 0.7866 -0.0011
vn 0.9731 0.2298 0.0156
vn 0.6196 0.7849 0.0103
vn 0.9693 0.1662 0.1810
vn 0.5215 0.8026 0.2897
vn 0.2748 0.2118 0.9379
s 0
usemtl material_0_0.51636
f 8//1 7//1 1//1 2//1
f 9//2 8//2 2//2 3//2
f 10//3 9//3 3//3 4//3
f 11//3 10//3 4//3 5//3
f 12//4 11//4 5//4 6//4
f 14//5 13//5 7//5 8//5
f 15//6 14//6 8//6 9//6
f 16//7 15//7 9//7 10//7
f 17//7 16//7 10//7 11//7
f 18//8 17//8 11//8 12//8
f 20//9 2//9 1//9 19//9
f 21//10 3//10 2//10 20//10
f 22//11 4//11 3//11 21//11
f 23//12 5//12 4//12 22//12
f 24//13 6//13 5//13 23//13
f 7//14 25//14 19//14 1//14
f 26//15 12//15 6//15 24//15
f 13//16 27//16 25//16 7//16
f 28//17 18//17 12//17 26//17
f 30//18 20//18 19//18 29//18
f 31//19 21//19 20//19 30//19
f 32//20 22//20 21//20 31//20
f 33//21 23//21 22//21 32//21
f 34//22 24//22 23//22 33//22
f 25//23 35//23 29//23 19//23
f 36//24 26//24 24//24 34//24
f 27//25 37//25 35//25 25//25
f 38//26 28//26 26//26 36//26
f 40//5 39//5 13//5 14//5
f 41//6 40//6 14//6 15//6
f 42//7 41//7 15//7 16//7
f 43//7 42//7 16//7 17//7
f 44//8 43//8 17//8 18//8
f 46//5 45//5 39//5 40//5
f 47//6 46//6 40//6 41//6
f 48//7 47//7 41//7 42//7
f 49//7 48//7 42//7 43//7
f 50//8 49//8 43//8 44//8
f 52//27 51//27 45//27 46//27
f 53//28 52//28 46//28 47//28
f 54//29 53//29 47//29 48//29
f 55//29 54//29 48//29 49//29
f 56//30 55//30 49//30 50//30
f 39//16 57//16 27//16 13//16
f 58//31 44//31 18//31 28//31
f 45//16 59//16 57//16 39//16
f 60//32 50//32 44//32 58//32
f 51//33 61//33 59//33 45//33
f 52//34 62//34 61//34 51//34
f 53//35 63//35 62//35 52//35
f 54//36 64//36 63//36 53//36
f 55//37 65//37 64//37 54//37
f 56//38 66//38 65//38 55//38
f 66//39 56//39 50//39 60//39
f 57//25 67//25 37//25 27//25
f 68//40 58//40 28//40 38//40
f 59//25 69//25 67//25 57//25
f 70//41 60//41 58//41 68//41
f 61//42 71//42 69//42 59//42
f 62//43 72//43 71//43 61//43
f 63//44 73//44 72//44 62//44
f 64//45 74//45 73//45 63//45
f 65//46 75//46 74//46 64//46
f 66//47 76//47 75//47 65//47
f 76//48 66//48 60//48 70//48
f 78//49 77//49 71//49 72//49
f 79//50 78//50 72//50 73//50
f 80//51 79//51 73//51 74//51
f 81//52 80//52 74//52 75//52
f 82//53 81//53 75//53 76//53
f 84//54 30//54 29//54 83//54
f 85//55 31//55 30//55 84//55
f 86//56 32//56 31//56 85//56
f 87//57 33//57 32//57 86//57
f 88//58 34//58 33//58 87//58
f 35//59 89//59 83//59 29//59
f 90//60 36//60 34//60 88//60
f 37//25 91//25 89//25 35//25
f 92//61 38//61 36//61 90//61
f 94//62 84//62 83//62 93//62
f 95//63 85//63 84//63 94//63
f 96//64 86//64 85//64 95//64
f 97//65 87//65 86//65 96//65
f 98//66 88//66 87//66 97//66
f 89//67 99//67 93//67 83//67
f 100//68 90//68 88//68 98//68
f 91//25 101//25 99//25 89//25
f 102//69 92//69 90//69 100//69
f 104//70 94//70 93//70 103//70
f 105//71 95//71 94//71 104//71
f 106//72 96//72 95//72 105//72
f 107//73 97//73 96//73 106//73
f 108//74 98//74 97//74 107//74
f 99//75 109//75 103//75 93//75
f 109//76 110//76 104//76 103//76
f 110//77 111//77 105//77 104//77
f 111//78 112//78 106//78 105//78
f 112//79 113//79 107//79 106//79
f 113//80 114//80 108//80 107//80
f 114//81 100//81 98//81 108//81
f 101//82 115//82 109//82 99//82
f 115//83 116//83 110//83 109//83
f 116//84 117//84 111//84 110//84
f 117//85 118//85 112//85 111//85
f 118//86 119//86 113//86 112//86
f 119//87 120//87 114//87 113//87
f 120//88 102//88 100//88 114//88
f 67//25 121//25 91//25 37//25
f 122//89 68//89 38//89 92//89
f 69//25 123//25 121//25 67//25
f 124//90 70//90 68//90 122//90
f 71//91 125//91 123//91 69//91
f 126//92 76//92 70//92 124//92
f 77//93 127//93 125//93 71//93
f 78//94 128//94 127//94 77//94
f 79//95 129//95 128//95 78//95
f 80//95 130//95 129//95 79//95
f 81//95 131//95 130//95 80//95
f 82//96 132//96 131//96 81//96
f 132//97 82//97 76//97 126//97
f 121//25 133//25 101//25 91//25
f 134//98 122//98 92//98 102//98
f 123//25 135//25 133//25 121//25
f 136//99 124//99 122//99 134//99
f 125//100 137//100 135//100 123//100
f 142//101 126//101 124//101 136//101
f 127//102 143//102 137//102 125//102
f 143//103 144//103 138//103 137//103
f 128//104 144//104 143//104 127//104
f 144//105 145//105 139//105 138//105
f 129//106 145//106 144//106 128//106
f 145//107 146//107 140//107 139//107
f 130//106 146//106 145//106 129//106
f 146//108 147//108 141//108 140//108
f 131//106 147//106 146//106 130//106
f 147//109 148//109 142//109 141//109
f 132//110 148//110 147//110 131//110
f 148//111 132//111 126//111 142//111
f 133//82 149//82 115//82 101//82
f 149//112 150//112 116//112 115//112
f 150//113 151//113 117//113 116//113
f 151//114 152//114 118//114 117//114
f 152//115 153//115 119//115 118//115
f 153//116 154//116 120//116 119//116
f 154//117 134//117 102//117 120//117
f 135//82 155//82 149//82 133//82
f 155//118 156//118 150//118 149//118
f 156//119 157//119 151//119 150//119
f 157//120 158//120 152//120 151//120
f 158//121 159//121 153//121 152//121
f 159//122 160//122 154//122 153//122
f 160//123 136//123 134//123 154//123
f 137//124 161//124 155//124 135//124
f 161//125 162//125 156//125 155//125
f 138//126 162//126 161//126 137//126
f 162//127 163//127 157//127 156//127
f 139//128 163//128 162//128 138//128
f 163//129 164//129 158//129 157//129
f 140//130 164//130 163//130 139//130
f 164//131 165//131 159//131 158//131
f 141//132 165//132 164//132 140//132
f 165//133 166//133 160//133 159//133
f 142//134 166//134 165//134 141//134
f 166//135 142//135 136//135 160//135
