# Blender 3.5.0
# www.blender.org
mtllib remesh_original-16.mtl
o mesh23/mesh23-geometry#mesh23-geometry.172
v -0.500106 -0.310083 0.569906
v -0.500156 -0.310123 0.575000
v -0.500102 -0.310081 0.580089
v -0.500656 -0.305000 0.569532
v -0.501234 -0.305000 0.575000
v -0.500578 -0.305000 0.580400
v -0.500905 -0.295000 0.569370
v -0.501654 -0.295000 0.575000
v -0.500749 -0.295000 0.580501
v -0.500438 -0.287971 0.569691
v -0.500576 -0.287156 0.575000
v -0.500330 -0.288236 0.580224
v -0.499896 -0.310083 0.569906
v -0.499846 -0.310123 0.575000
v -0.499898 -0.310081 0.580089
v -0.499255 -0.305000 0.569532
v -0.498595 -0.305000 0.575000
v -0.499340 -0.305000 0.580400
v -0.498939 -0.295000 0.569370
v -0.498059 -0.295000 0.575000
v -0.499119 -0.295000 0.580501
v -0.499475 -0.287971 0.569691
v -0.499309 -0.287156 0.575000
v -0.499604 -0.288236 0.580224
vn -0.9854 -0.1594 -0.0592
vn -0.9861 -0.1522 0.0673
vn -0.9923 -0.0342 -0.1187
vn -0.9895 -0.0300 0.1416
vn -0.9906 0.1048 -0.0882
vn -0.9878 0.1035 0.1164
vn -0.0000 -1.0000 -0.0079
vn -0.0000 -1.0000 0.0082
vn -0.0000 -0.0735 -0.9973
vn 0.9806 -0.1842 -0.0667
vn 0.9815 -0.1762 0.0753
vn -0.0000 -0.0611 0.9981
vn -0.0000 -0.0162 -0.9999
vn 0.9896 -0.0433 -0.1374
vn 0.9858 -0.0381 0.1633
vn -0.0000 -0.0101 0.9999
vn -0.0000 0.0456 -0.9990
vn 0.9873 0.1208 -0.1035
vn -0.0000 0.9884 -0.1518
vn 0.9835 0.1194 0.1363
vn -0.0000 0.9793 0.2026
vn -0.0000 0.0410 0.9992
s 0
usemtl material_0_0.51638
f 5//1 4//1 1//1 2//1
f 6//2 5//2 2//2 3//2
f 8//3 7//3 4//3 5//3
f 9//4 8//4 5//4 6//4
f 11//5 10//5 7//5 8//5
f 12//6 11//6 8//6 9//6
f 14//7 2//7 1//7 13//7
f 15//8 3//8 2//8 14//8
f 4//9 16//9 13//9 1//9
f 16//10 17//10 14//10 13//10
f 17//11 18//11 15//11 14//11
f 18//12 6//12 3//12 15//12
f 7//13 19//13 16//13 4//13
f 19//14 20//14 17//14 16//14
f 20//15 21//15 18//15 17//15
f 21//16 9//16 6//16 18//16
f 10//17 22//17 19//17 7//17
f 22//18 23//18 20//18 19//18
f 11//19 23//19 22//19 10//19
f 23//20 24//20 21//20 20//20
f 12//21 24//21 23//21 11//21
f 24//22 12//22 9//22 21//22
