# Blender 4.0.0
# www.blender.org
mtllib link_1.mtl
o Group1/mesh1/mesh1-geometry#mesh1-geometry.001
v -0.414695 0.654272 0.636867
v 0.427809 0.290823 0.427029
v -0.414695 0.290823 0.427029
v 0.427809 0.654272 0.636867
v -0.414695 0.282909 0.440737
v 0.427809 0.646358 0.650575
v 0.427809 0.282909 0.440737
v -0.414695 0.646358 0.650575
v -0.414695 0.654272 0.636867
v 0.427809 0.290823 0.427029
v -0.414695 0.290823 0.427029
v 0.427809 0.654272 0.636867
v -0.414695 0.282909 0.440737
v 0.427809 0.646358 0.650575
v 0.427809 0.282909 0.440737
v -0.414695 0.646358 0.650575
vn -0.0000 0.5000 -0.8660
vn -0.0000 -0.5000 0.8660
vn -1.0000 -0.0000 -0.0000
vn 1.0000 -0.0000 -0.0000
vn -0.0000 0.8660 0.5000
vn -0.0000 -0.8660 -0.5000
vt 1.512607 0.753472
vt 0.000000 0.000000
vt 1.512607 0.000000
vt 0.000000 0.753472
vt 0.028419 0.000000
vt 0.000000 0.028419
vt -0.028419 0.000000
vt 0.028419 0.753472
vt 1.512607 0.028419
vt -0.028419 0.753472
vt -1.512607 0.000000
vt -1.512607 0.753472
s 0
usemtl material_0_0.001
f 1/1/1 2/2/1 3/3/1
f 2/2/1 1/1/1 4/4/1
f 3/3/2 2/2/2 1/1/2
f 4/4/2 1/1/2 2/2/2
f 5/5/3 1/4/3 3/2/3
f 3/2/4 1/4/4 5/5/4
f 1/3/5 6/6/5 4/2/5
f 4/2/6 6/6/6 1/3/6
f 4/4/4 7/7/4 2/2/4
f 2/2/3 7/7/3 4/4/3
f 1/4/3 5/5/3 8/8/3
f 8/8/4 5/5/4 1/4/4
f 6/6/5 1/3/5 8/9/5
f 8/9/6 1/3/6 6/6/6
f 7/7/4 4/4/4 6/10/4
f 6/10/3 4/4/3 7/7/3
f 5/11/2 6/4/2 8/12/2
f 8/12/1 6/4/1 5/11/1
f 6/4/2 5/11/2 7/2/2
f 7/2/1 5/11/1 6/4/1
usemtl material_0_0
f 9/1/1 10/2/1 11/3/1
f 10/2/1 9/1/1 12/4/1
f 11/3/2 10/2/2 9/1/2
f 12/4/2 9/1/2 10/2/2
f 13/5/3 9/4/3 11/2/3
f 11/2/4 9/4/4 13/5/4
f 9/3/5 14/6/5 12/2/5
f 12/2/6 14/6/6 9/3/6
f 12/4/4 15/7/4 10/2/4
f 10/2/3 15/7/3 12/4/3
f 9/4/3 13/5/3 16/8/3
f 16/8/4 13/5/4 9/4/4
f 14/6/5 9/3/5 16/9/5
f 16/9/6 9/3/6 14/6/6
f 15/7/4 12/4/4 14/10/4
f 14/10/3 12/4/3 15/7/3
f 13/11/2 14/4/2 16/12/2
f 16/12/1 14/4/1 13/11/1
f 14/4/2 13/11/2 15/2/2
f 15/2/1 13/11/1 14/4/1
