# Blender 4.0.0
# www.blender.org
mtllib link_0.mtl
o Group2/mesh3/mesh3-geometry#mesh3-geometry.001
v 0.427809 0.629683 -0.694189
v 0.427809 0.282196 -0.422271
v 0.427809 0.619488 -0.706297
v 0.427809 0.292392 -0.410163
v -0.414695 0.619488 -0.706297
v -0.414695 0.292392 -0.410163
v -0.414695 0.282196 -0.422271
v -0.414695 0.629683 -0.694189
v 0.427809 0.629683 -0.694189
v 0.427809 0.282196 -0.422271
v 0.427809 0.619488 -0.706297
v 0.427809 0.292392 -0.410163
v -0.414695 0.619488 -0.706297
v -0.414695 0.292392 -0.410163
v -0.414695 0.282196 -0.422271
v -0.414695 0.629683 -0.694189
vn 1.0000 -0.0000 -0.0000
vn -1.0000 -0.0000 -0.0000
vn -0.0000 -0.6441 -0.7649
vn -0.0000 0.6441 0.7649
vn -0.0000 0.7650 -0.6441
vn -0.0000 -0.7650 0.6441
vn -0.0000 0.7649 -0.6441
vn -0.0000 -0.7649 0.6441
vt -0.028419 0.791667
vt 0.000000 0.000000
vt 0.000000 0.791667
vt -0.028419 0.000000
vt 1.512607 0.791667
vt 1.512607 0.000000
vt 0.000000 0.028419
vt -1.512607 0.000000
vt 1.512607 0.028419
vt -1.512607 0.791667
vt 0.028419 0.000000
vt 0.028419 0.791667
s 0
usemtl material_0_0.001
f 1/1/1 2/2/1 3/3/1
f 2/2/1 1/1/1 4/4/1
f 3/3/2 2/2/2 1/1/2
f 4/4/2 1/1/2 2/2/2
f 2/2/3 5/5/3 3/3/3
f 3/3/4 5/5/4 2/2/4
f 5/6/5 1/7/5 3/2/5
f 3/2/6 1/7/6 5/6/6
f 1/3/4 6/8/4 4/2/4
f 4/2/3 6/8/3 1/3/3
f 5/5/3 2/2/3 7/6/3
f 7/6/4 2/2/4 5/5/4
f 1/7/7 5/6/7 8/9/7
f 8/9/8 5/6/8 1/7/8
f 6/8/4 1/3/4 8/10/4
f 8/10/3 1/3/3 6/8/3
f 6/11/2 5/3/2 7/2/2
f 7/2/1 5/3/1 6/11/1
f 5/3/2 6/11/2 8/12/2
f 8/12/1 6/11/1 5/3/1
usemtl material_0_0
f 9/1/1 10/2/1 11/3/1
f 10/2/1 9/1/1 12/4/1
f 11/3/2 10/2/2 9/1/2
f 12/4/2 9/1/2 10/2/2
f 10/2/3 13/5/3 11/3/3
f 11/3/4 13/5/4 10/2/4
f 13/6/5 9/7/5 11/2/5
f 11/2/6 9/7/6 13/6/6
f 9/3/4 14/8/4 12/2/4
f 12/2/3 14/8/3 9/3/3
f 13/5/3 10/2/3 15/6/3
f 15/6/4 10/2/4 13/5/4
f 9/7/7 13/6/7 16/9/7
f 16/9/8 13/6/8 9/7/8
f 14/8/4 9/3/4 16/10/4
f 16/10/3 9/3/3 14/8/3
f 14/11/2 13/3/2 15/2/2
f 15/2/1 13/3/1 14/11/1
f 13/3/2 14/11/2 16/12/2
f 16/12/1 14/11/1 13/3/1
