# Blender 3.5.0
# www.blender.org
mtllib remesh_original-20.mtl
o mesh20/mesh20-geometry#mesh20-geometry.070
v 0.019943 0.459899 -0.580146
v 0.019943 0.459899 -0.579876
v 0.019943 0.460672 -0.580146
v 0.019943 0.460672 -0.579876
v 0.025000 0.458655 -0.580923
v 0.025000 0.458655 -0.578510
v 0.027238 0.468891 -0.591133
v 0.025000 0.461751 -0.580923
v 0.027238 0.468891 -0.588309
v 0.025000 0.461751 -0.578510
v 0.027238 0.473307 -0.591133
v 0.027238 0.473307 -0.588309
v 0.031584 0.458308 -0.581084
v 0.031584 0.458308 -0.578138
v 0.031913 0.468891 -0.591133
v 0.031913 0.468891 -0.588309
v 0.031584 0.461663 -0.581084
v 0.031584 0.461663 -0.578138
v 0.031913 0.473307 -0.591133
v 0.031913 0.473307 -0.588309
v 0.049715 0.479812 -0.600120
v 0.049715 0.479812 -0.596809
v 0.058758 0.458667 -0.580757
v 0.058758 0.458667 -0.578495
v 0.058758 0.460921 -0.580757
v 0.058758 0.460921 -0.578495
v 0.051293 0.479812 -0.600120
v 0.051293 0.479812 -0.596809
v 0.060620 0.458667 -0.580757
v 0.060620 0.458667 -0.578495
v 0.060620 0.460921 -0.580757
v 0.060620 0.460921 -0.578495
v 0.028014 0.489799 -0.610245
v 0.028014 0.489799 -0.609422
v 0.028014 0.491395 -0.610245
v 0.028014 0.491395 -0.609422
v 0.031111 0.489799 -0.610245
v 0.035499 0.489848 -0.604840
v 0.039886 0.489897 -0.599960
v 0.035125 0.495373 -0.610193
v 0.036179 0.494064 -0.606285
v 0.037778 0.492684 -0.606925
v 0.039886 0.490066 -0.599960
v 0.039139 0.500108 -0.610141
v 0.039139 0.500108 -0.609816
v 0.049715 0.482817 -0.600120
v 0.042165 0.489897 -0.600259
v 0.049715 0.482817 -0.596809
v 0.042165 0.489897 -0.599960
v 0.040766 0.499351 -0.610141
v 0.041465 0.494708 -0.605037
v 0.042165 0.490066 -0.599960
v 0.040766 0.500108 -0.610141
v 0.040766 0.500108 -0.609816
v 0.059970 0.489998 -0.610001
v 0.057547 0.487993 -0.605000
v 0.051293 0.482817 -0.600120
v 0.056759 0.487325 -0.599221
v 0.051293 0.482817 -0.596809
v 0.059970 0.490002 -0.610001
v 0.057547 0.490690 -0.605000
v 0.056759 0.490918 -0.599221
v 0.060001 0.489998 -0.610001
v 0.060498 0.487993 -0.605000
v 0.060663 0.487325 -0.599221
v 0.060001 0.490002 -0.610001
v 0.060498 0.490690 -0.605000
v 0.060663 0.490918 -0.599221
vn -1.0000 -0.0000 -0.0000
vn -0.2388 -0.9711 -0.0000
vn -0.1518 -0.0000 -0.9884
vn -0.2087 0.9780 -0.0000
vn -0.2608 -0.0000 0.9654
vn -0.0526 -0.9986 -0.0000
vn -0.0000 -1.0000 -0.0000
vn -0.0246 -0.0000 -0.9997
vn 1.0000 -0.0000 -0.0000
vn 0.0134 0.9999 -0.0000
vn -0.0565 -0.0000 0.9984
vn -0.0000 -0.0000 -1.0000
vn -0.0000 1.0000 -0.0000
vn -0.0000 -0.0000 1.0000
vn 0.0018 -1.0000 0.0067
vn 0.0029 0.0057 -1.0000
vn 0.5506 -0.5614 -0.6178
vn -0.4337 0.8390 0.3287
vn -0.4631 0.2646 0.8459
vn -0.7123 0.3170 0.6263
vn -0.7252 0.5859 0.3618
vn 0.0011 -1.0000 0.0086
vn 0.4928 -0.5472 -0.6765
vn 0.4970 -0.6342 -0.5922
vn 0.9946 0.0905 -0.0513
vn -0.1691 0.7530 0.6359
vn 0.0033 0.0071 -1.0000
vn 0.9948 0.0402 -0.0938
vn -0.1959 0.6012 0.7747
vn -0.8999 -0.0000 -0.4360
vn -0.9908 -0.0000 -0.1350
vn -0.0000 -0.9282 -0.3722
vn -0.0000 -0.9934 -0.1147
vn 0.9951 -0.0000 -0.0989
vn -0.0000 0.9907 -0.1363
vn 0.9996 -0.0000 -0.0285
vn -0.0000 0.9992 -0.0395
s 0
usemtl material_0_0.23379
f 4//1 3//1 1//1 2//1
f 6//2 2//2 1//2 5//2
f 3//3 8//3 5//3 1//3
f 4//4 10//4 8//4 3//4
f 10//5 4//5 2//5 6//5
f 12//1 11//1 7//1 9//1
f 14//6 6//6 5//6 13//6
f 16//7 9//7 7//7 15//7
f 8//8 17//8 13//8 5//8
f 17//9 18//9 14//9 13//9
f 10//10 18//10 17//10 8//10
f 18//11 10//11 6//11 14//11
f 11//12 19//12 15//12 7//12
f 19//9 20//9 16//9 15//9
f 12//13 20//13 19//13 11//13
f 20//14 12//14 9//14 16//14
f 26//1 25//1 23//1 24//1
f 28//7 22//7 21//7 27//7
f 30//7 24//7 23//7 29//7
f 25//12 31//12 29//12 23//12
f 31//9 32//9 30//9 29//9
f 26//13 32//13 31//13 25//13
f 32//14 26//14 24//14 30//14
f 36//1 35//1 33//1 34//1
f 38//15 34//15 33//15 37//15
f 35//16 40//16 37//16 33//16
f 40//17 42//17 38//17 37//17
f 36//18 41//18 40//18 35//18
f 41//19 36//19 34//19 38//19
f 43//20 41//20 38//20 39//20
f 45//21 44//21 40//21 41//21
f 48//1 46//1 21//1 22//1
f 49//22 39//22 38//22 47//22
f 51//23 42//23 40//23 50//23
f 42//24 51//24 47//24 38//24
f 51//25 52//25 49//25 47//25
f 43//26 52//26 51//26 41//26
f 52//14 43//14 39//14 49//14
f 44//27 53//27 50//27 40//27
f 53//28 54//28 51//28 50//28
f 45//13 54//13 53//13 44//13
f 54//29 45//29 41//29 51//29
f 46//12 57//12 27//12 21//12
f 57//9 59//9 28//9 27//9
f 48//13 59//13 57//13 46//13
f 59//14 48//14 22//14 28//14
f 61//30 60//30 55//30 56//30
f 62//31 61//31 56//31 58//31
f 64//32 56//32 55//32 63//32
f 65//33 58//33 56//33 64//33
f 60//12 66//12 63//12 55//12
f 66//34 67//34 64//34 63//34
f 61//35 67//35 66//35 60//35
f 67//36 68//36 65//36 64//36
f 62//37 68//37 67//37 61//37
f 68//14 62//14 58//14 65//14
