# Blender 3.5.0
# www.blender.org
mtllib remesh_original-6.mtl
o mesh7/mesh7-geometry#mesh7-geometry.058
v -0.220698 0.489206 0.568242
v -0.220698 0.489206 0.570735
v -0.221221 0.495000 0.567847
v -0.221221 0.495000 0.572087
v -0.220930 0.501979 0.568888
v -0.220930 0.501979 0.572048
v -0.220229 0.509223 0.579273
v -0.220229 0.509223 0.580299
v -0.220648 0.515000 0.578985
v -0.220648 0.515000 0.582214
v -0.220635 0.521100 0.579373
v -0.220635 0.521100 0.582653
v -0.220716 0.527240 0.588740
v -0.220716 0.527240 0.591089
v -0.220672 0.535000 0.588937
v -0.220672 0.535000 0.591132
v -0.220180 0.540164 0.589842
v -0.220180 0.540164 0.590420
v -0.218872 0.489206 0.568242
v -0.218872 0.489206 0.570735
v -0.217393 0.495000 0.567847
v -0.217393 0.495000 0.572087
v -0.217652 0.501979 0.568888
v -0.215000 0.509158 0.579130
v -0.217652 0.501979 0.572048
v -0.215000 0.509158 0.580400
v -0.215000 0.515000 0.578228
v -0.215000 0.515000 0.583187
v -0.215000 0.521363 0.579098
v -0.215000 0.521363 0.582787
v -0.218894 0.527240 0.588740
v -0.218894 0.527240 0.591089
v -0.218980 0.535000 0.588937
v -0.218980 0.535000 0.591132
v -0.219745 0.540164 0.589842
v -0.219745 0.540164 0.590420
v -0.209469 0.509654 0.579567
v -0.209469 0.509654 0.580235
v -0.205681 0.515337 0.579049
v -0.205681 0.515337 0.581278
v -0.205000 0.520922 0.579136
v -0.205000 0.520922 0.581421
v -0.191350 0.508993 0.578892
v -0.191350 0.508993 0.580792
v -0.194810 0.515337 0.578650
v -0.194810 0.515337 0.581776
v -0.195000 0.520943 0.579144
v -0.195000 0.520943 0.581627
v -0.181009 0.489206 0.568242
v -0.181009 0.489206 0.570735
v -0.181830 0.495000 0.567968
v -0.181830 0.495000 0.571950
v -0.181431 0.501793 0.569049
v -0.185000 0.507846 0.577824
v -0.181431 0.501793 0.571865
v -0.185000 0.507846 0.581322
v -0.185000 0.515000 0.576894
v -0.185000 0.515000 0.584351
v -0.185000 0.521434 0.579071
v -0.185000 0.521434 0.583028
v -0.181280 0.527186 0.588646
v -0.181280 0.527186 0.591178
v -0.181173 0.535000 0.588866
v -0.181173 0.535000 0.591199
v -0.180284 0.540164 0.589842
v -0.180284 0.540164 0.590420
v -0.179343 0.489206 0.568242
v -0.179343 0.489206 0.570735
v -0.178951 0.495000 0.567968
v -0.178951 0.495000 0.571950
v -0.179259 0.501793 0.569049
v -0.179259 0.501793 0.571865
v -0.179259 0.508135 0.578207
v -0.179259 0.508135 0.580971
v -0.178985 0.515000 0.578150
v -0.178985 0.515000 0.582753
v -0.179388 0.521167 0.579326
v -0.179388 0.521167 0.582700
v -0.179259 0.527186 0.588646
v -0.179259 0.527186 0.591178
v -0.179319 0.535000 0.588866
v -0.179319 0.535000 0.591199
v -0.179833 0.540164 0.589842
v -0.179833 0.540164 0.590420
vn -0.9960 -0.0899 -0.0000
vn -0.9991 0.0417 -0.0000
vn -0.9974 -0.0723 -0.0000
vn -1.0000 0.0022 -0.0000
vn -1.0000 0.0057 -0.0000
vn -0.9955 0.0949 -0.0000
vn -0.0000 -1.0000 -0.0000
vn -0.0000 -0.0680 -0.9977
vn 0.9689 -0.2473 -0.0000
vn -0.0000 -0.2273 0.9738
vn -0.0000 0.1474 -0.9891
vn 0.9993 0.0371 -0.0000
vn -0.0000 1.0000 -0.0000
vn -0.0000 0.0056 1.0000
vn -0.0124 -0.9999 -0.0000
vn -0.0827 -0.1045 -0.9911
vn -0.0934 -0.3764 0.9218
vn -0.0930 0.1001 -0.9906
vn -0.0466 0.9989 -0.0000
vn -0.0977 -0.0030 0.9952
vn -0.0000 0.0253 -0.9997
vn 0.9999 0.0110 -0.0000
vn -0.0000 -0.0056 1.0000
vn -0.0000 0.1727 -0.9850
vn 0.9892 0.1467 -0.0000
vn -0.0000 0.1365 0.9906
vn 0.0894 -0.9960 -0.0000
vn 0.0919 -0.1514 -0.9842
vn 0.8321 -0.5546 -0.0000
vn 0.1489 -0.3555 0.9227
vn 0.0447 0.0773 -0.9960
vn 0.0441 0.9990 -0.0000
vn 0.1672 0.0117 0.9858
vn -0.8779 -0.4788 -0.0000
vn -0.0187 0.0527 -0.9984
vn -0.0021 1.0000 -0.0000
vn -0.0337 0.0021 0.9994
vn -0.9901 -0.1403 -0.0000
vn -0.9983 0.0586 -0.0000
vn -0.1778 -0.9841 -0.0000
vn -0.1823 -0.1312 -0.9744
vn -0.2072 -0.3272 0.9220
vn -0.0915 0.2142 -0.9725
vn -0.0491 0.9988 -0.0000
vn -0.1963 0.1159 0.9737
vn -0.9999 0.0136 -0.0000
vn -0.9855 0.1696 -0.0000
vn -0.0000 -0.0472 -0.9989
vn 0.9977 -0.0675 -0.0000
vn -0.0000 -0.2053 0.9787
vn -0.0000 0.1571 -0.9876
vn 0.9990 0.0452 -0.0000
vn -0.0000 0.0125 0.9999
vn 0.0502 -0.9987 -0.0000
vn 0.1394 -0.0722 -0.9876
vn 0.9992 -0.0399 -0.0000
vn 0.1624 -0.3231 0.9323
vn 0.1303 0.2588 -0.9571
vn 0.9979 0.0652 -0.0000
vn 0.0476 0.9989 -0.0000
vn 0.1648 0.1122 0.9799
vn -0.0000 0.0282 -0.9996
vn 1.0000 0.0077 -0.0000
vn -0.0000 -0.0027 1.0000
vn -0.0000 0.1858 -0.9826
vn 0.9951 0.0991 -0.0000
vn -0.0000 0.1490 0.9888
s 0
usemtl material_0_0.23390
f 4//1 3//1 1//1 2//1
f 6//2 5//2 3//2 4//2
f 10//3 9//3 7//3 8//3
f 12//4 11//4 9//4 10//4
f 16//5 15//5 13//5 14//5
f 18//6 17//6 15//6 16//6
f 20//7 2//7 1//7 19//7
f 3//8 21//8 19//8 1//8
f 21//9 22//9 20//9 19//9
f 22//10 4//10 2//10 20//10
f 5//11 23//11 21//11 3//11
f 23//12 25//12 22//12 21//12
f 6//13 25//13 23//13 5//13
f 25//14 6//14 4//14 22//14
f 26//15 8//15 7//15 24//15
f 9//16 27//16 24//16 7//16
f 28//17 10//17 8//17 26//17
f 11//18 29//18 27//18 9//18
f 12//19 30//19 29//19 11//19
f 30//20 12//20 10//20 28//20
f 32//7 14//7 13//7 31//7
f 15//21 33//21 31//21 13//21
f 33//22 34//22 32//22 31//22
f 34//23 16//23 14//23 32//23
f 17//24 35//24 33//24 15//24
f 35//25 36//25 34//25 33//25
f 18//13 36//13 35//13 17//13
f 36//26 18//26 16//26 34//26
f 38//27 26//27 24//27 37//27
f 27//28 39//28 37//28 24//28
f 39//29 40//29 38//29 37//29
f 40//30 28//30 26//30 38//30
f 29//31 41//31 39//31 27//31
f 30//32 42//32 41//32 29//32
f 42//33 30//33 28//33 40//33
f 46//34 45//34 43//34 44//34
f 46//7 40//7 39//7 45//7
f 41//35 47//35 45//35 39//35
f 42//36 48//36 47//36 41//36
f 48//37 42//37 40//37 46//37
f 52//38 51//38 49//38 50//38
f 55//39 53//39 51//39 52//39
f 56//40 44//40 43//40 54//40
f 45//41 57//41 54//41 43//41
f 58//42 46//42 44//42 56//42
f 47//43 59//43 57//43 45//43
f 48//44 60//44 59//44 47//44
f 60//45 48//45 46//45 58//45
f 64//46 63//46 61//46 62//46
f 66//47 65//47 63//47 64//47
f 68//7 50//7 49//7 67//7
f 51//48 69//48 67//48 49//48
f 69//49 70//49 68//49 67//49
f 70//50 52//50 50//50 68//50
f 53//51 71//51 69//51 51//51
f 71//52 72//52 70//52 69//52
f 55//13 72//13 71//13 53//13
f 72//53 55//53 52//53 70//53
f 74//54 56//54 54//54 73//54
f 57//55 75//55 73//55 54//55
f 75//56 76//56 74//56 73//56
f 76//57 58//57 56//57 74//57
f 59//58 77//58 75//58 57//58
f 77//59 78//59 76//59 75//59
f 60//60 78//60 77//60 59//60
f 78//61 60//61 58//61 76//61
f 80//7 62//7 61//7 79//7
f 63//62 81//62 79//62 61//62
f 81//63 82//63 80//63 79//63
f 82//64 64//64 62//64 80//64
f 65//65 83//65 81//65 63//65
f 83//66 84//66 82//66 81//66
f 66//13 84//13 83//13 65//13
f 84//67 66//67 64//67 82//67
