# Blender 3.5.0
# www.blender.org
mtllib remesh_original-12.mtl
o mesh13/mesh13-geometry#mesh13-geometry.058
v 0.109333 0.489206 0.568242
v 0.109333 0.489206 0.570735
v 0.108908 0.495000 0.567936
v 0.108908 0.495000 0.571989
v 0.109211 0.501845 0.569006
v 0.109540 0.505672 0.575725
v 0.109870 0.509499 0.580181
v 0.109473 0.515000 0.579200
v 0.109473 0.515000 0.582104
v 0.109427 0.521063 0.579399
v 0.109319 0.524111 0.585610
v 0.109211 0.527159 0.591226
v 0.109281 0.535000 0.588828
v 0.109281 0.535000 0.591235
v 0.109830 0.540163 0.589842
v 0.109830 0.540163 0.590420
v 0.115000 0.488810 0.567363
v 0.115000 0.488810 0.571093
v 0.115000 0.495000 0.565966
v 0.115000 0.495000 0.573337
v 0.115000 0.502273 0.568602
v 0.115000 0.507273 0.574121
v 0.115000 0.504153 0.577244
v 0.115000 0.509153 0.580438
v 0.115000 0.515000 0.578296
v 0.115000 0.515000 0.583190
v 0.115000 0.521302 0.579175
v 0.115000 0.526302 0.582831
v 0.115000 0.521389 0.587753
v 0.115000 0.526389 0.592137
v 0.115000 0.535000 0.587594
v 0.115000 0.535000 0.592767
v 0.115000 0.540245 0.589763
v 0.115000 0.540245 0.590631
v 0.125000 0.488809 0.567363
v 0.125000 0.488809 0.571084
v 0.124732 0.494719 0.567369
v 0.124732 0.494719 0.571512
v 0.121221 0.501186 0.569131
v 0.121042 0.505279 0.575184
v 0.120863 0.509373 0.580403
v 0.124518 0.515386 0.578978
v 0.124518 0.515386 0.581339
v 0.125000 0.520838 0.579253
v 0.125000 0.525838 0.583805
v 0.125000 0.523365 0.586371
v 0.125000 0.528365 0.591367
v 0.125000 0.535000 0.588569
v 0.125000 0.535000 0.591998
v 0.125000 0.540245 0.589763
v 0.125000 0.540245 0.590631
v 0.135000 0.488809 0.567363
v 0.135000 0.488809 0.571084
v 0.135000 0.491787 0.567363
v 0.135000 0.491787 0.571084
v 0.135000 0.518395 0.579225
v 0.135000 0.518395 0.581312
v 0.135000 0.520692 0.579225
v 0.135000 0.525692 0.584904
v 0.135000 0.524806 0.586312
v 0.135000 0.529806 0.590182
v 0.135000 0.534228 0.589828
v 0.135000 0.534228 0.590398
v 0.131667 0.540163 0.589842
v 0.131667 0.540163 0.590420
v 0.141156 0.489206 0.568242
v 0.141156 0.489206 0.570723
v 0.141156 0.491184 0.568242
v 0.141156 0.491184 0.570723
v 0.140895 0.518884 0.579465
v 0.140895 0.518884 0.580966
v 0.140895 0.520478 0.579465
v 0.140465 0.525212 0.585472
v 0.140034 0.529947 0.590043
v 0.140034 0.530381 0.589978
v 0.140034 0.530381 0.590043
vn -0.9973 -0.0732 -0.0000
vn -0.9987 0.0498 0.0128
vn -0.9955 -0.0585 0.0750
vn -0.9999 -0.0112 -0.0081
vn -0.9999 0.0043 -0.0151
vn -0.9944 0.1058 -0.0000
vn -0.0699 -0.9976 -0.0000
vn -0.2376 -0.1450 -0.9605
vn -0.1471 -0.2819 0.9481
vn -0.1983 0.2529 -0.9470
vn -0.2430 0.7898 -0.5631
vn -0.2683 -0.3391 0.9017
vn -0.2350 -0.6315 0.7389
vn -0.2588 0.3945 -0.8817
vn -0.1277 -0.3817 0.9154
vn -0.1025 0.0860 -0.9910
vn -0.3186 0.7328 -0.6012
vn -0.3453 -0.4360 0.8311
vn -0.3746 -0.7242 0.5789
vn -0.3701 0.3499 -0.8606
vn -0.2099 -0.0371 0.9770
vn -0.1165 0.2960 -0.9480
vn -0.0158 0.9999 -0.0000
vn -0.1539 0.2770 0.9485
vn -0.0000 -1.0000 -0.0000
vn 0.0689 -0.1125 -0.9913
vn 0.0874 -0.2130 0.9731
vn 0.1415 0.3344 -0.9317
vn 0.8910 0.4265 -0.1556
vn 0.2678 0.7596 -0.5927
vn 0.2430 -0.3081 0.9198
vn 0.2017 -0.6630 0.7209
vn 0.1418 0.3807 -0.9138
vn 0.8505 -0.4541 0.2653
vn 0.1277 -0.3302 0.9352
vn 0.0391 0.0960 -0.9946
vn 0.0699 0.6329 -0.7710
vn 0.2009 -0.5487 0.8115
vn 0.2090 -0.6690 0.7133
vn 0.0964 0.4684 -0.8782
vn 0.0845 -0.0822 0.9930
vn 0.0463 0.3050 -0.9512
vn -0.0000 1.0000 -0.0000
vn 0.0365 0.3166 0.9479
vn -0.0002 0.0007 -1.0000
vn 0.2746 0.9616 -0.0000
vn 0.0142 -0.0477 0.9988
vn 0.2759 -0.9612 -0.0000
vn 0.0058 0.0350 -0.9994
vn 0.0478 0.7143 -0.6982
vn 0.1272 -0.5701 0.8116
vn 0.1407 -0.6568 0.7408
vn 0.1245 0.4764 -0.8704
vn 0.1400 -0.0756 0.9873
vn 0.0861 0.1324 -0.9875
vn 0.8719 0.4897 -0.0000
vn 0.0123 0.9999 -0.0000
vn 0.1144 0.1522 0.9817
vn 0.0643 -0.9979 -0.0000
vn 0.1413 -0.0000 -0.9900
vn 1.0000 -0.0000 -0.0000
vn 0.0975 0.9952 -0.0000
vn 0.0586 -0.0000 0.9983
vn 0.0826 -0.9966 -0.0000
vn 0.0406 -0.0000 -0.9992
vn 0.9988 0.0339 0.0360
vn 0.0920 0.7668 -0.6353
vn 0.1297 -0.5902 0.7968
vn 0.1041 -0.6489 0.7537
vn 0.2805 0.5501 -0.7866
vn 0.9967 0.0120 0.0803
vn 0.6073 0.7945 -0.0000
vn 0.0327 -0.0444 0.9985
s 0
usemtl material_0_0.23374
f 4//1 3//1 1//1 2//1
f 6//2 5//2 3//2 4//2
f 9//3 8//3 6//3 7//3
f 11//4 10//4 8//4 9//4
f 14//5 13//5 11//5 12//5
f 16//6 15//6 13//6 14//6
f 18//7 2//7 1//7 17//7
f 3//8 19//8 17//8 1//8
f 20//9 4//9 2//9 18//9
f 5//10 21//10 19//10 3//10
f 6//11 22//11 21//11 5//11
f 23//12 6//12 4//12 20//12
f 24//13 7//13 6//13 23//13
f 8//14 25//14 22//14 6//14
f 26//15 9//15 7//15 24//15
f 10//16 27//16 25//16 8//16
f 11//17 28//17 27//17 10//17
f 29//18 11//18 9//18 26//18
f 30//19 12//19 11//19 29//19
f 13//20 31//20 28//20 11//20
f 32//21 14//21 12//21 30//21
f 15//22 33//22 31//22 13//22
f 16//23 34//23 33//23 15//23
f 34//24 16//24 14//24 32//24
f 36//25 18//25 17//25 35//25
f 19//26 37//26 35//26 17//26
f 38//27 20//27 18//27 36//27
f 21//28 39//28 37//28 19//28
f 39//29 40//29 38//29 37//29
f 22//30 40//30 39//30 21//30
f 40//31 23//31 20//31 38//31
f 41//32 24//32 23//32 40//32
f 25//33 42//33 40//33 22//33
f 42//34 43//34 41//34 40//34
f 43//35 26//35 24//35 41//35
f 27//36 44//36 42//36 25//36
f 28//37 45//37 44//37 27//37
f 46//38 29//38 26//38 43//38
f 47//39 30//39 29//39 46//39
f 31//40 48//40 45//40 28//40
f 49//41 32//41 30//41 47//41
f 33//42 50//42 48//42 31//42
f 34//43 51//43 50//43 33//43
f 51//44 34//44 32//44 49//44
f 53//25 36//25 35//25 52//25
f 37//45 54//45 52//45 35//45
f 38//46 55//46 54//46 37//46
f 55//47 38//47 36//47 53//47
f 57//48 43//48 42//48 56//48
f 44//49 58//49 56//49 42//49
f 45//50 59//50 58//50 44//50
f 60//51 46//51 43//51 57//51
f 61//52 47//52 46//52 60//52
f 48//53 62//53 59//53 45//53
f 63//54 49//54 47//54 61//54
f 50//55 64//55 62//55 48//55
f 64//56 65//56 63//56 62//56
f 51//57 65//57 64//57 50//57
f 65//58 51//58 49//58 63//58
f 67//59 53//59 52//59 66//59
f 54//60 68//60 66//60 52//60
f 68//61 69//61 67//61 66//61
f 55//62 69//62 68//62 54//62
f 69//63 55//63 53//63 67//63
f 71//64 57//64 56//64 70//64
f 58//65 72//65 70//65 56//65
f 72//66 73//66 71//66 70//66
f 59//67 73//67 72//67 58//67
f 73//68 60//68 57//68 71//68
f 74//69 61//69 60//69 73//69
f 62//70 75//70 73//70 59//70
f 75//71 76//71 74//71 73//71
f 63//72 76//72 75//72 62//72
f 76//73 63//73 61//73 74//73
