# Blender 3.5.0
# www.blender.org
mtllib remesh_original-8.mtl
o mesh9/mesh9-geometry#mesh9-geometry.048
v -0.123072 0.489729 0.569219
v -0.123072 0.489729 0.570247
v -0.123072 0.490702 0.569219
v -0.123072 0.490702 0.570247
v -0.121575 0.518564 0.579326
v -0.121575 0.518564 0.582239
v -0.121575 0.521060 0.579326
v -0.121575 0.521060 0.582239
v -0.122695 0.527408 0.588523
v -0.122695 0.527408 0.591411
v -0.122695 0.532931 0.588523
v -0.122695 0.532931 0.591411
v -0.115000 0.489704 0.568924
v -0.115000 0.489704 0.570254
v -0.115000 0.490720 0.568924
v -0.115000 0.490720 0.570254
v -0.110480 0.509863 0.579777
v -0.110480 0.509863 0.580224
v -0.110480 0.512404 0.579777
v -0.116931 0.518564 0.579326
v -0.110480 0.512404 0.580224
v -0.116931 0.518564 0.582239
v -0.116931 0.521060 0.579326
v -0.116931 0.521060 0.582239
v -0.117836 0.527408 0.588523
v -0.117836 0.527408 0.591411
v -0.117836 0.532931 0.588523
v -0.117836 0.532931 0.591411
v -0.105000 0.489702 0.568910
v -0.105000 0.489702 0.570250
v -0.104684 0.494154 0.568758
v -0.104684 0.494154 0.570600
v -0.101139 0.500888 0.569383
v -0.105000 0.509288 0.579035
v -0.101139 0.500888 0.570666
v -0.105000 0.509288 0.580747
v -0.105000 0.513014 0.579035
v -0.105000 0.513014 0.580747
v -0.099130 0.489727 0.569201
v -0.099130 0.489727 0.570242
v -0.095478 0.494660 0.568437
v -0.095478 0.494660 0.571822
v -0.095000 0.502211 0.568645
v -0.095000 0.502211 0.572095
v -0.096906 0.509188 0.578937
v -0.096906 0.509188 0.580772
v -0.096906 0.511615 0.578937
v -0.096906 0.511615 0.580772
v -0.088829 0.497766 0.568811
v -0.088829 0.497766 0.572128
v -0.088829 0.502060 0.568811
v -0.088829 0.502060 0.572128
vn -1.0000 -0.0000 -0.0000
vn -0.0031 -1.0000 -0.0000
vn -0.0366 -0.0000 -0.9993
vn -0.0022 1.0000 -0.0000
vn -0.0008 -0.0000 1.0000
vn -0.0000 -1.0000 -0.0000
vn -0.0000 -0.0000 -1.0000
vn 1.0000 -0.0000 -0.0000
vn -0.0000 1.0000 -0.0000
vn -0.0000 -0.0000 1.0000
vn -0.0001 -1.0000 -0.0000
vn -0.0042 -0.0276 -0.9996
vn -0.3159 0.9488 -0.0000
vn -0.0061 -0.0634 0.9980
vn -0.8849 0.4658 -0.0000
vn -0.1043 -0.9945 -0.0000
vn -0.1341 -0.0000 -0.9910
vn -0.1106 0.9939 -0.0000
vn -0.0951 -0.0000 0.9955
vn 0.0042 -1.0000 -0.0000
vn 0.0015 -0.0978 -0.9952
vn 0.8037 -0.5950 -0.0000
vn -0.0731 -0.1710 0.9826
vn -0.0781 0.0800 -0.9937
vn -0.2107 0.9776 -0.0000
vn -0.1731 0.0253 0.9846
vn -0.0124 -0.9999 -0.0000
vn -0.0122 -0.0000 -0.9999
vn 0.1704 0.9854 -0.0000
vn -0.0031 -0.0000 1.0000
vn 0.4233 -0.9060 -0.0000
vn 0.0383 0.0161 -0.9991
vn 0.0244 0.9997 -0.0000
vn -0.0213 -0.0222 0.9995
s 0
usemtl material_0_0.23388
f 4//1 3//1 1//1 2//1
f 8//1 7//1 5//1 6//1
f 12//1 11//1 9//1 10//1
f 14//2 2//2 1//2 13//2
f 3//3 15//3 13//3 1//3
f 4//4 16//4 15//4 3//4
f 16//5 4//5 2//5 14//5
f 21//1 19//1 17//1 18//1
f 22//6 6//6 5//6 20//6
f 7//7 23//7 20//7 5//7
f 23//8 24//8 22//8 20//8
f 8//9 24//9 23//9 7//9
f 24//10 8//10 6//10 22//10
f 26//6 10//6 9//6 25//6
f 11//7 27//7 25//7 9//7
f 27//8 28//8 26//8 25//8
f 12//9 28//9 27//9 11//9
f 28//10 12//10 10//10 26//10
f 30//11 14//11 13//11 29//11
f 15//12 31//12 29//12 13//12
f 16//13 32//13 31//13 15//13
f 32//14 16//14 14//14 30//14
f 35//15 33//15 31//15 32//15
f 36//16 18//16 17//16 34//16
f 19//17 37//17 34//17 17//17
f 21//18 38//18 37//18 19//18
f 38//19 21//19 18//19 36//19
f 40//20 30//20 29//20 39//20
f 31//21 41//21 39//21 29//21
f 41//22 42//22 40//22 39//22
f 42//23 32//23 30//23 40//23
f 33//24 43//24 41//24 31//24
f 35//25 44//25 43//25 33//25
f 44//26 35//26 32//26 42//26
f 46//27 36//27 34//27 45//27
f 37//28 47//28 45//28 34//28
f 47//8 48//8 46//8 45//8
f 38//29 48//29 47//29 37//29
f 48//30 38//30 36//30 46//30
f 50//31 42//31 41//31 49//31
f 43//32 51//32 49//32 41//32
f 51//8 52//8 50//8 49//8
f 44//33 52//33 51//33 43//33
f 52//34 44//34 42//34 50//34
