# Blender 3.5.0
# www.blender.org
mtllib remesh_original-7.mtl
o mesh8/mesh8-geometry#mesh8-geometry.069
v -0.160854 0.489206 0.568242
v -0.160854 0.489206 0.570703
v -0.160854 0.492833 0.568242
v -0.160854 0.492833 0.570703
v -0.160389 0.529238 0.589419
v -0.160389 0.529238 0.590642
v -0.160464 0.535000 0.589447
v -0.160464 0.535000 0.590797
v -0.160230 0.540163 0.589843
v -0.160230 0.540163 0.590420
v -0.155000 0.488809 0.567363
v -0.155000 0.488809 0.571078
v -0.155522 0.495700 0.567567
v -0.155522 0.495700 0.571623
v -0.152536 0.501199 0.569462
v -0.152536 0.501199 0.571267
v -0.150828 0.508733 0.578801
v -0.150828 0.508733 0.580552
v -0.151242 0.515000 0.578765
v -0.151242 0.515000 0.582223
v -0.150828 0.520827 0.579552
v -0.155000 0.527279 0.588473
v -0.150828 0.520827 0.582412
v -0.155000 0.527279 0.591437
v -0.155000 0.535000 0.588237
v -0.155000 0.535000 0.592067
v -0.155000 0.540245 0.589764
v -0.155000 0.540245 0.590631
v -0.147966 0.489206 0.568242
v -0.147966 0.489206 0.570735
v -0.148076 0.495000 0.568278
v -0.148076 0.495000 0.571502
v -0.149468 0.501199 0.569462
v -0.149468 0.501199 0.571267
v -0.149642 0.508733 0.578801
v -0.149642 0.508733 0.580552
v -0.149463 0.515000 0.578765
v -0.149463 0.515000 0.582223
v -0.149642 0.520827 0.579552
v -0.149642 0.520827 0.582412
v -0.148851 0.527134 0.588545
v -0.148851 0.527134 0.591274
v -0.148510 0.535000 0.588790
v -0.148510 0.535000 0.591271
v -0.149161 0.540163 0.589842
v -0.149161 0.540163 0.590420
vn -1.0000 -0.0000 -0.0000
vn -0.9999 -0.0130 -0.0000
vn -0.9990 0.0454 -0.0000
vn -0.0676 -0.9977 -0.0000
vn -0.1402 0.0123 -0.9900
vn -0.4735 0.8808 -0.0000
vn -0.1026 -0.0565 0.9931
vn -0.8788 0.4771 -0.0000
vn -0.9978 -0.0659 -0.0000
vn -0.9975 0.0708 -0.0000
vn -0.3417 -0.9398 -0.0000
vn -0.1976 -0.0162 -0.9802
vn -0.1967 -0.0581 0.9787
vn -0.1190 0.1831 -0.9759
vn -0.0156 0.9999 -0.0000
vn -0.1364 0.1729 0.9754
vn 0.0563 -0.9984 -0.0000
vn 0.1096 0.0243 -0.9937
vn 0.9998 0.0189 -0.0000
vn 0.0298 -0.1013 0.9944
vn 0.0815 0.2432 -0.9665
vn 0.9757 0.2191 -0.0000
vn -0.0000 1.0000 -0.0000
vn 0.0147 0.0484 0.9987
vn -0.0000 -1.0000 -0.0000
vn -0.0000 -0.0058 -1.0000
vn 0.9996 -0.0285 -0.0000
vn -0.0000 -0.2576 0.9662
vn -0.0000 0.1339 -0.9910
vn 0.9995 0.0307 -0.0000
vn -0.0000 -0.0324 0.9995
vn -0.0236 -0.9997 -0.0000
vn 0.0494 -0.0005 -0.9988
vn 0.9991 -0.0434 -0.0000
vn 0.0752 -0.0418 0.9963
vn 0.0512 0.2432 -0.9686
vn 0.9921 0.1252 -0.0000
vn 0.0140 0.9999 -0.0000
vn 0.0809 0.2187 0.9724
s 0
usemtl material_0_0.23383
f 4//1 3//1 1//1 2//1
f 8//2 7//2 5//2 6//2
f 10//3 9//3 7//3 8//3
f 12//4 2//4 1//4 11//4
f 3//5 13//5 11//5 1//5
f 4//6 14//6 13//6 3//6
f 14//7 4//7 2//7 12//7
f 16//8 15//8 13//8 14//8
f 20//9 19//9 17//9 18//9
f 23//10 21//10 19//10 20//10
f 24//11 6//11 5//11 22//11
f 7//12 25//12 22//12 5//12
f 26//13 8//13 6//13 24//13
f 9//14 27//14 25//14 7//14
f 10//15 28//15 27//15 9//15
f 28//16 10//16 8//16 26//16
f 30//17 12//17 11//17 29//17
f 13//18 31//18 29//18 11//18
f 31//19 32//19 30//19 29//19
f 32//20 14//20 12//20 30//20
f 15//21 33//21 31//21 13//21
f 33//22 34//22 32//22 31//22
f 16//23 34//23 33//23 15//23
f 34//24 16//24 14//24 32//24
f 36//25 18//25 17//25 35//25
f 19//26 37//26 35//26 17//26
f 37//27 38//27 36//27 35//27
f 38//28 20//28 18//28 36//28
f 21//29 39//29 37//29 19//29
f 39//30 40//30 38//30 37//30
f 23//23 40//23 39//23 21//23
f 40//31 23//31 20//31 38//31
f 42//32 24//32 22//32 41//32
f 25//33 43//33 41//33 22//33
f 43//34 44//34 42//34 41//34
f 44//35 26//35 24//35 42//35
f 27//36 45//36 43//36 25//36
f 45//37 46//37 44//37 43//37
f 28//38 46//38 45//38 27//38
f 46//39 28//39 26//39 44//39
