# Blender 3.5.0
# www.blender.org
mtllib remesh_original-21.mtl
o mesh21/mesh21-geometry#mesh21-geometry.059
v -0.010983 0.458250 -0.581238
v -0.010983 0.458250 -0.578081
v -0.010983 0.461669 -0.581238
v -0.010983 0.461669 -0.578081
v -0.005000 0.457224 -0.582126
v -0.005000 0.457224 -0.576975
v -0.000288 0.469795 -0.590155
v -0.005000 0.463340 -0.582126
v -0.000288 0.469795 -0.589114
v -0.005000 0.463340 -0.576975
v -0.000432 0.475000 -0.591367
v -0.000432 0.475000 -0.589258
v -0.001597 0.489824 -0.610147
v -0.001597 0.489824 -0.608033
v -0.000288 0.480124 -0.591667
v -0.000288 0.480124 -0.589896
v -0.001597 0.491013 -0.610147
v -0.001597 0.491013 -0.608033
v 0.001436 0.458048 -0.581597
v 0.001436 0.458048 -0.577886
v 0.000076 0.469795 -0.590155
v 0.000076 0.469795 -0.589114
v 0.001436 0.462785 -0.581597
v 0.001436 0.462785 -0.577886
v 0.000114 0.475000 -0.591367
v 0.000114 0.475000 -0.589258
v 0.000422 0.489824 -0.610147
v 0.000422 0.489824 -0.608033
v 0.000076 0.480124 -0.591667
v 0.000076 0.480124 -0.589896
v 0.000422 0.491013 -0.610147
v 0.000422 0.491013 -0.608033
vn -1.0000 -0.0000 -0.0000
vn -0.1691 -0.9856 -0.0000
vn -0.1468 -0.0000 -0.9892
vn -0.2690 0.9631 -0.0000
vn -0.1818 -0.0000 0.9833
vn -0.9996 -0.0276 -0.0000
vn -0.9996 0.0281 -0.0000
vn 0.1270 -0.9919 -0.0000
vn -0.0000 -1.0000 -0.0000
vn 0.0820 -0.0000 -0.9966
vn 1.0000 -0.0000 -0.0000
vn 0.0860 0.9963 -0.0000
vn 0.1401 -0.0000 0.9901
vn -0.0000 -0.2268 -0.9739
vn 1.0000 -0.0073 -0.0000
vn -0.0000 0.0276 0.9996
vn -0.0000 -0.0586 -0.9983
vn 1.0000 0.0074 -0.0000
vn -0.0000 1.0000 -0.0000
vn -0.0000 0.1236 0.9923
vn -0.0000 -0.0000 -1.0000
vn -0.0000 -0.0000 1.0000
s 0
usemtl material_0_0.23382
f 4//1 3//1 1//1 2//1
f 6//2 2//2 1//2 5//2
f 3//3 8//3 5//3 1//3
f 4//4 10//4 8//4 3//4
f 10//5 4//5 2//5 6//5
f 12//6 11//6 7//6 9//6
f 16//7 15//7 11//7 12//7
f 18//1 17//1 13//1 14//1
f 20//8 6//8 5//8 19//8
f 22//9 9//9 7//9 21//9
f 8//10 23//10 19//10 5//10
f 23//11 24//11 20//11 19//11
f 10//12 24//12 23//12 8//12
f 24//13 10//13 6//13 20//13
f 11//14 25//14 21//14 7//14
f 25//15 26//15 22//15 21//15
f 26//16 12//16 9//16 22//16
f 28//9 14//9 13//9 27//9
f 15//17 29//17 25//17 11//17
f 29//18 30//18 26//18 25//18
f 16//19 30//19 29//19 15//19
f 30//20 16//20 12//20 26//20
f 17//21 31//21 27//21 13//21
f 31//11 32//11 28//11 27//11
f 18//19 32//19 31//19 17//19
f 32//22 18//22 14//22 28//22
