# Blender 3.5.0
# www.blender.org
mtllib remesh_original-23.mtl
o mesh23/mesh23-geometry#mesh23-geometry.069
v -0.102284 0.457586 -0.582059
v -0.102284 0.457586 -0.577456
v -0.101001 0.468946 -0.590866
v -0.102284 0.462715 -0.582059
v -0.101001 0.468946 -0.588144
v -0.102284 0.462715 -0.577456
v -0.101216 0.479333 -0.600558
v -0.102341 0.475600 -0.594520
v -0.102014 0.475000 -0.588480
v -0.097142 0.457586 -0.582059
v -0.097142 0.457586 -0.577456
v -0.097892 0.468946 -0.590866
v -0.097892 0.468946 -0.588144
v -0.097142 0.462715 -0.582059
v -0.097142 0.462715 -0.577456
v -0.098164 0.479333 -0.600558
v -0.097071 0.475600 -0.594520
v -0.097715 0.475000 -0.588480
v -0.120597 0.489981 -0.610025
v -0.121374 0.488284 -0.605000
v -0.121235 0.487732 -0.598947
v -0.120597 0.490225 -0.610025
v -0.121374 0.491163 -0.605000
v -0.121235 0.491325 -0.598947
v -0.115000 0.489971 -0.610038
v -0.115000 0.486785 -0.605000
v -0.115000 0.486813 -0.598421
v -0.115000 0.490338 -0.610038
v -0.115000 0.492326 -0.605000
v -0.115000 0.491988 -0.598421
v -0.105000 0.489817 -0.610163
v -0.104730 0.484666 -0.604335
v -0.104784 0.484111 -0.596085
v -0.101685 0.480203 -0.589830
v -0.105000 0.491085 -0.610163
v -0.105000 0.492184 -0.605000
v -0.105000 0.491099 -0.599128
v -0.098982 0.489776 -0.610192
v -0.097945 0.485865 -0.604335
v -0.097992 0.484122 -0.595934
v -0.099061 0.480203 -0.589830
v -0.098982 0.491221 -0.610192
v -0.098808 0.491021 -0.605000
v -0.099429 0.490140 -0.599890
vn -1.0000 -0.0000 -0.0000
vn -0.9843 -0.1745 0.0248
vn -0.0000 -1.0000 -0.0000
vn -0.0000 -0.0000 -1.0000
vn 1.0000 -0.0000 -0.0000
vn -0.0000 1.0000 -0.0000
vn -0.0000 -0.0000 1.0000
vn -0.0000 -0.8506 -0.5259
vn -0.0000 -0.4813 -0.8765
vn 0.9960 -0.0565 0.0694
vn -0.0000 0.0555 0.9985
vn -0.9883 -0.0000 -0.1528
vn -0.9997 -0.0000 0.0230
vn -0.1127 -0.8905 -0.4408
vn -0.1866 -0.9817 -0.0386
vn -0.0023 -0.0000 -1.0000
vn -0.1019 0.9531 -0.2850
vn -0.1439 0.9895 0.0153
vn -0.0841 -0.0000 0.9965
vn -0.0726 -0.7921 -0.6060
vn -0.8670 -0.4531 -0.2075
vn -0.2240 -0.9739 -0.0353
vn -0.9674 -0.0995 0.2331
vn -0.0125 -0.0000 -0.9999
vn -0.0307 0.9567 -0.2896
vn 0.0552 0.9920 0.1133
vn -0.0351 0.2419 0.9697
vn 0.0696 -0.7845 -0.6162
vn 0.0638 -0.5233 -0.8498
vn 0.9977 0.0249 -0.0628
vn 0.9570 0.2004 0.2096
vn -0.0095 0.8441 0.5361
vn -0.0000 0.2511 0.9680
vn -0.0048 -0.0000 -1.0000
vn 0.9904 0.1232 -0.0628
vn 0.0833 0.9927 -0.0876
vn 0.9668 0.2378 0.0940
vn 0.1860 0.9653 0.1833
vn 0.0800 0.4802 0.8735
s 0
usemtl material_0_0.23386
f 6//1 4//1 1//1 2//1
f 9//2 8//2 3//2 5//2
f 11//3 2//3 1//3 10//3
f 13//3 5//3 3//3 12//3
f 4//4 14//4 10//4 1//4
f 14//5 15//5 11//5 10//5
f 6//6 15//6 14//6 4//6
f 15//7 6//7 2//7 11//7
f 17//8 8//8 7//8 16//8
f 8//9 17//9 12//9 3//9
f 17//10 18//10 13//10 12//10
f 18//11 9//11 5//11 13//11
f 23//12 22//12 19//12 20//12
f 24//13 23//13 20//13 21//13
f 26//14 20//14 19//14 25//14
f 27//15 21//15 20//15 26//15
f 22//16 28//16 25//16 19//16
f 23//17 29//17 28//17 22//17
f 24//18 30//18 29//18 23//18
f 30//19 24//19 21//19 27//19
f 32//20 26//20 25//20 31//20
f 33//21 32//21 7//21 8//21
f 33//22 27//22 26//22 32//22
f 34//23 33//23 8//23 9//23
f 28//24 35//24 31//24 25//24
f 29//25 36//25 35//25 28//25
f 30//26 37//26 36//26 29//26
f 37//27 30//27 27//27 33//27
f 39//28 32//28 31//28 38//28
f 32//29 39//29 16//29 7//29
f 39//30 40//30 17//30 16//30
f 40//31 41//31 18//31 17//31
f 34//32 41//32 40//32 33//32
f 41//33 34//33 9//33 18//33
f 35//34 42//34 38//34 31//34
f 42//35 43//35 39//35 38//35
f 36//36 43//36 42//36 35//36
f 43//37 44//37 40//37 39//37
f 37//38 44//38 43//38 36//38
f 44//39 37//39 33//39 40//39
