# Blender 3.5.0
# www.blender.org
mtllib remesh_original-11.mtl
o mesh12/mesh12-geometry#mesh12-geometry.001
v 0.049113 0.489206 0.568242
v 0.049113 0.489206 0.570735
v 0.048411 0.495000 0.567790
v 0.048411 0.495000 0.572147
v 0.048768 0.502060 0.568811
v 0.048768 0.502060 0.572128
v 0.048766 0.507870 0.577938
v 0.048766 0.507870 0.581213
v 0.048452 0.515000 0.577948
v 0.048452 0.515000 0.582935
v 0.049169 0.521167 0.579326
v 0.049169 0.521167 0.582700
v 0.048766 0.527057 0.588373
v 0.048766 0.527057 0.591440
v 0.048894 0.535000 0.588661
v 0.048894 0.535000 0.591396
v 0.049759 0.540164 0.589842
v 0.049759 0.540164 0.590420
v 0.055000 0.488810 0.567363
v 0.055000 0.488810 0.571090
v 0.055000 0.495000 0.566456
v 0.055000 0.495000 0.572699
v 0.055000 0.501558 0.569092
v 0.055000 0.501558 0.571609
v 0.051038 0.507870 0.577938
v 0.051038 0.507870 0.581213
v 0.051289 0.515000 0.577948
v 0.051289 0.515000 0.582935
v 0.050681 0.521167 0.579326
v 0.050681 0.521167 0.582700
v 0.052859 0.527057 0.588373
v 0.052859 0.527057 0.591440
v 0.055715 0.535112 0.588835
v 0.055715 0.535112 0.591369
v 0.055000 0.540245 0.589763
v 0.055000 0.540245 0.590631
v 0.065000 0.488845 0.567549
v 0.065000 0.488845 0.571086
v 0.064016 0.494613 0.568027
v 0.064016 0.494613 0.570880
v 0.060027 0.500017 0.569979
v 0.060027 0.500017 0.570018
v 0.065000 0.538601 0.589763
v 0.065000 0.538601 0.590580
v 0.065000 0.540238 0.589763
v 0.065000 0.540238 0.590580
v 0.073023 0.489254 0.568490
v 0.073023 0.489254 0.570730
v 0.073023 0.491021 0.568490
v 0.079541 0.497403 0.569633
v 0.079541 0.497403 0.570519
v 0.073023 0.491021 0.570730
v 0.079541 0.500370 0.569633
v 0.079541 0.500370 0.570519
v 0.078741 0.528981 0.588943
v 0.078741 0.528981 0.591062
v 0.078741 0.532019 0.588943
v 0.070830 0.539614 0.589842
v 0.078741 0.532019 0.591062
v 0.070830 0.539614 0.590352
v 0.070830 0.540155 0.589842
v 0.070830 0.540155 0.590352
v 0.082153 0.497403 0.569633
v 0.082153 0.497403 0.570519
v 0.082153 0.500370 0.569633
v 0.082153 0.500370 0.570519
v 0.088884 0.507833 0.577900
v 0.088884 0.507833 0.581251
v 0.088619 0.515000 0.577920
v 0.088619 0.515000 0.582963
v 0.089276 0.521167 0.579326
v 0.089276 0.521167 0.582700
v 0.082253 0.528981 0.588943
v 0.082253 0.528981 0.591062
v 0.082253 0.532019 0.588943
v 0.082253 0.532019 0.591062
v 0.091253 0.507833 0.577900
v 0.091253 0.507833 0.581251
v 0.091543 0.515000 0.577920
v 0.091543 0.515000 0.582963
v 0.090804 0.521167 0.579326
v 0.090804 0.521167 0.582700
vn -0.9927 -0.1203 -0.0000
vn -0.9987 0.0505 -0.0000
vn -0.9990 -0.0441 -0.0000
vn -0.9933 0.1156 -0.0000
vn -0.9999 0.0161 -0.0000
vn -0.9863 0.1652 -0.0000
vn -0.0672 -0.9977 -0.0000
vn -0.1771 -0.1212 -0.9767
vn -0.0781 -0.2480 0.9656
vn -0.0688 0.2605 -0.9630
vn 0.0804 0.9968 -0.0000
vn 0.0006 0.0812 0.9967
vn -0.0000 -1.0000 -0.0000
vn -0.0000 0.0014 -1.0000
vn 0.9994 -0.0353 -0.0000
vn -0.0000 -0.2348 0.9721
vn -0.0000 0.2181 -0.9759
vn 0.9952 0.0981 -0.0000
vn -0.0000 1.0000 -0.0000
vn -0.0000 0.0381 0.9993
vn 0.0154 0.0439 -0.9989
vn 0.9425 -0.3342 -0.0000
vn 0.0024 0.0068 1.0000
vn 0.0044 0.2006 -0.9797
vn -0.0156 0.9999 -0.0000
vn -0.0176 0.1644 0.9862
vn 0.0036 -1.0000 -0.0000
vn 0.0915 -0.0283 -0.9954
vn 0.0929 -0.1085 0.9898
vn 0.2117 0.4108 -0.8868
vn 0.8045 0.5939 -0.0000
vn 0.2931 0.9561 -0.0000
vn 0.2601 0.2394 0.9354
vn 0.3517 -0.9361 -0.0000
vn 0.0227 0.1382 -0.9901
vn 0.0007 1.0000 -0.0000
vn 0.0233 0.1108 0.9936
vn 0.0509 -0.9987 -0.0000
vn 0.0959 0.0755 -0.9925
vn 1.0000 -0.0000 -0.0000
vn 0.3704 0.9289 -0.0000
vn 0.0356 0.0320 0.9989
vn -1.0000 -0.0000 -0.0000
vn 0.1712 -0.9852 -0.0000
vn 0.0135 -0.0000 -0.9999
vn 0.0144 0.9999 -0.0000
vn 0.0390 -0.0000 0.9992
vn -0.0000 -0.0000 -1.0000
vn -0.0000 -0.0000 1.0000
vn -0.9993 -0.0368 -0.0000
vn -0.9944 0.1058 -0.0000
vn -0.0000 0.0027 -1.0000
vn 0.9992 -0.0404 -0.0000
vn -0.0000 -0.2324 0.9726
vn -0.0000 0.2223 -0.9750
vn 0.9929 0.1189 -0.0000
vn -0.0000 0.0426 0.9991
s 0
usemtl material_0_0.420
f 4//1 3//1 1//1 2//1
f 6//2 5//2 3//2 4//2
f 10//3 9//3 7//3 8//3
f 12//4 11//4 9//4 10//4
f 16//5 15//5 13//5 14//5
f 18//6 17//6 15//6 16//6
f 20//7 2//7 1//7 19//7
f 3//8 21//8 19//8 1//8
f 22//9 4//9 2//9 20//9
f 5//10 23//10 21//10 3//10
f 6//11 24//11 23//11 5//11
f 24//12 6//12 4//12 22//12
f 26//13 8//13 7//13 25//13
f 9//14 27//14 25//14 7//14
f 27//15 28//15 26//15 25//15
f 28//16 10//16 8//16 26//16
f 11//17 29//17 27//17 9//17
f 29//18 30//18 28//18 27//18
f 12//19 30//19 29//19 11//19
f 30//20 12//20 10//20 28//20
f 32//13 14//13 13//13 31//13
f 15//21 33//21 31//21 13//21
f 33//22 34//22 32//22 31//22
f 34//23 16//23 14//23 32//23
f 17//24 35//24 33//24 15//24
f 18//25 36//25 35//25 17//25
f 36//26 18//26 16//26 34//26
f 38//27 20//27 19//27 37//27
f 21//28 39//28 37//28 19//28
f 40//29 22//29 20//29 38//29
f 23//30 41//30 39//30 21//30
f 41//31 42//31 40//31 39//31
f 24//32 42//32 41//32 23//32
f 42//33 24//33 22//33 40//33
f 44//34 34//34 33//34 43//34
f 35//35 45//35 43//35 33//35
f 36//36 46//36 45//36 35//36
f 46//37 36//37 34//37 44//37
f 48//38 38//38 37//38 47//38
f 39//39 49//39 47//39 37//39
f 49//40 52//40 48//40 47//40
f 40//41 52//41 49//41 39//41
f 52//42 40//42 38//42 48//42
f 54//43 53//43 50//43 51//43
f 59//43 57//43 55//43 56//43
f 60//44 44//44 43//44 58//44
f 45//45 61//45 58//45 43//45
f 61//40 62//40 60//40 58//40
f 46//46 62//46 61//46 45//46
f 62//47 46//47 44//47 60//47
f 64//13 51//13 50//13 63//13
f 53//48 65//48 63//48 50//48
f 65//40 66//40 64//40 63//40
f 54//19 66//19 65//19 53//19
f 66//49 54//49 51//49 64//49
f 70//50 69//50 67//50 68//50
f 72//51 71//51 69//51 70//51
f 74//13 56//13 55//13 73//13
f 57//48 75//48 73//48 55//48
f 75//40 76//40 74//40 73//40
f 59//19 76//19 75//19 57//19
f 76//49 59//49 56//49 74//49
f 78//13 68//13 67//13 77//13
f 69//52 79//52 77//52 67//52
f 79//53 80//53 78//53 77//53
f 80//54 70//54 68//54 78//54
f 71//55 81//55 79//55 69//55
f 81//56 82//56 80//56 79//56
f 72//19 82//19 81//19 71//19
f 82//57 72//57 70//57 80//57
