# Blender 3.5.0
# www.blender.org
mtllib remesh_original-22.mtl
o mesh22/mesh22-geometry#mesh22-geometry.076
v -0.070404 0.459474 -0.580741
v -0.070404 0.459474 -0.579366
v -0.070404 0.462040 -0.580741
v -0.070404 0.462040 -0.579366
v -0.065000 0.459018 -0.580813
v -0.065000 0.459018 -0.578839
v -0.065000 0.461808 -0.580813
v -0.065000 0.461808 -0.578839
v -0.059297 0.459217 -0.580342
v -0.059297 0.459217 -0.579086
v -0.059297 0.460370 -0.580342
v -0.059297 0.460370 -0.579086
v -0.042082 0.457809 -0.581571
v -0.042082 0.457809 -0.577660
v -0.042082 0.461862 -0.581571
v -0.042082 0.461862 -0.577660
v -0.035000 0.457408 -0.581890
v -0.035000 0.457408 -0.577173
v -0.030932 0.469051 -0.590760
v -0.035000 0.463114 -0.581890
v -0.030932 0.469051 -0.587710
v -0.035000 0.463114 -0.577173
v -0.030932 0.479240 -0.600633
v -0.031399 0.475544 -0.594456
v -0.031050 0.475000 -0.588093
v -0.029541 0.458735 -0.580949
v -0.029541 0.458735 -0.578571
v -0.029541 0.469051 -0.590760
v -0.029541 0.469051 -0.587710
v -0.029541 0.462290 -0.580949
v -0.029541 0.462290 -0.578571
v -0.029541 0.479240 -0.600633
v -0.029323 0.475544 -0.594456
v -0.029498 0.475000 -0.588093
v -0.070863 0.487581 -0.602101
v -0.070863 0.487581 -0.599221
v -0.070863 0.490871 -0.602101
v -0.070863 0.490871 -0.599221
v -0.068588 0.487581 -0.602101
v -0.068588 0.487581 -0.599221
v -0.068588 0.490871 -0.602101
v -0.068588 0.490871 -0.599221
v -0.040532 0.489970 -0.610029
v -0.040601 0.489650 -0.605000
v -0.040269 0.489563 -0.599759
v -0.040532 0.490255 -0.610029
v -0.040601 0.490449 -0.605000
v -0.040269 0.490344 -0.599759
v -0.035000 0.489759 -0.610205
v -0.034559 0.485545 -0.604380
v -0.034033 0.484932 -0.596229
v -0.030468 0.480300 -0.589747
v -0.035000 0.491264 -0.610205
v -0.035000 0.492093 -0.605000
v -0.035000 0.490829 -0.599343
v -0.029796 0.489709 -0.610245
v -0.029326 0.485825 -0.604380
v -0.029323 0.484180 -0.595619
v -0.029790 0.480300 -0.589747
v -0.029796 0.491431 -0.610245
v -0.029502 0.491644 -0.605000
v -0.029541 0.490762 -0.599365
vn -1.0000 -0.0000 -0.0000
vn -0.0841 -0.9965 -0.0000
vn -0.0132 -0.0000 -0.9999
vn 0.0429 0.9991 -0.0000
vn -0.0971 -0.0000 0.9953
vn 0.0348 -0.9994 -0.0000
vn 0.0823 -0.0000 -0.9966
vn 1.0000 -0.0000 -0.0000
vn 0.2444 0.9697 -0.0000
vn 0.0432 -0.0000 0.9991
vn -0.0565 -0.9984 -0.0000
vn -0.0450 -0.0000 -0.9990
vn -0.1741 0.9847 -0.0000
vn -0.0686 -0.0000 0.9976
vn -0.9988 -0.0355 0.0350
vn 0.2362 -0.9717 -0.0000
vn -0.0000 -1.0000 -0.0000
vn 0.1699 -0.0000 -0.9855
vn 0.1492 0.9888 -0.0000
vn 0.2480 -0.0000 0.9688
vn -0.0000 -0.8581 -0.5135
vn -0.0000 -0.4947 -0.8691
vn 0.9997 -0.0151 0.0177
vn -0.0000 0.0642 0.9979
vn -0.0000 -0.0000 -1.0000
vn -0.0000 1.0000 -0.0000
vn -0.0000 -0.0000 1.0000
vn -0.9999 -0.0000 -0.0137
vn -0.9980 -0.0000 0.0631
vn -0.3144 -0.8798 -0.3567
vn -0.9074 -0.4035 -0.1176
vn -0.5785 -0.8157 -0.0056
vn -0.9618 -0.0729 0.2637
vn -0.0319 -0.0000 -0.9995
vn -0.2322 0.9677 -0.0983
vn -0.1954 0.9723 0.1281
vn -0.1665 0.3969 0.9026
vn 0.0159 -0.8214 -0.5702
vn 0.0211 -0.4983 -0.8667
vn 0.9995 -0.0213 -0.0225
vn 0.9973 0.0340 0.0646
vn 0.0525 0.8285 0.5576
vn -0.0000 0.2980 0.9546
vn -0.0076 -0.0000 -1.0000
vn 0.9979 0.0182 -0.0625
vn 0.0259 0.9947 -0.1000
vn 0.9994 0.0348 0.0085
vn 0.0467 0.9813 0.1867
vn -0.0119 0.4809 0.8767
s 0
usemtl material_0_0.23376
f 4//1 3//1 1//1 2//1
f 6//2 2//2 1//2 5//2
f 3//3 7//3 5//3 1//3
f 4//4 8//4 7//4 3//4
f 8//5 4//5 2//5 6//5
f 10//6 6//6 5//6 9//6
f 7//7 11//7 9//7 5//7
f 11//8 12//8 10//8 9//8
f 8//9 12//9 11//9 7//9
f 12//10 8//10 6//10 10//10
f 16//1 15//1 13//1 14//1
f 18//11 14//11 13//11 17//11
f 15//12 20//12 17//12 13//12
f 16//13 22//13 20//13 15//13
f 22//14 16//14 14//14 18//14
f 25//15 24//15 19//15 21//15
f 27//16 18//16 17//16 26//16
f 29//17 21//17 19//17 28//17
f 20//18 30//18 26//18 17//18
f 30//8 31//8 27//8 26//8
f 22//19 31//19 30//19 20//19
f 31//20 22//20 18//20 27//20
f 33//21 24//21 23//21 32//21
f 24//22 33//22 28//22 19//22
f 33//23 34//23 29//23 28//23
f 34//24 25//24 21//24 29//24
f 38//1 37//1 35//1 36//1
f 40//17 36//17 35//17 39//17
f 37//25 41//25 39//25 35//25
f 41//8 42//8 40//8 39//8
f 38//26 42//26 41//26 37//26
f 42//27 38//27 36//27 40//27
f 47//28 46//28 43//28 44//28
f 48//29 47//29 44//29 45//29
f 50//30 44//30 43//30 49//30
f 51//31 50//31 23//31 24//31
f 51//32 45//32 44//32 50//32
f 52//33 51//33 24//33 25//33
f 46//34 53//34 49//34 43//34
f 47//35 54//35 53//35 46//35
f 48//36 55//36 54//36 47//36
f 55//37 48//37 45//37 51//37
f 57//38 50//38 49//38 56//38
f 50//39 57//39 32//39 23//39
f 57//40 58//40 33//40 32//40
f 58//41 59//41 34//41 33//41
f 52//42 59//42 58//42 51//42
f 59//43 52//43 25//43 34//43
f 53//44 60//44 56//44 49//44
f 60//45 61//45 57//45 56//45
f 54//46 61//46 60//46 53//46
f 61//47 62//47 58//47 57//47
f 55//48 62//48 61//48 54//48
f 62//49 55//49 51//49 58//49
