# Blender 3.5.0
# www.blender.org
mtllib remesh_original-19.mtl
o mesh19/mesh19-geometry#mesh19-geometry.003
v 0.107930 0.457682 -0.582034
v 0.107930 0.457682 -0.577510
v 0.107938 0.468067 -0.591685
v 0.107930 0.462987 -0.582034
v 0.107938 0.468067 -0.587054
v 0.107930 0.462987 -0.577510
v 0.107938 0.472610 -0.591685
v 0.107938 0.472610 -0.587054
v 0.112510 0.457682 -0.582034
v 0.112510 0.457682 -0.577510
v 0.112741 0.468067 -0.591685
v 0.112741 0.468067 -0.587054
v 0.112510 0.462987 -0.582034
v 0.112510 0.462987 -0.577510
v 0.112741 0.472610 -0.591685
v 0.118984 0.478800 -0.590508
v 0.118984 0.478800 -0.589747
v 0.112741 0.472610 -0.587054
v 0.125000 0.478682 -0.590994
v 0.125000 0.478682 -0.589626
v 0.138393 0.479126 -0.600734
v 0.135030 0.479284 -0.594174
v 0.131666 0.479443 -0.589754
v 0.141002 0.479126 -0.600734
v 0.141002 0.479126 -0.597530
v 0.109603 0.489769 -0.610244
v 0.109603 0.489769 -0.609466
v 0.109603 0.490781 -0.610244
v 0.109603 0.490781 -0.609466
v 0.111362 0.489769 -0.610244
v 0.111362 0.489769 -0.609466
v 0.118984 0.480215 -0.590508
v 0.118984 0.480215 -0.589747
v 0.111362 0.490781 -0.610244
v 0.119854 0.499688 -0.610043
v 0.119854 0.499688 -0.609941
v 0.111362 0.490781 -0.609466
v 0.119854 0.500033 -0.610043
v 0.119854 0.500033 -0.609941
v 0.128730 0.488528 -0.602335
v 0.126598 0.483856 -0.594615
v 0.125000 0.480352 -0.589626
v 0.121370 0.499688 -0.610043
v 0.128730 0.490776 -0.602335
v 0.121370 0.499688 -0.609941
v 0.128730 0.490776 -0.599442
v 0.121370 0.500033 -0.610043
v 0.121370 0.500033 -0.609941
v 0.138390 0.489709 -0.610233
v 0.135058 0.485785 -0.604868
v 0.131727 0.481861 -0.597485
v 0.135000 0.484153 -0.593769
v 0.131666 0.480254 -0.589754
v 0.138390 0.490468 -0.610233
v 0.135034 0.491242 -0.605401
v 0.135000 0.491201 -0.599064
v 0.140325 0.489709 -0.610233
v 0.141412 0.485825 -0.604440
v 0.141521 0.485000 -0.597630
v 0.140325 0.490468 -0.610233
v 0.141013 0.490970 -0.605000
v 0.141026 0.490826 -0.599309
vn -1.0000 -0.0000 -0.0000
vn -0.0000 -1.0000 -0.0000
vn -0.0000 -0.0000 -1.0000
vn 1.0000 -0.0000 -0.0000
vn -0.0000 1.0000 -0.0000
vn -0.0000 -0.0000 1.0000
vn -0.0196 -0.9998 -0.0000
vn 0.0976 -0.9917 0.0838
vn -0.0140 -0.9998 0.0114
vn -0.1830 -0.4389 -0.8797
vn -0.0928 0.8615 0.4992
vn -0.0202 -0.0000 0.9998
vn -0.9789 0.1615 -0.1255
vn -0.5170 -0.7308 -0.4456
vn -0.5278 -0.6420 -0.5562
vn -0.3278 -0.6688 -0.6673
vn 0.7910 -0.0394 0.6105
vn -0.0399 0.7825 0.6214
vn 0.0192 -0.0000 0.9998
vn -0.8278 -0.0512 -0.5587
vn -0.4140 -0.0642 -0.9080
vn -0.0698 0.9976 0.0041
vn -0.0959 0.5936 0.7990
vn 0.0333 -0.8220 -0.5685
vn 0.0435 -0.4986 -0.8657
vn 0.9967 -0.0789 -0.0174
vn 0.5016 -0.0474 0.8638
vn 0.9883 0.0532 -0.1428
vn 0.0399 0.9925 -0.1152
vn 0.9967 0.0805 -0.0035
vn 0.0536 0.9984 0.0155
vn 0.2590 0.4677 0.8451
s 0
usemtl material_0_0.288
f 6//1 4//1 1//1 2//1
f 8//1 7//1 3//1 5//1
f 10//2 2//2 1//2 9//2
f 12//2 5//2 3//2 11//2
f 4//3 13//3 9//3 1//3
f 13//4 14//4 10//4 9//4
f 6//5 14//5 13//5 4//5
f 14//6 6//6 2//6 10//6
f 7//3 15//3 11//3 3//3
f 15//4 18//4 12//4 11//4
f 8//5 18//5 15//5 7//5
f 18//6 8//6 5//6 12//6
f 20//7 17//7 16//7 19//7
f 23//8 20//8 19//8 22//8
f 25//9 22//9 21//9 24//9
f 29//1 28//1 26//1 27//1
f 31//2 27//2 26//2 30//2
f 33//1 32//1 16//1 17//1
f 28//3 34//3 30//3 26//3
f 34//4 37//4 31//4 30//4
f 29//5 37//5 34//5 28//5
f 37//6 29//6 27//6 31//6
f 39//1 38//1 35//1 36//1
f 32//10 41//10 19//10 16//10
f 33//11 42//11 41//11 32//11
f 42//12 33//12 17//12 20//12
f 45//2 36//2 35//2 43//2
f 46//13 44//13 40//13 41//13
f 38//3 47//3 43//3 35//3
f 47//4 48//4 45//4 43//4
f 39//5 48//5 47//5 38//5
f 48//6 39//6 36//6 45//6
f 51//14 50//14 21//14 22//14
f 51//15 41//15 40//15 50//15
f 41//16 51//16 22//16 19//16
f 52//17 53//17 23//17 22//17
f 42//18 53//18 52//18 41//18
f 53//19 42//19 20//19 23//19
f 55//20 54//20 49//20 50//20
f 44//21 55//21 50//21 40//21
f 46//22 56//22 55//22 44//22
f 56//23 46//23 41//23 52//23
f 58//24 50//24 49//24 57//24
f 50//25 58//25 24//25 21//25
f 58//26 59//26 25//26 24//26
f 59//27 52//27 22//27 25//27
f 54//3 60//3 57//3 49//3
f 60//28 61//28 58//28 57//28
f 55//29 61//29 60//29 54//29
f 61//30 62//30 59//30 58//30
f 56//31 62//31 61//31 55//31
f 62//32 56//32 52//32 59//32
