# Blender 3.5.0
# www.blender.org
mtllib remesh_original-10.mtl
o mesh11/mesh11-geometry#mesh11-geometry.046
v 0.009572 0.489421 0.568571
v 0.009572 0.489421 0.570507
v 0.009572 0.490816 0.568571
v 0.009572 0.490816 0.570507
v 0.009850 0.539582 0.589843
v 0.009850 0.539582 0.590420
v 0.009850 0.540163 0.589843
v 0.009850 0.540163 0.590420
v 0.015000 0.488971 0.567610
v 0.015000 0.488971 0.570932
v 0.015124 0.494489 0.567375
v 0.015124 0.494489 0.572022
v 0.018540 0.502060 0.568811
v 0.018540 0.502060 0.572128
v 0.018880 0.507833 0.577901
v 0.018880 0.507833 0.581251
v 0.018625 0.515000 0.577920
v 0.018625 0.515000 0.582964
v 0.019286 0.521167 0.579326
v 0.019286 0.521167 0.582701
v 0.018148 0.527009 0.588253
v 0.018148 0.527009 0.591559
v 0.014889 0.535749 0.588763
v 0.014889 0.535749 0.591440
v 0.015000 0.540245 0.589764
v 0.015000 0.540245 0.590631
v 0.025000 0.488809 0.567363
v 0.025000 0.488809 0.571078
v 0.024992 0.494757 0.567177
v 0.024992 0.494757 0.572139
v 0.021654 0.502060 0.568811
v 0.021654 0.502060 0.572128
v 0.021203 0.507833 0.577901
v 0.021203 0.507833 0.581251
v 0.021486 0.515000 0.577920
v 0.021486 0.515000 0.582964
v 0.020777 0.521167 0.579326
v 0.020777 0.521167 0.582701
v 0.022093 0.527009 0.588253
v 0.022093 0.527009 0.591559
v 0.025256 0.535676 0.588763
v 0.025256 0.535676 0.591440
v 0.025000 0.540245 0.589764
v 0.025000 0.540245 0.590631
v 0.030640 0.489206 0.568242
v 0.030640 0.489206 0.570702
v 0.030640 0.491261 0.568242
v 0.030640 0.491261 0.570702
v 0.030162 0.539459 0.589843
v 0.030162 0.539459 0.590420
v 0.030162 0.540163 0.589843
v 0.030162 0.540163 0.590420
vn -1.0000 -0.0000 -0.0000
vn -0.0827 -0.9966 -0.0000
vn -0.1842 -0.0302 -0.9824
vn -0.5518 0.8340 -0.0000
vn -0.1284 -0.1523 0.9800
vn -0.9115 0.4113 -0.0000
vn -0.9994 -0.0356 -0.0000
vn -0.9943 0.1067 -0.0000
vn -0.9370 -0.3494 -0.0000
vn -0.6054 -0.7959 -0.0000
vn -0.0401 0.1941 -0.9802
vn -0.0159 0.9999 -0.0000
vn -0.0606 0.1585 0.9855
vn -0.0161 -0.9999 -0.0000
vn -0.0222 -0.0365 -0.9991
vn -0.0120 -0.1843 0.9828
vn -0.0191 0.2022 -0.9792
vn 0.9095 0.4158 -0.0000
vn -0.0000 1.0000 -0.0000
vn -0.0089 -0.0063 0.9999
vn -0.0000 -1.0000 -0.0000
vn -0.0000 0.0028 -1.0000
vn 0.9992 -0.0393 -0.0000
vn -0.0000 -0.2324 0.9726
vn -0.0000 0.2223 -0.9750
vn 0.9935 0.1141 -0.0000
vn -0.0000 0.0426 0.9991
vn 0.0003 0.0585 -0.9983
vn 0.9394 -0.3428 -0.0000
vn 0.0001 0.0137 0.9999
vn 0.0008 0.2156 -0.9765
vn 0.0006 0.1758 0.9844
vn 0.0702 -0.9975 -0.0000
vn 0.1636 -0.0228 -0.9863
vn 1.0000 -0.0000 -0.0000
vn 0.5263 0.8503 -0.0000
vn 0.1223 -0.1304 0.9839
vn 0.6107 -0.7918 -0.0000
vn 0.0437 0.1883 -0.9811
vn 0.0158 0.9999 -0.0000
vn 0.0637 0.1544 0.9859
s 0
usemtl material_0_0.23387
f 4//1 3//1 1//1 2//1
f 8//1 7//1 5//1 6//1
f 10//2 2//2 1//2 9//2
f 3//3 11//3 9//3 1//3
f 4//4 12//4 11//4 3//4
f 12//5 4//5 2//5 10//5
f 14//6 13//6 11//6 12//6
f 18//7 17//7 15//7 16//7
f 20//8 19//8 17//8 18//8
f 24//9 23//9 21//9 22//9
f 24//10 6//10 5//10 23//10
f 7//11 25//11 23//11 5//11
f 8//12 26//12 25//12 7//12
f 26//13 8//13 6//13 24//13
f 28//14 10//14 9//14 27//14
f 11//15 29//15 27//15 9//15
f 30//16 12//16 10//16 28//16
f 13//17 31//17 29//17 11//17
f 31//18 32//18 30//18 29//18
f 14//19 32//19 31//19 13//19
f 32//20 14//20 12//20 30//20
f 34//21 16//21 15//21 33//21
f 17//22 35//22 33//22 15//22
f 35//23 36//23 34//23 33//23
f 36//24 18//24 16//24 34//24
f 19//25 37//25 35//25 17//25
f 37//26 38//26 36//26 35//26
f 20//19 38//19 37//19 19//19
f 38//27 20//27 18//27 36//27
f 40//21 22//21 21//21 39//21
f 23//28 41//28 39//28 21//28
f 41//29 42//29 40//29 39//29
f 42//30 24//30 22//30 40//30
f 25//31 43//31 41//31 23//31
f 26//19 44//19 43//19 25//19
f 44//32 26//32 24//32 42//32
f 46//33 28//33 27//33 45//33
f 29//34 47//34 45//34 27//34
f 47//35 48//35 46//35 45//35
f 30//36 48//36 47//36 29//36
f 48//37 30//37 28//37 46//37
f 50//38 42//38 41//38 49//38
f 43//39 51//39 49//39 41//39
f 51//35 52//35 50//35 49//35
f 44//40 52//40 51//40 43//40
f 52//41 44//41 42//41 50//41
