# Blender 3.5.0
# www.blender.org
mtllib remesh_original-9.mtl
o mesh10/mesh10-geometry#mesh10-geometry.044
v -0.040820 0.518849 0.579331
v -0.040820 0.518849 0.582700
v -0.040820 0.521167 0.579331
v -0.040820 0.521167 0.582700
v -0.041292 0.527107 0.588488
v -0.041292 0.527107 0.591328
v -0.041292 0.532304 0.588488
v -0.041292 0.532304 0.591328
v -0.033246 0.489691 0.568794
v -0.033246 0.489691 0.570241
v -0.033246 0.490552 0.568794
v -0.033246 0.490552 0.570241
v -0.037488 0.518849 0.579331
v -0.037488 0.518849 0.582700
v -0.037488 0.521167 0.579331
v -0.037488 0.521167 0.582700
v -0.036916 0.527107 0.588488
v -0.036916 0.527107 0.591328
v -0.036916 0.532304 0.588488
v -0.030847 0.537823 0.589843
v -0.030847 0.537823 0.590512
v -0.036916 0.532304 0.591328
v -0.030847 0.540175 0.589843
v -0.030847 0.540175 0.590512
v -0.025000 0.489560 0.568285
v -0.025000 0.489560 0.570345
v -0.025000 0.492570 0.568285
v -0.025000 0.492570 0.570345
v -0.021428 0.509691 0.579501
v -0.021428 0.509691 0.580423
v -0.021428 0.511239 0.579501
v -0.021428 0.511239 0.580423
v -0.025000 0.538027 0.589764
v -0.025000 0.538027 0.590812
v -0.025000 0.540264 0.589764
v -0.025000 0.540264 0.590812
v -0.015000 0.489602 0.568829
v -0.015000 0.489602 0.570378
v -0.015881 0.495725 0.568696
v -0.015881 0.495725 0.571130
v -0.013136 0.501321 0.569387
v -0.015000 0.508151 0.578051
v -0.013136 0.501321 0.571379
v -0.015000 0.508151 0.581253
v -0.015000 0.512283 0.578051
v -0.015000 0.512283 0.581253
v -0.015000 0.539039 0.589764
v -0.015000 0.539039 0.590678
v -0.015000 0.540248 0.589764
v -0.015000 0.540248 0.590678
v -0.009682 0.489747 0.569519
v -0.009682 0.489747 0.570286
v -0.008829 0.495000 0.569180
v -0.008829 0.495000 0.571249
v -0.008756 0.501321 0.569387
v -0.008756 0.501321 0.571379
v -0.008360 0.507845 0.577901
v -0.008360 0.507845 0.581247
v -0.008360 0.511805 0.577901
v -0.008360 0.511805 0.581247
v -0.009678 0.539173 0.589842
v -0.009678 0.539173 0.590333
v -0.009678 0.540153 0.589842
v -0.009678 0.540153 0.590333
vn -1.0000 -0.0000 -0.0000
vn -0.0000 -1.0000 -0.0000
vn -0.0000 -0.0000 -1.0000
vn 1.0000 -0.0000 -0.0000
vn -0.0000 1.0000 -0.0000
vn -0.0000 -0.0000 1.0000
vn -0.0159 -0.9999 -0.0000
vn -0.0616 -0.0000 -0.9981
vn -0.2378 0.9713 -0.0000
vn -0.0125 -0.0000 0.9999
vn 0.0347 -0.9994 -0.0000
vn -0.0134 -0.0000 -0.9999
vn -0.0154 0.9999 -0.0000
vn -0.0512 -0.0000 0.9987
vn 0.0042 -1.0000 -0.0000
vn 0.0514 -0.0096 -0.9986
vn -0.3270 0.9450 -0.0000
vn -0.0285 -0.0848 0.9960
vn -0.8977 0.4405 -0.0000
vn -0.2329 -0.9725 -0.0000
vn -0.2200 -0.0000 -0.9755
vn -0.1604 0.9871 -0.0000
vn -0.1280 -0.0000 0.9918
vn 0.1007 -0.9949 -0.0000
vn 0.0016 1.0000 -0.0000
vn 0.0135 -0.0000 0.9999
vn 0.0273 -0.9996 -0.0000
vn 0.0925 -0.0411 -0.9949
vn 0.9871 -0.1604 -0.0000
vn -0.0091 -0.1491 0.9888
vn 0.0463 0.0643 -0.9969
vn 0.9999 -0.0115 -0.0000
vn -0.0122 -0.0290 0.9995
vn -0.0462 -0.9989 -0.0000
vn -0.0226 -0.0000 -0.9997
vn 0.0717 0.9974 -0.0000
vn 0.0009 -0.0000 1.0000
vn 0.0252 -0.9997 -0.0000
vn 0.0147 -0.0000 -0.9999
vn 0.0179 0.9998 -0.0000
vn 0.0647 -0.0000 0.9979
s 0
usemtl material_0_0.23384
f 4//1 3//1 1//1 2//1
f 8//1 7//1 5//1 6//1
f 12//1 11//1 9//1 10//1
f 14//2 2//2 1//2 13//2
f 3//3 15//3 13//3 1//3
f 15//4 16//4 14//4 13//4
f 4//5 16//5 15//5 3//5
f 16//6 4//6 2//6 14//6
f 18//2 6//2 5//2 17//2
f 7//3 19//3 17//3 5//3
f 19//4 22//4 18//4 17//4
f 8//5 22//5 19//5 7//5
f 22//6 8//6 6//6 18//6
f 24//1 23//1 20//1 21//1
f 26//7 10//7 9//7 25//7
f 11//8 27//8 25//8 9//8
f 12//9 28//9 27//9 11//9
f 28//10 12//10 10//10 26//10
f 32//1 31//1 29//1 30//1
f 34//11 21//11 20//11 33//11
f 23//12 35//12 33//12 20//12
f 24//13 36//13 35//13 23//13
f 36//14 24//14 21//14 34//14
f 38//15 26//15 25//15 37//15
f 27//16 39//16 37//16 25//16
f 28//17 40//17 39//17 27//17
f 40//18 28//18 26//18 38//18
f 43//19 41//19 39//19 40//19
f 44//20 30//20 29//20 42//20
f 31//21 45//21 42//21 29//21
f 32//22 46//22 45//22 31//22
f 46//23 32//23 30//23 44//23
f 48//24 34//24 33//24 47//24
f 35//3 49//3 47//3 33//3
f 36//25 50//25 49//25 35//25
f 50//26 36//26 34//26 48//26
f 52//27 38//27 37//27 51//27
f 39//28 53//28 51//28 37//28
f 53//29 54//29 52//29 51//29
f 54//30 40//30 38//30 52//30
f 41//31 55//31 53//31 39//31
f 55//32 56//32 54//32 53//32
f 43//5 56//5 55//5 41//5
f 56//33 43//33 40//33 54//33
f 58//34 44//34 42//34 57//34
f 45//35 59//35 57//35 42//35
f 59//4 60//4 58//4 57//4
f 46//36 60//36 59//36 45//36
f 60//37 46//37 44//37 58//37
f 62//38 48//38 47//38 61//38
f 49//39 63//39 61//39 47//39
f 63//4 64//4 62//4 61//4
f 50//40 64//40 63//40 49//40
f 64//41 50//41 48//41 62//41
