# Blender 3.5.0
# www.blender.org
mtllib right_direction_open.mtl
o sequence.002
v 0.427809 0.279538 0.017464
v 0.427809 0.294597 -0.423512
v 0.427809 0.295367 0.017437
v 0.427809 0.278768 -0.423484
v -0.414695 0.295367 0.017437
v -0.414695 0.278768 -0.423484
v -0.414695 0.294597 -0.423512
v -0.414695 0.279538 0.017464
v -0.414695 0.279117 0.017852
v 0.427809 0.279116 0.437527
v -0.414695 0.279116 0.437527
v 0.427809 0.279117 0.017852
v -0.414695 0.294945 0.437527
v 0.427809 0.294945 0.017851
v 0.427809 0.294945 0.437527
v -0.414695 0.294945 0.017852
v 0.443638 -0.375444 0.446425
v 0.443638 -0.375444 -0.427736
v -0.430524 -0.375444 0.446425
v -0.430524 -0.375444 -0.427736
v 0.443638 -0.057738 -0.206816
v 0.022258 -0.263924 0.446425
v -0.430524 -0.028133 -0.213500
v -0.430524 0.285979 -0.427736
v 0.443638 -0.057738 -0.173312
v 0.443638 0.285979 -0.427736
v 0.443638 0.285979 0.446425
v -0.026092 -0.263924 0.446425
v -0.430524 -0.028133 -0.167677
v 0.443638 -0.057738 0.200123
v 0.443638 -0.057738 0.222429
v 0.072542 -0.027977 0.446425
v -0.430524 0.285979 0.446425
v -0.430524 -0.028133 0.179241
v -0.426656 0.285979 -0.427736
v 0.439770 -0.057738 -0.173312
v -0.001917 0.113204 0.446425
v 0.022258 -0.027977 0.446425
v -0.082177 -0.027977 0.446425
v -0.430524 -0.028133 0.209209
v -0.426656 -0.028133 0.179241
v -0.414695 0.285979 -0.427736
v 0.439770 0.285979 -0.427736
v 0.439770 -0.057738 0.200123
v 0.439770 0.285979 0.446425
v -0.026092 -0.027977 0.446425
v -0.426656 -0.028133 -0.167677
v -0.414695 0.285979 -0.411908
v 0.427809 0.285979 -0.427736
v -0.426656 0.285979 0.446425
v 0.427809 0.285979 -0.411908
v -0.414695 0.285979 0.430596
v 0.427809 0.285979 0.446425
v -0.414695 0.285979 0.446425
v -0.414695 -0.321293 -0.411908
v 0.427809 -0.321293 -0.411908
v 0.427809 0.285979 0.430596
v -0.414695 -0.321293 0.430596
v 0.427809 -0.321293 0.430596
v 0.427809 0.429711 -0.005789
v 0.427809 0.293040 -0.425322
v 0.427809 0.444576 -0.011228
v 0.427809 0.278175 -0.419882
v -0.414695 0.444576 -0.011228
v -0.414695 0.278175 -0.419882
v -0.414695 0.293040 -0.425322
v -0.414695 0.429711 -0.005789
v -0.414695 0.422550 0.040010
v 0.427809 0.279012 0.434376
v -0.414695 0.279012 0.434376
v 0.427809 0.422550 0.040010
v -0.414695 0.293886 0.439789
v 0.427809 0.437424 0.045424
v 0.427809 0.293886 0.439789
v -0.414695 0.437424 0.045424
v 0.427809 0.562875 -0.079003
v 0.427809 0.290957 -0.426490
v 0.427809 0.574983 -0.089198
v 0.427809 0.278849 -0.416294
v -0.414695 0.574983 -0.089198
v -0.414695 0.278849 -0.416294
v -0.414695 0.290957 -0.426490
v -0.414695 0.562875 -0.079003
v -0.414695 0.549755 0.109890
v 0.427809 0.279993 0.431379
v -0.414695 0.279993 0.431379
v 0.427809 0.549755 0.109890
v -0.414695 0.292118 0.441553
v 0.427809 0.561881 0.120064
v 0.427809 0.292118 0.441553
v -0.414695 0.561881 0.120064
v 0.427809 0.662967 -0.193346
v 0.427809 0.288600 -0.426875
v 0.427809 0.670858 -0.207067
v 0.427809 0.280710 -0.413153
v -0.414695 0.670858 -0.207067
v -0.414695 0.280710 -0.413153
v -0.414695 0.288600 -0.426875
v -0.414695 0.662967 -0.193346
v -0.414695 0.645389 0.219061
v 0.427809 0.281939 0.428898
v -0.414695 0.281939 0.428898
v 0.427809 0.645389 0.219061
v -0.414695 0.289854 0.442606
v 0.427809 0.653303 0.232769
v 0.427809 0.289854 0.442606
v -0.414695 0.653303 0.232769
v 0.427809 0.717916 -0.335026
v 0.427809 0.286254 -0.426431
v 0.427809 0.720638 -0.350619
v 0.427809 0.283533 -0.410838
v -0.414695 0.720638 -0.350619
v -0.414695 0.283533 -0.410838
v -0.414695 0.286254 -0.426431
v -0.414695 0.717916 -0.335026
v -0.414695 0.697916 0.354358
v 0.427809 0.284616 0.427233
v -0.414695 0.284616 0.427233
v 0.427809 0.697916 0.354358
v -0.414695 0.287365 0.442821
v 0.427809 0.700664 0.369946
v 0.427809 0.287365 0.442821
v -0.414695 0.700664 0.369946
v 0.427809 0.721093 -0.486956
v 0.427809 0.284201 -0.425212
v 0.427809 0.718317 -0.502539
v 0.427809 0.286977 -0.409628
v -0.414695 0.718317 -0.502539
v -0.414695 0.286977 -0.409628
v -0.414695 0.284201 -0.425212
v -0.414695 0.721093 -0.486956
v -0.414695 0.701001 0.499460
v 0.427809 0.287702 0.426584
v -0.414695 0.287702 0.426584
v 0.427809 0.701001 0.499460
v -0.414695 0.284953 0.442172
v 0.427809 0.698252 0.515048
v 0.427809 0.284953 0.442172
v -0.414695 0.698252 0.515048
v 0.427809 0.672115 -0.630810
v 0.427809 0.282689 -0.423363
v 0.427809 0.664177 -0.644504
v 0.427809 0.290628 -0.409669
v -0.414695 0.664177 -0.644504
v -0.414695 0.290628 -0.409669
v -0.414695 0.282689 -0.423363
v -0.414695 0.672115 -0.630810
v -0.414695 0.654272 0.636867
v 0.427809 0.290823 0.427029
v -0.414695 0.290823 0.427029
v 0.427809 0.654272 0.636867
v -0.414695 0.282909 0.440737
v 0.427809 0.646358 0.650575
v 0.427809 0.282909 0.440737
v -0.414695 0.646358 0.650575
v 0.427809 0.576890 -0.749237
v 0.427809 0.281900 -0.421110
v 0.427809 0.564747 -0.759391
v 0.427809 0.294044 -0.410956
v -0.414695 0.564747 -0.759391
v -0.414695 0.294044 -0.410956
v -0.414695 0.281900 -0.421109
v -0.414695 0.576890 -0.749237
v -0.414695 0.563365 0.750005
v 0.427809 0.293604 0.428515
v -0.414695 0.293604 0.428515
v 0.427809 0.563365 0.750005
v -0.414695 0.281479 0.438689
v 0.427809 0.551240 0.760180
v 0.427809 0.281479 0.438689
v -0.414695 0.551240 0.760180
v 0.427809 0.446904 -0.827953
v 0.427809 0.281930 -0.418722
v 0.427809 0.432020 -0.833341
v 0.427809 0.296814 -0.413334
v -0.414695 0.432020 -0.833341
v -0.414695 0.296814 -0.413334
v -0.414695 0.281930 -0.418722
v -0.414695 0.446904 -0.827953
v -0.414695 0.439246 0.825228
v 0.427809 0.295709 0.430862
v -0.414695 0.295709 0.430862
v 0.427809 0.439246 0.825228
v -0.414695 0.280835 0.436276
v 0.427809 0.424372 0.830642
v 0.427809 0.280835 0.436276
v -0.414695 0.424372 0.830642
vn 1.0000 -0.0000 -0.0000
vn -0.0000 1.0000 -0.0017
vn -0.0000 0.0017 1.0000
vn -0.0000 -1.0000 0.0017
vn -1.0000 -0.0000 -0.0000
vn -0.0000 -1.0000 -0.0000
vn -0.0000 -0.0000 -1.0000
vn -0.0000 1.0000 -0.0000
vn -0.0000 -0.0000 1.0000
vn -0.0000 0.5950 0.8038
vn -0.0000 0.6377 0.7703
vn -0.0000 0.5825 -0.8128
vn -0.0000 0.6479 -0.7617
vn -0.0000 0.9391 -0.3437
vn -0.0000 0.3436 0.9391
vn -0.0000 -0.9391 0.3437
vn -0.0000 -0.9397 -0.3420
vn -0.0000 0.3420 -0.9397
vn -0.0000 0.9397 0.3420
vn -0.0000 0.7649 -0.6441
vn -0.0000 0.6441 0.7649
vn -0.0000 -0.7649 0.6441
vn -0.0000 -0.7660 -0.6428
vn -0.0000 0.6428 -0.7661
vn -0.0000 0.7660 0.6428
vn -0.0000 0.4985 -0.8669
vn -0.0000 0.8669 0.4985
vn -0.0000 -0.4985 0.8669
vn -0.0000 -0.5000 -0.8660
vn -0.0000 0.8660 -0.5000
vn -0.0000 0.5000 0.8660
vn -0.0000 0.1719 -0.9851
vn -0.0000 0.9851 0.1720
vn -0.0000 -0.1719 0.9851
vn -0.0000 -0.1736 -0.9848
vn -0.0000 0.9848 -0.1737
vn -0.0000 0.1736 0.9848
vn -0.0000 -0.1754 -0.9845
vn -0.0000 0.9845 -0.1753
vn -0.0000 0.1754 0.9845
vn -0.0000 0.1736 -0.9848
vn -0.0000 0.9848 0.1736
vn -0.0000 -0.1736 0.9848
vn -0.0000 -0.5015 -0.8652
vn -0.0000 0.8652 -0.5015
vn -0.0000 0.5015 0.8652
vn -0.0000 0.5000 -0.8660
vn -0.0000 0.8660 0.5000
vn -0.0000 -0.5000 0.8660
vn -0.0000 -0.7672 -0.6415
vn -0.0000 0.6415 -0.7671
vn -0.0000 0.7672 0.6414
vn -0.0000 0.7660 -0.6428
vn -0.0000 0.6428 0.7660
vn -0.0000 -0.7660 0.6428
vn -0.0000 -0.9403 -0.3404
vn -0.0000 0.3404 -0.9403
vn -0.0000 0.9403 0.3404
vn -0.0000 0.9397 -0.3420
vn -0.0000 0.3420 0.9397
vn -0.0000 -0.9397 0.3420
s 0
f 1//1 2//1 3//1
f 2//1 1//1 4//1
f 2//2 5//2 3//2
f 5//3 1//3 3//3
f 1//4 6//4 4//4
f 5//2 2//2 7//2
f 1//3 5//3 8//3
f 6//4 1//4 8//4
f 6//5 5//5 7//5
f 5//5 6//5 8//5
f 9//6 10//6 11//6
f 10//6 9//6 12//6
f 13//5 9//5 11//5
f 9//7 14//7 12//7
f 12//1 15//1 10//1
f 9//5 13//5 16//5
f 14//7 9//7 16//7
f 15//1 12//1 14//1
f 13//8 14//8 16//8
f 14//8 13//8 15//8
f 17//8 18//8 19//8
f 20//8 19//8 18//8
f 18//5 17//5 21//5
f 19//7 22//7 17//7
f 20//1 23//1 19//1
f 20//9 18//9 24//9
f 25//5 21//5 17//5
f 18//5 21//5 26//5
f 27//7 17//7 22//7
f 22//7 19//7 28//7
f 29//1 19//1 23//1
f 20//1 24//1 23//1
f 26//9 24//9 18//9
f 25//5 26//5 21//5
f 30//5 25//5 17//5
f 17//5 27//5 31//5
f 32//7 27//7 22//7
f 33//7 28//7 19//7
f 34//1 19//1 29//1
f 29//1 23//1 24//1
f 35//8 24//8 26//8
f 26//10 36//10 25//10
f 36//8 30//8 25//8
f 31//5 30//5 17//5
f 30//5 31//5 27//5
f 37//7 27//7 32//7
f 32//7 22//7 38//7
f 39//7 28//7 33//7
f 19//1 40//1 33//1
f 40//1 19//1 34//1
f 41//8 29//8 34//8
f 29//11 35//11 24//11
f 42//8 35//8 26//8
f 36//10 26//10 43//10
f 30//8 36//8 44//8
f 30//12 45//12 27//12
f 27//7 37//7 33//7
f 46//7 28//7 39//7
f 37//7 39//7 33//7
f 34//1 33//1 40//1
f 29//8 41//8 47//8
f 33//13 41//13 34//13
f 35//11 29//11 47//11
f 35//6 42//6 48//6
f 49//8 42//8 26//8
f 43//8 49//8 26//8
f 43//5 36//5 45//5
f 44//5 45//5 36//5
f 45//12 30//12 44//12
f 45//8 27//8 33//8
f 41//1 47//1 50//1
f 41//13 33//13 50//13
f 35//1 50//1 47//1
f 48//6 42//6 51//6
f 49//6 48//6 42//6
f 52//6 35//6 48//6
f 49//6 51//6 42//6
f 43//6 45//6 49//6
f 53//8 45//8 33//8
f 50//8 54//8 33//8
f 50//6 35//6 54//6
f 48//7 51//7 55//7
f 48//6 49//6 51//6
f 54//6 35//6 52//6
f 48//5 55//5 52//5
f 51//8 49//8 53//8
f 53//6 49//6 45//6
f 54//8 53//8 33//8
f 56//7 55//7 51//7
f 57//6 54//6 52//6
f 54//6 52//6 53//6
f 58//5 52//5 55//5
f 57//8 51//8 53//8
f 54//6 57//6 53//6
f 56//6 59//6 55//6
f 56//1 51//1 59//1
f 57//9 52//9 59//9
f 52//6 57//6 53//6
f 58//9 59//9 52//9
f 58//6 55//6 59//6
f 57//1 59//1 51//1
f 22//9 46//9 28//9
f 46//9 22//9 37//9
f 37//9 22//9 38//9
f 37//9 39//9 46//9
f 37//9 38//9 32//9
f 60//1 61//1 62//1
f 61//1 60//1 63//1
f 61//14 64//14 62//14
f 64//15 60//15 62//15
f 60//16 65//16 63//16
f 64//14 61//14 66//14
f 60//15 64//15 67//15
f 65//16 60//16 67//16
f 65//5 64//5 66//5
f 64//5 65//5 67//5
f 68//17 69//17 70//17
f 69//17 68//17 71//17
f 72//5 68//5 70//5
f 68//18 73//18 71//18
f 71//1 74//1 69//1
f 68//5 72//5 75//5
f 73//18 68//18 75//18
f 74//1 71//1 73//1
f 72//19 73//19 75//19
f 73//19 72//19 74//19
f 76//1 77//1 78//1
f 77//1 76//1 79//1
f 77//20 80//20 78//20
f 80//21 76//21 78//21
f 76//22 81//22 79//22
f 80//20 77//20 82//20
f 76//21 80//21 83//21
f 81//22 76//22 83//22
f 81//5 80//5 82//5
f 80//5 81//5 83//5
f 84//23 85//23 86//23
f 85//23 84//23 87//23
f 88//5 84//5 86//5
f 84//24 89//24 87//24
f 87//1 90//1 85//1
f 84//5 88//5 91//5
f 89//24 84//24 91//24
f 90//1 87//1 89//1
f 88//25 89//25 91//25
f 89//25 88//25 90//25
f 92//1 93//1 94//1
f 93//1 92//1 95//1
f 93//26 96//26 94//26
f 96//27 92//27 94//27
f 92//28 97//28 95//28
f 96//26 93//26 98//26
f 92//27 96//27 99//27
f 97//28 92//28 99//28
f 97//5 96//5 98//5
f 96//5 97//5 99//5
f 100//29 101//29 102//29
f 101//29 100//29 103//29
f 104//5 100//5 102//5
f 100//30 105//30 103//30
f 103//1 106//1 101//1
f 100//5 104//5 107//5
f 105//30 100//30 107//30
f 106//1 103//1 105//1
f 104//31 105//31 107//31
f 105//31 104//31 106//31
f 108//1 109//1 110//1
f 109//1 108//1 111//1
f 109//32 112//32 110//32
f 112//33 108//33 110//33
f 108//34 113//34 111//34
f 112//32 109//32 114//32
f 108//33 112//33 115//33
f 113//34 108//34 115//34
f 113//5 112//5 114//5
f 112//5 113//5 115//5
f 116//35 117//35 118//35
f 117//35 116//35 119//35
f 120//5 116//5 118//5
f 116//36 121//36 119//36
f 119//1 122//1 117//1
f 116//5 120//5 123//5
f 121//36 116//36 123//36
f 122//1 119//1 121//1
f 120//37 121//37 123//37
f 121//37 120//37 122//37
f 124//1 125//1 126//1
f 125//1 124//1 127//1
f 125//38 128//38 126//38
f 128//39 124//39 126//39
f 124//40 129//40 127//40
f 128//38 125//38 130//38
f 124//39 128//39 131//39
f 129//40 124//40 131//40
f 129//5 128//5 130//5
f 128//5 129//5 131//5
f 132//41 133//41 134//41
f 133//41 132//41 135//41
f 136//5 132//5 134//5
f 132//42 137//42 135//42
f 135//1 138//1 133//1
f 132//5 136//5 139//5
f 137//42 132//42 139//42
f 138//1 135//1 137//1
f 136//43 137//43 139//43
f 137//43 136//43 138//43
f 140//1 141//1 142//1
f 141//1 140//1 143//1
f 141//44 144//44 142//44
f 144//45 140//45 142//45
f 140//46 145//46 143//46
f 144//44 141//44 146//44
f 140//45 144//45 147//45
f 145//46 140//46 147//46
f 145//5 144//5 146//5
f 144//5 145//5 147//5
f 148//47 149//47 150//47
f 149//47 148//47 151//47
f 152//5 148//5 150//5
f 148//48 153//48 151//48
f 151//1 154//1 149//1
f 148//5 152//5 155//5
f 153//48 148//48 155//48
f 154//1 151//1 153//1
f 152//49 153//49 155//49
f 153//49 152//49 154//49
f 156//1 157//1 158//1
f 157//1 156//1 159//1
f 157//50 160//50 158//50
f 160//51 156//51 158//51
f 156//52 161//52 159//52
f 160//50 157//50 162//50
f 156//51 160//51 163//51
f 161//52 156//52 163//52
f 161//5 160//5 162//5
f 160//5 161//5 163//5
f 164//53 165//53 166//53
f 165//53 164//53 167//53
f 168//5 164//5 166//5
f 164//54 169//54 167//54
f 167//1 170//1 165//1
f 164//5 168//5 171//5
f 169//54 164//54 171//54
f 170//1 167//1 169//1
f 168//55 169//55 171//55
f 169//55 168//55 170//55
f 172//1 173//1 174//1
f 173//1 172//1 175//1
f 173//56 176//56 174//56
f 176//57 172//57 174//57
f 172//58 177//58 175//58
f 176//56 173//56 178//56
f 172//57 176//57 179//57
f 177//58 172//58 179//58
f 177//5 176//5 178//5
f 176//5 177//5 179//5
f 180//59 181//59 182//59
f 181//59 180//59 183//59
f 184//5 180//5 182//5
f 180//60 185//60 183//60
f 183//1 186//1 181//1
f 180//5 184//5 187//5
f 185//60 180//60 187//60
f 186//1 183//1 185//1
f 184//61 185//61 187//61
f 185//61 184//61 186//61
