mtllib right_direction_close.mtl
o closed.473
v 0.427809 0.279538 0.017464
v 0.427809 0.294597 -0.423512
v 0.427809 0.295367 0.017437
v 0.427809 0.278768 -0.423484
v -0.414695 0.295367 0.017437
v -0.414695 0.278768 -0.423484
v -0.414695 0.294597 -0.423512
v -0.414695 0.279538 0.017464
v -0.414695 0.279117 0.017852
v 0.427809 0.279116 0.437527
v -0.414695 0.279116 0.437527
v 0.427809 0.279117 0.017852
v -0.414695 0.294945 0.437527
v 0.427809 0.294945 0.017851
v 0.427809 0.294945 0.437527
v -0.414695 0.294945 0.017852
v 0.443638 -0.375444 0.446425
v 0.443638 -0.375444 -0.427736
v -0.430524 -0.375444 0.446425
v -0.430524 -0.375444 -0.427736
v 0.443638 -0.057738 -0.206816
v 0.022258 -0.263924 0.446425
v -0.430524 -0.028133 -0.213500
v -0.430524 0.285979 -0.427736
v 0.443638 -0.057738 -0.173312
v 0.443638 0.285979 -0.427736
v 0.443638 0.285979 0.446425
v -0.026092 -0.263924 0.446425
v -0.430524 -0.028133 -0.167677
v 0.443638 -0.057738 0.200123
v 0.443638 -0.057738 0.222429
v 0.072542 -0.027977 0.446425
v -0.430524 0.285979 0.446425
v -0.430524 -0.028133 0.179241
v -0.426656 0.285979 -0.427736
v 0.439770 -0.057738 -0.173312
v -0.001917 0.113204 0.446425
v 0.022258 -0.027977 0.446425
v -0.082177 -0.027977 0.446425
v -0.430524 -0.028133 0.209209
v -0.426656 -0.028133 0.179241
v -0.414695 0.285979 -0.427736
v 0.439770 0.285979 -0.427736
v 0.439770 -0.057738 0.200123
v 0.439770 0.285979 0.446425
v -0.026092 -0.027977 0.446425
v -0.426656 -0.028133 -0.167677
v -0.414695 0.285979 -0.411908
v 0.427809 0.285979 -0.427736
v -0.426656 0.285979 0.446425
v 0.427809 0.285979 -0.411908
v -0.414695 0.285979 0.430596
v 0.427809 0.285979 0.446425
v -0.414695 0.285979 0.446425
v -0.414695 -0.321293 -0.411908
v 0.427809 -0.321293 -0.411908
v 0.427809 0.285979 0.430596
v -0.414695 -0.321293 0.430596
v 0.427809 -0.321293 0.430596
vn 1.0000 -0.0000 -0.0000
vn -0.0000 1.0000 -0.0017
vn -0.0000 0.0017 1.0000
vn -0.0000 -1.0000 0.0017
vn -1.0000 -0.0000 -0.0000
vn -0.0000 -1.0000 -0.0000
vn -0.0000 -0.0000 -1.0000
vn -0.0000 1.0000 -0.0000
vn -0.0000 -0.0000 1.0000
vn -0.0000 0.5950 0.8038
vn -0.0000 0.6377 0.7703
vn -0.0000 0.5825 -0.8128
vn -0.0000 0.6479 -0.7617
s 0
usemtl Default_OBJ.1553
f 1//1 2//1 3//1
f 2//1 1//1 4//1
f 2//2 5//2 3//2
f 5//3 1//3 3//3
f 1//4 6//4 4//4
f 5//2 2//2 7//2
f 1//3 5//3 8//3
f 6//4 1//4 8//4
f 6//5 5//5 7//5
f 5//5 6//5 8//5
f 9//6 10//6 11//6
f 10//6 9//6 12//6
f 13//5 9//5 11//5
f 9//7 14//7 12//7
f 12//1 15//1 10//1
f 9//5 13//5 16//5
f 14//7 9//7 16//7
f 15//1 12//1 14//1
f 13//8 14//8 16//8
f 14//8 13//8 15//8
f 17//8 18//8 19//8
f 20//8 19//8 18//8
f 18//5 17//5 21//5
f 19//7 22//7 17//7
f 20//1 23//1 19//1
f 20//9 18//9 24//9
f 25//5 21//5 17//5
f 18//5 21//5 26//5
f 27//7 17//7 22//7
f 22//7 19//7 28//7
f 29//1 19//1 23//1
f 20//1 24//1 23//1
f 26//9 24//9 18//9
f 25//5 26//5 21//5
f 30//5 25//5 17//5
f 17//5 27//5 31//5
f 32//7 27//7 22//7
f 33//7 28//7 19//7
f 34//1 19//1 29//1
f 29//1 23//1 24//1
f 35//8 24//8 26//8
f 26//10 36//10 25//10
f 36//8 30//8 25//8
f 31//5 30//5 17//5
f 30//5 31//5 27//5
f 37//7 27//7 32//7
f 32//7 22//7 38//7
f 39//7 28//7 33//7
f 19//1 40//1 33//1
f 40//1 19//1 34//1
f 41//8 29//8 34//8
f 29//11 35//11 24//11
f 42//8 35//8 26//8
f 36//10 26//10 43//10
f 30//8 36//8 44//8
f 30//12 45//12 27//12
f 27//7 37//7 33//7
f 46//7 28//7 39//7
f 37//7 39//7 33//7
f 34//1 33//1 40//1
f 29//8 41//8 47//8
f 33//13 41//13 34//13
f 35//11 29//11 47//11
f 35//6 42//6 48//6
f 49//8 42//8 26//8
f 43//8 49//8 26//8
f 43//5 36//5 45//5
f 44//5 45//5 36//5
f 45//12 30//12 44//12
f 45//8 27//8 33//8
f 41//1 47//1 50//1
f 41//13 33//13 50//13
f 35//1 50//1 47//1
f 48//6 42//6 51//6
f 49//6 48//6 42//6
f 52//6 35//6 48//6
f 49//6 51//6 42//6
f 43//6 45//6 49//6
f 53//8 45//8 33//8
f 50//8 54//8 33//8
f 50//6 35//6 54//6
f 48//7 51//7 55//7
f 48//6 49//6 51//6
f 54//6 35//6 52//6
f 48//5 55//5 52//5
f 51//8 49//8 53//8
f 53//6 49//6 45//6
f 54//8 53//8 33//8
f 56//7 55//7 51//7
f 57//6 54//6 52//6
f 54//6 52//6 53//6
f 58//5 52//5 55//5
f 57//8 51//8 53//8
f 54//6 57//6 53//6
f 56//6 59//6 55//6
f 56//1 51//1 59//1
f 57//9 52//9 59//9
f 52//6 57//6 53//6
f 58//9 59//9 52//9
f 58//6 55//6 59//6
f 57//1 59//1 51//1
f 22//9 46//9 28//9
f 46//9 22//9 37//9
f 37//9 22//9 38//9
f 37//9 39//9 46//9
f 37//9 38//9 32//9
