# SSTK version 0.8.0
# 219
mtllib original-219.mtl
o #ID1263
v -0.067335 0.401922 0.419998
v -0.067185 0.400888 0.419276
v -0.067185 0.400954 0.420079
v -0.067335 0.401856 0.419196
v -0.067335 0.401856 0.419196
v -0.067335 0.401922 0.419998
v -0.067185 0.400888 0.419276
v -0.067185 0.400954 0.420079
v -0.071917 0.400954 0.420079
v -0.067185 0.400888 0.419276
v -0.071917 0.400888 0.419276
v -0.067185 0.400954 0.420079
v -0.067185 0.400954 0.420079
v -0.071917 0.400954 0.420079
v -0.067185 0.400888 0.419276
v -0.071917 0.400888 0.419276
v -0.067771 0.402649 0.419938
v -0.067771 0.402583 0.419136
v -0.067771 0.402583 0.419136
v -0.067771 0.402649 0.419938
v -0.071622 0.401818 0.419199
v -0.071917 0.400954 0.420079
v -0.071917 0.400888 0.419276
v -0.071622 0.401884 0.420002
v -0.071622 0.401884 0.420002
v -0.071622 0.401818 0.419199
v -0.071917 0.400954 0.420079
v -0.071917 0.400888 0.419276
v -0.068088 0.402848 0.419114
v -0.068088 0.402914 0.419916
v -0.068088 0.402914 0.419916
v -0.068088 0.402848 0.419114
v -0.071062 0.402552 0.419139
v -0.071062 0.402618 0.419941
v -0.071062 0.402618 0.419941
v -0.071062 0.402552 0.419139
v -0.068088 0.402914 0.419916
v -0.068461 0.403037 0.419099
v -0.068088 0.402848 0.419114
v -0.068461 0.403103 0.419901
v -0.068461 0.403103 0.419901
v -0.068088 0.402914 0.419916
v -0.068461 0.403037 0.419099
v -0.068088 0.402848 0.419114
v -0.070293 0.403096 0.419901
v -0.070293 0.403029 0.419099
v -0.070293 0.403096 0.419901
v -0.070293 0.403029 0.419099
v -0.069376 0.403189 0.419086
v -0.069376 0.403255 0.419888
v -0.069376 0.403255 0.419888
v -0.069376 0.403189 0.419086
vn -0.939898346225697 -0.3402912845783561 0.028159197471024328
vn -0.9881612264212074 -0.15289640914101474 0.012652219944295932
vn 0.939898346225697 0.3402912845783561 -0.028159197471024328
vn 0.9881612264212074 0.15289640914101474 -0.012652219944295932
vn 0 0.9965936798815838 -0.08246840134308064
vn 0 -0.9965936798815838 0.08246840134308064
vn -0.7594693085825766 -0.6483271759317003 0.05364925227371947
vn 0.7594693085825766 0.6483271759317003 -0.05364925227371947
vn 0.8866196198691573 -0.46092393014262817 0.038141582098081266
vn 0.953404451977555 -0.30066745895623787 0.02488031499352224
vn -0.8866196198691573 0.46092393014262817 -0.038141582098081266
vn -0.953404451977555 0.30066745895623787 -0.02488031499352224
vn -0.6428480091641872 -0.7633845379335895 0.06317028065127786
vn 0.6428480091641872 0.7633845379335895 -0.06317028065127786
vn 0.6710119638193053 -0.738920917409258 0.06114590931877544
vn -0.6710119638193053 0.738920917409258 -0.06114590931877544
vn -0.45376921036155543 -0.8880838047463598 0.07348917930606903
vn -0.310988053798543 -0.9471764068857947 0.07837910839955972
vn 0.310988053798543 0.9471764068857947 -0.07837910839955972
vn 0.45376921036155543 0.8880838047463598 -0.07348917930606903
vn 0.3542827755472428 -0.9319529594656624 0.0771193639349772
vn -0.3542827755472428 0.9319529594656624 -0.0771193639349772
vn 0.0037667142233445885 -0.9965866099531527 0.08246781630455684
vn -0.0037667142233445885 0.9965866099531527 -0.08246781630455684
usemtl material_0_0
f 1//1 2//2 3//2
f 2//2 1//1 4//1
f 5//3 6//3 7//4
f 8//4 7//4 6//3
f 9//5 10//5 11//5
f 10//5 9//5 12//5
f 13//6 14//6 15//6
f 16//6 15//6 14//6
f 17//7 4//1 1//1
f 4//1 17//7 18//7
f 19//8 20//8 5//3
f 6//3 5//3 20//8
f 21//9 22//10 23//10
f 22//10 21//9 24//9
f 25//11 26//11 27//12
f 28//12 27//12 26//11
f 17//7 29//13 18//7
f 29//13 17//7 30//13
f 31//14 20//8 32//14
f 19//8 32//14 20//8
f 33//15 24//9 21//9
f 24//9 33//15 34//15
f 35//16 36//16 25//11
f 26//11 25//11 36//16
f 37//17 38//18 39//17
f 38//18 37//17 40//18
f 41//19 42//20 43//19
f 44//20 43//19 42//20
f 45//21 33//15 46//21
f 33//15 45//21 34//15
f 35//16 47//22 36//16
f 48//22 36//16 47//22
f 40//18 49//23 38//18
f 49//23 40//18 50//23
f 51//24 41//19 52//24
f 43//19 52//24 41//19
f 50//23 46//21 49//23
f 46//21 50//23 45//21
f 47//22 51//24 48//22
f 52//24 48//22 51//24
