# SSTK version 0.8.0
# 90
mtllib original-90.mtl
o instance_11/Component_250/ID517#ID517
v -0.035057 0.506183 0.409623
v -0.035699 0.505762 0.408608
v -0.035699 0.505848 0.409650
v -0.035057 0.506097 0.408580
v -0.036340 0.505513 0.409678
v -0.035699 0.505934 0.410693
v -0.029457 0.495438 0.409462
v -0.036340 0.505427 0.408635
v -0.035057 0.506269 0.410665
v -0.029457 0.495524 0.410505
v -0.030099 0.495103 0.409490
v -0.030741 0.494768 0.409517
v -0.036340 0.505599 0.410721
v -0.029457 0.495610 0.411547
v -0.023858 0.484865 0.411387
v -0.024500 0.484444 0.410372
v -0.030741 0.494854 0.410560
v -0.030741 0.494941 0.411603
v -0.030099 0.495276 0.411575
v -0.023858 0.484779 0.410344
v -0.025141 0.484196 0.411442
v -0.024500 0.484617 0.412457
v -0.023858 0.484952 0.412429
v -0.025141 0.484109 0.410399
v -0.024500 0.484531 0.411414
v -0.025141 0.484282 0.412485
vn 0.29846579912238225 0.9511692690429409 -0.07870951900853794
vn -0.3279772649153817 0.5659952554134857 -0.7563598908906054
vn -0.4638298839019722 0.8829065433310863 -0.07306075925307486
vn 0.24369630710351303 0.7290133127390444 -0.6396496695483823
vn -0.9544203213391879 0.2974491574386817 -0.024613999143165196
vn -0.327977264154159 0.682623184112412 0.6530363716594849
vn 0.6264430757238082 0.26854609886664293 -0.731745902387709
vn -0.7792809387480102 0.19525307036337824 -0.5954808620079184
vn 0.24369630772504872 0.8242396179035058 0.5111175617012796
vn 0.885924285026369 0.4622499307973822 -0.03825130949826823
vn 0 -0.08246840134844421 -0.9965936798811398
vn -0.6264430764850307 -0.3851740293024321 -0.677650381151593
vn -0.7792809381264747 0.2904793755278397 0.5552863692417433
vn 0.6264430764850307 0.3851740293024321 0.677650381151593
vn 0.9544203213391879 -0.2974491574386817 0.024613999143165196
vn 0.327977264154159 -0.682623184112412 -0.6530363716594849
vn -0.885924285026369 -0.4622499307973822 0.03825130949826823
vn -0.6264430757238082 -0.26854609886664293 0.731745902387709
vn 0 0.08246840134844421 0.9965936798811398
vn 0.7792809381264747 -0.2904793755278397 -0.5552863692417433
vn -0.29846579912238225 -0.9511692690429409 0.07870951900853794
vn 0.3279772649153817 -0.5659952554134857 0.7563598908906054
vn 0.7792809387480102 -0.19525307036337824 0.5954808620079184
vn -0.24369630772504872 -0.8242396179035058 -0.5111175617012796
vn 0.4638298839019722 -0.8829065433310863 0.07306075925307486
vn -0.24369630710351303 -0.7290133127390444 0.6396496695483823
usemtl material_0_0
f 1//1 2//2 3//3
f 4//4 2//2 1//1
f 2//2 5//5 3//3
f 1//1 3//3 6//6
f 4//4 1//1 7//7
f 4//4 7//7 2//2
f 2//2 8//8 5//5
f 6//6 3//3 5//5
f 1//1 6//6 9//9
f 7//7 1//1 10//10
f 2//2 7//7 11//11
f 8//8 2//2 12//12
f 12//12 5//5 8//8
f 6//6 5//5 13//13
f 6//6 14//14 9//9
f 1//1 9//9 14//14
f 1//1 14//14 10//10
f 7//7 10//10 15//15
f 7//7 16//16 11//11
f 2//2 11//11 12//12
f 12//12 17//17 5//5
f 5//5 18//18 13//13
f 13//13 18//18 6//6
f 6//6 19//19 14//14
f 15//15 10//10 14//14
f 20//20 7//7 15//15
f 7//7 20//20 16//16
f 11//11 16//16 12//12
f 12//12 21//21 17//17
f 5//5 17//17 18//18
f 6//6 18//18 19//19
f 19//19 22//22 14//14
f 15//15 14//14 23//23
f 15//15 16//16 20//20
f 12//12 16//16 24//24
f 12//12 24//24 21//21
f 21//21 18//18 17//17
f 18//18 22//22 19//19
f 14//14 22//22 23//23
f 23//23 22//22 15//15
f 15//15 25//25 16//16
f 16//16 21//21 24//24
f 21//21 26//26 18//18
f 18//18 26//26 22//22
f 15//15 22//22 25//25
f 25//25 21//21 16//16
f 22//22 26//26 21//21
f 22//22 21//21 25//25
