# SSTK version 0.8.0
# 175
mtllib original-175.mtl
o #ID1011
v -0.010475 0.546277 0.397878
v -0.012414 0.545230 0.398184
v -0.012414 0.546277 0.397878
v -0.010475 0.545230 0.398184
v -0.012414 0.548543 0.397215
v -0.013646 0.546277 0.397878
v -0.013646 0.548147 0.397331
v -0.013646 0.545230 0.398184
v -0.013646 0.540699 0.399510
v -0.013520 0.539718 0.399797
v -0.013362 0.539332 0.399910
v -0.013141 0.539017 0.400002
v -0.012856 0.538771 0.400074
v -0.012509 0.538596 0.400125
v -0.012414 0.540916 0.399446
v -0.012348 0.540256 0.399639
v -0.011624 0.538456 0.400166
v -0.012151 0.539817 0.399768
v -0.011801 0.539570 0.399840
v -0.011279 0.539488 0.399864
v -0.010980 0.538516 0.400148
v -0.010845 0.539551 0.399845
v -0.010475 0.538695 0.400096
v -0.010475 0.539742 0.399790
v -0.014969 0.545230 0.398184
v -0.014969 0.546277 0.397878
v -0.013646 0.545230 0.398184
v -0.013646 0.546277 0.397878
v -0.014969 0.545230 0.398184
v -0.014969 0.546277 0.397878
v -0.010475 0.539742 0.399790
v -0.010845 0.539551 0.399845
v -0.010475 0.538695 0.400096
v -0.010980 0.538516 0.400148
v -0.011279 0.539488 0.399864
v -0.011624 0.538456 0.400166
v -0.011801 0.539570 0.399840
v -0.012151 0.539817 0.399768
v -0.012348 0.540256 0.399639
v -0.012414 0.546277 0.397878
v -0.012414 0.548543 0.397215
v -0.012414 0.545230 0.398184
v -0.012509 0.538596 0.400125
v -0.012414 0.540916 0.399446
v -0.012856 0.538771 0.400074
v -0.013141 0.539017 0.400002
v -0.013362 0.539332 0.399910
v -0.013520 0.539718 0.399797
v -0.013646 0.540699 0.399510
v -0.013646 0.548147 0.397331
v -0.010475 0.545230 0.398184
v -0.010475 0.546277 0.397878
v -0.010475 0.538921 0.400868
v -0.010980 0.538516 0.400148
v -0.010475 0.538695 0.400096
v -0.010980 0.538741 0.400921
v -0.010980 0.538741 0.400921
v -0.010475 0.538921 0.400868
v -0.010980 0.538516 0.400148
v -0.010475 0.538695 0.400096
v -0.011624 0.538456 0.400166
v -0.011624 0.538682 0.400938
v -0.011624 0.538682 0.400938
v -0.011624 0.538456 0.400166
v -0.012509 0.538596 0.400125
v -0.012509 0.538822 0.400897
v -0.012509 0.538822 0.400897
v -0.012509 0.538596 0.400125
v -0.012856 0.538997 0.400846
v -0.012856 0.538771 0.400074
v -0.012856 0.538997 0.400846
v -0.012856 0.538771 0.400074
v -0.013141 0.539017 0.400002
v -0.013141 0.539242 0.400774
v -0.013141 0.539242 0.400774
v -0.013141 0.539017 0.400002
v -0.013362 0.539332 0.399910
v -0.013362 0.539558 0.400682
v -0.013362 0.539558 0.400682
v -0.013362 0.539332 0.399910
v -0.013520 0.539944 0.400569
v -0.013520 0.539718 0.399797
v -0.013520 0.539718 0.399797
v -0.013520 0.539944 0.400569
v -0.013646 0.540699 0.399510
v -0.013646 0.540925 0.400282
v -0.013646 0.540925 0.400282
v -0.013646 0.540699 0.399510
v -0.013646 0.545456 0.398957
v -0.013646 0.545230 0.398184
v -0.013646 0.545230 0.398184
v -0.013646 0.545456 0.398957
v -0.013646 0.545456 0.398957
v -0.014969 0.545230 0.398184
v -0.013646 0.545230 0.398184
v -0.014969 0.545456 0.398957
v -0.014969 0.545456 0.398957
v -0.013646 0.545456 0.398957
v -0.014969 0.545230 0.398184
v -0.013646 0.545230 0.398184
v -0.014969 0.546503 0.398650
v -0.014969 0.545230 0.398184
v -0.014969 0.545456 0.398957
v -0.014969 0.546277 0.397878
v -0.014969 0.546277 0.397878
v -0.014969 0.546503 0.398650
v -0.014969 0.545230 0.398184
v -0.014969 0.545456 0.398957
v -0.014969 0.546503 0.398650
v -0.013646 0.546277 0.397878
v -0.014969 0.546277 0.397878
v -0.013646 0.546503 0.398650
v -0.013646 0.546503 0.398650
v -0.014969 0.546503 0.398650
v -0.013646 0.546277 0.397878
v -0.014969 0.546277 0.397878
v -0.013646 0.546503 0.398650
v -0.013646 0.548147 0.397331
v -0.013646 0.546277 0.397878
v -0.013646 0.548373 0.398104
v -0.013646 0.548373 0.398104
v -0.013646 0.546503 0.398650
v -0.013646 0.548147 0.397331
v -0.013646 0.546277 0.397878
v -0.013646 0.548373 0.398104
v -0.012414 0.548543 0.397215
v -0.013646 0.548147 0.397331
v -0.012414 0.548769 0.397988
v -0.012414 0.548769 0.397988
v -0.013646 0.548373 0.398104
v -0.012414 0.548543 0.397215
v -0.013646 0.548147 0.397331
v -0.012414 0.548543 0.397215
v -0.012414 0.546503 0.398650
v -0.012414 0.546277 0.397878
v -0.012414 0.548769 0.397988
v -0.012414 0.548769 0.397988
v -0.012414 0.548543 0.397215
v -0.012414 0.546503 0.398650
v -0.012414 0.546277 0.397878
v -0.012414 0.546503 0.398650
v -0.010475 0.546277 0.397878
v -0.012414 0.546277 0.397878
v -0.010475 0.546503 0.398650
v -0.010475 0.546503 0.398650
v -0.012414 0.546503 0.398650
v -0.010475 0.546277 0.397878
v -0.012414 0.546277 0.397878
v -0.010475 0.546277 0.397878
v -0.010475 0.545456 0.398957
v -0.010475 0.545230 0.398184
v -0.010475 0.546503 0.398650
v -0.010475 0.546503 0.398650
v -0.010475 0.546277 0.397878
v -0.010475 0.545456 0.398957
v -0.010475 0.545230 0.398184
v -0.010475 0.545456 0.398957
v -0.012414 0.545230 0.398184
v -0.010475 0.545230 0.398184
v -0.012414 0.545456 0.398957
v -0.012414 0.545456 0.398957
v -0.010475 0.545456 0.398957
v -0.012414 0.545230 0.398184
v -0.010475 0.545230 0.398184
v -0.012414 0.540916 0.399446
v -0.012414 0.545456 0.398957
v -0.012414 0.541142 0.400219
v -0.012414 0.545230 0.398184
v -0.012414 0.545230 0.398184
v -0.012414 0.540916 0.399446
v -0.012414 0.545456 0.398957
v -0.012414 0.541142 0.400219
v -0.012348 0.540256 0.399639
v -0.012348 0.540482 0.400412
v -0.012348 0.540256 0.399639
v -0.012348 0.540482 0.400412
v -0.012151 0.540043 0.400540
v -0.012151 0.539817 0.399768
v -0.012151 0.540043 0.400540
v -0.012151 0.539817 0.399768
v -0.012151 0.540043 0.400540
v -0.011801 0.539570 0.399840
v -0.012151 0.539817 0.399768
v -0.011801 0.539796 0.400612
v -0.011801 0.539796 0.400612
v -0.012151 0.540043 0.400540
v -0.011801 0.539570 0.399840
v -0.012151 0.539817 0.399768
v -0.011279 0.539488 0.399864
v -0.011279 0.539714 0.400637
v -0.011279 0.539714 0.400637
v -0.011279 0.539488 0.399864
v -0.010845 0.539551 0.399845
v -0.010845 0.539777 0.400618
v -0.010845 0.539777 0.400618
v -0.010845 0.539551 0.399845
v -0.010475 0.539742 0.399790
v -0.010475 0.539968 0.400562
v -0.010475 0.539968 0.400562
v -0.010475 0.539742 0.399790
v -0.010475 0.539742 0.399790
v -0.010475 0.538921 0.400868
v -0.010475 0.538695 0.400096
v -0.010475 0.539968 0.400562
v -0.010475 0.539968 0.400562
v -0.010475 0.539742 0.399790
v -0.010475 0.538921 0.400868
v -0.010475 0.538695 0.400096
v -0.013520 0.539944 0.400569
v -0.013646 0.545456 0.398957
v -0.013646 0.540925 0.400282
v -0.012509 0.538822 0.400897
v -0.012348 0.540482 0.400412
v -0.012414 0.541142 0.400219
v -0.011624 0.538682 0.400938
v -0.012151 0.540043 0.400540
v -0.011801 0.539796 0.400612
v -0.011279 0.539714 0.400637
v -0.010980 0.538741 0.400921
v -0.010845 0.539777 0.400618
v -0.010475 0.538921 0.400868
v -0.010475 0.539968 0.400562
v -0.012414 0.545456 0.398957
v -0.012414 0.546503 0.398650
v -0.010475 0.546503 0.398650
v -0.010475 0.545456 0.398957
v -0.014969 0.545456 0.398957
v -0.013646 0.546503 0.398650
v -0.014969 0.546503 0.398650
v -0.013646 0.548373 0.398104
v -0.012414 0.548769 0.397988
v -0.013362 0.539558 0.400682
v -0.013141 0.539242 0.400774
v -0.012856 0.538997 0.400846
v -0.012414 0.546503 0.398650
v -0.012414 0.541142 0.400219
v -0.012414 0.548769 0.397988
v -0.012509 0.538822 0.400897
v -0.012856 0.538997 0.400846
v -0.013141 0.539242 0.400774
v -0.013362 0.539558 0.400682
v -0.013520 0.539944 0.400569
v -0.013646 0.545456 0.398957
v -0.013646 0.548373 0.398104
v -0.013646 0.546503 0.398650
v -0.014969 0.545456 0.398957
v -0.014969 0.546503 0.398650
v -0.010475 0.545456 0.398957
v -0.012414 0.545456 0.398957
v -0.010475 0.546503 0.398650
v -0.010475 0.539968 0.400562
v -0.010475 0.538921 0.400868
v -0.010845 0.539777 0.400618
v -0.010980 0.538741 0.400921
v -0.011279 0.539714 0.400637
v -0.011624 0.538682 0.400938
v -0.011801 0.539796 0.400612
v -0.012151 0.540043 0.400540
v -0.012348 0.540482 0.400412
v -0.013646 0.540925 0.400282
vn 0 -0.28075312657542256 -0.9597800174613581
vn 0 0.28075312657542256 0.9597800174613581
vn 0.346955301866279 -0.9001600813034898 0.2633132099507617
vn 0.22370720013438378 -0.9354557319565014 0.27363783027527616
vn -0.22370720013438378 0.9354557319565014 -0.27363783027527616
vn -0.346955301866279 0.9001600813034898 -0.2633132099507617
vn -0.03366489312645735 -0.9592359919200553 0.2805939892013581
vn 0.03366489312645735 0.9592359919200553 -0.2805939892013581
vn -0.3186283020207958 -0.9097560352558128 0.2661202011628742
vn 0.3186283020207958 0.9097560352558128 -0.2661202011628742
vn -0.5717139296449355 -0.7874544282639285 0.23034475478611366
vn 0.5717139296449355 0.7874544282639285 -0.23034475478611366
vn -0.7552228139321537 -0.6291052365903685 0.18402473369353411
vn 0.7552228139321537 0.6291052365903685 -0.18402473369353411
vn -0.8855730069276936 -0.44581802411844035 0.13040988755525015
vn 0.8855730069276936 0.44581802411844035 -0.13040988755525015
vn -0.9692806092440779 -0.23606511069195 0.06905334211627022
vn 0.9692806092440779 0.23606511069195 -0.06905334211627022
vn -0.9981120504592769 -0.058949050544843826 0.017243670370293014
vn 0.9981120504592769 0.058949050544843826 -0.017243670370293014
vn -1 0 0
vn 1 0 0
vn 0 -0.959780017461358 0.28075312657542256
vn 0 0.959780017461358 -0.28075312657542256
vn -0.31764560301902556 0.9100725380547111 -0.2662127839930608
vn 0.31764560301902556 -0.9100725380547111 0.2662127839930608
vn 0.9988639011610309 0.045737389593626075 -0.013379019042044084
vn -0.9988639011610309 -0.045737389593626075 0.013379019042044084
vn 0.9687296992600923 0.23813913905640727 -0.06966003316769227
vn -0.9687296992600923 -0.23813913905640727 0.06966003316769227
vn 0.9183231102431143 0.37991127164066296 -0.11113096271421062
vn -0.9183231102431143 -0.37991127164066296 0.11113096271421062
vn 0.5925732169025439 0.7731187302975285 -0.226151302169384
vn 0.389238028023459 0.8840890864008429 -0.258612151391484
vn -0.389238028023459 -0.8840890864008429 0.258612151391484
vn -0.5925732169025439 -0.7731187302975285 0.226151302169384
vn 0.005615378092137662 0.9597648852242279 -0.2807487001206005
vn -0.005615378092137662 -0.9597648852242279 0.2807487001206005
vn -0.3170323125997857 0.9102695125393518 -0.2662704026154664
vn 0.3170323125997857 -0.9102695125393518 0.2662704026154664
vn -0.47290364009431446 0.845675755282931 -0.2473755527779399
vn 0.47290364009431446 -0.845675755282931 0.2473755527779399
usemtl material_0_0
f 1//1 2//1 3//1
f 2//1 1//1 4//1
f 5//1 6//1 7//1
f 6//1 5//1 8//1
f 8//1 5//1 9//1
f 9//1 5//1 10//1
f 10//1 5//1 11//1
f 11//1 5//1 12//1
f 12//1 5//1 13//1
f 13//1 5//1 14//1
f 14//1 5//1 2//1
f 14//1 2//1 15//1
f 14//1 15//1 16//1
f 14//1 16//1 17//1
f 2//1 5//1 3//1
f 17//1 16//1 18//1
f 17//1 18//1 19//1
f 17//1 19//1 20//1
f 17//1 20//1 21//1
f 21//1 20//1 22//1
f 21//1 22//1 23//1
f 23//1 22//1 24//1
f 6//1 25//1 26//1
f 25//1 6//1 8//1
f 27//2 28//2 29//2
f 30//2 29//2 28//2
f 31//2 32//2 33//2
f 33//2 32//2 34//2
f 32//2 35//2 34//2
f 34//2 35//2 36//2
f 35//2 37//2 36//2
f 37//2 38//2 36//2
f 38//2 39//2 36//2
f 40//2 41//2 42//2
f 36//2 39//2 43//2
f 39//2 44//2 43//2
f 44//2 42//2 43//2
f 42//2 41//2 43//2
f 43//2 41//2 45//2
f 45//2 41//2 46//2
f 46//2 41//2 47//2
f 47//2 41//2 48//2
f 48//2 41//2 49//2
f 49//2 41//2 27//2
f 27//2 41//2 28//2
f 50//2 28//2 41//2
f 51//2 52//2 42//2
f 40//2 42//2 52//2
f 53//3 54//4 55//3
f 54//4 53//3 56//4
f 57//5 58//6 59//5
f 60//6 59//5 58//6
f 56//4 61//7 54//4
f 61//7 56//4 62//7
f 63//8 57//5 64//8
f 59//5 64//8 57//5
f 62//7 65//9 61//7
f 65//9 62//7 66//9
f 67//10 63//8 68//10
f 64//8 68//10 63//8
f 65//9 69//11 70//11
f 69//11 65//9 66//9
f 67//10 68//10 71//12
f 72//12 71//12 68//10
f 69//11 73//13 70//11
f 73//13 69//11 74//13
f 75//14 71//12 76//14
f 72//12 76//14 71//12
f 74//13 77//15 73//13
f 77//15 74//13 78//15
f 79//16 75//14 80//16
f 76//14 80//16 75//14
f 81//17 77//15 78//15
f 77//15 81//17 82//17
f 83//18 84//18 80//16
f 79//16 80//16 84//18
f 81//17 85//19 82//17
f 85//19 81//17 86//19
f 87//20 84//18 88//20
f 83//18 88//20 84//18
f 89//21 85//19 86//19
f 85//19 89//21 90//21
f 91//22 92//22 88//20
f 87//20 88//20 92//22
f 93//23 94//23 95//23
f 94//23 93//23 96//23
f 97//24 98//24 99//24
f 100//24 99//24 98//24
f 101//21 102//21 103//21
f 102//21 101//21 104//21
f 105//22 106//22 107//22
f 108//22 107//22 106//22
f 109//24 110//24 111//24
f 110//24 109//24 112//24
f 113//23 114//23 115//23
f 116//23 115//23 114//23
f 117//21 118//21 119//21
f 118//21 117//21 120//21
f 121//22 122//22 123//22
f 124//22 123//22 122//22
f 125//25 126//25 127//25
f 126//25 125//25 128//25
f 129//26 130//26 131//26
f 132//26 131//26 130//26
f 133//22 134//22 135//22
f 134//22 133//22 136//22
f 137//21 138//21 139//21
f 140//21 139//21 138//21
f 141//24 142//24 143//24
f 142//24 141//24 144//24
f 145//23 146//23 147//23
f 148//23 147//23 146//23
f 149//22 150//22 151//22
f 150//22 149//22 152//22
f 153//21 154//21 155//21
f 156//21 155//21 154//21
f 157//23 158//23 159//23
f 158//23 157//23 160//23
f 161//24 162//24 163//24
f 164//24 163//24 162//24
f 165//27 166//22 167//27
f 166//22 165//27 168//22
f 169//21 170//28 171//21
f 172//28 171//21 170//28
f 173//29 167//27 174//29
f 167//27 173//29 165//27
f 170//28 175//30 172//28
f 176//30 172//28 175//30
f 173//29 177//31 178//31
f 177//31 173//29 174//29
f 176//30 175//30 179//32
f 180//32 179//32 175//30
f 181//33 182//34 183//33
f 182//34 181//33 184//34
f 185//35 186//36 187//35
f 188//36 187//35 186//36
f 184//34 189//37 182//34
f 189//37 184//34 190//37
f 191//38 185//35 192//38
f 187//35 192//38 185//35
f 190//37 193//39 189//37
f 193//39 190//37 194//39
f 195//40 191//38 196//40
f 192//38 196//40 191//38
f 194//39 197//41 193//39
f 197//41 194//39 198//41
f 199//42 195//40 200//42
f 196//40 200//42 195//40
f 201//22 202//22 203//22
f 202//22 201//22 204//22
f 205//21 206//21 207//21
f 208//21 207//21 206//21
f 209//2 210//2 211//2
f 212//2 213//2 214//2
f 213//2 212//2 215//2
f 213//2 215//2 216//2
f 216//2 215//2 217//2
f 217//2 215//2 218//2
f 218//2 215//2 219//2
f 218//2 219//2 220//2
f 220//2 219//2 221//2
f 220//2 221//2 222//2
f 223//2 224//2 214//2
f 224//2 223//2 225//2
f 225//2 223//2 226//2
f 227//2 228//2 229//2
f 228//2 227//2 210//2
f 228//2 210//2 230//2
f 230//2 210//2 231//2
f 231//2 210//2 209//2
f 231//2 209//2 232//2
f 231//2 232//2 233//2
f 231//2 233//2 234//2
f 231//2 234//2 212//2
f 231//2 212//2 214//2
f 231//2 214//2 224//2
f 235//1 236//1 237//1
f 236//1 238//1 237//1
f 238//1 239//1 237//1
f 239//1 240//1 237//1
f 240//1 241//1 237//1
f 241//1 242//1 237//1
f 242//1 243//1 237//1
f 237//1 243//1 244//1
f 244//1 243//1 245//1
f 243//1 246//1 245//1
f 247//1 245//1 246//1
f 248//1 249//1 250//1
f 250//1 249//1 235//1
f 236//1 235//1 249//1
f 251//1 252//1 253//1
f 252//1 254//1 253//1
f 253//1 254//1 255//1
f 254//1 256//1 255//1
f 255//1 256//1 257//1
f 257//1 256//1 258//1
f 258//1 256//1 259//1
f 256//1 238//1 259//1
f 236//1 259//1 238//1
f 260//1 243//1 242//1
