# SSTK version 0.8.0
# 226
mtllib original-226.mtl
o #ID1301
v 0.099561 0.493571 0.411607
v 0.099750 0.491642 0.411766
v 0.099710 0.491092 0.411812
v 0.100070 0.493996 0.411572
v 0.099873 0.492137 0.411726
v 0.100076 0.492576 0.411689
v 0.100657 0.494299 0.411547
v 0.100361 0.492959 0.411658
v 0.100709 0.493270 0.411632
v 0.101323 0.494480 0.411532
v 0.101103 0.493492 0.411613
v 0.101543 0.493625 0.411602
v 0.102068 0.494541 0.411527
v 0.102029 0.493669 0.411599
v 0.102845 0.493543 0.411609
v 0.102890 0.494462 0.411533
v 0.103609 0.493164 0.411641
v 0.103609 0.494225 0.411553
v 0.098680 0.491764 0.411756
v 0.098676 0.490320 0.411876
v 0.098622 0.491004 0.411819
v 0.098839 0.489704 0.411927
v 0.098856 0.492445 0.411700
v 0.099112 0.489154 0.411972
v 0.099150 0.493047 0.411650
v 0.099493 0.488670 0.412012
v 0.099748 0.490554 0.411857
v 0.099963 0.488276 0.412045
v 0.099863 0.490075 0.411896
v 0.100054 0.489657 0.411931
v 0.100501 0.487995 0.412068
v 0.100322 0.489299 0.411960
v 0.100654 0.489011 0.411984
v 0.101108 0.487826 0.412082
v 0.101038 0.488806 0.412001
v 0.101475 0.488683 0.412011
v 0.101783 0.487770 0.412087
v 0.101964 0.488642 0.412015
v 0.102761 0.487882 0.412078
v 0.102391 0.488677 0.412012
v 0.102806 0.488782 0.412003
v 0.103596 0.488219 0.412050
v 0.103596 0.489204 0.411968
v 0.103596 0.489204 0.411968
v 0.102806 0.488782 0.412003
v 0.103596 0.488219 0.412050
v 0.102761 0.487882 0.412078
v 0.102391 0.488677 0.412012
v 0.101964 0.488642 0.412015
v 0.101783 0.487770 0.412087
v 0.101475 0.488683 0.412011
v 0.101108 0.487826 0.412082
v 0.101038 0.488806 0.412001
v 0.100654 0.489011 0.411984
v 0.100501 0.487995 0.412068
v 0.100322 0.489299 0.411960
v 0.100054 0.489657 0.411931
v 0.099963 0.488276 0.412045
v 0.099863 0.490075 0.411896
v 0.099748 0.490554 0.411857
v 0.099493 0.488670 0.412012
v 0.099710 0.491092 0.411812
v 0.099561 0.493571 0.411607
v 0.099150 0.493047 0.411650
v 0.099112 0.489154 0.411972
v 0.098856 0.492445 0.411700
v 0.098839 0.489704 0.411927
v 0.098680 0.491764 0.411756
v 0.098676 0.490320 0.411876
v 0.098622 0.491004 0.411819
v 0.103609 0.494225 0.411553
v 0.102890 0.494462 0.411533
v 0.103609 0.493164 0.411641
v 0.102845 0.493543 0.411609
v 0.102068 0.494541 0.411527
v 0.102029 0.493669 0.411599
v 0.101543 0.493625 0.411602
v 0.101323 0.494480 0.411532
v 0.101103 0.493492 0.411613
v 0.100709 0.493270 0.411632
v 0.100657 0.494299 0.411547
v 0.100361 0.492959 0.411658
v 0.100076 0.492576 0.411689
v 0.100070 0.493996 0.411572
v 0.099873 0.492137 0.411726
v 0.099750 0.491642 0.411766
v 0.103596 0.488285 0.412852
v 0.102761 0.487882 0.412078
v 0.103596 0.488219 0.412050
v 0.102761 0.487949 0.412880
v 0.102761 0.487949 0.412880
v 0.103596 0.488285 0.412852
v 0.102761 0.487882 0.412078
v 0.103596 0.488219 0.412050
v 0.101783 0.487770 0.412087
v 0.101783 0.487836 0.412889
v 0.101783 0.487836 0.412889
v 0.101783 0.487770 0.412087
v 0.101108 0.487826 0.412082
v 0.101108 0.487893 0.412884
v 0.101108 0.487893 0.412884
v 0.101108 0.487826 0.412082
v 0.100501 0.487995 0.412068
v 0.100501 0.488061 0.412870
v 0.100501 0.488061 0.412870
v 0.100501 0.487995 0.412068
v 0.099963 0.488276 0.412045
v 0.099963 0.488343 0.412847
v 0.099963 0.488343 0.412847
v 0.099963 0.488276 0.412045
v 0.099493 0.488670 0.412012
v 0.099493 0.488737 0.412814
v 0.099493 0.488737 0.412814
v 0.099493 0.488670 0.412012
v 0.099112 0.489220 0.412775
v 0.099112 0.489154 0.411972
v 0.099112 0.489154 0.411972
v 0.099112 0.489220 0.412775
v 0.098839 0.489770 0.412729
v 0.098839 0.489704 0.411927
v 0.098839 0.489704 0.411927
v 0.098839 0.489770 0.412729
v 0.098676 0.490387 0.412678
v 0.098676 0.490320 0.411876
v 0.098676 0.490320 0.411876
v 0.098676 0.490387 0.412678
v 0.098622 0.491070 0.412621
v 0.098622 0.491004 0.411819
v 0.098622 0.491004 0.411819
v 0.098622 0.491070 0.412621
v 0.098680 0.491830 0.412559
v 0.098680 0.491764 0.411756
v 0.098680 0.491764 0.411756
v 0.098680 0.491830 0.412559
v 0.098856 0.492511 0.412502
v 0.098856 0.492445 0.411700
v 0.098856 0.492445 0.411700
v 0.098856 0.492511 0.412502
v 0.099150 0.493114 0.412452
v 0.099150 0.493047 0.411650
v 0.099150 0.493047 0.411650
v 0.099150 0.493114 0.412452
v 0.099561 0.493638 0.412409
v 0.099561 0.493571 0.411607
v 0.099561 0.493571 0.411607
v 0.099561 0.493638 0.412409
v 0.100070 0.493996 0.411572
v 0.100070 0.494062 0.412374
v 0.100070 0.494062 0.412374
v 0.100070 0.493996 0.411572
v 0.100657 0.494299 0.411547
v 0.100657 0.494365 0.412349
v 0.100657 0.494365 0.412349
v 0.100657 0.494299 0.411547
v 0.101323 0.494480 0.411532
v 0.101323 0.494547 0.412334
v 0.101323 0.494547 0.412334
v 0.101323 0.494480 0.411532
v 0.102068 0.494541 0.411527
v 0.102068 0.494607 0.412329
v 0.102068 0.494607 0.412329
v 0.102068 0.494541 0.411527
v 0.102890 0.494462 0.411533
v 0.102890 0.494528 0.412335
v 0.102890 0.494528 0.412335
v 0.102890 0.494462 0.411533
v 0.103609 0.494225 0.411553
v 0.103609 0.494292 0.412355
v 0.103609 0.494292 0.412355
v 0.103609 0.494225 0.411553
v 0.103609 0.494225 0.411553
v 0.103609 0.493230 0.412443
v 0.103609 0.493164 0.411641
v 0.103609 0.494292 0.412355
v 0.103609 0.494292 0.412355
v 0.103609 0.494225 0.411553
v 0.103609 0.493230 0.412443
v 0.103609 0.493164 0.411641
v 0.103609 0.493230 0.412443
v 0.102845 0.493543 0.411609
v 0.103609 0.493164 0.411641
v 0.102845 0.493609 0.412411
v 0.102845 0.493609 0.412411
v 0.103609 0.493230 0.412443
v 0.102845 0.493543 0.411609
v 0.103609 0.493164 0.411641
v 0.102029 0.493669 0.411599
v 0.102029 0.493736 0.412401
v 0.102029 0.493736 0.412401
v 0.102029 0.493669 0.411599
v 0.101543 0.493625 0.411602
v 0.101543 0.493691 0.412404
v 0.101543 0.493691 0.412404
v 0.101543 0.493625 0.411602
v 0.101103 0.493492 0.411613
v 0.101103 0.493558 0.412416
v 0.101103 0.493558 0.412416
v 0.101103 0.493492 0.411613
v 0.100709 0.493270 0.411632
v 0.100709 0.493336 0.412434
v 0.100709 0.493336 0.412434
v 0.100709 0.493270 0.411632
v 0.100361 0.492959 0.411658
v 0.100361 0.493025 0.412460
v 0.100361 0.493025 0.412460
v 0.100361 0.492959 0.411658
v 0.100076 0.492642 0.412491
v 0.100076 0.492576 0.411689
v 0.100076 0.492642 0.412491
v 0.100076 0.492576 0.411689
v 0.099873 0.492203 0.412528
v 0.099873 0.492137 0.411726
v 0.099873 0.492203 0.412528
v 0.099873 0.492137 0.411726
v 0.099750 0.491709 0.412569
v 0.099750 0.491642 0.411766
v 0.099750 0.491709 0.412569
v 0.099750 0.491642 0.411766
v 0.099710 0.491159 0.412614
v 0.099710 0.491092 0.411812
v 0.099710 0.491159 0.412614
v 0.099710 0.491092 0.411812
v 0.099748 0.490620 0.412659
v 0.099748 0.490554 0.411857
v 0.099748 0.490620 0.412659
v 0.099748 0.490554 0.411857
v 0.099863 0.490142 0.412698
v 0.099863 0.490075 0.411896
v 0.099863 0.490142 0.412698
v 0.099863 0.490075 0.411896
v 0.100054 0.489723 0.412733
v 0.100054 0.489657 0.411931
v 0.100054 0.489723 0.412733
v 0.100054 0.489657 0.411931
v 0.100322 0.489365 0.412762
v 0.100322 0.489299 0.411960
v 0.100322 0.489365 0.412762
v 0.100322 0.489299 0.411960
v 0.100654 0.489011 0.411984
v 0.100654 0.489078 0.412786
v 0.100654 0.489078 0.412786
v 0.100654 0.489011 0.411984
v 0.101038 0.488806 0.412001
v 0.101038 0.488872 0.412803
v 0.101038 0.488872 0.412803
v 0.101038 0.488806 0.412001
v 0.101475 0.488683 0.412011
v 0.101475 0.488749 0.412813
v 0.101475 0.488749 0.412813
v 0.101475 0.488683 0.412011
v 0.101964 0.488642 0.412015
v 0.101964 0.488708 0.412817
v 0.101964 0.488708 0.412817
v 0.101964 0.488642 0.412015
v 0.102391 0.488677 0.412012
v 0.102391 0.488743 0.412814
v 0.102391 0.488743 0.412814
v 0.102391 0.488677 0.412012
v 0.102806 0.488782 0.412003
v 0.102806 0.488849 0.412805
v 0.102806 0.488849 0.412805
v 0.102806 0.488782 0.412003
v 0.103596 0.489204 0.411968
v 0.103596 0.489270 0.412770
v 0.103596 0.489270 0.412770
v 0.103596 0.489204 0.411968
v 0.103596 0.489204 0.411968
v 0.103596 0.488285 0.412852
v 0.103596 0.488219 0.412050
v 0.103596 0.489270 0.412770
v 0.103596 0.489270 0.412770
v 0.103596 0.489204 0.411968
v 0.103596 0.488285 0.412852
v 0.103596 0.488219 0.412050
v 0.098676 0.490387 0.412678
v 0.098680 0.491830 0.412559
v 0.098622 0.491070 0.412621
v 0.098839 0.489770 0.412729
v 0.098856 0.492511 0.412502
v 0.099112 0.489220 0.412775
v 0.099150 0.493114 0.412452
v 0.099493 0.488737 0.412814
v 0.099561 0.493638 0.412409
v 0.099710 0.491159 0.412614
v 0.099748 0.490620 0.412659
v 0.099963 0.488343 0.412847
v 0.099863 0.490142 0.412698
v 0.100054 0.489723 0.412733
v 0.100501 0.488061 0.412870
v 0.100322 0.489365 0.412762
v 0.100654 0.489078 0.412786
v 0.101108 0.487893 0.412884
v 0.101038 0.488872 0.412803
v 0.101475 0.488749 0.412813
v 0.101783 0.487836 0.412889
v 0.101964 0.488708 0.412817
v 0.102761 0.487949 0.412880
v 0.102391 0.488743 0.412814
v 0.102806 0.488849 0.412805
v 0.103596 0.488285 0.412852
v 0.103596 0.489270 0.412770
v 0.099750 0.491709 0.412569
v 0.100070 0.494062 0.412374
v 0.099873 0.492203 0.412528
v 0.100076 0.492642 0.412491
v 0.100657 0.494365 0.412349
v 0.100361 0.493025 0.412460
v 0.100709 0.493336 0.412434
v 0.101323 0.494547 0.412334
v 0.101103 0.493558 0.412416
v 0.101543 0.493691 0.412404
v 0.102068 0.494607 0.412329
v 0.102029 0.493736 0.412401
v 0.102845 0.493609 0.412411
v 0.102890 0.494528 0.412335
v 0.103609 0.493230 0.412443
v 0.103609 0.494292 0.412355
v 0.103609 0.494292 0.412355
v 0.103609 0.493230 0.412443
v 0.102890 0.494528 0.412335
v 0.102845 0.493609 0.412411
v 0.102068 0.494607 0.412329
v 0.102029 0.493736 0.412401
v 0.101543 0.493691 0.412404
v 0.101323 0.494547 0.412334
v 0.101103 0.493558 0.412416
v 0.100709 0.493336 0.412434
v 0.100657 0.494365 0.412349
v 0.100361 0.493025 0.412460
v 0.100076 0.492642 0.412491
v 0.100070 0.494062 0.412374
v 0.099873 0.492203 0.412528
v 0.099750 0.491709 0.412569
v 0.099710 0.491159 0.412614
v 0.099561 0.493638 0.412409
v 0.103596 0.489270 0.412770
v 0.103596 0.488285 0.412852
v 0.102806 0.488849 0.412805
v 0.102761 0.487949 0.412880
v 0.102391 0.488743 0.412814
v 0.101964 0.488708 0.412817
v 0.101783 0.487836 0.412889
v 0.101475 0.488749 0.412813
v 0.101108 0.487893 0.412884
v 0.101038 0.488872 0.412803
v 0.100654 0.489078 0.412786
v 0.100501 0.488061 0.412870
v 0.100322 0.489365 0.412762
v 0.100054 0.489723 0.412733
v 0.099963 0.488343 0.412847
v 0.099863 0.490142 0.412698
v 0.099748 0.490620 0.412659
v 0.099493 0.488737 0.412814
v 0.099150 0.493114 0.412452
v 0.099112 0.489220 0.412775
v 0.098856 0.492511 0.412502
v 0.098839 0.489770 0.412729
v 0.098680 0.491830 0.412559
v 0.098676 0.490387 0.412678
v 0.098622 0.491070 0.412621
vn 0 -0.08246840027985326 -0.9965936799695662
vn 0 0.08246840027985326 0.9965936799695662
vn 0.37449483467528266 -0.9240705614782527 0.07646709233912106
vn 0.24642518677381053 -0.9658605415834636 0.07992522465148821
vn -0.24642518677381053 0.9658605415834636 -0.07992522465148821
vn -0.37449483467528266 0.9240705614782527 -0.07646709233912106
vn 0.015538109980459774 -0.9964733674751944 0.08245844438795473
vn -0.015538109980459774 0.9964733674751944 -0.08245844438795473
vn -0.17680803084091448 -0.9808927010366693 0.08116913996800455
vn 0.17680803084091448 0.9808927010366693 -0.08116913996800455
vn -0.3685085507091215 -0.9264577605006863 0.07666463371278875
vn 0.3685085507091215 0.9264577605006863 -0.07666463371278875
vn -0.5570729081531561 -0.8276347656505106 0.06848700379203003
vn 0.5570729081531561 0.8276347656505106 -0.06848700379203003
vn -0.7185879778571567 -0.6930671854653921 0.05735149963376916
vn 0.7185879778571567 0.6930671854653921 -0.05735149963376916
vn -0.8460077614633879 -0.5313544305290099 0.043969724821732774
vn 0.8460077614633879 0.5313544305290099 -0.043969724821732774
vn -0.9365024709222637 -0.34946651514692273 0.02891844995085851
vn 0.9365024709222637 0.34946651514692273 -0.02891844995085851
vn -0.9858050051067183 -0.16732238621550904 0.013845973338524647
vn 0.9858050051067183 0.16732238621550904 -0.013845973338524647
vn -0.9999992969136398 -0.0011817820428743496 0.00009779278808818106
vn 0.9999992969136398 0.0011817820428743496 -0.00009779278808818106
vn -0.9864894132243873 0.1632669808249134 -0.013510387430475454
vn 0.9864894132243873 -0.1632669808249134 0.013510387430475454
vn -0.938622804777364 0.34377026309790476 -0.028447083531910666
vn 0.938622804777364 -0.34377026309790476 0.028447083531910666
vn -0.8484027564616927 0.5275481261911603 -0.04365475209410091
vn 0.8484027564616927 -0.5275481261911603 0.04365475209410091
vn -0.7185792621155913 0.6930761605751043 -0.05735224232655881
vn 0.7185792621155913 -0.6930761605751043 0.05735224232655881
vn -0.5537085656241614 0.8298740499949007 -0.06867230518553197
vn 0.5537085656241614 -0.8298740499949007 0.06867230518553197
vn -0.3637542370427836 0.928321987132306 -0.07681889897771947
vn 0.3637542370427836 -0.928321987132306 0.07681889897771947
vn -0.17346827699725498 0.9814847790414767 -0.08121813458524803
vn 0.17346827699725498 -0.9814847790414767 0.08121813458524803
vn 0.0072564368977810385 0.9965674413673149 -0.08246622902832243
vn -0.0072564368977810385 -0.9965674413673149 0.08246622902832243
vn 0.2060272779034078 0.9752130069689972 -0.0806991437265532
vn -0.2060272779034078 -0.9752130069689972 0.0806991437265532
vn 0.31384840975625783 0.9462388949962869 -0.07830152801621502
vn -0.31384840975625783 -0.9462388949962869 0.07830152801621502
vn 1 0 0
vn -1 0 0
vn -0.44542628725012023 -0.8922688734133976 0.07383549393184678
vn -0.3027361194505333 -0.9498279392890722 0.07859852241554592
vn 0.3027361194505333 0.9498279392890722 -0.07859852241554592
vn 0.44542628725012023 0.8922688734133976 -0.07383549393184678
vn -0.031256804103418995 -0.9961067310698994 0.08242810512488621
vn 0.031256804103418995 0.9961067310698994 -0.08242810512488621
vn 0.1919975862614741 -0.9780524510224339 0.08093410850054034
vn -0.1919975862614741 0.9780524510224339 -0.08093410850054034
vn 0.39366193882586425 -0.9161240067238824 0.07580951275428044
vn -0.39366193882586425 0.9161240067238824 -0.07580951275428044
vn 0.5828034877644028 -0.809845106920961 0.06701490465429993
vn -0.5828034877644028 0.809845106920961 -0.06701490465429993
vn 0.7389439906059544 -0.6714717923138696 0.05556447492910224
vn -0.7389439906059544 0.6714717923138696 -0.05556447492910224
vn 0.8600487116258262 -0.508473984996787 0.04207636168020621
vn -0.8600487116258262 0.508473984996787 -0.04207636168020621
vn 0.9436984995220083 -0.3296799708008493 0.027281107980822297
vn -0.9436984995220083 0.3296799708008493 -0.027281107980822297
vn 0.9876299367846538 -0.15626864731812426 0.012931273413870991
vn -0.9876299367846538 0.15626864731812426 -0.012931273413870991
vn 0.9999989580133575 -0.0014386796124401101 0.00011905113241016998
vn -0.9999989580133575 0.0014386796124401101 -0.00011905113241016998
vn 0.9883608930501312 0.15160920296103197 -0.012545703115718825
vn -0.9883608930501312 -0.15160920296103197 0.012545703115718825
vn 0.9456537189484859 0.32406775323175296 -0.026816695438129836
vn -0.9456537189484859 -0.32406775323175296 0.026816695438129836
vn 0.8607934615564083 0.5072207729566796 -0.04197265804026109
vn -0.8607934615564083 -0.5072207729566796 0.04197265804026109
vn 0.7329129086397589 0.6780050777243765 -0.05610510608822481
vn -0.7329129086397589 -0.6780050777243765 0.05610510608822481
vn 0.567248865598886 0.8207411685768047 -0.06791655674398155
vn -0.567248865598886 -0.8207411685768047 0.06791655674398155
vn 0.37434755793822816 0.9241298283187684 -0.0764719966864245
vn -0.37434755793822816 -0.9241298283187684 0.0764719966864245
vn 0.17891297039110463 0.9805135451197932 -0.0811377647119199
vn -0.17891297039110463 -0.9805135451197932 0.0811377647119199
vn 0.0008975810412625225 0.9965932785157762 -0.08246836705944205
vn -0.0008975810412625225 -0.9965932785157762 0.08246836705944205
vn -0.1652208645716252 0.9828970867422875 -0.08133500343473976
vn 0.1652208645716252 -0.9828970867422875 0.08133500343473976
vn -0.36201809416073394 0.9289957947434337 -0.07687465674229589
vn 0.36201809416073394 -0.9289957947434337 0.07687465674229589
vn -0.47195713911410214 0.8786184091341475 -0.07270591426983108
vn 0.47195713911410214 -0.8786184091341475 0.07270591426983108
usemtl material_0_0
f 1//1 2//1 3//1
f 2//1 1//1 4//1
f 2//1 4//1 5//1
f 5//1 4//1 6//1
f 6//1 4//1 7//1
f 6//1 7//1 8//1
f 8//1 7//1 9//1
f 9//1 7//1 10//1
f 9//1 10//1 11//1
f 11//1 10//1 12//1
f 12//1 10//1 13//1
f 12//1 13//1 14//1
f 14//1 13//1 15//1
f 15//1 13//1 16//1
f 15//1 16//1 17//1
f 17//1 16//1 18//1
f 19//1 20//1 21//1
f 20//1 19//1 22//1
f 22//1 19//1 23//1
f 22//1 23//1 24//1
f 24//1 23//1 25//1
f 24//1 25//1 26//1
f 26//1 25//1 1//1
f 26//1 1//1 3//1
f 26//1 3//1 27//1
f 26//1 27//1 28//1
f 28//1 27//1 29//1
f 28//1 29//1 30//1
f 28//1 30//1 31//1
f 31//1 30//1 32//1
f 31//1 32//1 33//1
f 31//1 33//1 34//1
f 34//1 33//1 35//1
f 34//1 35//1 36//1
f 34//1 36//1 37//1
f 37//1 36//1 38//1
f 37//1 38//1 39//1
f 39//1 38//1 40//1
f 39//1 40//1 41//1
f 39//1 41//1 42//1
f 42//1 41//1 43//1
f 44//2 45//2 46//2
f 46//2 45//2 47//2
f 45//2 48//2 47//2
f 48//2 49//2 47//2
f 47//2 49//2 50//2
f 49//2 51//2 50//2
f 50//2 51//2 52//2
f 51//2 53//2 52//2
f 53//2 54//2 52//2
f 52//2 54//2 55//2
f 54//2 56//2 55//2
f 56//2 57//2 55//2
f 55//2 57//2 58//2
f 57//2 59//2 58//2
f 59//2 60//2 58//2
f 58//2 60//2 61//2
f 60//2 62//2 61//2
f 62//2 63//2 61//2
f 63//2 64//2 61//2
f 61//2 64//2 65//2
f 64//2 66//2 65//2
f 65//2 66//2 67//2
f 66//2 68//2 67//2
f 67//2 68//2 69//2
f 70//2 69//2 68//2
f 71//2 72//2 73//2
f 73//2 72//2 74//2
f 72//2 75//2 74//2
f 74//2 75//2 76//2
f 76//2 75//2 77//2
f 75//2 78//2 77//2
f 77//2 78//2 79//2
f 79//2 78//2 80//2
f 78//2 81//2 80//2
f 80//2 81//2 82//2
f 82//2 81//2 83//2
f 81//2 84//2 83//2
f 83//2 84//2 85//2
f 85//2 84//2 86//2
f 84//2 63//2 86//2
f 62//2 86//2 63//2
f 87//3 88//4 89//3
f 88//4 87//3 90//4
f 91//5 92//6 93//5
f 94//6 93//5 92//6
f 90//4 95//7 88//4
f 95//7 90//4 96//7
f 97//8 91//5 98//8
f 93//5 98//8 91//5
f 96//7 99//9 95//7
f 99//9 96//7 100//9
f 101//10 97//8 102//10
f 98//8 102//10 97//8
f 100//9 103//11 99//9
f 103//11 100//9 104//11
f 105//12 101//10 106//12
f 102//10 106//12 101//10
f 104//11 107//13 103//11
f 107//13 104//11 108//13
f 109//14 105//12 110//14
f 106//12 110//14 105//12
f 108//13 111//15 107//13
f 111//15 108//13 112//15
f 113//16 109//14 114//16
f 110//14 114//16 109//14
f 115//17 111//15 112//15
f 111//15 115//17 116//17
f 117//18 118//18 114//16
f 113//16 114//16 118//18
f 119//19 116//17 115//17
f 116//17 119//19 120//19
f 121//20 122//20 117//18
f 118//18 117//18 122//20
f 123//21 120//19 119//19
f 120//19 123//21 124//21
f 125//22 126//22 121//20
f 122//20 121//20 126//22
f 127//23 124//21 123//21
f 124//21 127//23 128//23
f 129//24 130//24 125//22
f 126//22 125//22 130//24
f 131//25 128//23 127//23
f 128//23 131//25 132//25
f 133//26 134//26 129//24
f 130//24 129//24 134//26
f 135//27 132//25 131//25
f 132//25 135//27 136//27
f 137//28 138//28 133//26
f 134//26 133//26 138//28
f 139//29 136//27 135//27
f 136//27 139//29 140//29
f 141//30 142//30 137//28
f 138//28 137//28 142//30
f 143//31 140//29 139//29
f 140//29 143//31 144//31
f 145//32 146//32 141//30
f 142//30 141//30 146//32
f 143//31 147//33 144//31
f 147//33 143//31 148//33
f 149//34 146//32 150//34
f 145//32 150//34 146//32
f 148//33 151//35 147//33
f 151//35 148//33 152//35
f 153//36 149//34 154//36
f 150//34 154//36 149//34
f 152//35 155//37 151//35
f 155//37 152//35 156//37
f 157//38 153//36 158//38
f 154//36 158//38 153//36
f 156//37 159//39 155//37
f 159//39 156//37 160//39
f 161//40 157//38 162//40
f 158//38 162//40 157//38
f 160//39 163//41 159//39
f 163//41 160//39 164//41
f 165//42 161//40 166//42
f 162//40 166//42 161//40
f 164//41 167//43 163//41
f 167//43 164//41 168//43
f 169//44 165//42 170//44
f 166//42 170//44 165//42
f 171//45 172//45 173//45
f 172//45 171//45 174//45
f 175//46 176//46 177//46
f 178//46 177//46 176//46
f 179//47 180//48 181//47
f 180//48 179//47 182//48
f 183//49 184//50 185//49
f 186//50 185//49 184//50
f 182//48 187//51 180//48
f 187//51 182//48 188//51
f 189//52 183//49 190//52
f 185//49 190//52 183//49
f 188//51 191//53 187//51
f 191//53 188//51 192//53
f 193//54 189//52 194//54
f 190//52 194//54 189//52
f 192//53 195//55 191//53
f 195//55 192//53 196//55
f 197//56 193//54 198//56
f 194//54 198//56 193//54
f 196//55 199//57 195//55
f 199//57 196//55 200//57
f 201//58 197//56 202//58
f 198//56 202//58 197//56
f 200//57 203//59 199//57
f 203//59 200//57 204//59
f 205//60 201//58 206//60
f 202//58 206//60 201//58
f 203//59 207//61 208//61
f 207//61 203//59 204//59
f 205//60 206//60 209//62
f 210//62 209//62 206//60
f 208//61 211//63 212//63
f 211//63 208//61 207//61
f 209//62 210//62 213//64
f 214//64 213//64 210//62
f 212//63 215//65 216//65
f 215//65 212//63 211//63
f 213//64 214//64 217//66
f 218//66 217//66 214//64
f 216//65 219//67 220//67
f 219//67 216//65 215//65
f 217//66 218//66 221//68
f 222//68 221//68 218//66
f 220//67 223//69 224//69
f 223//69 220//67 219//67
f 221//68 222//68 225//70
f 226//70 225//70 222//68
f 224//69 227//71 228//71
f 227//71 224//69 223//69
f 225//70 226//70 229//72
f 230//72 229//72 226//70
f 228//71 231//73 232//73
f 231//73 228//71 227//71
f 229//72 230//72 233//74
f 234//74 233//74 230//72
f 232//73 235//75 236//75
f 235//75 232//73 231//73
f 233//74 234//74 237//76
f 238//76 237//76 234//74
f 235//75 239//77 236//75
f 239//77 235//75 240//77
f 241//78 237//76 242//78
f 238//76 242//78 237//76
f 240//77 243//79 239//77
f 243//79 240//77 244//79
f 245//80 241//78 246//80
f 242//78 246//80 241//78
f 244//79 247//81 243//79
f 247//81 244//79 248//81
f 249//82 245//80 250//82
f 246//80 250//82 245//80
f 248//81 251//83 247//81
f 251//83 248//81 252//83
f 253//84 249//82 254//84
f 250//82 254//84 249//82
f 252//83 255//85 251//83
f 255//85 252//83 256//85
f 257//86 253//84 258//86
f 254//84 258//86 253//84
f 256//85 259//87 255//85
f 259//87 256//85 260//87
f 261//88 257//86 262//88
f 258//86 262//88 257//86
f 260//87 263//89 259//87
f 263//89 260//87 264//89
f 265//90 261//88 266//90
f 262//88 266//90 261//88
f 267//45 268//45 269//45
f 268//45 267//45 270//45
f 271//46 272//46 273//46
f 274//46 273//46 272//46
f 275//2 276//2 277//2
f 276//2 275//2 278//2
f 276//2 278//2 279//2
f 279//2 278//2 280//2
f 279//2 280//2 281//2
f 281//2 280//2 282//2
f 281//2 282//2 283//2
f 283//2 282//2 284//2
f 284//2 282//2 285//2
f 285//2 282//2 286//2
f 285//2 286//2 287//2
f 287//2 286//2 288//2
f 288//2 286//2 289//2
f 288//2 289//2 290//2
f 290//2 289//2 291//2
f 291//2 289//2 292//2
f 291//2 292//2 293//2
f 293//2 292//2 294//2
f 294//2 292//2 295//2
f 294//2 295//2 296//2
f 296//2 295//2 297//2
f 296//2 297//2 298//2
f 298//2 297//2 299//2
f 299//2 297//2 300//2
f 299//2 300//2 301//2
f 283//2 302//2 303//2
f 302//2 283//2 284//2
f 303//2 302//2 304//2
f 303//2 304//2 305//2
f 303//2 305//2 306//2
f 306//2 305//2 307//2
f 306//2 307//2 308//2
f 306//2 308//2 309//2
f 309//2 308//2 310//2
f 309//2 310//2 311//2
f 309//2 311//2 312//2
f 312//2 311//2 313//2
f 312//2 313//2 314//2
f 312//2 314//2 315//2
f 315//2 314//2 316//2
f 315//2 316//2 317//2
f 318//1 319//1 320//1
f 319//1 321//1 320//1
f 320//1 321//1 322//1
f 321//1 323//1 322//1
f 323//1 324//1 322//1
f 322//1 324//1 325//1
f 324//1 326//1 325//1
f 326//1 327//1 325//1
f 325//1 327//1 328//1
f 327//1 329//1 328//1
f 329//1 330//1 328//1
f 328//1 330//1 331//1
f 330//1 332//1 331//1
f 332//1 333//1 331//1
f 334//1 335//1 333//1
f 331//1 333//1 335//1
f 336//1 337//1 338//1
f 337//1 339//1 338//1
f 338//1 339//1 340//1
f 340//1 339//1 341//1
f 339//1 342//1 341//1
f 341//1 342//1 343//1
f 342//1 344//1 343//1
f 343//1 344//1 345//1
f 345//1 344//1 346//1
f 344//1 347//1 346//1
f 346//1 347//1 348//1
f 348//1 347//1 349//1
f 347//1 350//1 349//1
f 349//1 350//1 351//1
f 351//1 350//1 352//1
f 350//1 353//1 352//1
f 352//1 353//1 334//1
f 334//1 353//1 335//1
f 335//1 353//1 354//1
f 353//1 355//1 354//1
f 354//1 355//1 356//1
f 355//1 357//1 356//1
f 356//1 357//1 358//1
f 357//1 359//1 358//1
f 360//1 358//1 359//1
