# SSTK version 0.8.0
# 162
mtllib original-162.mtl
o #ID937
v 0.103356 0.448992 0.415296
v 0.103356 0.448384 0.415346
v 0.103317 0.448688 0.415321
v 0.103472 0.449240 0.415275
v 0.103472 0.448138 0.415366
v 0.103644 0.449406 0.415262
v 0.103644 0.447976 0.415380
v 0.103848 0.449461 0.415257
v 0.103848 0.447922 0.415384
v 0.104056 0.449406 0.415262
v 0.104056 0.447978 0.415380
v 0.104231 0.449240 0.415275
v 0.104231 0.448146 0.415366
v 0.104349 0.448992 0.415296
v 0.104349 0.448393 0.415345
v 0.104388 0.448688 0.415321
v 0.104388 0.448688 0.415321
v 0.104349 0.448992 0.415296
v 0.104349 0.448393 0.415345
v 0.104231 0.448146 0.415366
v 0.104231 0.449240 0.415275
v 0.104056 0.447978 0.415380
v 0.104056 0.449406 0.415262
v 0.103848 0.447922 0.415384
v 0.103848 0.449461 0.415257
v 0.103644 0.447976 0.415380
v 0.103644 0.449406 0.415262
v 0.103472 0.448138 0.415366
v 0.103472 0.449240 0.415275
v 0.103356 0.448384 0.415346
v 0.103356 0.448992 0.415296
v 0.103317 0.448688 0.415321
v 0.103848 0.447988 0.416186
v 0.103644 0.447976 0.415380
v 0.103848 0.447922 0.415384
v 0.103644 0.448042 0.416182
v 0.103644 0.448042 0.416182
v 0.103848 0.447988 0.416186
v 0.103644 0.447976 0.415380
v 0.103848 0.447922 0.415384
v 0.103644 0.448042 0.416182
v 0.103472 0.448138 0.415366
v 0.103644 0.447976 0.415380
v 0.103472 0.448205 0.416169
v 0.103472 0.448205 0.416169
v 0.103644 0.448042 0.416182
v 0.103472 0.448138 0.415366
v 0.103644 0.447976 0.415380
v 0.103356 0.448450 0.416148
v 0.103472 0.448138 0.415366
v 0.103472 0.448205 0.416169
v 0.103356 0.448384 0.415346
v 0.103356 0.448384 0.415346
v 0.103356 0.448450 0.416148
v 0.103472 0.448138 0.415366
v 0.103472 0.448205 0.416169
v 0.103317 0.448754 0.416123
v 0.103356 0.448384 0.415346
v 0.103356 0.448450 0.416148
v 0.103317 0.448688 0.415321
v 0.103317 0.448688 0.415321
v 0.103317 0.448754 0.416123
v 0.103356 0.448384 0.415346
v 0.103356 0.448450 0.416148
v 0.103356 0.449058 0.416098
v 0.103317 0.448688 0.415321
v 0.103317 0.448754 0.416123
v 0.103356 0.448992 0.415296
v 0.103356 0.448992 0.415296
v 0.103356 0.449058 0.416098
v 0.103317 0.448688 0.415321
v 0.103317 0.448754 0.416123
v 0.103472 0.449307 0.416077
v 0.103356 0.448992 0.415296
v 0.103356 0.449058 0.416098
v 0.103472 0.449240 0.415275
v 0.103472 0.449240 0.415275
v 0.103472 0.449307 0.416077
v 0.103356 0.448992 0.415296
v 0.103356 0.449058 0.416098
v 0.103472 0.449307 0.416077
v 0.103644 0.449406 0.415262
v 0.103472 0.449240 0.415275
v 0.103644 0.449472 0.416064
v 0.103644 0.449472 0.416064
v 0.103472 0.449307 0.416077
v 0.103644 0.449406 0.415262
v 0.103472 0.449240 0.415275
v 0.103644 0.449472 0.416064
v 0.103848 0.449461 0.415257
v 0.103644 0.449406 0.415262
v 0.103848 0.449527 0.416059
v 0.103848 0.449527 0.416059
v 0.103644 0.449472 0.416064
v 0.103848 0.449461 0.415257
v 0.103644 0.449406 0.415262
v 0.103848 0.449527 0.416059
v 0.104056 0.449406 0.415262
v 0.103848 0.449461 0.415257
v 0.104056 0.449472 0.416064
v 0.104056 0.449472 0.416064
v 0.103848 0.449527 0.416059
v 0.104056 0.449406 0.415262
v 0.103848 0.449461 0.415257
v 0.104056 0.449472 0.416064
v 0.104231 0.449240 0.415275
v 0.104056 0.449406 0.415262
v 0.104231 0.449307 0.416077
v 0.104231 0.449307 0.416077
v 0.104056 0.449472 0.416064
v 0.104231 0.449240 0.415275
v 0.104056 0.449406 0.415262
v 0.104231 0.449240 0.415275
v 0.104349 0.449058 0.416098
v 0.104349 0.448992 0.415296
v 0.104231 0.449307 0.416077
v 0.104231 0.449307 0.416077
v 0.104231 0.449240 0.415275
v 0.104349 0.449058 0.416098
v 0.104349 0.448992 0.415296
v 0.104349 0.448992 0.415296
v 0.104388 0.448754 0.416123
v 0.104388 0.448688 0.415321
v 0.104349 0.449058 0.416098
v 0.104349 0.449058 0.416098
v 0.104349 0.448992 0.415296
v 0.104388 0.448754 0.416123
v 0.104388 0.448688 0.415321
v 0.104388 0.448688 0.415321
v 0.104349 0.448459 0.416147
v 0.104349 0.448393 0.415345
v 0.104388 0.448754 0.416123
v 0.104388 0.448754 0.416123
v 0.104388 0.448688 0.415321
v 0.104349 0.448459 0.416147
v 0.104349 0.448393 0.415345
v 0.104349 0.448393 0.415345
v 0.104231 0.448212 0.416168
v 0.104231 0.448146 0.415366
v 0.104349 0.448459 0.416147
v 0.104349 0.448459 0.416147
v 0.104349 0.448393 0.415345
v 0.104231 0.448212 0.416168
v 0.104231 0.448146 0.415366
v 0.104231 0.448212 0.416168
v 0.104056 0.447978 0.415380
v 0.104231 0.448146 0.415366
v 0.104056 0.448044 0.416182
v 0.104056 0.448044 0.416182
v 0.104231 0.448212 0.416168
v 0.104056 0.447978 0.415380
v 0.104231 0.448146 0.415366
v 0.104056 0.448044 0.416182
v 0.103848 0.447922 0.415384
v 0.104056 0.447978 0.415380
v 0.103848 0.447988 0.416186
v 0.103848 0.447988 0.416186
v 0.104056 0.448044 0.416182
v 0.103848 0.447922 0.415384
v 0.104056 0.447978 0.415380
v 0.103356 0.448450 0.416148
v 0.103356 0.449058 0.416098
v 0.103317 0.448754 0.416123
v 0.103472 0.448205 0.416169
v 0.103472 0.449307 0.416077
v 0.103644 0.448042 0.416182
v 0.103644 0.449472 0.416064
v 0.103848 0.447988 0.416186
v 0.103848 0.449527 0.416059
v 0.104056 0.448044 0.416182
v 0.104056 0.449472 0.416064
v 0.104231 0.448212 0.416168
v 0.104231 0.449307 0.416077
v 0.104349 0.448459 0.416147
v 0.104349 0.449058 0.416098
v 0.104388 0.448754 0.416123
v 0.104388 0.448754 0.416123
v 0.104349 0.448459 0.416147
v 0.104349 0.449058 0.416098
v 0.104231 0.449307 0.416077
v 0.104231 0.448212 0.416168
v 0.104056 0.449472 0.416064
v 0.104056 0.448044 0.416182
v 0.103848 0.449527 0.416059
v 0.103848 0.447988 0.416186
v 0.103644 0.449472 0.416064
v 0.103644 0.448042 0.416182
v 0.103472 0.449307 0.416077
v 0.103472 0.448205 0.416169
v 0.103356 0.449058 0.416098
v 0.103356 0.448450 0.416148
v 0.103317 0.448754 0.416123
vn 0 -0.08246839631543589 -0.9965936802976225
vn 0 0.08246839631543589 0.9965936802976225
vn -0.2575391396354514 -0.9629764501183266 0.07968656143502054
vn 0.2575391396354514 0.9629764501183266 -0.07968656143502054
vn -0.6892580101891017 -0.7220480401439424 0.059749670412912445
vn 0.6892580101891017 0.7220480401439424 -0.059749670412912445
vn -0.9042540951899142 -0.4255402866471467 0.03521357369727722
vn 0.9042540951899142 0.4255402866471467 -0.03521357369727722
vn -0.9919795005361618 -0.12596829997440975 0.01042391085840412
vn 0.9919795005361618 0.12596829997440975 -0.01042391085840412
vn -0.9920264610817418 0.12560046277234968 -0.010393472230547332
vn 0.9920264610817418 -0.12560046277234968 0.010393472230547332
vn -0.906048157332141 0.421733125557735 -0.03489853008846715
vn 0.906048157332141 -0.421733125557735 0.03489853008846715
vn -0.6952171142252632 0.7163513461264398 -0.05927826744376774
vn 0.6952171142252632 -0.7163513461264398 0.05927826744376774
vn -0.26154000699009056 0.9619048813874224 -0.07959788883300983
vn 0.26154000699009056 -0.9619048813874224 0.07959788883300983
vn 0.256407324015102 0.9632763777884797 -0.07971138053076351
vn -0.256407324015102 -0.9632763777884797 0.07971138053076351
vn 0.6886954510957868 0.7225809854240773 -0.05979377177884071
vn -0.6886954510957868 -0.7225809854240773 0.05979377177884071
vn 0.9034215749493447 0.4272929054911281 -0.0353586033801588
vn -0.9034215749493447 -0.4272929054911281 0.0353586033801588
vn 0.9917703671097078 0.1275933363085928 -0.010558383054128227
vn -0.9917703671097078 -0.1275933363085928 0.010558383054128227
vn 0.9912130448324592 -0.13182451995823335 0.010908514644364469
vn -0.9912130448324592 0.13182451995823335 -0.010908514644364469
vn 0.9028149420859445 -0.42856446127185394 0.03546382496457705
vn -0.9028149420859445 0.42856446127185394 -0.03546382496457705
vn 0.694561963470876 -0.7169822685840853 0.05933047644760759
vn -0.694561963470876 0.7169822685840853 -0.05933047644760759
vn 0.26032792289285844 -0.9622313893627064 0.07962490745618415
vn -0.26032792289285844 0.9622313893627064 -0.07962490745618415
usemtl material_0_0
f 1//1 2//1 3//1
f 2//1 1//1 4//1
f 2//1 4//1 5//1
f 5//1 4//1 6//1
f 5//1 6//1 7//1
f 7//1 6//1 8//1
f 7//1 8//1 9//1
f 9//1 8//1 10//1
f 9//1 10//1 11//1
f 11//1 10//1 12//1
f 11//1 12//1 13//1
f 13//1 12//1 14//1
f 13//1 14//1 15//1
f 15//1 14//1 16//1
f 17//2 18//2 19//2
f 19//2 18//2 20//2
f 18//2 21//2 20//2
f 20//2 21//2 22//2
f 21//2 23//2 22//2
f 22//2 23//2 24//2
f 23//2 25//2 24//2
f 24//2 25//2 26//2
f 25//2 27//2 26//2
f 26//2 27//2 28//2
f 27//2 29//2 28//2
f 28//2 29//2 30//2
f 29//2 31//2 30//2
f 32//2 30//2 31//2
f 33//3 34//3 35//3
f 34//3 33//3 36//3
f 37//4 38//4 39//4
f 40//4 39//4 38//4
f 41//5 42//5 43//5
f 42//5 41//5 44//5
f 45//6 46//6 47//6
f 48//6 47//6 46//6
f 49//7 50//7 51//7
f 50//7 49//7 52//7
f 53//8 54//8 55//8
f 56//8 55//8 54//8
f 57//9 58//9 59//9
f 58//9 57//9 60//9
f 61//10 62//10 63//10
f 64//10 63//10 62//10
f 65//11 66//11 67//11
f 66//11 65//11 68//11
f 69//12 70//12 71//12
f 72//12 71//12 70//12
f 73//13 74//13 75//13
f 74//13 73//13 76//13
f 77//14 78//14 79//14
f 80//14 79//14 78//14
f 81//15 82//15 83//15
f 82//15 81//15 84//15
f 85//16 86//16 87//16
f 88//16 87//16 86//16
f 89//17 90//17 91//17
f 90//17 89//17 92//17
f 93//18 94//18 95//18
f 96//18 95//18 94//18
f 97//19 98//19 99//19
f 98//19 97//19 100//19
f 101//20 102//20 103//20
f 104//20 103//20 102//20
f 105//21 106//21 107//21
f 106//21 105//21 108//21
f 109//22 110//22 111//22
f 112//22 111//22 110//22
f 113//23 114//23 115//23
f 114//23 113//23 116//23
f 117//24 118//24 119//24
f 120//24 119//24 118//24
f 121//25 122//25 123//25
f 122//25 121//25 124//25
f 125//26 126//26 127//26
f 128//26 127//26 126//26
f 129//27 130//27 131//27
f 130//27 129//27 132//27
f 133//28 134//28 135//28
f 136//28 135//28 134//28
f 137//29 138//29 139//29
f 138//29 137//29 140//29
f 141//30 142//30 143//30
f 144//30 143//30 142//30
f 145//31 146//31 147//31
f 146//31 145//31 148//31
f 149//32 150//32 151//32
f 152//32 151//32 150//32
f 153//33 154//33 155//33
f 154//33 153//33 156//33
f 157//34 158//34 159//34
f 160//34 159//34 158//34
f 161//2 162//2 163//2
f 162//2 161//2 164//2
f 162//2 164//2 165//2
f 165//2 164//2 166//2
f 165//2 166//2 167//2
f 167//2 166//2 168//2
f 167//2 168//2 169//2
f 169//2 168//2 170//2
f 169//2 170//2 171//2
f 171//2 170//2 172//2
f 171//2 172//2 173//2
f 173//2 172//2 174//2
f 173//2 174//2 175//2
f 175//2 174//2 176//2
f 177//1 178//1 179//1
f 179//1 178//1 180//1
f 178//1 181//1 180//1
f 180//1 181//1 182//1
f 181//1 183//1 182//1
f 182//1 183//1 184//1
f 183//1 185//1 184//1
f 184//1 185//1 186//1
f 185//1 187//1 186//1
f 186//1 187//1 188//1
f 187//1 189//1 188//1
f 188//1 189//1 190//1
f 189//1 191//1 190//1
f 192//1 190//1 191//1
