# SSTK version 0.8.0
# 147
mtllib original-147.mtl
o #ID855
v 0.124276 0.520131 0.406365
v 0.123089 0.519670 0.405661
v 0.124276 0.519905 0.405592
v 0.123089 0.519896 0.406433
v 0.123089 0.519896 0.406433
v 0.124276 0.520131 0.406365
v 0.123089 0.519670 0.405661
v 0.124276 0.519905 0.405592
v 0.124276 0.520131 0.406365
v 0.124276 0.519201 0.405798
v 0.124276 0.519427 0.406571
v 0.124276 0.519905 0.405592
v 0.124276 0.519905 0.405592
v 0.124276 0.520131 0.406365
v 0.124276 0.519201 0.405798
v 0.124276 0.519427 0.406571
v 0.122608 0.519518 0.405706
v 0.122608 0.519744 0.406478
v 0.122608 0.519744 0.406478
v 0.122608 0.519518 0.405706
v 0.124181 0.518375 0.406040
v 0.124181 0.518601 0.406812
v 0.124181 0.518375 0.406040
v 0.124181 0.518601 0.406812
v 0.122262 0.519506 0.406547
v 0.122262 0.519280 0.405775
v 0.122262 0.519506 0.406547
v 0.122262 0.519280 0.405775
v 0.124061 0.518021 0.406143
v 0.124061 0.518247 0.406916
v 0.124061 0.518021 0.406143
v 0.124061 0.518247 0.406916
v 0.122053 0.519119 0.406661
v 0.122053 0.518893 0.405888
v 0.122053 0.519119 0.406661
v 0.122053 0.518893 0.405888
v 0.124061 0.518247 0.406916
v 0.123894 0.517707 0.406235
v 0.123894 0.517933 0.407008
v 0.124061 0.518021 0.406143
v 0.124061 0.518021 0.406143
v 0.124061 0.518247 0.406916
v 0.123894 0.517707 0.406235
v 0.123894 0.517933 0.407008
v 0.121983 0.518516 0.406837
v 0.121983 0.518290 0.406065
v 0.121983 0.518516 0.406837
v 0.121983 0.518290 0.406065
v 0.123690 0.517674 0.407083
v 0.123894 0.517707 0.406235
v 0.123690 0.517448 0.406311
v 0.123894 0.517933 0.407008
v 0.123894 0.517933 0.407008
v 0.123690 0.517674 0.407083
v 0.123894 0.517707 0.406235
v 0.123690 0.517448 0.406311
v 0.122047 0.518046 0.406975
v 0.122047 0.517820 0.406202
v 0.122047 0.518046 0.406975
v 0.122047 0.517820 0.406202
v 0.123461 0.517490 0.407137
v 0.123690 0.517448 0.406311
v 0.123461 0.517264 0.406365
v 0.123690 0.517674 0.407083
v 0.123690 0.517674 0.407083
v 0.123461 0.517490 0.407137
v 0.123690 0.517448 0.406311
v 0.123461 0.517264 0.406365
v 0.122240 0.517444 0.406312
v 0.122240 0.517670 0.407085
v 0.122240 0.517444 0.406312
v 0.122240 0.517670 0.407085
v 0.123206 0.517379 0.407170
v 0.123461 0.517264 0.406365
v 0.123206 0.517153 0.406397
v 0.123461 0.517490 0.407137
v 0.123461 0.517490 0.407137
v 0.123206 0.517379 0.407170
v 0.123461 0.517264 0.406365
v 0.123206 0.517153 0.406397
v 0.122540 0.517198 0.406384
v 0.122540 0.517424 0.407157
v 0.122540 0.517424 0.407157
v 0.122540 0.517198 0.406384
v 0.122925 0.517342 0.407180
v 0.123206 0.517153 0.406397
v 0.122925 0.517116 0.406408
v 0.123206 0.517379 0.407170
v 0.123206 0.517379 0.407170
v 0.122925 0.517342 0.407180
v 0.123206 0.517153 0.406397
v 0.122925 0.517116 0.406408
vn 0.20169102376288195 -0.9400557986917725 0.27498332000224024
vn 0.2588642173159584 -0.9270647184637948 0.2711831941198445
vn -0.2588642173159584 0.9270647184637948 -0.2711831941198445
vn -0.20169102376288195 0.9400557986917725 -0.27498332000224024
vn -1 0 0
vn -0.998482555072494 0.05285406175103197 -0.015460768814072942
vn 1 0 0
vn 0.998482555072494 -0.05285406175103197 0.015460768814072942
vn 0.4578914896120043 -0.8532522277248413 0.2495917058387461
vn -0.4578914896120043 0.8532522277248413 -0.2495917058387461
vn -0.9781443808742958 0.19956403117008198 -0.05837608780303138
vn 0.9781443808742958 -0.19956403117008198 0.05837608780303138
vn 0.7697569665609825 -0.6126631822452211 0.17921505950113018
vn -0.7697569665609825 0.6126631822452211 -0.17921505950113018
vn -0.9513567992823918 0.29569986940188164 -0.08649755889545785
vn 0.9513567992823918 -0.29569986940188164 0.08649755889545785
vn 0.959902267876299 -0.2690598096812145 0.07870485969904671
vn -0.959902267876299 0.2690598096812145 -0.07870485969904671
vn -0.8908578345648788 0.43601099347152544 -0.1275410999103755
vn 0.8908578345648788 -0.43601099347152544 0.1275410999103755
vn 0.9999516783616148 0.009435225727594254 -0.0027599741410617253
vn -0.9999516783616148 -0.009435225727594254 0.0027599741410617253
vn -0.7970003988814076 0.5796867808871475 -0.1695688657966832
vn 0.7970003988814076 -0.5796867808871475 0.1695688657966832
vn 0.9593034805676595 0.2710199162483155 -0.07927822631423033
vn -0.9593034805676595 -0.2710199162483155 0.07927822631423033
vn -0.6421240097799249 0.7357681340632346 -0.2152254839958708
vn 0.6421240097799249 -0.7357681340632346 0.2152254839958708
vn 0.7994302922889769 0.5765963678269358 -0.16866486409310566
vn -0.7994302922889769 -0.5765963678269358 0.16866486409310566
vn -0.41205269141359124 0.874513207023165 -0.25581092674253514
vn 0.41205269141359124 -0.874513207023165 0.25581092674253514
vn 0.45959060893815035 0.8524103058282089 -0.24934542845963653
vn -0.45959060893815035 -0.8524103058282089 0.24934542845963653
vn 0.04171123568371126 0.9589447595137024 -0.2805086826088376
vn -0.1357486351926099 0.9508956631561745 -0.27815417637368517
vn 0.1357486351926099 -0.9508956631561745 0.27815417637368517
vn -0.04171123568371126 -0.9589447595137024 0.2805086826088376
usemtl material_0_0
f 1//1 2//2 3//1
f 2//2 1//1 4//2
f 5//3 6//4 7//3
f 8//4 7//3 6//4
f 9//5 10//6 11//6
f 10//6 9//5 12//5
f 13//7 14//7 15//8
f 16//8 15//8 14//7
f 4//2 17//9 2//2
f 17//9 4//2 18//9
f 19//10 5//3 20//10
f 7//3 20//10 5//3
f 11//6 21//11 22//11
f 21//11 11//6 10//6
f 15//8 16//8 23//12
f 24//12 23//12 16//8
f 17//9 25//13 26//13
f 25//13 17//9 18//9
f 19//10 20//10 27//14
f 28//14 27//14 20//10
f 22//11 29//15 30//15
f 29//15 22//11 21//11
f 23//12 24//12 31//16
f 32//16 31//16 24//12
f 26//13 33//17 34//17
f 33//17 26//13 25//13
f 27//14 28//14 35//18
f 36//18 35//18 28//14
f 37//19 38//19 39//19
f 38//19 37//19 40//19
f 41//20 42//20 43//20
f 44//20 43//20 42//20
f 34//17 45//21 46//21
f 45//21 34//17 33//17
f 35//18 36//18 47//22
f 48//22 47//22 36//18
f 49//23 50//23 51//23
f 50//23 49//23 52//23
f 53//24 54//24 55//24
f 56//24 55//24 54//24
f 46//21 57//25 58//25
f 57//25 46//21 45//21
f 47//22 48//22 59//26
f 60//26 59//26 48//22
f 61//27 62//27 63//27
f 62//27 61//27 64//27
f 65//28 66//28 67//28
f 68//28 67//28 66//28
f 69//29 57//25 70//29
f 57//25 69//29 58//25
f 60//26 71//30 59//26
f 72//30 59//26 71//30
f 73//31 74//31 75//31
f 74//31 73//31 76//31
f 77//32 78//32 79//32
f 80//32 79//32 78//32
f 70//29 81//33 69//29
f 81//33 70//29 82//33
f 83//34 72//30 84//34
f 71//30 84//34 72//30
f 85//35 86//36 87//35
f 86//36 85//35 88//36
f 89//37 90//38 91//37
f 92//38 91//37 90//38
f 81//33 85//35 87//35
f 85//35 81//33 82//33
f 83//34 84//34 90//38
f 92//38 90//38 84//34
