# SSTK version 0.8.0
# 224
mtllib original-224.mtl
o #ID1289
v 0.095770 0.496967 0.411326
v 0.095770 0.496436 0.411370
v 0.095720 0.496701 0.411348
v 0.095920 0.497184 0.411308
v 0.095920 0.496221 0.411388
v 0.096142 0.497329 0.411296
v 0.096142 0.496079 0.411399
v 0.096406 0.497377 0.411292
v 0.096406 0.496032 0.411403
v 0.096676 0.497329 0.411296
v 0.096676 0.496081 0.411399
v 0.096902 0.497184 0.411308
v 0.096902 0.496227 0.411387
v 0.097055 0.496967 0.411326
v 0.097055 0.496444 0.411369
v 0.097106 0.496701 0.411348
v 0.097106 0.496701 0.411348
v 0.097055 0.496967 0.411326
v 0.097055 0.496444 0.411369
v 0.096902 0.496227 0.411387
v 0.096902 0.497184 0.411308
v 0.096676 0.496081 0.411399
v 0.096676 0.497329 0.411296
v 0.096406 0.496032 0.411403
v 0.096406 0.497377 0.411292
v 0.096142 0.496079 0.411399
v 0.096142 0.497329 0.411296
v 0.095920 0.496221 0.411388
v 0.095920 0.497184 0.411308
v 0.095770 0.496436 0.411370
v 0.095770 0.496967 0.411326
v 0.095720 0.496701 0.411348
v 0.096406 0.496098 0.412205
v 0.096142 0.496079 0.411399
v 0.096406 0.496032 0.411403
v 0.096142 0.496145 0.412201
v 0.096142 0.496145 0.412201
v 0.096406 0.496098 0.412205
v 0.096142 0.496079 0.411399
v 0.096406 0.496032 0.411403
v 0.096142 0.496145 0.412201
v 0.095920 0.496221 0.411388
v 0.096142 0.496079 0.411399
v 0.095920 0.496287 0.412190
v 0.095920 0.496287 0.412190
v 0.096142 0.496145 0.412201
v 0.095920 0.496221 0.411388
v 0.096142 0.496079 0.411399
v 0.095770 0.496502 0.412172
v 0.095920 0.496221 0.411388
v 0.095920 0.496287 0.412190
v 0.095770 0.496436 0.411370
v 0.095770 0.496436 0.411370
v 0.095770 0.496502 0.412172
v 0.095920 0.496221 0.411388
v 0.095920 0.496287 0.412190
v 0.095720 0.496767 0.412150
v 0.095770 0.496436 0.411370
v 0.095770 0.496502 0.412172
v 0.095720 0.496701 0.411348
v 0.095720 0.496701 0.411348
v 0.095720 0.496767 0.412150
v 0.095770 0.496436 0.411370
v 0.095770 0.496502 0.412172
v 0.095770 0.497034 0.412128
v 0.095720 0.496701 0.411348
v 0.095720 0.496767 0.412150
v 0.095770 0.496967 0.411326
v 0.095770 0.496967 0.411326
v 0.095770 0.497034 0.412128
v 0.095720 0.496701 0.411348
v 0.095720 0.496767 0.412150
v 0.095920 0.497251 0.412110
v 0.095770 0.496967 0.411326
v 0.095770 0.497034 0.412128
v 0.095920 0.497184 0.411308
v 0.095920 0.497184 0.411308
v 0.095920 0.497251 0.412110
v 0.095770 0.496967 0.411326
v 0.095770 0.497034 0.412128
v 0.095920 0.497251 0.412110
v 0.096142 0.497329 0.411296
v 0.095920 0.497184 0.411308
v 0.096142 0.497395 0.412098
v 0.096142 0.497395 0.412098
v 0.095920 0.497251 0.412110
v 0.096142 0.497329 0.411296
v 0.095920 0.497184 0.411308
v 0.096142 0.497395 0.412098
v 0.096406 0.497377 0.411292
v 0.096142 0.497329 0.411296
v 0.096406 0.497443 0.412094
v 0.096406 0.497443 0.412094
v 0.096142 0.497395 0.412098
v 0.096406 0.497377 0.411292
v 0.096142 0.497329 0.411296
v 0.096406 0.497443 0.412094
v 0.096676 0.497329 0.411296
v 0.096406 0.497377 0.411292
v 0.096676 0.497395 0.412098
v 0.096676 0.497395 0.412098
v 0.096406 0.497443 0.412094
v 0.096676 0.497329 0.411296
v 0.096406 0.497377 0.411292
v 0.096676 0.497395 0.412098
v 0.096902 0.497184 0.411308
v 0.096676 0.497329 0.411296
v 0.096902 0.497251 0.412110
v 0.096902 0.497251 0.412110
v 0.096676 0.497395 0.412098
v 0.096902 0.497184 0.411308
v 0.096676 0.497329 0.411296
v 0.096902 0.497184 0.411308
v 0.097055 0.497034 0.412128
v 0.097055 0.496967 0.411326
v 0.096902 0.497251 0.412110
v 0.096902 0.497251 0.412110
v 0.096902 0.497184 0.411308
v 0.097055 0.497034 0.412128
v 0.097055 0.496967 0.411326
v 0.097055 0.496967 0.411326
v 0.097106 0.496767 0.412150
v 0.097106 0.496701 0.411348
v 0.097055 0.497034 0.412128
v 0.097055 0.497034 0.412128
v 0.097055 0.496967 0.411326
v 0.097106 0.496767 0.412150
v 0.097106 0.496701 0.411348
v 0.097106 0.496701 0.411348
v 0.097055 0.496510 0.412171
v 0.097055 0.496444 0.411369
v 0.097106 0.496767 0.412150
v 0.097106 0.496767 0.412150
v 0.097106 0.496701 0.411348
v 0.097055 0.496510 0.412171
v 0.097055 0.496444 0.411369
v 0.097055 0.496444 0.411369
v 0.096902 0.496294 0.412189
v 0.096902 0.496227 0.411387
v 0.097055 0.496510 0.412171
v 0.097055 0.496510 0.412171
v 0.097055 0.496444 0.411369
v 0.096902 0.496294 0.412189
v 0.096902 0.496227 0.411387
v 0.096902 0.496294 0.412189
v 0.096676 0.496081 0.411399
v 0.096902 0.496227 0.411387
v 0.096676 0.496147 0.412201
v 0.096676 0.496147 0.412201
v 0.096902 0.496294 0.412189
v 0.096676 0.496081 0.411399
v 0.096902 0.496227 0.411387
v 0.096676 0.496147 0.412201
v 0.096406 0.496032 0.411403
v 0.096676 0.496081 0.411399
v 0.096406 0.496098 0.412205
v 0.096406 0.496098 0.412205
v 0.096676 0.496147 0.412201
v 0.096406 0.496032 0.411403
v 0.096676 0.496081 0.411399
v 0.095770 0.496502 0.412172
v 0.095770 0.497034 0.412128
v 0.095720 0.496767 0.412150
v 0.095920 0.496287 0.412190
v 0.095920 0.497251 0.412110
v 0.096142 0.496145 0.412201
v 0.096142 0.497395 0.412098
v 0.096406 0.496098 0.412205
v 0.096406 0.497443 0.412094
v 0.096676 0.496147 0.412201
v 0.096676 0.497395 0.412098
v 0.096902 0.496294 0.412189
v 0.096902 0.497251 0.412110
v 0.097055 0.496510 0.412171
v 0.097055 0.497034 0.412128
v 0.097106 0.496767 0.412150
v 0.097106 0.496767 0.412150
v 0.097055 0.496510 0.412171
v 0.097055 0.497034 0.412128
v 0.096902 0.497251 0.412110
v 0.096902 0.496294 0.412189
v 0.096676 0.497395 0.412098
v 0.096676 0.496147 0.412201
v 0.096406 0.497443 0.412094
v 0.096406 0.496098 0.412205
v 0.096142 0.497395 0.412098
v 0.096142 0.496145 0.412201
v 0.095920 0.497251 0.412110
v 0.095920 0.496287 0.412190
v 0.095770 0.497034 0.412128
v 0.095770 0.496502 0.412172
v 0.095720 0.496767 0.412150
vn 0 -0.08246840027985326 -0.9965936799695662
vn 0 0.08246840027985326 0.9965936799695662
vn -0.17722815419420007 -0.9808173956737977 0.08116290842857848
vn 0.17722815419420007 0.9808173956737977 -0.08116290842857848
vn -0.5407015259673982 -0.8383490688928577 0.06937361532315732
vn 0.5407015259673982 0.8383490688928577 -0.06937361532315732
vn -0.819655247650535 -0.570905781024227 0.04724260992004882
vn 0.819655247650535 0.570905781024227 -0.04724260992004882
vn -0.9826772552147395 -0.1846938755447208 0.015283468843716275
vn 0.9826772552147395 0.1846938755447208 -0.015283468843716275
vn -0.9827772688589848 0.18416457935625116 -0.01523966943898936
vn 0.9827772688589848 -0.18416457935625116 0.01523966943898936
vn -0.8225892589352021 0.5666990530818405 -0.046894502029346835
vn 0.8225892589352021 -0.5666990530818405 0.046894502029346835
vn -0.5470321412070102 0.8342601333416495 -0.06903525478512358
vn 0.5470321412070102 -0.8342601333416495 0.06903525478512358
vn -0.180086858532954 0.980300082960666 -0.08112010065972157
vn 0.180086858532954 -0.980300082960666 0.08112010065972157
vn 0.17642035530257008 0.980962026600075 -0.08117487667738521
vn -0.17642035530257008 -0.980962026600075 0.08117487667738521
vn 0.5401068552802665 0.8387297032890242 -0.06940511292380867
vn -0.5401068552802665 -0.8387297032890242 0.06940511292380867
vn 0.8182984853093487 0.5728355878512842 -0.047402301964133836
vn -0.8182984853093487 -0.5728355878512842 0.047402301964133836
vn 0.9822320540870174 0.1870311687767604 -0.01547688049954488
vn -0.9822320540870174 -0.1870311687767604 0.01547688049954488
vn 0.9810472100430963 -0.193108822693468 0.015979808027623128
vn -0.9810472100430963 0.193108822693468 -0.015979808027623128
vn 0.8173117348277874 -0.5742330305905385 0.04751794073398089
vn -0.8173117348277874 0.5742330305905385 -0.04751794073398089
vn 0.5463333203358244 -0.8347148256993556 0.06907288070239875
vn -0.5463333203358244 0.8347148256993556 -0.06907288070239875
vn 0.1792202677006311 -0.9804578049360335 0.08113315219643003
vn -0.1792202677006311 0.9804578049360335 -0.08113315219643003
usemtl material_0_0
f 1//1 2//1 3//1
f 2//1 1//1 4//1
f 2//1 4//1 5//1
f 5//1 4//1 6//1
f 5//1 6//1 7//1
f 7//1 6//1 8//1
f 7//1 8//1 9//1
f 9//1 8//1 10//1
f 9//1 10//1 11//1
f 11//1 10//1 12//1
f 11//1 12//1 13//1
f 13//1 12//1 14//1
f 13//1 14//1 15//1
f 15//1 14//1 16//1
f 17//2 18//2 19//2
f 19//2 18//2 20//2
f 18//2 21//2 20//2
f 20//2 21//2 22//2
f 21//2 23//2 22//2
f 22//2 23//2 24//2
f 23//2 25//2 24//2
f 24//2 25//2 26//2
f 25//2 27//2 26//2
f 26//2 27//2 28//2
f 27//2 29//2 28//2
f 28//2 29//2 30//2
f 29//2 31//2 30//2
f 32//2 30//2 31//2
f 33//3 34//3 35//3
f 34//3 33//3 36//3
f 37//4 38//4 39//4
f 40//4 39//4 38//4
f 41//5 42//5 43//5
f 42//5 41//5 44//5
f 45//6 46//6 47//6
f 48//6 47//6 46//6
f 49//7 50//7 51//7
f 50//7 49//7 52//7
f 53//8 54//8 55//8
f 56//8 55//8 54//8
f 57//9 58//9 59//9
f 58//9 57//9 60//9
f 61//10 62//10 63//10
f 64//10 63//10 62//10
f 65//11 66//11 67//11
f 66//11 65//11 68//11
f 69//12 70//12 71//12
f 72//12 71//12 70//12
f 73//13 74//13 75//13
f 74//13 73//13 76//13
f 77//14 78//14 79//14
f 80//14 79//14 78//14
f 81//15 82//15 83//15
f 82//15 81//15 84//15
f 85//16 86//16 87//16
f 88//16 87//16 86//16
f 89//17 90//17 91//17
f 90//17 89//17 92//17
f 93//18 94//18 95//18
f 96//18 95//18 94//18
f 97//19 98//19 99//19
f 98//19 97//19 100//19
f 101//20 102//20 103//20
f 104//20 103//20 102//20
f 105//21 106//21 107//21
f 106//21 105//21 108//21
f 109//22 110//22 111//22
f 112//22 111//22 110//22
f 113//23 114//23 115//23
f 114//23 113//23 116//23
f 117//24 118//24 119//24
f 120//24 119//24 118//24
f 121//25 122//25 123//25
f 122//25 121//25 124//25
f 125//26 126//26 127//26
f 128//26 127//26 126//26
f 129//27 130//27 131//27
f 130//27 129//27 132//27
f 133//28 134//28 135//28
f 136//28 135//28 134//28
f 137//29 138//29 139//29
f 138//29 137//29 140//29
f 141//30 142//30 143//30
f 144//30 143//30 142//30
f 145//31 146//31 147//31
f 146//31 145//31 148//31
f 149//32 150//32 151//32
f 152//32 151//32 150//32
f 153//33 154//33 155//33
f 154//33 153//33 156//33
f 157//34 158//34 159//34
f 160//34 159//34 158//34
f 161//2 162//2 163//2
f 162//2 161//2 164//2
f 162//2 164//2 165//2
f 165//2 164//2 166//2
f 165//2 166//2 167//2
f 167//2 166//2 168//2
f 167//2 168//2 169//2
f 169//2 168//2 170//2
f 169//2 170//2 171//2
f 171//2 170//2 172//2
f 171//2 172//2 173//2
f 173//2 172//2 174//2
f 173//2 174//2 175//2
f 175//2 174//2 176//2
f 177//1 178//1 179//1
f 179//1 178//1 180//1
f 178//1 181//1 180//1
f 180//1 181//1 182//1
f 181//1 183//1 182//1
f 182//1 183//1 184//1
f 183//1 185//1 184//1
f 184//1 185//1 186//1
f 185//1 187//1 186//1
f 186//1 187//1 188//1
f 187//1 189//1 188//1
f 188//1 189//1 190//1
f 189//1 191//1 190//1
f 192//1 190//1 191//1
