# SSTK version 0.8.0
# 214
mtllib original-214.mtl
o #ID1233
v -0.139581 0.406042 0.418850
v -0.139581 0.402557 0.419946
v -0.139581 0.402491 0.419144
v -0.139581 0.406108 0.419652
v -0.139581 0.406108 0.419652
v -0.139581 0.406042 0.418850
v -0.139581 0.402557 0.419946
v -0.139581 0.402491 0.419144
v -0.137929 0.406108 0.419652
v -0.139581 0.406042 0.418850
v -0.137929 0.406042 0.418850
v -0.139581 0.406108 0.419652
v -0.139581 0.406108 0.419652
v -0.137929 0.406108 0.419652
v -0.139581 0.406042 0.418850
v -0.137929 0.406042 0.418850
v -0.139581 0.402557 0.419946
v -0.138109 0.402491 0.419144
v -0.139581 0.402491 0.419144
v -0.138109 0.402557 0.419946
v -0.138109 0.402557 0.419946
v -0.139581 0.402557 0.419946
v -0.138109 0.402491 0.419144
v -0.139581 0.402491 0.419144
v -0.136899 0.406008 0.419660
v -0.136899 0.405941 0.418858
v -0.136899 0.406008 0.419660
v -0.136899 0.405941 0.418858
v -0.137054 0.402618 0.419133
v -0.137054 0.402685 0.419935
v -0.137054 0.402685 0.419935
v -0.137054 0.402618 0.419133
v -0.136164 0.405707 0.419685
v -0.136164 0.405641 0.418883
v -0.136164 0.405707 0.419685
v -0.136164 0.405641 0.418883
v -0.136251 0.403001 0.419102
v -0.136251 0.403067 0.419904
v -0.136251 0.403067 0.419904
v -0.136251 0.403001 0.419102
v -0.135722 0.405140 0.418925
v -0.135722 0.405206 0.419727
v -0.135722 0.405140 0.418925
v -0.135722 0.405206 0.419727
v -0.135956 0.403348 0.419880
v -0.135956 0.403282 0.419078
v -0.135956 0.403282 0.419078
v -0.135956 0.403348 0.419880
v -0.135575 0.404439 0.418983
v -0.135575 0.404505 0.419785
v -0.135575 0.404439 0.418983
v -0.135575 0.404505 0.419785
v -0.135744 0.403682 0.419853
v -0.135956 0.403282 0.419078
v -0.135956 0.403348 0.419880
v -0.135744 0.403615 0.419051
v -0.135744 0.403615 0.419051
v -0.135744 0.403682 0.419853
v -0.135956 0.403282 0.419078
v -0.135956 0.403348 0.419880
vn 1 0 0
vn -1 0 0
vn -0.048612040415903904 -0.9954154429406972 0.08237090191188837
vn 0 -0.9965936798815838 0.08246840134308064
vn 0 0.9965936798815838 -0.08246840134308064
vn 0.048612040415903904 0.9954154429406972 -0.08237090191188837
vn -0.06026135659357663 0.9947825034546403 -0.08231852599518756
vn 0.06026135659357663 -0.9947825034546403 0.08231852599518756
vn -0.2397116498212222 -0.9675371242028473 0.08006396336225145
vn 0.2397116498212222 0.9675371242028473 -0.08006396336225145
vn -0.2780979785752809 0.9572807628966362 -0.07921524664088839
vn 0.2780979785752809 -0.9572807628966362 0.07921524664088839
vn -0.5763850933093483 -0.8143946377838452 0.06739138045546421
vn 0.5763850933093483 0.8143946377838452 -0.06739138045546421
vn -0.5657972242924513 0.8217357580133798 -0.06799886017525235
vn 0.5657972242924513 -0.8217357580133798 0.06799886017525235
vn -0.8922493325168607 -0.45000495271564 0.03723803371032516
vn 0.8922493325168607 0.45000495271564 -0.03723803371032516
vn -0.6901367207185721 0.7212139257018425 -0.059680650880773664
vn 0.6901367207185721 -0.7212139257018425 0.059680650880773664
vn -0.9999976481936168 -0.00216139256673658 0.00017885582986512885
vn 0.9999976481936168 0.00216139256673658 -0.00017885582986512885
vn -0.9268840104771869 0.3740693250993425 -0.030954339622235413
vn -0.8454744557316989 0.5321968366066139 -0.04403943472730747
vn 0.9268840104771869 -0.3740693250993425 0.030954339622235413
vn 0.8454744557316989 -0.5321968366066139 0.04403943472730747
usemtl material_0_0
f 1//1 2//1 3//1
f 2//1 1//1 4//1
f 5//2 6//2 7//2
f 8//2 7//2 6//2
f 9//3 10//4 11//3
f 10//4 9//3 12//4
f 13//5 14//6 15//5
f 16//6 15//5 14//6
f 17//5 18//7 19//5
f 18//7 17//5 20//7
f 21//8 22//4 23//8
f 24//4 23//8 22//4
f 25//9 11//3 26//9
f 11//3 25//9 9//3
f 14//6 27//10 16//6
f 28//10 16//6 27//10
f 20//7 29//11 18//7
f 29//11 20//7 30//11
f 31//12 21//8 32//12
f 23//8 32//12 21//8
f 33//13 26//9 34//13
f 26//9 33//13 25//9
f 27//10 35//14 28//10
f 36//14 28//10 35//14
f 30//11 37//15 29//11
f 37//15 30//11 38//15
f 39//16 31//12 40//16
f 32//12 40//16 31//12
f 33//13 41//17 42//17
f 41//17 33//13 34//13
f 36//14 35//14 43//18
f 44//18 43//18 35//14
f 45//19 37//15 38//15
f 37//15 45//19 46//19
f 47//20 48//20 40//16
f 39//16 40//16 48//20
f 42//17 49//21 50//21
f 49//21 42//17 41//17
f 43//18 44//18 51//22
f 52//22 51//22 44//18
f 53//23 54//24 55//24
f 54//24 53//23 56//23
f 57//25 58//25 59//26
f 60//26 59//26 58//25
f 50//21 56//23 53//23
f 56//23 50//21 49//21
f 51//22 52//22 57//25
f 58//25 57//25 52//22
