# SSTK version 0.8.0
# 58
mtllib original-58.mtl
o group_26/ID354#ID354
v 0.379384 0.485838 0.409211
v 0.379393 0.488659 0.409246
v 0.379388 0.487246 0.409300
v 0.379393 0.488845 0.409229
v 0.379397 0.490054 0.409050
v 0.379380 0.484456 0.408982
v 0.379401 0.491409 0.408716
v 0.379376 0.483124 0.408615
v 0.379405 0.492702 0.408249
v 0.379372 0.481862 0.408117
v 0.379409 0.493913 0.407657
v 0.379368 0.480690 0.407496
v 0.379412 0.495022 0.406948
v 0.379368 0.480662 0.406269
v 0.379415 0.496012 0.406134
v 0.379377 0.483747 0.406000
v 0.379382 0.485303 0.405871
v 0.379415 0.495986 0.404979
v 0.379385 0.486123 0.405801
v 0.379386 0.486600 0.405751
v 0.379391 0.488295 0.405606
v 0.379391 0.488295 0.405606
v 0.379386 0.486600 0.405751
v 0.379415 0.495986 0.404979
v 0.379385 0.486123 0.405801
v 0.379382 0.485303 0.405871
v 0.379415 0.496012 0.406134
v 0.379377 0.483747 0.406000
v 0.379368 0.480662 0.406269
v 0.379412 0.495022 0.406948
v 0.379368 0.480690 0.407496
v 0.379409 0.493913 0.407657
v 0.379372 0.481862 0.408117
v 0.379405 0.492702 0.408249
v 0.379376 0.483124 0.408615
v 0.379401 0.491409 0.408716
v 0.379380 0.484456 0.408982
v 0.379397 0.490054 0.409050
v 0.379384 0.485838 0.409211
v 0.379393 0.488845 0.409229
v 0.379393 0.488659 0.409246
v 0.379388 0.487246 0.409300
vn 0.9999953623348847 -0.0030443648853331136 -0.00008456457681485137
vn -0.9999953623348847 0.0030443648853331136 0.00008456457681485137
usemtl material_0_0
f 1//1 2//1 3//1
f 2//1 1//1 4//1
f 4//1 1//1 5//1
f 5//1 1//1 6//1
f 5//1 6//1 7//1
f 7//1 6//1 8//1
f 7//1 8//1 9//1
f 9//1 8//1 10//1
f 9//1 10//1 11//1
f 11//1 10//1 12//1
f 11//1 12//1 13//1
f 13//1 12//1 14//1
f 13//1 14//1 15//1
f 15//1 14//1 16//1
f 15//1 16//1 17//1
f 15//1 17//1 18//1
f 18//1 17//1 19//1
f 18//1 19//1 20//1
f 18//1 20//1 21//1
f 22//2 23//2 24//2
f 23//2 25//2 24//2
f 25//2 26//2 24//2
f 24//2 26//2 27//2
f 26//2 28//2 27//2
f 28//2 29//2 27//2
f 27//2 29//2 30//2
f 29//2 31//2 30//2
f 30//2 31//2 32//2
f 31//2 33//2 32//2
f 32//2 33//2 34//2
f 33//2 35//2 34//2
f 34//2 35//2 36//2
f 35//2 37//2 36//2
f 36//2 37//2 38//2
f 37//2 39//2 38//2
f 38//2 39//2 40//2
f 40//2 39//2 41//2
f 42//2 41//2 39//2
