# SSTK version 0.8.0
# 117
mtllib original-117.mtl
o #ID681
v -0.141101 0.498186 0.411225
v -0.139638 0.496846 0.411336
v -0.141101 0.488230 0.412049
v -0.138991 0.498186 0.411225
v -0.139600 0.496846 0.411336
v -0.139191 0.495825 0.411420
v -0.134543 0.488230 0.412049
v -0.134810 0.491243 0.411800
v -0.134182 0.490049 0.411898
v -0.133764 0.488230 0.412049
v -0.134125 0.490049 0.411898
v -0.133469 0.491271 0.411797
v -0.129107 0.495881 0.411416
v -0.129202 0.498186 0.411225
v -0.128698 0.496846 0.411336
v -0.127206 0.498186 0.411225
v -0.128660 0.496846 0.411336
v -0.128793 0.488230 0.412049
v -0.128793 0.494909 0.411496
v -0.127206 0.488230 0.412049
v -0.139562 0.488230 0.412049
v -0.139562 0.494895 0.411497
v -0.139562 0.494895 0.411497
v -0.139638 0.496846 0.411336
v -0.139562 0.488230 0.412049
v -0.141101 0.488230 0.412049
v -0.127206 0.498186 0.411225
v -0.128660 0.496846 0.411336
v -0.127206 0.488230 0.412049
v -0.128793 0.488230 0.412049
v -0.128793 0.494909 0.411496
v -0.128698 0.496846 0.411336
v -0.129202 0.498186 0.411225
v -0.129107 0.495881 0.411416
v -0.133469 0.491271 0.411797
v -0.133764 0.488230 0.412049
v -0.134125 0.490049 0.411898
v -0.134182 0.490049 0.411898
v -0.134543 0.488230 0.412049
v -0.134810 0.491243 0.411800
v -0.138991 0.498186 0.411225
v -0.139191 0.495825 0.411420
v -0.139600 0.496846 0.411336
v -0.141101 0.498186 0.411225
v -0.127206 0.488296 0.412851
v -0.128793 0.488230 0.412049
v -0.127206 0.488230 0.412049
v -0.128793 0.488296 0.412851
v -0.128793 0.488296 0.412851
v -0.127206 0.488296 0.412851
v -0.128793 0.488230 0.412049
v -0.127206 0.488230 0.412049
v -0.128793 0.494975 0.412298
v -0.128793 0.488230 0.412049
v -0.128793 0.488296 0.412851
v -0.128793 0.494909 0.411496
v -0.128793 0.494909 0.411496
v -0.128793 0.494975 0.412298
v -0.128793 0.488230 0.412049
v -0.128793 0.488296 0.412851
v -0.128660 0.496912 0.412138
v -0.128660 0.496846 0.411336
v -0.128660 0.496846 0.411336
v -0.128660 0.496912 0.412138
v -0.128660 0.496912 0.412138
v -0.128698 0.496846 0.411336
v -0.128660 0.496846 0.411336
v -0.128698 0.496912 0.412138
v -0.128698 0.496912 0.412138
v -0.128660 0.496912 0.412138
v -0.128698 0.496846 0.411336
v -0.128660 0.496846 0.411336
v -0.128698 0.496846 0.411336
v -0.129107 0.495947 0.412218
v -0.129107 0.495881 0.411416
v -0.128698 0.496912 0.412138
v -0.128698 0.496912 0.412138
v -0.128698 0.496846 0.411336
v -0.129107 0.495947 0.412218
v -0.129107 0.495881 0.411416
v -0.133764 0.488296 0.412851
v -0.133764 0.488230 0.412049
v -0.133764 0.488296 0.412851
v -0.133764 0.488230 0.412049
v -0.133764 0.488296 0.412851
v -0.134543 0.488230 0.412049
v -0.133764 0.488230 0.412049
v -0.134543 0.488296 0.412851
v -0.134543 0.488296 0.412851
v -0.133764 0.488296 0.412851
v -0.134543 0.488230 0.412049
v -0.133764 0.488230 0.412049
v -0.139191 0.495892 0.412222
v -0.134543 0.488230 0.412049
v -0.134543 0.488296 0.412851
v -0.139191 0.495825 0.411420
v -0.139191 0.495825 0.411420
v -0.139191 0.495892 0.412222
v -0.134543 0.488230 0.412049
v -0.134543 0.488296 0.412851
v -0.139600 0.496912 0.412138
v -0.139600 0.496846 0.411336
v -0.139600 0.496846 0.411336
v -0.139600 0.496912 0.412138
v -0.139600 0.496912 0.412138
v -0.139638 0.496846 0.411336
v -0.139600 0.496846 0.411336
v -0.139638 0.496912 0.412138
v -0.139638 0.496912 0.412138
v -0.139600 0.496912 0.412138
v -0.139638 0.496846 0.411336
v -0.139600 0.496846 0.411336
v -0.139638 0.496846 0.411336
v -0.139562 0.494961 0.412299
v -0.139562 0.494895 0.411497
v -0.139638 0.496912 0.412138
v -0.139638 0.496912 0.412138
v -0.139638 0.496846 0.411336
v -0.139562 0.494961 0.412299
v -0.139562 0.494895 0.411497
v -0.139562 0.488296 0.412851
v -0.139562 0.488230 0.412049
v -0.139562 0.488296 0.412851
v -0.139562 0.488230 0.412049
v -0.139562 0.488296 0.412851
v -0.141101 0.488230 0.412049
v -0.139562 0.488230 0.412049
v -0.141101 0.488296 0.412851
v -0.141101 0.488296 0.412851
v -0.139562 0.488296 0.412851
v -0.141101 0.488230 0.412049
v -0.139562 0.488230 0.412049
v -0.141101 0.498252 0.412027
v -0.141101 0.488230 0.412049
v -0.141101 0.488296 0.412851
v -0.141101 0.498186 0.411225
v -0.141101 0.498186 0.411225
v -0.141101 0.498252 0.412027
v -0.141101 0.488230 0.412049
v -0.141101 0.488296 0.412851
v -0.141101 0.498252 0.412027
v -0.138991 0.498186 0.411225
v -0.141101 0.498186 0.411225
v -0.138991 0.498252 0.412027
v -0.138991 0.498252 0.412027
v -0.141101 0.498252 0.412027
v -0.138991 0.498186 0.411225
v -0.141101 0.498186 0.411225
v -0.138991 0.498186 0.411225
v -0.134810 0.491309 0.412602
v -0.134810 0.491243 0.411800
v -0.138991 0.498252 0.412027
v -0.138991 0.498252 0.412027
v -0.138991 0.498186 0.411225
v -0.134810 0.491309 0.412602
v -0.134810 0.491243 0.411800
v -0.134182 0.490115 0.412700
v -0.134182 0.490049 0.411898
v -0.134182 0.490115 0.412700
v -0.134182 0.490049 0.411898
v -0.134182 0.490115 0.412700
v -0.134125 0.490049 0.411898
v -0.134182 0.490049 0.411898
v -0.134125 0.490115 0.412700
v -0.134125 0.490115 0.412700
v -0.134182 0.490115 0.412700
v -0.134125 0.490049 0.411898
v -0.134182 0.490049 0.411898
v -0.133469 0.491337 0.412599
v -0.134125 0.490049 0.411898
v -0.134125 0.490115 0.412700
v -0.133469 0.491271 0.411797
v -0.133469 0.491271 0.411797
v -0.133469 0.491337 0.412599
v -0.134125 0.490049 0.411898
v -0.134125 0.490115 0.412700
v -0.129202 0.498252 0.412027
v -0.129202 0.498186 0.411225
v -0.129202 0.498186 0.411225
v -0.129202 0.498252 0.412027
v -0.129202 0.498252 0.412027
v -0.127206 0.498186 0.411225
v -0.129202 0.498186 0.411225
v -0.127206 0.498252 0.412027
v -0.127206 0.498252 0.412027
v -0.129202 0.498252 0.412027
v -0.127206 0.498186 0.411225
v -0.129202 0.498186 0.411225
v -0.127206 0.498186 0.411225
v -0.127206 0.488296 0.412851
v -0.127206 0.488230 0.412049
v -0.127206 0.498252 0.412027
v -0.127206 0.498252 0.412027
v -0.127206 0.498186 0.411225
v -0.127206 0.488296 0.412851
v -0.127206 0.488230 0.412049
v -0.139562 0.488296 0.412851
v -0.141101 0.498252 0.412027
v -0.141101 0.488296 0.412851
v -0.139638 0.496912 0.412138
v -0.139562 0.494961 0.412299
v -0.127206 0.488296 0.412851
v -0.128793 0.494975 0.412298
v -0.128793 0.488296 0.412851
v -0.128660 0.496912 0.412138
v -0.138991 0.498252 0.412027
v -0.139600 0.496912 0.412138
v -0.139191 0.495892 0.412222
v -0.134543 0.488296 0.412851
v -0.134810 0.491309 0.412602
v -0.134182 0.490115 0.412700
v -0.133764 0.488296 0.412851
v -0.134125 0.490115 0.412700
v -0.133469 0.491337 0.412599
v -0.129107 0.495947 0.412218
v -0.129202 0.498252 0.412027
v -0.128698 0.496912 0.412138
v -0.127206 0.498252 0.412027
v -0.127206 0.488296 0.412851
v -0.128660 0.496912 0.412138
v -0.127206 0.498252 0.412027
v -0.128698 0.496912 0.412138
v -0.129202 0.498252 0.412027
v -0.129107 0.495947 0.412218
v -0.133469 0.491337 0.412599
v -0.133764 0.488296 0.412851
v -0.134125 0.490115 0.412700
v -0.134182 0.490115 0.412700
v -0.134543 0.488296 0.412851
v -0.134810 0.491309 0.412602
v -0.138991 0.498252 0.412027
v -0.139191 0.495892 0.412222
v -0.139600 0.496912 0.412138
v -0.139638 0.496912 0.412138
v -0.141101 0.498252 0.412027
v -0.128793 0.494975 0.412298
v -0.128793 0.488296 0.412851
v -0.139562 0.494961 0.412299
v -0.139562 0.488296 0.412851
v -0.141101 0.488296 0.412851
vn 0 -0.08246840520314136 -0.9965936795621626
vn 0 0.08246840520314136 0.9965936795621626
vn 0 -0.9965936795621627 0.08246840520314135
vn 0 0.9965936795621627 -0.08246840520314135
vn -0.9994154916264013 0.03406944222585221 -0.002819255855366258
vn -1 0 0
vn 0.9994154916264013 -0.03406944222585221 0.002819255855366258
vn 1 0 0
vn -0.9976651714334469 0.06806235574144162 -0.005632178938593688
vn 0.9976651714334469 -0.06806235574144162 0.005632178938593688
vn 0.9213160513012084 -0.38749009655264177 0.03206491366546382
vn 0.8900230038073693 -0.45436262545181827 0.037598634100695694
vn -0.9213160513012084 0.38749009655264177 -0.03206491366546382
vn -0.8900230038073693 0.45436262545181827 -0.037598634100695694
vn 0.8549974780814086 -0.5168655279544284 0.042770766731741724
vn -0.8549974780814086 0.5168655279544284 -0.042770766731741724
vn -0.8937895543290314 -0.44695891336460863 0.036985974858582384
vn -0.8537878698984268 -0.5188476435807005 0.04293478735316351
vn 0.8937895543290314 0.44695891336460863 -0.036985974858582384
vn 0.8537878698984268 0.5188476435807005 -0.04293478735316351
vn -0.928779448527389 -0.3693703913679815 0.030565503002949294
vn 0.928779448527389 0.3693703913679815 -0.030565503002949294
vn 0.9992466328613362 0.038677166628811654 -0.003200546336050955
vn 0.9998115748148259 0.019345597280201753 -0.0016008535756531625
vn -0.9992466328613362 -0.038677166628811654 0.003200546336050955
vn -0.9998115748148259 -0.019345597280201753 0.0016008535756531625
vn 0.8573979897057921 0.5129008727614159 -0.042442690407705826
vn 0.8719543113043065 0.4879195626441607 -0.04037548002146272
vn -0.8573979897057921 -0.5129008727614159 0.042442690407705826
vn -0.8719543113043065 -0.4879195626441607 0.04037548002146272
vn 0.8859534439648679 0.4621944220032918 -0.038246717451735184
vn -0.8859534439648679 -0.4621944220032918 0.038246717451735184
vn -0.8670978078058419 0.4964411069800087 -0.04108064019421643
vn -0.8818039716763669 0.470009634748291 -0.03889342848815935
vn 0.8670978078058419 -0.4964411069800087 0.04108064019421643
vn 0.8818039716763669 -0.470009634748291 0.03889342848815935
vn -0.8518088084330461 0.5220683874159101 -0.043201304804663256
vn 0.8518088084330461 -0.5220683874159101 0.043201304804663256
usemtl material_0_0
f 1//1 2//1 3//1
f 2//1 1//1 4//1
f 2//1 4//1 5//1
f 5//1 4//1 6//1
f 6//1 4//1 7//1
f 7//1 4//1 8//1
f 7//1 8//1 9//1
f 7//1 9//1 10//1
f 10//1 9//1 11//1
f 10//1 11//1 12//1
f 10//1 12//1 13//1
f 13//1 12//1 14//1
f 13//1 14//1 15//1
f 15//1 14//1 16//1
f 15//1 16//1 17//1
f 17//1 18//1 19//1
f 18//1 17//1 20//1
f 20//1 17//1 16//1
f 2//1 21//1 3//1
f 21//1 2//1 22//1
f 23//2 24//2 25//2
f 26//2 25//2 24//2
f 27//2 28//2 29//2
f 29//2 28//2 30//2
f 31//2 30//2 28//2
f 28//2 27//2 32//2
f 27//2 33//2 32//2
f 32//2 33//2 34//2
f 33//2 35//2 34//2
f 34//2 35//2 36//2
f 35//2 37//2 36//2
f 37//2 38//2 36//2
f 36//2 38//2 39//2
f 38//2 40//2 39//2
f 40//2 41//2 39//2
f 39//2 41//2 42//2
f 42//2 41//2 43//2
f 43//2 41//2 24//2
f 41//2 44//2 24//2
f 26//2 24//2 44//2
f 45//3 46//3 47//3
f 46//3 45//3 48//3
f 49//4 50//4 51//4
f 52//4 51//4 50//4
f 53//5 54//6 55//6
f 54//6 53//5 56//5
f 57//7 58//7 59//8
f 60//8 59//8 58//7
f 61//9 56//5 53//5
f 56//5 61//9 62//9
f 63//10 64//10 57//7
f 58//7 57//7 64//10
f 65//3 66//3 67//3
f 66//3 65//3 68//3
f 69//4 70//4 71//4
f 72//4 71//4 70//4
f 73//11 74//12 75//12
f 74//12 73//11 76//11
f 77//13 78//13 79//14
f 80//14 79//14 78//13
f 75//12 81//15 82//15
f 81//15 75//12 74//12
f 79//14 80//14 83//16
f 84//16 83//16 80//14
f 85//3 86//3 87//3
f 86//3 85//3 88//3
f 89//4 90//4 91//4
f 92//4 91//4 90//4
f 93//17 94//18 95//18
f 94//18 93//17 96//17
f 97//19 98//19 99//20
f 100//20 99//20 98//19
f 101//21 96//17 93//17
f 96//17 101//21 102//21
f 103//22 104//22 97//19
f 98//19 97//19 104//22
f 105//3 106//3 107//3
f 106//3 105//3 108//3
f 109//4 110//4 111//4
f 112//4 111//4 110//4
f 113//23 114//24 115//24
f 114//24 113//23 116//23
f 117//25 118//25 119//26
f 120//26 119//26 118//25
f 115//24 121//8 122//8
f 121//8 115//24 114//24
f 119//26 120//26 123//6
f 124//6 123//6 120//26
f 125//3 126//3 127//3
f 126//3 125//3 128//3
f 129//4 130//4 131//4
f 132//4 131//4 130//4
f 133//6 134//6 135//6
f 134//6 133//6 136//6
f 137//8 138//8 139//8
f 140//8 139//8 138//8
f 141//4 142//4 143//4
f 142//4 141//4 144//4
f 145//3 146//3 147//3
f 148//3 147//3 146//3
f 149//27 150//28 151//28
f 150//28 149//27 152//27
f 153//29 154//29 155//30
f 156//30 155//30 154//29
f 151//28 157//31 158//31
f 157//31 151//28 150//28
f 155//30 156//30 159//32
f 160//32 159//32 156//30
f 161//4 162//4 163//4
f 162//4 161//4 164//4
f 165//3 166//3 167//3
f 168//3 167//3 166//3
f 169//33 170//34 171//34
f 170//34 169//33 172//33
f 173//35 174//35 175//36
f 176//36 175//36 174//35
f 177//37 172//33 169//33
f 172//33 177//37 178//37
f 179//38 180//38 173//35
f 174//35 173//35 180//38
f 181//4 182//4 183//4
f 182//4 181//4 184//4
f 185//3 186//3 187//3
f 188//3 187//3 186//3
f 189//8 190//8 191//8
f 190//8 189//8 192//8
f 193//6 194//6 195//6
f 196//6 195//6 194//6
f 197//2 198//2 199//2
f 198//2 197//2 200//2
f 200//2 197//2 201//2
f 202//2 203//2 204//2
f 203//2 202//2 205//2
f 200//2 206//2 198//2
f 206//2 200//2 207//2
f 206//2 207//2 208//2
f 206//2 208//2 209//2
f 206//2 209//2 210//2
f 210//2 209//2 211//2
f 211//2 209//2 212//2
f 211//2 212//2 213//2
f 213//2 212//2 214//2
f 214//2 212//2 215//2
f 214//2 215//2 216//2
f 216//2 215//2 217//2
f 216//2 217//2 218//2
f 218//2 217//2 205//2
f 218//2 205//2 202//2
f 219//1 220//1 221//1
f 220//1 222//1 221//1
f 221//1 222//1 223//1
f 222//1 224//1 223//1
f 223//1 224//1 225//1
f 224//1 226//1 225//1
f 225//1 226//1 227//1
f 227//1 226//1 228//1
f 226//1 229//1 228//1
f 228//1 229//1 230//1
f 230//1 229//1 231//1
f 229//1 232//1 231//1
f 232//1 233//1 231//1
f 233//1 234//1 231//1
f 235//1 231//1 234//1
f 220//1 219//1 236//1
f 237//1 236//1 219//1
f 238//1 239//1 234//1
f 234//1 239//1 235//1
f 240//1 235//1 239//1
