# SSTK version 0.8.0
# 24
mtllib original-24.mtl
o #ID102
v 0.200338 0.093115 0.408062
v 0.199475 0.091926 0.408536
v 0.200366 0.093087 0.408536
v 0.199404 0.053454 0.408575
v 0.198853 0.091001 0.408877
v 0.198853 0.052145 0.408877
v 0.201258 0.055827 0.407558
v 0.201258 0.093872 0.407558
v 0.199475 0.091926 0.408536
v 0.200338 0.093115 0.408062
v 0.196333 0.087320 0.410057
v 0.196333 0.046140 0.410057
v 0.201258 0.055827 0.407558
v 0.199404 -0.057451 0.408575
v 0.201258 -0.059824 0.407558
v 0.198853 -0.056142 0.408877
v 0.198853 0.052145 0.408877
v 0.199404 0.053454 0.408575
v 0.203534 0.058732 0.406108
v 0.203534 0.095768 0.406108
v 0.193710 0.083553 0.411092
v 0.193710 0.039878 0.411092
v 0.196333 -0.050137 0.410057
v 0.196333 0.046140 0.410057
v 0.203534 0.058732 0.406108
v 0.203534 -0.062729 0.406108
v 0.201258 -0.059824 0.407558
v 0.200338 -0.097112 0.408062
v 0.201258 -0.097869 0.407558
v 0.199475 -0.095923 0.408536
v 0.198853 -0.094998 0.408877
v 0.199404 -0.057451 0.408575
v 0.198853 -0.056142 0.408877
v 0.203599 0.058816 0.406060
v 0.204251 0.089202 0.405580
v 0.204457 0.096546 0.405428
v 0.190998 0.079638 0.411977
v 0.190998 0.033390 0.411977
v 0.192188 0.081402 0.411589
v 0.193710 -0.043875 0.411092
v 0.193710 0.039878 0.411092
v 0.196333 -0.091317 0.410057
v 0.196333 -0.050137 0.410057
v 0.204457 0.096546 0.405428
v 0.204251 -0.093199 0.405580
v 0.204457 -0.100543 0.405428
v 0.203599 -0.062813 0.406060
v 0.203534 -0.062729 0.406108
v 0.203599 0.058816 0.406060
v 0.203534 0.058732 0.406108
v 0.204251 0.089202 0.405580
v 0.203534 -0.062729 0.406108
v 0.203534 -0.099765 0.406108
v 0.188212 0.075604 0.412708
v 0.188221 0.026734 0.412706
v 0.190998 -0.037387 0.411977
v 0.190998 0.033390 0.411977
v 0.193710 -0.087550 0.411092
v 0.193710 -0.043875 0.411092
v 0.204251 -0.093199 0.405580
v 0.204457 -0.100543 0.405428
v 0.203599 -0.062813 0.406060
v 0.188212 0.026664 0.412708
v 0.185365 0.071579 0.413281
v 0.185365 0.005151 0.413281
v 0.188221 -0.030731 0.412706
v 0.188212 -0.030661 0.412708
v 0.188212 0.026664 0.412708
v 0.188221 0.026734 0.412706
v 0.192188 -0.085399 0.411589
v 0.190998 -0.083635 0.411977
v 0.190998 -0.037387 0.411977
v 0.185365 -0.009148 0.413281
v 0.182472 -0.071580 0.413691
v 0.185365 -0.075576 0.413281
v 0.184420 -0.001998 0.413415
v 0.182472 0.067583 0.413691
v 0.185365 -0.009148 0.413281
v 0.185365 0.005151 0.413281
v 0.188221 -0.030731 0.412706
v 0.188212 -0.079601 0.412708
v 0.188212 -0.030661 0.412708
v 0.184420 -0.001998 0.413415
v 0.180213 -0.068531 0.413883
v 0.179549 -0.066878 0.413939
v 0.179549 0.062881 0.413939
v 0.180213 0.064534 0.413883
v 0.176610 -0.059712 0.414022
v 0.176610 0.055715 0.414022
v 0.176610 0.055715 0.414022
v 0.166965 -0.036426 0.414022
v 0.176610 -0.059712 0.414022
v 0.162433 -0.001998 0.414022
v 0.166965 0.032429 0.414022
vn -0.6837720878829925 0.7250743871510816 0.08199307854701493
vn -0.7790472828127448 0.5977839868117556 0.18904929582921542
vn -0.6999623879628308 0.6999623879628308 0.14179319756159958
vn 0.4808078829365107 0 0.8768259688821439
vn 0.4692424791134054 0 0.8830693606934312
vn 0.43219208586710944 0 0.9017815705113057
vn 0.49437419472841876 0 0.8692491907310743
vn 0.5204702151102707 0 0.8538798247898053
vn 0.41251859168226396 0 0.9109491816322585
vn 0.37509220306504903 0 0.9269875075748367
vn 0.5243313222148227 0 0.8515143360768835
vn 0.4730473133857514 0 0.8810370249305772
vn 0.5512074300446642 0 0.8343682454789112
vn 0.5763831067374086 0 0.8171796095521066
vn 0.3557025992374804 0 0.9345991979964998
vn 0.31806029564156574 0 0.9480704870084291
vn 0.4164467948647425 0 0.9091600887890333
vn 0.5373046297988081 0 0.8433882467741447
vn 0.5932593792898138 0 0.8050113718977298
vn 0.2992616920453101 0 0.9541710746371314
vn 0.2611683884846355 0 0.9652932574385561
vn 0.3103627050088615 0 0.9506182153417756
vn 0.35974230048885747 0 0.9330517012679335
vn 0.24249320127477833 -4.6864690267907774e-7 0.9701531051000611
vn 0.203935006151427 -0.0000020768160628617605 0.9789844295297574
vn 0.3030549905524715 0 0.9529730702917274
vn 0.19715350617104582 -0.000002357950074023211 0.9803726306863648
vn 0.18587199387890493 -0.0000018855379381240602 0.9825739676420931
vn 0.14308049349388188 -1.0066769564222533e-7 0.9897110549961222
vn 0.25365498869560693 0 0.9672947568915234
vn 0.25125479538142936 0 0.9679209822076572
vn 0.14308049349388188 1.0066769520270534e-7 0.9897110549961222
vn 0.12926160355826113 0 0.9916105272966533
vn 0.18587199387890493 0.0000018855379376877097 0.9825739676420931
vn 0.14065909832697115 0 0.9900580882240412
vn 0.19471620453157185 0 0.9808596228272519
vn 0.203935006151427 0.000002076816062427004 0.9789844295297574
vn 0.24249320127477833 4.686469022482432e-7 0.9701531051000611
vn 0.19715350617104582 0.0000023579500735878377 0.9803726306863648
vn 0.08434536834430056 0 0.9964365804399515
vn 0.07740333699508 0 0.996999861294888
vn 0.0281064809792017 0 0.9996049348252366
vn 0 0 1
usemtl material_0_0
f 1//1 2//2 3//3
f 4//4 5//5 6//6
f 5//5 4//4 7//7
f 5//5 7//7 8//8
f 5//5 8//8 9//4
f 9//4 8//8 10//4
f 6//6 11//9 12//10
f 11//9 6//6 5//5
f 13//11 14//4 15//11
f 14//4 13//11 16//12
f 16//12 13//11 17//12
f 17//12 13//11 18//4
f 19//13 8//8 7//7
f 8//8 19//13 20//14
f 12//10 21//15 22//16
f 21//15 12//10 11//9
f 17//12 23//17 16//12
f 23//17 17//12 24//17
f 25//18 15//11 26//18
f 15//11 25//18 13//11
f 27//7 28//4 29//8
f 28//4 27//7 30//4
f 30//4 27//7 31//5
f 31//5 27//7 32//4
f 31//5 32//4 33//6
f 34//19 20//14 19//13
f 20//14 34//19 35//19
f 20//14 35//19 36//19
f 22//16 37//20 38//21
f 37//20 22//16 21//15
f 37//20 21//15 39//22
f 24//17 40//23 23//17
f 40//23 24//17 41//23
f 33//6 42//9 31//5
f 42//9 33//6 43//10
f 44//19 45//19 46//19
f 45//19 44//19 47//19
f 47//19 44//19 48//19
f 48//19 44//19 49//19
f 48//19 49//19 50//19
f 49//19 44//19 51//19
f 52//13 29//8 53//14
f 29//8 52//13 27//7
f 38//21 54//24 55//25
f 54//24 38//21 37//20
f 41//23 56//26 40//23
f 56//26 41//23 57//26
f 43//10 58//15 42//9
f 58//15 43//10 59//16
f 60//19 53//14 61//19
f 53//14 60//19 52//13
f 52//13 60//19 62//19
f 63//27 64//28 65//29
f 64//28 63//27 55//25
f 64//28 55//25 54//24
f 57//26 66//30 56//26
f 66//30 57//26 67//31
f 67//31 57//26 68//31
f 68//31 57//26 69//30
f 59//16 70//22 58//15
f 70//22 59//16 71//20
f 71//20 59//16 72//21
f 73//32 74//33 75//34
f 74//33 73//32 76//35
f 74//33 76//35 77//33
f 77//33 76//35 65//29
f 77//33 65//29 64//28
f 68//31 78//36 67//31
f 78//36 68//31 79//36
f 80//37 75//34 81//38
f 75//34 80//37 82//39
f 75//34 82//39 73//32
f 72//21 81//38 71//20
f 81//38 72//21 80//37
f 79//36 83//35 78//36
f 77//33 84//40 74//33
f 84//40 77//33 85//41
f 85//41 77//33 86//41
f 86//41 77//33 87//40
f 86//41 88//42 85//41
f 88//42 86//41 89//42
f 90//43 91//43 92//43
f 91//43 90//43 93//43
f 93//43 90//43 94//43
