# SSTK version 0.8.0
# 106
mtllib original-106.mtl
o #ID624
v 0.221186 0.510652 0.397779
v 0.219894 0.506068 0.399121
v 0.219894 0.508372 0.398447
v 0.227251 0.506068 0.399121
v 0.225933 0.510652 0.397779
v 0.227251 0.508371 0.398447
v 0.227251 0.508371 0.398447
v 0.225933 0.510652 0.397779
v 0.227251 0.506068 0.399121
v 0.221186 0.510652 0.397779
v 0.219894 0.506068 0.399121
v 0.219894 0.508372 0.398447
v 0.221186 0.512324 0.403496
v 0.219894 0.508372 0.398447
v 0.219894 0.510044 0.404163
v 0.221186 0.510652 0.397779
v 0.221186 0.510652 0.397779
v 0.221186 0.512324 0.403496
v 0.219894 0.508372 0.398447
v 0.219894 0.510044 0.404163
v 0.221186 0.512324 0.403496
v 0.225933 0.510652 0.397779
v 0.221186 0.510652 0.397779
v 0.225933 0.512324 0.403496
v 0.225933 0.512324 0.403496
v 0.221186 0.512324 0.403496
v 0.225933 0.510652 0.397779
v 0.221186 0.510652 0.397779
v 0.225933 0.512324 0.403496
v 0.227251 0.508371 0.398447
v 0.225933 0.510652 0.397779
v 0.227251 0.510043 0.404163
v 0.227251 0.510043 0.404163
v 0.225933 0.512324 0.403496
v 0.227251 0.508371 0.398447
v 0.225933 0.510652 0.397779
v 0.227251 0.506068 0.399121
v 0.227251 0.510043 0.404163
v 0.227251 0.507740 0.404837
v 0.227251 0.508371 0.398447
v 0.227251 0.508371 0.398447
v 0.227251 0.506068 0.399121
v 0.227251 0.510043 0.404163
v 0.227251 0.507740 0.404837
v 0.227251 0.507740 0.404837
v 0.219894 0.506068 0.399121
v 0.227251 0.506068 0.399121
v 0.219894 0.507740 0.404837
v 0.219894 0.507740 0.404837
v 0.227251 0.507740 0.404837
v 0.219894 0.506068 0.399121
v 0.227251 0.506068 0.399121
v 0.219894 0.510044 0.404163
v 0.219894 0.506068 0.399121
v 0.219894 0.507740 0.404837
v 0.219894 0.508372 0.398447
v 0.219894 0.508372 0.398447
v 0.219894 0.510044 0.404163
v 0.219894 0.506068 0.399121
v 0.219894 0.507740 0.404837
v 0.227251 0.507740 0.404837
v 0.219894 0.510044 0.404163
v 0.219894 0.507740 0.404837
v 0.221186 0.512324 0.403496
v 0.225933 0.512324 0.403496
v 0.227251 0.510043 0.404163
v 0.227251 0.510043 0.404163
v 0.227251 0.507740 0.404837
v 0.225933 0.512324 0.403496
v 0.221186 0.512324 0.403496
v 0.219894 0.510044 0.404163
v 0.219894 0.507740 0.404837
vn 0 -0.2807530017676192 -0.9597800539699037
vn 0 0.2807530017676192 0.9597800539699037
vn -0.8786009687735984 0.4583493309419662 -0.13407545821344846
vn 0.8786009687735984 -0.4583493309419662 0.13407545821344846
vn 0 0.9597800539699037 -0.2807530017676192
vn 0 -0.9597800539699037 0.2807530017676192
vn 0.8746482827316897 0.46526112172069317 -0.13609728186010425
vn -0.8746482827316897 -0.46526112172069317 0.13609728186010425
vn 1 0 0
vn -1 0 0
usemtl material_0_0
f 1//1 2//1 3//1
f 2//1 1//1 4//1
f 4//1 1//1 5//1
f 4//1 5//1 6//1
f 7//2 8//2 9//2
f 8//2 10//2 9//2
f 9//2 10//2 11//2
f 12//2 11//2 10//2
f 13//3 14//3 15//3
f 14//3 13//3 16//3
f 17//4 18//4 19//4
f 20//4 19//4 18//4
f 21//5 22//5 23//5
f 22//5 21//5 24//5
f 25//6 26//6 27//6
f 28//6 27//6 26//6
f 29//7 30//7 31//7
f 30//7 29//7 32//7
f 33//8 34//8 35//8
f 36//8 35//8 34//8
f 37//9 38//9 39//9
f 38//9 37//9 40//9
f 41//10 42//10 43//10
f 44//10 43//10 42//10
f 45//6 46//6 47//6
f 46//6 45//6 48//6
f 49//5 50//5 51//5
f 52//5 51//5 50//5
f 53//10 54//10 55//10
f 54//10 53//10 56//10
f 57//9 58//9 59//9
f 60//9 59//9 58//9
f 61//2 62//2 63//2
f 62//2 61//2 64//2
f 64//2 61//2 65//2
f 65//2 61//2 66//2
f 67//1 68//1 69//1
f 69//1 68//1 70//1
f 70//1 68//1 71//1
f 72//1 71//1 68//1
