# SSTK version 0.8.0
# 1
mtllib original-1.mtl
o #ID1673
v 0.357430 -0.636220 0.371047
v 0.357430 -0.656341 0.371047
v 0.329262 -0.656341 0.371047
v 0.329262 -0.636220 0.371047
v 0.385599 -0.636220 0.371047
v 0.357430 -0.676461 0.371047
v 0.329262 -0.636220 0.371369
v 0.357430 -0.616099 0.371047
v 0.385599 -0.616099 0.371047
v 0.385599 -0.656341 0.371047
v 0.385599 -0.676461 0.371047
v 0.329262 -0.676461 0.371047
v 0.329262 -0.656341 0.371369
v 0.329262 -0.616099 0.371369
v 0.329262 -0.616099 0.371047
v 0.413768 -0.636220 0.371047
v 0.413768 -0.656341 0.371047
v 0.385599 -0.696582 0.371047
v 0.357430 -0.696582 0.371047
v 0.329262 -0.676461 0.371369
v 0.329262 -0.636220 0.371691
v 0.329262 -0.616099 0.371691
v 0.357430 -0.616099 0.371369
v 0.413768 -0.616099 0.371047
v 0.413768 -0.676461 0.371047
v 0.329262 -0.696582 0.371047
v 0.329262 -0.696582 0.371369
v 0.329262 -0.676461 0.371691
v 0.329262 -0.656341 0.371691
v 0.385599 -0.616099 0.371369
v 0.413768 -0.616099 0.371369
v 0.441937 -0.636220 0.371047
v 0.441937 -0.656341 0.371047
v 0.357430 -0.696582 0.371369
v 0.413768 -0.696582 0.371047
v 0.329262 -0.696582 0.371691
v 0.329262 -0.656341 0.372013
v 0.329262 -0.636220 0.372013
v 0.357430 -0.616099 0.371691
v 0.441937 -0.616099 0.371369
v 0.441937 -0.616099 0.371047
v 0.385599 -0.696582 0.371369
v 0.441937 -0.676461 0.371047
v 0.413768 -0.696582 0.371369
v 0.329262 -0.676461 0.372013
v 0.329262 -0.616099 0.372013
v 0.357430 -0.616099 0.372013
v 0.385599 -0.616099 0.371691
v 0.413768 -0.616099 0.371691
v 0.441937 -0.616099 0.371691
v 0.441937 -0.636220 0.371369
v 0.357430 -0.696582 0.371691
v 0.441937 -0.696582 0.371047
v 0.441937 -0.696582 0.371369
v 0.329262 -0.696582 0.372013
v 0.329262 -0.656341 0.372335
v 0.329262 -0.636220 0.372335
v 0.385599 -0.616099 0.372013
v 0.441937 -0.656341 0.371369
v 0.441937 -0.676461 0.371369
v 0.413768 -0.696582 0.371691
v 0.385599 -0.696582 0.371691
v 0.441937 -0.696582 0.371691
v 0.357430 -0.696582 0.372013
v 0.329262 -0.676461 0.372335
v 0.329262 -0.616099 0.372335
v 0.357430 -0.616099 0.372335
v 0.385599 -0.616099 0.372335
v 0.413768 -0.616099 0.372013
v 0.441937 -0.636220 0.371691
v 0.385599 -0.696582 0.372013
v 0.357430 -0.696582 0.372335
v 0.329262 -0.696582 0.372335
v 0.357430 -0.636220 0.372335
v 0.441937 -0.616099 0.372013
v 0.441937 -0.636220 0.372013
v 0.441937 -0.656341 0.371691
v 0.441937 -0.676461 0.371691
v 0.413768 -0.696582 0.372013
v 0.385599 -0.696582 0.372335
v 0.357430 -0.676461 0.372335
v 0.357430 -0.656341 0.372335
v 0.413768 -0.616099 0.372335
v 0.441937 -0.656341 0.372013
v 0.441937 -0.696582 0.372013
v 0.441937 -0.676461 0.372013
v 0.385599 -0.636220 0.372335
v 0.413768 -0.636220 0.372335
v 0.441937 -0.616099 0.372335
v 0.441937 -0.636220 0.372335
v 0.441937 -0.656341 0.372335
v 0.413768 -0.696582 0.372335
v 0.385599 -0.676461 0.372335
v 0.385599 -0.656341 0.372335
v 0.441937 -0.676461 0.372335
v 0.441937 -0.696582 0.372335
v 0.413768 -0.676461 0.372335
v 0.413768 -0.656341 0.372335
vn 0 0 -1
vn -0.7071067811865476 0 -0.7071067811865476
vn -1 0 0
vn 0 0.7071067811865477 -0.7071067811865475
vn -0.7071067811865476 0.7071067811865476 0
vn -0.5773502691896257 0.5773502691896258 -0.5773502691896256
vn 0 -0.7071067811865475 -0.7071067811865477
vn 0 1 0
vn -0.5773502691896257 -0.5773502691896256 -0.5773502691896258
vn -0.7071067811865476 -0.7071067811865476 0
vn 0.7071067811865476 0 -0.7071067811865476
vn 0 -1 0
vn 0.7071067811865476 0.7071067811865476 0
vn 0.5773502691896257 0.5773502691896258 -0.5773502691896256
vn 1 0 0
vn 0.5773502691896257 -0.5773502691896256 -0.5773502691896258
vn 0.7071067811865476 -0.7071067811865476 0
vn -0.7071067811865476 0 0.7071067811865476
vn -0.5773502691896257 0.5773502691896256 0.5773502691896258
vn 0 0.7071067811865475 0.7071067811865477
vn 0 -0.7071067811865477 0.7071067811865475
vn -0.5773502691896257 -0.5773502691896258 0.5773502691896256
vn 0 0 1
vn 0.5773502691896257 0.5773502691896256 0.5773502691896258
vn 0.7071067811865476 0 0.7071067811865476
vn 0.5773502691896257 -0.5773502691896258 0.5773502691896256
usemtl material_0_0
f 1//1 2//1 3//2
f 1//1 3//2 4//2
f 5//1 2//1 1//1
f 2//1 6//1 3//2
f 3//2 7//3 4//2
f 8//4 1//1 4//2
f 9//4 5//1 1//1
f 5//1 10//1 2//1
f 2//1 11//1 6//1
f 3//2 6//1 12//2
f 3//2 13//3 7//3
f 4//2 7//3 14//5
f 8//4 4//2 15//6
f 9//4 1//1 8//4
f 9//4 16//1 5//1
f 10//1 11//1 2//1
f 5//1 17//1 10//1
f 11//1 18//7 6//1
f 6//1 19//7 12//2
f 12//2 20//3 3//2
f 3//2 20//3 13//3
f 13//3 21//3 7//3
f 4//2 14//5 15//6
f 7//3 22//5 14//5
f 8//4 15//6 14//5
f 9//4 8//4 23//8
f 24//4 16//1 9//4
f 16//1 17//1 5//1
f 17//1 11//1 10//1
f 6//1 18//7 19//7
f 25//1 18//7 11//1
f 12//2 19//7 26//9
f 12//2 27//10 20//3
f 20//3 28//3 13//3
f 13//3 29//3 21//3
f 7//3 21//3 22//5
f 23//8 14//5 22//5
f 8//4 14//5 23//8
f 9//4 23//8 30//8
f 24//4 9//4 31//8
f 24//4 32//11 16//1
f 16//1 33//11 17//1
f 17//1 25//1 11//1
f 18//7 34//12 19//7
f 25//1 35//7 18//7
f 26//9 27//10 12//2
f 19//7 27//10 26//9
f 27//10 36//10 20//3
f 20//3 36//10 28//3
f 13//3 28//3 29//3
f 29//3 37//3 21//3
f 21//3 38//3 22//5
f 23//8 22//5 39//8
f 30//8 23//8 39//8
f 31//8 9//4 30//8
f 40//13 24//4 31//8
f 41//14 32//11 24//4
f 32//11 33//11 16//1
f 33//11 25//1 17//1
f 42//12 34//12 18//7
f 34//12 27//10 19//7
f 43//11 35//7 25//1
f 44//12 18//7 35//7
f 34//12 36//10 27//10
f 36//10 45//3 28//3
f 28//3 37//3 29//3
f 21//3 37//3 38//3
f 22//5 38//3 46//5
f 39//8 22//5 47//8
f 30//8 39//8 48//8
f 31//8 30//8 49//8
f 41//14 24//4 40//13
f 40//13 31//8 50//13
f 41//14 40//13 32//11
f 32//11 51//15 33//11
f 33//11 43//11 25//1
f 44//12 42//12 18//7
f 42//12 52//12 34//12
f 43//11 53//16 35//7
f 54//17 44//12 35//7
f 52//12 36//10 34//12
f 36//10 55//10 45//3
f 28//3 45//3 37//3
f 37//3 56//18 38//3
f 38//3 57//18 46//5
f 47//8 22//5 46//5
f 58//8 39//8 47//8
f 49//8 30//8 48//8
f 48//8 39//8 58//8
f 50//13 31//8 49//8
f 40//13 50//13 51//15
f 32//11 40//13 51//15
f 33//11 51//15 59//15
f 33//11 60//15 43//11
f 61//12 42//12 44//12
f 62//12 52//12 42//12
f 54//17 35//7 53//16
f 43//11 54//17 53//16
f 63//17 44//12 54//17
f 64//12 36//10 52//12
f 64//12 55//10 36//10
f 55//10 65//18 45//3
f 45//3 56//18 37//3
f 38//3 56//18 57//18
f 46//5 57//18 66//19
f 47//8 46//5 67//20
f 58//8 47//8 68//20
f 49//8 48//8 58//8
f 50//13 49//8 69//8
f 51//15 50//13 70//15
f 51//15 70//15 59//15
f 33//11 59//15 60//15
f 43//11 60//15 54//17
f 63//17 61//12 44//12
f 61//12 62//12 42//12
f 71//12 52//12 62//12
f 60//15 63//17 54//17
f 71//12 64//12 52//12
f 72//21 55//10 64//12
f 55//10 73//22 65//18
f 45//3 65//18 56//18
f 57//18 56//18 74//23
f 67//20 46//5 66//19
f 66//19 57//18 67//20
f 68//20 47//8 67//20
f 69//8 58//8 68//20
f 49//8 58//8 69//8
f 50//13 69//8 75//13
f 50//13 76//15 70//15
f 59//15 70//15 77//15
f 59//15 78//15 60//15
f 63//17 79//12 61//12
f 61//12 71//12 62//12
f 60//15 78//15 63//17
f 80//21 64//12 71//12
f 72//21 73//22 55//10
f 80//21 72//21 64//12
f 65//18 73//22 72//21
f 56//18 65//18 81//23
f 74//23 56//18 82//23
f 67//20 57//18 74//23
f 67//20 74//23 68//20
f 69//8 68//20 83//20
f 75//13 69//8 83//20
f 50//13 75//13 76//15
f 70//15 76//15 84//15
f 59//15 77//15 78//15
f 70//15 84//15 77//15
f 85//17 79//12 63//17
f 79//12 71//12 61//12
f 78//15 86//15 63//17
f 79//12 80//21 71//12
f 81//23 72//21 80//21
f 65//18 72//21 81//23
f 56//18 81//23 82//23
f 74//23 82//23 87//23
f 68//20 74//23 87//23
f 68//20 88//23 83//20
f 75//13 83//20 89//24
f 75//13 90//25 76//15
f 76//15 91//25 84//15
f 77//15 84//15 78//15
f 63//17 86//15 85//17
f 85//17 92//21 79//12
f 78//15 84//15 86//15
f 92//21 80//21 79//12
f 81//23 80//21 93//23
f 82//23 81//23 93//23
f 87//23 82//23 94//23
f 68//20 87//23 88//23
f 83//20 88//23 90//25
f 75//13 89//24 90//25
f 83//20 90//25 89//24
f 76//15 90//25 91//25
f 84//15 91//25 86//15
f 86//15 95//25 85//17
f 96//26 92//21 85//17
f 97//23 80//21 92//21
f 93//23 80//21 97//23
f 82//23 93//23 94//23
f 87//23 94//23 98//23
f 87//23 98//23 88//23
f 88//23 91//25 90//25
f 86//15 91//25 95//25
f 85//17 95//25 96//26
f 95//25 92//21 96//26
f 97//23 92//21 95//25
f 98//23 93//23 97//23
f 94//23 93//23 98//23
f 88//23 98//23 91//25
f 91//25 97//23 95//25
f 98//23 97//23 91//25
