# SSTK version 0.8.0
# 20
mtllib original-20.mtl
o #ID83
v 0.131698 -0.253558 0.429892
v 0.133022 -0.253388 0.430059
v 0.131977 -0.254024 0.430059
v 0.132736 -0.252926 0.429892
v 0.132736 -0.252926 0.429892
v 0.131698 -0.253558 0.429892
v 0.133022 -0.253388 0.430059
v 0.131977 -0.254024 0.430059
v 0.133309 -0.253853 0.430216
v 0.132257 -0.254493 0.430216
v 0.133309 -0.253853 0.430216
v 0.132257 -0.254493 0.430216
vn 0.16638409768965284 -0.2779839961400183 -0.9460661868632799
vn 0.1497773989825262 -0.24232739835381165 -0.9585635934882476
vn 0.14630450268827652 -0.2444362044914002 -0.9585645176131727
vn 0.1703364948930965 -0.2755901917374573 -0.9460631716358299
vn 0.13354290538560787 -0.21606120871346113 -0.9672041390060573
vn 0.13044439935314056 -0.2179380989192687 -0.9672058952037323
vn -0.1703364948930965 0.2755901917374573 0.9460631716358299
vn -0.16638409768965284 0.2779839961400183 0.9460661868632799
vn -0.1497773989825262 0.24232739835381165 0.9585635934882476
vn -0.14630450268827652 0.2444362044914002 0.9585645176131727
vn -0.13354290538560787 0.21606120871346113 0.9672041390060573
vn -0.13044439935314056 0.2179380989192687 0.9672058952037323
usemtl material_0_0
f 5//7 6//8 7//9
f 8//10 7//9 6//8
f 7//9 8//10 11//11
f 12//12 11//11 8//10
usemtl material_1_0
f 1//1 2//2 3//3
f 2//2 1//1 4//4
f 3//3 9//5 10//6
f 9//5 3//3 2//2
