# SSTK version 0.8.0
# 15
mtllib original-15.mtl
o #ID53
v 0.118292 -0.229557 0.406842
v 0.117729 -0.230221 0.408736
v 0.117588 -0.229985 0.406842
v 0.118436 -0.229790 0.408736
v 0.118436 -0.229790 0.408736
v 0.118292 -0.229557 0.406842
v 0.117729 -0.230221 0.408736
v 0.117588 -0.229985 0.406842
v 0.117963 -0.230612 0.410594
v 0.118676 -0.230178 0.410594
v 0.118676 -0.230178 0.410594
v 0.117963 -0.230612 0.410594
v 0.118244 -0.229478 0.404930
v 0.117541 -0.229906 0.404930
v 0.118244 -0.229478 0.404930
v 0.117541 -0.229906 0.404930
v 0.118287 -0.231154 0.412401
v 0.119008 -0.230715 0.412401
v 0.119008 -0.230715 0.412401
v 0.118287 -0.231154 0.412401
v 0.118700 -0.231842 0.414138
v 0.119430 -0.231398 0.414138
v 0.119430 -0.231398 0.414138
v 0.118700 -0.231842 0.414138
v 0.119195 -0.232670 0.415790
v 0.119937 -0.232219 0.415790
v 0.119937 -0.232219 0.415790
v 0.119195 -0.232670 0.415790
vn 0.5233309246904863 -0.8467058399471498 -0.09598939452873087
vn 0.5041088223115746 -0.8422328372767545 -0.19109720845785577
vn 0.511201874153406 -0.8540833568171659 -0.09599095514665483
vn 0.516069910707207 -0.8349580173233667 -0.19109410396474233
vn 0.492359397348465 -0.8226025955699847 -0.2844418984681768
vn 0.5040419956717285 -0.8154979929972168 -0.2844374975574999
vn 0.5256069144404182 -0.8503881233633915 -0.024029380660178536
vn 0.5134251018711337 -0.8577979031261708 -0.02402961008757404
vn 0.4760611962063065 -0.7953725936617394 -0.3751641970103467
vn 0.487357608907016 -0.7885040144108099 -0.37515860685645147
vn 0.45536369434194895 -0.7607925905468895 -0.46242679425418776
vn 0.4661696952898634 -0.7542236923793917 -0.4624201953277482
vn 0.43045699899144785 -0.7191799983149756 -0.5454235987220836
vn 0.44067267291732926 -0.7129716561824959 -0.5454163664800368
vn -0.516069910707207 0.8349580173233667 0.19109410396474233
vn -0.5233309246904863 0.8467058399471498 0.09598939452873087
vn -0.5041088223115746 0.8422328372767545 0.19109720845785577
vn -0.511201874153406 0.8540833568171659 0.09599095514665483
vn -0.5040419956717285 0.8154979929972168 0.2844374975574999
vn -0.492359397348465 0.8226025955699847 0.2844418984681768
vn -0.5256069144404182 0.8503881233633915 0.024029380660178536
vn -0.5134251018711337 0.8577979031261708 0.02402961008757404
vn -0.487357608907016 0.7885040144108099 0.37515860685645147
vn -0.4760611962063065 0.7953725936617394 0.3751641970103467
vn -0.4661696952898634 0.7542236923793917 0.4624201953277482
vn -0.45536369434194895 0.7607925905468895 0.46242679425418776
vn -0.44067267291732926 0.7129716561824959 0.5454163664800368
vn -0.43045699899144785 0.7191799983149756 0.5454235987220836
usemtl material_0_0
f 5//15 6//16 7//17
f 8//18 7//17 6//16
f 11//19 5//15 12//20
f 7//17 12//20 5//15
f 6//16 15//21 8//18
f 16//22 8//18 15//21
f 19//23 11//19 20//24
f 12//20 20//24 11//19
f 23//25 19//23 24//26
f 20//24 24//26 19//23
f 27//27 23//25 28//28
f 24//26 28//28 23//25
usemtl material_1_0
f 1//1 2//2 3//3
f 2//2 1//1 4//4
f 4//4 9//5 2//2
f 9//5 4//4 10//6
f 13//7 3//3 14//8
f 3//3 13//7 1//1
f 10//6 17//9 9//5
f 17//9 10//6 18//10
f 18//10 21//11 17//9
f 21//11 18//10 22//12
f 22//12 25//13 21//11
f 25//13 22//12 26//14
