# SSTK version 0.8.0
# 79
mtllib original-79.mtl
o instance_0/Component_250/ID517#ID517
v 0.050646 0.443133 0.414474
v 0.050843 0.443799 0.413408
v 0.050810 0.443838 0.414453
v 0.050680 0.443094 0.413429
v 0.050973 0.444544 0.414432
v 0.050776 0.443877 0.415498
v 0.038926 0.445807 0.412949
v 0.051007 0.444505 0.413387
v 0.050612 0.443172 0.415519
v 0.038892 0.445846 0.413994
v 0.039090 0.446513 0.412928
v 0.039253 0.447218 0.412907
v 0.050940 0.444583 0.415477
v 0.038859 0.445885 0.415039
v 0.027139 0.448560 0.413515
v 0.027336 0.449226 0.412449
v 0.039220 0.447257 0.413952
v 0.039186 0.447296 0.414997
v 0.039022 0.446591 0.415018
v 0.027172 0.448521 0.412470
v 0.027466 0.449970 0.413473
v 0.027269 0.449304 0.414539
v 0.027105 0.448599 0.414560
v 0.027500 0.449931 0.412428
v 0.027302 0.449265 0.413494
v 0.027432 0.450009 0.414518
vn 0.5286587684937927 -0.8474407019750837 0.04862266066973216
vn 0.7111842414618963 -0.18526361251158868 -0.678155121322123
vn 0.9736037770808823 -0.22475992611568693 0.03973236547589995
vn 0.4502171721164594 -0.7134343445723065 -0.5369505879651701
vn 0.8482248886564218 0.5295821682101003 0.007567389093336144
vn 0.6656994463335403 -0.13259492832795394 0.7343451723358184
vn -0.13704066520001892 -0.7148457879526708 -0.6857225062136005
vn 0.7111418199268601 0.4109001350874488 -0.5704720772625332
vn 0.4130789927643797 -0.6704305444248126 0.6163510613595263
vn -0.22596736916432084 -0.9737022031512469 0.029030460750106197
vn 0.032162607587007834 -0.03724238433396831 -0.9987885519379592
vn 0.18252546003849657 0.6621771041047053 -0.726777778442105
vn 0.6740036405747828 0.45390393523495126 0.582829572062163
vn -0.18252546003849657 -0.6621771041047053 0.726777778442105
vn -0.8482248886564218 -0.5295821682101003 -0.007567389093336144
vn -0.6656994463335403 0.13259492832795394 -0.7343451723358184
vn 0.22596736916432084 0.9737022031512469 -0.029030460750106197
vn 0.13704066520001892 0.7148457879526708 0.6857225062136005
vn -0.032162607587007834 0.03724238433396831 0.9987885519379592
vn -0.6740036405747828 -0.45390393523495126 -0.582829572062163
vn -0.5286587684937927 0.8474407019750837 -0.04862266066973216
vn -0.7111842414618963 0.18526361251158868 0.678155121322123
vn -0.7111418199268601 -0.4109001350874488 0.5704720772625332
vn -0.4130789927643797 0.6704305444248126 -0.6163510613595263
vn -0.9736037770808823 0.22475992611568693 -0.03973236547589995
vn -0.4502171721164594 0.7134343445723065 0.5369505879651701
usemtl material_0_0
f 1//1 2//2 3//3
f 4//4 2//2 1//1
f 2//2 5//5 3//3
f 1//1 3//3 6//6
f 4//4 1//1 7//7
f 4//4 7//7 2//2
f 2//2 8//8 5//5
f 6//6 3//3 5//5
f 1//1 6//6 9//9
f 7//7 1//1 10//10
f 2//2 7//7 11//11
f 8//8 2//2 12//12
f 12//12 5//5 8//8
f 6//6 5//5 13//13
f 6//6 14//14 9//9
f 1//1 9//9 14//14
f 1//1 14//14 10//10
f 7//7 10//10 15//15
f 7//7 16//16 11//11
f 2//2 11//11 12//12
f 12//12 17//17 5//5
f 5//5 18//18 13//13
f 13//13 18//18 6//6
f 6//6 19//19 14//14
f 15//15 10//10 14//14
f 20//20 7//7 15//15
f 7//7 20//20 16//16
f 11//11 16//16 12//12
f 12//12 21//21 17//17
f 5//5 17//17 18//18
f 6//6 18//18 19//19
f 19//19 22//22 14//14
f 15//15 14//14 23//23
f 15//15 16//16 20//20
f 12//12 16//16 24//24
f 12//12 24//24 21//21
f 21//21 18//18 17//17
f 18//18 22//22 19//19
f 14//14 22//22 23//23
f 23//23 22//22 15//15
f 15//15 25//25 16//16
f 16//16 21//21 24//24
f 21//21 26//26 18//18
f 18//18 26//26 22//22
f 15//15 22//22 25//25
f 25//25 21//21 16//16
f 22//22 26//26 21//21
f 22//22 21//21 25//25
