# SSTK version 0.8.0
# 267
mtllib original-267.mtl
o #ID1535
v -0.095343 0.445972 0.415546
v -0.097643 0.444965 0.415629
v -0.097643 0.445972 0.415546
v -0.095343 0.444965 0.415629
v -0.097643 0.448153 0.415365
v -0.099106 0.445972 0.415546
v -0.099106 0.447771 0.415397
v -0.099106 0.444965 0.415629
v -0.099106 0.440604 0.415990
v -0.098956 0.439659 0.416068
v -0.098769 0.439288 0.416099
v -0.098506 0.438985 0.416124
v -0.098169 0.438749 0.416143
v -0.097757 0.438580 0.416157
v -0.097643 0.440813 0.415973
v -0.097565 0.440178 0.416025
v -0.096707 0.438445 0.416169
v -0.097331 0.439755 0.416060
v -0.096917 0.439517 0.416080
v -0.096297 0.439438 0.416086
v -0.095942 0.438503 0.416164
v -0.095782 0.439499 0.416081
v -0.095343 0.438675 0.416150
v -0.095343 0.439683 0.416066
v -0.100676 0.444965 0.415629
v -0.100676 0.445972 0.415546
v -0.099106 0.444965 0.415629
v -0.099106 0.445972 0.415546
v -0.100676 0.444965 0.415629
v -0.100676 0.445972 0.415546
v -0.095343 0.439683 0.416066
v -0.095782 0.439499 0.416081
v -0.095343 0.438675 0.416150
v -0.095942 0.438503 0.416164
v -0.096297 0.439438 0.416086
v -0.096707 0.438445 0.416169
v -0.096917 0.439517 0.416080
v -0.097331 0.439755 0.416060
v -0.097565 0.440178 0.416025
v -0.097643 0.444965 0.415629
v -0.097643 0.445972 0.415546
v -0.097643 0.440813 0.415973
v -0.097643 0.448153 0.415365
v -0.097757 0.438580 0.416157
v -0.098169 0.438749 0.416143
v -0.098506 0.438985 0.416124
v -0.098769 0.439288 0.416099
v -0.098956 0.439659 0.416068
v -0.099106 0.440604 0.415990
v -0.099106 0.447771 0.415397
v -0.095343 0.444965 0.415629
v -0.095343 0.445972 0.415546
v -0.095343 0.438740 0.416928
v -0.095942 0.438503 0.416164
v -0.095343 0.438675 0.416150
v -0.095942 0.438567 0.416942
v -0.095942 0.438567 0.416942
v -0.095343 0.438740 0.416928
v -0.095942 0.438503 0.416164
v -0.095343 0.438675 0.416150
v -0.096707 0.438445 0.416169
v -0.096707 0.438509 0.416947
v -0.096707 0.438509 0.416947
v -0.096707 0.438445 0.416169
v -0.097757 0.438580 0.416157
v -0.097757 0.438644 0.416935
v -0.097757 0.438644 0.416935
v -0.097757 0.438580 0.416157
v -0.098169 0.438749 0.416143
v -0.098169 0.438813 0.416921
v -0.098169 0.438813 0.416921
v -0.098169 0.438749 0.416143
v -0.098169 0.438813 0.416921
v -0.098506 0.438985 0.416124
v -0.098169 0.438749 0.416143
v -0.098506 0.439049 0.416902
v -0.098506 0.439049 0.416902
v -0.098169 0.438813 0.416921
v -0.098506 0.438985 0.416124
v -0.098169 0.438749 0.416143
v -0.098769 0.439353 0.416877
v -0.098506 0.438985 0.416124
v -0.098506 0.439049 0.416902
v -0.098769 0.439288 0.416099
v -0.098769 0.439288 0.416099
v -0.098769 0.439353 0.416877
v -0.098506 0.438985 0.416124
v -0.098506 0.439049 0.416902
v -0.098956 0.439724 0.416846
v -0.098769 0.439288 0.416099
v -0.098769 0.439353 0.416877
v -0.098956 0.439659 0.416068
v -0.098956 0.439659 0.416068
v -0.098956 0.439724 0.416846
v -0.098769 0.439288 0.416099
v -0.098769 0.439353 0.416877
v -0.099106 0.440668 0.416768
v -0.099106 0.440604 0.415990
v -0.099106 0.440604 0.415990
v -0.099106 0.440668 0.416768
v -0.099106 0.445029 0.416407
v -0.099106 0.444965 0.415629
v -0.099106 0.444965 0.415629
v -0.099106 0.445029 0.416407
v -0.099106 0.445029 0.416407
v -0.100676 0.444965 0.415629
v -0.099106 0.444965 0.415629
v -0.100676 0.445029 0.416407
v -0.100676 0.445029 0.416407
v -0.099106 0.445029 0.416407
v -0.100676 0.444965 0.415629
v -0.099106 0.444965 0.415629
v -0.100676 0.446037 0.416324
v -0.100676 0.444965 0.415629
v -0.100676 0.445029 0.416407
v -0.100676 0.445972 0.415546
v -0.100676 0.445972 0.415546
v -0.100676 0.446037 0.416324
v -0.100676 0.444965 0.415629
v -0.100676 0.445029 0.416407
v -0.100676 0.446037 0.416324
v -0.099106 0.445972 0.415546
v -0.100676 0.445972 0.415546
v -0.099106 0.446037 0.416324
v -0.099106 0.446037 0.416324
v -0.100676 0.446037 0.416324
v -0.099106 0.445972 0.415546
v -0.100676 0.445972 0.415546
v -0.099106 0.447836 0.416175
v -0.099106 0.445972 0.415546
v -0.099106 0.446037 0.416324
v -0.099106 0.447771 0.415397
v -0.099106 0.447771 0.415397
v -0.099106 0.447836 0.416175
v -0.099106 0.445972 0.415546
v -0.099106 0.446037 0.416324
v -0.099106 0.447836 0.416175
v -0.097643 0.448153 0.415365
v -0.099106 0.447771 0.415397
v -0.097643 0.448217 0.416143
v -0.097643 0.448217 0.416143
v -0.099106 0.447836 0.416175
v -0.097643 0.448153 0.415365
v -0.099106 0.447771 0.415397
v -0.097643 0.448153 0.415365
v -0.097643 0.446037 0.416324
v -0.097643 0.445972 0.415546
v -0.097643 0.448217 0.416143
v -0.097643 0.448217 0.416143
v -0.097643 0.448153 0.415365
v -0.097643 0.446037 0.416324
v -0.097643 0.445972 0.415546
v -0.097643 0.446037 0.416324
v -0.095343 0.445972 0.415546
v -0.097643 0.445972 0.415546
v -0.095343 0.446037 0.416324
v -0.095343 0.446037 0.416324
v -0.097643 0.446037 0.416324
v -0.095343 0.445972 0.415546
v -0.097643 0.445972 0.415546
v -0.095343 0.445972 0.415546
v -0.095343 0.445029 0.416407
v -0.095343 0.444965 0.415629
v -0.095343 0.446037 0.416324
v -0.095343 0.446037 0.416324
v -0.095343 0.445972 0.415546
v -0.095343 0.445029 0.416407
v -0.095343 0.444965 0.415629
v -0.095343 0.445029 0.416407
v -0.097643 0.444965 0.415629
v -0.095343 0.444965 0.415629
v -0.097643 0.445029 0.416407
v -0.097643 0.445029 0.416407
v -0.095343 0.445029 0.416407
v -0.097643 0.444965 0.415629
v -0.095343 0.444965 0.415629
v -0.097643 0.444965 0.415629
v -0.097643 0.440877 0.416751
v -0.097643 0.440813 0.415973
v -0.097643 0.445029 0.416407
v -0.097643 0.445029 0.416407
v -0.097643 0.444965 0.415629
v -0.097643 0.440877 0.416751
v -0.097643 0.440813 0.415973
v -0.097565 0.440242 0.416803
v -0.097565 0.440178 0.416025
v -0.097565 0.440242 0.416803
v -0.097565 0.440178 0.416025
v -0.097331 0.439819 0.416838
v -0.097331 0.439755 0.416060
v -0.097331 0.439819 0.416838
v -0.097331 0.439755 0.416060
v -0.097331 0.439819 0.416838
v -0.096917 0.439517 0.416080
v -0.097331 0.439755 0.416060
v -0.096917 0.439582 0.416858
v -0.096917 0.439582 0.416858
v -0.097331 0.439819 0.416838
v -0.096917 0.439517 0.416080
v -0.097331 0.439755 0.416060
v -0.096297 0.439438 0.416086
v -0.096297 0.439502 0.416864
v -0.096297 0.439502 0.416864
v -0.096297 0.439438 0.416086
v -0.095782 0.439499 0.416081
v -0.095782 0.439564 0.416859
v -0.095782 0.439564 0.416859
v -0.095782 0.439499 0.416081
v -0.095782 0.439564 0.416859
v -0.095343 0.439683 0.416066
v -0.095782 0.439499 0.416081
v -0.095343 0.439747 0.416844
v -0.095343 0.439747 0.416844
v -0.095782 0.439564 0.416859
v -0.095343 0.439683 0.416066
v -0.095782 0.439499 0.416081
v -0.095343 0.439683 0.416066
v -0.095343 0.438740 0.416928
v -0.095343 0.438675 0.416150
v -0.095343 0.439747 0.416844
v -0.095343 0.439747 0.416844
v -0.095343 0.439683 0.416066
v -0.095343 0.438740 0.416928
v -0.095343 0.438675 0.416150
v -0.097757 0.438644 0.416935
v -0.097565 0.440242 0.416803
v -0.097643 0.440877 0.416751
v -0.096707 0.438509 0.416947
v -0.097331 0.439819 0.416838
v -0.096917 0.439582 0.416858
v -0.096297 0.439502 0.416864
v -0.095942 0.438567 0.416942
v -0.095782 0.439564 0.416859
v -0.095343 0.438740 0.416928
v -0.095343 0.439747 0.416844
v -0.095343 0.445029 0.416407
v -0.097643 0.446037 0.416324
v -0.097643 0.445029 0.416407
v -0.095343 0.446037 0.416324
v -0.098956 0.439724 0.416846
v -0.099106 0.445029 0.416407
v -0.099106 0.440668 0.416768
v -0.099106 0.446037 0.416324
v -0.099106 0.447836 0.416175
v -0.097643 0.448217 0.416143
v -0.098769 0.439353 0.416877
v -0.098506 0.439049 0.416902
v -0.098169 0.438813 0.416921
v -0.100676 0.446037 0.416324
v -0.100676 0.445029 0.416407
v -0.099106 0.446037 0.416324
v -0.099106 0.445029 0.416407
v -0.100676 0.446037 0.416324
v -0.100676 0.445029 0.416407
v -0.097643 0.446037 0.416324
v -0.097643 0.445029 0.416407
v -0.097643 0.448217 0.416143
v -0.097643 0.440877 0.416751
v -0.097757 0.438644 0.416935
v -0.098169 0.438813 0.416921
v -0.098506 0.439049 0.416902
v -0.098769 0.439353 0.416877
v -0.098956 0.439724 0.416846
v -0.099106 0.447836 0.416175
v -0.099106 0.440668 0.416768
v -0.095343 0.446037 0.416324
v -0.095343 0.445029 0.416407
v -0.095343 0.439747 0.416844
v -0.095343 0.438740 0.416928
v -0.095782 0.439564 0.416859
v -0.095942 0.438567 0.416942
v -0.096297 0.439502 0.416864
v -0.096707 0.438509 0.416947
v -0.096917 0.439582 0.416858
v -0.097331 0.439819 0.416838
v -0.097565 0.440242 0.416803
vn 0 -0.08246840268736112 -0.9965936797703442
vn 0 0.08246840268736112 0.9965936797703442
vn 0.27760455799681705 -0.9574229938034304 0.07922701758786499
vn 0.17647120705495103 -0.9809529418570082 0.08117412729835632
vn -0.17647120705495103 0.9809529418570082 -0.08117412729835632
vn -0.27760455799681705 0.9574229938034304 -0.07922701758786499
vn -0.02630198889676242 -0.996248901058055 0.08243987215354352
vn 0.02630198889676242 0.996248901058055 -0.08243987215354352
vn -0.25396222802780805 -0.9639194958787992 0.07976460493172037
vn 0.25396222802780805 0.9639194958787992 -0.07976460493172037
vn -0.3797155919198432 -0.9219520769121763 0.07629178940284183
vn 0.3797155919198432 0.9219520769121763 -0.07629178940284183
vn -0.5747459376158213 -0.8155444047533759 0.06748652509629031
vn 0.5747459376158213 0.8155444047533759 -0.06748652509629031
vn -0.75769043141277 -0.6503911229903672 0.05382004534427182
vn 0.75769043141277 0.6503911229903672 -0.05382004534427182
vn -0.9510734199937567 -0.30791253168610355 0.02547984717445334
vn -0.8932202583533404 -0.4480878137865617 0.03707939054476543
vn 0.9510734199937567 0.30791253168610355 -0.02547984717445334
vn 0.8932202583533404 0.4480878137865617 -0.03707939054476543
vn -0.9969113043322686 -0.07826815129377594 0.006476711170773097
vn 0.9969113043322686 0.07826815129377594 -0.006476711170773097
vn -1 0 0
vn 1 0 0
vn 0 -0.9965936797703442 0.08246840268736111
vn 0 0.9965936797703442 -0.08246840268736111
vn -0.2531468455437284 0.9641324962083558 -0.07978223076791315
vn 0.2531468455437284 -0.9641324962083558 0.07978223076791315
vn 0.9981400000163116 0.06075577369472272 -0.005027557080026053
vn -0.9981400000163116 -0.06075577369472272 0.005027557080026053
vn 0.9502208509918941 0.31051584074170807 -0.025695271718954485
vn -0.9502208509918941 -0.31051584074170807 0.025695271718954485
vn 0.8755411744143947 0.48149776915838716 -0.03984407359393486
vn -0.8755411744143947 -0.48149776915838716 0.03984407359393486
vn 0.4982253675395131 0.8640941251597538 -0.07150402789016173
vn 0.31343757397132 0.9463741357780042 -0.07831272152983029
vn -0.31343757397132 -0.9463741357780042 0.07831272152983029
vn -0.4982253675395131 -0.8640941251597538 0.07150402789016173
vn 0.004386287135371067 0.9965840927347888 -0.08246760935751685
vn -0.004386287135371067 -0.9965840927347888 0.08246760935751685
vn -0.1183386045720446 0.98959091503851 -0.08188892196863648
vn 0.1183386045720446 -0.98959091503851 0.08188892196863648
vn -0.3866314219322418 0.9190928959780628 -0.07605519138961256
vn 0.3866314219322418 -0.9190928959780628 0.07605519138961256
usemtl material_0_0
f 1//1 2//1 3//1
f 2//1 1//1 4//1
f 5//1 6//1 7//1
f 6//1 5//1 8//1
f 8//1 5//1 9//1
f 9//1 5//1 10//1
f 10//1 5//1 11//1
f 11//1 5//1 12//1
f 12//1 5//1 13//1
f 13//1 5//1 14//1
f 14//1 5//1 15//1
f 14//1 15//1 16//1
f 14//1 16//1 17//1
f 15//1 5//1 3//1
f 15//1 3//1 2//1
f 17//1 16//1 18//1
f 17//1 18//1 19//1
f 17//1 19//1 20//1
f 17//1 20//1 21//1
f 21//1 20//1 22//1
f 21//1 22//1 23//1
f 23//1 22//1 24//1
f 6//1 25//1 26//1
f 25//1 6//1 8//1
f 27//2 28//2 29//2
f 30//2 29//2 28//2
f 31//2 32//2 33//2
f 33//2 32//2 34//2
f 32//2 35//2 34//2
f 34//2 35//2 36//2
f 35//2 37//2 36//2
f 37//2 38//2 36//2
f 38//2 39//2 36//2
f 40//2 41//2 42//2
f 41//2 43//2 42//2
f 36//2 39//2 44//2
f 39//2 42//2 44//2
f 42//2 43//2 44//2
f 44//2 43//2 45//2
f 45//2 43//2 46//2
f 46//2 43//2 47//2
f 47//2 43//2 48//2
f 48//2 43//2 49//2
f 49//2 43//2 27//2
f 27//2 43//2 28//2
f 50//2 28//2 43//2
f 51//2 52//2 40//2
f 41//2 40//2 52//2
f 53//3 54//4 55//3
f 54//4 53//3 56//4
f 57//5 58//6 59//5
f 60//6 59//5 58//6
f 56//4 61//7 54//4
f 61//7 56//4 62//7
f 63//8 57//5 64//8
f 59//5 64//8 57//5
f 62//7 65//9 61//7
f 65//9 62//7 66//9
f 67//10 63//8 68//10
f 64//8 68//10 63//8
f 66//9 69//11 65//9
f 69//11 66//9 70//11
f 71//12 67//10 72//12
f 68//10 72//12 67//10
f 73//13 74//13 75//13
f 74//13 73//13 76//13
f 77//14 78//14 79//14
f 80//14 79//14 78//14
f 81//15 82//15 83//15
f 82//15 81//15 84//15
f 85//16 86//16 87//16
f 88//16 87//16 86//16
f 89//17 90//18 91//18
f 90//18 89//17 92//17
f 93//19 94//19 95//20
f 96//20 95//20 94//19
f 97//21 92//17 89//17
f 92//17 97//21 98//21
f 99//22 100//22 93//19
f 94//19 93//19 100//22
f 101//23 98//21 97//21
f 98//21 101//23 102//23
f 103//24 104//24 99//22
f 100//22 99//22 104//24
f 105//25 106//25 107//25
f 106//25 105//25 108//25
f 109//26 110//26 111//26
f 112//26 111//26 110//26
f 113//23 114//23 115//23
f 114//23 113//23 116//23
f 117//24 118//24 119//24
f 120//24 119//24 118//24
f 121//26 122//26 123//26
f 122//26 121//26 124//26
f 125//25 126//25 127//25
f 128//25 127//25 126//25
f 129//23 130//23 131//23
f 130//23 129//23 132//23
f 133//24 134//24 135//24
f 136//24 135//24 134//24
f 137//27 138//27 139//27
f 138//27 137//27 140//27
f 141//28 142//28 143//28
f 144//28 143//28 142//28
f 145//24 146//24 147//24
f 146//24 145//24 148//24
f 149//23 150//23 151//23
f 152//23 151//23 150//23
f 153//26 154//26 155//26
f 154//26 153//26 156//26
f 157//25 158//25 159//25
f 160//25 159//25 158//25
f 161//24 162//24 163//24
f 162//24 161//24 164//24
f 165//23 166//23 167//23
f 168//23 167//23 166//23
f 169//25 170//25 171//25
f 170//25 169//25 172//25
f 173//26 174//26 175//26
f 176//26 175//26 174//26
f 177//24 178//29 179//29
f 178//29 177//24 180//24
f 181//23 182//23 183//30
f 184//30 183//30 182//23
f 179//29 185//31 186//31
f 185//31 179//29 178//29
f 183//30 184//30 187//32
f 188//32 187//32 184//30
f 186//31 189//33 190//33
f 189//33 186//31 185//31
f 187//32 188//32 191//34
f 192//34 191//34 188//32
f 193//35 194//36 195//35
f 194//36 193//35 196//36
f 197//37 198//38 199//37
f 200//38 199//37 198//38
f 196//36 201//39 194//36
f 201//39 196//36 202//39
f 203//40 197//37 204//40
f 199//37 204//40 197//37
f 202//39 205//41 201//39
f 205//41 202//39 206//41
f 207//42 203//40 208//42
f 204//40 208//42 203//40
f 209//43 210//43 211//43
f 210//43 209//43 212//43
f 213//44 214//44 215//44
f 216//44 215//44 214//44
f 217//24 218//24 219//24
f 218//24 217//24 220//24
f 221//23 222//23 223//23
f 224//23 223//23 222//23
f 225//2 226//2 227//2
f 226//2 225//2 228//2
f 226//2 228//2 229//2
f 229//2 228//2 230//2
f 230//2 228//2 231//2
f 231//2 228//2 232//2
f 231//2 232//2 233//2
f 233//2 232//2 234//2
f 233//2 234//2 235//2
f 236//2 237//2 238//2
f 237//2 236//2 239//2
f 240//2 241//2 242//2
f 241//2 240//2 243//2
f 243//2 240//2 244//2
f 244//2 240//2 245//2
f 245//2 240//2 246//2
f 245//2 246//2 247//2
f 245//2 247//2 248//2
f 245//2 248//2 225//2
f 245//2 225//2 227//2
f 245//2 227//2 238//2
f 245//2 238//2 237//2
f 241//2 249//2 250//2
f 249//2 241//2 243//2
f 251//1 252//1 253//1
f 254//1 253//1 252//1
f 255//1 256//1 257//1
f 256//1 258//1 257//1
f 258//1 259//1 257//1
f 259//1 260//1 257//1
f 260//1 261//1 257//1
f 261//1 262//1 257//1
f 262//1 263//1 257//1
f 257//1 263//1 264//1
f 264//1 263//1 251//1
f 251//1 263//1 252//1
f 265//1 252//1 263//1
f 266//1 267//1 255//1
f 256//1 255//1 267//1
f 268//1 269//1 270//1
f 269//1 271//1 270//1
f 270//1 271//1 272//1
f 271//1 273//1 272//1
f 272//1 273//1 274//1
f 274//1 273//1 275//1
f 275//1 273//1 276//1
f 273//1 259//1 276//1
f 258//1 276//1 259//1
