# SSTK version 0.8.0
# 204
mtllib original-204.mtl
o #ID1177
v 0.116270 0.423335 0.418214
v 0.116370 0.421576 0.417564
v 0.116370 0.421641 0.418355
v 0.116270 0.423270 0.417424
v 0.116270 0.423270 0.417424
v 0.116270 0.423335 0.418214
v 0.116370 0.421576 0.417564
v 0.116370 0.421641 0.418355
v 0.116267 0.419937 0.417700
v 0.116267 0.420003 0.418490
v 0.116267 0.419937 0.417700
v 0.116267 0.420003 0.418490
v 0.116144 0.424001 0.418159
v 0.116144 0.423935 0.417369
v 0.116144 0.423935 0.417369
v 0.116144 0.424001 0.418159
v 0.116140 0.419294 0.417753
v 0.116140 0.419359 0.418543
v 0.116140 0.419294 0.417753
v 0.116140 0.419359 0.418543
v 0.115969 0.424545 0.418114
v 0.115969 0.424480 0.417324
v 0.115969 0.424480 0.417324
v 0.115969 0.424545 0.418114
v 0.115961 0.418767 0.417797
v 0.115961 0.418832 0.418587
v 0.115961 0.418767 0.417797
v 0.115961 0.418832 0.418587
v 0.115744 0.424968 0.418079
v 0.115744 0.424903 0.417289
v 0.115744 0.424903 0.417289
v 0.115744 0.424968 0.418079
v 0.115731 0.418357 0.417831
v 0.115731 0.418423 0.418621
v 0.115731 0.418357 0.417831
v 0.115731 0.418423 0.418621
v 0.115469 0.425206 0.417264
v 0.115469 0.425271 0.418054
v 0.115469 0.425271 0.418054
v 0.115469 0.425206 0.417264
v 0.115451 0.418130 0.418645
v 0.115451 0.418065 0.417855
v 0.115451 0.418130 0.418645
v 0.115451 0.418065 0.417855
v 0.115144 0.425387 0.417249
v 0.115144 0.425452 0.418039
v 0.115144 0.425452 0.418039
v 0.115144 0.425387 0.417249
v 0.115119 0.417955 0.418660
v 0.115119 0.417889 0.417870
v 0.115119 0.417955 0.418660
v 0.115119 0.417889 0.417870
v 0.114769 0.425448 0.417244
v 0.114769 0.425513 0.418034
v 0.114769 0.425513 0.418034
v 0.114769 0.425448 0.417244
v 0.114736 0.417896 0.418664
v 0.114736 0.417831 0.417874
v 0.114736 0.417896 0.418664
v 0.114736 0.417831 0.417874
v 0.114373 0.425386 0.417249
v 0.114373 0.425451 0.418039
v 0.114373 0.425451 0.418039
v 0.114373 0.425386 0.417249
v 0.114348 0.417953 0.418660
v 0.114348 0.417888 0.417870
v 0.114348 0.417953 0.418660
v 0.114348 0.417888 0.417870
v 0.114030 0.425201 0.417264
v 0.114030 0.425267 0.418055
v 0.114030 0.425267 0.418055
v 0.114030 0.425201 0.417264
v 0.114012 0.418126 0.418645
v 0.114012 0.418060 0.417855
v 0.114012 0.418126 0.418645
v 0.114012 0.418060 0.417855
v 0.113740 0.424893 0.417290
v 0.113740 0.424959 0.418080
v 0.113740 0.424959 0.418080
v 0.113740 0.424893 0.417290
v 0.113727 0.418413 0.418622
v 0.113727 0.418348 0.417832
v 0.113727 0.418413 0.418622
v 0.113727 0.418348 0.417832
v 0.113503 0.424528 0.418116
v 0.113503 0.424462 0.417326
v 0.113503 0.424528 0.418116
v 0.113503 0.424462 0.417326
v 0.113494 0.418750 0.417798
v 0.113494 0.418815 0.418588
v 0.113494 0.418815 0.418588
v 0.113494 0.418750 0.417798
v 0.113318 0.423973 0.418162
v 0.113318 0.423908 0.417372
v 0.113318 0.423973 0.418162
v 0.113318 0.423908 0.417372
v 0.113313 0.419266 0.417756
v 0.113313 0.419332 0.418546
v 0.113313 0.419332 0.418546
v 0.113313 0.419266 0.417756
v 0.113186 0.423296 0.418218
v 0.113186 0.423231 0.417428
v 0.113186 0.423296 0.418218
v 0.113186 0.423231 0.417428
v 0.113184 0.419898 0.417703
v 0.113184 0.419964 0.418493
v 0.113184 0.419964 0.418493
v 0.113184 0.419898 0.417703
v 0.113081 0.421572 0.418360
v 0.113081 0.421506 0.417570
v 0.113081 0.421572 0.418360
v 0.113081 0.421506 0.417570
vn -0.9925924727416661 -0.12107765482424948 0.010019209492025382
vn -0.9999986982832842 0.0016080191852900223 -0.00013306403322731756
vn 0.9925924727416661 0.12107765482424948 -0.010019209492025382
vn 0.9999986982832842 -0.0016080191852900223 0.00013306403322731756
vn -0.9917736713366425 0.1275678248880541 -0.010556272863483353
vn 0.9917736713366425 -0.1275678248880541 0.010556272863483353
vn -0.9695767035975559 -0.24395387015503817 0.02018725036441785
vn 0.9695767035975559 0.24395387015503817 -0.02018725036441785
vn -0.9663398423422084 0.2563926027192438 -0.021216558931361613
vn 0.9663398423422084 -0.2563926027192438 0.021216558931361613
vn -0.9219482034034859 -0.38599388120893663 0.031941100643929445
vn 0.9219482034034859 0.38599388120893663 -0.031941100643929445
vn -0.9143729908844482 0.40349373432523905 -0.03338921833919221
vn 0.9143729908844482 -0.40349373432523905 0.03338921833919221
vn -0.8199128623637587 -0.5705382602259902 0.047212199152002636
vn 0.8199128623637587 0.5705382602259902 -0.047212199152002636
vn -0.8056217663473638 0.5904122163118528 -0.048856774525952607
vn 0.8056217663473638 -0.5904122163118528 0.048856774525952607
vn -0.6257180122546557 -0.7773922397604733 0.06432942328574956
vn 0.6257180122546557 0.7773922397604733 -0.06432942328574956
vn -0.6061840012062168 0.7926153051128086 -0.06558913616255775
vn 0.6061840012062168 -0.7926153051128086 0.06558913616255775
vn -0.3315555828996811 -0.9402220428644057 0.07780363461905997
vn 0.3315555828996811 0.9402220428644057 -0.07780363461905997
vn -0.3167212610676993 0.9452876987289235 -0.07822281904573873
vn 0.3167212610676993 -0.9452876987289235 0.07822281904573873
vn -0.002785519541339787 -0.996589813376522 0.08246808325063518
vn 0.002785519541339787 0.996589813376522 -0.08246808325063518
vn -0.0023842698296458026 0.9965908470352481 -0.08246816878618124
vn 0.0023842698296458026 -0.9965908470352481 0.08246816878618124
vn 0.3216279261859702 -0.9436408054202854 0.07808653816803085
vn -0.3216279261859702 0.9436408054202854 -0.07808653816803085
vn 0.30805459385376865 0.9481280145856745 -0.07845785597004667
vn -0.30805459385376865 -0.9481280145856745 0.07845785597004667
vn 0.6127312726223885 -0.7875993454276926 0.06517406410849724
vn -0.6127312726223885 0.7875993454276926 -0.06517406410849724
vn 0.5944083534602647 0.8014241219028656 -0.06631806819320005
vn -0.5944083534602647 -0.8014241219028656 0.06631806819320005
vn 0.8104775018728476 -0.5837744467403241 0.04830749725432496
vn -0.8104775018728476 0.5837744467403241 -0.04830749725432496
vn 0.7967186708003902 0.6022917507386197 -0.04983980929204771
vn -0.7967186708003902 -0.6022917507386197 0.04983980929204771
vn 0.9169714880571065 -0.3975937808641047 0.03290099555517718
vn -0.9169714880571065 0.3975937808641047 -0.03290099555517718
vn 0.9095420747827968 0.4141961481329856 -0.03427484604783755
vn -0.9095420747827968 -0.4141961481329856 0.03427484604783755
vn 0.967456001560831 -0.2521773625725667 0.020867746641017388
vn -0.967456001560831 0.2521773625725667 -0.020867746641017388
vn 0.9642484371076675 0.264097233996932 -0.02185411930484271
vn -0.9642484371076675 -0.264097233996932 0.02185411930484271
vn 0.9920566910498875 -0.12536309416249206 0.010373830784926616
vn -0.9920566910498875 0.12536309416249206 -0.010373830784926616
vn 0.9912414505421968 0.13161221068889897 -0.010890946909359543
vn -0.9912414505421968 -0.13161221068889897 0.010890946909359543
vn 0.9999987873504336 0.0015520319333265484 -0.00012843107261105156
vn -0.9999987873504336 -0.0015520319333265484 0.00012843107261105156
usemtl material_0_0
f 1//1 2//2 3//2
f 2//2 1//1 4//1
f 5//3 6//3 7//4
f 8//4 7//4 6//3
f 3//2 9//5 10//5
f 9//5 3//2 2//2
f 7//4 8//4 11//6
f 12//6 11//6 8//4
f 13//7 4//1 1//1
f 4//1 13//7 14//7
f 15//8 16//8 5//3
f 6//3 5//3 16//8
f 10//5 17//9 18//9
f 17//9 10//5 9//5
f 11//6 12//6 19//10
f 20//10 19//10 12//6
f 21//11 14//7 13//7
f 14//7 21//11 22//11
f 23//12 24//12 15//8
f 16//8 15//8 24//12
f 18//9 25//13 26//13
f 25//13 18//9 17//9
f 19//10 20//10 27//14
f 28//14 27//14 20//10
f 29//15 22//11 21//11
f 22//11 29//15 30//15
f 31//16 32//16 23//12
f 24//12 23//12 32//16
f 26//13 33//17 34//17
f 33//17 26//13 25//13
f 27//14 28//14 35//18
f 36//18 35//18 28//14
f 29//15 37//19 30//15
f 37//19 29//15 38//19
f 39//20 32//16 40//20
f 31//16 40//20 32//16
f 41//21 33//17 42//21
f 33//17 41//21 34//17
f 36//18 43//22 35//18
f 44//22 35//18 43//22
f 38//19 45//23 37//19
f 45//23 38//19 46//23
f 47//24 39//20 48//24
f 40//20 48//24 39//20
f 49//25 42//21 50//25
f 42//21 49//25 41//21
f 43//22 51//26 44//22
f 52//26 44//22 51//26
f 46//23 53//27 45//23
f 53//27 46//23 54//27
f 55//28 47//24 56//28
f 48//24 56//28 47//24
f 57//29 50//25 58//29
f 50//25 57//29 49//25
f 51//26 59//30 52//26
f 60//30 52//26 59//30
f 54//27 61//31 53//27
f 61//31 54//27 62//31
f 63//32 55//28 64//32
f 56//28 64//32 55//28
f 65//33 58//29 66//33
f 58//29 65//33 57//29
f 59//30 67//34 60//30
f 68//34 60//30 67//34
f 62//31 69//35 61//31
f 69//35 62//31 70//35
f 71//36 63//32 72//36
f 64//32 72//36 63//32
f 73//37 66//33 74//37
f 66//33 73//37 65//33
f 67//34 75//38 68//34
f 76//38 68//34 75//38
f 70//35 77//39 69//35
f 77//39 70//35 78//39
f 79//40 71//36 80//40
f 72//36 80//40 71//36
f 81//41 74//37 82//41
f 74//37 81//41 73//37
f 75//38 83//42 76//38
f 84//42 76//38 83//42
f 77//39 85//43 86//43
f 85//43 77//39 78//39
f 79//40 80//40 87//44
f 88//44 87//44 80//40
f 89//45 81//41 82//41
f 81//41 89//45 90//45
f 91//46 92//46 83//42
f 84//42 83//42 92//46
f 86//43 93//47 94//47
f 93//47 86//43 85//43
f 87//44 88//44 95//48
f 96//48 95//48 88//44
f 97//49 90//45 89//45
f 90//45 97//49 98//49
f 99//50 100//50 91//46
f 92//46 91//46 100//50
f 94//47 101//51 102//51
f 101//51 94//47 93//47
f 95//48 96//48 103//52
f 104//52 103//52 96//48
f 105//53 98//49 97//49
f 98//49 105//53 106//53
f 107//54 108//54 99//50
f 100//50 99//50 108//54
f 102//51 109//55 110//55
f 109//55 102//51 101//51
f 103//52 104//52 111//56
f 112//56 111//56 104//52
f 110//55 106//53 105//53
f 106//53 110//55 109//55
f 111//56 112//56 107//54
f 108//54 107//54 112//56
