# SSTK version 0.8.0
# 203
mtllib original-203.mtl
o #ID1171
v 0.078409 0.425431 0.418041
v 0.077817 0.425301 0.417256
v 0.078409 0.425365 0.417251
v 0.077817 0.425366 0.418046
v 0.077817 0.425366 0.418046
v 0.078409 0.425431 0.418041
v 0.077817 0.425301 0.417256
v 0.078409 0.425365 0.417251
v 0.079013 0.425369 0.418046
v 0.079013 0.425304 0.417256
v 0.079013 0.425369 0.418046
v 0.079013 0.425304 0.417256
v 0.077283 0.425107 0.417272
v 0.077283 0.425173 0.418062
v 0.077283 0.425173 0.418062
v 0.077283 0.425107 0.417272
v 0.079548 0.425185 0.418061
v 0.079548 0.425120 0.417271
v 0.079548 0.425185 0.418061
v 0.079548 0.425120 0.417271
v 0.076808 0.424785 0.417299
v 0.076808 0.424851 0.418089
v 0.076808 0.424851 0.418089
v 0.076808 0.424785 0.417299
v 0.080014 0.424879 0.418087
v 0.080014 0.424814 0.417297
v 0.080014 0.424879 0.418087
v 0.080014 0.424814 0.417297
v 0.076391 0.424334 0.417336
v 0.076391 0.424399 0.418126
v 0.076391 0.424399 0.418126
v 0.076391 0.424334 0.417336
v 0.080411 0.424450 0.418122
v 0.080411 0.424385 0.417332
v 0.080411 0.424450 0.418122
v 0.080411 0.424385 0.417332
v 0.076051 0.423844 0.418172
v 0.076051 0.423778 0.417382
v 0.076051 0.423844 0.418172
v 0.076051 0.423778 0.417382
v 0.080729 0.423846 0.417377
v 0.080729 0.423911 0.418167
v 0.080729 0.423846 0.417377
v 0.080729 0.423911 0.418167
v 0.075809 0.423207 0.418225
v 0.075809 0.423142 0.417435
v 0.075809 0.423207 0.418225
v 0.075809 0.423142 0.417435
v 0.080956 0.423203 0.417430
v 0.080956 0.423269 0.418220
v 0.080956 0.423203 0.417430
v 0.080956 0.423269 0.418220
v 0.075664 0.422490 0.418284
v 0.075664 0.422424 0.417494
v 0.075664 0.422490 0.418284
v 0.075664 0.422424 0.417494
v 0.081092 0.422457 0.417492
v 0.081092 0.422523 0.418282
v 0.081092 0.422457 0.417492
v 0.081092 0.422523 0.418282
v 0.075615 0.421692 0.418350
v 0.075615 0.421626 0.417560
v 0.075615 0.421692 0.418350
v 0.075615 0.421626 0.417560
v 0.081137 0.421607 0.417562
v 0.081137 0.421673 0.418352
v 0.081137 0.421607 0.417562
v 0.081137 0.421673 0.418352
v 0.075662 0.420897 0.418416
v 0.075662 0.420831 0.417626
v 0.075662 0.420897 0.418416
v 0.075662 0.420831 0.417626
v 0.081090 0.420780 0.417630
v 0.081090 0.420845 0.418420
v 0.081090 0.420780 0.417630
v 0.081090 0.420845 0.418420
v 0.075803 0.420181 0.418475
v 0.075803 0.420116 0.417685
v 0.075803 0.420181 0.418475
v 0.075803 0.420116 0.417685
v 0.080950 0.420050 0.417691
v 0.080950 0.420115 0.418481
v 0.080950 0.420050 0.417691
v 0.080950 0.420115 0.418481
v 0.076039 0.419546 0.418528
v 0.076039 0.419481 0.417738
v 0.076039 0.419546 0.418528
v 0.076039 0.419481 0.417738
v 0.080716 0.419417 0.417743
v 0.080716 0.419482 0.418533
v 0.080716 0.419417 0.417743
v 0.080716 0.419482 0.418533
v 0.076369 0.418991 0.418574
v 0.076369 0.418925 0.417784
v 0.076369 0.418991 0.418574
v 0.076369 0.418925 0.417784
v 0.080389 0.418881 0.417788
v 0.080389 0.418946 0.418578
v 0.080389 0.418881 0.417788
v 0.080389 0.418946 0.418578
v 0.076777 0.418480 0.417821
v 0.076777 0.418545 0.418611
v 0.076777 0.418545 0.418611
v 0.076777 0.418480 0.417821
v 0.079981 0.418520 0.418613
v 0.079981 0.418455 0.417823
v 0.079981 0.418520 0.418613
v 0.079981 0.418455 0.417823
v 0.077242 0.418161 0.417847
v 0.077242 0.418227 0.418637
v 0.077242 0.418227 0.418637
v 0.077242 0.418161 0.417847
v 0.079504 0.418216 0.418638
v 0.079504 0.418150 0.417848
v 0.079504 0.418216 0.418638
v 0.079504 0.418150 0.417848
v 0.077764 0.417970 0.417863
v 0.077764 0.418036 0.418653
v 0.077764 0.418036 0.418653
v 0.077764 0.417970 0.417863
v 0.078958 0.418033 0.418653
v 0.078958 0.417967 0.417863
v 0.078958 0.418033 0.418653
v 0.078958 0.417967 0.417863
v 0.078343 0.417907 0.417868
v 0.078343 0.417972 0.418658
v 0.078343 0.417972 0.418658
v 0.078343 0.417907 0.417868
vn 0.003624744614815362 -0.9965871326977261 0.0824678614237219
vn 0.22746084653878848 -0.9704701957382853 0.080306677652311
vn -0.22746084653878848 0.9704701957382853 -0.080306677652311
vn -0.003624744614815362 0.9965871326977261 -0.0824678614237219
vn -0.21582575543327942 -0.9731058540780037 0.08052477911036593
vn 0.21582575543327942 0.9731058540780037 -0.08052477911036593
vn 0.456961131165918 -0.8864567870801074 0.0733545448024696
vn -0.456961131165918 0.8864567870801074 -0.0733545448024696
vn -0.44329093892864396 -0.8933244407514598 0.07392284504706743
vn 0.44329093892864396 0.8933244407514598 -0.07392284504706743
vn 0.6546136665895511 -0.7533885346521166 0.0623431100356745
vn -0.6546136665895511 0.7533885346521166 -0.0623431100356745
vn -0.6489855728358357 -0.7582091829927412 0.06274202002184995
vn 0.6489855728358357 0.7582091829927412 -0.06274202002184995
vn 0.7996982108756552 -0.5983570127156554 0.04951420863017881
vn -0.7996982108756552 0.5983570127156554 -0.04951420863017881
vn -0.8041032876275526 -0.5924645933787078 0.049026609297028186
vn 0.8041032876275526 0.5924645933787078 -0.049026609297028186
vn 0.8989220929218221 -0.43661617701777894 0.03613010965151467
vn -0.8989220929218221 0.43661617701777894 -0.03613010965151467
vn -0.9074539047511428 -0.418720480997971 0.034649235846283384
vn 0.9074539047511428 0.418720480997971 -0.034649235846283384
vn 0.9609412498271059 -0.2758097349567224 0.022823332005254143
vn -0.9609412498271059 0.2758097349567224 -0.022823332005254143
vn -0.9667467173802401 -0.25486465279716713 0.021090120651855487
vn 0.9667467173802401 0.25486465279716713 -0.021090120651855487
vn 0.9916001360907948 -0.1289007152465467 0.010666569910044282
vn -0.9916001360907948 0.1289007152465467 -0.010666569910044282
vn -0.993237689184561 -0.11570316472637017 0.009574468946946009
vn 0.993237689184561 0.11570316472637017 -0.009574468946946009
vn 0.9999997166956658 -0.0007501700219050191 0.000062076777213901
vn -0.9999997166956658 0.0007501700219050191 -0.000062076777213901
vn -0.9999988238057113 0.0015285249491227184 -0.0001264858631535341
vn 0.9999988238057113 -0.0015285249491227184 0.0001264858631535341
vn 0.9920132472401534 0.125704075970809 -0.010402047124064095
vn -0.9920132472401534 -0.125704075970809 0.010402047124064095
vn -0.9925068748338329 0.1217725881060668 -0.010076715413688802
vn 0.9925068748338329 -0.1217725881060668 0.010076715413688802
vn 0.9628213305409998 0.2692188313634109 -0.022277932906312307
vn -0.9628213305409998 -0.2692188313634109 0.022277932906312307
vn -0.9636897487384312 0.2661149002502013 -0.022021081746474443
vn 0.9636897487384312 -0.2661149002502013 0.022021081746474443
vn 0.903495988615374 0.4271366080981323 -0.03534567269625729
vn -0.903495988615374 -0.4271366080981323 0.03534567269625729
vn -0.9010689677550093 0.4321985795352783 -0.03576455223554998
vn 0.9010689677550093 -0.4321985795352783 0.03576455223554998
vn 0.8048427109980516 0.591466561418257 -0.048944021875707476
vn -0.8048427109980516 -0.591466561418257 0.048944021875707476
vn -0.794322894706828 0.6054264681197253 -0.050099208024086135
vn 0.794322894706828 -0.6054264681197253 0.050099208024086135
vn 0.6580551781271806 0.7504048529294007 -0.06209620954622567
vn -0.6580551781271806 -0.7504048529294007 0.06209620954622567
vn -0.6372650386360117 0.7680196482600244 -0.06355383874157847
vn 0.6372650386360117 -0.7680196482600244 0.06355383874157847
vn 0.4603712899901582 0.8847025836122343 -0.07320938397934518
vn -0.4603712899901582 -0.8847025836122343 0.07320938397934518
vn -0.4334057928590113 0.8981291065505025 -0.07432043247349766
vn 0.4334057928590113 -0.8981291065505025 0.07432043247349766
vn 0.22954242004689526 0.9699832909151151 -0.08026638614325343
vn -0.22954242004689526 -0.9699832909151151 0.08026638614325343
vn -0.21058532411758804 0.9742455459312395 -0.08061908892707406
vn 0.21058532411758804 -0.9742455459312395 0.08061908892707406
vn 0.005391149987008872 0.9965791968757258 -0.08246720473225205
vn -0.005391149987008872 -0.9965791968757258 0.08246720473225205
usemtl material_0_0
f 1//1 2//2 3//1
f 2//2 1//1 4//2
f 5//3 6//4 7//3
f 8//4 7//3 6//4
f 9//5 3//1 10//5
f 3//1 9//5 1//1
f 6//4 11//6 8//4
f 12//6 8//4 11//6
f 4//2 13//7 2//2
f 13//7 4//2 14//7
f 15//8 5//3 16//8
f 7//3 16//8 5//3
f 17//9 10//5 18//9
f 10//5 17//9 9//5
f 11//6 19//10 12//6
f 20//10 12//6 19//10
f 14//7 21//11 13//7
f 21//11 14//7 22//11
f 23//12 15//8 24//12
f 16//8 24//12 15//8
f 25//13 18//9 26//13
f 18//9 25//13 17//9
f 19//10 27//14 20//10
f 28//14 20//10 27//14
f 22//11 29//15 21//11
f 29//15 22//11 30//15
f 31//16 23//12 32//16
f 24//12 32//16 23//12
f 33//17 26//13 34//17
f 26//13 33//17 25//13
f 27//14 35//18 28//14
f 36//18 28//14 35//18
f 29//15 37//19 38//19
f 37//19 29//15 30//15
f 31//16 32//16 39//20
f 40//20 39//20 32//16
f 33//17 41//21 42//21
f 41//21 33//17 34//17
f 36//18 35//18 43//22
f 44//22 43//22 35//18
f 38//19 45//23 46//23
f 45//23 38//19 37//19
f 39//20 40//20 47//24
f 48//24 47//24 40//20
f 42//21 49//25 50//25
f 49//25 42//21 41//21
f 43//22 44//22 51//26
f 52//26 51//26 44//22
f 46//23 53//27 54//27
f 53//27 46//23 45//23
f 47//24 48//24 55//28
f 56//28 55//28 48//24
f 50//25 57//29 58//29
f 57//29 50//25 49//25
f 51//26 52//26 59//30
f 60//30 59//30 52//26
f 54//27 61//31 62//31
f 61//31 54//27 53//27
f 55//28 56//28 63//32
f 64//32 63//32 56//28
f 58//29 65//33 66//33
f 65//33 58//29 57//29
f 59//30 60//30 67//34
f 68//34 67//34 60//30
f 62//31 69//35 70//35
f 69//35 62//31 61//31
f 63//32 64//32 71//36
f 72//36 71//36 64//32
f 66//33 73//37 74//37
f 73//37 66//33 65//33
f 67//34 68//34 75//38
f 76//38 75//38 68//34
f 70//35 77//39 78//39
f 77//39 70//35 69//35
f 71//36 72//36 79//40
f 80//40 79//40 72//36
f 74//37 81//41 82//41
f 81//41 74//37 73//37
f 75//38 76//38 83//42
f 84//42 83//42 76//38
f 78//39 85//43 86//43
f 85//43 78//39 77//39
f 79//40 80//40 87//44
f 88//44 87//44 80//40
f 82//41 89//45 90//45
f 89//45 82//41 81//41
f 83//42 84//42 91//46
f 92//46 91//46 84//42
f 86//43 93//47 94//47
f 93//47 86//43 85//43
f 87//44 88//44 95//48
f 96//48 95//48 88//44
f 90//45 97//49 98//49
f 97//49 90//45 89//45
f 91//46 92//46 99//50
f 100//50 99//50 92//46
f 93//47 101//51 94//47
f 101//51 93//47 102//51
f 103//52 95//48 104//52
f 96//48 104//52 95//48
f 105//53 97//49 106//53
f 97//49 105//53 98//49
f 100//50 107//54 99//50
f 108//54 99//50 107//54
f 102//51 109//55 101//51
f 109//55 102//51 110//55
f 111//56 103//52 112//56
f 104//52 112//56 103//52
f 113//57 106//53 114//57
f 106//53 113//57 105//53
f 107//54 115//58 108//54
f 116//58 108//54 115//58
f 110//55 117//59 109//55
f 117//59 110//55 118//59
f 119//60 111//56 120//60
f 112//56 120//60 111//56
f 121//61 114//57 122//61
f 114//57 121//61 113//57
f 115//58 123//62 116//58
f 124//62 116//58 123//62
f 118//59 125//63 117//59
f 125//63 118//59 126//63
f 127//64 119//60 128//64
f 120//60 128//64 119//60
f 126//63 122//61 125//63
f 122//61 126//63 121//61
f 123//62 127//64 124//62
f 128//64 124//62 127//64
