# SSTK version 0.8.0
# 178
mtllib original-178.mtl
o #ID1029
v 0.006669 0.545006 0.398250
v 0.006639 0.542987 0.398840
v 0.006639 0.545006 0.398250
v 0.006790 0.543951 0.398559
v 0.007154 0.545641 0.398064
v 0.006979 0.544365 0.398437
v 0.007244 0.544733 0.398330
v 0.007736 0.546094 0.397932
v 0.007567 0.545036 0.398241
v 0.007929 0.545252 0.398178
v 0.008417 0.546366 0.397852
v 0.008331 0.545382 0.398140
v 0.008774 0.545425 0.398127
v 0.009195 0.546457 0.397825
v 0.009193 0.545387 0.398138
v 0.009556 0.545272 0.398172
v 0.009789 0.546406 0.397840
v 0.009864 0.545082 0.398228
v 0.010309 0.546254 0.397885
v 0.010115 0.544815 0.398306
v 0.010451 0.544054 0.398528
v 0.010755 0.546000 0.397959
v 0.010562 0.542987 0.398840
v 0.010562 0.538620 0.400118
v 0.011795 0.538620 0.400118
v 0.011126 0.545645 0.398063
v 0.011419 0.545195 0.398195
v 0.011628 0.544654 0.398353
v 0.011753 0.544023 0.398538
v 0.011795 0.543301 0.398749
v 0.006639 0.546277 0.397878
v 0.005407 0.538620 0.400118
v 0.005407 0.546277 0.397878
v 0.006639 0.538620 0.400118
v 0.006639 0.545006 0.398250
v 0.006639 0.546277 0.397878
v 0.006639 0.542987 0.398840
v 0.006639 0.538620 0.400118
v 0.005407 0.538620 0.400118
v 0.005407 0.546277 0.397878
v 0.011795 0.543301 0.398749
v 0.011753 0.544023 0.398538
v 0.011795 0.538620 0.400118
v 0.011628 0.544654 0.398353
v 0.011419 0.545195 0.398195
v 0.011126 0.545645 0.398063
v 0.010755 0.546000 0.397959
v 0.010562 0.538620 0.400118
v 0.010562 0.542987 0.398840
v 0.010451 0.544054 0.398528
v 0.010309 0.546254 0.397885
v 0.010115 0.544815 0.398306
v 0.009864 0.545082 0.398228
v 0.009789 0.546406 0.397840
v 0.009556 0.545272 0.398172
v 0.009195 0.546457 0.397825
v 0.009193 0.545387 0.398138
v 0.008774 0.545425 0.398127
v 0.008417 0.546366 0.397852
v 0.008331 0.545382 0.398140
v 0.007929 0.545252 0.398178
v 0.007736 0.546094 0.397932
v 0.007567 0.545036 0.398241
v 0.007244 0.544733 0.398330
v 0.007154 0.545641 0.398064
v 0.006979 0.544365 0.398437
v 0.006790 0.543951 0.398559
v 0.006669 0.545006 0.398250
v 0.011795 0.538846 0.400890
v 0.010562 0.538620 0.400118
v 0.011795 0.538620 0.400118
v 0.010562 0.538846 0.400890
v 0.010562 0.538846 0.400890
v 0.011795 0.538846 0.400890
v 0.010562 0.538620 0.400118
v 0.011795 0.538620 0.400118
v 0.010562 0.538846 0.400890
v 0.010562 0.542987 0.398840
v 0.010562 0.538620 0.400118
v 0.010562 0.543213 0.399613
v 0.010562 0.543213 0.399613
v 0.010562 0.538846 0.400890
v 0.010562 0.542987 0.398840
v 0.010562 0.538620 0.400118
v 0.010451 0.544280 0.399301
v 0.010451 0.544054 0.398528
v 0.010451 0.544054 0.398528
v 0.010451 0.544280 0.399301
v 0.010115 0.544815 0.398306
v 0.010115 0.545041 0.399078
v 0.010115 0.545041 0.399078
v 0.010115 0.544815 0.398306
v 0.009864 0.545082 0.398228
v 0.009864 0.545308 0.399000
v 0.009864 0.545308 0.399000
v 0.009864 0.545082 0.398228
v 0.009556 0.545272 0.398172
v 0.009556 0.545498 0.398944
v 0.009556 0.545498 0.398944
v 0.009556 0.545272 0.398172
v 0.009193 0.545613 0.398911
v 0.009193 0.545387 0.398138
v 0.009193 0.545613 0.398911
v 0.009193 0.545387 0.398138
v 0.008774 0.545425 0.398127
v 0.008774 0.545651 0.398900
v 0.008774 0.545651 0.398900
v 0.008774 0.545425 0.398127
v 0.008331 0.545382 0.398140
v 0.008331 0.545608 0.398912
v 0.008331 0.545608 0.398912
v 0.008331 0.545382 0.398140
v 0.007929 0.545252 0.398178
v 0.007929 0.545478 0.398950
v 0.007929 0.545478 0.398950
v 0.007929 0.545252 0.398178
v 0.007567 0.545036 0.398241
v 0.007567 0.545262 0.399014
v 0.007567 0.545262 0.399014
v 0.007567 0.545036 0.398241
v 0.007244 0.544733 0.398330
v 0.007244 0.544959 0.399102
v 0.007244 0.544959 0.399102
v 0.007244 0.544733 0.398330
v 0.006979 0.544591 0.399210
v 0.006979 0.544365 0.398437
v 0.006979 0.544591 0.399210
v 0.006979 0.544365 0.398437
v 0.006790 0.544177 0.399331
v 0.006790 0.543951 0.398559
v 0.006790 0.544177 0.399331
v 0.006790 0.543951 0.398559
v 0.006639 0.543213 0.399613
v 0.006639 0.542987 0.398840
v 0.006639 0.543213 0.399613
v 0.006639 0.542987 0.398840
v 0.006639 0.538846 0.400890
v 0.006639 0.538620 0.400118
v 0.006639 0.538846 0.400890
v 0.006639 0.538620 0.400118
v 0.006639 0.538846 0.400890
v 0.005407 0.538620 0.400118
v 0.006639 0.538620 0.400118
v 0.005407 0.538846 0.400890
v 0.005407 0.538846 0.400890
v 0.006639 0.538846 0.400890
v 0.005407 0.538620 0.400118
v 0.006639 0.538620 0.400118
v 0.005407 0.538846 0.400890
v 0.005407 0.546277 0.397878
v 0.005407 0.538620 0.400118
v 0.005407 0.546503 0.398650
v 0.005407 0.546503 0.398650
v 0.005407 0.538846 0.400890
v 0.005407 0.546277 0.397878
v 0.005407 0.538620 0.400118
v 0.005407 0.546503 0.398650
v 0.006639 0.546277 0.397878
v 0.005407 0.546277 0.397878
v 0.006639 0.546503 0.398650
v 0.006639 0.546503 0.398650
v 0.005407 0.546503 0.398650
v 0.006639 0.546277 0.397878
v 0.005407 0.546277 0.397878
v 0.006639 0.546277 0.397878
v 0.006639 0.545232 0.399022
v 0.006639 0.545006 0.398250
v 0.006639 0.546503 0.398650
v 0.006639 0.546503 0.398650
v 0.006639 0.546277 0.397878
v 0.006639 0.545232 0.399022
v 0.006639 0.545006 0.398250
v 0.006639 0.545232 0.399022
v 0.006669 0.545006 0.398250
v 0.006639 0.545006 0.398250
v 0.006669 0.545232 0.399022
v 0.006669 0.545232 0.399022
v 0.006639 0.545232 0.399022
v 0.006669 0.545006 0.398250
v 0.006639 0.545006 0.398250
v 0.007154 0.545867 0.398837
v 0.006669 0.545006 0.398250
v 0.006669 0.545232 0.399022
v 0.007154 0.545641 0.398064
v 0.007154 0.545641 0.398064
v 0.007154 0.545867 0.398837
v 0.006669 0.545006 0.398250
v 0.006669 0.545232 0.399022
v 0.007736 0.546320 0.398704
v 0.007736 0.546094 0.397932
v 0.007736 0.546320 0.398704
v 0.007736 0.546094 0.397932
v 0.008417 0.546366 0.397852
v 0.008417 0.546592 0.398624
v 0.008417 0.546592 0.398624
v 0.008417 0.546366 0.397852
v 0.009195 0.546457 0.397825
v 0.009195 0.546683 0.398598
v 0.009195 0.546683 0.398598
v 0.009195 0.546457 0.397825
v 0.009789 0.546406 0.397840
v 0.009789 0.546632 0.398613
v 0.009789 0.546632 0.398613
v 0.009789 0.546406 0.397840
v 0.010309 0.546480 0.398657
v 0.010309 0.546254 0.397885
v 0.010309 0.546480 0.398657
v 0.010309 0.546254 0.397885
v 0.010755 0.546000 0.397959
v 0.010755 0.546226 0.398731
v 0.010755 0.546226 0.398731
v 0.010755 0.546000 0.397959
v 0.011126 0.545871 0.398835
v 0.011126 0.545645 0.398063
v 0.011126 0.545871 0.398835
v 0.011126 0.545645 0.398063
v 0.011419 0.545421 0.398967
v 0.011419 0.545195 0.398195
v 0.011419 0.545421 0.398967
v 0.011419 0.545195 0.398195
v 0.011628 0.544880 0.399125
v 0.011628 0.544654 0.398353
v 0.011628 0.544880 0.399125
v 0.011628 0.544654 0.398353
v 0.011753 0.544248 0.399310
v 0.011753 0.544023 0.398538
v 0.011753 0.544248 0.399310
v 0.011753 0.544023 0.398538
v 0.011795 0.543527 0.399521
v 0.011795 0.543301 0.398749
v 0.011795 0.543527 0.399521
v 0.011795 0.543301 0.398749
v 0.011795 0.538846 0.400890
v 0.011795 0.538620 0.400118
v 0.011795 0.538846 0.400890
v 0.011795 0.538620 0.400118
v 0.011795 0.538846 0.400890
v 0.010562 0.543213 0.399613
v 0.010562 0.538846 0.400890
v 0.010755 0.546226 0.398731
v 0.011126 0.545871 0.398835
v 0.011419 0.545421 0.398967
v 0.011628 0.544880 0.399125
v 0.011753 0.544248 0.399310
v 0.011795 0.543527 0.399521
v 0.006639 0.538846 0.400890
v 0.005407 0.546503 0.398650
v 0.005407 0.538846 0.400890
v 0.006639 0.546503 0.398650
v 0.006639 0.545232 0.399022
v 0.006639 0.543213 0.399613
v 0.006790 0.544177 0.399331
v 0.006669 0.545232 0.399022
v 0.007154 0.545867 0.398837
v 0.006979 0.544591 0.399210
v 0.007244 0.544959 0.399102
v 0.007736 0.546320 0.398704
v 0.007567 0.545262 0.399014
v 0.007929 0.545478 0.398950
v 0.008417 0.546592 0.398624
v 0.008331 0.545608 0.398912
v 0.008774 0.545651 0.398900
v 0.009195 0.546683 0.398598
v 0.009193 0.545613 0.398911
v 0.009556 0.545498 0.398944
v 0.009789 0.546632 0.398613
v 0.009864 0.545308 0.399000
v 0.010309 0.546480 0.398657
v 0.010115 0.545041 0.399078
v 0.010451 0.544280 0.399301
v 0.010562 0.543213 0.399613
v 0.010451 0.544280 0.399301
v 0.010755 0.546226 0.398731
v 0.010309 0.546480 0.398657
v 0.010115 0.545041 0.399078
v 0.009864 0.545308 0.399000
v 0.009789 0.546632 0.398613
v 0.009556 0.545498 0.398944
v 0.009195 0.546683 0.398598
v 0.009193 0.545613 0.398911
v 0.008774 0.545651 0.398900
v 0.008417 0.546592 0.398624
v 0.008331 0.545608 0.398912
v 0.007929 0.545478 0.398950
v 0.007736 0.546320 0.398704
v 0.007567 0.545262 0.399014
v 0.007244 0.544959 0.399102
v 0.007154 0.545867 0.398837
v 0.006979 0.544591 0.399210
v 0.006790 0.544177 0.399331
v 0.006669 0.545232 0.399022
v 0.006639 0.545232 0.399022
v 0.006639 0.543213 0.399613
v 0.006639 0.538846 0.400890
v 0.006639 0.546503 0.398650
v 0.005407 0.546503 0.398650
v 0.005407 0.538846 0.400890
v 0.011795 0.543527 0.399521
v 0.011795 0.538846 0.400890
v 0.011753 0.544248 0.399310
v 0.011628 0.544880 0.399125
v 0.011419 0.545421 0.398967
v 0.011126 0.545871 0.398835
v 0.010562 0.538846 0.400890
vn 0 -0.28075312657542256 -0.9597800174613581
vn 0 0.28075312657542256 0.9597800174613581
vn 0 -0.959780017461358 0.28075312657542256
vn 0 0.959780017461358 -0.28075312657542256
vn -1 0 0
vn -0.9987438304999581 -0.048092172264158364 0.014067835838736959
vn 0.9987438304999581 0.048092172264158364 -0.014067835838736959
vn 1 0 0
vn -0.9689989466818125 -0.23712790842457712 0.06936422979982668
vn 0.9689989466818125 0.23712790842457712 -0.06936422979982668
vn -0.8435637914163426 -0.5154296877794786 0.1507725663601784
vn 0.8435637914163426 0.5154296877794786 -0.1507725663601784
vn -0.6477565155181515 -0.7312059333731555 0.21389104610449539
vn 0.6477565155181515 0.7312059333731555 -0.21389104610449539
vn -0.4307559358025145 -0.8661711956138151 0.2533708421658537
vn 0.4307559358025145 0.8661711956138151 -0.2533708421658537
vn -0.20423072252353164 -0.9395505242418878 0.27483563155877383
vn 0.20423072252353164 0.9395505242418878 -0.27483563155877383
vn 0.0035602664042751362 -0.9597739345977788 0.2807513472270956
vn -0.0035602664042751362 0.9597739345977788 -0.2807513472270956
vn 0.21132373995310416 -0.9381044633210179 0.27441263241588854
vn -0.21132373995310416 0.9381044633210179 -0.27441263241588854
vn 0.4262809781051409 -0.8682081803239489 0.2539666972740753
vn -0.4262809781051409 0.8682081803239489 -0.2539666972740753
vn 0.6174370021849556 -0.7549824769689316 0.22084611792538253
vn -0.6174370021849556 0.7549824769689316 -0.22084611792538253
vn 0.7649699227372974 -0.6181616804154441 0.18082354430009331
vn -0.7649699227372974 0.6181616804154441 -0.18082354430009331
vn 0.8736509364311684 -0.4669840632943637 0.13660133931271756
vn -0.8736509364311684 0.4669840632943637 -0.13660133931271756
vn 0.9607660502155971 -0.26620463262357263 0.07786970092962771
vn -0.9607660502155971 0.26620463262357263 -0.07786970092962771
vn 0.9972089810386917 -0.07165802799511206 0.020961277623897434
vn -0.9972089810386917 0.07165802799511206 -0.020961277623897434
vn 0 -0.959780017461358 0.2807531265754226
vn 0 0.959780017461358 -0.2807531265754226
vn -0.7245308623740184 0.6615210433753934 -0.19350694726312043
vn -0.8064881343062786 0.5674702005099044 -0.16599536365943146
vn 0.7245308623740184 -0.6615210433753934 0.19350694726312043
vn 0.8064881343062786 -0.5674702005099044 0.16599536365943146
vn -0.5130106375177061 0.8238581301547785 -0.24099350026826138
vn 0.5130106375177061 -0.8238581301547785 0.24099350026826138
vn -0.25526993157171246 0.9279823392783018 -0.2714517268741244
vn 0.25526993157171246 -0.9279823392783018 0.2714517268741244
vn -0.016095810241839942 0.9596556818522469 -0.2807167561464002
vn 0.016095810241839942 -0.9596556818522469 0.2807167561464002
vn 0.19121826419267782 0.9420697161359572 -0.2755725410461942
vn -0.19121826419267782 -0.9420697161359572 0.2755725410461942
vn 0.4038886402719909 0.8780145900247442 -0.2568352506236684
vn -0.4038886402719909 -0.8780145900247442 0.2568352506236684
vn 0.612738197595683 0.7585006740877726 -0.22187525462653143
vn -0.612738197595683 -0.7585006740877726 0.22187525462653143
vn 0.7825562605430206 0.5975397220112734 -0.17479124607260602
vn -0.7825562605430206 -0.5975397220112734 0.17479124607260602
vn 0.8978615914694427 0.4225698578875514 -0.12360937573199762
vn -0.8978615914694427 -0.4225698578875514 0.12360937573199762
vn 0.9633227483697175 0.25755260415194764 -0.07533882510342386
vn -0.9633227483697175 -0.25755260415194764 0.07533882510342386
vn 0.9925701404397723 0.1167800925412546 -0.03416030288839052
vn -0.9925701404397723 -0.1167800925412546 0.03416030288839052
vn 0.9996140854064341 0.026661857219244748 -0.007799078578849466
vn -0.9996140854064341 -0.026661857219244748 0.007799078578849466
usemtl material_0_0
f 1//1 2//1 3//1
f 2//1 1//1 4//1
f 4//1 1//1 5//1
f 4//1 5//1 6//1
f 6//1 5//1 7//1
f 7//1 5//1 8//1
f 7//1 8//1 9//1
f 9//1 8//1 10//1
f 10//1 8//1 11//1
f 10//1 11//1 12//1
f 12//1 11//1 13//1
f 13//1 11//1 14//1
f 13//1 14//1 15//1
f 15//1 14//1 16//1
f 16//1 14//1 17//1
f 16//1 17//1 18//1
f 18//1 17//1 19//1
f 18//1 19//1 20//1
f 20//1 19//1 21//1
f 21//1 19//1 22//1
f 21//1 22//1 23//1
f 23//1 22//1 24//1
f 24//1 22//1 25//1
f 25//1 22//1 26//1
f 25//1 26//1 27//1
f 25//1 27//1 28//1
f 25//1 28//1 29//1
f 25//1 29//1 30//1
f 31//1 32//1 33//1
f 32//1 31//1 2//1
f 32//1 2//1 34//1
f 2//1 31//1 3//1
f 35//2 36//2 37//2
f 38//2 37//2 39//2
f 37//2 36//2 39//2
f 40//2 39//2 36//2
f 41//2 42//2 43//2
f 42//2 44//2 43//2
f 44//2 45//2 43//2
f 45//2 46//2 43//2
f 46//2 47//2 43//2
f 43//2 47//2 48//2
f 48//2 47//2 49//2
f 49//2 47//2 50//2
f 47//2 51//2 50//2
f 50//2 51//2 52//2
f 52//2 51//2 53//2
f 51//2 54//2 53//2
f 53//2 54//2 55//2
f 54//2 56//2 55//2
f 55//2 56//2 57//2
f 57//2 56//2 58//2
f 56//2 59//2 58//2
f 58//2 59//2 60//2
f 60//2 59//2 61//2
f 59//2 62//2 61//2
f 61//2 62//2 63//2
f 63//2 62//2 64//2
f 62//2 65//2 64//2
f 64//2 65//2 66//2
f 66//2 65//2 67//2
f 65//2 68//2 67//2
f 67//2 68//2 37//2
f 35//2 37//2 68//2
f 69//3 70//3 71//3
f 70//3 69//3 72//3
f 73//4 74//4 75//4
f 76//4 75//4 74//4
f 77//5 78//6 79//5
f 78//6 77//5 80//6
f 81//7 82//8 83//7
f 84//8 83//7 82//8
f 85//9 78//6 80//6
f 78//6 85//9 86//9
f 87//10 88//10 83//7
f 81//7 83//7 88//10
f 85//9 89//11 86//9
f 89//11 85//9 90//11
f 91//12 88//10 92//12
f 87//10 92//12 88//10
f 90//11 93//13 89//11
f 93//13 90//11 94//13
f 95//14 91//12 96//14
f 92//12 96//14 91//12
f 94//13 97//15 93//13
f 97//15 94//13 98//15
f 99//16 95//14 100//16
f 96//14 100//16 95//14
f 97//15 101//17 102//17
f 101//17 97//15 98//15
f 99//16 100//16 103//18
f 104//18 103//18 100//16
f 101//17 105//19 102//17
f 105//19 101//17 106//19
f 107//20 103//18 108//20
f 104//18 108//20 103//18
f 106//19 109//21 105//19
f 109//21 106//19 110//21
f 111//22 107//20 112//22
f 108//20 112//22 107//20
f 110//21 113//23 109//21
f 113//23 110//21 114//23
f 115//24 111//22 116//24
f 112//22 116//24 111//22
f 114//23 117//25 113//23
f 117//25 114//23 118//25
f 119//26 115//24 120//26
f 116//24 120//26 115//24
f 118//25 121//27 117//25
f 121//27 118//25 122//27
f 123//28 119//26 124//28
f 120//26 124//28 119//26
f 121//27 125//29 126//29
f 125//29 121//27 122//27
f 123//28 124//28 127//30
f 128//30 127//30 124//28
f 126//29 129//31 130//31
f 129//31 126//29 125//29
f 127//30 128//30 131//32
f 132//32 131//32 128//30
f 130//31 133//33 134//33
f 133//33 130//31 129//31
f 131//32 132//32 135//34
f 136//34 135//34 132//32
f 134//33 137//8 138//8
f 137//8 134//33 133//33
f 135//34 136//34 139//5
f 140//5 139//5 136//34
f 141//35 142//35 143//35
f 142//35 141//35 144//35
f 145//36 146//36 147//36
f 148//36 147//36 146//36
f 149//5 150//5 151//5
f 150//5 149//5 152//5
f 153//8 154//8 155//8
f 156//8 155//8 154//8
f 157//36 158//36 159//36
f 158//36 157//36 160//36
f 161//35 162//35 163//35
f 164//35 163//35 162//35
f 165//8 166//8 167//8
f 166//8 165//8 168//8
f 169//5 170//5 171//5
f 172//5 171//5 170//5
f 173//4 174//4 175//4
f 174//4 173//4 176//4
f 177//3 178//3 179//3
f 180//3 179//3 178//3
f 181//37 182//38 183//38
f 182//38 181//37 184//37
f 185//39 186//39 187//40
f 188//40 187//40 186//39
f 184//37 189//41 190//41
f 189//41 184//37 181//37
f 186//39 185//39 191//42
f 192//42 191//42 185//39
f 189//41 193//43 190//41
f 193//43 189//41 194//43
f 195//44 191//42 196//44
f 192//42 196//44 191//42
f 194//43 197//45 193//43
f 197//45 194//43 198//45
f 199//46 195//44 200//46
f 196//44 200//46 195//44
f 198//45 201//47 197//45
f 201//47 198//45 202//47
f 203//48 199//46 204//48
f 200//46 204//48 199//46
f 201//47 205//49 206//49
f 205//49 201//47 202//47
f 203//48 204//48 207//50
f 208//50 207//50 204//48
f 205//49 209//51 206//49
f 209//51 205//49 210//51
f 211//52 207//50 212//52
f 208//50 212//52 207//50
f 209//51 213//53 214//53
f 213//53 209//51 210//51
f 211//52 212//52 215//54
f 216//54 215//54 212//52
f 214//53 217//55 218//55
f 217//55 214//53 213//53
f 215//54 216//54 219//56
f 220//56 219//56 216//54
f 218//55 221//57 222//57
f 221//57 218//55 217//55
f 219//56 220//56 223//58
f 224//58 223//58 220//56
f 222//57 225//59 226//59
f 225//59 222//57 221//57
f 223//58 224//58 227//60
f 228//60 227//60 224//58
f 226//59 229//61 230//61
f 229//61 226//59 225//59
f 227//60 228//60 231//62
f 232//62 231//62 228//60
f 230//61 233//8 234//8
f 233//8 230//61 229//61
f 231//62 232//62 235//5
f 236//5 235//5 232//62
f 237//2 238//2 239//2
f 238//2 237//2 240//2
f 240//2 237//2 241//2
f 241//2 237//2 242//2
f 242//2 237//2 243//2
f 243//2 237//2 244//2
f 244//2 237//2 245//2
f 246//2 247//2 248//2
f 247//2 246//2 249//2
f 249//2 246//2 250//2
f 250//2 246//2 251//2
f 250//2 251//2 252//2
f 250//2 252//2 253//2
f 253//2 252//2 254//2
f 254//2 252//2 255//2
f 254//2 255//2 256//2
f 254//2 256//2 257//2
f 257//2 256//2 258//2
f 257//2 258//2 259//2
f 257//2 259//2 260//2
f 260//2 259//2 261//2
f 260//2 261//2 262//2
f 260//2 262//2 263//2
f 263//2 262//2 264//2
f 263//2 264//2 265//2
f 263//2 265//2 266//2
f 266//2 265//2 267//2
f 266//2 267//2 268//2
f 268//2 267//2 269//2
f 268//2 269//2 270//2
f 268//2 270//2 240//2
f 240//2 270//2 238//2
f 271//1 272//1 273//1
f 273//1 272//1 274//1
f 272//1 275//1 274//1
f 275//1 276//1 274//1
f 274//1 276//1 277//1
f 276//1 278//1 277//1
f 277//1 278//1 279//1
f 278//1 280//1 279//1
f 280//1 281//1 279//1
f 279//1 281//1 282//1
f 281//1 283//1 282//1
f 283//1 284//1 282//1
f 282//1 284//1 285//1
f 284//1 286//1 285//1
f 286//1 287//1 285//1
f 285//1 287//1 288//1
f 287//1 289//1 288//1
f 289//1 290//1 288//1
f 288//1 290//1 291//1
f 291//1 290//1 292//1
f 290//1 293//1 292//1
f 293//1 294//1 292//1
f 292//1 294//1 295//1
f 295//1 294//1 296//1
f 297//1 296//1 294//1
f 298//1 299//1 300//1
f 300//1 299//1 301//1
f 301//1 299//1 302//1
f 302//1 299//1 303//1
f 303//1 299//1 273//1
f 273//1 299//1 271//1
f 304//1 271//1 299//1
