# SSTK version 0.8.0
# 138
mtllib original-138.mtl
o #ID801
v 0.099268 0.523398 0.404571
v 0.098027 0.522431 0.404853
v 0.098027 0.523398 0.404571
v 0.099268 0.522431 0.404853
v 0.098027 0.525489 0.403959
v 0.097239 0.523398 0.404571
v 0.097239 0.525123 0.404066
v 0.097239 0.522431 0.404853
v 0.097239 0.518248 0.406077
v 0.097320 0.517343 0.406342
v 0.097421 0.516987 0.406446
v 0.097562 0.516695 0.406531
v 0.097744 0.516469 0.406597
v 0.097966 0.516307 0.406645
v 0.098027 0.518449 0.406018
v 0.098069 0.517839 0.406197
v 0.098532 0.516178 0.406683
v 0.098196 0.517434 0.406315
v 0.098419 0.517206 0.406382
v 0.098753 0.517130 0.406404
v 0.098944 0.516233 0.406666
v 0.099031 0.517189 0.406387
v 0.099268 0.516399 0.406618
v 0.099268 0.517365 0.406335
v 0.096393 0.522431 0.404853
v 0.096393 0.523398 0.404571
v 0.097239 0.522431 0.404853
v 0.097239 0.523398 0.404571
v 0.096393 0.522431 0.404853
v 0.096393 0.523398 0.404571
v 0.099268 0.517365 0.406335
v 0.099031 0.517189 0.406387
v 0.099268 0.516399 0.406618
v 0.098944 0.516233 0.406666
v 0.098753 0.517130 0.406404
v 0.098532 0.516178 0.406683
v 0.098419 0.517206 0.406382
v 0.098196 0.517434 0.406315
v 0.098069 0.517839 0.406197
v 0.098027 0.522431 0.404853
v 0.098027 0.523398 0.404571
v 0.098027 0.518449 0.406018
v 0.098027 0.525489 0.403959
v 0.097966 0.516307 0.406645
v 0.097744 0.516469 0.406597
v 0.097562 0.516695 0.406531
v 0.097421 0.516987 0.406446
v 0.097320 0.517343 0.406342
v 0.097239 0.518248 0.406077
v 0.097239 0.525123 0.404066
v 0.099268 0.522431 0.404853
v 0.099268 0.523398 0.404571
v 0.099268 0.516625 0.407390
v 0.098944 0.516233 0.406666
v 0.099268 0.516399 0.406618
v 0.098944 0.516459 0.407439
v 0.098944 0.516459 0.407439
v 0.099268 0.516625 0.407390
v 0.098944 0.516233 0.406666
v 0.099268 0.516399 0.406618
v 0.098532 0.516178 0.406683
v 0.098532 0.516404 0.407455
v 0.098532 0.516404 0.407455
v 0.098532 0.516178 0.406683
v 0.097966 0.516307 0.406645
v 0.097966 0.516533 0.407417
v 0.097966 0.516533 0.407417
v 0.097966 0.516307 0.406645
v 0.097744 0.516469 0.406597
v 0.097744 0.516695 0.407370
v 0.097744 0.516695 0.407370
v 0.097744 0.516469 0.406597
v 0.097744 0.516695 0.407370
v 0.097562 0.516695 0.406531
v 0.097744 0.516469 0.406597
v 0.097562 0.516921 0.407304
v 0.097562 0.516921 0.407304
v 0.097744 0.516695 0.407370
v 0.097562 0.516695 0.406531
v 0.097744 0.516469 0.406597
v 0.097421 0.517213 0.407218
v 0.097562 0.516695 0.406531
v 0.097562 0.516921 0.407304
v 0.097421 0.516987 0.406446
v 0.097421 0.516987 0.406446
v 0.097421 0.517213 0.407218
v 0.097562 0.516695 0.406531
v 0.097562 0.516921 0.407304
v 0.097320 0.517568 0.407114
v 0.097421 0.516987 0.406446
v 0.097421 0.517213 0.407218
v 0.097320 0.517343 0.406342
v 0.097320 0.517343 0.406342
v 0.097320 0.517568 0.407114
v 0.097421 0.516987 0.406446
v 0.097421 0.517213 0.407218
v 0.097239 0.518474 0.406849
v 0.097239 0.518248 0.406077
v 0.097239 0.518248 0.406077
v 0.097239 0.518474 0.406849
v 0.097239 0.522657 0.405626
v 0.097239 0.522431 0.404853
v 0.097239 0.522431 0.404853
v 0.097239 0.522657 0.405626
v 0.097239 0.522657 0.405626
v 0.096393 0.522431 0.404853
v 0.097239 0.522431 0.404853
v 0.096393 0.522657 0.405626
v 0.096393 0.522657 0.405626
v 0.097239 0.522657 0.405626
v 0.096393 0.522431 0.404853
v 0.097239 0.522431 0.404853
v 0.096393 0.523624 0.405343
v 0.096393 0.522431 0.404853
v 0.096393 0.522657 0.405626
v 0.096393 0.523398 0.404571
v 0.096393 0.523398 0.404571
v 0.096393 0.523624 0.405343
v 0.096393 0.522431 0.404853
v 0.096393 0.522657 0.405626
v 0.096393 0.523624 0.405343
v 0.097239 0.523398 0.404571
v 0.096393 0.523398 0.404571
v 0.097239 0.523624 0.405343
v 0.097239 0.523624 0.405343
v 0.096393 0.523624 0.405343
v 0.097239 0.523398 0.404571
v 0.096393 0.523398 0.404571
v 0.097239 0.525349 0.404838
v 0.097239 0.523398 0.404571
v 0.097239 0.523624 0.405343
v 0.097239 0.525123 0.404066
v 0.097239 0.525123 0.404066
v 0.097239 0.525349 0.404838
v 0.097239 0.523398 0.404571
v 0.097239 0.523624 0.405343
v 0.097239 0.525349 0.404838
v 0.098027 0.525489 0.403959
v 0.097239 0.525123 0.404066
v 0.098027 0.525715 0.404731
v 0.098027 0.525715 0.404731
v 0.097239 0.525349 0.404838
v 0.098027 0.525489 0.403959
v 0.097239 0.525123 0.404066
v 0.098027 0.523398 0.404571
v 0.098027 0.525715 0.404731
v 0.098027 0.523624 0.405343
v 0.098027 0.525489 0.403959
v 0.098027 0.525489 0.403959
v 0.098027 0.523398 0.404571
v 0.098027 0.525715 0.404731
v 0.098027 0.523624 0.405343
v 0.098027 0.523624 0.405343
v 0.099268 0.523398 0.404571
v 0.098027 0.523398 0.404571
v 0.099268 0.523624 0.405343
v 0.099268 0.523624 0.405343
v 0.098027 0.523624 0.405343
v 0.099268 0.523398 0.404571
v 0.098027 0.523398 0.404571
v 0.099268 0.523398 0.404571
v 0.099268 0.522657 0.405626
v 0.099268 0.522431 0.404853
v 0.099268 0.523624 0.405343
v 0.099268 0.523624 0.405343
v 0.099268 0.523398 0.404571
v 0.099268 0.522657 0.405626
v 0.099268 0.522431 0.404853
v 0.099268 0.522657 0.405626
v 0.098027 0.522431 0.404853
v 0.099268 0.522431 0.404853
v 0.098027 0.522657 0.405626
v 0.098027 0.522657 0.405626
v 0.099268 0.522657 0.405626
v 0.098027 0.522431 0.404853
v 0.099268 0.522431 0.404853
v 0.098027 0.522431 0.404853
v 0.098027 0.518675 0.406791
v 0.098027 0.518449 0.406018
v 0.098027 0.522657 0.405626
v 0.098027 0.522657 0.405626
v 0.098027 0.522431 0.404853
v 0.098027 0.518675 0.406791
v 0.098027 0.518449 0.406018
v 0.098069 0.518065 0.406969
v 0.098069 0.517839 0.406197
v 0.098069 0.518065 0.406969
v 0.098069 0.517839 0.406197
v 0.098196 0.517660 0.407088
v 0.098196 0.517434 0.406315
v 0.098196 0.517660 0.407088
v 0.098196 0.517434 0.406315
v 0.098196 0.517660 0.407088
v 0.098419 0.517206 0.406382
v 0.098196 0.517434 0.406315
v 0.098419 0.517432 0.407154
v 0.098419 0.517432 0.407154
v 0.098196 0.517660 0.407088
v 0.098419 0.517206 0.406382
v 0.098196 0.517434 0.406315
v 0.098753 0.517130 0.406404
v 0.098753 0.517356 0.407176
v 0.098753 0.517356 0.407176
v 0.098753 0.517130 0.406404
v 0.099031 0.517415 0.407159
v 0.099031 0.517189 0.406387
v 0.099031 0.517415 0.407159
v 0.099031 0.517189 0.406387
v 0.099031 0.517415 0.407159
v 0.099268 0.517365 0.406335
v 0.099031 0.517189 0.406387
v 0.099268 0.517591 0.407108
v 0.099268 0.517591 0.407108
v 0.099031 0.517415 0.407159
v 0.099268 0.517365 0.406335
v 0.099031 0.517189 0.406387
v 0.099268 0.517365 0.406335
v 0.099268 0.516625 0.407390
v 0.099268 0.516399 0.406618
v 0.099268 0.517591 0.407108
v 0.099268 0.517591 0.407108
v 0.099268 0.517365 0.406335
v 0.099268 0.516625 0.407390
v 0.099268 0.516399 0.406618
v 0.097966 0.516533 0.407417
v 0.098069 0.518065 0.406969
v 0.098027 0.518675 0.406791
v 0.098532 0.516404 0.407455
v 0.098196 0.517660 0.407088
v 0.098419 0.517432 0.407154
v 0.098753 0.517356 0.407176
v 0.098944 0.516459 0.407439
v 0.099031 0.517415 0.407159
v 0.099268 0.516625 0.407390
v 0.099268 0.517591 0.407108
v 0.099268 0.522657 0.405626
v 0.098027 0.523624 0.405343
v 0.098027 0.522657 0.405626
v 0.099268 0.523624 0.405343
v 0.097320 0.517568 0.407114
v 0.097239 0.522657 0.405626
v 0.097239 0.518474 0.406849
v 0.097239 0.523624 0.405343
v 0.097239 0.525349 0.404838
v 0.098027 0.525715 0.404731
v 0.097421 0.517213 0.407218
v 0.097562 0.516921 0.407304
v 0.097744 0.516695 0.407370
v 0.096393 0.523624 0.405343
v 0.096393 0.522657 0.405626
v 0.097239 0.523624 0.405343
v 0.097239 0.522657 0.405626
v 0.096393 0.523624 0.405343
v 0.096393 0.522657 0.405626
v 0.098027 0.523624 0.405343
v 0.098027 0.522657 0.405626
v 0.098027 0.525715 0.404731
v 0.098027 0.518675 0.406791
v 0.097966 0.516533 0.407417
v 0.097744 0.516695 0.407370
v 0.097562 0.516921 0.407304
v 0.097421 0.517213 0.407218
v 0.097320 0.517568 0.407114
v 0.097239 0.525349 0.404838
v 0.097239 0.518474 0.406849
v 0.099268 0.523624 0.405343
v 0.099268 0.522657 0.405626
v 0.099268 0.517591 0.407108
v 0.099268 0.516625 0.407390
v 0.099031 0.517415 0.407159
v 0.098944 0.516459 0.407439
v 0.098753 0.517356 0.407176
v 0.098532 0.516404 0.407455
v 0.098419 0.517432 0.407154
v 0.098196 0.517660 0.407088
v 0.098069 0.518065 0.406969
vn 0 -0.2807530197988988 -0.9597800486954285
vn 0 0.2807530197988988 0.9597800486954285
vn 0.4709618138979087 -0.8466734229110799 0.24766728646720196
vn 0.3144398433291566 -0.9110975106010164 0.2665124970874098
vn -0.3144398433291566 0.9110975106010164 -0.2665124970874098
vn -0.4709618138979087 0.8466734229110799 -0.24766728646720196
vn -0.04855421643670365 -0.9586480346582875 0.28042188522299866
vn 0.04855421643670365 0.9586480346582875 -0.28042188522299866
vn -0.43646960392070516 -0.8635323487750249 0.25259882713977777
vn 0.43646960392070516 0.8635323487750249 -0.25259882713977777
vn -0.6042488136577105 -0.7647486059019803 0.22370279605813348
vn 0.6042488136577105 0.7647486059019803 -0.22370279605813348
vn -0.7920832801902797 -0.5858622555581505 0.17137530380811333
vn 0.7920832801902797 0.5858622555581505 -0.17137530380811333
vn -0.9063482173994196 -0.40553734944405256 0.11862700798210632
vn 0.9063482173994196 0.40553734944405256 -0.11862700798210632
vn -0.9848912346124821 -0.1662090103073737 0.04861914104696028
vn -0.9648318504485985 -0.2522953065480434 0.073800939382654
vn 0.9848912346124821 0.1662090103073737 -0.04861914104696028
vn 0.9648318504485985 0.2522953065480434 -0.073800939382654
vn -0.9990921838208762 -0.04088717336076381 0.011960237564511277
vn 0.9990921838208762 0.04088717336076381 -0.011960237564511277
vn -1 0 0
vn 1 0 0
vn 0 -0.9597800486954285 0.2807530197988987
vn 0 0.9597800486954285 -0.2807530197988987
vn -0.43525622539844 0.8640963359744894 -0.2527638035941152
vn 0.43525622539844 -0.8640963359744894 0.2527638035941152
vn 0.9994540298222839 0.0317111425693286 -0.009276082629258366
vn -0.9994540298222839 -0.0317111425693286 0.009276082629258366
vn 0.9846136140667072 0.16771735771022392 -0.049060359937508825
vn -0.9846136140667072 -0.16771735771022392 0.049060359937508825
vn 0.9581749877720562 0.2746727057040647 -0.08034673328286873
vn -0.9581749877720562 -0.2746727057040647 0.08034673328286873
vn 0.7279278827343345 0.6580767424240345 -0.19249934705987987
vn 0.5206518068203998 0.8194305595805206 -0.23969825631449213
vn -0.5206518068203998 -0.8194305595805206 0.23969825631449213
vn -0.7279278827343345 -0.6580767424240345 0.19249934705987987
vn 0.008103779083985982 0.9597485332072296 -0.2807438009487107
vn -0.008103779083985982 -0.9597485332072296 0.2807438009487107
vn -0.2150349425441188 0.9373272953800987 -0.2741851834444685
vn 0.2150349425441188 -0.9373272953800987 0.2741851834444685
vn -0.6123555671371395 0.7587852921920801 -0.22195841896430005
vn 0.6123555671371395 -0.7587852921920801 0.22195841896430005
usemtl material_0_0
f 1//1 2//1 3//1
f 2//1 1//1 4//1
f 5//1 6//1 7//1
f 6//1 5//1 8//1
f 8//1 5//1 9//1
f 9//1 5//1 10//1
f 10//1 5//1 11//1
f 11//1 5//1 12//1
f 12//1 5//1 13//1
f 13//1 5//1 14//1
f 14//1 5//1 15//1
f 14//1 15//1 16//1
f 14//1 16//1 17//1
f 15//1 5//1 3//1
f 15//1 3//1 2//1
f 17//1 16//1 18//1
f 17//1 18//1 19//1
f 17//1 19//1 20//1
f 17//1 20//1 21//1
f 21//1 20//1 22//1
f 21//1 22//1 23//1
f 23//1 22//1 24//1
f 6//1 25//1 26//1
f 25//1 6//1 8//1
f 27//2 28//2 29//2
f 30//2 29//2 28//2
f 31//2 32//2 33//2
f 33//2 32//2 34//2
f 32//2 35//2 34//2
f 34//2 35//2 36//2
f 35//2 37//2 36//2
f 37//2 38//2 36//2
f 38//2 39//2 36//2
f 40//2 41//2 42//2
f 41//2 43//2 42//2
f 36//2 39//2 44//2
f 39//2 42//2 44//2
f 42//2 43//2 44//2
f 44//2 43//2 45//2
f 45//2 43//2 46//2
f 46//2 43//2 47//2
f 47//2 43//2 48//2
f 48//2 43//2 49//2
f 49//2 43//2 27//2
f 27//2 43//2 28//2
f 50//2 28//2 43//2
f 51//2 52//2 40//2
f 41//2 40//2 52//2
f 53//3 54//4 55//3
f 54//4 53//3 56//4
f 57//5 58//6 59//5
f 60//6 59//5 58//6
f 56//4 61//7 54//4
f 61//7 56//4 62//7
f 63//8 57//5 64//8
f 59//5 64//8 57//5
f 62//7 65//9 61//7
f 65//9 62//7 66//9
f 67//10 63//8 68//10
f 64//8 68//10 63//8
f 66//9 69//11 65//9
f 69//11 66//9 70//11
f 71//12 67//10 72//12
f 68//10 72//12 67//10
f 73//13 74//13 75//13
f 74//13 73//13 76//13
f 77//14 78//14 79//14
f 80//14 79//14 78//14
f 81//15 82//15 83//15
f 82//15 81//15 84//15
f 85//16 86//16 87//16
f 88//16 87//16 86//16
f 89//17 90//18 91//18
f 90//18 89//17 92//17
f 93//19 94//19 95//20
f 96//20 95//20 94//19
f 97//21 92//17 89//17
f 92//17 97//21 98//21
f 99//22 100//22 93//19
f 94//19 93//19 100//22
f 101//23 98//21 97//21
f 98//21 101//23 102//23
f 103//24 104//24 99//22
f 100//22 99//22 104//24
f 105//25 106//25 107//25
f 106//25 105//25 108//25
f 109//26 110//26 111//26
f 112//26 111//26 110//26
f 113//23 114//23 115//23
f 114//23 113//23 116//23
f 117//24 118//24 119//24
f 120//24 119//24 118//24
f 121//26 122//26 123//26
f 122//26 121//26 124//26
f 125//25 126//25 127//25
f 128//25 127//25 126//25
f 129//23 130//23 131//23
f 130//23 129//23 132//23
f 133//24 134//24 135//24
f 136//24 135//24 134//24
f 137//27 138//27 139//27
f 138//27 137//27 140//27
f 141//28 142//28 143//28
f 144//28 143//28 142//28
f 145//24 146//24 147//24
f 146//24 145//24 148//24
f 149//23 150//23 151//23
f 152//23 151//23 150//23
f 153//26 154//26 155//26
f 154//26 153//26 156//26
f 157//25 158//25 159//25
f 160//25 159//25 158//25
f 161//24 162//24 163//24
f 162//24 161//24 164//24
f 165//23 166//23 167//23
f 168//23 167//23 166//23
f 169//25 170//25 171//25
f 170//25 169//25 172//25
f 173//26 174//26 175//26
f 176//26 175//26 174//26
f 177//24 178//29 179//29
f 178//29 177//24 180//24
f 181//23 182//23 183//30
f 184//30 183//30 182//23
f 179//29 185//31 186//31
f 185//31 179//29 178//29
f 183//30 184//30 187//32
f 188//32 187//32 184//30
f 186//31 189//33 190//33
f 189//33 186//31 185//31
f 187//32 188//32 191//34
f 192//34 191//34 188//32
f 193//35 194//36 195//35
f 194//36 193//35 196//36
f 197//37 198//38 199//37
f 200//38 199//37 198//38
f 196//36 201//39 194//36
f 201//39 196//36 202//39
f 203//40 197//37 204//40
f 199//37 204//40 197//37
f 201//39 205//41 206//41
f 205//41 201//39 202//39
f 203//40 204//40 207//42
f 208//42 207//42 204//40
f 209//43 210//43 211//43
f 210//43 209//43 212//43
f 213//44 214//44 215//44
f 216//44 215//44 214//44
f 217//24 218//24 219//24
f 218//24 217//24 220//24
f 221//23 222//23 223//23
f 224//23 223//23 222//23
f 225//2 226//2 227//2
f 226//2 225//2 228//2
f 226//2 228//2 229//2
f 229//2 228//2 230//2
f 230//2 228//2 231//2
f 231//2 228//2 232//2
f 231//2 232//2 233//2
f 233//2 232//2 234//2
f 233//2 234//2 235//2
f 236//2 237//2 238//2
f 237//2 236//2 239//2
f 240//2 241//2 242//2
f 241//2 240//2 243//2
f 243//2 240//2 244//2
f 244//2 240//2 245//2
f 245//2 240//2 246//2
f 245//2 246//2 247//2
f 245//2 247//2 248//2
f 245//2 248//2 225//2
f 245//2 225//2 227//2
f 245//2 227//2 238//2
f 245//2 238//2 237//2
f 241//2 249//2 250//2
f 249//2 241//2 243//2
f 251//1 252//1 253//1
f 254//1 253//1 252//1
f 255//1 256//1 257//1
f 256//1 258//1 257//1
f 258//1 259//1 257//1
f 259//1 260//1 257//1
f 260//1 261//1 257//1
f 261//1 262//1 257//1
f 262//1 263//1 257//1
f 257//1 263//1 264//1
f 264//1 263//1 251//1
f 251//1 263//1 252//1
f 265//1 252//1 263//1
f 266//1 267//1 255//1
f 256//1 255//1 267//1
f 268//1 269//1 270//1
f 269//1 271//1 270//1
f 270//1 271//1 272//1
f 271//1 273//1 272//1
f 272//1 273//1 274//1
f 274//1 273//1 275//1
f 275//1 273//1 276//1
f 273//1 259//1 276//1
f 258//1 276//1 259//1
