# SSTK version 0.8.0
# 135
mtllib original-135.mtl
o #ID783
v 0.082812 0.522155 0.404934
v 0.082792 0.520202 0.405505
v 0.082792 0.522155 0.404934
v 0.082819 0.520698 0.405360
v 0.083136 0.522771 0.404754
v 0.082897 0.521150 0.405228
v 0.083028 0.521559 0.405109
v 0.083211 0.521924 0.405002
v 0.083528 0.523211 0.404625
v 0.083437 0.522225 0.404914
v 0.083696 0.522439 0.404851
v 0.083987 0.523475 0.404548
v 0.083990 0.522568 0.404813
v 0.084514 0.523563 0.404522
v 0.084316 0.522611 0.404801
v 0.084624 0.522569 0.404813
v 0.084963 0.523504 0.404540
v 0.084898 0.522444 0.404850
v 0.085138 0.522234 0.404911
v 0.085361 0.523326 0.404592
v 0.085345 0.521941 0.404997
v 0.085511 0.521575 0.405104
v 0.085706 0.523030 0.404678
v 0.085630 0.521144 0.405230
v 0.085725 0.520091 0.405538
v 0.085999 0.522614 0.404800
v 0.085932 0.517230 0.406375
v 0.086195 0.517808 0.406206
v 0.086232 0.522099 0.404950
v 0.086382 0.518474 0.406011
v 0.086399 0.521504 0.405125
v 0.086495 0.519228 0.405790
v 0.086499 0.520828 0.405322
v 0.086533 0.520071 0.405544
v 0.082892 0.518405 0.406031
v 0.082792 0.517351 0.406339
v 0.082792 0.519215 0.405794
v 0.082812 0.517351 0.406339
v 0.083099 0.516832 0.406491
v 0.083016 0.518049 0.406135
v 0.083189 0.517727 0.406229
v 0.083440 0.516461 0.406600
v 0.083401 0.517460 0.406308
v 0.083639 0.517269 0.406363
v 0.083837 0.516238 0.406665
v 0.083904 0.517155 0.406397
v 0.084288 0.516164 0.406687
v 0.084196 0.517116 0.406408
v 0.084535 0.517166 0.406394
v 0.084782 0.516231 0.406667
v 0.084835 0.517313 0.406350
v 0.085220 0.516431 0.406609
v 0.085096 0.517559 0.406279
v 0.085319 0.517903 0.406178
v 0.085604 0.516764 0.406511
v 0.085496 0.518335 0.406052
v 0.085623 0.518844 0.405903
v 0.085700 0.519429 0.405732
v 0.082792 0.523398 0.404571
v 0.082004 0.513078 0.407589
v 0.082004 0.523398 0.404571
v 0.082792 0.513078 0.407589
v 0.082792 0.517351 0.406339
v 0.082792 0.519215 0.405794
v 0.082792 0.513078 0.407589
v 0.082792 0.520202 0.405505
v 0.082792 0.522155 0.404934
v 0.082792 0.523398 0.404571
v 0.082004 0.513078 0.407589
v 0.082004 0.523398 0.404571
v 0.085725 0.520091 0.405538
v 0.085700 0.519429 0.405732
v 0.085932 0.517230 0.406375
v 0.085623 0.518844 0.405903
v 0.085604 0.516764 0.406511
v 0.085496 0.518335 0.406052
v 0.085319 0.517903 0.406178
v 0.085220 0.516431 0.406609
v 0.085096 0.517559 0.406279
v 0.084835 0.517313 0.406350
v 0.084782 0.516231 0.406667
v 0.084535 0.517166 0.406394
v 0.084288 0.516164 0.406687
v 0.084196 0.517116 0.406408
v 0.083904 0.517155 0.406397
v 0.083837 0.516238 0.406665
v 0.083639 0.517269 0.406363
v 0.083440 0.516461 0.406600
v 0.083401 0.517460 0.406308
v 0.083189 0.517727 0.406229
v 0.083099 0.516832 0.406491
v 0.083016 0.518049 0.406135
v 0.082892 0.518405 0.406031
v 0.082812 0.517351 0.406339
v 0.086533 0.520071 0.405544
v 0.086499 0.520828 0.405322
v 0.086495 0.519228 0.405790
v 0.086399 0.521504 0.405125
v 0.086382 0.518474 0.406011
v 0.086232 0.522099 0.404950
v 0.086195 0.517808 0.406206
v 0.085999 0.522614 0.404800
v 0.085706 0.523030 0.404678
v 0.085630 0.521144 0.405230
v 0.085511 0.521575 0.405104
v 0.085361 0.523326 0.404592
v 0.085345 0.521941 0.404997
v 0.085138 0.522234 0.404911
v 0.084963 0.523504 0.404540
v 0.084898 0.522444 0.404850
v 0.084624 0.522569 0.404813
v 0.084514 0.523563 0.404522
v 0.084316 0.522611 0.404801
v 0.083990 0.522568 0.404813
v 0.083987 0.523475 0.404548
v 0.083696 0.522439 0.404851
v 0.083528 0.523211 0.404625
v 0.083437 0.522225 0.404914
v 0.083211 0.521924 0.405002
v 0.083136 0.522771 0.404754
v 0.083028 0.521559 0.405109
v 0.082897 0.521150 0.405228
v 0.082819 0.520698 0.405360
v 0.082812 0.522155 0.404934
v 0.082812 0.517577 0.407112
v 0.082792 0.517351 0.406339
v 0.082812 0.517351 0.406339
v 0.082792 0.517577 0.407112
v 0.082792 0.517577 0.407112
v 0.082812 0.517577 0.407112
v 0.082792 0.517351 0.406339
v 0.082812 0.517351 0.406339
v 0.082792 0.513078 0.407589
v 0.082792 0.517577 0.407112
v 0.082792 0.513304 0.408362
v 0.082792 0.517351 0.406339
v 0.082792 0.517351 0.406339
v 0.082792 0.513078 0.407589
v 0.082792 0.517577 0.407112
v 0.082792 0.513304 0.408362
v 0.082792 0.513304 0.408362
v 0.082004 0.513078 0.407589
v 0.082792 0.513078 0.407589
v 0.082004 0.513304 0.408362
v 0.082004 0.513304 0.408362
v 0.082792 0.513304 0.408362
v 0.082004 0.513078 0.407589
v 0.082792 0.513078 0.407589
v 0.082004 0.523624 0.405343
v 0.082004 0.513078 0.407589
v 0.082004 0.513304 0.408362
v 0.082004 0.523398 0.404571
v 0.082004 0.523398 0.404571
v 0.082004 0.523624 0.405343
v 0.082004 0.513078 0.407589
v 0.082004 0.513304 0.408362
v 0.082004 0.523624 0.405343
v 0.082792 0.523398 0.404571
v 0.082004 0.523398 0.404571
v 0.082792 0.523624 0.405343
v 0.082792 0.523624 0.405343
v 0.082004 0.523624 0.405343
v 0.082792 0.523398 0.404571
v 0.082004 0.523398 0.404571
v 0.082792 0.523398 0.404571
v 0.082792 0.522381 0.405707
v 0.082792 0.522155 0.404934
v 0.082792 0.523624 0.405343
v 0.082792 0.523624 0.405343
v 0.082792 0.523398 0.404571
v 0.082792 0.522381 0.405707
v 0.082792 0.522155 0.404934
v 0.082792 0.522381 0.405707
v 0.082812 0.522155 0.404934
v 0.082792 0.522155 0.404934
v 0.082812 0.522381 0.405707
v 0.082812 0.522381 0.405707
v 0.082792 0.522381 0.405707
v 0.082812 0.522155 0.404934
v 0.082792 0.522155 0.404934
v 0.083136 0.522997 0.405526
v 0.082812 0.522155 0.404934
v 0.082812 0.522381 0.405707
v 0.083136 0.522771 0.404754
v 0.083136 0.522771 0.404754
v 0.083136 0.522997 0.405526
v 0.082812 0.522155 0.404934
v 0.082812 0.522381 0.405707
v 0.083528 0.523211 0.404625
v 0.083528 0.523437 0.405398
v 0.083528 0.523437 0.405398
v 0.083528 0.523211 0.404625
v 0.083987 0.523701 0.405320
v 0.083987 0.523475 0.404548
v 0.083987 0.523701 0.405320
v 0.083987 0.523475 0.404548
v 0.084514 0.523563 0.404522
v 0.084514 0.523789 0.405295
v 0.084514 0.523789 0.405295
v 0.084514 0.523563 0.404522
v 0.084963 0.523504 0.404540
v 0.084963 0.523730 0.405312
v 0.084963 0.523730 0.405312
v 0.084963 0.523504 0.404540
v 0.085361 0.523552 0.405364
v 0.085361 0.523326 0.404592
v 0.085361 0.523552 0.405364
v 0.085361 0.523326 0.404592
v 0.085706 0.523030 0.404678
v 0.085706 0.523256 0.405451
v 0.085706 0.523256 0.405451
v 0.085706 0.523030 0.404678
v 0.085999 0.522614 0.404800
v 0.085999 0.522840 0.405572
v 0.085999 0.522840 0.405572
v 0.085999 0.522614 0.404800
v 0.086232 0.522325 0.405723
v 0.086232 0.522099 0.404950
v 0.086232 0.522325 0.405723
v 0.086232 0.522099 0.404950
v 0.086399 0.521504 0.405125
v 0.086399 0.521730 0.405897
v 0.086399 0.521504 0.405125
v 0.086399 0.521730 0.405897
v 0.086499 0.521054 0.406095
v 0.086499 0.520828 0.405322
v 0.086499 0.521054 0.406095
v 0.086499 0.520828 0.405322
v 0.086533 0.520297 0.406316
v 0.086533 0.520071 0.405544
v 0.086533 0.520297 0.406316
v 0.086533 0.520071 0.405544
v 0.086495 0.519454 0.406563
v 0.086495 0.519228 0.405790
v 0.086495 0.519454 0.406563
v 0.086495 0.519228 0.405790
v 0.086382 0.518700 0.406783
v 0.086382 0.518474 0.406011
v 0.086382 0.518700 0.406783
v 0.086382 0.518474 0.406011
v 0.086195 0.518034 0.406978
v 0.086195 0.517808 0.406206
v 0.086195 0.518034 0.406978
v 0.086195 0.517808 0.406206
v 0.085932 0.517456 0.407147
v 0.085932 0.517230 0.406375
v 0.085932 0.517456 0.407147
v 0.085932 0.517230 0.406375
v 0.085604 0.516764 0.406511
v 0.085604 0.516990 0.407284
v 0.085604 0.516990 0.407284
v 0.085604 0.516764 0.406511
v 0.085220 0.516431 0.406609
v 0.085220 0.516656 0.407381
v 0.085220 0.516656 0.407381
v 0.085220 0.516431 0.406609
v 0.084782 0.516457 0.407440
v 0.084782 0.516231 0.406667
v 0.084782 0.516457 0.407440
v 0.084782 0.516231 0.406667
v 0.084288 0.516164 0.406687
v 0.084288 0.516390 0.407459
v 0.084288 0.516390 0.407459
v 0.084288 0.516164 0.406687
v 0.083837 0.516238 0.406665
v 0.083837 0.516464 0.407437
v 0.083837 0.516464 0.407437
v 0.083837 0.516238 0.406665
v 0.083440 0.516687 0.407372
v 0.083440 0.516461 0.406600
v 0.083440 0.516687 0.407372
v 0.083440 0.516461 0.406600
v 0.083099 0.516832 0.406491
v 0.083099 0.517058 0.407264
v 0.083099 0.517058 0.407264
v 0.083099 0.516832 0.406491
v 0.082812 0.517577 0.407112
v 0.082812 0.517351 0.406339
v 0.082812 0.517351 0.406339
v 0.082812 0.517577 0.407112
v 0.082812 0.517577 0.407112
v 0.082792 0.519441 0.406567
v 0.082792 0.517577 0.407112
v 0.082892 0.518631 0.406804
v 0.083099 0.517058 0.407264
v 0.083016 0.518275 0.406908
v 0.083189 0.517953 0.407002
v 0.083440 0.516687 0.407372
v 0.083401 0.517686 0.407080
v 0.083639 0.517495 0.407136
v 0.083837 0.516464 0.407437
v 0.083904 0.517381 0.407169
v 0.084288 0.516390 0.407459
v 0.084196 0.517342 0.407180
v 0.084535 0.517392 0.407166
v 0.084782 0.516457 0.407440
v 0.084835 0.517539 0.407123
v 0.085220 0.516656 0.407381
v 0.085096 0.517785 0.407051
v 0.085319 0.518129 0.406950
v 0.085604 0.516990 0.407284
v 0.085496 0.518561 0.406824
v 0.085623 0.519070 0.406675
v 0.085932 0.517456 0.407147
v 0.085700 0.519655 0.406504
v 0.085725 0.520317 0.406310
v 0.082819 0.520924 0.406133
v 0.082792 0.522381 0.405707
v 0.082792 0.520428 0.406278
v 0.082812 0.522381 0.405707
v 0.083136 0.522997 0.405526
v 0.082897 0.521376 0.406001
v 0.083028 0.521785 0.405881
v 0.083211 0.522150 0.405774
v 0.083528 0.523437 0.405398
v 0.083437 0.522451 0.405686
v 0.083696 0.522665 0.405623
v 0.083987 0.523701 0.405320
v 0.083990 0.522794 0.405586
v 0.084514 0.523789 0.405295
v 0.084316 0.522837 0.405573
v 0.084624 0.522795 0.405586
v 0.084963 0.523730 0.405312
v 0.084898 0.522669 0.405622
v 0.085138 0.522460 0.405683
v 0.085361 0.523552 0.405364
v 0.085345 0.522167 0.405769
v 0.085511 0.521801 0.405876
v 0.085706 0.523256 0.405451
v 0.085630 0.521370 0.406002
v 0.085999 0.522840 0.405572
v 0.086195 0.518034 0.406978
v 0.086232 0.522325 0.405723
v 0.086382 0.518700 0.406783
v 0.086399 0.521730 0.405897
v 0.086495 0.519454 0.406563
v 0.086499 0.521054 0.406095
v 0.086533 0.520297 0.406316
v 0.082792 0.513304 0.408362
v 0.082004 0.523624 0.405343
v 0.082004 0.513304 0.408362
v 0.082792 0.523624 0.405343
v 0.082792 0.522381 0.405707
v 0.082792 0.520428 0.406278
v 0.082792 0.523624 0.405343
v 0.082792 0.519441 0.406567
v 0.082792 0.517577 0.407112
v 0.082792 0.513304 0.408362
v 0.082004 0.523624 0.405343
v 0.082004 0.513304 0.408362
v 0.086533 0.520297 0.406316
v 0.086495 0.519454 0.406563
v 0.086499 0.521054 0.406095
v 0.086399 0.521730 0.405897
v 0.086382 0.518700 0.406783
v 0.086232 0.522325 0.405723
v 0.086195 0.518034 0.406978
v 0.085999 0.522840 0.405572
v 0.085932 0.517456 0.407147
v 0.085725 0.520317 0.406310
v 0.085706 0.523256 0.405451
v 0.085630 0.521370 0.406002
v 0.085511 0.521801 0.405876
v 0.085361 0.523552 0.405364
v 0.085345 0.522167 0.405769
v 0.085138 0.522460 0.405683
v 0.084963 0.523730 0.405312
v 0.084898 0.522669 0.405622
v 0.084624 0.522795 0.405586
v 0.084514 0.523789 0.405295
v 0.084316 0.522837 0.405573
v 0.083990 0.522794 0.405586
v 0.083987 0.523701 0.405320
v 0.083696 0.522665 0.405623
v 0.083528 0.523437 0.405398
v 0.083437 0.522451 0.405686
v 0.083211 0.522150 0.405774
v 0.083136 0.522997 0.405526
v 0.083028 0.521785 0.405881
v 0.082897 0.521376 0.406001
v 0.082819 0.520924 0.406133
v 0.082812 0.522381 0.405707
v 0.085700 0.519655 0.406504
v 0.085623 0.519070 0.406675
v 0.085604 0.516990 0.407284
v 0.085496 0.518561 0.406824
v 0.085319 0.518129 0.406950
v 0.085220 0.516656 0.407381
v 0.085096 0.517785 0.407051
v 0.084835 0.517539 0.407123
v 0.084782 0.516457 0.407440
v 0.084535 0.517392 0.407166
v 0.084288 0.516390 0.407459
v 0.084196 0.517342 0.407180
v 0.083904 0.517381 0.407169
v 0.083837 0.516464 0.407437
v 0.083639 0.517495 0.407136
v 0.083440 0.516687 0.407372
v 0.083401 0.517686 0.407080
v 0.083189 0.517953 0.407002
v 0.083099 0.517058 0.407264
v 0.083016 0.518275 0.406908
v 0.082892 0.518631 0.406804
v 0.082812 0.517577 0.407112
vn 0 -0.2807530197988988 -0.9597800486954285
vn 0 0.2807530197988988 0.9597800486954285
vn 0 -0.9597800486954285 0.2807530197988987
vn 0 0.9597800486954285 -0.2807530197988987
vn 1 0 0
vn -1 0 0
vn -0.8355028071717066 0.5273858701500638 -0.1542699036567351
vn -0.8924334749332395 0.4330326055446903 -0.1266698675840439
vn 0.8355028071717066 -0.5273858701500638 0.1542699036567351
vn 0.8924334749332395 -0.4330326055446903 0.1266698675840439
vn -0.652589776012289 0.7272362961402695 -0.21272976712348626
vn 0.652589776012289 -0.7272362961402695 0.21272976712348626
vn -0.3548043169403645 0.8973373197881793 -0.262487392451234
vn 0.3548043169403645 -0.8973373197881793 0.262487392451234
vn -0.018191111025128433 0.9596212320185783 -0.2807065630490624
vn 0.018191111025128433 -0.9596212320185783 0.2807065630490624
vn 0.28598328079209345 0.9196944582964287 -0.2690272597456051
vn -0.28598328079209345 -0.9196944582964287 0.2690272597456051
vn 0.5562444877026574 0.7975951626651273 -0.2333110078706045
vn -0.5562444877026574 -0.7975951626651273 0.2333110078706045
vn 0.7570790531511233 0.6270466488237112 -0.18342248356935967
vn -0.7570790531511233 -0.6270466488237112 0.18342248356935967
vn 0.8778700588518789 0.45963761291930927 -0.13445231333538976
vn -0.8778700588518789 -0.45963761291930927 0.13445231333538976
vn 0.944524039561328 0.315232358303007 -0.09221116510203949
vn -0.944524039561328 -0.315232358303007 0.09221116510203949
vn 0.9798770632477919 0.1915739752461855 -0.05603885196233526
vn -0.9798770632477919 -0.1915739752461855 0.05603885196233526
vn 0.9958264804191137 0.08759601228204596 -0.02562341757776003
vn -0.9958264804191137 -0.08759601228204596 0.02562341757776003
vn 0.9999999711316757 -0.00023062028206974862 0.00006746060277660907
vn -0.9999999711316757 0.00023062028206974862 -0.00006746060277660907
vn 0.9957440951545875 -0.08845453402832787 0.02587455071306462
vn -0.9957440951545875 0.08845453402832787 -0.02587455071306462
vn 0.9795655758745737 -0.19303580270487394 0.05646646292800347
vn -0.9795655758745737 0.19303580270487394 -0.05646646292800347
vn 0.9439777258550855 -0.31673621842368677 0.09265107138141032
vn -0.9439777258550855 0.31673621842368677 -0.09265107138141032
vn 0.8778152493831555 -0.4597340301378475 0.13448051711530992
vn -0.8778152493831555 0.4597340301378475 -0.13448051711530992
vn 0.7593421287831962 -0.6245207957275282 0.1826836258641118
vn -0.7593421287831962 0.6245207957275282 -0.1826836258641118
vn 0.5615531360432243 -0.7941610541021586 0.23230646901747748
vn -0.5615531360432243 0.7941610541021586 -0.23230646901747748
vn 0.2909521828260329 -0.9182576563316182 0.26860696918942845
vn -0.2909521828260329 0.9182576563316182 -0.26860696918942845
vn -0.015249957258355212 -0.9596684384078017 0.28072037177153614
vn 0.015249957258355212 0.9596684384078017 -0.28072037177153614
vn -0.3483594044870272 -0.8996604276858768 0.2631669435197145
vn 0.3483594044870272 0.8996604276858768 -0.2631669435197145
vn -0.6419533208654399 -0.7359053259639818 0.21526561510765946
vn 0.6419533208654399 0.7359053259639818 -0.21526561510765946
vn -0.8253803246307218 -0.5418698517181708 0.15850673017702469
vn 0.8253803246307218 0.5418698517181708 -0.15850673017702469
vn -0.8834932509819773 -0.44960309688249045 0.13151703594200503
vn 0.8834932509819773 0.44960309688249045 -0.13151703594200503
usemtl material_0_0
f 1//1 2//1 3//1
f 2//1 1//1 4//1
f 4//1 1//1 5//1
f 4//1 5//1 6//1
f 6//1 5//1 7//1
f 7//1 5//1 8//1
f 8//1 5//1 9//1
f 8//1 9//1 10//1
f 10//1 9//1 11//1
f 11//1 9//1 12//1
f 11//1 12//1 13//1
f 13//1 12//1 14//1
f 13//1 14//1 15//1
f 15//1 14//1 16//1
f 16//1 14//1 17//1
f 16//1 17//1 18//1
f 18//1 17//1 19//1
f 19//1 17//1 20//1
f 19//1 20//1 21//1
f 21//1 20//1 22//1
f 22//1 20//1 23//1
f 22//1 23//1 24//1
f 24//1 23//1 25//1
f 25//1 23//1 26//1
f 25//1 26//1 27//1
f 27//1 26//1 28//1
f 28//1 26//1 29//1
f 28//1 29//1 30//1
f 30//1 29//1 31//1
f 30//1 31//1 32//1
f 32//1 31//1 33//1
f 32//1 33//1 34//1
f 35//1 36//1 37//1
f 36//1 35//1 38//1
f 38//1 35//1 39//1
f 39//1 35//1 40//1
f 39//1 40//1 41//1
f 39//1 41//1 42//1
f 42//1 41//1 43//1
f 42//1 43//1 44//1
f 42//1 44//1 45//1
f 45//1 44//1 46//1
f 45//1 46//1 47//1
f 47//1 46//1 48//1
f 47//1 48//1 49//1
f 47//1 49//1 50//1
f 50//1 49//1 51//1
f 50//1 51//1 52//1
f 52//1 51//1 53//1
f 52//1 53//1 54//1
f 52//1 54//1 55//1
f 55//1 54//1 56//1
f 55//1 56//1 57//1
f 55//1 57//1 27//1
f 27//1 57//1 58//1
f 27//1 58//1 25//1
f 59//1 60//1 61//1
f 60//1 59//1 62//1
f 62//1 59//1 3//1
f 62//1 3//1 2//1
f 62//1 2//1 37//1
f 62//1 37//1 36//1
f 63//2 64//2 65//2
f 64//2 66//2 65//2
f 66//2 67//2 65//2
f 67//2 68//2 65//2
f 65//2 68//2 69//2
f 70//2 69//2 68//2
f 71//2 72//2 73//2
f 72//2 74//2 73//2
f 73//2 74//2 75//2
f 74//2 76//2 75//2
f 76//2 77//2 75//2
f 75//2 77//2 78//2
f 77//2 79//2 78//2
f 79//2 80//2 78//2
f 78//2 80//2 81//2
f 80//2 82//2 81//2
f 81//2 82//2 83//2
f 82//2 84//2 83//2
f 84//2 85//2 83//2
f 83//2 85//2 86//2
f 85//2 87//2 86//2
f 86//2 87//2 88//2
f 87//2 89//2 88//2
f 89//2 90//2 88//2
f 88//2 90//2 91//2
f 90//2 92//2 91//2
f 92//2 93//2 91//2
f 91//2 93//2 94//2
f 94//2 93//2 63//2
f 64//2 63//2 93//2
f 95//2 96//2 97//2
f 96//2 98//2 97//2
f 97//2 98//2 99//2
f 98//2 100//2 99//2
f 99//2 100//2 101//2
f 100//2 102//2 101//2
f 101//2 102//2 73//2
f 73//2 102//2 71//2
f 102//2 103//2 71//2
f 71//2 103//2 104//2
f 104//2 103//2 105//2
f 103//2 106//2 105//2
f 105//2 106//2 107//2
f 107//2 106//2 108//2
f 106//2 109//2 108//2
f 108//2 109//2 110//2
f 110//2 109//2 111//2
f 109//2 112//2 111//2
f 111//2 112//2 113//2
f 113//2 112//2 114//2
f 112//2 115//2 114//2
f 114//2 115//2 116//2
f 115//2 117//2 116//2
f 116//2 117//2 118//2
f 118//2 117//2 119//2
f 117//2 120//2 119//2
f 119//2 120//2 121//2
f 121//2 120//2 122//2
f 122//2 120//2 123//2
f 120//2 124//2 123//2
f 123//2 124//2 66//2
f 67//2 66//2 124//2
f 125//3 126//3 127//3
f 126//3 125//3 128//3
f 129//4 130//4 131//4
f 132//4 131//4 130//4
f 133//5 134//5 135//5
f 134//5 133//5 136//5
f 137//6 138//6 139//6
f 140//6 139//6 138//6
f 141//3 142//3 143//3
f 142//3 141//3 144//3
f 145//4 146//4 147//4
f 148//4 147//4 146//4
f 149//6 150//6 151//6
f 150//6 149//6 152//6
f 153//5 154//5 155//5
f 156//5 155//5 154//5
f 157//4 158//4 159//4
f 158//4 157//4 160//4
f 161//3 162//3 163//3
f 164//3 163//3 162//3
f 165//5 166//5 167//5
f 166//5 165//5 168//5
f 169//6 170//6 171//6
f 172//6 171//6 170//6
f 173//4 174//4 175//4
f 174//4 173//4 176//4
f 177//3 178//3 179//3
f 180//3 179//3 178//3
f 181//7 182//8 183//8
f 182//8 181//7 184//7
f 185//9 186//9 187//10
f 188//10 187//10 186//9
f 181//7 189//11 184//7
f 189//11 181//7 190//11
f 191//12 186//9 192//12
f 185//9 192//12 186//9
f 189//11 193//13 194//13
f 193//13 189//11 190//11
f 191//12 192//12 195//14
f 196//14 195//14 192//12
f 193//13 197//15 194//13
f 197//15 193//13 198//15
f 199//16 195//14 200//16
f 196//14 200//16 195//14
f 198//15 201//17 197//15
f 201//17 198//15 202//17
f 203//18 199//16 204//18
f 200//16 204//18 199//16
f 201//17 205//19 206//19
f 205//19 201//17 202//17
f 203//18 204//18 207//20
f 208//20 207//20 204//18
f 205//19 209//21 206//19
f 209//21 205//19 210//21
f 211//22 207//20 212//22
f 208//20 212//22 207//20
f 210//21 213//23 209//21
f 213//23 210//21 214//23
f 215//24 211//22 216//24
f 212//22 216//24 211//22
f 213//23 217//25 218//25
f 217//25 213//23 214//23
f 215//24 216//24 219//26
f 220//26 219//26 216//24
f 221//27 217//25 222//27
f 217//25 221//27 218//25
f 220//26 223//28 219//26
f 224//28 219//26 223//28
f 221//27 225//29 226//29
f 225//29 221//27 222//27
f 224//28 223//28 227//30
f 228//30 227//30 223//28
f 226//29 229//31 230//31
f 229//31 226//29 225//29
f 227//30 228//30 231//32
f 232//32 231//32 228//30
f 230//31 233//33 234//33
f 233//33 230//31 229//31
f 231//32 232//32 235//34
f 236//34 235//34 232//32
f 234//33 237//35 238//35
f 237//35 234//33 233//33
f 235//34 236//34 239//36
f 240//36 239//36 236//34
f 238//35 241//37 242//37
f 241//37 238//35 237//35
f 239//36 240//36 243//38
f 244//38 243//38 240//36
f 242//37 245//39 246//39
f 245//39 242//37 241//37
f 243//38 244//38 247//40
f 248//40 247//40 244//38
f 245//39 249//41 246//39
f 249//41 245//39 250//41
f 251//42 247//40 252//42
f 248//40 252//42 247//40
f 250//41 253//43 249//41
f 253//43 250//41 254//43
f 255//44 251//42 256//44
f 252//42 256//44 251//42
f 253//43 257//45 258//45
f 257//45 253//43 254//43
f 255//44 256//44 259//46
f 260//46 259//46 256//44
f 257//45 261//47 258//45
f 261//47 257//45 262//47
f 263//48 259//46 264//48
f 260//46 264//48 259//46
f 262//47 265//49 261//47
f 265//49 262//47 266//49
f 267//50 263//48 268//50
f 264//48 268//50 263//48
f 265//49 269//51 270//51
f 269//51 265//49 266//49
f 267//50 268//50 271//52
f 272//52 271//52 268//50
f 269//51 273//53 270//51
f 273//53 269//51 274//53
f 275//54 271//52 276//54
f 272//52 276//54 271//52
f 277//55 273//53 274//53
f 273//53 277//55 278//55
f 279//56 280//56 276//54
f 275//54 276//54 280//56
f 281//2 282//2 283//2
f 282//2 281//2 284//2
f 284//2 281//2 285//2
f 284//2 285//2 286//2
f 286//2 285//2 287//2
f 287//2 285//2 288//2
f 287//2 288//2 289//2
f 289//2 288//2 290//2
f 290//2 288//2 291//2
f 290//2 291//2 292//2
f 292//2 291//2 293//2
f 292//2 293//2 294//2
f 294//2 293//2 295//2
f 295//2 293//2 296//2
f 295//2 296//2 297//2
f 297//2 296//2 298//2
f 297//2 298//2 299//2
f 299//2 298//2 300//2
f 300//2 298//2 301//2
f 300//2 301//2 302//2
f 302//2 301//2 303//2
f 303//2 301//2 304//2
f 303//2 304//2 305//2
f 305//2 304//2 306//2
f 307//2 308//2 309//2
f 308//2 307//2 310//2
f 310//2 307//2 311//2
f 311//2 307//2 312//2
f 311//2 312//2 313//2
f 311//2 313//2 314//2
f 311//2 314//2 315//2
f 315//2 314//2 316//2
f 315//2 316//2 317//2
f 315//2 317//2 318//2
f 318//2 317//2 319//2
f 318//2 319//2 320//2
f 320//2 319//2 321//2
f 320//2 321//2 322//2
f 320//2 322//2 323//2
f 323//2 322//2 324//2
f 323//2 324//2 325//2
f 323//2 325//2 326//2
f 326//2 325//2 327//2
f 326//2 327//2 328//2
f 326//2 328//2 329//2
f 329//2 328//2 330//2
f 329//2 330//2 306//2
f 329//2 306//2 331//2
f 331//2 306//2 304//2
f 331//2 304//2 332//2
f 331//2 332//2 333//2
f 333//2 332//2 334//2
f 333//2 334//2 335//2
f 335//2 334//2 336//2
f 335//2 336//2 337//2
f 337//2 336//2 338//2
f 339//2 340//2 341//2
f 340//2 339//2 342//2
f 342//2 339//2 283//2
f 342//2 283//2 282//2
f 342//2 282//2 309//2
f 342//2 309//2 308//2
f 343//1 344//1 345//1
f 344//1 346//1 345//1
f 346//1 347//1 345//1
f 347//1 348//1 345//1
f 345//1 348//1 349//1
f 350//1 349//1 348//1
f 351//1 352//1 353//1
f 353//1 352//1 354//1
f 352//1 355//1 354//1
f 354//1 355//1 356//1
f 355//1 357//1 356//1
f 356//1 357//1 358//1
f 357//1 359//1 358//1
f 359//1 360//1 358//1
f 358//1 360//1 361//1
f 360//1 362//1 361//1
f 362//1 363//1 361//1
f 361//1 363//1 364//1
f 363//1 365//1 364//1
f 365//1 366//1 364//1
f 364//1 366//1 367//1
f 366//1 368//1 367//1
f 368//1 369//1 367//1
f 367//1 369//1 370//1
f 369//1 371//1 370//1
f 371//1 372//1 370//1
f 370//1 372//1 373//1
f 372//1 374//1 373//1
f 373//1 374//1 375//1
f 374//1 376//1 375//1
f 376//1 377//1 375//1
f 375//1 377//1 378//1
f 377//1 379//1 378//1
f 379//1 380//1 378//1
f 380//1 381//1 378//1
f 378//1 381//1 382//1
f 382//1 381//1 343//1
f 344//1 343//1 381//1
f 360//1 359//1 383//1
f 383//1 359//1 384//1
f 359//1 385//1 384//1
f 384//1 385//1 386//1
f 386//1 385//1 387//1
f 385//1 388//1 387//1
f 387//1 388//1 389//1
f 389//1 388//1 390//1
f 388//1 391//1 390//1
f 390//1 391//1 392//1
f 391//1 393//1 392//1
f 392//1 393//1 394//1
f 394//1 393//1 395//1
f 393//1 396//1 395//1
f 395//1 396//1 397//1
f 396//1 398//1 397//1
f 397//1 398//1 399//1
f 399//1 398//1 400//1
f 398//1 401//1 400//1
f 400//1 401//1 402//1
f 402//1 401//1 403//1
f 401//1 404//1 403//1
f 403//1 404//1 346//1
f 347//1 346//1 404//1
