# SSTK version 0.8.0
# 73
mtllib original-73.mtl
o group_36/ID485#ID485
v 0.208634 0.461772 0.411181
v 0.208642 0.464593 0.411226
v 0.208638 0.463180 0.411275
v 0.208643 0.464779 0.411210
v 0.208647 0.465989 0.411035
v 0.208630 0.460391 0.410947
v 0.208651 0.467345 0.410706
v 0.208626 0.459060 0.410576
v 0.208655 0.468639 0.410243
v 0.208622 0.457800 0.410073
v 0.208658 0.469852 0.409655
v 0.208618 0.456630 0.409448
v 0.208662 0.470964 0.408950
v 0.208618 0.456606 0.408221
v 0.208665 0.471957 0.408140
v 0.208664 0.471933 0.406913
v 0.208664 0.471933 0.406913
v 0.208618 0.456606 0.408221
v 0.208665 0.471957 0.408140
v 0.208662 0.470964 0.408950
v 0.208618 0.456630 0.409448
v 0.208658 0.469852 0.409655
v 0.208622 0.457800 0.410073
v 0.208655 0.468639 0.410243
v 0.208626 0.459060 0.410576
v 0.208651 0.467345 0.410706
v 0.208630 0.460391 0.410947
v 0.208647 0.465989 0.411035
v 0.208634 0.461772 0.411181
v 0.208643 0.464779 0.411210
v 0.208642 0.464593 0.411226
v 0.208638 0.463180 0.411275
v 0.208647 0.465989 0.411035
v 0.158615 0.464867 0.411215
v 0.208643 0.464779 0.411210
v 0.158619 0.466076 0.411040
v 0.158619 0.466076 0.411040
v 0.208647 0.465989 0.411035
v 0.158615 0.464867 0.411215
v 0.208643 0.464779 0.411210
v 0.158615 0.464680 0.411231
v 0.208642 0.464593 0.411226
v 0.158615 0.464680 0.411231
v 0.208642 0.464593 0.411226
v 0.158611 0.463267 0.411280
v 0.208638 0.463180 0.411275
v 0.158611 0.463267 0.411280
v 0.208638 0.463180 0.411275
v 0.158606 0.461859 0.411187
v 0.208634 0.461772 0.411181
v 0.158606 0.461859 0.411187
v 0.208634 0.461772 0.411181
v 0.158602 0.460479 0.410953
v 0.208630 0.460391 0.410947
v 0.158602 0.460479 0.410953
v 0.208630 0.460391 0.410947
v 0.158598 0.459148 0.410581
v 0.208626 0.459060 0.410576
v 0.158598 0.459148 0.410581
v 0.208626 0.459060 0.410576
v 0.158594 0.457887 0.410079
v 0.208622 0.457800 0.410073
v 0.158594 0.457887 0.410079
v 0.208622 0.457800 0.410073
v 0.158590 0.456717 0.409453
v 0.208618 0.456630 0.409448
v 0.158590 0.456717 0.409453
v 0.208618 0.456630 0.409448
v 0.208618 0.456606 0.408221
v 0.158590 0.456717 0.409453
v 0.158590 0.456694 0.408226
v 0.208618 0.456630 0.409448
v 0.208618 0.456630 0.409448
v 0.208618 0.456606 0.408221
v 0.158590 0.456717 0.409453
v 0.158590 0.456694 0.408226
v 0.158590 0.456694 0.408226
v 0.208664 0.471933 0.406913
v 0.208618 0.456606 0.408221
v 0.158637 0.472021 0.406918
v 0.158637 0.472021 0.406918
v 0.158590 0.456694 0.408226
v 0.208664 0.471933 0.406913
v 0.208618 0.456606 0.408221
v 0.208665 0.471957 0.408140
v 0.158637 0.472021 0.406918
v 0.158637 0.472045 0.408145
v 0.208664 0.471933 0.406913
v 0.208664 0.471933 0.406913
v 0.208665 0.471957 0.408140
v 0.158637 0.472021 0.406918
v 0.158637 0.472045 0.408145
v 0.208665 0.471957 0.408140
v 0.158634 0.471052 0.408955
v 0.208662 0.470964 0.408950
v 0.158637 0.472045 0.408145
v 0.158637 0.472045 0.408145
v 0.208665 0.471957 0.408140
v 0.158634 0.471052 0.408955
v 0.208662 0.470964 0.408950
v 0.158631 0.469940 0.409660
v 0.208658 0.469852 0.409655
v 0.158631 0.469940 0.409660
v 0.208658 0.469852 0.409655
v 0.158627 0.468727 0.410249
v 0.208655 0.468639 0.410243
v 0.158627 0.468727 0.410249
v 0.208655 0.468639 0.410243
v 0.158623 0.467432 0.410711
v 0.208651 0.467345 0.410706
v 0.158623 0.467432 0.410711
v 0.208651 0.467345 0.410706
v 0.158615 0.464680 0.411231
v 0.158606 0.461859 0.411187
v 0.158611 0.463267 0.411280
v 0.158615 0.464867 0.411215
v 0.158619 0.466076 0.411040
v 0.158602 0.460479 0.410953
v 0.158623 0.467432 0.410711
v 0.158598 0.459148 0.410581
v 0.158627 0.468727 0.410249
v 0.158594 0.457887 0.410079
v 0.158631 0.469940 0.409660
v 0.158590 0.456717 0.409453
v 0.158634 0.471052 0.408955
v 0.158590 0.456694 0.408226
v 0.158637 0.472045 0.408145
v 0.158637 0.472021 0.406918
v 0.158637 0.472021 0.406918
v 0.158637 0.472045 0.408145
v 0.158590 0.456694 0.408226
v 0.158634 0.471052 0.408955
v 0.158590 0.456717 0.409453
v 0.158631 0.469940 0.409660
v 0.158594 0.457887 0.410079
v 0.158627 0.468727 0.410249
v 0.158598 0.459148 0.410581
v 0.158623 0.467432 0.410711
v 0.158602 0.460479 0.410953
v 0.158619 0.466076 0.411040
v 0.158606 0.461859 0.411187
v 0.158615 0.464867 0.411215
v 0.158615 0.464680 0.411231
v 0.158611 0.463267 0.411280
vn 0.9999953622259861 -0.0030443874846507266 -0.00008503741585128252
vn -0.9999953622259861 0.0030443874846507266 0.00008503741585128252
vn 0.0004394301472831996 0.18945124439609556 0.9818900309596367
vn 0.0003086918822616546 0.11401319413208566 0.9934791876396413
vn -0.0004394301472831996 -0.18945124439609556 -0.9818900309596367
vn -0.0003086918822616546 -0.11401319413208566 -0.9934791876396413
vn 0.0002144577873917998 0.05986635773069309 0.9982063780701455
vn -0.0002144577873917998 -0.05986635773069309 -0.9982063780701455
vn 0.0000824410967839201 -0.01567937605448675 0.9998770676288198
vn -0.0000824410967839201 0.01567937605448675 -0.9998770676288198
vn -0.00009495092477606058 -0.11662904528221417 0.993175541775411
vn 0.00009495092477606058 0.11662904528221417 -0.993175541775411
vn -0.00027409718962555685 -0.21792128704485877 0.9759663096252057
vn 0.00027409718962555685 0.21792128704485877 -0.9759663096252057
vn -0.00045500542623075276 -0.3195184985001244 0.947579929128033
vn 0.00045500542623075276 0.3195184985001244 -0.947579929128033
vn -0.0006372567165292946 -0.4211179927656102 0.9070056394934601
vn 0.0006372567165292946 0.4211179927656102 -0.9070056394934601
vn -0.0007285729886560613 -0.47171439514330676 0.8817510978705864
vn 0.0007285729886560613 0.47171439514330676 -0.8817510978705864
vn -0.001747502487690987 -0.9998141848796257 0.019197446406873944
vn 0.001747502487690987 0.9998141848796257 -0.019197446406873944
vn -0.0002582882853334134 -0.08502806151998565 -0.9963785234745454
vn 0.0002582882853334134 0.08502806151998565 0.9963785234745454
vn 0.001747502487690987 0.9998141848796257 -0.01919744640687377
vn -0.001747502487690987 -0.9998141848796257 0.01919744640687377
vn 0.0011916078836834766 0.6322917003404431 0.7747294919849398
vn 0.0011116717996754 0.5843010637468123 0.8115362167458414
vn -0.0011916078836834766 -0.6322917003404431 -0.7747294919849398
vn -0.0011116717996754 -0.5843010637468123 -0.8115362167458414
vn 0.0009468384406698666 0.48619396658181935 0.8738504050215941
vn -0.0009468384406698666 -0.48619396658181935 -0.8738504050215941
vn 0.0007777046974663486 0.38650077117543474 0.922288755789746
vn -0.0007777046974663486 -0.38650077117543474 -0.922288755789746
vn 0.0006060562278102314 0.28615834814971924 0.9581821499485745
vn -0.0006060562278102314 -0.28615834814971924 -0.9581821499485745
usemtl material_0_0
f 1//1 2//1 3//1
f 2//1 1//1 4//1
f 4//1 1//1 5//1
f 5//1 1//1 6//1
f 5//1 6//1 7//1
f 7//1 6//1 8//1
f 7//1 8//1 9//1
f 9//1 8//1 10//1
f 9//1 10//1 11//1
f 11//1 10//1 12//1
f 11//1 12//1 13//1
f 13//1 12//1 14//1
f 13//1 14//1 15//1
f 15//1 14//1 16//1
f 17//2 18//2 19//2
f 19//2 18//2 20//2
f 18//2 21//2 20//2
f 20//2 21//2 22//2
f 21//2 23//2 22//2
f 22//2 23//2 24//2
f 23//2 25//2 24//2
f 24//2 25//2 26//2
f 25//2 27//2 26//2
f 26//2 27//2 28//2
f 27//2 29//2 28//2
f 28//2 29//2 30//2
f 30//2 29//2 31//2
f 32//2 31//2 29//2
f 33//3 34//4 35//4
f 34//4 33//3 36//3
f 37//5 38//5 39//6
f 40//6 39//6 38//5
f 35//4 41//7 42//7
f 41//7 35//4 34//4
f 39//6 40//6 43//8
f 44//8 43//8 40//6
f 42//7 45//9 46//9
f 45//9 42//7 41//7
f 43//8 44//8 47//10
f 48//10 47//10 44//8
f 46//9 49//11 50//11
f 49//11 46//9 45//9
f 47//10 48//10 51//12
f 52//12 51//12 48//10
f 50//11 53//13 54//13
f 53//13 50//11 49//11
f 51//12 52//12 55//14
f 56//14 55//14 52//12
f 54//13 57//15 58//15
f 57//15 54//13 53//13
f 55//14 56//14 59//16
f 60//16 59//16 56//14
f 58//15 61//17 62//17
f 61//17 58//15 57//15
f 59//16 60//16 63//18
f 64//18 63//18 60//16
f 62//17 65//19 66//19
f 65//19 62//17 61//17
f 63//18 64//18 67//20
f 68//20 67//20 64//18
f 69//21 70//21 71//21
f 70//21 69//21 72//21
f 73//22 74//22 75//22
f 76//22 75//22 74//22
f 77//23 78//23 79//23
f 78//23 77//23 80//23
f 81//24 82//24 83//24
f 84//24 83//24 82//24
f 85//25 86//25 87//25
f 86//25 85//25 88//25
f 89//26 90//26 91//26
f 92//26 91//26 90//26
f 93//27 94//28 95//28
f 94//28 93//27 96//27
f 97//29 98//29 99//30
f 100//30 99//30 98//29
f 95//28 101//31 102//31
f 101//31 95//28 94//28
f 99//30 100//30 103//32
f 104//32 103//32 100//30
f 102//31 105//33 106//33
f 105//33 102//31 101//31
f 103//32 104//32 107//34
f 108//34 107//34 104//32
f 106//33 109//35 110//35
f 109//35 106//33 105//33
f 107//34 108//34 111//36
f 112//36 111//36 108//34
f 110//35 36//3 33//3
f 36//3 110//35 109//35
f 111//36 112//36 37//5
f 38//5 37//5 112//36
f 113//2 114//2 115//2
f 114//2 113//2 116//2
f 114//2 116//2 117//2
f 114//2 117//2 118//2
f 118//2 117//2 119//2
f 118//2 119//2 120//2
f 120//2 119//2 121//2
f 120//2 121//2 122//2
f 122//2 121//2 123//2
f 122//2 123//2 124//2
f 124//2 123//2 125//2
f 124//2 125//2 126//2
f 126//2 125//2 127//2
f 126//2 127//2 128//2
f 129//1 130//1 131//1
f 130//1 132//1 131//1
f 131//1 132//1 133//1
f 132//1 134//1 133//1
f 133//1 134//1 135//1
f 134//1 136//1 135//1
f 135//1 136//1 137//1
f 136//1 138//1 137//1
f 137//1 138//1 139//1
f 138//1 140//1 139//1
f 139//1 140//1 141//1
f 140//1 142//1 141//1
f 142//1 143//1 141//1
f 144//1 141//1 143//1
