# SSTK version 0.8.0
# 9
mtllib original-9.mtl
o #ID15
v 0.096464 -0.368180 0.409000
v 0.094532 -0.368819 0.408271
v 0.094512 -0.368749 0.409000
v 0.096485 -0.368249 0.408271
v 0.096485 -0.368249 0.408271
v 0.096464 -0.368180 0.409000
v 0.094532 -0.368819 0.408271
v 0.094512 -0.368749 0.409000
vn -0.28494701022260244 0.9512607341269075 -0.11793310423090306
vn -0.27110859579095703 0.9575429851338556 -0.09803856847792138
vn -0.27051989090835277 0.9554636678887252 -0.1179328960365046
vn -0.2855670904980404 0.9533309682788645 -0.09803826673787441
vn 0.2855670904980404 -0.9533309682788645 0.09803826673787441
vn 0.28494701022260244 -0.9512607341269075 0.11793310423090306
vn 0.27110859579095703 -0.9575429851338556 0.09803856847792138
vn 0.27051989090835277 -0.9554636678887252 0.1179328960365046
usemtl material_0_0
f 5//5 6//6 7//7
f 8//8 7//7 6//6
usemtl material_1_0
f 1//1 2//2 3//3
f 2//2 1//1 4//4
