# SSTK version 0.8.0
# 113
mtllib original-113.mtl
o #ID666
v 0.232254 0.520726 0.394833
v 0.232254 0.516142 0.396174
v 0.230956 0.518399 0.395513
v 0.238060 0.520726 0.394833
v 0.238060 0.516142 0.396174
v 0.239379 0.518399 0.395513
v 0.239379 0.518399 0.395513
v 0.238060 0.520726 0.394833
v 0.238060 0.516142 0.396174
v 0.232254 0.516142 0.396174
v 0.232254 0.520726 0.394833
v 0.230956 0.518399 0.395513
v 0.232254 0.522398 0.400549
v 0.238060 0.520726 0.394833
v 0.232254 0.520726 0.394833
v 0.238060 0.522398 0.400549
v 0.238060 0.522398 0.400549
v 0.232254 0.522398 0.400549
v 0.238060 0.520726 0.394833
v 0.232254 0.520726 0.394833
v 0.238060 0.520726 0.394833
v 0.239379 0.520071 0.401230
v 0.239379 0.518399 0.395513
v 0.238060 0.522398 0.400549
v 0.238060 0.522398 0.400549
v 0.238060 0.520726 0.394833
v 0.239379 0.520071 0.401230
v 0.239379 0.518399 0.395513
v 0.239379 0.520071 0.401230
v 0.238060 0.516142 0.396174
v 0.239379 0.518399 0.395513
v 0.238060 0.517814 0.401890
v 0.238060 0.517814 0.401890
v 0.239379 0.520071 0.401230
v 0.238060 0.516142 0.396174
v 0.239379 0.518399 0.395513
v 0.238060 0.517814 0.401890
v 0.232254 0.516142 0.396174
v 0.238060 0.516142 0.396174
v 0.232254 0.517814 0.401890
v 0.232254 0.517814 0.401890
v 0.238060 0.517814 0.401890
v 0.232254 0.516142 0.396174
v 0.238060 0.516142 0.396174
v 0.230956 0.520071 0.401230
v 0.232254 0.516142 0.396174
v 0.232254 0.517814 0.401890
v 0.230956 0.518399 0.395513
v 0.230956 0.518399 0.395513
v 0.230956 0.520071 0.401230
v 0.232254 0.516142 0.396174
v 0.232254 0.517814 0.401890
v 0.232254 0.522398 0.400549
v 0.230956 0.518399 0.395513
v 0.230956 0.520071 0.401230
v 0.232254 0.520726 0.394833
v 0.232254 0.520726 0.394833
v 0.232254 0.522398 0.400549
v 0.230956 0.518399 0.395513
v 0.230956 0.520071 0.401230
v 0.232254 0.517814 0.401890
v 0.232254 0.522398 0.400549
v 0.230956 0.520071 0.401230
v 0.238060 0.517814 0.401890
v 0.238060 0.522398 0.400549
v 0.239379 0.520071 0.401230
v 0.239379 0.520071 0.401230
v 0.238060 0.517814 0.401890
v 0.238060 0.522398 0.400549
v 0.232254 0.522398 0.400549
v 0.232254 0.517814 0.401890
v 0.230956 0.520071 0.401230
vn 0 -0.2807530017676192 -0.9597800539699037
vn 0 0.2807530017676192 0.9597800539699037
vn 0 0.9597800539699037 -0.2807530017676192
vn 0 -0.9597800539699037 0.2807530017676192
vn 0.8785459164267895 0.45844652835396404 -0.1341038902120685
vn -0.8785459164267895 -0.45844652835396404 0.1341038902120685
vn 0.8723181744612729 -0.469273562943453 0.13727099339230245
vn -0.8723181744612729 0.469273562943453 -0.13727099339230245
vn -0.875496330394925 -0.4637894929735146 0.13566680387033053
vn 0.875496330394925 0.4637894929735146 -0.13566680387033053
vn -0.8815999823275623 0.45301361435404763 -0.13251466473535603
vn 0.8815999823275623 -0.45301361435404763 0.13251466473535603
usemtl material_0_0
f 1//1 2//1 3//1
f 2//1 1//1 4//1
f 2//1 4//1 5//1
f 5//1 4//1 6//1
f 7//2 8//2 9//2
f 9//2 8//2 10//2
f 8//2 11//2 10//2
f 12//2 10//2 11//2
f 13//3 14//3 15//3
f 14//3 13//3 16//3
f 17//4 18//4 19//4
f 20//4 19//4 18//4
f 21//5 22//5 23//5
f 22//5 21//5 24//5
f 25//6 26//6 27//6
f 28//6 27//6 26//6
f 29//7 30//7 31//7
f 30//7 29//7 32//7
f 33//8 34//8 35//8
f 36//8 35//8 34//8
f 37//4 38//4 39//4
f 38//4 37//4 40//4
f 41//3 42//3 43//3
f 44//3 43//3 42//3
f 45//9 46//9 47//9
f 46//9 45//9 48//9
f 49//10 50//10 51//10
f 52//10 51//10 50//10
f 53//11 54//11 55//11
f 54//11 53//11 56//11
f 57//12 58//12 59//12
f 60//12 59//12 58//12
f 61//2 62//2 63//2
f 62//2 61//2 64//2
f 62//2 64//2 65//2
f 65//2 64//2 66//2
f 67//1 68//1 69//1
f 69//1 68//1 70//1
f 68//1 71//1 70//1
f 72//1 70//1 71//1
