# SSTK version 0.8.0
# 11
mtllib original-11.mtl
o #ID29
v 0.291962 0.159207 0.408271
v 0.292787 0.157925 0.409000
v 0.291902 0.159167 0.409000
v 0.292847 0.157965 0.408271
v 0.292847 0.157965 0.408271
v 0.291962 0.159207 0.408271
v 0.292787 0.157925 0.409000
v 0.291902 0.159167 0.409000
v 0.291962 0.159207 0.407443
v 0.292847 0.157965 0.408271
v 0.291962 0.159207 0.408271
v 0.292847 0.157965 0.407443
v 0.292847 0.157965 0.407443
v 0.291962 0.159207 0.407443
v 0.292847 0.157965 0.408271
v 0.291962 0.159207 0.408271
vn -0.8223016665369987 -0.5605397771892189 -0.0980567560096478
vn -0.8272767066937813 -0.5492721044443502 -0.11795510095441554
vn -0.8205111609909762 -0.5593192734086507 -0.11799739439012742
vn -0.8290751512233672 -0.5504661676146534 -0.09808869422918885
vn -0.8262836807049004 -0.5632541868470771 0
vn -0.8330925751639612 -0.5531335835100594 0
vn 0.8290751512233672 0.5504661676146534 0.09808869422918885
vn 0.8223016665369987 0.5605397771892189 0.0980567560096478
vn 0.8272767066937813 0.5492721044443502 0.11795510095441554
vn 0.8205111609909762 0.5593192734086507 0.11799739439012742
vn 0.8330925751639612 0.5531335835100594 0
vn 0.8262836807049004 0.5632541868470771 0
usemtl material_0_0
f 5//7 6//8 7//9
f 8//10 7//9 6//8
f 13//11 14//12 15//11
f 16//12 15//11 14//12
usemtl material_1_0
f 1//1 2//2 3//3
f 2//2 1//1 4//4
f 9//5 10//6 11//5
f 10//6 9//5 12//6
