# SSTK version 0.8.0
# 164
mtllib original-164.mtl
o #ID949
v 0.106050 0.446043 0.415540
v 0.107092 0.438644 0.416152
v 0.105149 0.446043 0.415540
v 0.107352 0.440667 0.415985
v 0.107532 0.439634 0.416070
v 0.107898 0.438644 0.416152
v 0.107552 0.439634 0.416070
v 0.107713 0.440638 0.415987
v 0.109074 0.446043 0.415540
v 0.109940 0.446043 0.415540
v 0.109940 0.446043 0.415540
v 0.109074 0.446043 0.415540
v 0.107898 0.438644 0.416152
v 0.107713 0.440638 0.415987
v 0.107552 0.439634 0.416070
v 0.107532 0.439634 0.416070
v 0.107092 0.438644 0.416152
v 0.107352 0.440667 0.415985
v 0.106050 0.446043 0.415540
v 0.105149 0.446043 0.415540
v 0.109940 0.446043 0.415540
v 0.107898 0.438710 0.416954
v 0.107898 0.438644 0.416152
v 0.109940 0.446109 0.416342
v 0.109940 0.446109 0.416342
v 0.109940 0.446043 0.415540
v 0.107898 0.438710 0.416954
v 0.107898 0.438644 0.416152
v 0.107898 0.438710 0.416954
v 0.107092 0.438644 0.416152
v 0.107898 0.438644 0.416152
v 0.107092 0.438710 0.416954
v 0.107092 0.438710 0.416954
v 0.107898 0.438710 0.416954
v 0.107092 0.438644 0.416152
v 0.107898 0.438644 0.416152
v 0.105149 0.446109 0.416342
v 0.107092 0.438644 0.416152
v 0.107092 0.438710 0.416954
v 0.105149 0.446043 0.415540
v 0.105149 0.446043 0.415540
v 0.105149 0.446109 0.416342
v 0.107092 0.438644 0.416152
v 0.107092 0.438710 0.416954
v 0.105149 0.446109 0.416342
v 0.106050 0.446043 0.415540
v 0.105149 0.446043 0.415540
v 0.106050 0.446109 0.416342
v 0.106050 0.446109 0.416342
v 0.105149 0.446109 0.416342
v 0.106050 0.446043 0.415540
v 0.105149 0.446043 0.415540
v 0.106050 0.446043 0.415540
v 0.107352 0.440734 0.416787
v 0.107352 0.440667 0.415985
v 0.106050 0.446109 0.416342
v 0.106050 0.446109 0.416342
v 0.106050 0.446043 0.415540
v 0.107352 0.440734 0.416787
v 0.107352 0.440667 0.415985
v 0.107532 0.439700 0.416872
v 0.107532 0.439634 0.416070
v 0.107532 0.439700 0.416872
v 0.107532 0.439634 0.416070
v 0.107532 0.439700 0.416872
v 0.107552 0.439634 0.416070
v 0.107532 0.439634 0.416070
v 0.107552 0.439700 0.416872
v 0.107552 0.439700 0.416872
v 0.107532 0.439700 0.416872
v 0.107552 0.439634 0.416070
v 0.107532 0.439634 0.416070
v 0.107713 0.440705 0.416789
v 0.107552 0.439634 0.416070
v 0.107552 0.439700 0.416872
v 0.107713 0.440638 0.415987
v 0.107713 0.440638 0.415987
v 0.107713 0.440705 0.416789
v 0.107552 0.439634 0.416070
v 0.107552 0.439700 0.416872
v 0.109074 0.446109 0.416342
v 0.109074 0.446043 0.415540
v 0.109074 0.446043 0.415540
v 0.109074 0.446109 0.416342
v 0.109074 0.446109 0.416342
v 0.109940 0.446043 0.415540
v 0.109074 0.446043 0.415540
v 0.109940 0.446109 0.416342
v 0.109940 0.446109 0.416342
v 0.109074 0.446109 0.416342
v 0.109940 0.446043 0.415540
v 0.109074 0.446043 0.415540
v 0.107092 0.438710 0.416954
v 0.106050 0.446109 0.416342
v 0.105149 0.446109 0.416342
v 0.107352 0.440734 0.416787
v 0.107532 0.439700 0.416872
v 0.107898 0.438710 0.416954
v 0.107552 0.439700 0.416872
v 0.107713 0.440705 0.416789
v 0.109074 0.446109 0.416342
v 0.109940 0.446109 0.416342
v 0.109940 0.446109 0.416342
v 0.107898 0.438710 0.416954
v 0.109074 0.446109 0.416342
v 0.107713 0.440705 0.416789
v 0.107552 0.439700 0.416872
v 0.107532 0.439700 0.416872
v 0.107092 0.438710 0.416954
v 0.107352 0.440734 0.416787
v 0.106050 0.446109 0.416342
v 0.105149 0.446109 0.416342
vn 0 -0.08246839631543589 -0.9965936802976225
vn 0 0.08246839631543589 0.9965936802976225
vn 0.9641717387757978 -0.26437520643372747 0.02187711976423602
vn -0.9641717387757978 0.26437520643372747 -0.02187711976423602
vn 0 -0.9965936802976227 0.0824683963154359
vn 0 0.9965936802976227 -0.0824683963154359
vn -0.9674327320349219 -0.25226601039521834 0.02087508052025156
vn 0.9674327320349219 0.25226601039521834 -0.02087508052025156
vn 0.9720959642272 0.23378447154189014 -0.019345728186590135
vn 0.9792157961774025 0.20213029015100367 -0.016726336123814127
vn -0.9720959642272 -0.23378447154189014 0.019345728186590135
vn -0.9792157961774025 -0.20213029015100367 0.016726336123814127
vn 0.9852235856412438 0.17068972255939588 -0.014124620660644996
vn -0.9852235856412438 -0.17068972255939588 0.014124620660644996
vn -0.9797806478723834 0.1993931728274494 -0.01649983892574514
vn -0.9875983816560864 0.1564665933523422 -0.012947652875797496
vn 0.9797806478723834 -0.1993931728274494 0.01649983892574514
vn 0.9875983816560864 -0.1564665933523422 0.012947652875797496
vn -0.969889799809379 0.24271460828539673 -0.020084699414959405
vn 0.969889799809379 -0.24271460828539673 0.020084699414959405
usemtl material_0_0
f 1//1 2//1 3//1
f 2//1 1//1 4//1
f 2//1 4//1 5//1
f 2//1 5//1 6//1
f 6//1 5//1 7//1
f 6//1 7//1 8//1
f 6//1 8//1 9//1
f 6//1 9//1 10//1
f 11//2 12//2 13//2
f 12//2 14//2 13//2
f 14//2 15//2 13//2
f 15//2 16//2 13//2
f 13//2 16//2 17//2
f 16//2 18//2 17//2
f 18//2 19//2 17//2
f 20//2 17//2 19//2
f 21//3 22//3 23//3
f 22//3 21//3 24//3
f 25//4 26//4 27//4
f 28//4 27//4 26//4
f 29//5 30//5 31//5
f 30//5 29//5 32//5
f 33//6 34//6 35//6
f 36//6 35//6 34//6
f 37//7 38//7 39//7
f 38//7 37//7 40//7
f 41//8 42//8 43//8
f 44//8 43//8 42//8
f 45//6 46//6 47//6
f 46//6 45//6 48//6
f 49//5 50//5 51//5
f 52//5 51//5 50//5
f 53//9 54//10 55//10
f 54//10 53//9 56//9
f 57//11 58//11 59//12
f 60//12 59//12 58//11
f 55//10 61//13 62//13
f 61//13 55//10 54//10
f 59//12 60//12 63//14
f 64//14 63//14 60//12
f 65//6 66//6 67//6
f 66//6 65//6 68//6
f 69//5 70//5 71//5
f 72//5 71//5 70//5
f 73//15 74//16 75//16
f 74//16 73//15 76//15
f 77//17 78//17 79//18
f 80//18 79//18 78//17
f 81//19 76//15 73//15
f 76//15 81//19 82//19
f 83//20 84//20 77//17
f 78//17 77//17 84//20
f 85//6 86//6 87//6
f 86//6 85//6 88//6
f 89//5 90//5 91//5
f 92//5 91//5 90//5
f 93//2 94//2 95//2
f 94//2 93//2 96//2
f 96//2 93//2 97//2
f 97//2 93//2 98//2
f 97//2 98//2 99//2
f 99//2 98//2 100//2
f 100//2 98//2 101//2
f 101//2 98//2 102//2
f 103//1 104//1 105//1
f 105//1 104//1 106//1
f 106//1 104//1 107//1
f 107//1 104//1 108//1
f 104//1 109//1 108//1
f 108//1 109//1 110//1
f 110//1 109//1 111//1
f 112//1 111//1 109//1
