# SSTK version 0.8.0
# 271
mtllib original-271.mtl
o group_47/ID1555#ID1555
v 0.068180 0.419373 0.411324
v 0.068180 0.419721 0.411618
v 0.068180 0.419400 0.411645
v 0.068180 0.419694 0.411297
v 0.068180 0.419721 0.411618
v 0.047899 0.419694 0.411297
v 0.047899 0.419721 0.411618
v 0.068180 0.419694 0.411297
v 0.068180 0.419721 0.411618
v 0.047899 0.419400 0.411645
v 0.068180 0.419400 0.411645
v 0.047899 0.419721 0.411618
v 0.068180 0.419373 0.411324
v 0.047899 0.419400 0.411645
v 0.047899 0.419373 0.411324
v 0.068180 0.419400 0.411645
v 0.047899 0.419694 0.411297
v 0.068180 0.419373 0.411324
v 0.047899 0.419373 0.411324
v 0.068180 0.419694 0.411297
v 0.047899 0.419721 0.411618
v 0.047899 0.419373 0.411324
v 0.047899 0.419400 0.411645
v 0.047899 0.419694 0.411297
vn 1 0 0
vn 0 0.9964928598127015 -0.08367783662537832
vn 0 0.08367783662537832 0.9964928598127015
vn 0 -0.9964928598127015 0.08367783662537832
vn 0 -0.08367783662537832 -0.9964928598127015
vn -1 0 0
usemtl material_0_0
f 1//1 2//1 3//1
f 2//1 1//1 4//1
f 5//2 6//2 7//2
f 6//2 5//2 8//2
f 9//3 10//3 11//3
f 10//3 9//3 12//3
f 13//4 14//4 15//4
f 14//4 13//4 16//4
f 17//5 18//5 19//5
f 18//5 17//5 20//5
f 21//6 22//6 23//6
f 22//6 21//6 24//6
