# SSTK version 0.8.0
# 265
mtllib original-265.mtl
o #ID1523
v -0.117629 0.445972 0.415546
v -0.115774 0.438603 0.416155
v -0.119234 0.445972 0.415546
v -0.115310 0.440618 0.415989
v -0.114989 0.439589 0.416074
v -0.114338 0.438603 0.416155
v -0.114953 0.439589 0.416074
v -0.114668 0.440590 0.415991
v -0.112242 0.445972 0.415546
v -0.110699 0.445972 0.415546
v -0.110699 0.445972 0.415546
v -0.112242 0.445972 0.415546
v -0.114338 0.438603 0.416155
v -0.114668 0.440590 0.415991
v -0.114953 0.439589 0.416074
v -0.114989 0.439589 0.416074
v -0.115774 0.438603 0.416155
v -0.115310 0.440618 0.415989
v -0.117629 0.445972 0.415546
v -0.119234 0.445972 0.415546
v -0.110699 0.445972 0.415546
v -0.114338 0.438668 0.416933
v -0.114338 0.438603 0.416155
v -0.110699 0.446037 0.416324
v -0.110699 0.446037 0.416324
v -0.110699 0.445972 0.415546
v -0.114338 0.438668 0.416933
v -0.114338 0.438603 0.416155
v -0.114338 0.438668 0.416933
v -0.115774 0.438603 0.416155
v -0.114338 0.438603 0.416155
v -0.115774 0.438668 0.416933
v -0.115774 0.438668 0.416933
v -0.114338 0.438668 0.416933
v -0.115774 0.438603 0.416155
v -0.114338 0.438603 0.416155
v -0.119234 0.446037 0.416324
v -0.115774 0.438603 0.416155
v -0.115774 0.438668 0.416933
v -0.119234 0.445972 0.415546
v -0.119234 0.445972 0.415546
v -0.119234 0.446037 0.416324
v -0.115774 0.438603 0.416155
v -0.115774 0.438668 0.416933
v -0.119234 0.446037 0.416324
v -0.117629 0.445972 0.415546
v -0.119234 0.445972 0.415546
v -0.117629 0.446037 0.416324
v -0.117629 0.446037 0.416324
v -0.119234 0.446037 0.416324
v -0.117629 0.445972 0.415546
v -0.119234 0.445972 0.415546
v -0.117629 0.445972 0.415546
v -0.115310 0.440683 0.416767
v -0.115310 0.440618 0.415989
v -0.117629 0.446037 0.416324
v -0.117629 0.446037 0.416324
v -0.117629 0.445972 0.415546
v -0.115310 0.440683 0.416767
v -0.115310 0.440618 0.415989
v -0.114989 0.439654 0.416852
v -0.114989 0.439589 0.416074
v -0.114989 0.439654 0.416852
v -0.114989 0.439589 0.416074
v -0.114989 0.439654 0.416852
v -0.114953 0.439589 0.416074
v -0.114989 0.439589 0.416074
v -0.114953 0.439654 0.416852
v -0.114953 0.439654 0.416852
v -0.114989 0.439654 0.416852
v -0.114953 0.439589 0.416074
v -0.114989 0.439589 0.416074
v -0.114668 0.440654 0.416769
v -0.114953 0.439589 0.416074
v -0.114953 0.439654 0.416852
v -0.114668 0.440590 0.415991
v -0.114668 0.440590 0.415991
v -0.114668 0.440654 0.416769
v -0.114953 0.439589 0.416074
v -0.114953 0.439654 0.416852
v -0.112242 0.446037 0.416324
v -0.112242 0.445972 0.415546
v -0.112242 0.445972 0.415546
v -0.112242 0.446037 0.416324
v -0.112242 0.446037 0.416324
v -0.110699 0.445972 0.415546
v -0.112242 0.445972 0.415546
v -0.110699 0.446037 0.416324
v -0.110699 0.446037 0.416324
v -0.112242 0.446037 0.416324
v -0.110699 0.445972 0.415546
v -0.112242 0.445972 0.415546
v -0.115774 0.438668 0.416933
v -0.117629 0.446037 0.416324
v -0.119234 0.446037 0.416324
v -0.115310 0.440683 0.416767
v -0.114989 0.439654 0.416852
v -0.114338 0.438668 0.416933
v -0.114953 0.439654 0.416852
v -0.114668 0.440654 0.416769
v -0.112242 0.446037 0.416324
v -0.110699 0.446037 0.416324
v -0.110699 0.446037 0.416324
v -0.114338 0.438668 0.416933
v -0.112242 0.446037 0.416324
v -0.114668 0.440654 0.416769
v -0.114953 0.439654 0.416852
v -0.114989 0.439654 0.416852
v -0.115774 0.438668 0.416933
v -0.115310 0.440683 0.416767
v -0.117629 0.446037 0.416324
v -0.119234 0.446037 0.416324
vn 0 -0.08246840268736112 -0.9965936797703442
vn 0 0.08246840268736112 0.9965936797703442
vn 0.8972505916121253 -0.4400176953891366 0.036411586014952466
vn -0.8972505916121253 0.4400176953891366 -0.036411586014952466
vn 0 -0.9965936797703442 0.08246840268736111
vn 0 0.9965936797703442 -0.08246840268736111
vn -0.9057332935013979 -0.42240432490979646 0.03495407473542422
vn 0.9057332935013979 0.42240432490979646 -0.03495407473542422
vn 0.9181362349161343 0.3949150736813273 -0.03267933159195392
vn 0.9377256571657334 0.3461934526814503 -0.028647603976417812
vn -0.9181362349161343 -0.3949150736813273 0.03267933159195392
vn -0.9377256571657334 -0.3461934526814503 0.028647603976417812
vn 0.9549093321313432 0.29588624236604977 -0.024484668406402694
vn -0.9549093321313432 -0.29588624236604977 0.024484668406402694
vn -0.9393150606072653 0.34188714767844 -0.0282912560461713
vn -0.9618764518552607 0.2725527777714639 -0.02255381775649582
vn 0.9393150606072653 -0.34188714767844 0.0282912560461713
vn 0.9618764518552607 -0.2725527777714639 0.02255381775649582
vn -0.9122276395192503 0.4082881857009855 -0.033785960310966506
vn 0.9122276395192503 -0.4082881857009855 0.033785960310966506
usemtl material_0_0
f 1//1 2//1 3//1
f 2//1 1//1 4//1
f 2//1 4//1 5//1
f 2//1 5//1 6//1
f 6//1 5//1 7//1
f 6//1 7//1 8//1
f 6//1 8//1 9//1
f 6//1 9//1 10//1
f 11//2 12//2 13//2
f 12//2 14//2 13//2
f 14//2 15//2 13//2
f 15//2 16//2 13//2
f 13//2 16//2 17//2
f 16//2 18//2 17//2
f 18//2 19//2 17//2
f 20//2 17//2 19//2
f 21//3 22//3 23//3
f 22//3 21//3 24//3
f 25//4 26//4 27//4
f 28//4 27//4 26//4
f 29//5 30//5 31//5
f 30//5 29//5 32//5
f 33//6 34//6 35//6
f 36//6 35//6 34//6
f 37//7 38//7 39//7
f 38//7 37//7 40//7
f 41//8 42//8 43//8
f 44//8 43//8 42//8
f 45//6 46//6 47//6
f 46//6 45//6 48//6
f 49//5 50//5 51//5
f 52//5 51//5 50//5
f 53//9 54//10 55//10
f 54//10 53//9 56//9
f 57//11 58//11 59//12
f 60//12 59//12 58//11
f 55//10 61//13 62//13
f 61//13 55//10 54//10
f 59//12 60//12 63//14
f 64//14 63//14 60//12
f 65//6 66//6 67//6
f 66//6 65//6 68//6
f 69//5 70//5 71//5
f 72//5 71//5 70//5
f 73//15 74//16 75//16
f 74//16 73//15 76//15
f 77//17 78//17 79//18
f 80//18 79//18 78//17
f 81//19 76//15 73//15
f 76//15 81//19 82//19
f 83//20 84//20 77//17
f 78//17 77//17 84//20
f 85//6 86//6 87//6
f 86//6 85//6 88//6
f 89//5 90//5 91//5
f 92//5 91//5 90//5
f 93//2 94//2 95//2
f 94//2 93//2 96//2
f 96//2 93//2 97//2
f 97//2 93//2 98//2
f 97//2 98//2 99//2
f 99//2 98//2 100//2
f 100//2 98//2 101//2
f 101//2 98//2 102//2
f 103//1 104//1 105//1
f 105//1 104//1 106//1
f 106//1 104//1 107//1
f 107//1 104//1 108//1
f 104//1 109//1 108//1
f 108//1 109//1 110//1
f 110//1 109//1 111//1
f 112//1 111//1 109//1
