# SSTK version 0.8.0
# 69
mtllib original-69.mtl
o group_32/ID457#ID457
v 0.208633 0.485925 0.409232
v 0.208642 0.488747 0.409267
v 0.208638 0.487334 0.409321
v 0.208642 0.488933 0.409250
v 0.208646 0.490142 0.409071
v 0.208629 0.484544 0.409003
v 0.208650 0.491497 0.408737
v 0.208625 0.483212 0.408636
v 0.208654 0.492790 0.408270
v 0.208621 0.481949 0.408138
v 0.208658 0.494001 0.407678
v 0.208617 0.480777 0.407517
v 0.208661 0.495110 0.406969
v 0.208617 0.480750 0.406290
v 0.208664 0.496100 0.406155
v 0.208664 0.496072 0.404928
v 0.208664 0.496072 0.404928
v 0.208617 0.480750 0.406290
v 0.208664 0.496100 0.406155
v 0.208661 0.495110 0.406969
v 0.208617 0.480777 0.407517
v 0.208658 0.494001 0.407678
v 0.208621 0.481949 0.408138
v 0.208654 0.492790 0.408270
v 0.208625 0.483212 0.408636
v 0.208650 0.491497 0.408737
v 0.208629 0.484544 0.409003
v 0.208646 0.490142 0.409071
v 0.208633 0.485925 0.409232
v 0.208642 0.488933 0.409250
v 0.208642 0.488747 0.409267
v 0.208638 0.487334 0.409321
v 0.208646 0.490142 0.409071
v 0.158615 0.489020 0.409256
v 0.208642 0.488933 0.409250
v 0.158618 0.490229 0.409077
v 0.158618 0.490229 0.409077
v 0.208646 0.490142 0.409071
v 0.158615 0.489020 0.409256
v 0.208642 0.488933 0.409250
v 0.158614 0.488834 0.409273
v 0.208642 0.488747 0.409267
v 0.158614 0.488834 0.409273
v 0.208642 0.488747 0.409267
v 0.158610 0.487421 0.409327
v 0.208638 0.487334 0.409321
v 0.158610 0.487421 0.409327
v 0.208638 0.487334 0.409321
v 0.158606 0.486013 0.409238
v 0.208633 0.485925 0.409232
v 0.158606 0.486013 0.409238
v 0.208633 0.485925 0.409232
v 0.158601 0.484632 0.409009
v 0.208629 0.484544 0.409003
v 0.158601 0.484632 0.409009
v 0.208629 0.484544 0.409003
v 0.158597 0.483299 0.408642
v 0.208625 0.483212 0.408636
v 0.158597 0.483299 0.408642
v 0.208625 0.483212 0.408636
v 0.158593 0.482037 0.408144
v 0.208621 0.481949 0.408138
v 0.158593 0.482037 0.408144
v 0.208621 0.481949 0.408138
v 0.158590 0.480865 0.407522
v 0.208617 0.480777 0.407517
v 0.158590 0.480865 0.407522
v 0.208617 0.480777 0.407517
v 0.208617 0.480750 0.406290
v 0.158590 0.480865 0.407522
v 0.158590 0.480837 0.406296
v 0.208617 0.480777 0.407517
v 0.208617 0.480777 0.407517
v 0.208617 0.480750 0.406290
v 0.158590 0.480865 0.407522
v 0.158590 0.480837 0.406296
v 0.158590 0.480837 0.406296
v 0.208664 0.496072 0.404928
v 0.208617 0.480750 0.406290
v 0.158636 0.496160 0.404934
v 0.158636 0.496160 0.404934
v 0.158590 0.480837 0.406296
v 0.208664 0.496072 0.404928
v 0.208617 0.480750 0.406290
v 0.208664 0.496100 0.406155
v 0.158636 0.496160 0.404934
v 0.158636 0.496188 0.406161
v 0.208664 0.496072 0.404928
v 0.208664 0.496072 0.404928
v 0.208664 0.496100 0.406155
v 0.158636 0.496160 0.404934
v 0.158636 0.496188 0.406161
v 0.208664 0.496100 0.406155
v 0.158633 0.495198 0.406975
v 0.208661 0.495110 0.406969
v 0.158636 0.496188 0.406161
v 0.158636 0.496188 0.406161
v 0.208664 0.496100 0.406155
v 0.158633 0.495198 0.406975
v 0.208661 0.495110 0.406969
v 0.158630 0.494088 0.407683
v 0.208658 0.494001 0.407678
v 0.158630 0.494088 0.407683
v 0.208658 0.494001 0.407678
v 0.158626 0.492877 0.408276
v 0.208654 0.492790 0.408270
v 0.158626 0.492877 0.408276
v 0.208654 0.492790 0.408270
v 0.158623 0.491584 0.408743
v 0.208650 0.491497 0.408737
v 0.158623 0.491584 0.408743
v 0.208650 0.491497 0.408737
v 0.158614 0.488834 0.409273
v 0.158606 0.486013 0.409238
v 0.158610 0.487421 0.409327
v 0.158615 0.489020 0.409256
v 0.158618 0.490229 0.409077
v 0.158601 0.484632 0.409009
v 0.158623 0.491584 0.408743
v 0.158597 0.483299 0.408642
v 0.158626 0.492877 0.408276
v 0.158593 0.482037 0.408144
v 0.158630 0.494088 0.407683
v 0.158590 0.480865 0.407522
v 0.158633 0.495198 0.406975
v 0.158590 0.480837 0.406296
v 0.158636 0.496188 0.406161
v 0.158636 0.496160 0.404934
v 0.158636 0.496160 0.404934
v 0.158636 0.496188 0.406161
v 0.158590 0.480837 0.406296
v 0.158633 0.495198 0.406975
v 0.158590 0.480865 0.407522
v 0.158630 0.494088 0.407683
v 0.158593 0.482037 0.408144
v 0.158626 0.492877 0.408276
v 0.158597 0.483299 0.408642
v 0.158623 0.491584 0.408743
v 0.158601 0.484632 0.409009
v 0.158618 0.490229 0.409077
v 0.158606 0.486013 0.409238
v 0.158615 0.489020 0.409256
v 0.158614 0.488834 0.409273
v 0.158610 0.487421 0.409327
vn 0.9999953622268183 -0.003044387209953544 -0.00008503746654763265
vn -0.9999953622268183 0.003044387209953544 0.00008503746654763265
vn 0.0004498043925279619 0.192877507616438 0.9812227396120002
vn 0.000319213057477504 0.11748036978829213 0.9930751536603009
vn -0.0004498043925279619 -0.192877507616438 -0.9812227396120002
vn -0.000319213057477504 -0.11748036978829213 -0.9930751536603009
vn 0.00022504626327890265 0.06335036367536342 0.9979913229965373
vn -0.00022504626327890265 -0.06335036367536342 -0.9979913229965373
vn 0.00009307113884314788 -0.012189078764502205 0.9999257060885253
vn -0.00009307113884314788 0.012189078764502205 -0.9999257060885253
vn -0.00008436027552839975 -0.11316152640038257 0.9935766008849441
vn 0.00008436027552839975 0.11316152640038257 -0.9935766008849441
vn -0.00026365748426606696 -0.21451322294761116 0.9767210490541092
vn 0.00026365748426606696 0.21451322294761116 -0.9767210490541092
vn -0.0004448353413592092 -0.31620890251608214 0.9486894813852916
vn 0.0004448353413592092 0.31620890251608214 -0.9486894813852916
vn -0.0006274857648170923 -0.4179494082069288 0.9084700867068177
vn 0.0006274857648170923 0.4179494082069288 -0.9084700867068177
vn -0.0007190544530627799 -0.4686336568062561 0.8833923130009055
vn 0.0007190544530627799 0.4686336568062561 -0.8833923130009055
vn -0.0017469833222954895 -0.9997410830218934 0.022687330549963556
vn 0.0017469833222954895 0.9997410830218934 -0.022687330549963556
vn -0.00026884940647688686 -0.08850553402482311 -0.9960756488173866
vn 0.00026884940647688686 0.08850553402482311 0.9960756488173866
vn 0.0017469833222954895 0.9997410830218934 -0.022687330549963382
vn -0.0017469833222954895 -0.9997410830218934 0.022687330549963382
vn 0.001199641165654314 0.6349921465763345 0.7725176597641329
vn 0.001120111332748341 0.587130281060876 0.8094916790257815
vn -0.001199641165654314 -0.6349921465763345 -0.7725176597641329
vn -0.001120111332748341 -0.587130281060876 -0.8094916790257815
vn 0.0009559710751711319 0.48924129724915816 0.872147945698013
vn -0.0009559710751711319 -0.48924129724915816 -0.872147945698013
vn 0.0007873834826673887 0.3897177891905406 0.9209339959061607
vn -0.0007873834826673887 -0.3897177891905406 -0.9209339959061607
vn 0.0006161480602142516 0.28950126746101457 0.9571774320887606
vn -0.0006161480602142516 -0.28950126746101457 -0.9571774320887606
usemtl material_0_0
f 1//1 2//1 3//1
f 2//1 1//1 4//1
f 4//1 1//1 5//1
f 5//1 1//1 6//1
f 5//1 6//1 7//1
f 7//1 6//1 8//1
f 7//1 8//1 9//1
f 9//1 8//1 10//1
f 9//1 10//1 11//1
f 11//1 10//1 12//1
f 11//1 12//1 13//1
f 13//1 12//1 14//1
f 13//1 14//1 15//1
f 15//1 14//1 16//1
f 17//2 18//2 19//2
f 19//2 18//2 20//2
f 18//2 21//2 20//2
f 20//2 21//2 22//2
f 21//2 23//2 22//2
f 22//2 23//2 24//2
f 23//2 25//2 24//2
f 24//2 25//2 26//2
f 25//2 27//2 26//2
f 26//2 27//2 28//2
f 27//2 29//2 28//2
f 28//2 29//2 30//2
f 30//2 29//2 31//2
f 32//2 31//2 29//2
f 33//3 34//4 35//4
f 34//4 33//3 36//3
f 37//5 38//5 39//6
f 40//6 39//6 38//5
f 35//4 41//7 42//7
f 41//7 35//4 34//4
f 39//6 40//6 43//8
f 44//8 43//8 40//6
f 42//7 45//9 46//9
f 45//9 42//7 41//7
f 43//8 44//8 47//10
f 48//10 47//10 44//8
f 46//9 49//11 50//11
f 49//11 46//9 45//9
f 47//10 48//10 51//12
f 52//12 51//12 48//10
f 50//11 53//13 54//13
f 53//13 50//11 49//11
f 51//12 52//12 55//14
f 56//14 55//14 52//12
f 54//13 57//15 58//15
f 57//15 54//13 53//13
f 55//14 56//14 59//16
f 60//16 59//16 56//14
f 58//15 61//17 62//17
f 61//17 58//15 57//15
f 59//16 60//16 63//18
f 64//18 63//18 60//16
f 62//17 65//19 66//19
f 65//19 62//17 61//17
f 63//18 64//18 67//20
f 68//20 67//20 64//18
f 69//21 70//21 71//21
f 70//21 69//21 72//21
f 73//22 74//22 75//22
f 76//22 75//22 74//22
f 77//23 78//23 79//23
f 78//23 77//23 80//23
f 81//24 82//24 83//24
f 84//24 83//24 82//24
f 85//25 86//25 87//25
f 86//25 85//25 88//25
f 89//26 90//26 91//26
f 92//26 91//26 90//26
f 93//27 94//28 95//28
f 94//28 93//27 96//27
f 97//29 98//29 99//30
f 100//30 99//30 98//29
f 95//28 101//31 102//31
f 101//31 95//28 94//28
f 99//30 100//30 103//32
f 104//32 103//32 100//30
f 102//31 105//33 106//33
f 105//33 102//31 101//31
f 103//32 104//32 107//34
f 108//34 107//34 104//32
f 106//33 109//35 110//35
f 109//35 106//33 105//33
f 107//34 108//34 111//36
f 112//36 111//36 108//34
f 110//35 36//3 33//3
f 36//3 110//35 109//35
f 111//36 112//36 37//5
f 38//5 37//5 112//36
f 113//2 114//2 115//2
f 114//2 113//2 116//2
f 114//2 116//2 117//2
f 114//2 117//2 118//2
f 118//2 117//2 119//2
f 118//2 119//2 120//2
f 120//2 119//2 121//2
f 120//2 121//2 122//2
f 122//2 121//2 123//2
f 122//2 123//2 124//2
f 124//2 123//2 125//2
f 124//2 125//2 126//2
f 126//2 125//2 127//2
f 126//2 127//2 128//2
f 129//1 130//1 131//1
f 130//1 132//1 131//1
f 131//1 132//1 133//1
f 132//1 134//1 133//1
f 133//1 134//1 135//1
f 134//1 136//1 135//1
f 135//1 136//1 137//1
f 136//1 138//1 137//1
f 137//1 138//1 139//1
f 138//1 140//1 139//1
f 139//1 140//1 141//1
f 140//1 142//1 141//1
f 142//1 143//1 141//1
f 144//1 141//1 143//1
