# SSTK version 0.8.0
# 212
mtllib original-212.mtl
o #ID1221
v -0.077446 0.402445 0.419148
v -0.077480 0.400213 0.419332
v -0.077480 0.402445 0.419148
v -0.077330 0.401386 0.419235
v -0.077068 0.403182 0.419087
v -0.077141 0.401869 0.419195
v -0.076877 0.402284 0.419161
v -0.076530 0.403737 0.419041
v -0.076557 0.402616 0.419133
v -0.076200 0.402853 0.419114
v -0.075878 0.404085 0.419012
v -0.075806 0.402995 0.419102
v -0.075153 0.404201 0.419002
v -0.075375 0.403043 0.419098
v -0.074763 0.402980 0.419103
v -0.074314 0.404094 0.419011
v -0.074314 0.402790 0.419119
v -0.077480 0.404063 0.419014
v -0.078884 0.396209 0.419664
v -0.078884 0.404063 0.419014
v -0.077480 0.396209 0.419664
v -0.077480 0.400213 0.419332
v -0.077480 0.402445 0.419148
v -0.077480 0.396209 0.419664
v -0.077480 0.404063 0.419014
v -0.078884 0.396209 0.419664
v -0.078884 0.404063 0.419014
v -0.074314 0.402790 0.419119
v -0.074314 0.404094 0.419011
v -0.074763 0.402980 0.419103
v -0.075153 0.404201 0.419002
v -0.075375 0.403043 0.419098
v -0.075806 0.402995 0.419102
v -0.075878 0.404085 0.419012
v -0.076200 0.402853 0.419114
v -0.076530 0.403737 0.419041
v -0.076557 0.402616 0.419133
v -0.076877 0.402284 0.419161
v -0.077068 0.403182 0.419087
v -0.077141 0.401869 0.419195
v -0.077330 0.401386 0.419235
v -0.077446 0.402445 0.419148
v -0.074314 0.402856 0.419921
v -0.074763 0.402980 0.419103
v -0.074314 0.402790 0.419119
v -0.074763 0.403046 0.419905
v -0.074763 0.403046 0.419905
v -0.074314 0.402856 0.419921
v -0.074763 0.402980 0.419103
v -0.074314 0.402790 0.419119
v -0.075375 0.403043 0.419098
v -0.075375 0.403109 0.419900
v -0.075375 0.403109 0.419900
v -0.075375 0.403043 0.419098
v -0.075375 0.403109 0.419900
v -0.075806 0.402995 0.419102
v -0.075375 0.403043 0.419098
v -0.075806 0.403062 0.419904
v -0.075806 0.403062 0.419904
v -0.075375 0.403109 0.419900
v -0.075806 0.402995 0.419102
v -0.075375 0.403043 0.419098
v -0.075806 0.403062 0.419904
v -0.076200 0.402853 0.419114
v -0.075806 0.402995 0.419102
v -0.076200 0.402919 0.419916
v -0.076200 0.402919 0.419916
v -0.075806 0.403062 0.419904
v -0.076200 0.402853 0.419114
v -0.075806 0.402995 0.419102
v -0.076200 0.402919 0.419916
v -0.076557 0.402616 0.419133
v -0.076200 0.402853 0.419114
v -0.076557 0.402682 0.419936
v -0.076557 0.402682 0.419936
v -0.076200 0.402919 0.419916
v -0.076557 0.402616 0.419133
v -0.076200 0.402853 0.419114
v -0.076557 0.402616 0.419133
v -0.076877 0.402350 0.419963
v -0.076877 0.402284 0.419161
v -0.076557 0.402682 0.419936
v -0.076557 0.402682 0.419936
v -0.076557 0.402616 0.419133
v -0.076877 0.402350 0.419963
v -0.076877 0.402284 0.419161
v -0.076877 0.402284 0.419161
v -0.077141 0.401936 0.419997
v -0.077141 0.401869 0.419195
v -0.076877 0.402350 0.419963
v -0.076877 0.402350 0.419963
v -0.076877 0.402284 0.419161
v -0.077141 0.401936 0.419997
v -0.077141 0.401869 0.419195
v -0.077330 0.401453 0.420037
v -0.077330 0.401386 0.419235
v -0.077330 0.401453 0.420037
v -0.077330 0.401386 0.419235
v -0.077480 0.400279 0.420134
v -0.077480 0.400213 0.419332
v -0.077480 0.400279 0.420134
v -0.077480 0.400213 0.419332
v -0.077480 0.396276 0.420466
v -0.077480 0.396209 0.419664
v -0.077480 0.396276 0.420466
v -0.077480 0.396209 0.419664
v -0.077480 0.396276 0.420466
v -0.078884 0.396209 0.419664
v -0.077480 0.396209 0.419664
v -0.078884 0.396276 0.420466
v -0.078884 0.396276 0.420466
v -0.077480 0.396276 0.420466
v -0.078884 0.396209 0.419664
v -0.077480 0.396209 0.419664
v -0.078884 0.404129 0.419816
v -0.078884 0.396209 0.419664
v -0.078884 0.396276 0.420466
v -0.078884 0.404063 0.419014
v -0.078884 0.404063 0.419014
v -0.078884 0.404129 0.419816
v -0.078884 0.396209 0.419664
v -0.078884 0.396276 0.420466
v -0.078884 0.404129 0.419816
v -0.077480 0.404063 0.419014
v -0.078884 0.404063 0.419014
v -0.077480 0.404129 0.419816
v -0.077480 0.404129 0.419816
v -0.078884 0.404129 0.419816
v -0.077480 0.404063 0.419014
v -0.078884 0.404063 0.419014
v -0.077480 0.404063 0.419014
v -0.077480 0.402511 0.419950
v -0.077480 0.402445 0.419148
v -0.077480 0.404129 0.419816
v -0.077480 0.404129 0.419816
v -0.077480 0.404063 0.419014
v -0.077480 0.402511 0.419950
v -0.077480 0.402445 0.419148
v -0.077480 0.402511 0.419950
v -0.077446 0.402445 0.419148
v -0.077480 0.402445 0.419148
v -0.077446 0.402511 0.419950
v -0.077446 0.402511 0.419950
v -0.077480 0.402511 0.419950
v -0.077446 0.402445 0.419148
v -0.077480 0.402445 0.419148
v -0.077068 0.403248 0.419889
v -0.077446 0.402445 0.419148
v -0.077446 0.402511 0.419950
v -0.077068 0.403182 0.419087
v -0.077068 0.403182 0.419087
v -0.077068 0.403248 0.419889
v -0.077446 0.402445 0.419148
v -0.077446 0.402511 0.419950
v -0.076530 0.403803 0.419843
v -0.076530 0.403737 0.419041
v -0.076530 0.403737 0.419041
v -0.076530 0.403803 0.419843
v -0.075878 0.404085 0.419012
v -0.075878 0.404151 0.419814
v -0.075878 0.404151 0.419814
v -0.075878 0.404085 0.419012
v -0.075153 0.404201 0.419002
v -0.075153 0.404267 0.419804
v -0.075153 0.404267 0.419804
v -0.075153 0.404201 0.419002
v -0.074314 0.404094 0.419011
v -0.074314 0.404160 0.419813
v -0.074314 0.404160 0.419813
v -0.074314 0.404094 0.419011
v -0.074314 0.404094 0.419011
v -0.074314 0.402856 0.419921
v -0.074314 0.402790 0.419119
v -0.074314 0.404160 0.419813
v -0.074314 0.404160 0.419813
v -0.074314 0.404094 0.419011
v -0.074314 0.402856 0.419921
v -0.074314 0.402790 0.419119
v -0.077330 0.401453 0.420037
v -0.077480 0.402511 0.419950
v -0.077480 0.400279 0.420134
v -0.077446 0.402511 0.419950
v -0.077068 0.403248 0.419889
v -0.077141 0.401936 0.419997
v -0.076877 0.402350 0.419963
v -0.076530 0.403803 0.419843
v -0.076557 0.402682 0.419936
v -0.076200 0.402919 0.419916
v -0.075878 0.404151 0.419814
v -0.075806 0.403062 0.419904
v -0.075153 0.404267 0.419804
v -0.075375 0.403109 0.419900
v -0.074763 0.403046 0.419905
v -0.074314 0.404160 0.419813
v -0.074314 0.402856 0.419921
v -0.077480 0.396276 0.420466
v -0.078884 0.404129 0.419816
v -0.078884 0.396276 0.420466
v -0.077480 0.404129 0.419816
v -0.077480 0.402511 0.419950
v -0.077480 0.400279 0.420134
v -0.077480 0.404129 0.419816
v -0.077480 0.396276 0.420466
v -0.078884 0.404129 0.419816
v -0.078884 0.396276 0.420466
v -0.074314 0.402856 0.419921
v -0.074763 0.403046 0.419905
v -0.074314 0.404160 0.419813
v -0.075153 0.404267 0.419804
v -0.075375 0.403109 0.419900
v -0.075806 0.403062 0.419904
v -0.075878 0.404151 0.419814
v -0.076200 0.402919 0.419916
v -0.076530 0.403803 0.419843
v -0.076557 0.402682 0.419936
v -0.076877 0.402350 0.419963
v -0.077068 0.403248 0.419889
v -0.077141 0.401936 0.419997
v -0.077330 0.401453 0.420037
v -0.077446 0.402511 0.419950
vn 0 -0.08246840134308064 -0.9965936798815838
vn 0 0.08246840134308064 0.9965936798815838
vn -0.3902817013116128 -0.9175593109296896 0.07592828555647804
vn -0.2483011121178857 -0.965383254389998 0.07988573004234126
vn 0.2483011121178857 0.965383254389998 -0.07988573004234126
vn 0.3902817013116128 0.9175593109296896 -0.07592828555647804
vn -0.10319750909897416 -0.9912727505978394 0.08202809298015573
vn 0.10319750909897416 0.9912727505978394 -0.08202809298015573
vn 0.10984487342630514 -0.990563035435478 0.08196936385510666
vn -0.10984487342630514 0.990563035435478 -0.08196936385510666
vn 0.3408838969049384 -0.9369031030953215 0.0775289896829602
vn -0.3408838969049384 0.9369031030953215 -0.0775289896829602
vn 0.5547810662715049 -0.8291623293049604 0.06861341099394692
vn -0.5547810662715049 0.8291623293049604 -0.06861341099394692
vn 0.7212172717870361 -0.6903493309707524 0.05712659717066232
vn -0.7212172717870361 0.6903493309707524 -0.05712659717066232
vn 0.8440967837090341 -0.5343644049863998 0.04421880160740248
vn 0.891940891342397 -0.45061184234923 0.0372882539945636
vn -0.8440967837090341 0.5343644049863998 -0.04421880160740248
vn -0.891940891342397 0.45061184234923 -0.0372882539945636
vn 0.9689495448796694 -0.2464162859162096 0.02039101549071025
vn -0.9689495448796694 0.2464162859162096 -0.02039101549071025
vn 0.9979681093359601 -0.06349836926226145 0.005254507535682499
vn -0.9979681093359601 0.06349836926226145 -0.005254507535682499
vn 1 0 0
vn -1 0 0
vn 0 -0.9965936798815838 0.08246840134308064
vn 0 0.9965936798815838 -0.08246840134308064
vn -0.8125650099876457 0.580885128962426 -0.04806840432220342
vn -0.8901305499562161 0.45415333195981167 -0.03758131323470698
vn 0.8125650099876457 -0.580885128962426 0.04806840432220342
vn 0.8901305499562161 -0.45415333195981167 0.03758131323470698
vn -0.6011431514451147 0.7964192275905807 -0.06590391031387073
vn 0.6011431514451147 -0.7964192275905807 0.06590391031387073
vn -0.3177104942944936 0.944957936104922 -0.07819552933176287
vn 0.3177104942944936 -0.944957936104922 0.07819552933176287
vn -0.015604789038253785 0.996472332508916 -0.08245835981458903
vn 0.015604789038253785 -0.996472332508916 0.08245835981458903
vn 0.12740737840092337 0.9884719123466399 -0.0817963228438807
vn -0.12740737840092337 -0.9884719123466399 0.0817963228438807
usemtl material_0_0
f 1//1 2//1 3//1
f 2//1 1//1 4//1
f 4//1 1//1 5//1
f 4//1 5//1 6//1
f 6//1 5//1 7//1
f 7//1 5//1 8//1
f 7//1 8//1 9//1
f 9//1 8//1 10//1
f 10//1 8//1 11//1
f 10//1 11//1 12//1
f 12//1 11//1 13//1
f 12//1 13//1 14//1
f 14//1 13//1 15//1
f 15//1 13//1 16//1
f 15//1 16//1 17//1
f 18//1 19//1 20//1
f 19//1 18//1 21//1
f 21//1 18//1 3//1
f 21//1 3//1 2//1
f 22//2 23//2 24//2
f 23//2 25//2 24//2
f 24//2 25//2 26//2
f 27//2 26//2 25//2
f 28//2 29//2 30//2
f 29//2 31//2 30//2
f 30//2 31//2 32//2
f 32//2 31//2 33//2
f 31//2 34//2 33//2
f 33//2 34//2 35//2
f 34//2 36//2 35//2
f 35//2 36//2 37//2
f 37//2 36//2 38//2
f 36//2 39//2 38//2
f 38//2 39//2 40//2
f 40//2 39//2 41//2
f 39//2 42//2 41//2
f 41//2 42//2 22//2
f 23//2 22//2 42//2
f 43//3 44//4 45//3
f 44//4 43//3 46//4
f 47//5 48//6 49//5
f 50//6 49//5 48//6
f 46//4 51//7 44//4
f 51//7 46//4 52//7
f 53//8 47//5 54//8
f 49//5 54//8 47//5
f 55//9 56//9 57//9
f 56//9 55//9 58//9
f 59//10 60//10 61//10
f 62//10 61//10 60//10
f 63//11 64//11 65//11
f 64//11 63//11 66//11
f 67//12 68//12 69//12
f 70//12 69//12 68//12
f 71//13 72//13 73//13
f 72//13 71//13 74//13
f 75//14 76//14 77//14
f 78//14 77//14 76//14
f 79//15 80//15 81//15
f 80//15 79//15 82//15
f 83//16 84//16 85//16
f 86//16 85//16 84//16
f 87//17 88//18 89//18
f 88//18 87//17 90//17
f 91//19 92//19 93//20
f 94//20 93//20 92//19
f 89//18 95//21 96//21
f 95//21 89//18 88//18
f 93//20 94//20 97//22
f 98//22 97//22 94//20
f 96//21 99//23 100//23
f 99//23 96//21 95//21
f 97//22 98//22 101//24
f 102//24 101//24 98//22
f 100//23 103//25 104//25
f 103//25 100//23 99//23
f 101//24 102//24 105//26
f 106//26 105//26 102//24
f 107//27 108//27 109//27
f 108//27 107//27 110//27
f 111//28 112//28 113//28
f 114//28 113//28 112//28
f 115//26 116//26 117//26
f 116//26 115//26 118//26
f 119//25 120//25 121//25
f 122//25 121//25 120//25
f 123//28 124//28 125//28
f 124//28 123//28 126//28
f 127//27 128//27 129//27
f 130//27 129//27 128//27
f 131//25 132//25 133//25
f 132//25 131//25 134//25
f 135//26 136//26 137//26
f 138//26 137//26 136//26
f 139//28 140//28 141//28
f 140//28 139//28 142//28
f 143//27 144//27 145//27
f 146//27 145//27 144//27
f 147//29 148//30 149//30
f 148//30 147//29 150//29
f 151//31 152//31 153//32
f 154//32 153//32 152//31
f 155//33 150//29 147//29
f 150//29 155//33 156//33
f 157//34 158//34 151//31
f 152//31 151//31 158//34
f 155//33 159//35 156//33
f 159//35 155//33 160//35
f 161//36 158//34 162//36
f 157//34 162//36 158//34
f 160//35 163//37 159//35
f 163//37 160//35 164//37
f 165//38 161//36 166//38
f 162//36 166//38 161//36
f 164//37 167//39 163//37
f 167//39 164//37 168//39
f 169//40 165//38 170//40
f 166//38 170//40 165//38
f 171//25 172//25 173//25
f 172//25 171//25 174//25
f 175//26 176//26 177//26
f 178//26 177//26 176//26
f 179//2 180//2 181//2
f 180//2 179//2 182//2
f 182//2 179//2 183//2
f 183//2 179//2 184//2
f 183//2 184//2 185//2
f 183//2 185//2 186//2
f 186//2 185//2 187//2
f 186//2 187//2 188//2
f 186//2 188//2 189//2
f 189//2 188//2 190//2
f 189//2 190//2 191//2
f 191//2 190//2 192//2
f 191//2 192//2 193//2
f 191//2 193//2 194//2
f 194//2 193//2 195//2
f 196//2 197//2 198//2
f 197//2 196//2 199//2
f 199//2 196//2 181//2
f 199//2 181//2 180//2
f 200//1 201//1 202//1
f 201//1 203//1 202//1
f 202//1 203//1 204//1
f 205//1 204//1 203//1
f 206//1 207//1 208//1
f 208//1 207//1 209//1
f 207//1 210//1 209//1
f 210//1 211//1 209//1
f 209//1 211//1 212//1
f 211//1 213//1 212//1
f 212//1 213//1 214//1
f 213//1 215//1 214//1
f 215//1 216//1 214//1
f 214//1 216//1 217//1
f 216//1 218//1 217//1
f 218//1 219//1 217//1
f 217//1 219//1 220//1
f 220//1 219//1 200//1
f 201//1 200//1 219//1
