# SSTK version 0.8.0
# 268
mtllib original-268.mtl
o #ID1541
v -0.139326 0.447829 0.415392
v -0.139326 0.439762 0.416843
v -0.139326 0.439697 0.416065
v -0.139326 0.447893 0.416170
v -0.139326 0.447893 0.416170
v -0.139326 0.447829 0.415392
v -0.139326 0.439762 0.416843
v -0.139326 0.439697 0.416065
v -0.137328 0.447893 0.416170
v -0.139326 0.447829 0.415392
v -0.137328 0.447829 0.415392
v -0.139326 0.447893 0.416170
v -0.139326 0.447893 0.416170
v -0.137328 0.447893 0.416170
v -0.139326 0.447829 0.415392
v -0.137328 0.447829 0.415392
v -0.139326 0.439762 0.416843
v -0.137417 0.439697 0.416065
v -0.139326 0.439697 0.416065
v -0.137417 0.439762 0.416843
v -0.137417 0.439762 0.416843
v -0.139326 0.439762 0.416843
v -0.137417 0.439697 0.416065
v -0.139326 0.439697 0.416065
v -0.136103 0.447831 0.416175
v -0.136103 0.447767 0.415397
v -0.136103 0.447831 0.416175
v -0.136103 0.447767 0.415397
v -0.136230 0.439765 0.416059
v -0.136230 0.439829 0.416837
v -0.136230 0.439829 0.416837
v -0.136230 0.439765 0.416059
v -0.135042 0.447645 0.416191
v -0.135042 0.447581 0.415413
v -0.135042 0.447645 0.416191
v -0.135042 0.447581 0.415413
v -0.135181 0.439969 0.416042
v -0.135181 0.440033 0.416820
v -0.135181 0.440033 0.416820
v -0.135181 0.439969 0.416042
v -0.134144 0.447336 0.416216
v -0.134144 0.447271 0.415438
v -0.134144 0.447336 0.416216
v -0.134144 0.447271 0.415438
v -0.134272 0.440308 0.416014
v -0.134272 0.440373 0.416792
v -0.134272 0.440373 0.416792
v -0.134272 0.440308 0.416014
v -0.133409 0.446902 0.416252
v -0.133409 0.446838 0.415474
v -0.133409 0.446902 0.416252
v -0.133409 0.446838 0.415474
v -0.133502 0.440784 0.415975
v -0.133502 0.440848 0.416753
v -0.133502 0.440848 0.416753
v -0.133502 0.440784 0.415975
v -0.132837 0.446280 0.415520
v -0.132837 0.446344 0.416298
v -0.132837 0.446280 0.415520
v -0.132837 0.446344 0.416298
v -0.132890 0.441448 0.416703
v -0.132890 0.441384 0.415925
v -0.132890 0.441384 0.415925
v -0.132890 0.441448 0.416703
v -0.132429 0.445599 0.415577
v -0.132429 0.445663 0.416355
v -0.132429 0.445599 0.415577
v -0.132429 0.445663 0.416355
v -0.132452 0.442161 0.416644
v -0.132452 0.442097 0.415866
v -0.132452 0.442097 0.415866
v -0.132452 0.442161 0.416644
v -0.132184 0.444793 0.415643
v -0.132184 0.444857 0.416421
v -0.132184 0.444793 0.415643
v -0.132184 0.444857 0.416421
v -0.132190 0.442988 0.416576
v -0.132190 0.442924 0.415798
v -0.132190 0.442924 0.415798
v -0.132190 0.442988 0.416576
v -0.132102 0.443864 0.415720
v -0.132102 0.443928 0.416498
v -0.132102 0.443864 0.415720
v -0.132102 0.443928 0.416498
vn 1 0 0
vn -1 0 0
vn -0.025344816728604228 -0.9962735425252432 0.08244191124176987
vn 0 -0.9965936797703442 0.08246840268736111
vn 0 0.9965936797703442 -0.08246840268736111
vn 0.025344816728604228 0.9962735425252432 -0.08244191124176987
vn -0.028639345559825974 0.996184886824428 -0.0824345749580027
vn 0.028639345559825974 -0.996184886824428 0.0824345749580027
vn -0.11186045366583283 -0.9903389829854081 0.08195082479817932
vn 0.11186045366583283 0.9903389829854081 -0.08195082479817932
vn -0.12433038032507064 0.9888609860940248 -0.08182852014656107
vn 0.12433038032507064 -0.9888609860940248 0.08182852014656107
vn -0.2500779239785481 -0.9649276264881902 0.07984802801852528
vn 0.2500779239785481 0.9649276264881902 -0.07984802801852528
vn -0.27124534582589976 0.9592316220343575 -0.07937668207429258
vn 0.27124534582589976 -0.9592316220343575 0.07937668207429258
vn -0.4187291605562089 -0.9050178487214183 0.07489047733556392
vn 0.4187291605562089 0.9050178487214183 -0.07489047733556392
vn -0.4393716175561632 0.8952454786058809 -0.0740818110051856
vn 0.4393716175561632 -0.8952454786058809 0.0740818110051856
vn -0.6064821822510644 -0.7923887222171491 0.06557038596089232
vn 0.6064821822510644 0.7923887222171491 -0.06557038596089232
vn -0.6156149597093906 0.7853627526222157 -0.06498898503332705
vn 0.6156149597093906 -0.7853627526222157 0.06498898503332705
vn -0.7836019932257167 -0.6191469405263874 0.051234580602341456
vn 0.7836019932257167 0.6191469405263874 -0.051234580602341456
vn -0.7811628265544519 0.6222006898818068 -0.05148727920625691
vn 0.7811628265544519 -0.6222006898818068 0.05148727920625691
vn -0.9137893609531642 -0.4048047769189715 0.033497707270644245
vn 0.9137893609531642 0.4048047769189715 -0.033497707270644245
vn -0.9091252656812879 0.4151039999855591 -0.03434997082846448
vn 0.9091252656812879 -0.4151039999855591 0.03434997082846448
vn -0.981715824659798 -0.18970400773958443 0.01569805911801438
vn 0.981715824659798 0.18970400773958443 -0.01569805911801438
vn -0.9800094654770187 0.19827317687596174 -0.016407160234527228
vn 0.9800094654770187 -0.19827317687596174 0.016407160234527228
vn -0.9999966433517498 0.0025821750384253475 -0.00021367569873325908
vn 0.9999966433517498 -0.0025821750384253475 0.00021367569873325908
usemtl material_0_0
f 1//1 2//1 3//1
f 2//1 1//1 4//1
f 5//2 6//2 7//2
f 8//2 7//2 6//2
f 9//3 10//4 11//3
f 10//4 9//3 12//4
f 13//5 14//6 15//5
f 16//6 15//5 14//6
f 17//5 18//7 19//5
f 18//7 17//5 20//7
f 21//8 22//4 23//8
f 24//4 23//8 22//4
f 25//9 11//3 26//9
f 11//3 25//9 9//3
f 14//6 27//10 16//6
f 28//10 16//6 27//10
f 20//7 29//11 18//7
f 29//11 20//7 30//11
f 31//12 21//8 32//12
f 23//8 32//12 21//8
f 33//13 26//9 34//13
f 26//9 33//13 25//9
f 27//10 35//14 28//10
f 36//14 28//10 35//14
f 30//11 37//15 29//11
f 37//15 30//11 38//15
f 39//16 31//12 40//16
f 32//12 40//16 31//12
f 41//17 34//13 42//17
f 34//13 41//17 33//13
f 35//14 43//18 36//14
f 44//18 36//14 43//18
f 38//15 45//19 37//15
f 45//19 38//15 46//19
f 47//20 39//16 48//20
f 40//16 48//20 39//16
f 49//21 42//17 50//21
f 42//17 49//21 41//17
f 43//18 51//22 44//18
f 52//22 44//18 51//22
f 46//19 53//23 45//19
f 53//23 46//19 54//23
f 55//24 47//20 56//24
f 48//20 56//24 47//20
f 49//21 57//25 58//25
f 57//25 49//21 50//21
f 52//22 51//22 59//26
f 60//26 59//26 51//22
f 61//27 53//23 54//23
f 53//23 61//27 62//27
f 63//28 64//28 56//24
f 55//24 56//24 64//28
f 58//25 65//29 66//29
f 65//29 58//25 57//25
f 59//26 60//26 67//30
f 68//30 67//30 60//26
f 69//31 62//27 61//27
f 62//27 69//31 70//31
f 71//32 72//32 63//28
f 64//28 63//28 72//32
f 66//29 73//33 74//33
f 73//33 66//29 65//29
f 67//30 68//30 75//34
f 76//34 75//34 68//30
f 77//35 70//31 69//31
f 70//31 77//35 78//35
f 79//36 80//36 71//32
f 72//32 71//32 80//36
f 74//33 81//37 82//37
f 81//37 74//33 73//33
f 75//34 76//34 83//38
f 84//38 83//38 76//34
f 82//37 78//35 77//35
f 78//35 82//37 81//37
f 83//38 84//38 79//36
f 80//36 79//36 84//38
