# SSTK version 0.8.0
# 215
mtllib original-215.mtl
o #ID1239
v -0.139581 0.401333 0.419240
v -0.139581 0.397442 0.420369
v -0.139581 0.397375 0.419567
v -0.139581 0.401399 0.420042
v -0.139581 0.401399 0.420042
v -0.139581 0.401333 0.419240
v -0.139581 0.397442 0.420369
v -0.139581 0.397375 0.419567
v -0.137929 0.401399 0.420042
v -0.139581 0.401333 0.419240
v -0.137929 0.401333 0.419240
v -0.139581 0.401399 0.420042
v -0.139581 0.401399 0.420042
v -0.137929 0.401399 0.420042
v -0.139581 0.401333 0.419240
v -0.137929 0.401333 0.419240
v -0.139581 0.397442 0.420369
v -0.137629 0.397375 0.419567
v -0.139581 0.397375 0.419567
v -0.137629 0.397442 0.420369
v -0.137629 0.397442 0.420369
v -0.139581 0.397442 0.420369
v -0.137629 0.397375 0.419567
v -0.139581 0.397375 0.419567
v -0.136633 0.401277 0.420052
v -0.136633 0.401211 0.419250
v -0.136633 0.401277 0.420052
v -0.136633 0.401211 0.419250
v -0.136505 0.397509 0.419556
v -0.136505 0.397576 0.420358
v -0.136505 0.397576 0.420358
v -0.136505 0.397509 0.419556
v -0.136124 0.401125 0.420064
v -0.136124 0.401059 0.419262
v -0.136124 0.401125 0.420064
v -0.136124 0.401059 0.419262
v -0.136050 0.397677 0.419542
v -0.136050 0.397744 0.420344
v -0.136050 0.397744 0.420344
v -0.136050 0.397677 0.419542
v -0.135708 0.400912 0.420082
v -0.136124 0.401059 0.419262
v -0.135708 0.400846 0.419280
v -0.136124 0.401125 0.420064
v -0.136124 0.401125 0.420064
v -0.135708 0.400912 0.420082
v -0.136124 0.401059 0.419262
v -0.135708 0.400846 0.419280
v -0.136050 0.397744 0.420344
v -0.135665 0.397912 0.419523
v -0.136050 0.397677 0.419542
v -0.135665 0.397978 0.420325
v -0.135665 0.397978 0.420325
v -0.136050 0.397744 0.420344
v -0.135665 0.397912 0.419523
v -0.136050 0.397677 0.419542
v -0.135384 0.400638 0.420105
v -0.135708 0.400846 0.419280
v -0.135384 0.400572 0.419303
v -0.135708 0.400912 0.420082
v -0.135708 0.400912 0.420082
v -0.135384 0.400638 0.420105
v -0.135708 0.400846 0.419280
v -0.135384 0.400572 0.419303
v -0.135360 0.398272 0.420300
v -0.135665 0.397912 0.419523
v -0.135665 0.397978 0.420325
v -0.135360 0.398205 0.419498
v -0.135360 0.398205 0.419498
v -0.135360 0.398272 0.420300
v -0.135665 0.397912 0.419523
v -0.135665 0.397978 0.420325
v -0.135384 0.400638 0.420105
v -0.135153 0.400237 0.419330
v -0.135153 0.400303 0.420132
v -0.135384 0.400572 0.419303
v -0.135384 0.400572 0.419303
v -0.135384 0.400638 0.420105
v -0.135153 0.400237 0.419330
v -0.135153 0.400303 0.420132
v -0.135142 0.398615 0.420272
v -0.135360 0.398205 0.419498
v -0.135360 0.398272 0.420300
v -0.135142 0.398549 0.419470
v -0.135142 0.398549 0.419470
v -0.135142 0.398615 0.420272
v -0.135360 0.398205 0.419498
v -0.135360 0.398272 0.420300
v -0.135153 0.400303 0.420132
v -0.135014 0.399841 0.419363
v -0.135014 0.399907 0.420165
v -0.135153 0.400237 0.419330
v -0.135153 0.400237 0.419330
v -0.135153 0.400303 0.420132
v -0.135014 0.399841 0.419363
v -0.135014 0.399907 0.420165
v -0.135011 0.399008 0.420240
v -0.135142 0.398549 0.419470
v -0.135142 0.398615 0.420272
v -0.135011 0.398942 0.419437
v -0.135011 0.398942 0.419437
v -0.135011 0.399008 0.420240
v -0.135142 0.398549 0.419470
v -0.135142 0.398615 0.420272
v -0.135014 0.399907 0.420165
v -0.134968 0.399385 0.419401
v -0.134968 0.399451 0.420203
v -0.135014 0.399841 0.419363
v -0.135014 0.399841 0.419363
v -0.135014 0.399907 0.420165
v -0.134968 0.399385 0.419401
v -0.134968 0.399451 0.420203
v -0.134968 0.399451 0.420203
v -0.135011 0.398942 0.419437
v -0.135011 0.399008 0.420240
v -0.134968 0.399385 0.419401
v -0.134968 0.399385 0.419401
v -0.134968 0.399451 0.420203
v -0.135011 0.398942 0.419437
v -0.135011 0.399008 0.420240
vn 1 0 0
vn -1 0 0
vn -0.04696854034290641 -0.995493808310149 0.08237738666778217
vn 0 -0.9965936798815838 0.08246840134308064
vn 0 0.9965936798815838 -0.08246840134308064
vn 0.04696854034290641 0.995493808310149 -0.08237738666778217
vn -0.0595192096496192 0.9948268791020621 -0.08232219809222703
vn 0.0595192096496192 -0.9948268791020621 0.08232219809222703
vn -0.19114615939892632 -0.9782180723298032 0.08094781475990741
vn 0.19114615939892632 0.9782180723298032 -0.08094781475990741
vn -0.233706988315415 0.9689950835519076 -0.08018460989971944
vn 0.233706988315415 -0.9689950835519076 0.08018460989971944
vn -0.28738424985033034 -0.9545527494013122 0.07898950277320857
vn 0.28738424985033034 0.9545527494013122 -0.07898950277320857
vn -0.3466772527856423 0.9347894033626009 -0.0773540804482383
vn 0.3466772527856423 -0.9347894033626009 0.0773540804482383
vn -0.4567277567193657 -0.8865762330696264 0.07336442733482927
vn 0.4567277567193657 0.8865762330696264 -0.07336442733482927
vn -0.5227577133543279 0.8495774794673912 -0.07030277028957747
vn 0.5227577133543279 -0.8495774794673912 0.07030277028957747
vn -0.6470677963729451 -0.7598353780541793 0.06287658669427751
vn 0.6470677963729451 0.7598353780541793 -0.06287658669427751
vn -0.6942484746370092 0.7172837573703044 -0.059355428369479324
vn 0.6942484746370092 -0.7172837573703044 0.059355428369479324
vn -0.8236148611117124 -0.5652176118217083 0.046771912966003096
vn 0.8236148611117124 0.5652176118217083 -0.046771912966003096
vn -0.8449660851856822 0.5329981223853386 -0.04410574134606731
vn 0.8449660851856822 -0.5329981223853386 0.04410574134606731
vn -0.9439754162698781 -0.32889163823726364 0.02721587359831213
vn 0.9439754162698781 0.32889163823726364 -0.02721587359831213
vn -0.9491748093778227 0.31367725715399675 -0.02595687937560096
vn 0.9491748093778227 -0.31367725715399675 0.02595687937560096
vn -0.9949385769839828 -0.1001426802389567 0.00828683435610323
vn 0.9949385769839828 0.1001426802389567 -0.00828683435610323
vn -0.9952232961505627 0.0972922036776564 -0.008050956636003451
vn 0.9952232961505627 -0.0972922036776564 0.008050956636003451
usemtl material_0_0
f 1//1 2//1 3//1
f 2//1 1//1 4//1
f 5//2 6//2 7//2
f 8//2 7//2 6//2
f 9//3 10//4 11//3
f 10//4 9//3 12//4
f 13//5 14//6 15//5
f 16//6 15//5 14//6
f 17//5 18//7 19//5
f 18//7 17//5 20//7
f 21//8 22//4 23//8
f 24//4 23//8 22//4
f 25//9 11//3 26//9
f 11//3 25//9 9//3
f 14//6 27//10 16//6
f 28//10 16//6 27//10
f 20//7 29//11 18//7
f 29//11 20//7 30//11
f 31//12 21//8 32//12
f 23//8 32//12 21//8
f 33//13 26//9 34//13
f 26//9 33//13 25//9
f 27//10 35//14 28//10
f 36//14 28//10 35//14
f 30//11 37//15 29//11
f 37//15 30//11 38//15
f 39//16 31//12 40//16
f 32//12 40//16 31//12
f 41//17 42//17 43//17
f 42//17 41//17 44//17
f 45//18 46//18 47//18
f 48//18 47//18 46//18
f 49//19 50//19 51//19
f 50//19 49//19 52//19
f 53//20 54//20 55//20
f 56//20 55//20 54//20
f 57//21 58//21 59//21
f 58//21 57//21 60//21
f 61//22 62//22 63//22
f 64//22 63//22 62//22
f 65//23 66//23 67//23
f 66//23 65//23 68//23
f 69//24 70//24 71//24
f 72//24 71//24 70//24
f 73//25 74//25 75//25
f 74//25 73//25 76//25
f 77//26 78//26 79//26
f 80//26 79//26 78//26
f 81//27 82//27 83//27
f 82//27 81//27 84//27
f 85//28 86//28 87//28
f 88//28 87//28 86//28
f 89//29 90//29 91//29
f 90//29 89//29 92//29
f 93//30 94//30 95//30
f 96//30 95//30 94//30
f 97//31 98//31 99//31
f 98//31 97//31 100//31
f 101//32 102//32 103//32
f 104//32 103//32 102//32
f 105//33 106//33 107//33
f 106//33 105//33 108//33
f 109//34 110//34 111//34
f 112//34 111//34 110//34
f 113//35 114//35 115//35
f 114//35 113//35 116//35
f 117//36 118//36 119//36
f 120//36 119//36 118//36
