# SSTK version 0.8.0
# 136
mtllib original-136.mtl
o #ID789
v 0.088134 0.522563 0.404815
v 0.088291 0.520439 0.405436
v 0.088263 0.519822 0.405617
v 0.088502 0.523000 0.404687
v 0.088374 0.520986 0.405276
v 0.088512 0.521463 0.405137
v 0.088930 0.523313 0.404595
v 0.088706 0.521869 0.405018
v 0.088947 0.522194 0.404923
v 0.089418 0.523501 0.404540
v 0.089227 0.522425 0.404855
v 0.089548 0.522565 0.404814
v 0.089965 0.523563 0.404522
v 0.089907 0.522611 0.404801
v 0.090268 0.522566 0.404814
v 0.090485 0.523503 0.404540
v 0.090584 0.522431 0.404853
v 0.090945 0.523320 0.404593
v 0.090855 0.522207 0.404919
v 0.091083 0.521893 0.405011
v 0.091345 0.523016 0.404682
v 0.091263 0.521496 0.405127
v 0.091391 0.521023 0.405265
v 0.091684 0.522590 0.404807
v 0.091468 0.520475 0.405426
v 0.091494 0.519850 0.405608
v 0.091636 0.517182 0.406389
v 0.091927 0.517733 0.406228
v 0.091954 0.522057 0.404963
v 0.092135 0.518368 0.406042
v 0.092147 0.521429 0.405147
v 0.092260 0.519088 0.405831
v 0.092263 0.520707 0.405358
v 0.092302 0.519891 0.405596
v 0.087498 0.520623 0.405382
v 0.087496 0.519003 0.405856
v 0.087456 0.519781 0.405629
v 0.087619 0.518306 0.406060
v 0.087625 0.521367 0.405165
v 0.087822 0.517690 0.406240
v 0.087837 0.522013 0.404976
v 0.088107 0.517154 0.406397
v 0.088291 0.519227 0.405791
v 0.088460 0.516721 0.406524
v 0.088375 0.518699 0.405945
v 0.088515 0.518237 0.406080
v 0.088868 0.516412 0.406614
v 0.088710 0.517841 0.406196
v 0.088953 0.517524 0.406289
v 0.089332 0.516226 0.406669
v 0.089233 0.517298 0.406355
v 0.089551 0.517162 0.406395
v 0.089850 0.516164 0.406687
v 0.089907 0.517116 0.406408
v 0.090381 0.516228 0.406668
v 0.090268 0.517161 0.406395
v 0.090584 0.517294 0.406356
v 0.090856 0.516418 0.406612
v 0.090855 0.517516 0.406291
v 0.091083 0.517827 0.406200
v 0.091274 0.516737 0.406519
v 0.091263 0.518220 0.406085
v 0.091391 0.518689 0.405948
v 0.091468 0.519232 0.405789
v 0.091494 0.519850 0.405608
v 0.091468 0.519232 0.405789
v 0.091636 0.517182 0.406389
v 0.091391 0.518689 0.405948
v 0.091274 0.516737 0.406519
v 0.091263 0.518220 0.406085
v 0.091083 0.517827 0.406200
v 0.090856 0.516418 0.406612
v 0.090855 0.517516 0.406291
v 0.090584 0.517294 0.406356
v 0.090381 0.516228 0.406668
v 0.090268 0.517161 0.406395
v 0.089907 0.517116 0.406408
v 0.089850 0.516164 0.406687
v 0.089551 0.517162 0.406395
v 0.089332 0.516226 0.406669
v 0.089233 0.517298 0.406355
v 0.088953 0.517524 0.406289
v 0.088868 0.516412 0.406614
v 0.088710 0.517841 0.406196
v 0.088515 0.518237 0.406080
v 0.088460 0.516721 0.406524
v 0.088375 0.518699 0.405945
v 0.088291 0.519227 0.405791
v 0.088263 0.519822 0.405617
v 0.088134 0.522563 0.404815
v 0.088107 0.517154 0.406397
v 0.087837 0.522013 0.404976
v 0.087822 0.517690 0.406240
v 0.087625 0.521367 0.405165
v 0.087619 0.518306 0.406060
v 0.087498 0.520623 0.405382
v 0.087496 0.519003 0.405856
v 0.087456 0.519781 0.405629
v 0.092302 0.519891 0.405596
v 0.092263 0.520707 0.405358
v 0.092260 0.519088 0.405831
v 0.092147 0.521429 0.405147
v 0.092135 0.518368 0.406042
v 0.091954 0.522057 0.404963
v 0.091927 0.517733 0.406228
v 0.091684 0.522590 0.404807
v 0.091468 0.520475 0.405426
v 0.091391 0.521023 0.405265
v 0.091345 0.523016 0.404682
v 0.091263 0.521496 0.405127
v 0.091083 0.521893 0.405011
v 0.090945 0.523320 0.404593
v 0.090855 0.522207 0.404919
v 0.090584 0.522431 0.404853
v 0.090485 0.523503 0.404540
v 0.090268 0.522566 0.404814
v 0.089965 0.523563 0.404522
v 0.089907 0.522611 0.404801
v 0.089548 0.522565 0.404814
v 0.089418 0.523501 0.404540
v 0.089227 0.522425 0.404855
v 0.088947 0.522194 0.404923
v 0.088930 0.523313 0.404595
v 0.088706 0.521869 0.405018
v 0.088512 0.521463 0.405137
v 0.088502 0.523000 0.404687
v 0.088374 0.520986 0.405276
v 0.088291 0.520439 0.405436
v 0.089850 0.516164 0.406687
v 0.089332 0.516452 0.407441
v 0.089332 0.516226 0.406669
v 0.089850 0.516390 0.407459
v 0.089850 0.516390 0.407459
v 0.089850 0.516164 0.406687
v 0.089332 0.516452 0.407441
v 0.089332 0.516226 0.406669
v 0.088868 0.516412 0.406614
v 0.088868 0.516637 0.407387
v 0.088868 0.516637 0.407387
v 0.088868 0.516412 0.406614
v 0.088460 0.516947 0.407296
v 0.088460 0.516721 0.406524
v 0.088460 0.516947 0.407296
v 0.088460 0.516721 0.406524
v 0.088107 0.517154 0.406397
v 0.088107 0.517380 0.407169
v 0.088107 0.517380 0.407169
v 0.088107 0.517154 0.406397
v 0.087822 0.517916 0.407013
v 0.087822 0.517690 0.406240
v 0.087822 0.517690 0.406240
v 0.087822 0.517916 0.407013
v 0.087619 0.518532 0.406832
v 0.087619 0.518306 0.406060
v 0.087619 0.518306 0.406060
v 0.087619 0.518532 0.406832
v 0.087496 0.519003 0.405856
v 0.087496 0.519229 0.406629
v 0.087496 0.519229 0.406629
v 0.087496 0.519003 0.405856
v 0.087456 0.519781 0.405629
v 0.087456 0.520007 0.406401
v 0.087456 0.520007 0.406401
v 0.087456 0.519781 0.405629
v 0.087498 0.520848 0.406155
v 0.087498 0.520623 0.405382
v 0.087498 0.520623 0.405382
v 0.087498 0.520848 0.406155
v 0.087625 0.521593 0.405937
v 0.087625 0.521367 0.405165
v 0.087625 0.521367 0.405165
v 0.087625 0.521593 0.405937
v 0.087837 0.522239 0.405748
v 0.087837 0.522013 0.404976
v 0.087837 0.522013 0.404976
v 0.087837 0.522239 0.405748
v 0.088134 0.522789 0.405587
v 0.088134 0.522563 0.404815
v 0.088134 0.522563 0.404815
v 0.088134 0.522789 0.405587
v 0.088502 0.523000 0.404687
v 0.088502 0.523226 0.405459
v 0.088502 0.523226 0.405459
v 0.088502 0.523000 0.404687
v 0.088930 0.523313 0.404595
v 0.088930 0.523539 0.405368
v 0.088930 0.523539 0.405368
v 0.088930 0.523313 0.404595
v 0.089418 0.523501 0.404540
v 0.089418 0.523727 0.405313
v 0.089418 0.523727 0.405313
v 0.089418 0.523501 0.404540
v 0.089965 0.523563 0.404522
v 0.089965 0.523789 0.405295
v 0.089965 0.523789 0.405295
v 0.089965 0.523563 0.404522
v 0.090485 0.523503 0.404540
v 0.090485 0.523729 0.405312
v 0.090485 0.523729 0.405312
v 0.090485 0.523503 0.404540
v 0.090945 0.523546 0.405366
v 0.090945 0.523320 0.404593
v 0.090945 0.523546 0.405366
v 0.090945 0.523320 0.404593
v 0.091345 0.523016 0.404682
v 0.091345 0.523242 0.405455
v 0.091345 0.523242 0.405455
v 0.091345 0.523016 0.404682
v 0.091684 0.522816 0.405579
v 0.091684 0.522590 0.404807
v 0.091684 0.522816 0.405579
v 0.091684 0.522590 0.404807
v 0.091954 0.522057 0.404963
v 0.091954 0.522282 0.405735
v 0.091954 0.522057 0.404963
v 0.091954 0.522282 0.405735
v 0.092147 0.521655 0.405919
v 0.092147 0.521429 0.405147
v 0.092147 0.521655 0.405919
v 0.092147 0.521429 0.405147
v 0.092263 0.520933 0.406130
v 0.092263 0.520707 0.405358
v 0.092263 0.520933 0.406130
v 0.092263 0.520707 0.405358
v 0.092302 0.520117 0.406369
v 0.092302 0.519891 0.405596
v 0.092302 0.520117 0.406369
v 0.092302 0.519891 0.405596
v 0.092260 0.519314 0.406604
v 0.092260 0.519088 0.405831
v 0.092260 0.519314 0.406604
v 0.092260 0.519088 0.405831
v 0.092135 0.518594 0.406814
v 0.092135 0.518368 0.406042
v 0.092135 0.518594 0.406814
v 0.092135 0.518368 0.406042
v 0.091927 0.517959 0.407000
v 0.091927 0.517733 0.406228
v 0.091927 0.517959 0.407000
v 0.091927 0.517733 0.406228
v 0.091636 0.517408 0.407161
v 0.091636 0.517182 0.406389
v 0.091636 0.517408 0.407161
v 0.091636 0.517182 0.406389
v 0.091274 0.516737 0.406519
v 0.091274 0.516963 0.407292
v 0.091274 0.516963 0.407292
v 0.091274 0.516737 0.406519
v 0.090856 0.516418 0.406612
v 0.090856 0.516644 0.407385
v 0.090856 0.516644 0.407385
v 0.090856 0.516418 0.406612
v 0.090381 0.516228 0.406668
v 0.090381 0.516453 0.407441
v 0.090381 0.516453 0.407441
v 0.090381 0.516228 0.406668
v 0.087496 0.519229 0.406629
v 0.087498 0.520848 0.406155
v 0.087456 0.520007 0.406401
v 0.087619 0.518532 0.406832
v 0.087625 0.521593 0.405937
v 0.087822 0.517916 0.407013
v 0.087837 0.522239 0.405748
v 0.088107 0.517380 0.407169
v 0.088134 0.522789 0.405587
v 0.088291 0.519453 0.406563
v 0.088460 0.516947 0.407296
v 0.088263 0.520048 0.406389
v 0.088375 0.518925 0.406718
v 0.088515 0.518463 0.406853
v 0.088868 0.516637 0.407387
v 0.088710 0.518067 0.406968
v 0.088953 0.517750 0.407061
v 0.089332 0.516452 0.407441
v 0.089233 0.517524 0.407127
v 0.089551 0.517388 0.407167
v 0.089850 0.516390 0.407459
v 0.089907 0.517342 0.407180
v 0.090381 0.516453 0.407441
v 0.090268 0.517387 0.407167
v 0.090584 0.517520 0.407128
v 0.090856 0.516644 0.407385
v 0.090855 0.517742 0.407064
v 0.091083 0.518053 0.406973
v 0.091274 0.516963 0.407292
v 0.091263 0.518446 0.406858
v 0.091391 0.518914 0.406721
v 0.091636 0.517408 0.407161
v 0.091468 0.519458 0.406562
v 0.091494 0.520076 0.406381
v 0.088291 0.520665 0.406208
v 0.088502 0.523226 0.405459
v 0.088374 0.521212 0.406049
v 0.088512 0.521689 0.405909
v 0.088930 0.523539 0.405368
v 0.088706 0.522095 0.405790
v 0.088947 0.522419 0.405695
v 0.089418 0.523727 0.405313
v 0.089227 0.522651 0.405628
v 0.089548 0.522790 0.405587
v 0.089965 0.523789 0.405295
v 0.089907 0.522837 0.405573
v 0.090268 0.522792 0.405586
v 0.090485 0.523729 0.405312
v 0.090584 0.522657 0.405626
v 0.090945 0.523546 0.405366
v 0.090855 0.522433 0.405691
v 0.091083 0.522119 0.405783
v 0.091345 0.523242 0.405455
v 0.091263 0.521722 0.405899
v 0.091391 0.521249 0.406038
v 0.091684 0.522816 0.405579
v 0.091468 0.520701 0.406198
v 0.091927 0.517959 0.407000
v 0.091954 0.522282 0.405735
v 0.092135 0.518594 0.406814
v 0.092147 0.521655 0.405919
v 0.092260 0.519314 0.406604
v 0.092263 0.520933 0.406130
v 0.092302 0.520117 0.406369
v 0.092302 0.520117 0.406369
v 0.092260 0.519314 0.406604
v 0.092263 0.520933 0.406130
v 0.092147 0.521655 0.405919
v 0.092135 0.518594 0.406814
v 0.091954 0.522282 0.405735
v 0.091927 0.517959 0.407000
v 0.091684 0.522816 0.405579
v 0.091636 0.517408 0.407161
v 0.091494 0.520076 0.406381
v 0.091468 0.520701 0.406198
v 0.091391 0.521249 0.406038
v 0.091345 0.523242 0.405455
v 0.091263 0.521722 0.405899
v 0.091083 0.522119 0.405783
v 0.090945 0.523546 0.405366
v 0.090855 0.522433 0.405691
v 0.090584 0.522657 0.405626
v 0.090485 0.523729 0.405312
v 0.090268 0.522792 0.405586
v 0.089965 0.523789 0.405295
v 0.089907 0.522837 0.405573
v 0.089548 0.522790 0.405587
v 0.089418 0.523727 0.405313
v 0.089227 0.522651 0.405628
v 0.088947 0.522419 0.405695
v 0.088930 0.523539 0.405368
v 0.088706 0.522095 0.405790
v 0.088512 0.521689 0.405909
v 0.088502 0.523226 0.405459
v 0.088374 0.521212 0.406049
v 0.088291 0.520665 0.406208
v 0.088263 0.520048 0.406389
v 0.088134 0.522789 0.405587
v 0.091468 0.519458 0.406562
v 0.091391 0.518914 0.406721
v 0.091274 0.516963 0.407292
v 0.091263 0.518446 0.406858
v 0.091083 0.518053 0.406973
v 0.090856 0.516644 0.407385
v 0.090855 0.517742 0.407064
v 0.090584 0.517520 0.407128
v 0.090381 0.516453 0.407441
v 0.090268 0.517387 0.407167
v 0.089907 0.517342 0.407180
v 0.089850 0.516390 0.407459
v 0.089551 0.517388 0.407167
v 0.089332 0.516452 0.407441
v 0.089233 0.517524 0.407127
v 0.088953 0.517750 0.407061
v 0.088868 0.516637 0.407387
v 0.088710 0.518067 0.406968
v 0.088515 0.518463 0.406853
v 0.088460 0.516947 0.407296
v 0.088375 0.518925 0.406718
v 0.088291 0.519453 0.406563
v 0.088107 0.517380 0.407169
v 0.087837 0.522239 0.405748
v 0.087822 0.517916 0.407013
v 0.087625 0.521593 0.405937
v 0.087619 0.518532 0.406832
v 0.087498 0.520848 0.406155
v 0.087496 0.519229 0.406629
v 0.087456 0.520007 0.406401
vn 0 -0.2807530197988988 -0.9597800486954285
vn 0 0.2807530197988988 0.9597800486954285
vn 0.00010723156364699963 -0.9597800431773611 0.28075301818476417
vn -0.2594358072339326 -0.9269175198718161 0.2711401358699212
vn -0.00010723156364699963 0.9597800431773611 -0.28075301818476417
vn 0.2594358072339326 0.9269175198718161 -0.2711401358699212
vn -0.51196326677675 -0.8244581084570459 0.24116890527327137
vn 0.51196326677675 0.8244581084570459 -0.24116890527327137
vn -0.7126335944150854 -0.6733206672326986 0.19695847071996953
vn 0.7126335944150854 0.6733206672326986 -0.19695847071996953
vn -0.8450035270282144 -0.5132526803410705 0.15013569006929986
vn 0.8450035270282144 0.5132526803410705 -0.15013569006929986
vn -0.9260110503559612 -0.3623135164868157 0.1059832552321694
vn 0.9260110503559612 0.3623135164868157 -0.1059832552321694
vn -0.9723901892951012 -0.22397515676397176 0.065516783461886
vn 0.9723901892951012 0.22397515676397176 -0.065516783461886
vn -0.9941755426375777 -0.10343824557753674 0.030257557289367142
vn 0.9941755426375777 0.10343824557753674 -0.030257557289367142
vn -0.9999995344429182 -0.0009261325191260953 0.0002709105089567485
vn 0.9999995344429182 0.0009261325191260953 -0.0002709105089567485
vn -0.9944968744551514 0.10055255451059786 -0.029413440470778335
vn 0.9944968744551514 -0.10055255451059786 0.029413440470778335
vn -0.9731562290186072 0.2208890649354639 -0.06461404579672202
vn 0.9731562290186072 -0.2208890649354639 0.06461404579672202
vn -0.9254333331361707 0.36367071143101826 -0.10638025929529676
vn 0.9254333331361707 -0.36367071143101826 0.10638025929529676
vn -0.83933775568327 0.5217462969161755 -0.1526202265062845
vn 0.83933775568327 -0.5217462969161755 0.1526202265062845
vn -0.7006541991046021 0.6848040354712888 -0.20031756358174466
vn 0.7006541991046021 -0.6848040354712888 0.20031756358174466
vn -0.49768450930880764 0.8324730301936287 -0.24351341481382294
vn 0.49768450930880764 -0.8324730301936287 0.24351341481382294
vn -0.24965130722460468 0.929389382882919 -0.27186320049898866
vn 0.24965130722460468 -0.929389382882919 0.27186320049898866
vn 0.0013419358141930923 0.9597791845130526 -0.28075276700992685
vn -0.0013419358141930923 -0.9597791845130526 0.28075276700992685
vn 0.2563352116397645 0.9277118268340779 -0.2713724850197138
vn -0.2563352116397645 -0.9277118268340779 0.2713724850197138
vn 0.5113966822126012 0.8247819650267685 -0.24126363917616392
vn -0.5113966822126012 -0.8247819650267685 0.24126363917616392
vn 0.7175632419665786 0.6684804263290128 -0.19554261273030718
vn -0.7175632419665786 -0.6684804263290128 0.19554261273030718
vn 0.8533525699464102 0.5003662036985056 -0.146366162627168
vn -0.8533525699464102 -0.5003662036985056 0.146366162627168
vn 0.9333002155294235 0.3446542060173047 -0.10081758758923341
vn -0.9333002155294235 -0.3446542060173047 0.10081758758923341
vn 0.9761552986920284 0.20834265618590384 -0.06094399436268965
vn -0.9761552986920284 -0.20834265618590384 0.06094399436268965
vn 0.9951266863916298 0.09463878078942417 -0.027683554719471412
vn -0.9951266863916298 -0.09463878078942417 0.027683554719471412
vn 0.9999977288248721 -0.002045557918887089 0.0005983626807847369
vn -0.9999977288248721 0.002045557918887089 -0.0005983626807847369
vn 0.9942886599764178 -0.10243178384797931 0.029963149033778433
vn -0.9942886599764178 0.10243178384797931 -0.029963149033778433
vn 0.9728511996713447 -0.2221233448532796 0.06497509499197765
vn -0.9728511996713447 0.2221233448532796 -0.06497509499197765
vn 0.9269691012670668 -0.3600496688886933 0.10532103887290951
vn -0.9269691012670668 0.3600496688886933 -0.10532103887290951
vn 0.8463513194620651 -0.5112028965671481 0.14953609124950176
vn -0.8463513194620651 0.5112028965671481 -0.14953609124950176
vn 0.7140675356798443 -0.671919764792383 0.19654868142387316
vn -0.7140675356798443 0.671919764792383 -0.19654868142387316
vn 0.5131126899659559 -0.8237996106708732 0.2409762827633013
vn -0.5131126899659559 0.8237996106708732 -0.2409762827633013
vn 0.25998773222881755 -0.926775055123587 0.271098462354896
vn -0.25998773222881755 0.926775055123587 -0.271098462354896
usemtl material_0_0
f 1//1 2//1 3//1
f 2//1 1//1 4//1
f 2//1 4//1 5//1
f 5//1 4//1 6//1
f 6//1 4//1 7//1
f 6//1 7//1 8//1
f 8//1 7//1 9//1
f 9//1 7//1 10//1
f 9//1 10//1 11//1
f 11//1 10//1 12//1
f 12//1 10//1 13//1
f 12//1 13//1 14//1
f 14//1 13//1 15//1
f 15//1 13//1 16//1
f 15//1 16//1 17//1
f 17//1 16//1 18//1
f 17//1 18//1 19//1
f 19//1 18//1 20//1
f 20//1 18//1 21//1
f 20//1 21//1 22//1
f 22//1 21//1 23//1
f 23//1 21//1 24//1
f 23//1 24//1 25//1
f 25//1 24//1 26//1
f 26//1 24//1 27//1
f 27//1 24//1 28//1
f 28//1 24//1 29//1
f 28//1 29//1 30//1
f 30//1 29//1 31//1
f 30//1 31//1 32//1
f 32//1 31//1 33//1
f 32//1 33//1 34//1
f 35//1 36//1 37//1
f 36//1 35//1 38//1
f 38//1 35//1 39//1
f 38//1 39//1 40//1
f 40//1 39//1 41//1
f 40//1 41//1 42//1
f 42//1 41//1 1//1
f 42//1 1//1 43//1
f 42//1 43//1 44//1
f 43//1 1//1 3//1
f 44//1 43//1 45//1
f 44//1 45//1 46//1
f 44//1 46//1 47//1
f 47//1 46//1 48//1
f 47//1 48//1 49//1
f 47//1 49//1 50//1
f 50//1 49//1 51//1
f 50//1 51//1 52//1
f 50//1 52//1 53//1
f 53//1 52//1 54//1
f 53//1 54//1 55//1
f 55//1 54//1 56//1
f 55//1 56//1 57//1
f 55//1 57//1 58//1
f 58//1 57//1 59//1
f 58//1 59//1 60//1
f 58//1 60//1 61//1
f 61//1 60//1 62//1
f 61//1 62//1 63//1
f 61//1 63//1 27//1
f 27//1 63//1 64//1
f 27//1 64//1 26//1
f 65//2 66//2 67//2
f 66//2 68//2 67//2
f 67//2 68//2 69//2
f 68//2 70//2 69//2
f 70//2 71//2 69//2
f 69//2 71//2 72//2
f 71//2 73//2 72//2
f 73//2 74//2 72//2
f 72//2 74//2 75//2
f 74//2 76//2 75//2
f 76//2 77//2 75//2
f 75//2 77//2 78//2
f 77//2 79//2 78//2
f 78//2 79//2 80//2
f 79//2 81//2 80//2
f 81//2 82//2 80//2
f 80//2 82//2 83//2
f 82//2 84//2 83//2
f 84//2 85//2 83//2
f 83//2 85//2 86//2
f 85//2 87//2 86//2
f 87//2 88//2 86//2
f 89//2 90//2 88//2
f 86//2 88//2 91//2
f 88//2 90//2 91//2
f 90//2 92//2 91//2
f 91//2 92//2 93//2
f 92//2 94//2 93//2
f 93//2 94//2 95//2
f 94//2 96//2 95//2
f 95//2 96//2 97//2
f 98//2 97//2 96//2
f 99//2 100//2 101//2
f 100//2 102//2 101//2
f 101//2 102//2 103//2
f 102//2 104//2 103//2
f 103//2 104//2 105//2
f 104//2 106//2 105//2
f 105//2 106//2 67//2
f 67//2 106//2 65//2
f 65//2 106//2 107//2
f 107//2 106//2 108//2
f 106//2 109//2 108//2
f 108//2 109//2 110//2
f 110//2 109//2 111//2
f 109//2 112//2 111//2
f 111//2 112//2 113//2
f 113//2 112//2 114//2
f 112//2 115//2 114//2
f 114//2 115//2 116//2
f 115//2 117//2 116//2
f 116//2 117//2 118//2
f 118//2 117//2 119//2
f 117//2 120//2 119//2
f 119//2 120//2 121//2
f 121//2 120//2 122//2
f 120//2 123//2 122//2
f 122//2 123//2 124//2
f 124//2 123//2 125//2
f 123//2 126//2 125//2
f 125//2 126//2 127//2
f 127//2 126//2 128//2
f 126//2 90//2 128//2
f 89//2 128//2 90//2
f 129//3 130//4 131//4
f 130//4 129//3 132//3
f 133//5 134//5 135//6
f 136//6 135//6 134//5
f 130//4 137//7 131//4
f 137//7 130//4 138//7
f 139//8 135//6 140//8
f 136//6 140//8 135//6
f 137//7 141//9 142//9
f 141//9 137//7 138//7
f 139//8 140//8 143//10
f 144//10 143//10 140//8
f 141//9 145//11 142//9
f 145//11 141//9 146//11
f 147//12 143//10 148//12
f 144//10 148//12 143//10
f 149//13 145//11 146//11
f 145//11 149//13 150//13
f 151//14 152//14 148//12
f 147//12 148//12 152//14
f 153//15 150//13 149//13
f 150//13 153//15 154//15
f 155//16 156//16 151//14
f 152//14 151//14 156//16
f 153//15 157//17 154//15
f 157//17 153//15 158//17
f 159//18 156//16 160//18
f 155//16 160//18 156//16
f 158//17 161//19 157//17
f 161//19 158//17 162//19
f 163//20 159//18 164//20
f 160//18 164//20 159//18
f 165//21 161//19 162//19
f 161//19 165//21 166//21
f 167//22 168//22 164//20
f 163//20 164//20 168//22
f 169//23 166//21 165//21
f 166//21 169//23 170//23
f 171//24 172//24 167//22
f 168//22 167//22 172//24
f 173//25 170//23 169//23
f 170//23 173//25 174//25
f 175//26 176//26 171//24
f 172//24 171//24 176//26
f 177//27 174//25 173//25
f 174//25 177//27 178//27
f 179//28 180//28 175//26
f 176//26 175//26 180//28
f 177//27 181//29 178//27
f 181//29 177//27 182//29
f 183//30 180//28 184//30
f 179//28 184//30 180//28
f 182//29 185//31 181//29
f 185//31 182//29 186//31
f 187//32 183//30 188//32
f 184//30 188//32 183//30
f 186//31 189//33 185//31
f 189//33 186//31 190//33
f 191//34 187//32 192//34
f 188//32 192//34 187//32
f 190//33 193//35 189//33
f 193//35 190//33 194//35
f 195//36 191//34 196//36
f 192//34 196//36 191//34
f 194//35 197//37 193//35
f 197//37 194//35 198//37
f 199//38 195//36 200//38
f 196//36 200//38 195//36
f 197//37 201//39 202//39
f 201//39 197//37 198//37
f 199//38 200//38 203//40
f 204//40 203//40 200//38
f 201//39 205//41 202//39
f 205//41 201//39 206//41
f 207//42 203//40 208//42
f 204//40 208//42 203//40
f 205//41 209//43 210//43
f 209//43 205//41 206//41
f 207//42 208//42 211//44
f 212//44 211//44 208//42
f 213//45 209//43 214//45
f 209//43 213//45 210//43
f 212//44 215//46 211//44
f 216//46 211//44 215//46
f 213//45 217//47 218//47
f 217//47 213//45 214//45
f 216//46 215//46 219//48
f 220//48 219//48 215//46
f 218//47 221//49 222//49
f 221//49 218//47 217//47
f 219//48 220//48 223//50
f 224//50 223//50 220//48
f 222//49 225//51 226//51
f 225//51 222//49 221//49
f 223//50 224//50 227//52
f 228//52 227//52 224//50
f 226//51 229//53 230//53
f 229//53 226//51 225//51
f 227//52 228//52 231//54
f 232//54 231//54 228//52
f 230//53 233//55 234//55
f 233//55 230//53 229//53
f 231//54 232//54 235//56
f 236//56 235//56 232//54
f 234//55 237//57 238//57
f 237//57 234//55 233//55
f 235//56 236//56 239//58
f 240//58 239//58 236//56
f 238//57 241//59 242//59
f 241//59 238//57 237//57
f 239//58 240//58 243//60
f 244//60 243//60 240//58
f 241//59 245//61 242//59
f 245//61 241//59 246//61
f 247//62 243//60 248//62
f 244//60 248//62 243//60
f 246//61 249//63 245//61
f 249//63 246//61 250//63
f 251//64 247//62 252//64
f 248//62 252//64 247//62
f 250//63 253//65 249//63
f 253//65 250//63 254//65
f 255//66 251//64 256//66
f 252//64 256//66 251//64
f 254//65 129//3 253//65
f 129//3 254//65 132//3
f 133//5 255//66 134//5
f 256//66 134//5 255//66
f 257//2 258//2 259//2
f 258//2 257//2 260//2
f 258//2 260//2 261//2
f 261//2 260//2 262//2
f 261//2 262//2 263//2
f 263//2 262//2 264//2
f 263//2 264//2 265//2
f 265//2 264//2 266//2
f 266//2 264//2 267//2
f 265//2 266//2 268//2
f 266//2 267//2 269//2
f 269//2 267//2 270//2
f 270//2 267//2 271//2
f 270//2 271//2 272//2
f 272//2 271//2 273//2
f 273//2 271//2 274//2
f 273//2 274//2 275//2
f 275//2 274//2 276//2
f 276//2 274//2 277//2
f 276//2 277//2 278//2
f 278//2 277//2 279//2
f 278//2 279//2 280//2
f 280//2 279//2 281//2
f 281//2 279//2 282//2
f 281//2 282//2 283//2
f 283//2 282//2 284//2
f 284//2 282//2 285//2
f 284//2 285//2 286//2
f 286//2 285//2 287//2
f 287//2 285//2 288//2
f 287//2 288//2 289//2
f 289//2 288//2 290//2
f 265//2 291//2 292//2
f 291//2 265//2 268//2
f 292//2 291//2 293//2
f 292//2 293//2 294//2
f 292//2 294//2 295//2
f 295//2 294//2 296//2
f 295//2 296//2 297//2
f 295//2 297//2 298//2
f 298//2 297//2 299//2
f 298//2 299//2 300//2
f 298//2 300//2 301//2
f 301//2 300//2 302//2
f 301//2 302//2 303//2
f 301//2 303//2 304//2
f 304//2 303//2 305//2
f 304//2 305//2 306//2
f 306//2 305//2 307//2
f 306//2 307//2 308//2
f 306//2 308//2 309//2
f 309//2 308//2 310//2
f 309//2 310//2 311//2
f 309//2 311//2 312//2
f 312//2 311//2 313//2
f 312//2 313//2 290//2
f 312//2 290//2 288//2
f 312//2 288//2 314//2
f 312//2 314//2 315//2
f 315//2 314//2 316//2
f 315//2 316//2 317//2
f 317//2 316//2 318//2
f 317//2 318//2 319//2
f 319//2 318//2 320//2
f 321//1 322//1 323//1
f 323//1 322//1 324//1
f 322//1 325//1 324//1
f 324//1 325//1 326//1
f 325//1 327//1 326//1
f 326//1 327//1 328//1
f 327//1 329//1 328//1
f 329//1 330//1 328//1
f 330//1 331//1 328//1
f 331//1 332//1 328//1
f 328//1 332//1 333//1
f 332//1 334//1 333//1
f 334//1 335//1 333//1
f 333//1 335//1 336//1
f 335//1 337//1 336//1
f 337//1 338//1 336//1
f 336//1 338//1 339//1
f 338//1 340//1 339//1
f 339//1 340//1 341//1
f 340//1 342//1 341//1
f 342//1 343//1 341//1
f 341//1 343//1 344//1
f 343//1 345//1 344//1
f 345//1 346//1 344//1
f 344//1 346//1 347//1
f 346//1 348//1 347//1
f 348//1 349//1 347//1
f 347//1 349//1 350//1
f 349//1 351//1 350//1
f 351//1 352//1 350//1
f 353//1 354//1 352//1
f 350//1 352//1 354//1
f 330//1 329//1 355//1
f 355//1 329//1 356//1
f 329//1 357//1 356//1
f 356//1 357//1 358//1
f 358//1 357//1 359//1
f 357//1 360//1 359//1
f 359//1 360//1 361//1
f 361//1 360//1 362//1
f 360//1 363//1 362//1
f 362//1 363//1 364//1
f 364//1 363//1 365//1
f 363//1 366//1 365//1
f 365//1 366//1 367//1
f 366//1 368//1 367//1
f 367//1 368//1 369//1
f 369//1 368//1 370//1
f 368//1 371//1 370//1
f 370//1 371//1 372//1
f 372//1 371//1 373//1
f 371//1 374//1 373//1
f 373//1 374//1 375//1
f 375//1 374//1 376//1
f 353//1 376//1 354//1
f 374//1 377//1 376//1
f 376//1 377//1 354//1
f 354//1 377//1 378//1
f 377//1 379//1 378//1
f 378//1 379//1 380//1
f 379//1 381//1 380//1
f 380//1 381//1 382//1
f 381//1 383//1 382//1
f 384//1 382//1 383//1
