# SSTK version 0.8.0
# 101
mtllib original-101.mtl
o #ID594
v 0.181534 0.531647 0.391638
v 0.181534 0.527092 0.392971
v 0.180236 0.529343 0.392312
v 0.189716 0.531647 0.391638
v 0.187854 0.527092 0.392971
v 0.189716 0.530303 0.392031
v 0.189716 0.530303 0.392031
v 0.189716 0.531647 0.391638
v 0.187854 0.527092 0.392971
v 0.181534 0.527092 0.392971
v 0.181534 0.531647 0.391638
v 0.180236 0.529343 0.392312
v 0.181534 0.533319 0.397354
v 0.189716 0.531647 0.391638
v 0.181534 0.531647 0.391638
v 0.189716 0.533319 0.397354
v 0.189716 0.533319 0.397354
v 0.181534 0.533319 0.397354
v 0.189716 0.531647 0.391638
v 0.181534 0.531647 0.391638
v 0.189716 0.531647 0.391638
v 0.189716 0.531975 0.397747
v 0.189716 0.530303 0.392031
v 0.189716 0.533319 0.397354
v 0.189716 0.533319 0.397354
v 0.189716 0.531647 0.391638
v 0.189716 0.531975 0.397747
v 0.189716 0.530303 0.392031
v 0.189716 0.531975 0.397747
v 0.187854 0.527092 0.392971
v 0.189716 0.530303 0.392031
v 0.187854 0.528764 0.398687
v 0.187854 0.528764 0.398687
v 0.189716 0.531975 0.397747
v 0.187854 0.527092 0.392971
v 0.189716 0.530303 0.392031
v 0.187854 0.528764 0.398687
v 0.181534 0.527092 0.392971
v 0.187854 0.527092 0.392971
v 0.181534 0.528764 0.398687
v 0.181534 0.528764 0.398687
v 0.187854 0.528764 0.398687
v 0.181534 0.527092 0.392971
v 0.187854 0.527092 0.392971
v 0.181534 0.528764 0.398687
v 0.180236 0.529343 0.392312
v 0.181534 0.527092 0.392971
v 0.180236 0.531015 0.398028
v 0.180236 0.531015 0.398028
v 0.181534 0.528764 0.398687
v 0.180236 0.529343 0.392312
v 0.181534 0.527092 0.392971
v 0.181534 0.533319 0.397354
v 0.180236 0.529343 0.392312
v 0.180236 0.531015 0.398028
v 0.181534 0.531647 0.391638
v 0.181534 0.531647 0.391638
v 0.181534 0.533319 0.397354
v 0.180236 0.529343 0.392312
v 0.180236 0.531015 0.398028
v 0.181534 0.528764 0.398687
v 0.181534 0.533319 0.397354
v 0.180236 0.531015 0.398028
v 0.187854 0.528764 0.398687
v 0.189716 0.533319 0.397354
v 0.189716 0.531975 0.397747
v 0.189716 0.531975 0.397747
v 0.187854 0.528764 0.398687
v 0.189716 0.533319 0.397354
v 0.181534 0.533319 0.397354
v 0.181534 0.528764 0.398687
v 0.180236 0.531015 0.398028
vn 0 -0.2807530017676192 -0.9597800539699037
vn 0 0.2807530017676192 0.9597800539699037
vn 0 0.9597800539699037 -0.2807530017676192
vn 0 -0.9597800539699037 0.2807530017676192
vn 1 0 0
vn -1 0 0
vn 0.8738320828699297 -0.46667176135251537 0.13650991943203614
vn -0.8738320828699297 0.46667176135251537 -0.13650991943203614
vn -0.8749367416114405 -0.46476123797465185 0.13595105683526085
vn 0.8749367416114405 0.46476123797465185 -0.13595105683526085
vn -0.8795928557871605 0.4565935172625608 -0.1335618509979216
vn 0.8795928557871605 -0.4565935172625608 0.1335618509979216
usemtl material_0_0
f 1//1 2//1 3//1
f 2//1 1//1 4//1
f 2//1 4//1 5//1
f 5//1 4//1 6//1
f 7//2 8//2 9//2
f 9//2 8//2 10//2
f 8//2 11//2 10//2
f 12//2 10//2 11//2
f 13//3 14//3 15//3
f 14//3 13//3 16//3
f 17//4 18//4 19//4
f 20//4 19//4 18//4
f 21//5 22//5 23//5
f 22//5 21//5 24//5
f 25//6 26//6 27//6
f 28//6 27//6 26//6
f 29//7 30//7 31//7
f 30//7 29//7 32//7
f 33//8 34//8 35//8
f 36//8 35//8 34//8
f 37//4 38//4 39//4
f 38//4 37//4 40//4
f 41//3 42//3 43//3
f 44//3 43//3 42//3
f 45//9 46//9 47//9
f 46//9 45//9 48//9
f 49//10 50//10 51//10
f 52//10 51//10 50//10
f 53//11 54//11 55//11
f 54//11 53//11 56//11
f 57//12 58//12 59//12
f 60//12 59//12 58//12
f 61//2 62//2 63//2
f 62//2 61//2 64//2
f 62//2 64//2 65//2
f 65//2 64//2 66//2
f 67//1 68//1 69//1
f 69//1 68//1 70//1
f 68//1 71//1 70//1
f 72//1 70//1 71//1
