# SSTK version 0.8.0
# 154
mtllib original-154.mtl
o #ID893
v 0.102053 0.470748 0.414303
v 0.101511 0.470645 0.413504
v 0.102053 0.470682 0.413501
v 0.101511 0.470712 0.414306
v 0.101511 0.470712 0.414306
v 0.102053 0.470748 0.414303
v 0.101511 0.470645 0.413504
v 0.102053 0.470682 0.413501
v 0.102595 0.470713 0.414306
v 0.102595 0.470647 0.413504
v 0.102595 0.470713 0.414306
v 0.102595 0.470647 0.413504
v 0.101030 0.470603 0.414315
v 0.101030 0.470537 0.413513
v 0.101030 0.470603 0.414315
v 0.101030 0.470537 0.413513
v 0.103070 0.470608 0.414315
v 0.103070 0.470541 0.413513
v 0.103070 0.470608 0.414315
v 0.103070 0.470541 0.413513
v 0.100607 0.470355 0.413528
v 0.100607 0.470422 0.414330
v 0.100607 0.470422 0.414330
v 0.100607 0.470355 0.413528
v 0.103479 0.470432 0.414329
v 0.103479 0.470366 0.413527
v 0.103479 0.470432 0.414329
v 0.103479 0.470366 0.413527
v 0.100245 0.470168 0.414351
v 0.100245 0.470102 0.413549
v 0.100245 0.470168 0.414351
v 0.100245 0.470102 0.413549
v 0.103821 0.470187 0.414349
v 0.103821 0.470120 0.413547
v 0.103821 0.470187 0.414349
v 0.103821 0.470120 0.413547
v 0.099954 0.469784 0.413575
v 0.099954 0.469850 0.414377
v 0.099954 0.469784 0.413575
v 0.099954 0.469850 0.414377
v 0.104092 0.469810 0.413573
v 0.104092 0.469876 0.414375
v 0.104092 0.469810 0.413573
v 0.104092 0.469876 0.414375
v 0.099746 0.469478 0.414408
v 0.099746 0.469411 0.413606
v 0.099746 0.469478 0.414408
v 0.099746 0.469411 0.413606
v 0.104285 0.469440 0.413604
v 0.104285 0.469507 0.414406
v 0.104285 0.469440 0.413604
v 0.104285 0.469507 0.414406
v 0.099621 0.469050 0.414444
v 0.099621 0.468984 0.413641
v 0.099621 0.469050 0.414444
v 0.099621 0.468984 0.413641
v 0.104401 0.469011 0.413639
v 0.104401 0.469078 0.414441
v 0.104401 0.469011 0.413639
v 0.104401 0.469078 0.414441
v 0.099580 0.468568 0.414483
v 0.099580 0.468501 0.413681
v 0.099580 0.468568 0.414483
v 0.099580 0.468501 0.413681
v 0.104440 0.468523 0.413680
v 0.104440 0.468589 0.414482
v 0.104440 0.468523 0.413680
v 0.104440 0.468589 0.414482
v 0.099622 0.468103 0.414522
v 0.099622 0.468036 0.413720
v 0.099622 0.468103 0.414522
v 0.099622 0.468036 0.413720
v 0.104401 0.468040 0.413720
v 0.104401 0.468106 0.414522
v 0.104401 0.468040 0.413720
v 0.104401 0.468106 0.414522
v 0.099748 0.467623 0.413754
v 0.099748 0.467689 0.414556
v 0.099748 0.467623 0.413754
v 0.099748 0.467689 0.414556
v 0.104285 0.467615 0.413755
v 0.104285 0.467681 0.414557
v 0.104285 0.467615 0.413755
v 0.104285 0.467681 0.414557
v 0.099958 0.467328 0.414586
v 0.099958 0.467262 0.413784
v 0.099958 0.467328 0.414586
v 0.099958 0.467262 0.413784
v 0.104092 0.467249 0.413785
v 0.104092 0.467315 0.414587
v 0.104092 0.467249 0.413785
v 0.104092 0.467315 0.414587
v 0.100252 0.467019 0.414612
v 0.100252 0.466953 0.413810
v 0.100252 0.467019 0.414612
v 0.100252 0.466953 0.413810
v 0.103821 0.466942 0.413810
v 0.103821 0.467008 0.414613
v 0.103821 0.466942 0.413810
v 0.103821 0.467008 0.414613
v 0.100617 0.466705 0.413830
v 0.100617 0.466771 0.414632
v 0.100617 0.466771 0.414632
v 0.100617 0.466705 0.413830
v 0.103479 0.466765 0.414633
v 0.103479 0.466699 0.413831
v 0.103479 0.466765 0.414633
v 0.103479 0.466699 0.413831
v 0.101039 0.466528 0.413845
v 0.101039 0.466594 0.414647
v 0.101039 0.466594 0.414647
v 0.101039 0.466528 0.413845
v 0.103070 0.466525 0.413845
v 0.103070 0.466591 0.414647
v 0.103070 0.466591 0.414647
v 0.103070 0.466525 0.413845
v 0.101517 0.466421 0.413854
v 0.101517 0.466488 0.414656
v 0.101517 0.466488 0.414656
v 0.101517 0.466421 0.413854
v 0.102595 0.466487 0.414656
v 0.102595 0.466421 0.413854
v 0.102595 0.466487 0.414656
v 0.102595 0.466421 0.413854
v 0.102053 0.466386 0.413856
v 0.102053 0.466452 0.414659
v 0.102053 0.466452 0.414659
v 0.102053 0.466386 0.413856
vn 0.0010987771174741088 -0.9965930789631449 0.08246834333006103
vn 0.14376461862618337 -0.9862409767313701 0.08161170410683252
vn -0.14376461862618337 0.9862409767313701 -0.08161170410683252
vn -0.0010987771174741088 0.9965930789631449 -0.08246834333006103
vn -0.14065144627065687 -0.9866867175204053 0.08164858927611807
vn 0.14065144627065687 0.9866867175204053 -0.08164858927611807
vn 0.30792263317249285 -0.9481705888186938 0.07846136934396455
vn -0.30792263317249285 0.9481705888186938 -0.07846136934396455
vn -0.30571507412107674 -0.9488798100974443 0.07852005759411158
vn 0.30571507412107674 0.9488798100974443 -0.07852005759411158
vn 0.4852908734003111 -0.871374446183268 0.07210646803974141
vn -0.4852908734003111 0.871374446183268 -0.07210646803974141
vn -0.4897662847623278 -0.8688839518681601 0.07190037897031545
vn 0.4897662847623278 0.8688839518681601 -0.07190037897031545
vn 0.6579312749946263 -0.750512751487065 0.062105130538953814
vn -0.6579312749946263 0.750512751487065 -0.062105130538953814
vn -0.6711621199483221 -0.7387854613604827 0.06113469415031625
vn 0.6711621199483221 0.7387854613604827 -0.06113469415031625
vn 0.8096563777465826 -0.5849050253030919 0.04840104698736045
vn -0.8096563777465826 0.5849050253030919 -0.04840104698736045
vn -0.8247368315214649 -0.5635903877588935 0.04663725504052138
vn 0.8247368315214649 0.5635903877588935 -0.04663725504052138
vn 0.9220655205807137 -0.3857154565140725 0.03191805699534674
vn -0.9220655205807137 0.3857154565140725 -0.03191805699534674
vn -0.931048389981728 -0.3636527809586916 0.03009236470338955
vn 0.931048389981728 0.3636527809586916 -0.03009236470338955
vn 0.9829128523987419 -0.1834445139128704 0.015180082497785657
vn -0.9829128523987419 0.1834445139128704 -0.015180082497785657
vn -0.9853270538215662 -0.17009549897739004 0.014075447948283613
vn 0.9853270538215662 0.17009549897739004 -0.014075447948283613
vn 0.9999978387388355 0.002071984570529059 -0.00017145727633865998
vn -0.9999978387388355 -0.002071984570529059 0.00017145727633865998
vn -0.9999999154243384 0.00040987914305035236 -0.00003391760850684895
vn 0.9999999154243384 -0.00040987914305035236 0.00003391760850684895
vn 0.9813489242142707 0.19158016990052237 -0.0158533102026208
vn -0.9813489242142707 -0.19158016990052237 0.0158533102026208
vn -0.9850313012494315 0.17178839919540462 -0.014215535893253107
vn 0.9850313012494315 -0.17178839919540462 0.014215535893253107
vn 0.916054867479572 0.3996868492868238 -0.03307419347703004
vn -0.916054867479572 -0.3996868492868238 0.03307419347703004
vn -0.9297984844661579 0.3668152252277022 -0.03035405781088161
vn 0.9297984844661579 -0.3668152252277022 0.03035405781088161
vn 0.7987863970824358 0.5995654450776617 -0.049614200637383706
vn -0.7987863970824358 -0.5995654450776617 0.049614200637383706
vn -0.8221571979712632 0.5673214387457598 -0.0469460005057086
vn 0.8221571979712632 -0.5673214387457598 0.0469460005057086
vn 0.6457208930258955 0.7609725498093401 -0.06297068164242133
vn -0.6457208930258955 -0.7609725498093401 0.06297068164242133
vn -0.6676564959178422 0.7419335770027534 -0.06139520156012045
vn 0.6676564959178422 -0.7419335770027534 0.06139520156012045
vn 0.47579893099235515 0.8765580364938226 -0.07253541152172704
vn -0.47579893099235515 -0.8765580364938226 0.07253541152172704
vn -0.48627997546704776 0.8708266063945465 -0.07206113415097597
vn 0.48627997546704776 -0.8708266063945465 0.07206113415097597
vn 0.3024457715838087 0.9499198037554085 -0.07860611734693997
vn -0.3024457715838087 -0.9499198037554085 0.07860611734693997
vn -0.30311821679271084 0.9497068992085699 -0.07858849943885308
vn 0.30311821679271084 -0.9497068992085699 0.07858849943885308
vn 0.14158894211751907 0.9865535357434259 -0.08163756844851941
vn -0.14158894211751907 -0.9865535357434259 0.08163756844851941
vn -0.13935201201148792 0.9868698242865104 -0.08166374140989457
vn 0.13935201201148792 -0.9868698242865104 0.08166374140989457
vn 0.000990873448358757 0.9965931913196581 -0.08246835262759247
vn -0.000990873448358757 -0.9965931913196581 0.08246835262759247
usemtl material_0_0
f 1//1 2//2 3//1
f 2//2 1//1 4//2
f 5//3 6//4 7//3
f 8//4 7//3 6//4
f 9//5 3//1 10//5
f 3//1 9//5 1//1
f 6//4 11//6 8//4
f 12//6 8//4 11//6
f 2//2 13//7 14//7
f 13//7 2//2 4//2
f 5//3 7//3 15//8
f 16//8 15//8 7//3
f 17//9 10//5 18//9
f 10//5 17//9 9//5
f 11//6 19//10 12//6
f 20//10 12//6 19//10
f 13//7 21//11 14//7
f 21//11 13//7 22//11
f 23//12 15//8 24//12
f 16//8 24//12 15//8
f 25//13 18//9 26//13
f 18//9 25//13 17//9
f 19//10 27//14 20//10
f 28//14 20//10 27//14
f 21//11 29//15 30//15
f 29//15 21//11 22//11
f 23//12 24//12 31//16
f 32//16 31//16 24//12
f 33//17 26//13 34//17
f 26//13 33//17 25//13
f 27//14 35//18 28//14
f 36//18 28//14 35//18
f 37//19 29//15 38//19
f 29//15 37//19 30//15
f 32//16 39//20 31//16
f 40//20 31//16 39//20
f 33//17 41//21 42//21
f 41//21 33//17 34//17
f 36//18 35//18 43//22
f 44//22 43//22 35//18
f 37//19 45//23 46//23
f 45//23 37//19 38//19
f 40//20 39//20 47//24
f 48//24 47//24 39//20
f 42//21 49//25 50//25
f 49//25 42//21 41//21
f 43//22 44//22 51//26
f 52//26 51//26 44//22
f 46//23 53//27 54//27
f 53//27 46//23 45//23
f 47//24 48//24 55//28
f 56//28 55//28 48//24
f 50//25 57//29 58//29
f 57//29 50//25 49//25
f 51//26 52//26 59//30
f 60//30 59//30 52//26
f 54//27 61//31 62//31
f 61//31 54//27 53//27
f 55//28 56//28 63//32
f 64//32 63//32 56//28
f 58//29 65//33 66//33
f 65//33 58//29 57//29
f 59//30 60//30 67//34
f 68//34 67//34 60//30
f 62//31 69//35 70//35
f 69//35 62//31 61//31
f 63//32 64//32 71//36
f 72//36 71//36 64//32
f 66//33 73//37 74//37
f 73//37 66//33 65//33
f 67//34 68//34 75//38
f 76//38 75//38 68//34
f 77//39 69//35 78//39
f 69//35 77//39 70//35
f 72//36 79//40 71//36
f 80//40 71//36 79//40
f 74//37 81//41 82//41
f 81//41 74//37 73//37
f 75//38 76//38 83//42
f 84//42 83//42 76//38
f 77//39 85//43 86//43
f 85//43 77//39 78//39
f 80//40 79//40 87//44
f 88//44 87//44 79//40
f 82//41 89//45 90//45
f 89//45 82//41 81//41
f 83//42 84//42 91//46
f 92//46 91//46 84//42
f 86//43 93//47 94//47
f 93//47 86//43 85//43
f 87//44 88//44 95//48
f 96//48 95//48 88//44
f 90//45 97//49 98//49
f 97//49 90//45 89//45
f 91//46 92//46 99//50
f 100//50 99//50 92//46
f 93//47 101//51 94//47
f 101//51 93//47 102//51
f 103//52 95//48 104//52
f 96//48 104//52 95//48
f 105//53 97//49 106//53
f 97//49 105//53 98//49
f 100//50 107//54 99//50
f 108//54 99//50 107//54
f 102//51 109//55 101//51
f 109//55 102//51 110//55
f 111//56 103//52 112//56
f 104//52 112//56 103//52
f 113//57 105//53 106//53
f 105//53 113//57 114//57
f 115//58 116//58 107//54
f 108//54 107//54 116//58
f 110//55 117//59 109//55
f 117//59 110//55 118//59
f 119//60 111//56 120//60
f 112//56 120//60 111//56
f 121//61 113//57 122//61
f 113//57 121//61 114//57
f 115//58 123//62 116//58
f 124//62 116//58 123//62
f 118//59 125//63 117//59
f 125//63 118//59 126//63
f 127//64 119//60 128//64
f 120//60 128//64 119//60
f 126//63 122//61 125//63
f 122//61 126//63 121//61
f 123//62 127//64 124//62
f 128//64 124//62 127//64
