# SSTK version 0.8.0
# 170
mtllib original-170.mtl
o #ID985
v 0.122342 0.442822 0.416614
v 0.122437 0.441780 0.415893
v 0.122437 0.441846 0.416695
v 0.122342 0.442755 0.415812
v 0.122342 0.442755 0.415812
v 0.122342 0.442822 0.416614
v 0.122437 0.441780 0.415893
v 0.122437 0.441846 0.416695
v 0.122337 0.440844 0.415970
v 0.122337 0.440911 0.416772
v 0.122337 0.440844 0.415970
v 0.122337 0.440911 0.416772
v 0.122226 0.443223 0.416581
v 0.122226 0.443156 0.415779
v 0.122226 0.443156 0.415779
v 0.122226 0.443223 0.416581
v 0.122056 0.440118 0.416030
v 0.122056 0.440184 0.416832
v 0.122056 0.440118 0.416030
v 0.122056 0.440184 0.416832
v 0.122069 0.443559 0.416553
v 0.122226 0.443156 0.415779
v 0.122226 0.443223 0.416581
v 0.122069 0.443492 0.415751
v 0.122069 0.443492 0.415751
v 0.122069 0.443559 0.416553
v 0.122226 0.443156 0.415779
v 0.122226 0.443223 0.416581
v 0.121857 0.439914 0.416855
v 0.121857 0.439848 0.416052
v 0.121857 0.439914 0.416855
v 0.121857 0.439848 0.416052
v 0.122069 0.443559 0.416553
v 0.121870 0.443761 0.415729
v 0.122069 0.443492 0.415751
v 0.121870 0.443827 0.416531
v 0.121870 0.443827 0.416531
v 0.122069 0.443559 0.416553
v 0.121870 0.443761 0.415729
v 0.122069 0.443492 0.415751
v 0.121621 0.439711 0.416871
v 0.121857 0.439848 0.416052
v 0.121621 0.439645 0.416069
v 0.121857 0.439914 0.416855
v 0.121857 0.439914 0.416855
v 0.121621 0.439711 0.416871
v 0.121857 0.439848 0.416052
v 0.121621 0.439645 0.416069
v 0.121870 0.443827 0.416531
v 0.121631 0.443958 0.415712
v 0.121870 0.443761 0.415729
v 0.121631 0.444025 0.416514
v 0.121631 0.444025 0.416514
v 0.121870 0.443827 0.416531
v 0.121631 0.443958 0.415712
v 0.121870 0.443761 0.415729
v 0.121352 0.439584 0.416882
v 0.121621 0.439645 0.416069
v 0.121352 0.439517 0.416080
v 0.121621 0.439711 0.416871
v 0.121621 0.439711 0.416871
v 0.121352 0.439584 0.416882
v 0.121621 0.439645 0.416069
v 0.121352 0.439517 0.416080
v 0.121631 0.444025 0.416514
v 0.121353 0.444080 0.415702
v 0.121631 0.443958 0.415712
v 0.121353 0.444147 0.416504
v 0.121353 0.444147 0.416504
v 0.121631 0.444025 0.416514
v 0.121353 0.444080 0.415702
v 0.121631 0.443958 0.415712
v 0.121055 0.439541 0.416885
v 0.121352 0.439517 0.416080
v 0.121055 0.439475 0.416083
v 0.121352 0.439584 0.416882
v 0.121352 0.439584 0.416882
v 0.121055 0.439541 0.416885
v 0.121352 0.439517 0.416080
v 0.121055 0.439475 0.416083
v 0.121353 0.444147 0.416504
v 0.121040 0.444121 0.415699
v 0.121353 0.444080 0.415702
v 0.121040 0.444187 0.416501
v 0.121040 0.444187 0.416501
v 0.121353 0.444147 0.416504
v 0.121040 0.444121 0.415699
v 0.121353 0.444080 0.415702
v 0.120749 0.439591 0.416881
v 0.121055 0.439475 0.416083
v 0.120749 0.439525 0.416079
v 0.121055 0.439541 0.416885
v 0.121055 0.439541 0.416885
v 0.120749 0.439591 0.416881
v 0.121055 0.439475 0.416083
v 0.120749 0.439525 0.416079
v 0.120746 0.444079 0.415702
v 0.120746 0.444146 0.416504
v 0.120746 0.444146 0.416504
v 0.120746 0.444079 0.415702
v 0.120472 0.439740 0.416869
v 0.120749 0.439525 0.416079
v 0.120472 0.439674 0.416067
v 0.120749 0.439591 0.416881
v 0.120749 0.439591 0.416881
v 0.120472 0.439740 0.416869
v 0.120749 0.439525 0.416079
v 0.120472 0.439674 0.416067
v 0.120746 0.444146 0.416504
v 0.120474 0.443955 0.415713
v 0.120746 0.444079 0.415702
v 0.120474 0.444021 0.416515
v 0.120474 0.444021 0.416515
v 0.120746 0.444146 0.416504
v 0.120474 0.443955 0.415713
v 0.120746 0.444079 0.415702
v 0.120227 0.439976 0.416849
v 0.120472 0.439674 0.416067
v 0.120227 0.439909 0.416047
v 0.120472 0.439740 0.416869
v 0.120472 0.439740 0.416869
v 0.120227 0.439976 0.416849
v 0.120472 0.439674 0.416067
v 0.120227 0.439909 0.416047
v 0.120024 0.443503 0.415750
v 0.120024 0.443570 0.416552
v 0.120024 0.443570 0.416552
v 0.120024 0.443503 0.415750
v 0.120019 0.440219 0.416022
v 0.120227 0.439976 0.416849
v 0.120227 0.439909 0.416047
v 0.120019 0.440286 0.416824
v 0.120019 0.440286 0.416824
v 0.120019 0.440219 0.416022
v 0.120227 0.439976 0.416849
v 0.120227 0.439909 0.416047
v 0.119726 0.442905 0.416607
v 0.119726 0.442838 0.415805
v 0.119726 0.442905 0.416607
v 0.119726 0.442838 0.415805
v 0.119850 0.440596 0.415991
v 0.119850 0.440662 0.416793
v 0.119850 0.440662 0.416793
v 0.119850 0.440596 0.415991
v 0.119618 0.442099 0.416674
v 0.119618 0.442033 0.415872
v 0.119618 0.442099 0.416674
v 0.119618 0.442033 0.415872
v 0.119723 0.441032 0.415954
v 0.119723 0.441098 0.416757
v 0.119723 0.441098 0.416757
v 0.119723 0.441032 0.415954
vn -0.982584195418424 -0.1851849634730128 0.015324105762732826
vn -0.9999892856296946 0.00461333815683171 -0.0003817549789610593
vn 0.982584195418424 0.1851849634730128 -0.015324105762732826
vn 0.9999892856296946 -0.00461333815683171 0.0003817549789610593
vn -0.9730148234592232 0.22995662962024463 -0.019028973233324944
vn 0.9730148234592232 -0.22995662962024463 0.019028973233324944
vn -0.9610119959102678 -0.2755648091847928 0.022803062415218435
vn 0.9610119959102678 0.2755648091847928 -0.022803062415218435
vn -0.8804750489304612 0.4724775785029809 -0.03909764728038911
vn 0.8804750489304612 -0.4724775785029809 0.03909764728038911
vn -0.906439543565776 -0.42089698382825963 0.03482933913443491
vn 0.906439543565776 0.42089698382825963 -0.03482933913443491
vn -0.805987468667086 0.5899162861408866 -0.04881573206832706
vn 0.805987468667086 -0.5899162861408866 0.04881573206832706
vn -0.8049799225246074 -0.5912810750477736 0.04892866871912581
vn 0.8049799225246074 0.5912810750477736 -0.04892866871912581
vn -0.6529057281767492 0.7548590991523951 -0.062464794411120204
vn 0.6529057281767492 -0.7548590991523951 0.062464794411120204
vn -0.637780356798544 -0.7675946817072563 0.06351866730857683
vn 0.637780356798544 0.7675946817072563 -0.06351866730857683
vn -0.4289512687684734 0.9002506083445897 -0.07449598108027557
vn 0.4289512687684734 -0.9002506083445897 0.07449598108027557
vn -0.40297962865084397 -0.9120914539426972 0.07547581425281082
vn 0.40297962865084397 0.9120914539426972 -0.07547581425281082
vn -0.14213457106920496 0.9864756071289034 -0.0816311230269104
vn 0.14213457106920496 -0.9864756071289034 0.0816311230269104
vn -0.12923997371862814 -0.9882355945394098 0.08177676246066284
vn 0.00565019642741216 -0.9965777721837229 0.08246707991471244
vn -0.00565019642741216 0.9965777721837229 -0.08246707991471244
vn 0.12923997371862814 0.9882355945394098 -0.08177676246066284
vn 0.16076078176858657 0.9836313846333498 -0.08139576284691953
vn -0.16076078176858657 -0.9836313846333498 0.08139576284691953
vn 0.1403308189781644 -0.9867320588118065 0.08165234447296162
vn -0.1403308189781644 0.9867320588118065 -0.08165234447296162
vn 0.4747241332941964 0.8771366272479806 -0.07258329289933765
vn -0.4747241332941964 -0.8771366272479806 0.07258329289933765
vn 0.4182579530457581 -0.905234234711103 0.07490837750863635
vn 0.580460213390476 -0.8115148828448282 0.06715307581956124
vn -0.580460213390476 0.8115148828448282 -0.06715307581956124
vn -0.4182579530457581 0.905234234711103 -0.07490837750863635
vn 0.6950212560347724 0.7165400817940526 -0.059293885371257384
vn -0.6950212560347724 -0.7165400817940526 0.059293885371257384
vn 0.8314689906505162 -0.5536787103865685 0.04581706288358441
vn -0.8314689906505162 0.5536787103865685 -0.04581706288358441
vn 0.876210042181782 0.4802878103079297 -0.03974394607250421
vn 0.8306138434830103 0.5549520459257226 -0.045922431743493385
vn -0.876210042181782 -0.4802878103079297 0.03974394607250421
vn -0.8306138434830103 -0.5549520459257226 0.045922431743493385
vn 0.9635521762643896 -0.26660921300655493 0.022061984411746335
vn -0.9635521762643896 0.26660921300655493 -0.022061984411746335
vn 0.9396177481307607 0.34106005380701876 -0.02822281160394409
vn -0.9396177481307607 -0.34106005380701876 0.02822281160394409
vn 0.9999045772559872 -0.01376729811339657 0.0011392476386859077
vn -0.9999045772559872 0.01376729811339657 -0.0011392476386859077
vn 0.981776852942449 0.1893900656396837 -0.015672079103206296
vn -0.981776852942449 -0.1893900656396837 0.015672079103206296
usemtl material_0_0
f 1//1 2//2 3//2
f 2//2 1//1 4//1
f 5//3 6//3 7//4
f 8//4 7//4 6//3
f 3//2 9//5 10//5
f 9//5 3//2 2//2
f 7//4 8//4 11//6
f 12//6 11//6 8//4
f 13//7 4//1 1//1
f 4//1 13//7 14//7
f 15//8 16//8 5//3
f 6//3 5//3 16//8
f 10//5 17//9 18//9
f 17//9 10//5 9//5
f 11//6 12//6 19//10
f 20//10 19//10 12//6
f 21//11 22//11 23//11
f 22//11 21//11 24//11
f 25//12 26//12 27//12
f 28//12 27//12 26//12
f 29//13 17//9 30//13
f 17//9 29//13 18//9
f 20//10 31//14 19//10
f 32//14 19//10 31//14
f 33//15 34//15 35//15
f 34//15 33//15 36//15
f 37//16 38//16 39//16
f 40//16 39//16 38//16
f 41//17 42//17 43//17
f 42//17 41//17 44//17
f 45//18 46//18 47//18
f 48//18 47//18 46//18
f 49//19 50//19 51//19
f 50//19 49//19 52//19
f 53//20 54//20 55//20
f 56//20 55//20 54//20
f 57//21 58//21 59//21
f 58//21 57//21 60//21
f 61//22 62//22 63//22
f 64//22 63//22 62//22
f 65//23 66//23 67//23
f 66//23 65//23 68//23
f 69//24 70//24 71//24
f 72//24 71//24 70//24
f 73//25 74//25 75//25
f 74//25 73//25 76//25
f 77//26 78//26 79//26
f 80//26 79//26 78//26
f 81//27 82//28 83//27
f 82//28 81//27 84//28
f 85//29 86//30 87//29
f 88//30 87//29 86//30
f 89//31 90//31 91//31
f 90//31 89//31 92//31
f 93//32 94//32 95//32
f 96//32 95//32 94//32
f 84//28 97//33 82//28
f 97//33 84//28 98//33
f 99//34 85//29 100//34
f 87//29 100//34 85//29
f 101//35 102//35 103//35
f 102//35 101//35 104//35
f 105//36 106//36 107//36
f 108//36 107//36 106//36
f 109//37 110//38 111//37
f 110//38 109//37 112//38
f 113//39 114//40 115//39
f 116//40 115//39 114//40
f 117//41 118//41 119//41
f 118//41 117//41 120//41
f 121//42 122//42 123//42
f 124//42 123//42 122//42
f 112//38 125//43 110//38
f 125//43 112//38 126//43
f 127//44 113//39 128//44
f 115//39 128//44 113//39
f 129//45 130//46 131//46
f 130//46 129//45 132//45
f 133//47 134//47 135//48
f 136//48 135//48 134//47
f 125//43 137//49 138//49
f 137//49 125//43 126//43
f 127//44 128//44 139//50
f 140//50 139//50 128//44
f 141//51 132//45 129//45
f 132//45 141//51 142//51
f 143//52 144//52 133//47
f 134//47 133//47 144//52
f 138//49 145//53 146//53
f 145//53 138//49 137//49
f 139//50 140//50 147//54
f 148//54 147//54 140//50
f 149//55 142//51 141//51
f 142//51 149//55 150//55
f 151//56 152//56 143//52
f 144//52 143//52 152//56
f 146//53 150//55 149//55
f 150//55 146//53 145//53
f 147//54 148//54 151//56
f 152//56 151//56 148//54
