# SSTK version 0.8.0
# 209
mtllib original-209.mtl
o #ID1203
v -0.111680 0.404063 0.419014
v -0.109814 0.396225 0.419662
v -0.113238 0.404063 0.419014
v -0.109309 0.398019 0.419514
v -0.109586 0.393885 0.419856
v -0.108993 0.394952 0.419768
v -0.109130 0.397421 0.419563
v -0.109078 0.397421 0.419563
v -0.108907 0.398004 0.419515
v -0.104962 0.404063 0.419014
v -0.106417 0.404063 0.419014
v -0.112108 0.393602 0.419879
v -0.112938 0.392612 0.419961
v -0.112938 0.393740 0.419868
v -0.112022 0.392513 0.419969
v -0.111611 0.393673 0.419873
v -0.111101 0.392665 0.419957
v -0.111179 0.393886 0.419856
v -0.110815 0.394240 0.419827
v -0.110289 0.393123 0.419919
v -0.110516 0.394737 0.419785
v -0.109586 0.393885 0.419856
v -0.109814 0.396225 0.419662
v -0.110289 0.393123 0.419919
v -0.110516 0.394737 0.419785
v -0.110815 0.394240 0.419827
v -0.111101 0.392665 0.419957
v -0.111179 0.393886 0.419856
v -0.111611 0.393673 0.419873
v -0.112022 0.392513 0.419969
v -0.112108 0.393602 0.419879
v -0.112938 0.392612 0.419961
v -0.112938 0.393740 0.419868
v -0.106417 0.404063 0.419014
v -0.108907 0.398004 0.419515
v -0.104962 0.404063 0.419014
v -0.108993 0.394952 0.419768
v -0.109078 0.397421 0.419563
v -0.109130 0.397421 0.419563
v -0.109309 0.398019 0.419514
v -0.111680 0.404063 0.419014
v -0.113238 0.404063 0.419014
v -0.104962 0.404063 0.419014
v -0.108993 0.395018 0.420570
v -0.108993 0.394952 0.419768
v -0.104962 0.404129 0.419816
v -0.104962 0.404129 0.419816
v -0.104962 0.404063 0.419014
v -0.108993 0.395018 0.420570
v -0.108993 0.394952 0.419768
v -0.109586 0.393951 0.420658
v -0.109586 0.393885 0.419856
v -0.109586 0.393951 0.420658
v -0.109586 0.393885 0.419856
v -0.110289 0.393189 0.420721
v -0.110289 0.393123 0.419919
v -0.110289 0.393189 0.420721
v -0.110289 0.393123 0.419919
v -0.111101 0.392665 0.419957
v -0.111101 0.392732 0.420759
v -0.111101 0.392732 0.420759
v -0.111101 0.392665 0.419957
v -0.112022 0.392513 0.419969
v -0.112022 0.392579 0.420772
v -0.112022 0.392579 0.420772
v -0.112022 0.392513 0.419969
v -0.112938 0.392612 0.419961
v -0.112938 0.392679 0.420763
v -0.112938 0.392679 0.420763
v -0.112938 0.392612 0.419961
v -0.112938 0.393806 0.420670
v -0.112938 0.392612 0.419961
v -0.112938 0.392679 0.420763
v -0.112938 0.393740 0.419868
v -0.112938 0.393740 0.419868
v -0.112938 0.393806 0.420670
v -0.112938 0.392612 0.419961
v -0.112938 0.392679 0.420763
v -0.112938 0.393806 0.420670
v -0.112108 0.393602 0.419879
v -0.112938 0.393740 0.419868
v -0.112108 0.393668 0.420681
v -0.112108 0.393668 0.420681
v -0.112938 0.393806 0.420670
v -0.112108 0.393602 0.419879
v -0.112938 0.393740 0.419868
v -0.111611 0.393673 0.419873
v -0.111611 0.393739 0.420676
v -0.111611 0.393739 0.420676
v -0.111611 0.393673 0.419873
v -0.111611 0.393739 0.420676
v -0.111179 0.393886 0.419856
v -0.111611 0.393673 0.419873
v -0.111179 0.393952 0.420658
v -0.111179 0.393952 0.420658
v -0.111611 0.393739 0.420676
v -0.111179 0.393886 0.419856
v -0.111611 0.393673 0.419873
v -0.110815 0.394307 0.420629
v -0.111179 0.393886 0.419856
v -0.111179 0.393952 0.420658
v -0.110815 0.394240 0.419827
v -0.110815 0.394240 0.419827
v -0.110815 0.394307 0.420629
v -0.111179 0.393886 0.419856
v -0.111179 0.393952 0.420658
v -0.110516 0.394803 0.420588
v -0.110516 0.394737 0.419785
v -0.110516 0.394737 0.419785
v -0.110516 0.394803 0.420588
v -0.109814 0.396291 0.420464
v -0.109814 0.396225 0.419662
v -0.109814 0.396225 0.419662
v -0.109814 0.396291 0.420464
v -0.113238 0.404129 0.419816
v -0.109814 0.396225 0.419662
v -0.109814 0.396291 0.420464
v -0.113238 0.404063 0.419014
v -0.113238 0.404063 0.419014
v -0.113238 0.404129 0.419816
v -0.109814 0.396225 0.419662
v -0.109814 0.396291 0.420464
v -0.113238 0.404129 0.419816
v -0.111680 0.404063 0.419014
v -0.113238 0.404063 0.419014
v -0.111680 0.404129 0.419816
v -0.111680 0.404129 0.419816
v -0.113238 0.404129 0.419816
v -0.111680 0.404063 0.419014
v -0.113238 0.404063 0.419014
v -0.111680 0.404063 0.419014
v -0.109309 0.398086 0.420316
v -0.109309 0.398019 0.419514
v -0.111680 0.404129 0.419816
v -0.111680 0.404129 0.419816
v -0.111680 0.404063 0.419014
v -0.109309 0.398086 0.420316
v -0.109309 0.398019 0.419514
v -0.109130 0.397488 0.420365
v -0.109130 0.397421 0.419563
v -0.109130 0.397488 0.420365
v -0.109130 0.397421 0.419563
v -0.109130 0.397488 0.420365
v -0.109078 0.397421 0.419563
v -0.109130 0.397421 0.419563
v -0.109078 0.397488 0.420365
v -0.109078 0.397488 0.420365
v -0.109130 0.397488 0.420365
v -0.109078 0.397421 0.419563
v -0.109130 0.397421 0.419563
v -0.108907 0.398070 0.420317
v -0.109078 0.397421 0.419563
v -0.109078 0.397488 0.420365
v -0.108907 0.398004 0.419515
v -0.108907 0.398004 0.419515
v -0.108907 0.398070 0.420317
v -0.109078 0.397421 0.419563
v -0.109078 0.397488 0.420365
v -0.106417 0.404129 0.419816
v -0.106417 0.404063 0.419014
v -0.106417 0.404063 0.419014
v -0.106417 0.404129 0.419816
v -0.106417 0.404129 0.419816
v -0.104962 0.404063 0.419014
v -0.106417 0.404063 0.419014
v -0.104962 0.404129 0.419816
v -0.104962 0.404129 0.419816
v -0.106417 0.404129 0.419816
v -0.104962 0.404063 0.419014
v -0.106417 0.404063 0.419014
v -0.112022 0.392579 0.420772
v -0.112938 0.393806 0.420670
v -0.112938 0.392679 0.420763
v -0.112108 0.393668 0.420681
v -0.111611 0.393739 0.420676
v -0.111101 0.392732 0.420759
v -0.111179 0.393952 0.420658
v -0.110815 0.394307 0.420629
v -0.110289 0.393189 0.420721
v -0.110516 0.394803 0.420588
v -0.109814 0.396291 0.420464
v -0.109586 0.393951 0.420658
v -0.111680 0.404129 0.419816
v -0.113238 0.404129 0.419816
v -0.109309 0.398086 0.420316
v -0.108993 0.395018 0.420570
v -0.109130 0.397488 0.420365
v -0.109078 0.397488 0.420365
v -0.108907 0.398070 0.420317
v -0.104962 0.404129 0.419816
v -0.106417 0.404129 0.419816
v -0.106417 0.404129 0.419816
v -0.104962 0.404129 0.419816
v -0.108907 0.398070 0.420317
v -0.108993 0.395018 0.420570
v -0.109078 0.397488 0.420365
v -0.109130 0.397488 0.420365
v -0.109309 0.398086 0.420316
v -0.109586 0.393951 0.420658
v -0.109814 0.396291 0.420464
v -0.111680 0.404129 0.419816
v -0.113238 0.404129 0.419816
v -0.110289 0.393189 0.420721
v -0.110516 0.394803 0.420588
v -0.110815 0.394307 0.420629
v -0.111101 0.392732 0.420759
v -0.111179 0.393952 0.420658
v -0.111611 0.393739 0.420676
v -0.112022 0.392579 0.420772
v -0.112108 0.393668 0.420681
v -0.112938 0.393806 0.420670
v -0.112938 0.392679 0.420763
vn 0 -0.08246840134308064 -0.9965936798815838
vn 0 0.08246840134308064 0.9965936798815838
vn 0.9150049802755907 -0.40206828925138804 0.033271261613107145
vn 0.8956203721343888 -0.44330403514503247 0.036683530936792226
vn -0.9150049802755907 0.40206828925138804 -0.033271261613107145
vn -0.8956203721343888 0.44330403514503247 -0.036683530936792226
vn 0.8102856091427462 -0.5840389560818565 0.04832938438449198
vn -0.8102856091427462 0.5840389560818565 -0.04832938438449198
vn 0.6197179838993901 -0.7821512156465801 0.06472322839794135
vn -0.6197179838993901 0.7821512156465801 -0.06472322839794135
vn 0.3309141305194472 -0.9404464593385832 0.07782220338747169
vn -0.3309141305194472 0.9404464593385832 -0.07782220338747169
vn 0.02774182251833114 -0.9962101124766827 0.08243666103474027
vn -0.02774182251833114 0.9962101124766827 -0.08243666103474027
vn -0.10859991520439474 -0.9906993652128725 0.08198064518171361
vn 0.10859991520439474 0.9906993652128725 -0.08198064518171361
vn -1 0 0
vn 1 0 0
vn 0.16458260467484895 0.983003434207413 -0.08134380477254877
vn 0.011537928371276915 0.9965273425093133 -0.08246291190726454
vn -0.011537928371276915 -0.9965273425093133 0.08246291190726454
vn -0.16458260467484895 -0.983003434207413 0.08134380477254877
vn -0.14165227057462212 0.9865445060007844 -0.081636829438203
vn 0.14165227057462212 -0.9865445060007844 0.081636829438203
vn -0.4438623241430169 0.8930426070014266 -0.07389952155768799
vn 0.4438623241430169 -0.8930426070014266 0.07389952155768799
vn -0.7835917912486459 0.6191597643464928 -0.05123564093611446
vn -0.6983382688999227 0.713329748359464 -0.0590282330354101
vn 0.7835917912486459 -0.6191597643464928 0.05123564093611446
vn 0.6983382688999227 -0.713329748359464 0.0590282330354101
vn -0.882444997557897 0.46881320282071365 -0.03879442158387718
vn 0.882444997557897 -0.46881320282071365 0.03879442158387718
vn -0.904998070888145 0.4239665673502172 -0.03508335015373607
vn 0.904998070888145 -0.4239665673502172 0.03508335015373607
vn -0.9169051827638773 -0.39774562647963474 0.03291356007884281
vn 0.9169051827638773 0.39774562647963474 -0.03291356007884281
vn 0 0.9965936798815838 -0.08246840134308064
vn 0 -0.9965936798815838 0.08246840134308064
vn 0.9313586892129984 0.36286274509291205 -0.030026992041861943
vn 0.9454260029736381 0.3247269760956799 -0.026871246659687285
vn -0.9313586892129984 -0.36286274509291205 0.030026992041861943
vn -0.9454260029736381 -0.3247269760956799 0.026871246659687285
vn 0.9579795050980884 0.28585959954729473 -0.02365496055126471
vn -0.9579795050980884 -0.28585959954729473 0.02365496055126471
vn -0.943776226147125 0.3294589107122177 -0.027262815551768023
vn -0.9597421585180026 0.27992574266299325 -0.02316393226067282
vn 0.943776226147125 -0.3294589107122177 0.027262815551768023
vn 0.9597421585180026 -0.27992574266299325 0.02316393226067282
vn -0.9253635122830262 0.37778968351096853 -0.03126220030490254
vn 0.9253635122830262 -0.37778968351096853 0.03126220030490254
usemtl material_0_0
f 1//1 2//1 3//1
f 2//1 1//1 4//1
f 2//1 4//1 5//1
f 5//1 4//1 6//1
f 6//1 4//1 7//1
f 6//1 7//1 8//1
f 6//1 8//1 9//1
f 6//1 9//1 10//1
f 10//1 9//1 11//1
f 12//1 13//1 14//1
f 13//1 12//1 15//1
f 15//1 12//1 16//1
f 15//1 16//1 17//1
f 17//1 16//1 18//1
f 17//1 18//1 19//1
f 17//1 19//1 20//1
f 20//1 19//1 21//1
f 20//1 21//1 2//1
f 20//1 2//1 5//1
f 22//2 23//2 24//2
f 23//2 25//2 24//2
f 25//2 26//2 24//2
f 24//2 26//2 27//2
f 26//2 28//2 27//2
f 28//2 29//2 27//2
f 27//2 29//2 30//2
f 29//2 31//2 30//2
f 30//2 31//2 32//2
f 33//2 32//2 31//2
f 34//2 35//2 36//2
f 36//2 35//2 37//2
f 35//2 38//2 37//2
f 38//2 39//2 37//2
f 39//2 40//2 37//2
f 37//2 40//2 22//2
f 22//2 40//2 23//2
f 40//2 41//2 23//2
f 42//2 23//2 41//2
f 43//3 44//4 45//4
f 44//4 43//3 46//3
f 47//5 48//5 49//6
f 50//6 49//6 48//5
f 45//4 51//7 52//7
f 51//7 45//4 44//4
f 49//6 50//6 53//8
f 54//8 53//8 50//6
f 52//7 55//9 56//9
f 55//9 52//7 51//7
f 53//8 54//8 57//10
f 58//10 57//10 54//8
f 55//9 59//11 56//9
f 59//11 55//9 60//11
f 61//12 57//10 62//12
f 58//10 62//12 57//10
f 60//11 63//13 59//11
f 63//13 60//11 64//13
f 65//14 61//12 66//14
f 62//12 66//14 61//12
f 64//13 67//15 63//13
f 67//15 64//13 68//15
f 69//16 65//14 70//16
f 66//14 70//16 65//14
f 71//17 72//17 73//17
f 72//17 71//17 74//17
f 75//18 76//18 77//18
f 78//18 77//18 76//18
f 79//19 80//20 81//19
f 80//20 79//19 82//20
f 83//21 84//22 85//21
f 86//22 85//21 84//22
f 82//20 87//23 80//20
f 87//23 82//20 88//23
f 89//24 83//21 90//24
f 85//21 90//24 83//21
f 91//25 92//25 93//25
f 92//25 91//25 94//25
f 95//26 96//26 97//26
f 98//26 97//26 96//26
f 99//27 100//28 101//28
f 100//28 99//27 102//27
f 103//29 104//29 105//30
f 106//30 105//30 104//29
f 107//31 102//27 99//27
f 102//27 107//31 108//31
f 109//32 110//32 103//29
f 104//29 103//29 110//32
f 111//33 108//31 107//31
f 108//31 111//33 112//33
f 113//34 114//34 109//32
f 110//32 109//32 114//34
f 115//35 116//35 117//35
f 116//35 115//35 118//35
f 119//36 120//36 121//36
f 122//36 121//36 120//36
f 123//37 124//37 125//37
f 124//37 123//37 126//37
f 127//38 128//38 129//38
f 130//38 129//38 128//38
f 131//39 132//40 133//40
f 132//40 131//39 134//39
f 135//41 136//41 137//42
f 138//42 137//42 136//41
f 133//40 139//43 140//43
f 139//43 133//40 132//40
f 137//42 138//42 141//44
f 142//44 141//44 138//42
f 143//37 144//37 145//37
f 144//37 143//37 146//37
f 147//38 148//38 149//38
f 150//38 149//38 148//38
f 151//45 152//46 153//46
f 152//46 151//45 154//45
f 155//47 156//47 157//48
f 158//48 157//48 156//47
f 159//49 154//45 151//45
f 154//45 159//49 160//49
f 161//50 162//50 155//47
f 156//47 155//47 162//50
f 163//37 164//37 165//37
f 164//37 163//37 166//37
f 167//38 168//38 169//38
f 170//38 169//38 168//38
f 171//2 172//2 173//2
f 172//2 171//2 174//2
f 174//2 171//2 175//2
f 175//2 171//2 176//2
f 175//2 176//2 177//2
f 177//2 176//2 178//2
f 178//2 176//2 179//2
f 178//2 179//2 180//2
f 180//2 179//2 181//2
f 181//2 179//2 182//2
f 181//2 183//2 184//2
f 183//2 181//2 185//2
f 185//2 181//2 182//2
f 185//2 182//2 186//2
f 185//2 186//2 187//2
f 187//2 186//2 188//2
f 188//2 186//2 189//2
f 189//2 186//2 190//2
f 189//2 190//2 191//2
f 192//1 193//1 194//1
f 193//1 195//1 194//1
f 194//1 195//1 196//1
f 196//1 195//1 197//1
f 197//1 195//1 198//1
f 195//1 199//1 198//1
f 199//1 200//1 198//1
f 198//1 200//1 201//1
f 202//1 201//1 200//1
f 199//1 203//1 200//1
f 200//1 203//1 204//1
f 204//1 203//1 205//1
f 203//1 206//1 205//1
f 205//1 206//1 207//1
f 207//1 206//1 208//1
f 206//1 209//1 208//1
f 208//1 209//1 210//1
f 210//1 209//1 211//1
f 212//1 211//1 209//1
