# SSTK version 0.8.0
# 238
mtllib original-238.mtl
o #ID1369
v -0.125671 0.424372 0.417333
v -0.126753 0.417275 0.417920
v -0.126753 0.424372 0.417333
v -0.125671 0.417275 0.417920
v -0.125671 0.417275 0.417920
v -0.125671 0.424372 0.417333
v -0.126753 0.417275 0.417920
v -0.126753 0.424372 0.417333
v -0.125671 0.417341 0.418722
v -0.126753 0.417275 0.417920
v -0.125671 0.417275 0.417920
v -0.126753 0.417341 0.418722
v -0.126753 0.417341 0.418722
v -0.125671 0.417341 0.418722
v -0.126753 0.417275 0.417920
v -0.125671 0.417275 0.417920
v -0.126753 0.424438 0.418135
v -0.126753 0.417275 0.417920
v -0.126753 0.417341 0.418722
v -0.126753 0.424372 0.417333
v -0.126753 0.424372 0.417333
v -0.126753 0.424438 0.418135
v -0.126753 0.417275 0.417920
v -0.126753 0.417341 0.418722
v -0.126753 0.424438 0.418135
v -0.125671 0.424372 0.417333
v -0.126753 0.424372 0.417333
v -0.125671 0.424438 0.418135
v -0.125671 0.424438 0.418135
v -0.126753 0.424438 0.418135
v -0.125671 0.424372 0.417333
v -0.126753 0.424372 0.417333
v -0.125671 0.424372 0.417333
v -0.125671 0.417341 0.418722
v -0.125671 0.417275 0.417920
v -0.125671 0.424438 0.418135
v -0.125671 0.424438 0.418135
v -0.125671 0.424372 0.417333
v -0.125671 0.417341 0.418722
v -0.125671 0.417275 0.417920
v -0.125671 0.417341 0.418722
v -0.126753 0.424438 0.418135
v -0.126753 0.417341 0.418722
v -0.125671 0.424438 0.418135
v -0.125671 0.424438 0.418135
v -0.125671 0.417341 0.418722
v -0.126753 0.424438 0.418135
v -0.126753 0.417341 0.418722
vn 0 -0.08246839882108209 -0.9965936800902798
vn 0 0.08246839882108209 0.9965936800902798
vn 0 -0.9965936800902797 0.08246839882108213
vn 0 0.9965936800902797 -0.08246839882108213
vn -1 0 0
vn 1 0 0
usemtl material_0_0
f 1//1 2//1 3//1
f 2//1 1//1 4//1
f 5//2 6//2 7//2
f 8//2 7//2 6//2
f 9//3 10//3 11//3
f 10//3 9//3 12//3
f 13//4 14//4 15//4
f 16//4 15//4 14//4
f 17//5 18//5 19//5
f 18//5 17//5 20//5
f 21//6 22//6 23//6
f 24//6 23//6 22//6
f 25//4 26//4 27//4
f 26//4 25//4 28//4
f 29//3 30//3 31//3
f 32//3 31//3 30//3
f 33//6 34//6 35//6
f 34//6 33//6 36//6
f 37//5 38//5 39//5
f 40//5 39//5 38//5
f 41//2 42//2 43//2
f 42//2 41//2 44//2
f 45//1 46//1 47//1
f 48//1 47//1 46//1
