# SSTK version 0.8.0
# 196
mtllib original-196.mtl
o #ID1129
v 0.088089 0.423581 0.417399
v 0.087187 0.419849 0.417707
v 0.087187 0.423581 0.417399
v 0.087187 0.418128 0.417850
v 0.087187 0.417103 0.417935
v 0.088089 0.417103 0.417935
v 0.084310 0.423581 0.417399
v 0.083414 0.419710 0.417719
v 0.083414 0.423581 0.417399
v 0.083445 0.419063 0.417772
v 0.083540 0.418503 0.417819
v 0.083697 0.418029 0.417858
v 0.083917 0.417641 0.417890
v 0.084200 0.417339 0.417915
v 0.084310 0.419874 0.417705
v 0.084546 0.417124 0.417933
v 0.084396 0.418977 0.417780
v 0.084502 0.418625 0.417809
v 0.084651 0.418337 0.417833
v 0.084955 0.416994 0.417944
v 0.084843 0.418113 0.417851
v 0.085078 0.417952 0.417864
v 0.085427 0.416951 0.417947
v 0.085355 0.417856 0.417872
v 0.085674 0.417824 0.417875
v 0.085977 0.417025 0.417941
v 0.085990 0.417859 0.417872
v 0.086450 0.417246 0.417923
v 0.086276 0.417964 0.417863
v 0.086533 0.418139 0.417849
v 0.086846 0.417613 0.417892
v 0.086761 0.418384 0.417829
v 0.086947 0.418686 0.417804
v 0.087165 0.418128 0.417850
v 0.087080 0.419030 0.417775
v 0.087187 0.418128 0.417850
v 0.087187 0.419849 0.417707
v 0.087165 0.418128 0.417850
v 0.087080 0.419030 0.417775
v 0.086947 0.418686 0.417804
v 0.086846 0.417613 0.417892
v 0.086761 0.418384 0.417829
v 0.086533 0.418139 0.417849
v 0.086450 0.417246 0.417923
v 0.086276 0.417964 0.417863
v 0.085990 0.417859 0.417872
v 0.085977 0.417025 0.417941
v 0.085674 0.417824 0.417875
v 0.085427 0.416951 0.417947
v 0.085355 0.417856 0.417872
v 0.085078 0.417952 0.417864
v 0.084955 0.416994 0.417944
v 0.084843 0.418113 0.417851
v 0.084651 0.418337 0.417833
v 0.084546 0.417124 0.417933
v 0.084502 0.418625 0.417809
v 0.084396 0.418977 0.417780
v 0.084310 0.419874 0.417705
v 0.084200 0.417339 0.417915
v 0.084310 0.423581 0.417399
v 0.083917 0.417641 0.417890
v 0.083697 0.418029 0.417858
v 0.083540 0.418503 0.417819
v 0.083445 0.419063 0.417772
v 0.083414 0.419710 0.417719
v 0.083414 0.423581 0.417399
v 0.088089 0.417103 0.417935
v 0.088089 0.423581 0.417399
v 0.087187 0.417103 0.417935
v 0.087187 0.423581 0.417399
v 0.088089 0.417169 0.418725
v 0.087187 0.417103 0.417935
v 0.088089 0.417103 0.417935
v 0.087187 0.417169 0.418725
v 0.087187 0.417169 0.418725
v 0.088089 0.417169 0.418725
v 0.087187 0.417103 0.417935
v 0.088089 0.417103 0.417935
v 0.087187 0.418193 0.418640
v 0.087187 0.417103 0.417935
v 0.087187 0.417169 0.418725
v 0.087187 0.418128 0.417850
v 0.087187 0.418128 0.417850
v 0.087187 0.418193 0.418640
v 0.087187 0.417103 0.417935
v 0.087187 0.417169 0.418725
v 0.087187 0.418193 0.418640
v 0.087165 0.418128 0.417850
v 0.087187 0.418128 0.417850
v 0.087165 0.418193 0.418640
v 0.087165 0.418193 0.418640
v 0.087187 0.418193 0.418640
v 0.087165 0.418128 0.417850
v 0.087187 0.418128 0.417850
v 0.087165 0.418128 0.417850
v 0.086846 0.417679 0.418682
v 0.086846 0.417613 0.417892
v 0.087165 0.418193 0.418640
v 0.087165 0.418193 0.418640
v 0.087165 0.418128 0.417850
v 0.086846 0.417679 0.418682
v 0.086846 0.417613 0.417892
v 0.086450 0.417246 0.417923
v 0.086450 0.417311 0.418713
v 0.086450 0.417311 0.418713
v 0.086450 0.417246 0.417923
v 0.085977 0.417025 0.417941
v 0.085977 0.417090 0.418731
v 0.085977 0.417090 0.418731
v 0.085977 0.417025 0.417941
v 0.085427 0.416951 0.417947
v 0.085427 0.417017 0.418737
v 0.085427 0.417017 0.418737
v 0.085427 0.416951 0.417947
v 0.084955 0.416994 0.417944
v 0.084955 0.417060 0.418734
v 0.084955 0.417060 0.418734
v 0.084955 0.416994 0.417944
v 0.084546 0.417124 0.417933
v 0.084546 0.417189 0.418723
v 0.084546 0.417189 0.418723
v 0.084546 0.417124 0.417933
v 0.084200 0.417339 0.417915
v 0.084200 0.417405 0.418705
v 0.084200 0.417405 0.418705
v 0.084200 0.417339 0.417915
v 0.083917 0.417641 0.417890
v 0.083917 0.417706 0.418680
v 0.083917 0.417706 0.418680
v 0.083917 0.417641 0.417890
v 0.083697 0.418094 0.418648
v 0.083697 0.418029 0.417858
v 0.083697 0.418029 0.417858
v 0.083697 0.418094 0.418648
v 0.083540 0.418568 0.418609
v 0.083540 0.418503 0.417819
v 0.083540 0.418503 0.417819
v 0.083540 0.418568 0.418609
v 0.083445 0.419128 0.418562
v 0.083445 0.419063 0.417772
v 0.083445 0.419063 0.417772
v 0.083445 0.419128 0.418562
v 0.083414 0.419775 0.418509
v 0.083414 0.419710 0.417719
v 0.083414 0.419710 0.417719
v 0.083414 0.419775 0.418509
v 0.083414 0.423647 0.418189
v 0.083414 0.423581 0.417399
v 0.083414 0.423581 0.417399
v 0.083414 0.423647 0.418189
v 0.083414 0.423647 0.418189
v 0.084310 0.423581 0.417399
v 0.083414 0.423581 0.417399
v 0.084310 0.423647 0.418189
v 0.084310 0.423647 0.418189
v 0.083414 0.423647 0.418189
v 0.084310 0.423581 0.417399
v 0.083414 0.423581 0.417399
v 0.084310 0.423581 0.417399
v 0.084310 0.419939 0.418495
v 0.084310 0.419874 0.417705
v 0.084310 0.423647 0.418189
v 0.084310 0.423647 0.418189
v 0.084310 0.423581 0.417399
v 0.084310 0.419939 0.418495
v 0.084310 0.419874 0.417705
v 0.084396 0.419043 0.418570
v 0.084396 0.418977 0.417780
v 0.084396 0.419043 0.418570
v 0.084396 0.418977 0.417780
v 0.084502 0.418690 0.418599
v 0.084502 0.418625 0.417809
v 0.084502 0.418690 0.418599
v 0.084502 0.418625 0.417809
v 0.084502 0.418625 0.417809
v 0.084651 0.418402 0.418623
v 0.084651 0.418337 0.417833
v 0.084502 0.418690 0.418599
v 0.084502 0.418690 0.418599
v 0.084502 0.418625 0.417809
v 0.084651 0.418402 0.418623
v 0.084651 0.418337 0.417833
v 0.084651 0.418337 0.417833
v 0.084843 0.418178 0.418641
v 0.084843 0.418113 0.417851
v 0.084651 0.418402 0.418623
v 0.084651 0.418402 0.418623
v 0.084651 0.418337 0.417833
v 0.084843 0.418178 0.418641
v 0.084843 0.418113 0.417851
v 0.084843 0.418178 0.418641
v 0.085078 0.417952 0.417864
v 0.084843 0.418113 0.417851
v 0.085078 0.418018 0.418654
v 0.085078 0.418018 0.418654
v 0.084843 0.418178 0.418641
v 0.085078 0.417952 0.417864
v 0.084843 0.418113 0.417851
v 0.085078 0.418018 0.418654
v 0.085355 0.417856 0.417872
v 0.085078 0.417952 0.417864
v 0.085355 0.417922 0.418662
v 0.085355 0.417922 0.418662
v 0.085078 0.418018 0.418654
v 0.085355 0.417856 0.417872
v 0.085078 0.417952 0.417864
v 0.085355 0.417922 0.418662
v 0.085674 0.417824 0.417875
v 0.085355 0.417856 0.417872
v 0.085674 0.417890 0.418665
v 0.085674 0.417890 0.418665
v 0.085355 0.417922 0.418662
v 0.085674 0.417824 0.417875
v 0.085355 0.417856 0.417872
v 0.085674 0.417890 0.418665
v 0.085990 0.417859 0.417872
v 0.085674 0.417824 0.417875
v 0.085990 0.417925 0.418662
v 0.085990 0.417925 0.418662
v 0.085674 0.417890 0.418665
v 0.085990 0.417859 0.417872
v 0.085674 0.417824 0.417875
v 0.085990 0.417925 0.418662
v 0.086276 0.417964 0.417863
v 0.085990 0.417859 0.417872
v 0.086276 0.418030 0.418653
v 0.086276 0.418030 0.418653
v 0.085990 0.417925 0.418662
v 0.086276 0.417964 0.417863
v 0.085990 0.417859 0.417872
v 0.086276 0.418030 0.418653
v 0.086533 0.418139 0.417849
v 0.086276 0.417964 0.417863
v 0.086533 0.418205 0.418639
v 0.086533 0.418205 0.418639
v 0.086276 0.418030 0.418653
v 0.086533 0.418139 0.417849
v 0.086276 0.417964 0.417863
v 0.086533 0.418205 0.418639
v 0.086761 0.418384 0.417829
v 0.086533 0.418139 0.417849
v 0.086761 0.418450 0.418619
v 0.086761 0.418450 0.418619
v 0.086533 0.418205 0.418639
v 0.086761 0.418384 0.417829
v 0.086533 0.418139 0.417849
v 0.086947 0.418751 0.418594
v 0.086761 0.418384 0.417829
v 0.086761 0.418450 0.418619
v 0.086947 0.418686 0.417804
v 0.086947 0.418686 0.417804
v 0.086947 0.418751 0.418594
v 0.086761 0.418384 0.417829
v 0.086761 0.418450 0.418619
v 0.087080 0.419096 0.418565
v 0.086947 0.418686 0.417804
v 0.086947 0.418751 0.418594
v 0.087080 0.419030 0.417775
v 0.087080 0.419030 0.417775
v 0.087080 0.419096 0.418565
v 0.086947 0.418686 0.417804
v 0.086947 0.418751 0.418594
v 0.087187 0.419914 0.418497
v 0.087187 0.419849 0.417707
v 0.087187 0.419849 0.417707
v 0.087187 0.419914 0.418497
v 0.087187 0.423647 0.418189
v 0.087187 0.423581 0.417399
v 0.087187 0.423581 0.417399
v 0.087187 0.423647 0.418189
v 0.087187 0.423647 0.418189
v 0.088089 0.423581 0.417399
v 0.087187 0.423581 0.417399
v 0.088089 0.423647 0.418189
v 0.088089 0.423647 0.418189
v 0.087187 0.423647 0.418189
v 0.088089 0.423581 0.417399
v 0.087187 0.423581 0.417399
v 0.088089 0.423581 0.417399
v 0.088089 0.417169 0.418725
v 0.088089 0.417103 0.417935
v 0.088089 0.423647 0.418189
v 0.088089 0.423647 0.418189
v 0.088089 0.423581 0.417399
v 0.088089 0.417169 0.418725
v 0.088089 0.417103 0.417935
v 0.088089 0.417169 0.418725
v 0.087187 0.418193 0.418640
v 0.087187 0.417169 0.418725
v 0.087187 0.419914 0.418497
v 0.087187 0.423647 0.418189
v 0.088089 0.423647 0.418189
v 0.084546 0.417189 0.418723
v 0.084310 0.419939 0.418495
v 0.084200 0.417405 0.418705
v 0.084396 0.419043 0.418570
v 0.084502 0.418690 0.418599
v 0.084651 0.418402 0.418623
v 0.084955 0.417060 0.418734
v 0.084843 0.418178 0.418641
v 0.085078 0.418018 0.418654
v 0.085427 0.417017 0.418737
v 0.085355 0.417922 0.418662
v 0.085674 0.417890 0.418665
v 0.085977 0.417090 0.418731
v 0.085990 0.417925 0.418662
v 0.086450 0.417311 0.418713
v 0.086276 0.418030 0.418653
v 0.086533 0.418205 0.418639
v 0.086846 0.417679 0.418682
v 0.086761 0.418450 0.418619
v 0.086947 0.418751 0.418594
v 0.087165 0.418193 0.418640
v 0.087080 0.419096 0.418565
v 0.083445 0.419128 0.418562
v 0.083414 0.423647 0.418189
v 0.083414 0.419775 0.418509
v 0.084310 0.423647 0.418189
v 0.083540 0.418568 0.418609
v 0.083697 0.418094 0.418648
v 0.083917 0.417706 0.418680
v 0.084310 0.419939 0.418495
v 0.084200 0.417405 0.418705
v 0.084310 0.423647 0.418189
v 0.083917 0.417706 0.418680
v 0.083697 0.418094 0.418648
v 0.083540 0.418568 0.418609
v 0.083445 0.419128 0.418562
v 0.083414 0.423647 0.418189
v 0.083414 0.419775 0.418509
v 0.087187 0.418193 0.418640
v 0.087165 0.418193 0.418640
v 0.087187 0.419914 0.418497
v 0.087080 0.419096 0.418565
v 0.086947 0.418751 0.418594
v 0.086846 0.417679 0.418682
v 0.086761 0.418450 0.418619
v 0.086533 0.418205 0.418639
v 0.086450 0.417311 0.418713
v 0.086276 0.418030 0.418653
v 0.085990 0.417925 0.418662
v 0.085977 0.417090 0.418731
v 0.085674 0.417890 0.418665
v 0.085427 0.417017 0.418737
v 0.085355 0.417922 0.418662
v 0.085078 0.418018 0.418654
v 0.084955 0.417060 0.418734
v 0.084843 0.418178 0.418641
v 0.084651 0.418402 0.418623
v 0.084546 0.417189 0.418723
v 0.084502 0.418690 0.418599
v 0.084396 0.419043 0.418570
v 0.088089 0.423647 0.418189
v 0.088089 0.417169 0.418725
v 0.087187 0.423647 0.418189
v 0.087187 0.417169 0.418725
vn 0 -0.0824684031923376 -0.9965936797285572
vn 0 0.0824684031923376 0.9965936797285572
vn 0 -0.9965936797285571 0.08246840319233759
vn 0 0.9965936797285571 -0.08246840319233759
vn -1 0 0
vn 1 0 0
vn 0.8508389375657107 -0.5236368195548241 0.04333109193825361
vn 0.7747919482389043 -0.6300627585223729 0.052137867882577744
vn -0.8508389375657107 0.5236368195548241 -0.04333109193825361
vn -0.7747919482389043 0.6300627585223729 -0.052137867882577744
vn 0.5621348781444432 -0.8242283902694476 0.06820512772048283
vn -0.5621348781444432 0.8242283902694476 -0.06820512772048283
vn 0.28322561463121054 -0.9557864671621453 0.07909159504320415
vn -0.28322561463121054 0.9557864671621453 -0.07909159504320415
vn 0.021049702865065155 -0.9963728649234945 0.0824501307060223
vn -0.021049702865065155 0.9963728649234945 -0.0824501307060223
vn -0.1985640140246568 -0.9767494273643791 0.08082628580958913
vn 0.1985640140246568 0.9767494273643791 -0.08082628580958913
vn -0.4209316543252601 -0.9040025089599906 0.07480645815063061
vn 0.4209316543252601 0.9040025089599906 -0.07480645815063061
vn -0.6373377980249076 -0.767959680916642 0.06354887642729426
vn 0.6373377980249076 0.767959680916642 -0.06354887642729426
vn -0.8072240152233388 -0.5882346300049831 0.04867657865556538
vn 0.8072240152233388 0.5882346300049831 -0.04867657865556538
vn -0.9147375730827586 -0.4026721592524994 0.0333212327742326
vn 0.9147375730827586 0.4026721592524994 -0.0333212327742326
vn -0.9707777246223891 -0.239162985182722 0.01979080330521846
vn 0.9707777246223891 0.239162985182722 -0.01979080330521846
vn -0.9942543750597072 -0.10667853472106927 0.00882767831293202
vn 0.9942543750597072 0.10667853472106927 -0.00882767831293202
vn -0.9997067070962249 -0.024135264236467373 0.001997199804386377
vn 0.9997067070962249 0.024135264236467373 -0.001997199804386377
vn 0.9988865466961209 0.04701627362810193 -0.0038906096727601503
vn -0.9988865466961209 -0.04701627362810193 0.0038906096727601503
vn 0.9814301529487198 0.1911664502318911 -0.015819076736333995
vn -0.9814301529487198 -0.1911664502318911 0.015819076736333995
vn 0.957443986656726 0.2876360184392127 -0.02380196024095246
vn -0.957443986656726 -0.2876360184392127 0.02380196024095246
vn 0.8887361328221922 0.45685759400065945 -0.03780509251653046
vn -0.8887361328221922 -0.45685759400065945 0.03780509251653046
vn 0.7609373757992914 0.6466152240950699 -0.05350758899604922
vn -0.7609373757992914 -0.6466152240950699 0.05350758899604922
vn 0.5653509539784547 0.8220407657129969 -0.0680241011821608
vn -0.5653509539784547 -0.8220407657129969 0.0680241011821608
vn 0.3286430425220404 0.9412370942710788 -0.07788763040427232
vn -0.3286430425220404 -0.9412370942710788 0.07788763040427232
vn 0.10002096544144928 0.9915960910787504 -0.08205485134654025
vn -0.10002096544144928 -0.9915960910787504 0.08205485134654025
vn -0.11064572994973167 0.9904745057133253 -0.08196203984671648
vn 0.11064572994973167 -0.9904745057133253 0.08196203984671648
vn -0.3454307915204305 0.9352475859793805 -0.07739199693320903
vn 0.3454307915204305 -0.9352475859793805 0.07739199693320903
vn -0.5641389329807442 0.822867349922358 -0.06809250125456405
vn 0.5641389329807442 -0.822867349922358 0.06809250125456405
vn -0.7335297769944996 0.6773421848250926 -0.056050253512092356
vn 0.7335297769944996 -0.6773421848250926 0.056050253512092356
vn -0.8512587960969282 0.522958639697476 -0.043274972367108096
vn 0.8512587960969282 -0.522958639697476 0.043274972367108096
vn -0.9695817485857405 0.24393395472321275 -0.020185602356915
vn -0.9331499957244753 0.3582627248509919 -0.02964633976992952
vn 0.9695817485857405 -0.24393395472321275 0.020185602356915
vn 0.9331499957244753 -0.3582627248509919 0.02964633976992952
vn -0.997925252037888 0.0641638507512657 -0.005309576431961342
vn 0.997925252037888 -0.0641638507512657 0.005309576431961342
usemtl material_0_0
f 1//1 2//1 3//1
f 2//1 1//1 4//1
f 4//1 1//1 5//1
f 5//1 1//1 6//1
f 7//1 8//1 9//1
f 8//1 7//1 10//1
f 10//1 7//1 11//1
f 11//1 7//1 12//1
f 12//1 7//1 13//1
f 13//1 7//1 14//1
f 14//1 7//1 15//1
f 14//1 15//1 16//1
f 16//1 15//1 17//1
f 16//1 17//1 18//1
f 16//1 18//1 19//1
f 16//1 19//1 20//1
f 20//1 19//1 21//1
f 20//1 21//1 22//1
f 20//1 22//1 23//1
f 23//1 22//1 24//1
f 23//1 24//1 25//1
f 23//1 25//1 26//1
f 26//1 25//1 27//1
f 26//1 27//1 28//1
f 28//1 27//1 29//1
f 28//1 29//1 30//1
f 28//1 30//1 31//1
f 31//1 30//1 32//1
f 31//1 32//1 33//1
f 31//1 33//1 34//1
f 34//1 33//1 35//1
f 34//1 35//1 2//1
f 34//1 2//1 4//1
f 36//2 37//2 38//2
f 37//2 39//2 38//2
f 39//2 40//2 38//2
f 38//2 40//2 41//2
f 40//2 42//2 41//2
f 42//2 43//2 41//2
f 41//2 43//2 44//2
f 43//2 45//2 44//2
f 45//2 46//2 44//2
f 44//2 46//2 47//2
f 46//2 48//2 47//2
f 47//2 48//2 49//2
f 48//2 50//2 49//2
f 50//2 51//2 49//2
f 49//2 51//2 52//2
f 51//2 53//2 52//2
f 53//2 54//2 52//2
f 52//2 54//2 55//2
f 54//2 56//2 55//2
f 56//2 57//2 55//2
f 57//2 58//2 55//2
f 55//2 58//2 59//2
f 58//2 60//2 59//2
f 59//2 60//2 61//2
f 61//2 60//2 62//2
f 62//2 60//2 63//2
f 63//2 60//2 64//2
f 64//2 60//2 65//2
f 66//2 65//2 60//2
f 67//2 68//2 69//2
f 69//2 68//2 36//2
f 36//2 68//2 37//2
f 70//2 37//2 68//2
f 71//3 72//3 73//3
f 72//3 71//3 74//3
f 75//4 76//4 77//4
f 78//4 77//4 76//4
f 79//5 80//5 81//5
f 80//5 79//5 82//5
f 83//6 84//6 85//6
f 86//6 85//6 84//6
f 87//3 88//3 89//3
f 88//3 87//3 90//3
f 91//4 92//4 93//4
f 94//4 93//4 92//4
f 95//7 96//8 97//8
f 96//8 95//7 98//7
f 99//9 100//9 101//10
f 102//10 101//10 100//9
f 96//8 103//11 97//8
f 103//11 96//8 104//11
f 105//12 101//10 106//12
f 102//10 106//12 101//10
f 104//11 107//13 103//11
f 107//13 104//11 108//13
f 109//14 105//12 110//14
f 106//12 110//14 105//12
f 108//13 111//15 107//13
f 111//15 108//13 112//15
f 113//16 109//14 114//16
f 110//14 114//16 109//14
f 112//15 115//17 111//15
f 115//17 112//15 116//17
f 117//18 113//16 118//18
f 114//16 118//18 113//16
f 116//17 119//19 115//17
f 119//19 116//17 120//19
f 121//20 117//18 122//20
f 118//18 122//20 117//18
f 120//19 123//21 119//19
f 123//21 120//19 124//21
f 125//22 121//20 126//22
f 122//20 126//22 121//20
f 124//21 127//23 123//21
f 127//23 124//21 128//23
f 129//24 125//22 130//24
f 126//22 130//24 125//22
f 131//25 127//23 128//23
f 127//23 131//25 132//25
f 133//26 134//26 130//24
f 129//24 130//24 134//26
f 135//27 132//25 131//25
f 132//25 135//27 136//27
f 137//28 138//28 133//26
f 134//26 133//26 138//28
f 139//29 136//27 135//27
f 136//27 139//29 140//29
f 141//30 142//30 137//28
f 138//28 137//28 142//30
f 143//31 140//29 139//29
f 140//29 143//31 144//31
f 145//32 146//32 141//30
f 142//30 141//30 146//32
f 147//5 144//31 143//31
f 144//31 147//5 148//5
f 149//6 150//6 145//32
f 146//32 145//32 150//6
f 151//4 152//4 153//4
f 152//4 151//4 154//4
f 155//3 156//3 157//3
f 158//3 157//3 156//3
f 159//6 160//33 161//33
f 160//33 159//6 162//6
f 163//5 164//5 165//34
f 166//34 165//34 164//5
f 161//33 167//35 168//35
f 167//35 161//33 160//33
f 165//34 166//34 169//36
f 170//36 169//36 166//34
f 168//35 171//37 172//37
f 171//37 168//35 167//35
f 169//36 170//36 173//38
f 174//38 173//38 170//36
f 175//39 176//39 177//39
f 176//39 175//39 178//39
f 179//40 180//40 181//40
f 182//40 181//40 180//40
f 183//41 184//41 185//41
f 184//41 183//41 186//41
f 187//42 188//42 189//42
f 190//42 189//42 188//42
f 191//43 192//43 193//43
f 192//43 191//43 194//43
f 195//44 196//44 197//44
f 198//44 197//44 196//44
f 199//45 200//45 201//45
f 200//45 199//45 202//45
f 203//46 204//46 205//46
f 206//46 205//46 204//46
f 207//47 208//47 209//47
f 208//47 207//47 210//47
f 211//48 212//48 213//48
f 214//48 213//48 212//48
f 215//49 216//49 217//49
f 216//49 215//49 218//49
f 219//50 220//50 221//50
f 222//50 221//50 220//50
f 223//51 224//51 225//51
f 224//51 223//51 226//51
f 227//52 228//52 229//52
f 230//52 229//52 228//52
f 231//53 232//53 233//53
f 232//53 231//53 234//53
f 235//54 236//54 237//54
f 238//54 237//54 236//54
f 239//55 240//55 241//55
f 240//55 239//55 242//55
f 243//56 244//56 245//56
f 246//56 245//56 244//56
f 247//57 248//57 249//57
f 248//57 247//57 250//57
f 251//58 252//58 253//58
f 254//58 253//58 252//58
f 255//59 256//60 257//60
f 256//60 255//59 258//59
f 259//61 260//61 261//62
f 262//62 261//62 260//61
f 263//63 258//59 255//59
f 258//59 263//63 264//63
f 265//64 266//64 259//61
f 260//61 259//61 266//64
f 267//5 264//63 263//63
f 264//63 267//5 268//5
f 269//6 270//6 265//64
f 266//64 265//64 270//6
f 271//4 272//4 273//4
f 272//4 271//4 274//4
f 275//3 276//3 277//3
f 278//3 277//3 276//3
f 279//6 280//6 281//6
f 280//6 279//6 282//6
f 283//5 284//5 285//5
f 286//5 285//5 284//5
f 287//2 288//2 289//2
f 288//2 287//2 290//2
f 290//2 287//2 291//2
f 291//2 287//2 292//2
f 293//2 294//2 295//2
f 294//2 293//2 296//2
f 296//2 293//2 297//2
f 297//2 293//2 298//2
f 298//2 293//2 299//2
f 298//2 299//2 300//2
f 300//2 299//2 301//2
f 301//2 299//2 302//2
f 301//2 302//2 303//2
f 303//2 302//2 304//2
f 304//2 302//2 305//2
f 304//2 305//2 306//2
f 306//2 305//2 307//2
f 306//2 307//2 308//2
f 308//2 307//2 309//2
f 309//2 307//2 310//2
f 309//2 310//2 311//2
f 311//2 310//2 312//2
f 312//2 310//2 313//2
f 312//2 313//2 314//2
f 314//2 313//2 290//2
f 290//2 313//2 288//2
f 315//2 316//2 317//2
f 316//2 315//2 318//2
f 318//2 315//2 319//2
f 318//2 319//2 320//2
f 318//2 320//2 321//2
f 318//2 321//2 295//2
f 318//2 295//2 294//2
f 322//1 323//1 324//1
f 323//1 325//1 324//1
f 325//1 326//1 324//1
f 326//1 327//1 324//1
f 327//1 328//1 324//1
f 324//1 328//1 329//1
f 330//1 329//1 328//1
f 331//1 332//1 333//1
f 333//1 332//1 334//1
f 334//1 332//1 335//1
f 332//1 336//1 335//1
f 335//1 336//1 337//1
f 337//1 336//1 338//1
f 336//1 339//1 338//1
f 338//1 339//1 340//1
f 340//1 339//1 341//1
f 339//1 342//1 341//1
f 341//1 342//1 343//1
f 342//1 344//1 343//1
f 343//1 344//1 345//1
f 345//1 344//1 346//1
f 344//1 347//1 346//1
f 346//1 347//1 348//1
f 348//1 347//1 349//1
f 347//1 350//1 349//1
f 349//1 350//1 351//1
f 351//1 350//1 352//1
f 352//1 350//1 322//1
f 323//1 322//1 350//1
f 353//1 354//1 355//1
f 355//1 354//1 333//1
f 333//1 354//1 331//1
f 356//1 331//1 354//1
