# SSTK version 0.8.0
# 242
mtllib original-242.mtl
o #ID1393
v -0.095785 0.422910 0.417454
v -0.095812 0.420893 0.417621
v -0.095812 0.422910 0.417454
v -0.095695 0.421953 0.417533
v -0.095493 0.423576 0.417399
v -0.095550 0.422390 0.417497
v -0.095347 0.422764 0.417466
v -0.095079 0.424077 0.417357
v -0.095100 0.423064 0.417441
v -0.094825 0.423279 0.417424
v -0.094576 0.424392 0.417331
v -0.094521 0.423407 0.417413
v -0.094017 0.424497 0.417323
v -0.094189 0.423450 0.417409
v -0.093717 0.423393 0.417414
v -0.093371 0.424400 0.417331
v -0.093371 0.423221 0.417428
v -0.095812 0.424372 0.417333
v -0.096894 0.417275 0.417920
v -0.096894 0.424372 0.417333
v -0.095812 0.417275 0.417920
v -0.095812 0.420893 0.417621
v -0.095812 0.422910 0.417454
v -0.095812 0.417275 0.417920
v -0.095812 0.424372 0.417333
v -0.096894 0.417275 0.417920
v -0.096894 0.424372 0.417333
v -0.093371 0.423221 0.417428
v -0.093371 0.424400 0.417331
v -0.093717 0.423393 0.417414
v -0.094017 0.424497 0.417323
v -0.094189 0.423450 0.417409
v -0.094521 0.423407 0.417413
v -0.094576 0.424392 0.417331
v -0.094825 0.423279 0.417424
v -0.095079 0.424077 0.417357
v -0.095100 0.423064 0.417441
v -0.095347 0.422764 0.417466
v -0.095493 0.423576 0.417399
v -0.095550 0.422390 0.417497
v -0.095695 0.421953 0.417533
v -0.095785 0.422910 0.417454
v -0.093371 0.423288 0.418230
v -0.093717 0.423393 0.417414
v -0.093371 0.423221 0.417428
v -0.093717 0.423459 0.418216
v -0.093717 0.423459 0.418216
v -0.093371 0.423288 0.418230
v -0.093717 0.423393 0.417414
v -0.093371 0.423221 0.417428
v -0.094189 0.423516 0.418211
v -0.094189 0.423450 0.417409
v -0.094189 0.423516 0.418211
v -0.094189 0.423450 0.417409
v -0.094189 0.423516 0.418211
v -0.094521 0.423407 0.417413
v -0.094189 0.423450 0.417409
v -0.094521 0.423474 0.418215
v -0.094521 0.423474 0.418215
v -0.094189 0.423516 0.418211
v -0.094521 0.423407 0.417413
v -0.094189 0.423450 0.417409
v -0.094521 0.423474 0.418215
v -0.094825 0.423279 0.417424
v -0.094521 0.423407 0.417413
v -0.094825 0.423345 0.418226
v -0.094825 0.423345 0.418226
v -0.094521 0.423474 0.418215
v -0.094825 0.423279 0.417424
v -0.094521 0.423407 0.417413
v -0.094825 0.423345 0.418226
v -0.095100 0.423064 0.417441
v -0.094825 0.423279 0.417424
v -0.095100 0.423131 0.418243
v -0.095100 0.423131 0.418243
v -0.094825 0.423345 0.418226
v -0.095100 0.423064 0.417441
v -0.094825 0.423279 0.417424
v -0.095100 0.423064 0.417441
v -0.095347 0.422830 0.418268
v -0.095347 0.422764 0.417466
v -0.095100 0.423131 0.418243
v -0.095100 0.423131 0.418243
v -0.095100 0.423064 0.417441
v -0.095347 0.422830 0.418268
v -0.095347 0.422764 0.417466
v -0.095550 0.422390 0.417497
v -0.095347 0.422830 0.418268
v -0.095550 0.422456 0.418299
v -0.095347 0.422764 0.417466
v -0.095347 0.422764 0.417466
v -0.095550 0.422390 0.417497
v -0.095347 0.422830 0.418268
v -0.095550 0.422456 0.418299
v -0.095695 0.422019 0.418335
v -0.095695 0.421953 0.417533
v -0.095695 0.422019 0.418335
v -0.095695 0.421953 0.417533
v -0.095812 0.420959 0.418423
v -0.095812 0.420893 0.417621
v -0.095812 0.420959 0.418423
v -0.095812 0.420893 0.417621
v -0.095812 0.417341 0.418722
v -0.095812 0.417275 0.417920
v -0.095812 0.417341 0.418722
v -0.095812 0.417275 0.417920
v -0.095812 0.417341 0.418722
v -0.096894 0.417275 0.417920
v -0.095812 0.417275 0.417920
v -0.096894 0.417341 0.418722
v -0.096894 0.417341 0.418722
v -0.095812 0.417341 0.418722
v -0.096894 0.417275 0.417920
v -0.095812 0.417275 0.417920
v -0.096894 0.424438 0.418135
v -0.096894 0.417275 0.417920
v -0.096894 0.417341 0.418722
v -0.096894 0.424372 0.417333
v -0.096894 0.424372 0.417333
v -0.096894 0.424438 0.418135
v -0.096894 0.417275 0.417920
v -0.096894 0.417341 0.418722
v -0.096894 0.424438 0.418135
v -0.095812 0.424372 0.417333
v -0.096894 0.424372 0.417333
v -0.095812 0.424438 0.418135
v -0.095812 0.424438 0.418135
v -0.096894 0.424438 0.418135
v -0.095812 0.424372 0.417333
v -0.096894 0.424372 0.417333
v -0.095812 0.424372 0.417333
v -0.095812 0.422976 0.418256
v -0.095812 0.422910 0.417454
v -0.095812 0.424438 0.418135
v -0.095812 0.424438 0.418135
v -0.095812 0.424372 0.417333
v -0.095812 0.422976 0.418256
v -0.095812 0.422910 0.417454
v -0.095812 0.422976 0.418256
v -0.095785 0.422910 0.417454
v -0.095812 0.422910 0.417454
v -0.095785 0.422976 0.418256
v -0.095785 0.422976 0.418256
v -0.095812 0.422976 0.418256
v -0.095785 0.422910 0.417454
v -0.095812 0.422910 0.417454
v -0.095785 0.422976 0.418256
v -0.095493 0.423576 0.417399
v -0.095785 0.422910 0.417454
v -0.095493 0.423642 0.418201
v -0.095493 0.423642 0.418201
v -0.095785 0.422976 0.418256
v -0.095493 0.423576 0.417399
v -0.095785 0.422910 0.417454
v -0.095079 0.424144 0.418160
v -0.095079 0.424077 0.417357
v -0.095079 0.424077 0.417357
v -0.095079 0.424144 0.418160
v -0.094576 0.424392 0.417331
v -0.094576 0.424458 0.418134
v -0.094576 0.424458 0.418134
v -0.094576 0.424392 0.417331
v -0.094017 0.424497 0.417323
v -0.094017 0.424563 0.418125
v -0.094017 0.424563 0.418125
v -0.094017 0.424497 0.417323
v -0.093371 0.424400 0.417331
v -0.093371 0.424466 0.418133
v -0.093371 0.424466 0.418133
v -0.093371 0.424400 0.417331
v -0.093371 0.423221 0.417428
v -0.093371 0.424466 0.418133
v -0.093371 0.423288 0.418230
v -0.093371 0.424400 0.417331
v -0.093371 0.424400 0.417331
v -0.093371 0.423221 0.417428
v -0.093371 0.424466 0.418133
v -0.093371 0.423288 0.418230
v -0.095695 0.422019 0.418335
v -0.095812 0.422976 0.418256
v -0.095812 0.420959 0.418423
v -0.095785 0.422976 0.418256
v -0.095493 0.423642 0.418201
v -0.095550 0.422456 0.418299
v -0.095347 0.422830 0.418268
v -0.095079 0.424144 0.418160
v -0.095100 0.423131 0.418243
v -0.094825 0.423345 0.418226
v -0.094576 0.424458 0.418134
v -0.094521 0.423474 0.418215
v -0.094017 0.424563 0.418125
v -0.094189 0.423516 0.418211
v -0.093717 0.423459 0.418216
v -0.093371 0.424466 0.418133
v -0.093371 0.423288 0.418230
v -0.095812 0.417341 0.418722
v -0.096894 0.424438 0.418135
v -0.096894 0.417341 0.418722
v -0.095812 0.424438 0.418135
v -0.095812 0.422976 0.418256
v -0.095812 0.420959 0.418423
v -0.095812 0.424438 0.418135
v -0.095812 0.417341 0.418722
v -0.096894 0.424438 0.418135
v -0.096894 0.417341 0.418722
v -0.093371 0.423288 0.418230
v -0.093717 0.423459 0.418216
v -0.093371 0.424466 0.418133
v -0.094017 0.424563 0.418125
v -0.094189 0.423516 0.418211
v -0.094521 0.423474 0.418215
v -0.094576 0.424458 0.418134
v -0.094825 0.423345 0.418226
v -0.095079 0.424144 0.418160
v -0.095100 0.423131 0.418243
v -0.095347 0.422830 0.418268
v -0.095493 0.423642 0.418201
v -0.095550 0.422456 0.418299
v -0.095695 0.422019 0.418335
v -0.095785 0.422976 0.418256
vn 0 -0.08246839882108209 -0.9965936800902798
vn 0 0.08246839882108209 0.9965936800902798
vn -0.4450146039332122 -0.8924728730852931 0.07385237364532317
vn -0.2877797206747844 -0.9544344074735074 0.07897970751425815
vn 0.2877797206747844 0.9544344074735074 -0.07897970751425815
vn 0.4450146039332122 0.8924728730852931 -0.07385237364532317
vn -0.1207370671289337 -0.9893031211508007 0.08186510308054014
vn 0.1207370671289337 0.9893031211508007 -0.08186510308054014
vn 0.12848031545767238 -0.9883339707570699 0.08178490562114968
vn -0.12848031545767238 0.9883339707570699 -0.08178490562114968
vn 0.3911987744125655 -0.9171713519481186 0.07589617950705511
vn -0.3911987744125655 0.9171713519481186 -0.07589617950705511
vn 0.6158600230791675 -0.7851719026265278 0.06497318907646152
vn -0.6158600230791675 0.7851719026265278 -0.06497318907646152
vn 0.7735285570542836 -0.6316026525433349 0.052265291750273384
vn -0.7735285570542836 0.6316026525433349 -0.052265291750273384
vn 0.9178587196609086 -0.39555526401258845 0.03273230597389849
vn 0.879218536872845 -0.4747958515959821 0.039289486207122755
vn -0.879218536872845 0.4747958515959821 -0.039289486207122755
vn -0.9178587196609086 0.39555526401258845 -0.03273230597389849
vn 0.9771181376391517 -0.21197279354853638 0.017540806475911015
vn -0.9771181376391517 0.21197279354853638 -0.017540806475911015
vn 0.998520243133076 -0.05419604398600894 0.004484737420327791
vn -0.998520243133076 0.05419604398600894 -0.004484737420327791
vn 1 0 0
vn -1 0 0
vn 0 -0.9965936800902797 0.08246839882108213
vn 0 0.9965936800902797 -0.08246839882108213
vn -0.9164221963983504 0.39884963764442377 -0.03300491629038299
vn -0.8529831623182129 0.5201605408208883 -0.043043426612459364
vn 0.8529831623182129 -0.5201605408208883 0.043043426612459364
vn 0.9164221963983504 -0.39884963764442377 0.03300491629038299
vn -0.6614050386858209 0.7474740775472256 -0.0618536837701007
vn 0.6614050386858209 -0.7474740775472256 0.0618536837701007
vn -0.36560697389780267 0.9275988292062756 -0.07675905609397622
vn 0.36560697389780267 -0.9275988292062756 0.07675905609397622
vn -0.018292510313732267 0.9964269280773119 -0.08245460004653202
vn 0.018292510313732267 -0.9964269280773119 0.08245460004653202
vn 0.14890680016046748 0.9854828913025685 -0.08154897801873592
vn -0.14890680016046748 -0.9854828913025685 0.08154897801873592
usemtl material_0_0
f 1//1 2//1 3//1
f 2//1 1//1 4//1
f 4//1 1//1 5//1
f 4//1 5//1 6//1
f 6//1 5//1 7//1
f 7//1 5//1 8//1
f 7//1 8//1 9//1
f 9//1 8//1 10//1
f 10//1 8//1 11//1
f 10//1 11//1 12//1
f 12//1 11//1 13//1
f 12//1 13//1 14//1
f 14//1 13//1 15//1
f 15//1 13//1 16//1
f 15//1 16//1 17//1
f 18//1 19//1 20//1
f 19//1 18//1 21//1
f 21//1 18//1 3//1
f 21//1 3//1 2//1
f 22//2 23//2 24//2
f 23//2 25//2 24//2
f 24//2 25//2 26//2
f 27//2 26//2 25//2
f 28//2 29//2 30//2
f 29//2 31//2 30//2
f 30//2 31//2 32//2
f 32//2 31//2 33//2
f 31//2 34//2 33//2
f 33//2 34//2 35//2
f 34//2 36//2 35//2
f 35//2 36//2 37//2
f 37//2 36//2 38//2
f 36//2 39//2 38//2
f 38//2 39//2 40//2
f 40//2 39//2 41//2
f 39//2 42//2 41//2
f 41//2 42//2 22//2
f 23//2 22//2 42//2
f 43//3 44//4 45//3
f 44//4 43//3 46//4
f 47//5 48//6 49//5
f 50//6 49//5 48//6
f 44//4 51//7 52//7
f 51//7 44//4 46//4
f 47//5 49//5 53//8
f 54//8 53//8 49//5
f 55//9 56//9 57//9
f 56//9 55//9 58//9
f 59//10 60//10 61//10
f 62//10 61//10 60//10
f 63//11 64//11 65//11
f 64//11 63//11 66//11
f 67//12 68//12 69//12
f 70//12 69//12 68//12
f 71//13 72//13 73//13
f 72//13 71//13 74//13
f 75//14 76//14 77//14
f 78//14 77//14 76//14
f 79//15 80//15 81//15
f 80//15 79//15 82//15
f 83//16 84//16 85//16
f 86//16 85//16 84//16
f 87//17 88//18 89//17
f 88//18 87//17 90//18
f 91//19 92//20 93//19
f 94//20 93//19 92//20
f 87//17 95//21 96//21
f 95//21 87//17 89//17
f 94//20 92//20 97//22
f 98//22 97//22 92//20
f 96//21 99//23 100//23
f 99//23 96//21 95//21
f 97//22 98//22 101//24
f 102//24 101//24 98//22
f 100//23 103//25 104//25
f 103//25 100//23 99//23
f 101//24 102//24 105//26
f 106//26 105//26 102//24
f 107//27 108//27 109//27
f 108//27 107//27 110//27
f 111//28 112//28 113//28
f 114//28 113//28 112//28
f 115//26 116//26 117//26
f 116//26 115//26 118//26
f 119//25 120//25 121//25
f 122//25 121//25 120//25
f 123//28 124//28 125//28
f 124//28 123//28 126//28
f 127//27 128//27 129//27
f 130//27 129//27 128//27
f 131//25 132//25 133//25
f 132//25 131//25 134//25
f 135//26 136//26 137//26
f 138//26 137//26 136//26
f 139//28 140//28 141//28
f 140//28 139//28 142//28
f 143//27 144//27 145//27
f 146//27 145//27 144//27
f 147//29 148//30 149//29
f 148//30 147//29 150//30
f 151//31 152//32 153//31
f 154//32 153//31 152//32
f 155//33 148//30 150//30
f 148//30 155//33 156//33
f 157//34 158//34 153//31
f 151//31 153//31 158//34
f 155//33 159//35 156//33
f 159//35 155//33 160//35
f 161//36 158//34 162//36
f 157//34 162//36 158//34
f 160//35 163//37 159//35
f 163//37 160//35 164//37
f 165//38 161//36 166//38
f 162//36 166//38 161//36
f 164//37 167//39 163//37
f 167//39 164//37 168//39
f 169//40 165//38 170//40
f 166//38 170//40 165//38
f 171//25 172//25 173//25
f 172//25 171//25 174//25
f 175//26 176//26 177//26
f 178//26 177//26 176//26
f 179//2 180//2 181//2
f 180//2 179//2 182//2
f 182//2 179//2 183//2
f 183//2 179//2 184//2
f 183//2 184//2 185//2
f 183//2 185//2 186//2
f 186//2 185//2 187//2
f 186//2 187//2 188//2
f 186//2 188//2 189//2
f 189//2 188//2 190//2
f 189//2 190//2 191//2
f 191//2 190//2 192//2
f 191//2 192//2 193//2
f 191//2 193//2 194//2
f 194//2 193//2 195//2
f 196//2 197//2 198//2
f 197//2 196//2 199//2
f 199//2 196//2 181//2
f 199//2 181//2 180//2
f 200//1 201//1 202//1
f 201//1 203//1 202//1
f 202//1 203//1 204//1
f 205//1 204//1 203//1
f 206//1 207//1 208//1
f 208//1 207//1 209//1
f 207//1 210//1 209//1
f 210//1 211//1 209//1
f 209//1 211//1 212//1
f 211//1 213//1 212//1
f 212//1 213//1 214//1
f 213//1 215//1 214//1
f 215//1 216//1 214//1
f 214//1 216//1 217//1
f 216//1 218//1 217//1
f 218//1 219//1 217//1
f 217//1 219//1 220//1
f 220//1 219//1 200//1
f 201//1 200//1 219//1
