# SSTK version 0.8.0
# 239
mtllib original-239.mtl
o #ID1375
v -0.122372 0.423194 0.417431
v -0.122399 0.421322 0.417585
v -0.122399 0.423194 0.417431
v -0.122266 0.422216 0.417512
v -0.121947 0.423782 0.417382
v -0.122100 0.422599 0.417480
v -0.121868 0.422941 0.417452
v -0.121435 0.424202 0.417347
v -0.121584 0.423221 0.417428
v -0.121266 0.423422 0.417412
v -0.120838 0.424454 0.417326
v -0.120913 0.423542 0.417402
v -0.120525 0.423582 0.417398
v -0.120156 0.424538 0.417319
v -0.120157 0.423546 0.417401
v -0.119838 0.423441 0.417410
v -0.119634 0.424491 0.417323
v -0.119568 0.423264 0.417425
v -0.119178 0.424350 0.417335
v -0.119347 0.423017 0.417445
v -0.119053 0.422311 0.417504
v -0.118786 0.424115 0.417354
v -0.118955 0.421322 0.417585
v -0.118955 0.417275 0.417920
v -0.117873 0.417275 0.417920
v -0.118460 0.423786 0.417382
v -0.118203 0.423368 0.417416
v -0.118020 0.422867 0.417458
v -0.117910 0.422282 0.417506
v -0.117873 0.421614 0.417561
v -0.122399 0.424372 0.417333
v -0.123481 0.417275 0.417920
v -0.123481 0.424372 0.417333
v -0.122399 0.417275 0.417920
v -0.122399 0.421322 0.417585
v -0.122399 0.423194 0.417431
v -0.122399 0.417275 0.417920
v -0.122399 0.424372 0.417333
v -0.123481 0.417275 0.417920
v -0.123481 0.424372 0.417333
v -0.117873 0.421614 0.417561
v -0.117910 0.422282 0.417506
v -0.117873 0.417275 0.417920
v -0.118020 0.422867 0.417458
v -0.118203 0.423368 0.417416
v -0.118460 0.423786 0.417382
v -0.118786 0.424115 0.417354
v -0.118955 0.417275 0.417920
v -0.118955 0.421322 0.417585
v -0.119053 0.422311 0.417504
v -0.119178 0.424350 0.417335
v -0.119347 0.423017 0.417445
v -0.119568 0.423264 0.417425
v -0.119634 0.424491 0.417323
v -0.119838 0.423441 0.417410
v -0.120156 0.424538 0.417319
v -0.120157 0.423546 0.417401
v -0.120525 0.423582 0.417398
v -0.120838 0.424454 0.417326
v -0.120913 0.423542 0.417402
v -0.121266 0.423422 0.417412
v -0.121435 0.424202 0.417347
v -0.121584 0.423221 0.417428
v -0.121868 0.422941 0.417452
v -0.121947 0.423782 0.417382
v -0.122100 0.422599 0.417480
v -0.122266 0.422216 0.417512
v -0.122372 0.423194 0.417431
v -0.117873 0.417341 0.418722
v -0.118955 0.417275 0.417920
v -0.117873 0.417275 0.417920
v -0.118955 0.417341 0.418722
v -0.118955 0.417341 0.418722
v -0.117873 0.417341 0.418722
v -0.118955 0.417275 0.417920
v -0.117873 0.417275 0.417920
v -0.118955 0.421389 0.418388
v -0.118955 0.417275 0.417920
v -0.118955 0.417341 0.418722
v -0.118955 0.421322 0.417585
v -0.118955 0.421322 0.417585
v -0.118955 0.421389 0.418388
v -0.118955 0.417275 0.417920
v -0.118955 0.417341 0.418722
v -0.119053 0.422311 0.417504
v -0.119053 0.422377 0.418306
v -0.119053 0.422377 0.418306
v -0.119053 0.422311 0.417504
v -0.119347 0.423083 0.418247
v -0.119347 0.423017 0.417445
v -0.119347 0.423017 0.417445
v -0.119347 0.423083 0.418247
v -0.119568 0.423330 0.418227
v -0.119568 0.423264 0.417425
v -0.119568 0.423264 0.417425
v -0.119568 0.423330 0.418227
v -0.119568 0.423330 0.418227
v -0.119838 0.423441 0.417410
v -0.119568 0.423264 0.417425
v -0.119838 0.423507 0.418212
v -0.119838 0.423507 0.418212
v -0.119568 0.423330 0.418227
v -0.119838 0.423441 0.417410
v -0.119568 0.423264 0.417425
v -0.119838 0.423441 0.417410
v -0.120157 0.423613 0.418204
v -0.120157 0.423546 0.417401
v -0.119838 0.423507 0.418212
v -0.119838 0.423507 0.418212
v -0.119838 0.423441 0.417410
v -0.120157 0.423613 0.418204
v -0.120157 0.423546 0.417401
v -0.120157 0.423613 0.418204
v -0.120525 0.423582 0.417398
v -0.120157 0.423546 0.417401
v -0.120525 0.423648 0.418201
v -0.120525 0.423648 0.418201
v -0.120157 0.423613 0.418204
v -0.120525 0.423582 0.417398
v -0.120157 0.423546 0.417401
v -0.120525 0.423648 0.418201
v -0.120913 0.423542 0.417402
v -0.120525 0.423582 0.417398
v -0.120913 0.423608 0.418204
v -0.120913 0.423608 0.418204
v -0.120525 0.423648 0.418201
v -0.120913 0.423542 0.417402
v -0.120525 0.423582 0.417398
v -0.120913 0.423542 0.417402
v -0.121266 0.423488 0.418214
v -0.121266 0.423422 0.417412
v -0.120913 0.423608 0.418204
v -0.120913 0.423608 0.418204
v -0.120913 0.423542 0.417402
v -0.121266 0.423488 0.418214
v -0.121266 0.423422 0.417412
v -0.121266 0.423488 0.418214
v -0.121584 0.423221 0.417428
v -0.121266 0.423422 0.417412
v -0.121584 0.423288 0.418230
v -0.121584 0.423288 0.418230
v -0.121266 0.423488 0.418214
v -0.121584 0.423221 0.417428
v -0.121266 0.423422 0.417412
v -0.121584 0.423288 0.418230
v -0.121868 0.422941 0.417452
v -0.121584 0.423221 0.417428
v -0.121868 0.423007 0.418254
v -0.121868 0.423007 0.418254
v -0.121584 0.423288 0.418230
v -0.121868 0.422941 0.417452
v -0.121584 0.423221 0.417428
v -0.122100 0.422599 0.417480
v -0.121868 0.423007 0.418254
v -0.122100 0.422666 0.418282
v -0.121868 0.422941 0.417452
v -0.121868 0.422941 0.417452
v -0.122100 0.422599 0.417480
v -0.121868 0.423007 0.418254
v -0.122100 0.422666 0.418282
v -0.122266 0.422216 0.417512
v -0.122266 0.422282 0.418314
v -0.122266 0.422216 0.417512
v -0.122266 0.422282 0.418314
v -0.122399 0.421389 0.418388
v -0.122399 0.421322 0.417585
v -0.122399 0.421389 0.418388
v -0.122399 0.421322 0.417585
v -0.122399 0.417341 0.418722
v -0.122399 0.417275 0.417920
v -0.122399 0.417341 0.418722
v -0.122399 0.417275 0.417920
v -0.122399 0.417341 0.418722
v -0.123481 0.417275 0.417920
v -0.122399 0.417275 0.417920
v -0.123481 0.417341 0.418722
v -0.123481 0.417341 0.418722
v -0.122399 0.417341 0.418722
v -0.123481 0.417275 0.417920
v -0.122399 0.417275 0.417920
v -0.123481 0.424438 0.418135
v -0.123481 0.417275 0.417920
v -0.123481 0.417341 0.418722
v -0.123481 0.424372 0.417333
v -0.123481 0.424372 0.417333
v -0.123481 0.424438 0.418135
v -0.123481 0.417275 0.417920
v -0.123481 0.417341 0.418722
v -0.123481 0.424438 0.418135
v -0.122399 0.424372 0.417333
v -0.123481 0.424372 0.417333
v -0.122399 0.424438 0.418135
v -0.122399 0.424438 0.418135
v -0.123481 0.424438 0.418135
v -0.122399 0.424372 0.417333
v -0.123481 0.424372 0.417333
v -0.122399 0.424372 0.417333
v -0.122399 0.423260 0.418233
v -0.122399 0.423194 0.417431
v -0.122399 0.424438 0.418135
v -0.122399 0.424438 0.418135
v -0.122399 0.424372 0.417333
v -0.122399 0.423260 0.418233
v -0.122399 0.423194 0.417431
v -0.122399 0.423260 0.418233
v -0.122372 0.423194 0.417431
v -0.122399 0.423194 0.417431
v -0.122372 0.423260 0.418233
v -0.122372 0.423260 0.418233
v -0.122399 0.423260 0.418233
v -0.122372 0.423194 0.417431
v -0.122399 0.423194 0.417431
v -0.121947 0.423848 0.418184
v -0.122372 0.423194 0.417431
v -0.122372 0.423260 0.418233
v -0.121947 0.423782 0.417382
v -0.121947 0.423782 0.417382
v -0.121947 0.423848 0.418184
v -0.122372 0.423194 0.417431
v -0.122372 0.423260 0.418233
v -0.121435 0.424202 0.417347
v -0.121435 0.424268 0.418149
v -0.121435 0.424268 0.418149
v -0.121435 0.424202 0.417347
v -0.120838 0.424454 0.417326
v -0.120838 0.424521 0.418128
v -0.120838 0.424521 0.418128
v -0.120838 0.424454 0.417326
v -0.120156 0.424538 0.417319
v -0.120156 0.424605 0.418121
v -0.120156 0.424605 0.418121
v -0.120156 0.424538 0.417319
v -0.119634 0.424491 0.417323
v -0.119634 0.424558 0.418125
v -0.119634 0.424558 0.418125
v -0.119634 0.424491 0.417323
v -0.119178 0.424417 0.418137
v -0.119178 0.424350 0.417335
v -0.119178 0.424417 0.418137
v -0.119178 0.424350 0.417335
v -0.118786 0.424115 0.417354
v -0.118786 0.424182 0.418156
v -0.118786 0.424182 0.418156
v -0.118786 0.424115 0.417354
v -0.118460 0.423786 0.417382
v -0.118460 0.423853 0.418184
v -0.118460 0.423853 0.418184
v -0.118460 0.423786 0.417382
v -0.118203 0.423435 0.418218
v -0.118203 0.423368 0.417416
v -0.118203 0.423435 0.418218
v -0.118203 0.423368 0.417416
v -0.118020 0.422933 0.418260
v -0.118020 0.422867 0.417458
v -0.118020 0.422933 0.418260
v -0.118020 0.422867 0.417458
v -0.117910 0.422348 0.418308
v -0.117910 0.422282 0.417506
v -0.117910 0.422348 0.418308
v -0.117910 0.422282 0.417506
v -0.117873 0.421680 0.418363
v -0.117873 0.421614 0.417561
v -0.117873 0.421680 0.418363
v -0.117873 0.421614 0.417561
v -0.117873 0.417341 0.418722
v -0.117873 0.417275 0.417920
v -0.117873 0.417341 0.418722
v -0.117873 0.417275 0.417920
v -0.117873 0.417341 0.418722
v -0.118955 0.421389 0.418388
v -0.118955 0.417341 0.418722
v -0.118786 0.424182 0.418156
v -0.118460 0.423853 0.418184
v -0.118203 0.423435 0.418218
v -0.118020 0.422933 0.418260
v -0.117910 0.422348 0.418308
v -0.117873 0.421680 0.418363
v -0.122266 0.422282 0.418314
v -0.122399 0.423260 0.418233
v -0.122399 0.421389 0.418388
v -0.122372 0.423260 0.418233
v -0.121947 0.423848 0.418184
v -0.122100 0.422666 0.418282
v -0.121868 0.423007 0.418254
v -0.121435 0.424268 0.418149
v -0.121584 0.423288 0.418230
v -0.121266 0.423488 0.418214
v -0.120838 0.424521 0.418128
v -0.120913 0.423608 0.418204
v -0.120525 0.423648 0.418201
v -0.120156 0.424605 0.418121
v -0.120157 0.423613 0.418204
v -0.119838 0.423507 0.418212
v -0.119634 0.424558 0.418125
v -0.119568 0.423330 0.418227
v -0.119178 0.424417 0.418137
v -0.119347 0.423083 0.418247
v -0.119053 0.422377 0.418306
v -0.122399 0.417341 0.418722
v -0.123481 0.424438 0.418135
v -0.123481 0.417341 0.418722
v -0.122399 0.424438 0.418135
v -0.122399 0.423260 0.418233
v -0.122399 0.421389 0.418388
v -0.122399 0.424438 0.418135
v -0.122399 0.417341 0.418722
v -0.123481 0.424438 0.418135
v -0.123481 0.417341 0.418722
v -0.118955 0.421389 0.418388
v -0.119053 0.422377 0.418306
v -0.118786 0.424182 0.418156
v -0.119178 0.424417 0.418137
v -0.119347 0.423083 0.418247
v -0.119568 0.423330 0.418227
v -0.119634 0.424558 0.418125
v -0.119838 0.423507 0.418212
v -0.120156 0.424605 0.418121
v -0.120157 0.423613 0.418204
v -0.120525 0.423648 0.418201
v -0.120838 0.424521 0.418128
v -0.120913 0.423608 0.418204
v -0.121266 0.423488 0.418214
v -0.121435 0.424268 0.418149
v -0.121584 0.423288 0.418230
v -0.121868 0.423007 0.418254
v -0.121947 0.423848 0.418184
v -0.122100 0.422666 0.418282
v -0.122266 0.422282 0.418314
v -0.122372 0.423260 0.418233
v -0.117873 0.421680 0.418363
v -0.117873 0.417341 0.418722
v -0.117910 0.422348 0.418308
v -0.118020 0.422933 0.418260
v -0.118203 0.423435 0.418218
v -0.118460 0.423853 0.418184
v -0.118955 0.417341 0.418722
vn 0 -0.08246839882108209 -0.9965936800902798
vn 0 0.08246839882108209 0.9965936800902798
vn 0 -0.9965936800902797 0.08246839882108213
vn 0 0.9965936800902797 -0.08246839882108213
vn -0.9987851426698975 -0.049109309102733804 0.004063808721469322
vn -1 0 0
vn 0.9987851426698975 0.049109309102733804 -0.004063808721469322
vn 1 0 0
vn -0.9699748178489338 -0.24237693622646708 0.020056757574406447
vn 0.9699748178489338 0.24237693622646708 -0.020056757574406447
vn -0.8476003710787351 -0.5288275885920399 0.04376062717922196
vn 0.8476003710787351 0.5288275885920399 -0.04376062717922196
vn -0.7468203704325833 -0.6627605240940012 0.05484361411854654
vn 0.7468203704325833 0.6627605240940012 -0.05484361411854654
vn -0.5486830258280242 -0.8331826770429164 0.06894609375304053
vn 0.5486830258280242 0.8331826770429164 -0.06894609375304053
vn -0.31611062368504766 -0.9454906856720023 0.0782396120960286
vn 0.31611062368504766 0.9454906856720023 -0.0782396120960286
vn -0.09581382946643976 -0.9920086233337193 0.0820889841240282
vn 0.09581382946643976 0.9920086233337193 -0.0820889841240282
vn 0.10301164384633449 -0.9912919514156898 0.08202967932735863
vn -0.10301164384633449 0.9912919514156898 -0.08202967932735863
vn 0.3231924547110342 -0.9431097452461923 0.07804258862645658
vn -0.3231924547110342 0.9431097452461923 -0.07804258862645658
vn 0.5341948333032537 -0.8424818188840628 0.06971560027648145
vn -0.5341948333032537 0.8424818188840628 -0.06971560027648145
vn 0.7050529097014003 -0.7067390964349185 0.058482852973707644
vn -0.7050529097014003 0.7067390964349185 -0.058482852973707644
vn 0.8770781400524678 -0.4787115062851149 0.03961350770053598
vn 0.8277068299696315 -0.5592492714219001 0.046278029730073014
vn -0.8277068299696315 0.5592492714219001 -0.046278029730073014
vn -0.8770781400524678 0.4787115062851149 -0.03961350770053598
vn 0.9619859483375203 -0.27216868525566357 0.022522032931455407
vn -0.9619859483375203 0.27216868525566357 -0.022522032931455407
vn 0.9973005659387025 -0.07317726994304516 0.006055439044881678
vn -0.9973005659387025 0.07317726994304516 -0.006055439044881678
vn -0.7302684252013757 0.6808332605597748 -0.0563391379899328
vn -0.8111730713530033 0.582814126148316 -0.04822802788535219
vn 0.7302684252013757 -0.6808332605597748 0.0563391379899328
vn 0.8111730713530033 -0.582814126148316 0.04822802788535219
vn -0.5193533652658389 0.851648680313918 -0.07047416055981219
vn 0.5193533652658389 -0.851648680313918 0.07047416055981219
vn -0.2592943587603389 0.9625085229012186 -0.07964784276789492
vn 0.2592943587603389 -0.9625085229012186 0.07964784276789492
vn -0.016367633255557016 0.9964601777147457 -0.0824573514630976
vn 0.016367633255557016 -0.9964601777147457 0.0824573514630976
vn 0.1943273766017875 0.9775953469258846 -0.08089628157045378
vn -0.1943273766017875 -0.9775953469258846 0.08089628157045378
vn 0.4095746794806055 0.909169086964847 -0.07523398989729096
vn -0.4095746794806055 -0.909169086964847 0.07523398989729096
vn 0.6191414643776548 0.7826045575950088 -0.06476074057493039
vn -0.6191414643776548 -0.7826045575950088 0.06476074057493039
vn 0.7876014966733297 0.6140860187136181 -0.050815785523682606
vn -0.7876014966733297 -0.6140860187136181 0.050815785523682606
vn 0.9007425763403808 0.43287377888406947 -0.03582042325711573
vn -0.9007425763403808 -0.43287377888406947 0.03582042325711573
vn 0.9644675374858874 0.2633014254697471 -0.02178826476586881
vn -0.9644675374858874 -0.2633014254697471 0.02178826476586881
vn 0.9928123023939737 0.119274121188168 -0.009869966057068415
vn -0.9928123023939737 -0.119274121188168 0.009869966057068415
vn 0.9996267931841327 0.027224968486626117 -0.0022528735671323175
vn -0.9996267931841327 -0.027224968486626117 0.0022528735671323175
usemtl material_0_0
f 1//1 2//1 3//1
f 2//1 1//1 4//1
f 4//1 1//1 5//1
f 4//1 5//1 6//1
f 6//1 5//1 7//1
f 7//1 5//1 8//1
f 7//1 8//1 9//1
f 9//1 8//1 10//1
f 10//1 8//1 11//1
f 10//1 11//1 12//1
f 12//1 11//1 13//1
f 13//1 11//1 14//1
f 13//1 14//1 15//1
f 15//1 14//1 16//1
f 16//1 14//1 17//1
f 16//1 17//1 18//1
f 18//1 17//1 19//1
f 18//1 19//1 20//1
f 20//1 19//1 21//1
f 21//1 19//1 22//1
f 21//1 22//1 23//1
f 23//1 22//1 24//1
f 24//1 22//1 25//1
f 25//1 22//1 26//1
f 25//1 26//1 27//1
f 25//1 27//1 28//1
f 25//1 28//1 29//1
f 25//1 29//1 30//1
f 31//1 32//1 33//1
f 32//1 31//1 34//1
f 34//1 31//1 3//1
f 34//1 3//1 2//1
f 35//2 36//2 37//2
f 36//2 38//2 37//2
f 37//2 38//2 39//2
f 40//2 39//2 38//2
f 41//2 42//2 43//2
f 42//2 44//2 43//2
f 44//2 45//2 43//2
f 45//2 46//2 43//2
f 46//2 47//2 43//2
f 43//2 47//2 48//2
f 48//2 47//2 49//2
f 49//2 47//2 50//2
f 47//2 51//2 50//2
f 50//2 51//2 52//2
f 52//2 51//2 53//2
f 51//2 54//2 53//2
f 53//2 54//2 55//2
f 54//2 56//2 55//2
f 55//2 56//2 57//2
f 57//2 56//2 58//2
f 56//2 59//2 58//2
f 58//2 59//2 60//2
f 60//2 59//2 61//2
f 59//2 62//2 61//2
f 61//2 62//2 63//2
f 63//2 62//2 64//2
f 62//2 65//2 64//2
f 64//2 65//2 66//2
f 66//2 65//2 67//2
f 65//2 68//2 67//2
f 67//2 68//2 35//2
f 36//2 35//2 68//2
f 69//3 70//3 71//3
f 70//3 69//3 72//3
f 73//4 74//4 75//4
f 76//4 75//4 74//4
f 77//5 78//6 79//6
f 78//6 77//5 80//5
f 81//7 82//7 83//8
f 84//8 83//8 82//7
f 77//5 85//9 80//5
f 85//9 77//5 86//9
f 87//10 82//7 88//10
f 81//7 88//10 82//7
f 89//11 85//9 86//9
f 85//9 89//11 90//11
f 91//12 92//12 88//10
f 87//10 88//10 92//12
f 93//13 90//11 89//11
f 90//11 93//13 94//13
f 95//14 96//14 91//12
f 92//12 91//12 96//14
f 97//15 98//15 99//15
f 98//15 97//15 100//15
f 101//16 102//16 103//16
f 104//16 103//16 102//16
f 105//17 106//17 107//17
f 106//17 105//17 108//17
f 109//18 110//18 111//18
f 112//18 111//18 110//18
f 113//19 114//19 115//19
f 114//19 113//19 116//19
f 117//20 118//20 119//20
f 120//20 119//20 118//20
f 121//21 122//21 123//21
f 122//21 121//21 124//21
f 125//22 126//22 127//22
f 128//22 127//22 126//22
f 129//23 130//23 131//23
f 130//23 129//23 132//23
f 133//24 134//24 135//24
f 136//24 135//24 134//24
f 137//25 138//25 139//25
f 138//25 137//25 140//25
f 141//26 142//26 143//26
f 144//26 143//26 142//26
f 145//27 146//27 147//27
f 146//27 145//27 148//27
f 149//28 150//28 151//28
f 152//28 151//28 150//28
f 153//29 154//30 155//29
f 154//30 153//29 156//30
f 157//31 158//32 159//31
f 160//32 159//31 158//32
f 161//33 155//29 162//33
f 155//29 161//33 153//29
f 158//32 163//34 160//32
f 164//34 160//32 163//34
f 161//33 165//35 166//35
f 165//35 161//33 162//33
f 164//34 163//34 167//36
f 168//36 167//36 163//34
f 166//35 169//8 170//8
f 169//8 166//35 165//35
f 167//36 168//36 171//6
f 172//6 171//6 168//36
f 173//3 174//3 175//3
f 174//3 173//3 176//3
f 177//4 178//4 179//4
f 180//4 179//4 178//4
f 181//6 182//6 183//6
f 182//6 181//6 184//6
f 185//8 186//8 187//8
f 188//8 187//8 186//8
f 189//4 190//4 191//4
f 190//4 189//4 192//4
f 193//3 194//3 195//3
f 196//3 195//3 194//3
f 197//8 198//8 199//8
f 198//8 197//8 200//8
f 201//6 202//6 203//6
f 204//6 203//6 202//6
f 205//4 206//4 207//4
f 206//4 205//4 208//4
f 209//3 210//3 211//3
f 212//3 211//3 210//3
f 213//37 214//38 215//38
f 214//38 213//37 216//37
f 217//39 218//39 219//40
f 220//40 219//40 218//39
f 213//37 221//41 216//37
f 221//41 213//37 222//41
f 223//42 218//39 224//42
f 217//39 224//42 218//39
f 222//41 225//43 221//41
f 225//43 222//41 226//43
f 227//44 223//42 228//44
f 224//42 228//44 223//42
f 226//43 229//45 225//43
f 229//45 226//43 230//45
f 231//46 227//44 232//46
f 228//44 232//46 227//44
f 230//45 233//47 229//45
f 233//47 230//45 234//47
f 235//48 231//46 236//48
f 232//46 236//48 231//46
f 233//47 237//49 238//49
f 237//49 233//47 234//47
f 235//48 236//48 239//50
f 240//50 239//50 236//48
f 237//49 241//51 238//49
f 241//51 237//49 242//51
f 243//52 239//50 244//52
f 240//50 244//52 239//50
f 242//51 245//53 241//51
f 245//53 242//51 246//53
f 247//54 243//52 248//54
f 244//52 248//54 243//52
f 245//53 249//55 250//55
f 249//55 245//53 246//53
f 247//54 248//54 251//56
f 252//56 251//56 248//54
f 250//55 253//57 254//57
f 253//57 250//55 249//55
f 251//56 252//56 255//58
f 256//58 255//58 252//56
f 254//57 257//59 258//59
f 257//59 254//57 253//57
f 255//58 256//58 259//60
f 260//60 259//60 256//58
f 258//59 261//61 262//61
f 261//61 258//59 257//59
f 259//60 260//60 263//62
f 264//62 263//62 260//60
f 262//61 265//8 266//8
f 265//8 262//61 261//61
f 263//62 264//62 267//6
f 268//6 267//6 264//62
f 269//2 270//2 271//2
f 270//2 269//2 272//2
f 272//2 269//2 273//2
f 273//2 269//2 274//2
f 274//2 269//2 275//2
f 275//2 269//2 276//2
f 276//2 269//2 277//2
f 278//2 279//2 280//2
f 279//2 278//2 281//2
f 281//2 278//2 282//2
f 282//2 278//2 283//2
f 282//2 283//2 284//2
f 282//2 284//2 285//2
f 285//2 284//2 286//2
f 285//2 286//2 287//2
f 285//2 287//2 288//2
f 288//2 287//2 289//2
f 288//2 289//2 290//2
f 288//2 290//2 291//2
f 291//2 290//2 292//2
f 291//2 292//2 293//2
f 291//2 293//2 294//2
f 294//2 293//2 295//2
f 294//2 295//2 296//2
f 296//2 295//2 297//2
f 296//2 297//2 298//2
f 296//2 298//2 272//2
f 272//2 298//2 270//2
f 299//2 300//2 301//2
f 300//2 299//2 302//2
f 302//2 299//2 280//2
f 302//2 280//2 279//2
f 303//1 304//1 305//1
f 304//1 306//1 305//1
f 305//1 306//1 307//1
f 308//1 307//1 306//1
f 309//1 310//1 311//1
f 311//1 310//1 312//1
f 310//1 313//1 312//1
f 313//1 314//1 312//1
f 312//1 314//1 315//1
f 314//1 316//1 315//1
f 315//1 316//1 317//1
f 316//1 318//1 317//1
f 318//1 319//1 317//1
f 317//1 319//1 320//1
f 319//1 321//1 320//1
f 321//1 322//1 320//1
f 320//1 322//1 323//1
f 322//1 324//1 323//1
f 324//1 325//1 323//1
f 323//1 325//1 326//1
f 325//1 327//1 326//1
f 327//1 328//1 326//1
f 326//1 328//1 329//1
f 329//1 328//1 303//1
f 304//1 303//1 328//1
f 330//1 331//1 332//1
f 332//1 331//1 333//1
f 333//1 331//1 334//1
f 334//1 331//1 335//1
f 335//1 331//1 311//1
f 311//1 331//1 309//1
f 336//1 309//1 331//1
