# SSTK version 0.8.0
# 30
mtllib original-30.mtl
o #ID144
v -0.469509 0.603253 0.341166
v 0.447012 0.603253 -0.461566
v -0.469509 0.603253 -0.461566
v -0.469375 0.603253 0.342945
v -0.468975 0.603253 0.344693
v -0.468315 0.603253 0.346381
v -0.467407 0.603253 0.347980
v -0.466267 0.603253 0.349462
v -0.464914 0.603253 0.350802
v -0.463371 0.603253 0.351978
v -0.461665 0.603253 0.352968
v -0.459824 0.603253 0.353757
v -0.457881 0.603253 0.354330
v -0.455868 0.603253 0.354677
v -0.453821 0.603253 0.354794
v 0.431846 0.603253 0.354794
v 0.433870 0.603253 0.354676
v 0.435856 0.603253 0.354325
v 0.437772 0.603253 0.353747
v 0.439582 0.603253 0.352953
v 0.441253 0.603253 0.351956
v 0.442756 0.603253 0.350774
v 0.444065 0.603253 0.349429
v 0.445156 0.603253 0.347944
v 0.446009 0.603253 0.346346
v 0.446609 0.603253 0.344663
v 0.446945 0.603253 0.342926
v 0.447012 0.603253 0.341166
v 0.447012 0.603253 0.341166
v 0.446945 0.603253 0.342926
v 0.447012 0.603253 -0.461566
v 0.446609 0.603253 0.344663
v 0.446009 0.603253 0.346346
v 0.445156 0.603253 0.347944
v 0.444065 0.603253 0.349429
v 0.442756 0.603253 0.350774
v 0.441253 0.603253 0.351956
v 0.439582 0.603253 0.352953
v 0.437772 0.603253 0.353747
v 0.435856 0.603253 0.354325
v 0.433870 0.603253 0.354676
v 0.431846 0.603253 0.354794
v -0.453821 0.603253 0.354794
v -0.455868 0.603253 0.354677
v -0.457881 0.603253 0.354330
v -0.459824 0.603253 0.353757
v -0.461665 0.603253 0.352968
v -0.463371 0.603253 0.351978
v -0.464914 0.603253 0.350802
v -0.466267 0.603253 0.349462
v -0.467407 0.603253 0.347980
v -0.468315 0.603253 0.346381
v -0.468975 0.603253 0.344693
v -0.469375 0.603253 0.342945
v -0.469509 0.603253 0.341166
v -0.469509 0.603253 -0.461566
v -0.453821 0.606473 0.354794
v 0.431846 0.603253 0.354794
v -0.453821 0.603253 0.354794
v 0.431846 0.606473 0.354794
v 0.431846 0.606473 0.354794
v -0.453821 0.606473 0.354794
v 0.431846 0.603253 0.354794
v -0.453821 0.603253 0.354794
v 0.433870 0.603253 0.354676
v 0.433870 0.606473 0.354676
v 0.433870 0.606473 0.354676
v 0.433870 0.603253 0.354676
v 0.435856 0.603253 0.354325
v 0.435856 0.606473 0.354325
v 0.435856 0.606473 0.354325
v 0.435856 0.603253 0.354325
v 0.437772 0.603253 0.353747
v 0.437772 0.606473 0.353747
v 0.437772 0.606473 0.353747
v 0.437772 0.603253 0.353747
v 0.439582 0.603253 0.352953
v 0.439582 0.606473 0.352953
v 0.439582 0.606473 0.352953
v 0.439582 0.603253 0.352953
v 0.441253 0.603253 0.351956
v 0.441253 0.606473 0.351956
v 0.441253 0.606473 0.351956
v 0.441253 0.603253 0.351956
v 0.442756 0.603253 0.350774
v 0.442756 0.606473 0.350774
v 0.442756 0.606473 0.350774
v 0.442756 0.603253 0.350774
v 0.444065 0.606473 0.349429
v 0.444065 0.603253 0.349429
v 0.444065 0.603253 0.349429
v 0.444065 0.606473 0.349429
v 0.445156 0.606473 0.347944
v 0.445156 0.603253 0.347944
v 0.445156 0.603253 0.347944
v 0.445156 0.606473 0.347944
v 0.446009 0.606473 0.346346
v 0.446009 0.603253 0.346346
v 0.446009 0.603253 0.346346
v 0.446009 0.606473 0.346346
v 0.446609 0.606473 0.344663
v 0.446609 0.603253 0.344663
v 0.446609 0.603253 0.344663
v 0.446609 0.606473 0.344663
v 0.446945 0.606473 0.342926
v 0.446945 0.603253 0.342926
v 0.446945 0.603253 0.342926
v 0.446945 0.606473 0.342926
v 0.447012 0.606473 0.341166
v 0.447012 0.603253 0.341166
v 0.447012 0.603253 0.341166
v 0.447012 0.606473 0.341166
v 0.447012 0.606473 -0.461566
v 0.447012 0.603253 -0.461566
v 0.447012 0.603253 -0.461566
v 0.447012 0.606473 -0.461566
v 0.447012 0.606473 -0.461566
v -0.469509 0.603253 -0.461566
v 0.447012 0.603253 -0.461566
v -0.469509 0.606473 -0.461566
v -0.469509 0.606473 -0.461566
v 0.447012 0.606473 -0.461566
v -0.469509 0.603253 -0.461566
v 0.447012 0.603253 -0.461566
v -0.469509 0.603253 -0.461566
v -0.469509 0.606473 0.341166
v -0.469509 0.603253 0.341166
v -0.469509 0.606473 -0.461566
v -0.469509 0.606473 -0.461566
v -0.469509 0.603253 -0.461566
v -0.469509 0.606473 0.341166
v -0.469509 0.603253 0.341166
v -0.469375 0.606473 0.342945
v -0.469375 0.603253 0.342945
v -0.469375 0.606473 0.342945
v -0.469375 0.603253 0.342945
v -0.468975 0.606473 0.344693
v -0.468975 0.603253 0.344693
v -0.468975 0.606473 0.344693
v -0.468975 0.603253 0.344693
v -0.468315 0.606473 0.346381
v -0.468315 0.603253 0.346381
v -0.468315 0.606473 0.346381
v -0.468315 0.603253 0.346381
v -0.467407 0.606473 0.347980
v -0.467407 0.603253 0.347980
v -0.467407 0.606473 0.347980
v -0.467407 0.603253 0.347980
v -0.466267 0.606473 0.349462
v -0.466267 0.603253 0.349462
v -0.466267 0.606473 0.349462
v -0.466267 0.603253 0.349462
v -0.464914 0.606473 0.350802
v -0.464914 0.603253 0.350802
v -0.464914 0.606473 0.350802
v -0.464914 0.603253 0.350802
v -0.463371 0.603253 0.351978
v -0.463371 0.606473 0.351978
v -0.463371 0.606473 0.351978
v -0.463371 0.603253 0.351978
v -0.461665 0.603253 0.352968
v -0.461665 0.606473 0.352968
v -0.461665 0.606473 0.352968
v -0.461665 0.603253 0.352968
v -0.459824 0.603253 0.353757
v -0.459824 0.606473 0.353757
v -0.459824 0.606473 0.353757
v -0.459824 0.603253 0.353757
v -0.457881 0.603253 0.354330
v -0.457881 0.606473 0.354330
v -0.457881 0.606473 0.354330
v -0.457881 0.603253 0.354330
v -0.455868 0.603253 0.354677
v -0.455868 0.606473 0.354677
v -0.455868 0.606473 0.354677
v -0.455868 0.603253 0.354677
vn 0 1 0
vn 0 -1 0
vn 0.028425228626570834 0 -0.9995959215490663
vn -0.029038154823959487 0 -0.9995783038683961
vn 0.029038154823959487 0 0.9995783038683961
vn -0.028425228626570834 0 0.9995959215490663
vn -0.11606588170168199 0 -0.993241517006217
vn 0.11606588170168199 0 0.993241517006217
vn -0.23155021174933987 0 -0.972822953799321
vn 0.23155021174933987 0 0.972822953799321
vn -0.34573447043984135 0 -0.9383323909733068
vn 0.34573447043984135 0 0.9383323909733068
vn -0.4576255652011259 0 -0.889145006213469
vn 0.4576255652011259 0 0.889145006213469
vn -0.5658196037180114 0 -0.8245290631920699
vn 0.5658196037180114 0 0.8245290631920699
vn -0.6683836386316844 0 -0.7438167190978364
vn 0.6683836386316844 0 0.7438167190978364
vn -0.7627864658094504 0 -0.6466504523913429
vn 0.7627864658094504 0 0.6466504523913429
vn -0.8459281106180997 0 -0.5332969451122819
vn 0.8459281106180997 0 0.5332969451122819
vn -0.91432437758181 0 -0.40498263241728766
vn 0.91432437758181 0 0.40498263241728766
vn -0.9644790445662799 0 -0.2641593696852641
vn 0.9644790445662799 0 0.2641593696852641
vn -0.9934150955096543 0 -0.11457071184881537
vn 0.9934150955096543 0 0.11457071184881537
vn -0.9998197502422294 0 -0.01898596917637336
vn 0.9998197502422294 0 0.01898596917637336
vn -1 0 0
vn 1 0 0
vn 0 0 1
vn 0 0 -1
vn 0.9992906127553384 0 -0.03765994236666059
vn -0.9992906127553384 0 0.03765994236666059
vn 0.9887090024593818 0 -0.14984828479423615
vn -0.9887090024593818 0 0.14984828479423615
vn 0.9555711027252664 0 -0.29476069554202505
vn -0.9555711027252664 0 0.29476069554202505
vn 0.9026305860268979 0 -0.4304161070043018
vn -0.9026305860268979 0 0.4304161070043018
vn 0.8328243311912624 0 -0.5535373820943139
vn -0.8328243311912624 0 0.5535373820943139
vn 0.7494656241647769 0 -0.6620432600633446
vn -0.7494656241647769 0 0.6620432600633446
vn 0.6557860439390417 0 -0.7549467958570201
vn -0.6557860439390417 0 0.7549467958570201
vn 0.5546272972442703 0 -0.8320988890459571
vn -0.5546272972442703 0 0.8320988890459571
vn 0.4482977044275436 0 -0.8938843147773624
vn -0.4482977044275436 0 0.8938843147773624
vn 0.33855904746016424 0 -0.9409451479139824
vn -0.33855904746016424 0 0.9409451479139824
vn 0.2266949889404935 0 -0.9739658012421532
vn -0.2266949889404935 0 0.9739658012421532
vn 0.11361964762650277 0 -0.9935243206249303
vn -0.11361964762650277 0 0.9935243206249303
usemtl material_0_0
f 1//1 2//1 3//1
f 2//1 1//1 4//1
f 2//1 4//1 5//1
f 2//1 5//1 6//1
f 2//1 6//1 7//1
f 2//1 7//1 8//1
f 2//1 8//1 9//1
f 2//1 9//1 10//1
f 2//1 10//1 11//1
f 2//1 11//1 12//1
f 2//1 12//1 13//1
f 2//1 13//1 14//1
f 2//1 14//1 15//1
f 2//1 15//1 16//1
f 2//1 16//1 17//1
f 2//1 17//1 18//1
f 2//1 18//1 19//1
f 2//1 19//1 20//1
f 2//1 20//1 21//1
f 2//1 21//1 22//1
f 2//1 22//1 23//1
f 2//1 23//1 24//1
f 2//1 24//1 25//1
f 2//1 25//1 26//1
f 2//1 26//1 27//1
f 2//1 27//1 28//1
f 29//2 30//2 31//2
f 30//2 32//2 31//2
f 32//2 33//2 31//2
f 33//2 34//2 31//2
f 34//2 35//2 31//2
f 35//2 36//2 31//2
f 36//2 37//2 31//2
f 37//2 38//2 31//2
f 38//2 39//2 31//2
f 39//2 40//2 31//2
f 40//2 41//2 31//2
f 41//2 42//2 31//2
f 42//2 43//2 31//2
f 43//2 44//2 31//2
f 44//2 45//2 31//2
f 45//2 46//2 31//2
f 46//2 47//2 31//2
f 47//2 48//2 31//2
f 48//2 49//2 31//2
f 49//2 50//2 31//2
f 50//2 51//2 31//2
f 51//2 52//2 31//2
f 52//2 53//2 31//2
f 53//2 54//2 31//2
f 54//2 55//2 31//2
f 56//2 31//2 55//2
f 57//3 58//4 59//3
f 58//4 57//3 60//4
f 61//5 62//6 63//5
f 64//6 63//5 62//6
f 60//4 65//7 58//4
f 65//7 60//4 66//7
f 67//8 61//5 68//8
f 63//5 68//8 61//5
f 66//7 69//9 65//7
f 69//9 66//7 70//9
f 71//10 67//8 72//10
f 68//8 72//10 67//8
f 70//9 73//11 69//9
f 73//11 70//9 74//11
f 75//12 71//10 76//12
f 72//10 76//12 71//10
f 74//11 77//13 73//11
f 77//13 74//11 78//13
f 79//14 75//12 80//14
f 76//12 80//14 75//12
f 78//13 81//15 77//13
f 81//15 78//13 82//15
f 83//16 79//14 84//16
f 80//14 84//16 79//14
f 82//15 85//17 81//15
f 85//17 82//15 86//17
f 87//18 83//16 88//18
f 84//16 88//18 83//16
f 89//19 85//17 86//17
f 85//17 89//19 90//19
f 91//20 92//20 88//18
f 87//18 88//18 92//20
f 93//21 90//19 89//19
f 90//19 93//21 94//21
f 95//22 96//22 91//20
f 92//20 91//20 96//22
f 97//23 94//21 93//21
f 94//21 97//23 98//23
f 99//24 100//24 95//22
f 96//22 95//22 100//24
f 101//25 98//23 97//23
f 98//23 101//25 102//25
f 103//26 104//26 99//24
f 100//24 99//24 104//26
f 105//27 102//25 101//25
f 102//25 105//27 106//27
f 107//28 108//28 103//26
f 104//26 103//26 108//28
f 109//29 106//27 105//27
f 106//27 109//29 110//29
f 111//30 112//30 107//28
f 108//28 107//28 112//30
f 113//31 110//29 109//29
f 110//29 113//31 114//31
f 115//32 116//32 111//30
f 112//30 111//30 116//32
f 117//33 118//33 119//33
f 118//33 117//33 120//33
f 121//34 122//34 123//34
f 124//34 123//34 122//34
f 125//32 126//35 127//35
f 126//35 125//32 128//32
f 129//31 130//31 131//36
f 132//36 131//36 130//31
f 127//35 133//37 134//37
f 133//37 127//35 126//35
f 131//36 132//36 135//38
f 136//38 135//38 132//36
f 134//37 137//39 138//39
f 137//39 134//37 133//37
f 135//38 136//38 139//40
f 140//40 139//40 136//38
f 138//39 141//41 142//41
f 141//41 138//39 137//39
f 139//40 140//40 143//42
f 144//42 143//42 140//40
f 142//41 145//43 146//43
f 145//43 142//41 141//41
f 143//42 144//42 147//44
f 148//44 147//44 144//42
f 146//43 149//45 150//45
f 149//45 146//43 145//43
f 147//44 148//44 151//46
f 152//46 151//46 148//44
f 150//45 153//47 154//47
f 153//47 150//45 149//45
f 151//46 152//46 155//48
f 156//48 155//48 152//46
f 153//47 157//49 154//47
f 157//49 153//47 158//49
f 159//50 155//48 160//50
f 156//48 160//50 155//48
f 158//49 161//51 157//49
f 161//51 158//49 162//51
f 163//52 159//50 164//52
f 160//50 164//52 159//50
f 162//51 165//53 161//51
f 165//53 162//51 166//53
f 167//54 163//52 168//54
f 164//52 168//54 163//52
f 166//53 169//55 165//53
f 169//55 166//53 170//55
f 171//56 167//54 172//56
f 168//54 172//56 167//54
f 170//55 173//57 169//55
f 173//57 170//55 174//57
f 175//58 171//56 176//58
f 172//56 176//58 171//56
f 174//57 59//3 173//57
f 59//3 174//57 57//3
f 62//6 175//58 64//6
f 176//58 64//6 175//58
