# SSTK version 0.8.0
# 150
mtllib original-150.mtl
o #ID869
v 0.090706 0.470644 0.413504
v 0.090943 0.468984 0.413641
v 0.090901 0.468501 0.413681
v 0.091260 0.470986 0.413476
v 0.091067 0.469411 0.413606
v 0.091275 0.469784 0.413575
v 0.091905 0.471231 0.413456
v 0.091566 0.470102 0.413549
v 0.091929 0.470355 0.413528
v 0.092638 0.471377 0.413443
v 0.092351 0.470537 0.413513
v 0.092833 0.470645 0.413504
v 0.093461 0.471426 0.413439
v 0.093374 0.470682 0.413501
v 0.093916 0.470647 0.413504
v 0.094244 0.471379 0.413443
v 0.094391 0.470541 0.413513
v 0.094936 0.471236 0.413455
v 0.094800 0.470366 0.413527
v 0.095143 0.470120 0.413547
v 0.095537 0.470998 0.413475
v 0.095413 0.469810 0.413573
v 0.095606 0.469440 0.413604
v 0.096047 0.470665 0.413502
v 0.095722 0.469011 0.413639
v 0.095761 0.468523 0.413680
v 0.095974 0.466437 0.413852
v 0.096413 0.466868 0.413817
v 0.096453 0.470248 0.413537
v 0.096726 0.467365 0.413775
v 0.096744 0.469757 0.413577
v 0.096913 0.467927 0.413729
v 0.096918 0.469193 0.413624
v 0.096976 0.468555 0.413677
v 0.089750 0.469127 0.413630
v 0.089747 0.467861 0.413734
v 0.089686 0.468469 0.413684
v 0.089931 0.467316 0.413779
v 0.089941 0.469709 0.413581
v 0.090237 0.466834 0.413819
v 0.090260 0.470215 0.413540
v 0.090666 0.466416 0.413854
v 0.090943 0.468036 0.413720
v 0.091197 0.466077 0.413882
v 0.091069 0.467623 0.413754
v 0.091279 0.467262 0.413784
v 0.091811 0.465835 0.413902
v 0.091574 0.466953 0.413810
v 0.091938 0.466705 0.413830
v 0.092508 0.465690 0.413914
v 0.092360 0.466528 0.413845
v 0.092839 0.466421 0.413854
v 0.093288 0.465641 0.413918
v 0.093374 0.466386 0.413856
v 0.094087 0.465691 0.413914
v 0.093916 0.466421 0.413854
v 0.094391 0.466525 0.413845
v 0.094802 0.465840 0.413902
v 0.094800 0.466699 0.413831
v 0.095143 0.466942 0.413810
v 0.095431 0.466089 0.413881
v 0.095413 0.467249 0.413785
v 0.095606 0.467615 0.413755
v 0.095722 0.468040 0.413720
v 0.095761 0.468523 0.413680
v 0.095722 0.468040 0.413720
v 0.095974 0.466437 0.413852
v 0.095606 0.467615 0.413755
v 0.095431 0.466089 0.413881
v 0.095413 0.467249 0.413785
v 0.095143 0.466942 0.413810
v 0.094802 0.465840 0.413902
v 0.094800 0.466699 0.413831
v 0.094391 0.466525 0.413845
v 0.094087 0.465691 0.413914
v 0.093916 0.466421 0.413854
v 0.093374 0.466386 0.413856
v 0.093288 0.465641 0.413918
v 0.092839 0.466421 0.413854
v 0.092508 0.465690 0.413914
v 0.092360 0.466528 0.413845
v 0.091938 0.466705 0.413830
v 0.091811 0.465835 0.413902
v 0.091574 0.466953 0.413810
v 0.091279 0.467262 0.413784
v 0.091197 0.466077 0.413882
v 0.091069 0.467623 0.413754
v 0.090943 0.468036 0.413720
v 0.090901 0.468501 0.413681
v 0.090706 0.470644 0.413504
v 0.090666 0.466416 0.413854
v 0.090260 0.470215 0.413540
v 0.090237 0.466834 0.413819
v 0.089941 0.469709 0.413581
v 0.089931 0.467316 0.413779
v 0.089750 0.469127 0.413630
v 0.089747 0.467861 0.413734
v 0.089686 0.468469 0.413684
v 0.096976 0.468555 0.413677
v 0.096918 0.469193 0.413624
v 0.096913 0.467927 0.413729
v 0.096744 0.469757 0.413577
v 0.096726 0.467365 0.413775
v 0.096453 0.470248 0.413537
v 0.096413 0.466868 0.413817
v 0.096047 0.470665 0.413502
v 0.095722 0.469011 0.413639
v 0.095606 0.469440 0.413604
v 0.095537 0.470998 0.413475
v 0.095413 0.469810 0.413573
v 0.095143 0.470120 0.413547
v 0.094936 0.471236 0.413455
v 0.094800 0.470366 0.413527
v 0.094391 0.470541 0.413513
v 0.094244 0.471379 0.413443
v 0.093916 0.470647 0.413504
v 0.093461 0.471426 0.413439
v 0.093374 0.470682 0.413501
v 0.092833 0.470645 0.413504
v 0.092638 0.471377 0.413443
v 0.092351 0.470537 0.413513
v 0.091929 0.470355 0.413528
v 0.091905 0.471231 0.413456
v 0.091566 0.470102 0.413549
v 0.091275 0.469784 0.413575
v 0.091260 0.470986 0.413476
v 0.091067 0.469411 0.413606
v 0.090943 0.468984 0.413641
v 0.093288 0.465708 0.414720
v 0.092508 0.465690 0.413914
v 0.093288 0.465641 0.413918
v 0.092508 0.465756 0.414716
v 0.092508 0.465756 0.414716
v 0.093288 0.465708 0.414720
v 0.092508 0.465690 0.413914
v 0.093288 0.465641 0.413918
v 0.091811 0.465835 0.413902
v 0.091811 0.465901 0.414704
v 0.091811 0.465901 0.414704
v 0.091811 0.465835 0.413902
v 0.091197 0.466077 0.413882
v 0.091197 0.466143 0.414684
v 0.091197 0.466143 0.414684
v 0.091197 0.466077 0.413882
v 0.090666 0.466416 0.413854
v 0.090666 0.466482 0.414656
v 0.090666 0.466482 0.414656
v 0.090666 0.466416 0.413854
v 0.090237 0.466901 0.414621
v 0.090237 0.466834 0.413819
v 0.090237 0.466834 0.413819
v 0.090237 0.466901 0.414621
v 0.089931 0.467383 0.414582
v 0.089931 0.467316 0.413779
v 0.089931 0.467316 0.413779
v 0.089931 0.467383 0.414582
v 0.089747 0.467927 0.414536
v 0.089747 0.467861 0.413734
v 0.089747 0.467861 0.413734
v 0.089747 0.467927 0.414536
v 0.089686 0.468535 0.414486
v 0.089686 0.468469 0.413684
v 0.089686 0.468469 0.413684
v 0.089686 0.468535 0.414486
v 0.089750 0.469193 0.414432
v 0.089750 0.469127 0.413630
v 0.089750 0.469127 0.413630
v 0.089750 0.469193 0.414432
v 0.089941 0.469709 0.413581
v 0.089941 0.469775 0.414384
v 0.089941 0.469775 0.414384
v 0.089941 0.469709 0.413581
v 0.090260 0.470281 0.414342
v 0.090260 0.470215 0.413540
v 0.090260 0.470215 0.413540
v 0.090260 0.470281 0.414342
v 0.090706 0.470710 0.414306
v 0.090706 0.470644 0.413504
v 0.090706 0.470644 0.413504
v 0.090706 0.470710 0.414306
v 0.091260 0.470986 0.413476
v 0.091260 0.471053 0.414278
v 0.091260 0.471053 0.414278
v 0.091260 0.470986 0.413476
v 0.091905 0.471231 0.413456
v 0.091905 0.471297 0.414258
v 0.091905 0.471297 0.414258
v 0.091905 0.471231 0.413456
v 0.092638 0.471377 0.413443
v 0.092638 0.471444 0.414245
v 0.092638 0.471444 0.414245
v 0.092638 0.471377 0.413443
v 0.093461 0.471426 0.413439
v 0.093461 0.471493 0.414241
v 0.093461 0.471493 0.414241
v 0.093461 0.471426 0.413439
v 0.094244 0.471445 0.414245
v 0.094244 0.471379 0.413443
v 0.094244 0.471445 0.414245
v 0.094244 0.471379 0.413443
v 0.094936 0.471236 0.413455
v 0.094936 0.471303 0.414257
v 0.094936 0.471303 0.414257
v 0.094936 0.471236 0.413455
v 0.095537 0.470998 0.413475
v 0.095537 0.471065 0.414277
v 0.095537 0.471065 0.414277
v 0.095537 0.470998 0.413475
v 0.096047 0.470665 0.413502
v 0.096047 0.470732 0.414304
v 0.096047 0.470732 0.414304
v 0.096047 0.470665 0.413502
v 0.096453 0.470315 0.414339
v 0.096453 0.470248 0.413537
v 0.096453 0.470315 0.414339
v 0.096453 0.470248 0.413537
v 0.096744 0.469824 0.414380
v 0.096744 0.469757 0.413577
v 0.096744 0.469824 0.414380
v 0.096744 0.469757 0.413577
v 0.096918 0.469193 0.413624
v 0.096918 0.469260 0.414426
v 0.096918 0.469193 0.413624
v 0.096918 0.469260 0.414426
v 0.096976 0.468555 0.413677
v 0.096976 0.468622 0.414479
v 0.096976 0.468555 0.413677
v 0.096976 0.468622 0.414479
v 0.096913 0.467994 0.414531
v 0.096913 0.467927 0.413729
v 0.096913 0.467994 0.414531
v 0.096913 0.467927 0.413729
v 0.096726 0.467365 0.413775
v 0.096726 0.467431 0.414578
v 0.096726 0.467365 0.413775
v 0.096726 0.467431 0.414578
v 0.096413 0.466934 0.414619
v 0.096413 0.466868 0.413817
v 0.096413 0.466934 0.414619
v 0.096413 0.466868 0.413817
v 0.095974 0.466504 0.414654
v 0.095974 0.466437 0.413852
v 0.095974 0.466504 0.414654
v 0.095974 0.466437 0.413852
v 0.095431 0.466155 0.414683
v 0.095431 0.466089 0.413881
v 0.095431 0.466155 0.414683
v 0.095431 0.466089 0.413881
v 0.094802 0.465840 0.413902
v 0.094802 0.465907 0.414704
v 0.094802 0.465907 0.414704
v 0.094802 0.465840 0.413902
v 0.094087 0.465691 0.413914
v 0.094087 0.465757 0.414716
v 0.094087 0.465757 0.414716
v 0.094087 0.465691 0.413914
v 0.089747 0.467927 0.414536
v 0.089750 0.469193 0.414432
v 0.089686 0.468535 0.414486
v 0.089931 0.467383 0.414582
v 0.089941 0.469775 0.414384
v 0.090237 0.466901 0.414621
v 0.090260 0.470281 0.414342
v 0.090666 0.466482 0.414656
v 0.090706 0.470710 0.414306
v 0.090943 0.468103 0.414522
v 0.091197 0.466143 0.414684
v 0.090901 0.468568 0.414483
v 0.091069 0.467689 0.414556
v 0.091279 0.467328 0.414586
v 0.091811 0.465901 0.414704
v 0.091574 0.467019 0.414612
v 0.091938 0.466771 0.414632
v 0.092508 0.465756 0.414716
v 0.092360 0.466594 0.414647
v 0.092839 0.466488 0.414656
v 0.093288 0.465708 0.414720
v 0.093374 0.466452 0.414659
v 0.094087 0.465757 0.414716
v 0.093916 0.466487 0.414656
v 0.094391 0.466591 0.414647
v 0.094802 0.465907 0.414704
v 0.094800 0.466765 0.414633
v 0.095143 0.467008 0.414613
v 0.095431 0.466155 0.414683
v 0.095413 0.467315 0.414587
v 0.095606 0.467681 0.414557
v 0.095974 0.466504 0.414654
v 0.095722 0.468106 0.414522
v 0.095761 0.468589 0.414482
v 0.090943 0.469050 0.414444
v 0.091260 0.471053 0.414278
v 0.091067 0.469478 0.414408
v 0.091275 0.469850 0.414377
v 0.091905 0.471297 0.414258
v 0.091566 0.470168 0.414351
v 0.091929 0.470422 0.414330
v 0.092638 0.471444 0.414245
v 0.092351 0.470603 0.414315
v 0.092833 0.470712 0.414306
v 0.093461 0.471493 0.414241
v 0.093374 0.470748 0.414303
v 0.093916 0.470713 0.414306
v 0.094244 0.471445 0.414245
v 0.094391 0.470608 0.414315
v 0.094936 0.471303 0.414257
v 0.094800 0.470432 0.414329
v 0.095143 0.470187 0.414349
v 0.095537 0.471065 0.414277
v 0.095413 0.469876 0.414375
v 0.095606 0.469507 0.414406
v 0.096047 0.470732 0.414304
v 0.095722 0.469078 0.414441
v 0.096413 0.466934 0.414619
v 0.096453 0.470315 0.414339
v 0.096726 0.467431 0.414578
v 0.096744 0.469824 0.414380
v 0.096913 0.467994 0.414531
v 0.096918 0.469260 0.414426
v 0.096976 0.468622 0.414479
v 0.096976 0.468622 0.414479
v 0.096913 0.467994 0.414531
v 0.096918 0.469260 0.414426
v 0.096744 0.469824 0.414380
v 0.096726 0.467431 0.414578
v 0.096453 0.470315 0.414339
v 0.096413 0.466934 0.414619
v 0.096047 0.470732 0.414304
v 0.095974 0.466504 0.414654
v 0.095761 0.468589 0.414482
v 0.095722 0.469078 0.414441
v 0.095606 0.469507 0.414406
v 0.095537 0.471065 0.414277
v 0.095413 0.469876 0.414375
v 0.095143 0.470187 0.414349
v 0.094936 0.471303 0.414257
v 0.094800 0.470432 0.414329
v 0.094391 0.470608 0.414315
v 0.094244 0.471445 0.414245
v 0.093916 0.470713 0.414306
v 0.093461 0.471493 0.414241
v 0.093374 0.470748 0.414303
v 0.092833 0.470712 0.414306
v 0.092638 0.471444 0.414245
v 0.092351 0.470603 0.414315
v 0.091929 0.470422 0.414330
v 0.091905 0.471297 0.414258
v 0.091566 0.470168 0.414351
v 0.091275 0.469850 0.414377
v 0.091260 0.471053 0.414278
v 0.091067 0.469478 0.414408
v 0.090943 0.469050 0.414444
v 0.090901 0.468568 0.414483
v 0.090706 0.470710 0.414306
v 0.095722 0.468106 0.414522
v 0.095606 0.467681 0.414557
v 0.095431 0.466155 0.414683
v 0.095413 0.467315 0.414587
v 0.095143 0.467008 0.414613
v 0.094802 0.465907 0.414704
v 0.094800 0.466765 0.414633
v 0.094391 0.466591 0.414647
v 0.094087 0.465757 0.414716
v 0.093916 0.466487 0.414656
v 0.093374 0.466452 0.414659
v 0.093288 0.465708 0.414720
v 0.092839 0.466488 0.414656
v 0.092508 0.465756 0.414716
v 0.092360 0.466594 0.414647
v 0.091938 0.466771 0.414632
v 0.091811 0.465901 0.414704
v 0.091574 0.467019 0.414612
v 0.091279 0.467328 0.414586
v 0.091197 0.466143 0.414684
v 0.091069 0.467689 0.414556
v 0.090943 0.468103 0.414522
v 0.090666 0.466482 0.414656
v 0.090260 0.470281 0.414342
v 0.090237 0.466901 0.414621
v 0.089941 0.469775 0.414384
v 0.089931 0.467383 0.414582
v 0.089750 0.469193 0.414432
v 0.089747 0.467927 0.414536
v 0.089686 0.468535 0.414486
vn 0 -0.08246839311258146 -0.9965936805626597
vn 0 0.08246839311258146 0.9965936805626597
vn 0.000053671987124992933 -0.9965936791272249 0.08246839299379885
vn -0.13325848363632423 -0.9877053772611426 0.08173288364160075
vn 0.13325848363632423 0.9877053772611426 -0.08173288364160075
vn -0.000053671987124992933 0.9965936791272249 -0.08246839299379885
vn -0.2858612652642715 -0.955006837208208 0.07902707072316999
vn 0.2858612652642715 0.955006837208208 -0.07902707072316999
vn -0.45322333785662294 -0.8883606139493998 0.07351207795693733
vn 0.45322333785662294 0.8883606139493998 -0.07351207795693733
vn -0.6203353955438112 -0.7816649593077488 0.06468298405236418
vn 0.6203353955438112 0.7816649593077488 -0.06468298405236418
vn -0.7753683682996574 -0.6293580966817747 0.05207955051093198
vn 0.7753683682996574 0.6293580966817747 -0.05207955051093198
vn -0.9017089900220516 -0.43087079453975435 0.035654673271431264
vn 0.9017089900220516 0.43087079453975435 -0.035654673271431264
vn -0.9773403666209307 -0.21095279535419129 0.017456400130538032
vn 0.9773403666209307 0.21095279535419129 -0.017456400130538032
vn -0.9999981416737477 -0.0019212943521619422 0.00015898762054122008
vn 0.9999981416737477 0.0019212943521619422 -0.00015898762054122008
vn -0.9785606317536348 0.20525739019509776 -0.016985103833204136
vn 0.9785606317536348 -0.20525739019509776 0.016985103833204136
vn -0.9041542754815494 0.42575089285239875 -0.03523100004001743
vn 0.9041542754815494 -0.42575089285239875 0.03523100004001743
vn -0.7740168842934756 0.6310081949438492 -0.05221609658262123
vn 0.7740168842934756 -0.6310081949438492 0.05221609658262123
vn -0.6114897221566352 0.7885571158703047 -0.06525331184781379
vn 0.6114897221566352 -0.7885571158703047 0.06525331184781379
vn -0.44110918357493223 0.8943964331207455 -0.07401154360466045
vn 0.44110918357493223 -0.8943964331207455 0.07401154360466045
vn -0.276038892449713 0.9578724945000024 -0.07926420462906857
vn 0.276038892449713 -0.9578724945000024 0.07926420462906857
vn -0.12798136407866043 0.9883982650296258 -0.08179022028941282
vn 0.12798136407866043 -0.9883982650296258 0.08179022028941282
vn 0.0006716717315860186 0.9965934557595454 -0.08246837451006374
vn -0.0006716717315860186 -0.9965934557595454 0.08246837451006374
vn 0.13158285340702508 0.987928474275026 -0.08175134497905653
vn -0.13158285340702508 -0.987928474275026 0.08175134497905653
vn 0.28546772600537695 0.9551237460950771 -0.07903674496476787
vn -0.28546772600537695 -0.9551237460950771 0.07903674496476787
vn 0.4583177049488161 0.8857609371964126 -0.07329695401162999
vn -0.4583177049488161 -0.8857609371964126 0.07329695401162999
vn 0.6337508109421923 0.7709023559608533 -0.06379237575227395
vn -0.6337508109421923 -0.7709023559608533 0.06379237575227395
vn 0.7928214892569648 0.6073779298194236 -0.05026068583534916
vn -0.7928214892569648 -0.6073779298194236 0.05026068583534916
vn 0.9138653141339056 0.4046344468590915 -0.033483608496922876
vn -0.9138653141339056 -0.4046344468590915 0.033483608496922876
vn 0.9809622161403064 0.1935371854503509 -0.01601525376180489
vn -0.9809622161403064 -0.1935371854503509 0.01601525376180489
vn 0.9999909344088381 -0.004243558633579135 0.00035115560976937884
vn -0.9999909344088381 0.004243558633579135 -0.00035115560976937884
vn 0.9777695464227273 -0.20896816716672498 0.017292171618218072
vn -0.9777695464227273 0.20896816716672498 -0.017292171618218072
vn 0.9031788984933714 -0.4278021328539074 0.035400740697731775
vn -0.9031788984933714 0.4278021328539074 -0.035400740697731775
vn 0.777619645309962 -0.626593317447945 0.05185076429125996
vn -0.777619645309962 0.626593317447945 -0.05185076429125996
vn 0.6224697960517195 -0.779977887702341 0.06454337842664387
vn -0.6224697960517195 0.779977887702341 -0.06454337842664387
vn 0.45469845389150215 -0.887611626209575 0.07345009902152053
vn -0.45469845389150215 0.887611626209575 -0.07345009902152053
vn 0.2866606160629007 -0.9547688336749417 0.07900737586725587
vn -0.2866606160629007 0.9547688336749417 -0.07900737586725587
vn 0.13355708963567878 -0.9876653185147162 0.08172956876964008
vn -0.13355708963567878 0.9876653185147162 -0.08172956876964008
usemtl material_0_0
f 1//1 2//1 3//1
f 2//1 1//1 4//1
f 2//1 4//1 5//1
f 5//1 4//1 6//1
f 6//1 4//1 7//1
f 6//1 7//1 8//1
f 8//1 7//1 9//1
f 9//1 7//1 10//1
f 9//1 10//1 11//1
f 11//1 10//1 12//1
f 12//1 10//1 13//1
f 12//1 13//1 14//1
f 14//1 13//1 15//1
f 15//1 13//1 16//1
f 15//1 16//1 17//1
f 17//1 16//1 18//1
f 17//1 18//1 19//1
f 19//1 18//1 20//1
f 20//1 18//1 21//1
f 20//1 21//1 22//1
f 22//1 21//1 23//1
f 23//1 21//1 24//1
f 23//1 24//1 25//1
f 25//1 24//1 26//1
f 26//1 24//1 27//1
f 27//1 24//1 28//1
f 28//1 24//1 29//1
f 28//1 29//1 30//1
f 30//1 29//1 31//1
f 30//1 31//1 32//1
f 32//1 31//1 33//1
f 32//1 33//1 34//1
f 35//1 36//1 37//1
f 36//1 35//1 38//1
f 38//1 35//1 39//1
f 38//1 39//1 40//1
f 40//1 39//1 41//1
f 40//1 41//1 42//1
f 42//1 41//1 1//1
f 42//1 1//1 43//1
f 42//1 43//1 44//1
f 43//1 1//1 3//1
f 44//1 43//1 45//1
f 44//1 45//1 46//1
f 44//1 46//1 47//1
f 47//1 46//1 48//1
f 47//1 48//1 49//1
f 47//1 49//1 50//1
f 50//1 49//1 51//1
f 50//1 51//1 52//1
f 50//1 52//1 53//1
f 53//1 52//1 54//1
f 53//1 54//1 55//1
f 55//1 54//1 56//1
f 55//1 56//1 57//1
f 55//1 57//1 58//1
f 58//1 57//1 59//1
f 58//1 59//1 60//1
f 58//1 60//1 61//1
f 61//1 60//1 62//1
f 61//1 62//1 63//1
f 61//1 63//1 27//1
f 27//1 63//1 64//1
f 27//1 64//1 26//1
f 65//2 66//2 67//2
f 66//2 68//2 67//2
f 67//2 68//2 69//2
f 68//2 70//2 69//2
f 70//2 71//2 69//2
f 69//2 71//2 72//2
f 71//2 73//2 72//2
f 73//2 74//2 72//2
f 72//2 74//2 75//2
f 74//2 76//2 75//2
f 76//2 77//2 75//2
f 75//2 77//2 78//2
f 77//2 79//2 78//2
f 78//2 79//2 80//2
f 79//2 81//2 80//2
f 81//2 82//2 80//2
f 80//2 82//2 83//2
f 82//2 84//2 83//2
f 84//2 85//2 83//2
f 83//2 85//2 86//2
f 85//2 87//2 86//2
f 87//2 88//2 86//2
f 89//2 90//2 88//2
f 86//2 88//2 91//2
f 88//2 90//2 91//2
f 90//2 92//2 91//2
f 91//2 92//2 93//2
f 92//2 94//2 93//2
f 93//2 94//2 95//2
f 94//2 96//2 95//2
f 95//2 96//2 97//2
f 98//2 97//2 96//2
f 99//2 100//2 101//2
f 100//2 102//2 101//2
f 101//2 102//2 103//2
f 102//2 104//2 103//2
f 103//2 104//2 105//2
f 104//2 106//2 105//2
f 105//2 106//2 67//2
f 67//2 106//2 65//2
f 65//2 106//2 107//2
f 107//2 106//2 108//2
f 106//2 109//2 108//2
f 108//2 109//2 110//2
f 110//2 109//2 111//2
f 109//2 112//2 111//2
f 111//2 112//2 113//2
f 113//2 112//2 114//2
f 112//2 115//2 114//2
f 114//2 115//2 116//2
f 115//2 117//2 116//2
f 116//2 117//2 118//2
f 118//2 117//2 119//2
f 117//2 120//2 119//2
f 119//2 120//2 121//2
f 121//2 120//2 122//2
f 120//2 123//2 122//2
f 122//2 123//2 124//2
f 124//2 123//2 125//2
f 123//2 126//2 125//2
f 125//2 126//2 127//2
f 127//2 126//2 128//2
f 126//2 90//2 128//2
f 89//2 128//2 90//2
f 129//3 130//4 131//3
f 130//4 129//3 132//4
f 133//5 134//6 135//5
f 136//6 135//5 134//6
f 132//4 137//7 130//4
f 137//7 132//4 138//7
f 139//8 133//5 140//8
f 135//5 140//8 133//5
f 138//7 141//9 137//7
f 141//9 138//7 142//9
f 143//10 139//8 144//10
f 140//8 144//10 139//8
f 142//9 145//11 141//9
f 145//11 142//9 146//11
f 147//12 143//10 148//12
f 144//10 148//12 143//10
f 149//13 145//11 146//11
f 145//11 149//13 150//13
f 151//14 152//14 148//12
f 147//12 148//12 152//14
f 153//15 150//13 149//13
f 150//13 153//15 154//15
f 155//16 156//16 151//14
f 152//14 151//14 156//16
f 157//17 154//15 153//15
f 154//15 157//17 158//17
f 159//18 160//18 155//16
f 156//16 155//16 160//18
f 161//19 158//17 157//17
f 158//17 161//19 162//19
f 163//20 164//20 159//18
f 160//18 159//18 164//20
f 165//21 162//19 161//19
f 162//19 165//21 166//21
f 167//22 168//22 163//20
f 164//20 163//20 168//22
f 165//21 169//23 166//21
f 169//23 165//21 170//23
f 171//24 168//22 172//24
f 167//22 172//24 168//22
f 173//25 169//23 170//23
f 169//23 173//25 174//25
f 175//26 176//26 172//24
f 171//24 172//24 176//26
f 177//27 174//25 173//25
f 174//25 177//27 178//27
f 179//28 180//28 175//26
f 176//26 175//26 180//28
f 177//27 181//29 178//27
f 181//29 177//27 182//29
f 183//30 180//28 184//30
f 179//28 184//30 180//28
f 182//29 185//31 181//29
f 185//31 182//29 186//31
f 187//32 183//30 188//32
f 184//30 188//32 183//30
f 186//31 189//33 185//31
f 189//33 186//31 190//33
f 191//34 187//32 192//34
f 188//32 192//34 187//32
f 190//33 193//35 189//33
f 193//35 190//33 194//35
f 195//36 191//34 196//36
f 192//34 196//36 191//34
f 193//35 197//37 198//37
f 197//37 193//35 194//35
f 195//36 196//36 199//38
f 200//38 199//38 196//36
f 197//37 201//39 198//37
f 201//39 197//37 202//39
f 203//40 199//38 204//40
f 200//38 204//40 199//38
f 202//39 205//41 201//39
f 205//41 202//39 206//41
f 207//42 203//40 208//42
f 204//40 208//42 203//40
f 206//41 209//43 205//41
f 209//43 206//41 210//43
f 211//44 207//42 212//44
f 208//42 212//44 207//42
f 209//43 213//45 214//45
f 213//45 209//43 210//43
f 211//44 212//44 215//46
f 216//46 215//46 212//44
f 214//45 217//47 218//47
f 217//47 214//45 213//45
f 215//46 216//46 219//48
f 220//48 219//48 216//46
f 221//49 217//47 222//49
f 217//47 221//49 218//47
f 220//48 223//50 219//48
f 224//50 219//48 223//50
f 225//51 222//49 226//51
f 222//49 225//51 221//49
f 223//50 227//52 224//50
f 228//52 224//50 227//52
f 225//51 229//53 230//53
f 229//53 225//51 226//51
f 228//52 227//52 231//54
f 232//54 231//54 227//52
f 233//55 229//53 234//55
f 229//53 233//55 230//53
f 232//54 235//56 231//54
f 236//56 231//54 235//56
f 233//55 237//57 238//57
f 237//57 233//55 234//55
f 236//56 235//56 239//58
f 240//58 239//58 235//56
f 238//57 241//59 242//59
f 241//59 238//57 237//57
f 239//58 240//58 243//60
f 244//60 243//60 240//58
f 242//59 245//61 246//61
f 245//61 242//59 241//59
f 243//60 244//60 247//62
f 248//62 247//62 244//60
f 245//61 249//63 246//61
f 249//63 245//61 250//63
f 251//64 247//62 252//64
f 248//62 252//64 247//62
f 250//63 253//65 249//63
f 253//65 250//63 254//65
f 255//66 251//64 256//66
f 252//64 256//66 251//64
f 254//65 131//3 253//65
f 131//3 254//65 129//3
f 134//6 255//66 136//6
f 256//66 136//6 255//66
f 257//2 258//2 259//2
f 258//2 257//2 260//2
f 258//2 260//2 261//2
f 261//2 260//2 262//2
f 261//2 262//2 263//2
f 263//2 262//2 264//2
f 263//2 264//2 265//2
f 265//2 264//2 266//2
f 266//2 264//2 267//2
f 265//2 266//2 268//2
f 266//2 267//2 269//2
f 269//2 267//2 270//2
f 270//2 267//2 271//2
f 270//2 271//2 272//2
f 272//2 271//2 273//2
f 273//2 271//2 274//2
f 273//2 274//2 275//2
f 275//2 274//2 276//2
f 276//2 274//2 277//2
f 276//2 277//2 278//2
f 278//2 277//2 279//2
f 278//2 279//2 280//2
f 280//2 279//2 281//2
f 281//2 279//2 282//2
f 281//2 282//2 283//2
f 283//2 282//2 284//2
f 284//2 282//2 285//2
f 284//2 285//2 286//2
f 286//2 285//2 287//2
f 287//2 285//2 288//2
f 287//2 288//2 289//2
f 289//2 288//2 290//2
f 265//2 291//2 292//2
f 291//2 265//2 268//2
f 292//2 291//2 293//2
f 292//2 293//2 294//2
f 292//2 294//2 295//2
f 295//2 294//2 296//2
f 295//2 296//2 297//2
f 295//2 297//2 298//2
f 298//2 297//2 299//2
f 298//2 299//2 300//2
f 298//2 300//2 301//2
f 301//2 300//2 302//2
f 301//2 302//2 303//2
f 301//2 303//2 304//2
f 304//2 303//2 305//2
f 304//2 305//2 306//2
f 306//2 305//2 307//2
f 306//2 307//2 308//2
f 306//2 308//2 309//2
f 309//2 308//2 310//2
f 309//2 310//2 311//2
f 309//2 311//2 312//2
f 312//2 311//2 313//2
f 312//2 313//2 290//2
f 312//2 290//2 288//2
f 312//2 288//2 314//2
f 312//2 314//2 315//2
f 315//2 314//2 316//2
f 315//2 316//2 317//2
f 317//2 316//2 318//2
f 317//2 318//2 319//2
f 319//2 318//2 320//2
f 321//1 322//1 323//1
f 323//1 322//1 324//1
f 322//1 325//1 324//1
f 324//1 325//1 326//1
f 325//1 327//1 326//1
f 326//1 327//1 328//1
f 327//1 329//1 328//1
f 329//1 330//1 328//1
f 330//1 331//1 328//1
f 331//1 332//1 328//1
f 328//1 332//1 333//1
f 332//1 334//1 333//1
f 334//1 335//1 333//1
f 333//1 335//1 336//1
f 335//1 337//1 336//1
f 337//1 338//1 336//1
f 336//1 338//1 339//1
f 338//1 340//1 339//1
f 339//1 340//1 341//1
f 340//1 342//1 341//1
f 342//1 343//1 341//1
f 341//1 343//1 344//1
f 343//1 345//1 344//1
f 345//1 346//1 344//1
f 344//1 346//1 347//1
f 346//1 348//1 347//1
f 348//1 349//1 347//1
f 347//1 349//1 350//1
f 349//1 351//1 350//1
f 351//1 352//1 350//1
f 353//1 354//1 352//1
f 350//1 352//1 354//1
f 330//1 329//1 355//1
f 355//1 329//1 356//1
f 329//1 357//1 356//1
f 356//1 357//1 358//1
f 358//1 357//1 359//1
f 357//1 360//1 359//1
f 359//1 360//1 361//1
f 361//1 360//1 362//1
f 360//1 363//1 362//1
f 362//1 363//1 364//1
f 364//1 363//1 365//1
f 363//1 366//1 365//1
f 365//1 366//1 367//1
f 366//1 368//1 367//1
f 367//1 368//1 369//1
f 369//1 368//1 370//1
f 368//1 371//1 370//1
f 370//1 371//1 372//1
f 372//1 371//1 373//1
f 371//1 374//1 373//1
f 373//1 374//1 375//1
f 375//1 374//1 376//1
f 353//1 376//1 354//1
f 374//1 377//1 376//1
f 376//1 377//1 354//1
f 354//1 377//1 378//1
f 377//1 379//1 378//1
f 378//1 379//1 380//1
f 379//1 381//1 380//1
f 380//1 381//1 382//1
f 381//1 383//1 382//1
f 384//1 382//1 383//1
