# SSTK version 0.8.0
# 13
mtllib original-13.mtl
o #ID41
v 0.103954 -0.365282 0.412062
v 0.103353 -0.365847 0.410544
v 0.103246 -0.365508 0.412062
v 0.104062 -0.365621 0.410544
v 0.104062 -0.365621 0.410544
v 0.103954 -0.365282 0.412062
v 0.103353 -0.365847 0.410544
v 0.103246 -0.365508 0.412062
v 0.103418 -0.366052 0.409000
v 0.104127 -0.365826 0.409000
v 0.104127 -0.365826 0.409000
v 0.103418 -0.366052 0.409000
vn -0.2946005014371157 0.9112783044453842 -0.28771930140354773
vn -0.291835803557874 0.9387494114446276 -0.18325230223409372
vn -0.28640971967480466 0.9138862627790627 -0.28771751976464327
vn -0.30439400482281714 0.9347524148102128 -0.18325450290348325
vn -0.2972266069354605 0.9482965221274707 -0.11131060259731197
vn -0.305683799220676 0.9456041975892342 -0.1113108997162188
vn 0.30439400482281714 -0.9347524148102128 0.18325450290348325
vn 0.2946005014371157 -0.9112783044453842 0.28771930140354773
vn 0.291835803557874 -0.9387494114446276 0.18325230223409372
vn 0.28640971967480466 -0.9138862627790627 0.28771751976464327
vn 0.305683799220676 -0.9456041975892342 0.1113108997162188
vn 0.2972266069354605 -0.9482965221274707 0.11131060259731197
usemtl material_0_0
f 5//7 6//8 7//9
f 8//10 7//9 6//8
f 11//11 5//7 12//12
f 7//9 12//12 5//7
usemtl material_1_0
f 1//1 2//2 3//3
f 2//2 1//1 4//4
f 4//4 9//5 2//2
f 9//5 4//4 10//6
