# SSTK version 0.8.0
# 88
mtllib original-88.mtl
o instance_9/Component_250/ID517#ID517
v -0.031349 0.423955 0.415890
v -0.031960 0.424255 0.414815
v -0.031960 0.424342 0.415858
v -0.031349 0.423869 0.414847
v -0.032572 0.424728 0.415825
v -0.031960 0.424428 0.416900
v -0.037818 0.413710 0.415687
v -0.032572 0.424642 0.414783
v -0.031349 0.424041 0.416932
v -0.037818 0.413797 0.416730
v -0.038429 0.414097 0.415655
v -0.039041 0.414484 0.415623
v -0.032572 0.424815 0.416868
v -0.037818 0.413883 0.417773
v -0.044286 0.403638 0.417571
v -0.044898 0.403939 0.416496
v -0.039041 0.414570 0.416666
v -0.039041 0.414656 0.417709
v -0.038429 0.414270 0.417741
v -0.044286 0.403552 0.416528
v -0.045509 0.404412 0.417507
v -0.044898 0.404111 0.418581
v -0.044286 0.403725 0.418613
v -0.045509 0.404326 0.416464
v -0.044898 0.404025 0.417539
v -0.045509 0.404498 0.418549
vn 0.9759167674569279 0.21740015131908813 -0.017989919478924914
vn 0.3788867628559247 0.5366823611916894 -0.7539342571592506
vn 0.5358267977115138 0.8414518729541044 -0.06963036949675279
vn 0.7968327098384657 0.1298933305646446 -0.5900723304869596
vn -0.21814325976670224 0.9725924732458338 -0.08048229124415415
vn 0.37888676000559823 0.6533102871979397 0.6554620444646706
vn 0.5970300138196779 -0.4359101219102119 -0.6734519494475455
vn -0.17811322565590856 0.746505283056667 -0.6410971386731757
vn 0.796832707511184 0.2251196320537098 0.5606949148194573
vn 0.844327923767907 -0.5340016001544413 0.0441887788728282
vn 2.0154852226177725e-9 -0.08246839718659527 -0.9965936802255341
vn -0.5970300109693515 0.3192821984767522 -0.7359443210853576
vn -0.17811322798319032 0.8417315845457319 0.5096701066332412
vn 0.5970300109693515 -0.3192821984767522 0.7359443210853576
vn 0.21814325976670224 -0.9725924732458338 0.08048229124415415
vn -0.37888676000559823 -0.6533102871979397 -0.6554620444646706
vn -0.844327923767907 0.5340016001544413 -0.0441887788728282
vn -0.5970300138196779 0.4359101219102119 0.6734519494475455
vn -2.0154852226177725e-9 0.08246839718659527 0.9965936802255341
vn 0.17811322798319032 -0.8417315845457319 -0.5096701066332412
vn -0.9759167674569279 -0.21740015131908813 0.017989919478924914
vn -0.3788867628559247 -0.5366823611916894 0.7539342571592506
vn 0.17811322565590856 -0.746505283056667 0.6410971386731757
vn -0.796832707511184 -0.2251196320537098 -0.5606949148194573
vn -0.5358267977115138 -0.8414518729541044 0.06963036949675279
vn -0.7968327098384657 -0.1298933305646446 0.5900723304869596
usemtl material_0_0
f 1//1 2//2 3//3
f 4//4 2//2 1//1
f 2//2 5//5 3//3
f 1//1 3//3 6//6
f 4//4 1//1 7//7
f 4//4 7//7 2//2
f 2//2 8//8 5//5
f 6//6 3//3 5//5
f 1//1 6//6 9//9
f 7//7 1//1 10//10
f 2//2 7//7 11//11
f 8//8 2//2 12//12
f 12//12 5//5 8//8
f 6//6 5//5 13//13
f 6//6 14//14 9//9
f 1//1 9//9 14//14
f 1//1 14//14 10//10
f 7//7 10//10 15//15
f 7//7 16//16 11//11
f 2//2 11//11 12//12
f 12//12 17//17 5//5
f 5//5 18//18 13//13
f 13//13 18//18 6//6
f 6//6 19//19 14//14
f 15//15 10//10 14//14
f 20//20 7//7 15//15
f 7//7 20//20 16//16
f 11//11 16//16 12//12
f 12//12 21//21 17//17
f 5//5 17//17 18//18
f 6//6 18//18 19//19
f 19//19 22//22 14//14
f 15//15 14//14 23//23
f 15//15 16//16 20//20
f 12//12 16//16 24//24
f 12//12 24//24 21//21
f 21//21 18//18 17//17
f 18//18 22//22 19//19
f 14//14 22//22 23//23
f 23//23 22//22 15//15
f 15//15 25//25 16//16
f 16//16 21//21 24//24
f 21//21 26//26 18//18
f 18//18 26//26 22//22
f 15//15 22//22 25//25
f 25//25 21//21 16//16
f 22//22 26//26 21//21
f 22//22 21//21 25//25
