# SSTK version 0.8.0
# 281
mtllib original-281.mtl
o group_57/ID1619#ID1619
v -0.008009 0.533217 0.394972
v -0.008331 0.533307 0.395281
v -0.008009 0.533307 0.395281
v -0.008331 0.533217 0.394972
v -0.008331 0.533307 0.395281
v -0.008331 0.516687 0.399807
v -0.008331 0.516777 0.400116
v -0.008331 0.533217 0.394972
v -0.008331 0.533307 0.395281
v -0.008009 0.516777 0.400116
v -0.008009 0.533307 0.395281
v -0.008331 0.516777 0.400116
v -0.008009 0.533217 0.394972
v -0.008009 0.516777 0.400116
v -0.008009 0.516687 0.399807
v -0.008009 0.533307 0.395281
v -0.008009 0.516687 0.399807
v -0.008331 0.533217 0.394972
v -0.008009 0.533217 0.394972
v -0.008331 0.516687 0.399807
v -0.008331 0.516777 0.400116
v -0.008009 0.516687 0.399807
v -0.008009 0.516777 0.400116
v -0.008331 0.516687 0.399807
vn 9.926585073734797e-9 0.959780034765462 -0.2807530674197666
vn -1 2.1042982305337424e-8 3.656807315614828e-8
vn 4.063952625051293e-8 0.2807530674526406 0.9597800347558452
vn 1 -2.1042982301867977e-8 -3.656807315614828e-8
vn -4.063952625051293e-8 -0.28075306745264067 -0.9597800347558452
vn -9.926585073734797e-9 -0.959780034765462 0.2807530674197666
usemtl material_0_0
f 1//1 2//1 3//1
f 2//1 1//1 4//1
f 5//2 6//2 7//2
f 6//2 5//2 8//2
f 9//3 10//3 11//3
f 10//3 9//3 12//3
f 13//4 14//4 15//4
f 14//4 13//4 16//4
f 17//5 18//5 19//5
f 18//5 17//5 20//5
f 21//6 22//6 23//6
f 22//6 21//6 24//6
