# SSTK version 0.8.0
# 171
mtllib original-171.mtl
o #ID991
v 0.127863 0.445753 0.416371
v 0.127954 0.443752 0.415729
v 0.127954 0.443819 0.416531
v 0.127863 0.445687 0.415569
v 0.127863 0.445687 0.415569
v 0.127863 0.445753 0.416371
v 0.127954 0.443752 0.415729
v 0.127954 0.443819 0.416531
v 0.127861 0.441881 0.415884
v 0.127861 0.441947 0.416686
v 0.127861 0.441881 0.415884
v 0.127861 0.441947 0.416686
v 0.127749 0.446514 0.416308
v 0.127749 0.446447 0.415506
v 0.127749 0.446447 0.415506
v 0.127749 0.446514 0.416308
v 0.127745 0.441146 0.415945
v 0.127745 0.441212 0.416747
v 0.127745 0.441146 0.415945
v 0.127745 0.441212 0.416747
v 0.127590 0.447135 0.416257
v 0.127590 0.447069 0.415455
v 0.127590 0.447069 0.415455
v 0.127590 0.447135 0.416257
v 0.127582 0.440544 0.415995
v 0.127582 0.440611 0.416797
v 0.127582 0.440544 0.415995
v 0.127582 0.440611 0.416797
v 0.127385 0.447619 0.416217
v 0.127385 0.447553 0.415415
v 0.127385 0.447553 0.415415
v 0.127385 0.447619 0.416217
v 0.127373 0.440077 0.416034
v 0.127373 0.440143 0.416836
v 0.127373 0.440077 0.416034
v 0.127373 0.440143 0.416836
v 0.127134 0.447898 0.415386
v 0.127134 0.447964 0.416188
v 0.127134 0.447964 0.416188
v 0.127134 0.447898 0.415386
v 0.127118 0.439809 0.416863
v 0.127118 0.439742 0.416061
v 0.127118 0.439809 0.416863
v 0.127118 0.439742 0.416061
v 0.126839 0.448105 0.415369
v 0.126839 0.448172 0.416171
v 0.126839 0.448172 0.416171
v 0.126839 0.448105 0.415369
v 0.126816 0.439608 0.416880
v 0.126816 0.439542 0.416078
v 0.126816 0.439608 0.416880
v 0.126816 0.439542 0.416078
v 0.126497 0.448174 0.415363
v 0.126497 0.448241 0.416166
v 0.126497 0.448241 0.416166
v 0.126497 0.448174 0.415363
v 0.126467 0.439541 0.416885
v 0.126467 0.439475 0.416083
v 0.126467 0.439541 0.416885
v 0.126467 0.439475 0.416083
v 0.126137 0.448104 0.415369
v 0.126137 0.448171 0.416171
v 0.126137 0.448171 0.416171
v 0.126137 0.448104 0.415369
v 0.126114 0.439607 0.416880
v 0.126114 0.439541 0.416078
v 0.126114 0.439607 0.416880
v 0.126114 0.439541 0.416078
v 0.125825 0.447893 0.415387
v 0.125825 0.447960 0.416189
v 0.125825 0.447960 0.416189
v 0.125825 0.447893 0.415387
v 0.125808 0.439804 0.416864
v 0.125808 0.439737 0.416062
v 0.125808 0.439804 0.416864
v 0.125808 0.439737 0.416062
v 0.125560 0.447541 0.415416
v 0.125560 0.447608 0.416218
v 0.125560 0.447608 0.416218
v 0.125560 0.447541 0.415416
v 0.125549 0.440132 0.416837
v 0.125549 0.440065 0.416034
v 0.125549 0.440132 0.416837
v 0.125549 0.440065 0.416034
v 0.125344 0.447115 0.416259
v 0.125344 0.447049 0.415457
v 0.125344 0.447115 0.416259
v 0.125344 0.447049 0.415457
v 0.125337 0.440525 0.415996
v 0.125337 0.440591 0.416799
v 0.125337 0.440591 0.416799
v 0.125337 0.440525 0.415996
v 0.125176 0.446482 0.416311
v 0.125176 0.446416 0.415509
v 0.125176 0.446482 0.416311
v 0.125176 0.446416 0.415509
v 0.125172 0.441115 0.415948
v 0.125172 0.441181 0.416750
v 0.125172 0.441181 0.416750
v 0.125172 0.441115 0.415948
v 0.125056 0.445709 0.416375
v 0.125056 0.445642 0.415573
v 0.125056 0.445709 0.416375
v 0.125056 0.445642 0.415573
v 0.125054 0.441836 0.415888
v 0.125054 0.441903 0.416690
v 0.125054 0.441903 0.416690
v 0.125054 0.441836 0.415888
v 0.124960 0.443739 0.416538
v 0.124960 0.443673 0.415736
v 0.124960 0.443739 0.416538
v 0.124960 0.443673 0.415736
vn -0.9952755180271986 -0.09676017916549284 0.008006930969690053
vn -0.9999991731296303 0.001281597795607186 -0.00010605256386291992
vn 0.9952755180271986 0.09676017916549284 -0.008006930969690053
vn 0.9999991731296303 -0.001281597795607186 0.00010605256386291992
vn -0.9947509395957028 0.10197723990325457 -0.008438644155343605
vn 0.9947509395957028 -0.10197723990325457 0.008438644155343605
vn -0.9803502959886857 -0.1965925899032268 0.01626808993207291
vn 0.9803502959886857 0.1965925899032268 -0.01626808993207291
vn -0.9782211546680211 0.2068583113518605 -0.017117581155654635
vn 0.9782211546680211 -0.2068583113518605 0.017117581155654635
vn -0.9482584921607637 -0.3164178375389857 0.026183661549655228
vn 0.9482584921607637 0.3164178375389857 -0.026183661549655228
vn -0.9430015724205315 0.33165468939870607 -0.027444515157909893
vn 0.9430015724205315 -0.33165468939870607 0.027444515157909893
vn -0.8738095105177852 -0.4846119964254165 0.04010177364208314
vn 0.8738095105177852 0.4846119964254165 -0.04010177364208314
vn -0.862740939321704 0.5039237995460107 -0.04169983056819094
vn 0.862740939321704 -0.5039237995460107 0.04169983056819094
vn -0.7093794999438863 -0.7024258688786778 0.05812593043897449
vn 0.7093794999438863 0.7024258688786778 -0.05812593043897449
vn -0.6911436666025144 0.7202555878635982 -0.05960134450240923
vn 0.6911436666025144 -0.7202555878635982 0.05960134450240923
vn -0.40346236929767637 -0.9118794688350571 0.07545827242787709
vn 0.40346236929767637 0.9118794688350571 -0.07545827242787709
vn -0.3864157838195541 0.9191829616836421 -0.07606263843443675
vn 0.3864157838195541 -0.9191829616836421 0.07606263843443675
vn -0.0034949818337067094 -0.9965875936339506 0.08246789264237246
vn 0.0034949818337067094 0.9965875936339506 -0.08246789264237246
vn -0.002991536975750672 0.9965892208829843 -0.08246802729766967
vn 0.002991536975750672 -0.9965892208829843 0.08246802729766967
vn 0.39206889933246186 -0.9168022598389162 0.07586563471354107
vn -0.39206889933246186 0.9168022598389162 -0.07586563471354107
vn 0.3763957526510378 0.9233031622444399 -0.07640358614408456
vn -0.3763957526510378 -0.9233031622444399 0.07640358614408456
vn 0.6972903981237316 -0.7143471304041091 0.0591124180512235
vn -0.6972903981237316 0.7143471304041091 -0.0591124180512235
vn 0.6800008592103335 0.7307137621919312 -0.06046676125378505
vn -0.6800008592103335 -0.7307137621919312 0.06046676125378505
vn 0.8665197633863425 -0.4974425249746369 0.04116350334622662
vn -0.8665197633863425 0.4974425249746369 -0.04116350334622662
vn 0.8557640444115251 0.5156039964564674 -0.042666370018417187
vn -0.8557640444115251 -0.5156039964564674 0.042666370018417187
vn 0.9448096180104444 -0.32650390186230177 0.02701828609757515
vn -0.9448096180104444 0.32650390186230177 -0.02701828609757515
vn 0.9396268857037539 0.34103505003654394 -0.028220742535181503
vn -0.9396268857037539 -0.34103505003654394 0.028220742535181503
vn 0.9789561856161889 -0.20337541379023302 0.01682937044138181
vn -0.9789561856161889 0.20337541379023302 -0.01682937044138181
vn 0.9768414934528045 0.213235410954305 -0.017645287870792843
vn -0.9768414934528045 -0.213235410954305 0.017645287870792843
vn 0.9949323138212254 -0.10020446366571886 0.008291946442699046
vn -0.9949323138212254 0.10020446366571886 -0.008291946442699046
vn 0.9944097121026229 0.10523068713300465 -0.008707867792658072
vn -0.9944097121026229 -0.10523068713300465 0.008707867792658072
vn 0.9999992297064833 0.0012369756891168926 -0.00010236007249430184
vn -0.9999992297064833 -0.0012369756891168926 0.00010236007249430184
usemtl material_0_0
f 1//1 2//2 3//2
f 2//2 1//1 4//1
f 5//3 6//3 7//4
f 8//4 7//4 6//3
f 3//2 9//5 10//5
f 9//5 3//2 2//2
f 7//4 8//4 11//6
f 12//6 11//6 8//4
f 13//7 4//1 1//1
f 4//1 13//7 14//7
f 15//8 16//8 5//3
f 6//3 5//3 16//8
f 10//5 17//9 18//9
f 17//9 10//5 9//5
f 11//6 12//6 19//10
f 20//10 19//10 12//6
f 21//11 14//7 13//7
f 14//7 21//11 22//11
f 23//12 24//12 15//8
f 16//8 15//8 24//12
f 18//9 25//13 26//13
f 25//13 18//9 17//9
f 19//10 20//10 27//14
f 28//14 27//14 20//10
f 29//15 22//11 21//11
f 22//11 29//15 30//15
f 31//16 32//16 23//12
f 24//12 23//12 32//16
f 26//13 33//17 34//17
f 33//17 26//13 25//13
f 27//14 28//14 35//18
f 36//18 35//18 28//14
f 29//15 37//19 30//15
f 37//19 29//15 38//19
f 39//20 32//16 40//20
f 31//16 40//20 32//16
f 41//21 33//17 42//21
f 33//17 41//21 34//17
f 36//18 43//22 35//18
f 44//22 35//18 43//22
f 38//19 45//23 37//19
f 45//23 38//19 46//23
f 47//24 39//20 48//24
f 40//20 48//24 39//20
f 49//25 42//21 50//25
f 42//21 49//25 41//21
f 43//22 51//26 44//22
f 52//26 44//22 51//26
f 46//23 53//27 45//23
f 53//27 46//23 54//27
f 55//28 47//24 56//28
f 48//24 56//28 47//24
f 57//29 50//25 58//29
f 50//25 57//29 49//25
f 51//26 59//30 52//26
f 60//30 52//26 59//30
f 54//27 61//31 53//27
f 61//31 54//27 62//31
f 63//32 55//28 64//32
f 56//28 64//32 55//28
f 65//33 58//29 66//33
f 58//29 65//33 57//29
f 59//30 67//34 60//30
f 68//34 60//30 67//34
f 62//31 69//35 61//31
f 69//35 62//31 70//35
f 71//36 63//32 72//36
f 64//32 72//36 63//32
f 73//37 66//33 74//37
f 66//33 73//37 65//33
f 67//34 75//38 68//34
f 76//38 68//34 75//38
f 70//35 77//39 69//35
f 77//39 70//35 78//39
f 79//40 71//36 80//40
f 72//36 80//40 71//36
f 81//41 74//37 82//41
f 74//37 81//41 73//37
f 75//38 83//42 76//38
f 84//42 76//38 83//42
f 77//39 85//43 86//43
f 85//43 77//39 78//39
f 79//40 80//40 87//44
f 88//44 87//44 80//40
f 89//45 81//41 82//41
f 81//41 89//45 90//45
f 91//46 92//46 83//42
f 84//42 83//42 92//46
f 86//43 93//47 94//47
f 93//47 86//43 85//43
f 87//44 88//44 95//48
f 96//48 95//48 88//44
f 97//49 90//45 89//45
f 90//45 97//49 98//49
f 99//50 100//50 91//46
f 92//46 91//46 100//50
f 94//47 101//51 102//51
f 101//51 94//47 93//47
f 95//48 96//48 103//52
f 104//52 103//52 96//48
f 105//53 98//49 97//49
f 98//49 105//53 106//53
f 107//54 108//54 99//50
f 100//50 99//50 108//54
f 102//51 109//55 110//55
f 109//55 102//51 101//51
f 103//52 104//52 111//56
f 112//56 111//56 104//52
f 110//55 106//53 105//53
f 106//53 110//55 109//55
f 111//56 112//56 107//54
f 108//54 107//54 112//56
