# SSTK version 0.8.0
# 163
mtllib original-163.mtl
o #ID943
v 0.104248 0.446043 0.415540
v 0.103427 0.438644 0.416152
v 0.103427 0.446043 0.415540
v 0.104248 0.438644 0.416152
v 0.104248 0.438644 0.416152
v 0.104248 0.446043 0.415540
v 0.103427 0.438644 0.416152
v 0.103427 0.446043 0.415540
v 0.104248 0.438710 0.416954
v 0.103427 0.438644 0.416152
v 0.104248 0.438644 0.416152
v 0.103427 0.438710 0.416954
v 0.103427 0.438710 0.416954
v 0.104248 0.438710 0.416954
v 0.103427 0.438644 0.416152
v 0.104248 0.438644 0.416152
v 0.103427 0.446109 0.416342
v 0.103427 0.438644 0.416152
v 0.103427 0.438710 0.416954
v 0.103427 0.446043 0.415540
v 0.103427 0.446043 0.415540
v 0.103427 0.446109 0.416342
v 0.103427 0.438644 0.416152
v 0.103427 0.438710 0.416954
v 0.103427 0.446109 0.416342
v 0.104248 0.446043 0.415540
v 0.103427 0.446043 0.415540
v 0.104248 0.446109 0.416342
v 0.104248 0.446109 0.416342
v 0.103427 0.446109 0.416342
v 0.104248 0.446043 0.415540
v 0.103427 0.446043 0.415540
v 0.104248 0.446043 0.415540
v 0.104248 0.438710 0.416954
v 0.104248 0.438644 0.416152
v 0.104248 0.446109 0.416342
v 0.104248 0.446109 0.416342
v 0.104248 0.446043 0.415540
v 0.104248 0.438710 0.416954
v 0.104248 0.438644 0.416152
v 0.104248 0.438710 0.416954
v 0.103427 0.446109 0.416342
v 0.103427 0.438710 0.416954
v 0.104248 0.446109 0.416342
v 0.104248 0.446109 0.416342
v 0.104248 0.438710 0.416954
v 0.103427 0.446109 0.416342
v 0.103427 0.438710 0.416954
vn 0 -0.08246839631543589 -0.9965936802976225
vn 0 0.08246839631543589 0.9965936802976225
vn 0 -0.9965936802976227 0.0824683963154359
vn 0 0.9965936802976227 -0.0824683963154359
vn -1 0 0
vn 1 0 0
usemtl material_0_0
f 1//1 2//1 3//1
f 2//1 1//1 4//1
f 5//2 6//2 7//2
f 8//2 7//2 6//2
f 9//3 10//3 11//3
f 10//3 9//3 12//3
f 13//4 14//4 15//4
f 16//4 15//4 14//4
f 17//5 18//5 19//5
f 18//5 17//5 20//5
f 21//6 22//6 23//6
f 24//6 23//6 22//6
f 25//4 26//4 27//4
f 26//4 25//4 28//4
f 29//3 30//3 31//3
f 32//3 31//3 30//3
f 33//6 34//6 35//6
f 34//6 33//6 36//6
f 37//5 38//5 39//5
f 40//5 39//5 38//5
f 41//2 42//2 43//2
f 42//2 41//2 44//2
f 45//1 46//1 47//1
f 48//1 47//1 46//1
