# SSTK version 0.8.0
# 14
mtllib original-14.mtl
o #ID47
v 0.101027 -0.358518 0.421803
v 0.102112 -0.359520 0.420920
v 0.101415 -0.359742 0.420920
v 0.101721 -0.358298 0.421803
v 0.101721 -0.358298 0.421803
v 0.101027 -0.358518 0.421803
v 0.102112 -0.359520 0.420920
v 0.101415 -0.359742 0.420920
v 0.100840 -0.357928 0.422194
v 0.101186 -0.357818 0.422194
v 0.101532 -0.357708 0.422194
v 0.101532 -0.357708 0.422194
v 0.101186 -0.357818 0.422194
v 0.100840 -0.357928 0.422194
v 0.102476 -0.360660 0.419922
v 0.101778 -0.360883 0.419922
v 0.102476 -0.360660 0.419922
v 0.101778 -0.360883 0.419922
v 0.100616 -0.357223 0.422565
v 0.100939 -0.357116 0.422565
v 0.100939 -0.357116 0.422565
v 0.100616 -0.357223 0.422565
v 0.101307 -0.357003 0.422565
v 0.101307 -0.357003 0.422565
vn -0.16335440317043456 0.5255904102008272 -0.8349072162041464
vn -0.18712599848171765 0.5747466953366838 -0.7966492935362346
vn -0.17940439634265304 0.5772104882329585 -0.7966442837595699
vn -0.1703864110067444 0.5233504338077694 -0.8349088539340448
vn -0.1463821070306881 0.46889282252077996 -0.8710406418358173
vn -0.14887449413268805 0.46768998156780983 -0.8712648656624676
vn -0.15147189499341013 0.4672815845549749 -0.8710362712096994
vn -0.21106639559384446 0.6531995863640114 -0.7271734848197555
vn -0.2053161029368354 0.6550343093695912 -0.7271694104014093
vn -0.13472950582307 0.4269026184509239 -0.8942047386479318
vn -0.1358995993795633 0.4262906980538106 -0.8943195959170688
vn -0.13686580307708204 0.42624290958299593 -0.8941950201037173
vn 0.1703864110067444 -0.5233504338077694 0.8349088539340448
vn 0.16335440317043456 -0.5255904102008272 0.8349072162041464
vn 0.18712599848171765 -0.5747466953366838 0.7966492935362346
vn 0.17940439634265304 -0.5772104882329585 0.7966442837595699
vn 0.15147189499341013 -0.4672815845549749 0.8710362712096994
vn 0.14887449413268805 -0.46768998156780983 0.8712648656624676
vn 0.1463821070306881 -0.46889282252077996 0.8710406418358173
vn 0.21106639559384446 -0.6531995863640114 0.7271734848197555
vn 0.2053161029368354 -0.6550343093695912 0.7271694104014093
vn 0.1358995993795633 -0.4262906980538106 0.8943195959170688
vn 0.13472950582307 -0.4269026184509239 0.8942047386479318
vn 0.13686580307708204 -0.42624290958299593 0.8941950201037173
usemtl material_0_0
f 5//13 6//14 7//15
f 8//16 7//15 6//14
f 12//17 13//18 5//13
f 13//18 14//19 5//13
f 6//14 5//13 14//19
f 7//15 8//16 17//20
f 18//21 17//20 8//16
f 21//22 22//23 13//18
f 14//19 13//18 22//23
f 24//24 21//22 12//17
f 13//18 12//17 21//22
usemtl material_1_0
f 1//1 2//2 3//3
f 2//2 1//1 4//4
f 9//5 4//4 1//1
f 4//4 9//5 10//6
f 4//4 10//6 11//7
f 3//3 15//8 16//9
f 15//8 3//3 2//2
f 19//10 10//6 9//5
f 10//6 19//10 20//11
f 20//11 11//7 10//6
f 11//7 20//11 23//12
