# SSTK version 0.8.0
# 50
mtllib original-50.mtl
o #ID307
v -0.202010 0.441890 0.167189
v -0.403215 0.385745 0.171835
v -0.202010 0.385745 0.171835
v -0.403215 0.441890 0.167189
v -0.403215 0.441890 0.167189
v -0.202010 0.441890 0.167189
v -0.403215 0.385745 0.171835
v -0.202010 0.385745 0.171835
v -0.403215 0.441890 0.167189
v -0.399996 0.442156 0.170397
v -0.403215 0.461802 0.407813
v -0.202010 0.441890 0.167189
v -0.205229 0.442156 0.170397
v -0.205229 0.456502 0.343763
v -0.202010 0.461802 0.407813
v -0.226603 0.456502 0.343763
v -0.399996 0.456502 0.343763
v -0.382311 0.456502 0.343763
v -0.399996 0.442156 0.170397
v -0.403215 0.461802 0.407813
v -0.399996 0.456502 0.343763
v -0.382311 0.456502 0.343763
v -0.202010 0.441890 0.167189
v -0.205229 0.456502 0.343763
v -0.202010 0.461802 0.407813
v -0.226603 0.456502 0.343763
v -0.205229 0.442156 0.170397
v -0.403215 0.441890 0.167189
v -0.205229 0.389219 0.174778
v -0.205229 0.456502 0.343763
v -0.205229 0.403565 0.348143
v -0.205229 0.442156 0.170397
v -0.205229 0.442156 0.170397
v -0.205229 0.389219 0.174778
v -0.205229 0.456502 0.343763
v -0.205229 0.403565 0.348143
v -0.399996 0.442156 0.170397
v -0.205229 0.389219 0.174778
v -0.399996 0.389219 0.174778
v -0.205229 0.442156 0.170397
v -0.205229 0.442156 0.170397
v -0.399996 0.442156 0.170397
v -0.205229 0.389219 0.174778
v -0.399996 0.389219 0.174778
v -0.399996 0.456502 0.343763
v -0.399996 0.389219 0.174778
v -0.399996 0.403565 0.348143
v -0.399996 0.442156 0.170397
v -0.399996 0.442156 0.170397
v -0.399996 0.456502 0.343763
v -0.399996 0.389219 0.174778
v -0.399996 0.403565 0.348143
v -0.205229 0.389219 0.174778
v -0.399996 0.403565 0.348143
v -0.399996 0.389219 0.174778
v -0.205229 0.403565 0.348143
v -0.205229 0.403565 0.348143
v -0.205229 0.389219 0.174778
v -0.399996 0.403565 0.348143
v -0.399996 0.389219 0.174778
vn 0 0.08246839835565209 0.9965936801287943
vn 0 -0.08246839835565209 -0.9965936801287943
vn 0 -0.9965936801287943 0.08246839835565209
vn 0 0.9965936801287943 -0.08246839835565209
vn 1 0 0
vn -1 0 0
usemtl material_0_0
f 1//1 2//1 3//1
f 2//1 1//1 4//1
f 5//2 6//2 7//2
f 8//2 7//2 6//2
f 9//3 10//3 11//3
f 10//3 9//3 12//3
f 10//3 12//3 13//3
f 13//3 12//3 14//3
f 14//3 15//3 16//3
f 15//3 14//3 12//3
f 11//3 17//3 18//3
f 17//3 11//3 10//3
f 19//4 20//4 21//4
f 22//4 21//4 20//4
f 23//4 24//4 25//4
f 26//4 25//4 24//4
f 24//4 23//4 27//4
f 27//4 23//4 19//4
f 23//4 28//4 19//4
f 20//4 19//4 28//4
f 29//5 30//5 31//5
f 30//5 29//5 32//5
f 33//6 34//6 35//6
f 36//6 35//6 34//6
f 37//2 38//2 39//2
f 38//2 37//2 40//2
f 41//1 42//1 43//1
f 44//1 43//1 42//1
f 45//6 46//6 47//6
f 46//6 45//6 48//6
f 49//5 50//5 51//5
f 52//5 51//5 50//5
f 53//3 54//3 55//3
f 54//3 53//3 56//3
f 57//4 58//4 59//4
f 60//4 59//4 58//4
