# SSTK version 0.8.0
# 74
mtllib original-74.mtl
o group_37/ID492#ID492
v 0.379385 0.510498 0.405355
v 0.379394 0.513272 0.404839
v 0.379389 0.511897 0.405167
v 0.379394 0.513452 0.404787
v 0.379398 0.514603 0.404375
v 0.379381 0.509099 0.405399
v 0.379402 0.515867 0.403784
v 0.379377 0.507721 0.405299
v 0.379405 0.517044 0.403074
v 0.379373 0.506385 0.405056
v 0.379408 0.518116 0.402257
v 0.379369 0.505115 0.404675
v 0.379411 0.519066 0.401346
v 0.379368 0.504849 0.403477
v 0.379414 0.519879 0.400354
v 0.379413 0.519612 0.399157
v 0.379413 0.519612 0.399157
v 0.379368 0.504849 0.403477
v 0.379414 0.519879 0.400354
v 0.379411 0.519066 0.401346
v 0.379369 0.505115 0.404675
v 0.379408 0.518116 0.402257
v 0.379373 0.506385 0.405056
v 0.379405 0.517044 0.403074
v 0.379377 0.507721 0.405299
v 0.379402 0.515867 0.403784
v 0.379381 0.509099 0.405399
v 0.379398 0.514603 0.404375
v 0.379385 0.510498 0.405355
v 0.379394 0.513452 0.404787
v 0.379394 0.513272 0.404839
v 0.379389 0.511897 0.405167
v 0.379398 0.514603 0.404375
v 0.329367 0.513541 0.404801
v 0.379394 0.513452 0.404787
v 0.329370 0.514692 0.404390
v 0.329370 0.514692 0.404390
v 0.379398 0.514603 0.404375
v 0.329367 0.513541 0.404801
v 0.379394 0.513452 0.404787
v 0.329366 0.513362 0.404853
v 0.379394 0.513272 0.404839
v 0.329366 0.513362 0.404853
v 0.379394 0.513272 0.404839
v 0.329362 0.511986 0.405181
v 0.379389 0.511897 0.405167
v 0.329362 0.511986 0.405181
v 0.379389 0.511897 0.405167
v 0.329358 0.510588 0.405369
v 0.379385 0.510498 0.405355
v 0.329358 0.510588 0.405369
v 0.379385 0.510498 0.405355
v 0.329353 0.509188 0.405413
v 0.379381 0.509099 0.405399
v 0.329353 0.509188 0.405413
v 0.379381 0.509099 0.405399
v 0.329349 0.507810 0.405313
v 0.379377 0.507721 0.405299
v 0.329349 0.507810 0.405313
v 0.379377 0.507721 0.405299
v 0.329345 0.506475 0.405070
v 0.379373 0.506385 0.405056
v 0.329345 0.506475 0.405070
v 0.379373 0.506385 0.405056
v 0.329341 0.505204 0.404689
v 0.379369 0.505115 0.404675
v 0.329341 0.505204 0.404689
v 0.379369 0.505115 0.404675
v 0.379368 0.504849 0.403477
v 0.329341 0.505204 0.404689
v 0.329340 0.504938 0.403491
v 0.379369 0.505115 0.404675
v 0.379369 0.505115 0.404675
v 0.379368 0.504849 0.403477
v 0.329341 0.505204 0.404689
v 0.329340 0.504938 0.403491
v 0.329340 0.504938 0.403491
v 0.379413 0.519612 0.399157
v 0.379368 0.504849 0.403477
v 0.329385 0.519702 0.399171
v 0.329385 0.519702 0.399171
v 0.329340 0.504938 0.403491
v 0.379413 0.519612 0.399157
v 0.379368 0.504849 0.403477
v 0.379414 0.519879 0.400354
v 0.329385 0.519702 0.399171
v 0.329386 0.519968 0.400369
v 0.379413 0.519612 0.399157
v 0.379413 0.519612 0.399157
v 0.379414 0.519879 0.400354
v 0.329385 0.519702 0.399171
v 0.329386 0.519968 0.400369
v 0.379414 0.519879 0.400354
v 0.329384 0.519155 0.401360
v 0.379411 0.519066 0.401346
v 0.329386 0.519968 0.400369
v 0.329386 0.519968 0.400369
v 0.379414 0.519879 0.400354
v 0.329384 0.519155 0.401360
v 0.379411 0.519066 0.401346
v 0.329381 0.518205 0.402271
v 0.379408 0.518116 0.402257
v 0.329381 0.518205 0.402271
v 0.379408 0.518116 0.402257
v 0.329378 0.517133 0.403088
v 0.379405 0.517044 0.403074
v 0.329378 0.517133 0.403088
v 0.379405 0.517044 0.403074
v 0.329374 0.515956 0.403798
v 0.379402 0.515867 0.403784
v 0.329374 0.515956 0.403798
v 0.379402 0.515867 0.403784
v 0.329366 0.513362 0.404853
v 0.329358 0.510588 0.405369
v 0.329362 0.511986 0.405181
v 0.329367 0.513541 0.404801
v 0.329370 0.514692 0.404390
v 0.329353 0.509188 0.405413
v 0.329374 0.515956 0.403798
v 0.329349 0.507810 0.405313
v 0.329378 0.517133 0.403088
v 0.329345 0.506475 0.405070
v 0.329381 0.518205 0.402271
v 0.329341 0.505204 0.404689
v 0.329384 0.519155 0.401360
v 0.329340 0.504938 0.403491
v 0.329386 0.519968 0.400369
v 0.329385 0.519702 0.399171
v 0.329385 0.519702 0.399171
v 0.329386 0.519968 0.400369
v 0.329340 0.504938 0.403491
v 0.329384 0.519155 0.401360
v 0.329341 0.505204 0.404689
v 0.329381 0.518205 0.402271
v 0.329345 0.506475 0.405070
v 0.329378 0.517133 0.403088
v 0.329349 0.507810 0.405313
v 0.329374 0.515956 0.403798
v 0.329353 0.509188 0.405413
v 0.329370 0.514692 0.404390
v 0.329358 0.510588 0.405369
v 0.329367 0.513541 0.404801
v 0.329366 0.513362 0.404853
v 0.329362 0.511986 0.405181
vn 0.9999953622267538 -0.0030455746556923625 0
vn -0.9999953622267538 0.0030455746556923625 0
vn 0.0009374798251227491 0.380324890810793 0.9248524739445398
vn 0.0008172218951914166 0.3086809971442473 0.9511652717327347
vn -0.0009374798251227491 -0.380324890810793 -0.9248524739445398
vn -0.0008172218951914166 -0.3086809971442473 -0.9511652717327347
vn 0.0007286476351295119 0.2565456365321833 0.9665318439911438
vn -0.0007286476351295119 -0.2565456365321833 -0.9665318439911438
vn 0.0006019732775204725 0.1828301301570353 0.9831443338263891
vn -0.0006019732775204725 -0.1828301301570353 -0.9831443338263891
vn 0.00042708628490039133 0.0825552166535688 0.9965864005697587
vn -0.00042708628490039133 -0.0825552166535688 -0.9965864005697587
vn 0.0002450153446781763 -0.020138338031124154 0.9997971730850338
vn -0.0002450153446781763 0.020138338031124154 -0.9997971730850338
vn 0.00005540328329320839 -0.12534637572596355 0.9921130394379674
vn -0.00005540328329320839 0.12534637572596355 -0.9921130394379674
vn -0.00014187316226993137 -0.23297257143268194 0.9724832959141507
vn 0.00014187316226993137 0.23297257143268194 -0.9724832959141507
vn -0.00024329048395964524 -0.28757101038982175 0.9577592885444219
vn 0.00024329048395964524 0.28757101038982175 -0.9577592885444219
vn -0.001678310131991738 -0.976169419931565 0.21700333376603395
vn 0.001678310131991738 0.976169419931565 -0.21700333376603395
vn -0.0007700393485744549 -0.2808457326806397 -0.959752614726564
vn 0.0007700393485744549 0.2808457326806397 0.959752614726564
vn 0.001678310131991738 0.976169419931565 -0.21700333376603378
vn -0.001678310131991738 -0.976169419931565 0.21700333376603378
vn 0.0015559735793751728 0.7733140991731815 0.6340212007229655
vn 0.0014979711961475048 0.7335716750028043 0.679610442618325
vn -0.0015559735793751728 -0.7733140991731815 -0.6340212007229655
vn -0.0014979711961475048 -0.7335716750028043 -0.679610442618325
vn 0.0013712706312247296 0.6497634145314317 0.7601352674052892
vn -0.0013712706312247296 -0.6497634145314317 -0.7601352674052892
vn 0.0012331667125763364 0.5616500217063799 0.8273739979097011
vn -0.0012331667125763364 -0.5616500217063799 -0.8273739979097011
vn 0.0010860798759397955 0.47041358769658215 0.8824453960109562
vn -0.0010860798759397955 -0.47041358769658215 -0.8824453960109562
usemtl material_0_0
f 1//1 2//1 3//1
f 2//1 1//1 4//1
f 4//1 1//1 5//1
f 5//1 1//1 6//1
f 5//1 6//1 7//1
f 7//1 6//1 8//1
f 7//1 8//1 9//1
f 9//1 8//1 10//1
f 9//1 10//1 11//1
f 11//1 10//1 12//1
f 11//1 12//1 13//1
f 13//1 12//1 14//1
f 13//1 14//1 15//1
f 15//1 14//1 16//1
f 17//2 18//2 19//2
f 19//2 18//2 20//2
f 18//2 21//2 20//2
f 20//2 21//2 22//2
f 21//2 23//2 22//2
f 22//2 23//2 24//2
f 23//2 25//2 24//2
f 24//2 25//2 26//2
f 25//2 27//2 26//2
f 26//2 27//2 28//2
f 27//2 29//2 28//2
f 28//2 29//2 30//2
f 30//2 29//2 31//2
f 32//2 31//2 29//2
f 33//3 34//4 35//4
f 34//4 33//3 36//3
f 37//5 38//5 39//6
f 40//6 39//6 38//5
f 35//4 41//7 42//7
f 41//7 35//4 34//4
f 39//6 40//6 43//8
f 44//8 43//8 40//6
f 42//7 45//9 46//9
f 45//9 42//7 41//7
f 43//8 44//8 47//10
f 48//10 47//10 44//8
f 46//9 49//11 50//11
f 49//11 46//9 45//9
f 47//10 48//10 51//12
f 52//12 51//12 48//10
f 50//11 53//13 54//13
f 53//13 50//11 49//11
f 51//12 52//12 55//14
f 56//14 55//14 52//12
f 54//13 57//15 58//15
f 57//15 54//13 53//13
f 55//14 56//14 59//16
f 60//16 59//16 56//14
f 58//15 61//17 62//17
f 61//17 58//15 57//15
f 59//16 60//16 63//18
f 64//18 63//18 60//16
f 62//17 65//19 66//19
f 65//19 62//17 61//17
f 63//18 64//18 67//20
f 68//20 67//20 64//18
f 69//21 70//21 71//21
f 70//21 69//21 72//21
f 73//22 74//22 75//22
f 76//22 75//22 74//22
f 77//23 78//23 79//23
f 78//23 77//23 80//23
f 81//24 82//24 83//24
f 84//24 83//24 82//24
f 85//25 86//25 87//25
f 86//25 85//25 88//25
f 89//26 90//26 91//26
f 92//26 91//26 90//26
f 93//27 94//28 95//28
f 94//28 93//27 96//27
f 97//29 98//29 99//30
f 100//30 99//30 98//29
f 95//28 101//31 102//31
f 101//31 95//28 94//28
f 99//30 100//30 103//32
f 104//32 103//32 100//30
f 102//31 105//33 106//33
f 105//33 102//31 101//31
f 103//32 104//32 107//34
f 108//34 107//34 104//32
f 106//33 109//35 110//35
f 109//35 106//33 105//33
f 107//34 108//34 111//36
f 112//36 111//36 108//34
f 110//35 36//3 33//3
f 36//3 110//35 109//35
f 111//36 112//36 37//5
f 38//5 37//5 112//36
f 113//2 114//2 115//2
f 114//2 113//2 116//2
f 114//2 116//2 117//2
f 114//2 117//2 118//2
f 118//2 117//2 119//2
f 118//2 119//2 120//2
f 120//2 119//2 121//2
f 120//2 121//2 122//2
f 122//2 121//2 123//2
f 122//2 123//2 124//2
f 124//2 123//2 125//2
f 124//2 125//2 126//2
f 126//2 125//2 127//2
f 126//2 127//2 128//2
f 129//1 130//1 131//1
f 130//1 132//1 131//1
f 131//1 132//1 133//1
f 132//1 134//1 133//1
f 133//1 134//1 135//1
f 134//1 136//1 135//1
f 135//1 136//1 137//1
f 136//1 138//1 137//1
f 137//1 138//1 139//1
f 138//1 140//1 139//1
f 139//1 140//1 141//1
f 140//1 142//1 141//1
f 142//1 143//1 141//1
f 144//1 141//1 143//1
