# SSTK version 0.8.0
# 260
mtllib original-260.mtl
o #ID1497
v 0.099772 0.401443 0.420026
v 0.099866 0.400506 0.419296
v 0.099866 0.400573 0.420098
v 0.099772 0.401377 0.419224
v 0.099772 0.401377 0.419224
v 0.099772 0.401443 0.420026
v 0.099866 0.400506 0.419296
v 0.099866 0.400573 0.420098
v 0.096908 0.400573 0.420098
v 0.099866 0.400506 0.419296
v 0.096908 0.400506 0.419296
v 0.099866 0.400573 0.420098
v 0.099866 0.400573 0.420098
v 0.096908 0.400573 0.420098
v 0.099866 0.400506 0.419296
v 0.096908 0.400506 0.419296
v 0.099500 0.402030 0.419170
v 0.099500 0.402097 0.419972
v 0.099500 0.402097 0.419972
v 0.099500 0.402030 0.419170
v 0.097093 0.401343 0.419227
v 0.096908 0.400573 0.420098
v 0.096908 0.400506 0.419296
v 0.097093 0.401409 0.420029
v 0.097093 0.401409 0.420029
v 0.097093 0.401343 0.419227
v 0.096908 0.400573 0.420098
v 0.096908 0.400506 0.419296
v 0.099302 0.402335 0.419952
v 0.099302 0.402269 0.419150
v 0.099302 0.402335 0.419952
v 0.099302 0.402269 0.419150
v 0.097443 0.402003 0.419172
v 0.097443 0.402069 0.419974
v 0.097443 0.402069 0.419974
v 0.097443 0.402003 0.419172
v 0.099302 0.402335 0.419952
v 0.099069 0.402439 0.419136
v 0.099302 0.402269 0.419150
v 0.099069 0.402505 0.419938
v 0.099069 0.402505 0.419938
v 0.099302 0.402335 0.419952
v 0.099069 0.402439 0.419136
v 0.099302 0.402269 0.419150
v 0.097923 0.402498 0.419939
v 0.097923 0.402432 0.419137
v 0.097923 0.402498 0.419939
v 0.097923 0.402432 0.419137
v 0.098497 0.402575 0.419125
v 0.098497 0.402642 0.419927
v 0.098497 0.402642 0.419927
v 0.098497 0.402575 0.419125
vn -0.9695615992220549 -0.24401348531820916 0.020192184053035776
vn -0.9942265438239831 -0.10693584649323454 0.00884897116010923
vn 0.9695615992220549 0.24401348531820916 -0.020192184053035776
vn 0.9942265438239831 0.10693584649323454 -0.00884897116010923
vn 0 0.9965936795549015 -0.08246840529089015
vn 0 -0.9965936795549015 0.08246840529089015
vn -0.8592185207477215 -0.5098660666483975 0.04219155939982626
vn 0.8592185207477215 0.5098660666483975 -0.04219155939982626
vn 0.9401023004905906 -0.33973126421385563 0.028112856986698676
vn 0.9766510142830241 -0.2141002320980555 0.01771685399552389
vn -0.9401023004905906 0.33973126421385563 -0.028112856986698676
vn -0.9766510142830241 0.2141002320980555 -0.01771685399552389
vn -0.770125872220761 -0.6357190864380836 0.05260593193300715
vn 0.770125872220761 0.6357190864380836 -0.05260593193300715
vn 0.7930569767068897 -0.6070725115567661 0.050235419861765246
vn -0.7930569767068897 0.6070725115567661 -0.050235419861765246
vn -0.590946855153869 -0.8039625753840942 0.06652812762679258
vn -0.42589450107360405 -0.901690883838019 0.07461517244286138
vn 0.42589450107360405 0.901690883838019 -0.07461517244286138
vn 0.590946855153869 0.8039625753840942 -0.06652812762679258
vn 0.47855230847943653 -0.8750680953984865 0.07241212926483769
vn -0.47855230847943653 0.8750680953984865 -0.07241212926483769
vn 0.0054186474521043275 -0.9965790485851459 0.08246719457405706
vn -0.0054186474521043275 0.9965790485851459 -0.08246719457405706
usemtl material_0_0
f 1//1 2//2 3//2
f 2//2 1//1 4//1
f 5//3 6//3 7//4
f 8//4 7//4 6//3
f 9//5 10//5 11//5
f 10//5 9//5 12//5
f 13//6 14//6 15//6
f 16//6 15//6 14//6
f 1//1 17//7 4//1
f 17//7 1//1 18//7
f 19//8 6//3 20//8
f 5//3 20//8 6//3
f 21//9 22//10 23//10
f 22//10 21//9 24//9
f 25//11 26//11 27//12
f 28//12 27//12 26//11
f 17//7 29//13 30//13
f 29//13 17//7 18//7
f 19//8 20//8 31//14
f 32//14 31//14 20//8
f 33//15 24//9 21//9
f 24//9 33//15 34//15
f 35//16 36//16 25//11
f 26//11 25//11 36//16
f 37//17 38//18 39//17
f 38//18 37//17 40//18
f 41//19 42//20 43//19
f 44//20 43//19 42//20
f 45//21 33//15 46//21
f 33//15 45//21 34//15
f 35//16 47//22 36//16
f 48//22 36//16 47//22
f 40//18 49//23 38//18
f 49//23 40//18 50//23
f 51//24 41//19 52//24
f 43//19 52//24 41//19
f 50//23 46//21 49//23
f 46//21 50//23 45//21
f 47//22 51//24 48//22
f 52//24 48//22 51//24
