# SSTK version 0.8.0
# 230
mtllib original-230.mtl
o #ID1325
v 0.077641 0.496019 0.411404
v 0.077641 0.488948 0.412797
v 0.077641 0.488882 0.411995
v 0.077641 0.496085 0.412206
v 0.077641 0.496085 0.412206
v 0.077641 0.496019 0.411404
v 0.077641 0.488948 0.412797
v 0.077641 0.488882 0.411995
v 0.079092 0.496085 0.412206
v 0.077641 0.496019 0.411404
v 0.079092 0.496019 0.411404
v 0.077641 0.496085 0.412206
v 0.077641 0.496085 0.412206
v 0.079092 0.496085 0.412206
v 0.077641 0.496019 0.411404
v 0.079092 0.496019 0.411404
v 0.077641 0.488948 0.412797
v 0.079027 0.488882 0.411995
v 0.077641 0.488882 0.411995
v 0.079027 0.488948 0.412797
v 0.079027 0.488948 0.412797
v 0.077641 0.488948 0.412797
v 0.079027 0.488882 0.411995
v 0.077641 0.488882 0.411995
v 0.079982 0.496031 0.412211
v 0.079982 0.495965 0.411409
v 0.079982 0.496031 0.412211
v 0.079982 0.495965 0.411409
v 0.079890 0.488941 0.411990
v 0.079890 0.489008 0.412792
v 0.079890 0.489008 0.412792
v 0.079890 0.488941 0.411990
v 0.080753 0.495868 0.412224
v 0.080753 0.495801 0.411422
v 0.080753 0.495868 0.412224
v 0.080753 0.495801 0.411422
v 0.080652 0.489120 0.411975
v 0.080652 0.489187 0.412777
v 0.080652 0.489187 0.412777
v 0.080652 0.489120 0.411975
v 0.081405 0.495596 0.412247
v 0.081405 0.495530 0.411445
v 0.081405 0.495596 0.412247
v 0.081405 0.495530 0.411445
v 0.081312 0.489418 0.411951
v 0.081312 0.489485 0.412753
v 0.081312 0.489485 0.412753
v 0.081312 0.489418 0.411951
v 0.081939 0.495215 0.412278
v 0.081939 0.495149 0.411476
v 0.081939 0.495215 0.412278
v 0.081939 0.495149 0.411476
v 0.081871 0.489835 0.411916
v 0.081871 0.489902 0.412718
v 0.081871 0.489902 0.412718
v 0.081871 0.489835 0.411916
v 0.082354 0.494660 0.411517
v 0.082354 0.494726 0.412319
v 0.082354 0.494660 0.411517
v 0.082354 0.494726 0.412319
v 0.082316 0.490428 0.412674
v 0.082316 0.490362 0.411872
v 0.082316 0.490362 0.411872
v 0.082316 0.490428 0.412674
v 0.082651 0.494061 0.411566
v 0.082651 0.494128 0.412368
v 0.082651 0.494061 0.411566
v 0.082651 0.494128 0.412368
v 0.082634 0.491055 0.412623
v 0.082634 0.490988 0.411821
v 0.082634 0.490988 0.411821
v 0.082634 0.491055 0.412623
v 0.082829 0.493354 0.411625
v 0.082829 0.493421 0.412427
v 0.082829 0.493354 0.411625
v 0.082829 0.493421 0.412427
v 0.082824 0.491780 0.412563
v 0.082824 0.491714 0.411761
v 0.082824 0.491714 0.411761
v 0.082824 0.491780 0.412563
v 0.082888 0.492539 0.411692
v 0.082888 0.492605 0.412494
v 0.082888 0.492539 0.411692
v 0.082888 0.492605 0.412494
vn 1 0 0
vn -1 0 0
vn -0.030621891619548706 -0.9961263173127366 0.08242972589185146
vn 0 -0.996593679969566 0.08246840027985325
vn 0 0.996593679969566 -0.08246840027985325
vn 0.030621891619548706 0.9961263173127366 -0.08242972589185146
vn -0.034600962701758706 0.9959969270625217 -0.08241901881316784
vn 0.034600962701758706 -0.9959969270625217 0.08241901881316784
vn -0.13478351410413786 -0.987499832390456 0.08171588189918187
vn 0.13478351410413786 0.987499832390456 -0.08171588189918187
vn -0.14970800188333871 0.9853623218257129 -0.08153900231385175
vn 0.14970800188333871 -0.9853623218257129 0.08153900231385175
vn -0.297934621461935 -0.9513346512168346 0.07872320324070321
vn 0.297934621461935 0.9513346512168346 -0.07872320324070321
vn -0.32235813837738336 0.9433933017428012 -0.07806605439423774
vn 0.32235813837738336 -0.9433933017428012 0.07806605439423774
vn -0.48673180580918646 -0.8705758618514483 0.07204039127695042
vn 0.48673180580918646 0.8705758618514483 -0.07204039127695042
vn -0.5088112427454367 0.857945683058976 -0.07099524051872415
vn 0.5088112427454367 -0.857945683058976 0.07099524051872415
vn -0.6777461970254279 -0.7327912684389992 0.06063867839203459
vn 0.6777461970254279 0.7327912684389992 -0.06063867839203459
vn -0.686446041921946 0.7247037316686842 -0.0599694325067178
vn 0.686446041921946 -0.7247037316686842 0.0599694325067178
vn -0.836103702710621 -0.5467028060716077 0.045239807106351636
vn 0.836103702710621 0.5467028060716077 -0.045239807106351636
vn -0.8340724319462087 0.5497758316426565 -0.04549410081496843
vn 0.8340724319462087 -0.5497758316426565 0.04549410081496843
vn -0.9385159256017899 -0.3440599604115731 0.02847105606405063
vn 0.9385159256017899 0.3440599604115731 -0.02847105606405063
vn -0.9350480569867661 0.35331337632832455 -0.029236778768414937
vn 0.9350480569867661 -0.35331337632832455 0.029236778768414937
vn -0.987369747181927 -0.1578932222708655 0.013065707436662848
vn 0.987369747181927 0.1578932222708655 -0.013065707436662848
vn -0.9861799133496355 0.1651135840136755 -0.013663194350677416
vn 0.9861799133496355 -0.1651135840136755 0.013663194350677416
vn -0.9999977012463269 0.0021368748864327453 -0.0001768269827756718
vn 0.9999977012463269 -0.0021368748864327453 0.0001768269827756718
usemtl material_0_0
f 1//1 2//1 3//1
f 2//1 1//1 4//1
f 5//2 6//2 7//2
f 8//2 7//2 6//2
f 9//3 10//4 11//3
f 10//4 9//3 12//4
f 13//5 14//6 15//5
f 16//6 15//5 14//6
f 17//5 18//7 19//5
f 18//7 17//5 20//7
f 21//8 22//4 23//8
f 24//4 23//8 22//4
f 25//9 11//3 26//9
f 11//3 25//9 9//3
f 14//6 27//10 16//6
f 28//10 16//6 27//10
f 20//7 29//11 18//7
f 29//11 20//7 30//11
f 31//12 21//8 32//12
f 23//8 32//12 21//8
f 33//13 26//9 34//13
f 26//9 33//13 25//9
f 27//10 35//14 28//10
f 36//14 28//10 35//14
f 30//11 37//15 29//11
f 37//15 30//11 38//15
f 39//16 31//12 40//16
f 32//12 40//16 31//12
f 41//17 34//13 42//17
f 34//13 41//17 33//13
f 35//14 43//18 36//14
f 44//18 36//14 43//18
f 38//15 45//19 37//15
f 45//19 38//15 46//19
f 47//20 39//16 48//20
f 40//16 48//20 39//16
f 49//21 42//17 50//21
f 42//17 49//21 41//17
f 43//18 51//22 44//18
f 52//22 44//18 51//22
f 46//19 53//23 45//19
f 53//23 46//19 54//23
f 55//24 47//20 56//24
f 48//20 56//24 47//20
f 49//21 57//25 58//25
f 57//25 49//21 50//21
f 52//22 51//22 59//26
f 60//26 59//26 51//22
f 61//27 53//23 54//23
f 53//23 61//27 62//27
f 63//28 64//28 56//24
f 55//24 56//24 64//28
f 58//25 65//29 66//29
f 65//29 58//25 57//25
f 59//26 60//26 67//30
f 68//30 67//30 60//26
f 69//31 62//27 61//27
f 62//27 69//31 70//31
f 71//32 72//32 63//28
f 64//28 63//28 72//32
f 66//29 73//33 74//33
f 73//33 66//29 65//29
f 67//30 68//30 75//34
f 76//34 75//34 68//30
f 77//35 70//31 69//31
f 70//31 77//35 78//35
f 79//36 80//36 71//32
f 72//32 71//32 80//36
f 74//33 81//37 82//37
f 81//37 74//33 73//33
f 75//34 76//34 83//38
f 84//38 83//38 76//34
f 82//37 78//35 77//35
f 78//35 82//37 81//37
f 83//38 84//38 79//36
f 80//36 79//36 84//38
