# SSTK version 0.8.0
# 54
mtllib original-54.mtl
o group_22/ID326#ID326
v 0.388625 0.410027 0.417471
v 0.388635 0.414235 0.417665
v 0.388630 0.412125 0.417708
v 0.388636 0.414514 0.417641
v 0.388640 0.416324 0.417343
v 0.388620 0.407973 0.416959
v 0.388645 0.418357 0.416746
v 0.388615 0.405998 0.416178
v 0.388650 0.420302 0.415885
v 0.388611 0.404131 0.415141
v 0.388655 0.422129 0.414774
v 0.388607 0.402403 0.413866
v 0.388659 0.423808 0.413429
v 0.388607 0.402403 0.411452
v 0.388662 0.425313 0.411872
v 0.388662 0.425313 0.409457
v 0.388640 0.416324 0.417343
v 0.329079 0.414644 0.417641
v 0.388636 0.414514 0.417641
v 0.329084 0.416454 0.417343
v 0.329079 0.414366 0.417665
v 0.388635 0.414235 0.417665
v 0.329074 0.412256 0.417708
v 0.388630 0.412125 0.417708
v 0.329069 0.410158 0.417471
v 0.388625 0.410027 0.417471
v 0.329064 0.408104 0.416959
v 0.388620 0.407973 0.416959
v 0.329059 0.406128 0.416178
v 0.388615 0.405998 0.416178
v 0.329054 0.404262 0.415141
v 0.388611 0.404131 0.415141
v 0.329050 0.402534 0.413866
v 0.388607 0.402403 0.413866
v 0.388607 0.402403 0.411452
v 0.329050 0.402534 0.413866
v 0.329050 0.402534 0.411452
v 0.388607 0.402403 0.413866
v 0.329050 0.402534 0.411452
v 0.388662 0.425313 0.409457
v 0.388607 0.402403 0.411452
v 0.329106 0.425444 0.409457
v 0.388662 0.425313 0.411872
v 0.329106 0.425444 0.409457
v 0.329106 0.425444 0.411872
v 0.388662 0.425313 0.409457
v 0.388662 0.425313 0.411872
v 0.329102 0.423939 0.413429
v 0.388659 0.423808 0.413429
v 0.329106 0.425444 0.411872
v 0.329098 0.422260 0.414774
v 0.388655 0.422129 0.414774
v 0.329094 0.420433 0.415885
v 0.388650 0.420302 0.415885
v 0.329089 0.418487 0.416746
v 0.388645 0.418357 0.416746
v 0.329079 0.414366 0.417665
v 0.329069 0.410158 0.417471
v 0.329074 0.412256 0.417708
v 0.329079 0.414644 0.417641
v 0.329084 0.416454 0.417343
v 0.329064 0.408104 0.416959
v 0.329089 0.418487 0.416746
v 0.329059 0.406128 0.416178
v 0.329094 0.420433 0.415885
v 0.329054 0.404262 0.415141
v 0.329098 0.422260 0.414774
v 0.329050 0.402534 0.413866
v 0.329102 0.423939 0.413429
v 0.329050 0.402534 0.411452
v 0.329106 0.425444 0.411872
v 0.329106 0.425444 0.409457
vn 0.9999970494589137 -0.00242921251993105 0
vn 0.0004884085161432291 0.22249529906546314 0.9749336404857981
vn 0.00027379255909384134 0.12472662988203083 0.9921911070131124
vn 0.0001176933939664296 0.05361540996831405 0.9985616525594173
vn -0.00010087334008676299 -0.04595302647833065 0.9989435965969506
vn -0.0003900029300768551 -0.17766649098246073 0.9840906797037017
vn -0.0006710503344797862 -0.30569806945218414 0.9521282686826689
vn -0.0009384796335931481 -0.42752589219826237 0.9040026165648287
vn -0.0011874387186604869 -0.5409397925509201 0.841060479884923
vn -0.0013037035305975653 -0.5939040967312138 0.8045347874660146
vn -0.0021951356640985114 -0.9999975906868057 0
vn -0.00019036728304595494 -0.08672214641479743 -0.9962325195864207
vn 0.0021951356640985114 0.9999975906868057 0
vn 0.0015782648031654343 0.7189810243367242 0.6950279100323423
vn 0.0014785817166653476 0.6735704100101235 0.7391215844195741
vn 0.0012596996862189185 0.5738583188385228 0.8189536269267782
vn 0.0010172739409588399 0.46342082018609565 0.8861377480797076
vn 0.0007550492818369746 0.3439639073063142 0.93898256659597
vn -0.9999970494589137 0.00242921251993105 0
usemtl material_0_0
f 1//1 2//1 3//1
f 2//1 1//1 4//1
f 4//1 1//1 5//1
f 5//1 1//1 6//1
f 5//1 6//1 7//1
f 7//1 6//1 8//1
f 7//1 8//1 9//1
f 9//1 8//1 10//1
f 9//1 10//1 11//1
f 11//1 10//1 12//1
f 11//1 12//1 13//1
f 13//1 12//1 14//1
f 13//1 14//1 15//1
f 15//1 14//1 16//1
f 17//2 18//3 19//3
f 18//3 17//2 20//2
f 19//3 21//4 22//4
f 21//4 19//3 18//3
f 22//4 23//5 24//5
f 23//5 22//4 21//4
f 24//5 25//6 26//6
f 25//6 24//5 23//5
f 26//6 27//7 28//7
f 27//7 26//6 25//6
f 28//7 29//8 30//8
f 29//8 28//7 27//7
f 30//8 31//9 32//9
f 31//9 30//8 29//8
f 32//9 33//10 34//10
f 33//10 32//9 31//9
f 35//11 36//11 37//11
f 36//11 35//11 38//11
f 39//12 40//12 41//12
f 40//12 39//12 42//12
f 43//13 44//13 45//13
f 44//13 43//13 46//13
f 47//14 48//15 49//15
f 48//15 47//14 50//14
f 49//15 51//16 52//16
f 51//16 49//15 48//15
f 52//16 53//17 54//17
f 53//17 52//16 51//16
f 54//17 55//18 56//18
f 55//18 54//17 53//17
f 56//18 20//2 17//2
f 20//2 56//18 55//18
f 57//19 58//19 59//19
f 58//19 57//19 60//19
f 58//19 60//19 61//19
f 58//19 61//19 62//19
f 62//19 61//19 63//19
f 62//19 63//19 64//19
f 64//19 63//19 65//19
f 64//19 65//19 66//19
f 66//19 65//19 67//19
f 66//19 67//19 68//19
f 68//19 67//19 69//19
f 68//19 69//19 70//19
f 70//19 69//19 71//19
f 70//19 71//19 72//19
