# SSTK version 0.8.0
# 284
mtllib original-284.mtl
o group_60/ID1640#ID1640
v 0.068231 0.441819 0.409441
v 0.068232 0.442165 0.409737
v 0.068231 0.441843 0.409762
v 0.068231 0.442140 0.409416
v 0.068232 0.442165 0.409737
v 0.055193 0.442161 0.409438
v 0.055194 0.442185 0.409759
v 0.068231 0.442140 0.409416
v 0.068231 0.441843 0.409762
v 0.055194 0.442185 0.409759
v 0.055193 0.441864 0.409783
v 0.068232 0.442165 0.409737
v 0.055193 0.441840 0.409462
v 0.068231 0.441843 0.409762
v 0.055193 0.441864 0.409783
v 0.068231 0.441819 0.409441
v 0.055193 0.442161 0.409438
v 0.068231 0.441819 0.409441
v 0.055193 0.441840 0.409462
v 0.068231 0.442140 0.409416
v 0.055194 0.442185 0.409759
v 0.055193 0.441840 0.409462
v 0.055193 0.441864 0.409783
v 0.055193 0.442161 0.409438
vn 0.9999973256534735 -0.001606599817754375 -0.0016635873665573305
vn 0.0014767885031877893 0.9971605030381406 -0.07529110356768007
vn 0.0017798262813370162 0.07528844057303216 0.9971602092615256
vn -0.0014767885031877893 -0.9971605030381406 0.07529110356768007
vn -0.001779826281337016 -0.07528844057303216 -0.9971602092615256
vn -0.9999973256534735 0.001606599817754375 0.0016635873665573305
usemtl material_0_0
f 1//1 2//1 3//1
f 2//1 1//1 4//1
f 5//2 6//2 7//2
f 6//2 5//2 8//2
f 9//3 10//3 11//3
f 10//3 9//3 12//3
f 13//4 14//4 15//4
f 14//4 13//4 16//4
f 17//5 18//5 19//5
f 18//5 17//5 20//5
f 21//6 22//6 23//6
f 22//6 21//6 24//6
