# SSTK version 0.8.0
# 12
mtllib original-12.mtl
o #ID35
v 0.102811 -0.361708 0.418817
v 0.102411 -0.362879 0.417617
v 0.102111 -0.361931 0.418817
v 0.103114 -0.362655 0.417617
v 0.103114 -0.362655 0.417617
v 0.102811 -0.361708 0.418817
v 0.102411 -0.362879 0.417617
v 0.102111 -0.361931 0.418817
v 0.102677 -0.363716 0.416330
v 0.103382 -0.363492 0.416330
v 0.103382 -0.363492 0.416330
v 0.102677 -0.363716 0.416330
v 0.102906 -0.364438 0.414967
v 0.103612 -0.364213 0.414967
v 0.103612 -0.364213 0.414967
v 0.102906 -0.364438 0.414967
v 0.103096 -0.365036 0.413540
v 0.103803 -0.364811 0.413540
v 0.103803 -0.364811 0.413540
v 0.103096 -0.365036 0.413540
vn -0.2244933009658308 0.69442640298761 -0.6836481029412387
vn -0.23718031217928884 0.763015039181079 -0.6012932308766095
vn -0.218191101124114 0.696436103588018 -0.6836442035221143
vn -0.24738760499547205 0.7597626153418071 -0.6012987121419617
vn -0.25260959971178637 0.8126281990728361 -0.5251892994007877
vn -0.2634805873796939 0.8091654612422459 -0.5251944748440096
vn -0.2658924030624942 0.8553372098515988 -0.44463410512120427
vn -0.2773346977491821 0.8516934930877494 -0.44463879639136034
vn -0.28062830448271586 0.895300214301396 -0.34595560552624444
vn -0.28857149997467785 0.8927705999216594 -0.34595829996964195
vn 0.24738760499547205 -0.7597626153418071 0.6012987121419617
vn 0.2244933009658308 -0.69442640298761 0.6836481029412387
vn 0.23718031217928884 -0.763015039181079 0.6012932308766095
vn 0.218191101124114 -0.696436103588018 0.6836442035221143
vn 0.2634805873796939 -0.8091654612422459 0.5251944748440096
vn 0.25260959971178637 -0.8126281990728361 0.5251892994007877
vn 0.2773346977491821 -0.8516934930877494 0.44463879639136034
vn 0.2658924030624942 -0.8553372098515988 0.44463410512120427
vn 0.28857149997467785 -0.8927705999216594 0.34595829996964195
vn 0.28062830448271586 -0.895300214301396 0.34595560552624444
usemtl material_0_0
f 5//11 6//12 7//13
f 8//14 7//13 6//12
f 11//15 5//11 12//16
f 7//13 12//16 5//11
f 15//17 11//15 16//18
f 12//16 16//18 11//15
f 19//19 15//17 20//20
f 16//18 20//20 15//17
usemtl material_1_0
f 1//1 2//2 3//3
f 2//2 1//1 4//4
f 4//4 9//5 2//2
f 9//5 4//4 10//6
f 10//6 13//7 9//5
f 13//7 10//6 14//8
f 14//8 17//9 13//7
f 17//9 14//8 18//10
