# SSTK version 0.8.0
# 108
mtllib original-108.mtl
o #ID636
v 0.227512 0.517965 0.395640
v 0.226214 0.511113 0.397645
v 0.226214 0.515645 0.396319
v 0.227523 0.508807 0.398319
v 0.228834 0.515645 0.396319
v 0.228834 0.508807 0.398319
v 0.228834 0.508807 0.398319
v 0.228834 0.515645 0.396319
v 0.227523 0.508807 0.398319
v 0.227512 0.517965 0.395640
v 0.226214 0.511113 0.397645
v 0.226214 0.515645 0.396319
v 0.227512 0.519637 0.401356
v 0.226214 0.515645 0.396319
v 0.226214 0.517317 0.402035
v 0.227512 0.517965 0.395640
v 0.227512 0.517965 0.395640
v 0.227512 0.519637 0.401356
v 0.226214 0.515645 0.396319
v 0.226214 0.517317 0.402035
v 0.227512 0.517965 0.395640
v 0.228834 0.517317 0.402035
v 0.228834 0.515645 0.396319
v 0.227512 0.519637 0.401356
v 0.227512 0.519637 0.401356
v 0.227512 0.517965 0.395640
v 0.228834 0.517317 0.402035
v 0.228834 0.515645 0.396319
v 0.228834 0.515645 0.396319
v 0.228834 0.510479 0.404035
v 0.228834 0.508807 0.398319
v 0.228834 0.517317 0.402035
v 0.228834 0.517317 0.402035
v 0.228834 0.515645 0.396319
v 0.228834 0.510479 0.404035
v 0.228834 0.508807 0.398319
v 0.228834 0.510479 0.404035
v 0.227523 0.508807 0.398319
v 0.228834 0.508807 0.398319
v 0.227523 0.510479 0.404035
v 0.227523 0.510479 0.404035
v 0.228834 0.510479 0.404035
v 0.227523 0.508807 0.398319
v 0.228834 0.508807 0.398319
v 0.226214 0.512785 0.403361
v 0.227523 0.508807 0.398319
v 0.227523 0.510479 0.404035
v 0.226214 0.511113 0.397645
v 0.226214 0.511113 0.397645
v 0.226214 0.512785 0.403361
v 0.227523 0.508807 0.398319
v 0.227523 0.510479 0.404035
v 0.226214 0.517317 0.402035
v 0.226214 0.511113 0.397645
v 0.226214 0.512785 0.403361
v 0.226214 0.515645 0.396319
v 0.226214 0.515645 0.396319
v 0.226214 0.517317 0.402035
v 0.226214 0.511113 0.397645
v 0.226214 0.512785 0.403361
v 0.226214 0.512785 0.403361
v 0.227512 0.519637 0.401356
v 0.226214 0.517317 0.402035
v 0.227523 0.510479 0.404035
v 0.228834 0.517317 0.402035
v 0.228834 0.510479 0.404035
v 0.228834 0.510479 0.404035
v 0.227523 0.510479 0.404035
v 0.228834 0.517317 0.402035
v 0.227512 0.519637 0.401356
v 0.226214 0.512785 0.403361
v 0.226214 0.517317 0.402035
vn 0 -0.2807530017676192 -0.9597800539699037
vn 0 0.2807530017676192 0.9597800539699037
vn -0.8810210193849021 0.45404998572787775 -0.1328178220816098
vn 0.8810210193849021 -0.45404998572787775 0.1328178220816098
vn 0.8774522615644066 0.4603719155755159 -0.13466710075158722
vn -0.8774522615644066 -0.4603719155755159 0.13466710075158722
vn 1 0 0
vn -1 0 0
vn 0 -0.9597800539699037 0.2807530017676192
vn 0 0.9597800539699037 -0.2807530017676192
vn -0.8782151915739964 -0.4590298768415969 0.1342745301814053
vn 0.8782151915739964 0.4590298768415969 -0.1342745301814053
usemtl material_0_0
f 1//1 2//1 3//1
f 2//1 1//1 4//1
f 4//1 1//1 5//1
f 4//1 5//1 6//1
f 7//2 8//2 9//2
f 8//2 10//2 9//2
f 9//2 10//2 11//2
f 12//2 11//2 10//2
f 13//3 14//3 15//3
f 14//3 13//3 16//3
f 17//4 18//4 19//4
f 20//4 19//4 18//4
f 21//5 22//5 23//5
f 22//5 21//5 24//5
f 25//6 26//6 27//6
f 28//6 27//6 26//6
f 29//7 30//7 31//7
f 30//7 29//7 32//7
f 33//8 34//8 35//8
f 36//8 35//8 34//8
f 37//9 38//9 39//9
f 38//9 37//9 40//9
f 41//10 42//10 43//10
f 44//10 43//10 42//10
f 45//11 46//11 47//11
f 46//11 45//11 48//11
f 49//12 50//12 51//12
f 52//12 51//12 50//12
f 53//8 54//8 55//8
f 54//8 53//8 56//8
f 57//7 58//7 59//7
f 60//7 59//7 58//7
f 61//2 62//2 63//2
f 62//2 61//2 64//2
f 62//2 64//2 65//2
f 65//2 64//2 66//2
f 67//1 68//1 69//1
f 69//1 68//1 70//1
f 68//1 71//1 70//1
f 72//1 70//1 71//1
