# SSTK version 0.8.0
# 264
mtllib original-264.mtl
o #ID1517
v -0.120830 0.445972 0.415546
v -0.122293 0.441727 0.415897
v -0.122293 0.445972 0.415546
v -0.122293 0.439769 0.416059
v -0.122293 0.438603 0.416155
v -0.120830 0.438603 0.416155
v -0.126957 0.445972 0.415546
v -0.128410 0.441568 0.415910
v -0.128410 0.445972 0.415546
v -0.128359 0.440833 0.415971
v -0.128206 0.440196 0.416024
v -0.127951 0.439656 0.416068
v -0.127594 0.439215 0.416105
v -0.127135 0.438872 0.416133
v -0.126957 0.441755 0.415895
v -0.126574 0.438627 0.416154
v -0.126818 0.440735 0.415979
v -0.126646 0.440334 0.416012
v -0.126404 0.440007 0.416039
v -0.125911 0.438480 0.416166
v -0.126093 0.439752 0.416060
v -0.125713 0.439569 0.416076
v -0.125146 0.438431 0.416170
v -0.125263 0.439460 0.416085
v -0.124745 0.439424 0.416088
v -0.124255 0.438514 0.416163
v -0.124234 0.439464 0.416084
v -0.123488 0.438765 0.416142
v -0.123770 0.439583 0.416074
v -0.123353 0.439782 0.416058
v -0.122845 0.439184 0.416107
v -0.122984 0.440061 0.416035
v -0.122681 0.440404 0.416006
v -0.122328 0.439769 0.416059
v -0.122465 0.440795 0.415974
v -0.122293 0.439769 0.416059
v -0.122293 0.441727 0.415897
v -0.122328 0.439769 0.416059
v -0.122465 0.440795 0.415974
v -0.122681 0.440404 0.416006
v -0.122845 0.439184 0.416107
v -0.122984 0.440061 0.416035
v -0.123353 0.439782 0.416058
v -0.123488 0.438765 0.416142
v -0.123770 0.439583 0.416074
v -0.124234 0.439464 0.416084
v -0.124255 0.438514 0.416163
v -0.124745 0.439424 0.416088
v -0.125146 0.438431 0.416170
v -0.125263 0.439460 0.416085
v -0.125713 0.439569 0.416076
v -0.125911 0.438480 0.416166
v -0.126093 0.439752 0.416060
v -0.126404 0.440007 0.416039
v -0.126574 0.438627 0.416154
v -0.126646 0.440334 0.416012
v -0.126818 0.440735 0.415979
v -0.126957 0.441755 0.415895
v -0.127135 0.438872 0.416133
v -0.126957 0.445972 0.415546
v -0.127594 0.439215 0.416105
v -0.127951 0.439656 0.416068
v -0.128206 0.440196 0.416024
v -0.128359 0.440833 0.415971
v -0.128410 0.441568 0.415910
v -0.128410 0.445972 0.415546
v -0.120830 0.438603 0.416155
v -0.120830 0.445972 0.415546
v -0.122293 0.438603 0.416155
v -0.122293 0.445972 0.415546
v -0.120830 0.438668 0.416933
v -0.122293 0.438603 0.416155
v -0.120830 0.438603 0.416155
v -0.122293 0.438668 0.416933
v -0.122293 0.438668 0.416933
v -0.120830 0.438668 0.416933
v -0.122293 0.438603 0.416155
v -0.120830 0.438603 0.416155
v -0.122293 0.439834 0.416837
v -0.122293 0.438603 0.416155
v -0.122293 0.438668 0.416933
v -0.122293 0.439769 0.416059
v -0.122293 0.439769 0.416059
v -0.122293 0.439834 0.416837
v -0.122293 0.438603 0.416155
v -0.122293 0.438668 0.416933
v -0.122293 0.439834 0.416837
v -0.122328 0.439769 0.416059
v -0.122293 0.439769 0.416059
v -0.122328 0.439834 0.416837
v -0.122328 0.439834 0.416837
v -0.122293 0.439834 0.416837
v -0.122328 0.439769 0.416059
v -0.122293 0.439769 0.416059
v -0.122328 0.439769 0.416059
v -0.122845 0.439248 0.416885
v -0.122845 0.439184 0.416107
v -0.122328 0.439834 0.416837
v -0.122328 0.439834 0.416837
v -0.122328 0.439769 0.416059
v -0.122845 0.439248 0.416885
v -0.122845 0.439184 0.416107
v -0.123488 0.438765 0.416142
v -0.123488 0.438830 0.416920
v -0.123488 0.438830 0.416920
v -0.123488 0.438765 0.416142
v -0.124255 0.438514 0.416163
v -0.124255 0.438579 0.416941
v -0.124255 0.438579 0.416941
v -0.124255 0.438514 0.416163
v -0.125146 0.438431 0.416170
v -0.125146 0.438495 0.416948
v -0.125146 0.438495 0.416948
v -0.125146 0.438431 0.416170
v -0.125911 0.438480 0.416166
v -0.125911 0.438544 0.416944
v -0.125911 0.438544 0.416944
v -0.125911 0.438480 0.416166
v -0.126574 0.438627 0.416154
v -0.126574 0.438691 0.416932
v -0.126574 0.438691 0.416932
v -0.126574 0.438627 0.416154
v -0.127135 0.438872 0.416133
v -0.127135 0.438936 0.416911
v -0.127135 0.438936 0.416911
v -0.127135 0.438872 0.416133
v -0.127594 0.439215 0.416105
v -0.127594 0.439279 0.416883
v -0.127594 0.439279 0.416883
v -0.127594 0.439215 0.416105
v -0.127951 0.439721 0.416846
v -0.127951 0.439656 0.416068
v -0.127951 0.439656 0.416068
v -0.127951 0.439721 0.416846
v -0.128206 0.440260 0.416802
v -0.128206 0.440196 0.416024
v -0.128206 0.440196 0.416024
v -0.128206 0.440260 0.416802
v -0.128359 0.440897 0.416749
v -0.128359 0.440833 0.415971
v -0.128359 0.440833 0.415971
v -0.128359 0.440897 0.416749
v -0.128410 0.441633 0.416688
v -0.128410 0.441568 0.415910
v -0.128410 0.441568 0.415910
v -0.128410 0.441633 0.416688
v -0.128410 0.446037 0.416324
v -0.128410 0.445972 0.415546
v -0.128410 0.445972 0.415546
v -0.128410 0.446037 0.416324
v -0.128410 0.446037 0.416324
v -0.126957 0.445972 0.415546
v -0.128410 0.445972 0.415546
v -0.126957 0.446037 0.416324
v -0.126957 0.446037 0.416324
v -0.128410 0.446037 0.416324
v -0.126957 0.445972 0.415546
v -0.128410 0.445972 0.415546
v -0.126957 0.445972 0.415546
v -0.126957 0.441820 0.416673
v -0.126957 0.441755 0.415895
v -0.126957 0.446037 0.416324
v -0.126957 0.446037 0.416324
v -0.126957 0.445972 0.415546
v -0.126957 0.441820 0.416673
v -0.126957 0.441755 0.415895
v -0.126818 0.440800 0.416757
v -0.126818 0.440735 0.415979
v -0.126818 0.440800 0.416757
v -0.126818 0.440735 0.415979
v -0.126646 0.440399 0.416790
v -0.126646 0.440334 0.416012
v -0.126646 0.440399 0.416790
v -0.126646 0.440334 0.416012
v -0.126646 0.440334 0.416012
v -0.126404 0.440071 0.416817
v -0.126404 0.440007 0.416039
v -0.126646 0.440399 0.416790
v -0.126646 0.440399 0.416790
v -0.126646 0.440334 0.416012
v -0.126404 0.440071 0.416817
v -0.126404 0.440007 0.416039
v -0.126404 0.440007 0.416039
v -0.126093 0.439816 0.416838
v -0.126093 0.439752 0.416060
v -0.126404 0.440071 0.416817
v -0.126404 0.440071 0.416817
v -0.126404 0.440007 0.416039
v -0.126093 0.439816 0.416838
v -0.126093 0.439752 0.416060
v -0.126093 0.439816 0.416838
v -0.125713 0.439569 0.416076
v -0.126093 0.439752 0.416060
v -0.125713 0.439634 0.416854
v -0.125713 0.439634 0.416854
v -0.126093 0.439816 0.416838
v -0.125713 0.439569 0.416076
v -0.126093 0.439752 0.416060
v -0.125713 0.439634 0.416854
v -0.125263 0.439460 0.416085
v -0.125713 0.439569 0.416076
v -0.125263 0.439525 0.416863
v -0.125263 0.439525 0.416863
v -0.125713 0.439634 0.416854
v -0.125263 0.439460 0.416085
v -0.125713 0.439569 0.416076
v -0.125263 0.439525 0.416863
v -0.124745 0.439424 0.416088
v -0.125263 0.439460 0.416085
v -0.124745 0.439488 0.416866
v -0.124745 0.439488 0.416866
v -0.125263 0.439525 0.416863
v -0.124745 0.439424 0.416088
v -0.125263 0.439460 0.416085
v -0.124745 0.439488 0.416866
v -0.124234 0.439464 0.416084
v -0.124745 0.439424 0.416088
v -0.124234 0.439528 0.416862
v -0.124234 0.439528 0.416862
v -0.124745 0.439488 0.416866
v -0.124234 0.439464 0.416084
v -0.124745 0.439424 0.416088
v -0.124234 0.439528 0.416862
v -0.123770 0.439583 0.416074
v -0.124234 0.439464 0.416084
v -0.123770 0.439647 0.416852
v -0.123770 0.439647 0.416852
v -0.124234 0.439528 0.416862
v -0.123770 0.439583 0.416074
v -0.124234 0.439464 0.416084
v -0.123770 0.439647 0.416852
v -0.123353 0.439782 0.416058
v -0.123770 0.439583 0.416074
v -0.123353 0.439846 0.416836
v -0.123353 0.439846 0.416836
v -0.123770 0.439647 0.416852
v -0.123353 0.439782 0.416058
v -0.123770 0.439583 0.416074
v -0.123353 0.439846 0.416836
v -0.122984 0.440061 0.416035
v -0.123353 0.439782 0.416058
v -0.122984 0.440125 0.416813
v -0.122984 0.440125 0.416813
v -0.123353 0.439846 0.416836
v -0.122984 0.440061 0.416035
v -0.123353 0.439782 0.416058
v -0.122681 0.440468 0.416785
v -0.122984 0.440061 0.416035
v -0.122984 0.440125 0.416813
v -0.122681 0.440404 0.416006
v -0.122681 0.440404 0.416006
v -0.122681 0.440468 0.416785
v -0.122984 0.440061 0.416035
v -0.122984 0.440125 0.416813
v -0.122465 0.440860 0.416752
v -0.122681 0.440404 0.416006
v -0.122681 0.440468 0.416785
v -0.122465 0.440795 0.415974
v -0.122465 0.440795 0.415974
v -0.122465 0.440860 0.416752
v -0.122681 0.440404 0.416006
v -0.122681 0.440468 0.416785
v -0.122293 0.441791 0.416675
v -0.122293 0.441727 0.415897
v -0.122293 0.441727 0.415897
v -0.122293 0.441791 0.416675
v -0.122293 0.446037 0.416324
v -0.122293 0.445972 0.415546
v -0.122293 0.445972 0.415546
v -0.122293 0.446037 0.416324
v -0.122293 0.446037 0.416324
v -0.120830 0.445972 0.415546
v -0.122293 0.445972 0.415546
v -0.120830 0.446037 0.416324
v -0.120830 0.446037 0.416324
v -0.122293 0.446037 0.416324
v -0.120830 0.445972 0.415546
v -0.122293 0.445972 0.415546
v -0.120830 0.445972 0.415546
v -0.120830 0.438668 0.416933
v -0.120830 0.438603 0.416155
v -0.120830 0.446037 0.416324
v -0.120830 0.446037 0.416324
v -0.120830 0.445972 0.415546
v -0.120830 0.438668 0.416933
v -0.120830 0.438603 0.416155
v -0.120830 0.438668 0.416933
v -0.122293 0.439834 0.416837
v -0.122293 0.438668 0.416933
v -0.122293 0.441791 0.416675
v -0.122293 0.446037 0.416324
v -0.120830 0.446037 0.416324
v -0.126574 0.438691 0.416932
v -0.126957 0.441820 0.416673
v -0.127135 0.438936 0.416911
v -0.126818 0.440800 0.416757
v -0.126646 0.440399 0.416790
v -0.126404 0.440071 0.416817
v -0.125911 0.438544 0.416944
v -0.126093 0.439816 0.416838
v -0.125713 0.439634 0.416854
v -0.125146 0.438495 0.416948
v -0.125263 0.439525 0.416863
v -0.124745 0.439488 0.416866
v -0.124255 0.438579 0.416941
v -0.124234 0.439528 0.416862
v -0.123488 0.438830 0.416920
v -0.123770 0.439647 0.416852
v -0.123353 0.439846 0.416836
v -0.122845 0.439248 0.416885
v -0.122984 0.440125 0.416813
v -0.122681 0.440468 0.416785
v -0.122328 0.439834 0.416837
v -0.122465 0.440860 0.416752
v -0.128359 0.440897 0.416749
v -0.128410 0.446037 0.416324
v -0.128410 0.441633 0.416688
v -0.126957 0.446037 0.416324
v -0.128206 0.440260 0.416802
v -0.127951 0.439721 0.416846
v -0.127594 0.439279 0.416883
v -0.126957 0.441820 0.416673
v -0.127135 0.438936 0.416911
v -0.126957 0.446037 0.416324
v -0.127594 0.439279 0.416883
v -0.127951 0.439721 0.416846
v -0.128206 0.440260 0.416802
v -0.128359 0.440897 0.416749
v -0.128410 0.446037 0.416324
v -0.128410 0.441633 0.416688
v -0.122293 0.439834 0.416837
v -0.122328 0.439834 0.416837
v -0.122293 0.441791 0.416675
v -0.122465 0.440860 0.416752
v -0.122681 0.440468 0.416785
v -0.122845 0.439248 0.416885
v -0.122984 0.440125 0.416813
v -0.123353 0.439846 0.416836
v -0.123488 0.438830 0.416920
v -0.123770 0.439647 0.416852
v -0.124234 0.439528 0.416862
v -0.124255 0.438579 0.416941
v -0.124745 0.439488 0.416866
v -0.125146 0.438495 0.416948
v -0.125263 0.439525 0.416863
v -0.125713 0.439634 0.416854
v -0.125911 0.438544 0.416944
v -0.126093 0.439816 0.416838
v -0.126404 0.440071 0.416817
v -0.126574 0.438691 0.416932
v -0.126646 0.440399 0.416790
v -0.126818 0.440800 0.416757
v -0.120830 0.446037 0.416324
v -0.120830 0.438668 0.416933
v -0.122293 0.446037 0.416324
v -0.122293 0.438668 0.416933
vn 0 -0.08246840268736112 -0.9965936797703442
vn 0 0.08246840268736112 0.9965936797703442
vn 0 -0.9965936797703442 0.08246840268736111
vn 0 0.9965936797703442 -0.08246840268736111
vn -1 0 0
vn 1 0 0
vn 0.7506136226728689 -0.6584906970064921 0.05449028733468034
vn 0.6519275706998291 -0.7556982936548682 0.06253424284773978
vn -0.7506136226728689 0.6584906970064921 -0.05449028733468034
vn -0.6519275706998291 0.7556982936548682 -0.06253424284773978
vn 0.4304017665463983 -0.899562751964499 0.07443906656989276
vn -0.4304017665463983 0.899562751964499 -0.07443906656989276
vn 0.20286798094175862 -0.975870608433035 0.0807535628016035
vn -0.20286798094175862 0.975870608433035 -0.0807535628016035
vn 0.0147687743951102 -0.9964849869821851 0.08245940832907342
vn -0.0147687743951102 0.9964849869821851 -0.08245940832907342
vn -0.14071561026870277 -0.9866776302984596 0.08164784685049928
vn 0.14071561026870277 0.9866776302984596 -0.08164784685049928
vn -0.3095538978533636 -0.9476428899538093 0.0784177112888519
vn 0.3095538978533636 0.9476428899538093 -0.0784177112888519
vn -0.5018659254905845 -0.8619991465531 0.07133066783093003
vn 0.5018659254905845 0.8619991465531 -0.07133066783093003
vn -0.6923160417571413 -0.7191364323566979 0.05950873871125786
vn 0.6923160417571413 0.7191364323566979 -0.05950873871125786
vn -0.8462316334049332 -0.5310002470333868 0.04394041733189475
vn 0.8462316334049332 0.5310002470333868 -0.04394041733189475
vn -0.9431574874879345 -0.3312140581558831 0.02740805493569743
vn 0.9431574874879345 0.3312140581558831 -0.02740805493569743
vn -0.9884281216830875 -0.151173269550063 0.012509629874125357
vn 0.9884281216830875 0.151173269550063 -0.012509629874125357
vn -0.9994043306744416 -0.034393079297392715 0.0028460368259704094
vn 0.9994043306744416 0.034393079297392715 -0.0028460368259704094
vn 0.997741472655416 0.06694227197411959 -0.005539491524008817
vn -0.997741472655416 -0.06694227197411959 0.005539491524008817
vn 0.9633128270653061 0.2674668753044751 -0.022132957920446228
vn -0.9633128270653061 -0.2674668753044751 0.022132957920446228
vn 0.9187702421903803 0.3934478668418685 -0.032557919820117256
vn -0.9187702421903803 -0.3934478668418685 0.032557919820117256
vn 0.805664570939454 0.5903542019971915 -0.048851973524154074
vn -0.805664570939454 -0.5903542019971915 0.048851973524154074
vn 0.6353510205524847 0.7695930250967421 -0.06368403571823571
vn -0.6353510205524847 -0.7695930250967421 0.06368403571823571
vn 0.43333970093874896 0.8981607803608097 -0.07432305303186199
vn -0.43333970093874896 -0.8981607803608097 0.07432305303186199
vn 0.23715040240675117 0.968163798989315 -0.08011582218821141
vn -0.23715040240675117 -0.968163798989315 0.08011582218821141
vn 0.07034718327425228 0.9941246867650521 -0.08226409283317898
vn -0.07034718327425228 -0.9941246867650521 0.08226409283317898
vn -0.07786433236942457 0.9935679855961813 -0.08221802565745544
vn 0.07786433236942457 -0.9935679855961813 0.08221802565745544
vn -0.25002581245312466 0.9649410387612936 -0.07984913788783478
vn 0.25002581245312466 -0.9649410387612936 0.07984913788783478
vn -0.4322313644427921 0.8986910519446997 -0.07436693315211715
vn 0.4322313644427921 -0.8986910519446997 0.07436693315211715
vn -0.6036379772169365 0.7945428301436686 -0.06574863898769974
vn 0.6036379772169365 -0.7945428301436686 0.06574863898769974
vn -0.7511996231606825 0.6578266641698638 -0.054435338433758834
vn 0.7511996231606825 -0.6578266641698638 0.054435338433758834
vn -0.9409327392821746 0.3374401743477304 -0.027923267772894847
vn -0.8765343374609358 0.47969973891367707 -0.03969528609379836
vn 0.9409327392821746 -0.3374401743477304 0.027923267772894847
vn 0.8765343374609358 -0.47969973891367707 0.03969528609379836
vn -0.9957978154927637 0.09126703855515605 -0.007552372687516875
vn 0.9957978154927637 -0.09126703855515605 0.007552372687516875
usemtl material_0_0
f 1//1 2//1 3//1
f 2//1 1//1 4//1
f 4//1 1//1 5//1
f 5//1 1//1 6//1
f 7//1 8//1 9//1
f 8//1 7//1 10//1
f 10//1 7//1 11//1
f 11//1 7//1 12//1
f 12//1 7//1 13//1
f 13//1 7//1 14//1
f 14//1 7//1 15//1
f 14//1 15//1 16//1
f 16//1 15//1 17//1
f 16//1 17//1 18//1
f 16//1 18//1 19//1
f 16//1 19//1 20//1
f 20//1 19//1 21//1
f 20//1 21//1 22//1
f 20//1 22//1 23//1
f 23//1 22//1 24//1
f 23//1 24//1 25//1
f 23//1 25//1 26//1
f 26//1 25//1 27//1
f 26//1 27//1 28//1
f 28//1 27//1 29//1
f 28//1 29//1 30//1
f 28//1 30//1 31//1
f 31//1 30//1 32//1
f 31//1 32//1 33//1
f 31//1 33//1 34//1
f 34//1 33//1 35//1
f 34//1 35//1 2//1
f 34//1 2//1 4//1
f 36//2 37//2 38//2
f 37//2 39//2 38//2
f 39//2 40//2 38//2
f 38//2 40//2 41//2
f 40//2 42//2 41//2
f 42//2 43//2 41//2
f 41//2 43//2 44//2
f 43//2 45//2 44//2
f 45//2 46//2 44//2
f 44//2 46//2 47//2
f 46//2 48//2 47//2
f 47//2 48//2 49//2
f 48//2 50//2 49//2
f 50//2 51//2 49//2
f 49//2 51//2 52//2
f 51//2 53//2 52//2
f 53//2 54//2 52//2
f 52//2 54//2 55//2
f 54//2 56//2 55//2
f 56//2 57//2 55//2
f 57//2 58//2 55//2
f 55//2 58//2 59//2
f 58//2 60//2 59//2
f 59//2 60//2 61//2
f 61//2 60//2 62//2
f 62//2 60//2 63//2
f 63//2 60//2 64//2
f 64//2 60//2 65//2
f 66//2 65//2 60//2
f 67//2 68//2 69//2
f 69//2 68//2 36//2
f 36//2 68//2 37//2
f 70//2 37//2 68//2
f 71//3 72//3 73//3
f 72//3 71//3 74//3
f 75//4 76//4 77//4
f 78//4 77//4 76//4
f 79//5 80//5 81//5
f 80//5 79//5 82//5
f 83//6 84//6 85//6
f 86//6 85//6 84//6
f 87//3 88//3 89//3
f 88//3 87//3 90//3
f 91//4 92//4 93//4
f 94//4 93//4 92//4
f 95//7 96//8 97//8
f 96//8 95//7 98//7
f 99//9 100//9 101//10
f 102//10 101//10 100//9
f 96//8 103//11 97//8
f 103//11 96//8 104//11
f 105//12 101//10 106//12
f 102//10 106//12 101//10
f 104//11 107//13 103//11
f 107//13 104//11 108//13
f 109//14 105//12 110//14
f 106//12 110//14 105//12
f 108//13 111//15 107//13
f 111//15 108//13 112//15
f 113//16 109//14 114//16
f 110//14 114//16 109//14
f 112//15 115//17 111//15
f 115//17 112//15 116//17
f 117//18 113//16 118//18
f 114//16 118//18 113//16
f 116//17 119//19 115//17
f 119//19 116//17 120//19
f 121//20 117//18 122//20
f 118//18 122//20 117//18
f 120//19 123//21 119//19
f 123//21 120//19 124//21
f 125//22 121//20 126//22
f 122//20 126//22 121//20
f 124//21 127//23 123//21
f 127//23 124//21 128//23
f 129//24 125//22 130//24
f 126//22 130//24 125//22
f 131//25 127//23 128//23
f 127//23 131//25 132//25
f 133//26 134//26 130//24
f 129//24 130//24 134//26
f 135//27 132//25 131//25
f 132//25 135//27 136//27
f 137//28 138//28 133//26
f 134//26 133//26 138//28
f 139//29 136//27 135//27
f 136//27 139//29 140//29
f 141//30 142//30 137//28
f 138//28 137//28 142//30
f 143//31 140//29 139//29
f 140//29 143//31 144//31
f 145//32 146//32 141//30
f 142//30 141//30 146//32
f 147//5 144//31 143//31
f 144//31 147//5 148//5
f 149//6 150//6 145//32
f 146//32 145//32 150//6
f 151//4 152//4 153//4
f 152//4 151//4 154//4
f 155//3 156//3 157//3
f 158//3 157//3 156//3
f 159//6 160//33 161//33
f 160//33 159//6 162//6
f 163//5 164//5 165//34
f 166//34 165//34 164//5
f 161//33 167//35 168//35
f 167//35 161//33 160//33
f 165//34 166//34 169//36
f 170//36 169//36 166//34
f 168//35 171//37 172//37
f 171//37 168//35 167//35
f 169//36 170//36 173//38
f 174//38 173//38 170//36
f 175//39 176//39 177//39
f 176//39 175//39 178//39
f 179//40 180//40 181//40
f 182//40 181//40 180//40
f 183//41 184//41 185//41
f 184//41 183//41 186//41
f 187//42 188//42 189//42
f 190//42 189//42 188//42
f 191//43 192//43 193//43
f 192//43 191//43 194//43
f 195//44 196//44 197//44
f 198//44 197//44 196//44
f 199//45 200//45 201//45
f 200//45 199//45 202//45
f 203//46 204//46 205//46
f 206//46 205//46 204//46
f 207//47 208//47 209//47
f 208//47 207//47 210//47
f 211//48 212//48 213//48
f 214//48 213//48 212//48
f 215//49 216//49 217//49
f 216//49 215//49 218//49
f 219//50 220//50 221//50
f 222//50 221//50 220//50
f 223//51 224//51 225//51
f 224//51 223//51 226//51
f 227//52 228//52 229//52
f 230//52 229//52 228//52
f 231//53 232//53 233//53
f 232//53 231//53 234//53
f 235//54 236//54 237//54
f 238//54 237//54 236//54
f 239//55 240//55 241//55
f 240//55 239//55 242//55
f 243//56 244//56 245//56
f 246//56 245//56 244//56
f 247//57 248//57 249//57
f 248//57 247//57 250//57
f 251//58 252//58 253//58
f 254//58 253//58 252//58
f 255//59 256//60 257//60
f 256//60 255//59 258//59
f 259//61 260//61 261//62
f 262//62 261//62 260//61
f 263//63 258//59 255//59
f 258//59 263//63 264//63
f 265//64 266//64 259//61
f 260//61 259//61 266//64
f 267//5 264//63 263//63
f 264//63 267//5 268//5
f 269//6 270//6 265//64
f 266//64 265//64 270//6
f 271//4 272//4 273//4
f 272//4 271//4 274//4
f 275//3 276//3 277//3
f 278//3 277//3 276//3
f 279//6 280//6 281//6
f 280//6 279//6 282//6
f 283//5 284//5 285//5
f 286//5 285//5 284//5
f 287//2 288//2 289//2
f 288//2 287//2 290//2
f 290//2 287//2 291//2
f 291//2 287//2 292//2
f 293//2 294//2 295//2
f 294//2 293//2 296//2
f 296//2 293//2 297//2
f 297//2 293//2 298//2
f 298//2 293//2 299//2
f 298//2 299//2 300//2
f 300//2 299//2 301//2
f 301//2 299//2 302//2
f 301//2 302//2 303//2
f 303//2 302//2 304//2
f 304//2 302//2 305//2
f 304//2 305//2 306//2
f 306//2 305//2 307//2
f 306//2 307//2 308//2
f 308//2 307//2 309//2
f 309//2 307//2 310//2
f 309//2 310//2 311//2
f 311//2 310//2 312//2
f 312//2 310//2 313//2
f 312//2 313//2 314//2
f 314//2 313//2 290//2
f 290//2 313//2 288//2
f 315//2 316//2 317//2
f 316//2 315//2 318//2
f 318//2 315//2 319//2
f 318//2 319//2 320//2
f 318//2 320//2 321//2
f 318//2 321//2 295//2
f 318//2 295//2 294//2
f 322//1 323//1 324//1
f 323//1 325//1 324//1
f 325//1 326//1 324//1
f 326//1 327//1 324//1
f 327//1 328//1 324//1
f 324//1 328//1 329//1
f 330//1 329//1 328//1
f 331//1 332//1 333//1
f 333//1 332//1 334//1
f 334//1 332//1 335//1
f 332//1 336//1 335//1
f 335//1 336//1 337//1
f 337//1 336//1 338//1
f 336//1 339//1 338//1
f 338//1 339//1 340//1
f 340//1 339//1 341//1
f 339//1 342//1 341//1
f 341//1 342//1 343//1
f 342//1 344//1 343//1
f 343//1 344//1 345//1
f 345//1 344//1 346//1
f 344//1 347//1 346//1
f 346//1 347//1 348//1
f 348//1 347//1 349//1
f 347//1 350//1 349//1
f 349//1 350//1 351//1
f 351//1 350//1 352//1
f 352//1 350//1 322//1
f 323//1 322//1 350//1
f 353//1 354//1 355//1
f 355//1 354//1 333//1
f 333//1 354//1 331//1
f 356//1 331//1 354//1
