# SSTK version 0.8.0
# 82
mtllib original-82.mtl
o instance_3/Component_250/ID517#ID517
v -0.007380 0.511811 0.409181
v -0.008104 0.511726 0.408138
v -0.008104 0.511811 0.409181
v -0.007380 0.511726 0.408138
v -0.008828 0.511811 0.409181
v -0.008104 0.511897 0.410224
v -0.007380 0.499694 0.409124
v -0.008828 0.511726 0.408138
v -0.007380 0.511897 0.410224
v -0.007380 0.499779 0.410167
v -0.008104 0.499694 0.409124
v -0.008828 0.499694 0.409124
v -0.008828 0.511897 0.410224
v -0.007380 0.499865 0.411209
v -0.007380 0.487747 0.411152
v -0.008104 0.487662 0.410110
v -0.008828 0.499779 0.410167
v -0.008828 0.499865 0.411209
v -0.008104 0.499865 0.411209
v -0.007380 0.487662 0.410110
v -0.008828 0.487747 0.411152
v -0.008104 0.487833 0.412195
v -0.007380 0.487833 0.412195
v -0.008828 0.487662 0.410110
v -0.008104 0.487747 0.411152
v -0.008828 0.487833 0.412195
vn 0.7071067924684209 0.7047455057795324 -0.05773868831704376
vn 0 0.6470068277854687 -0.7624842062619953
vn 0 0.9966606681966007 -0.08165483739439741
vn 0.5773502814717737 0.5282788571046105 -0.6225657408022947
vn -0.7071067924684209 0.7047455057795324 -0.057738688317043735
vn 0 0.7624842062619953 0.6470068277854687
vn 0.7071067924684209 -0.05773868831704369 -0.7047455057795324
vn -0.5773502814717737 0.5282788571046104 -0.6225657408022947
vn 0.5773502814717737 0.6225657408022947 0.5282788571046104
vn 1 0 0
vn 0 -0.08165483739439741 -0.9966606681966007
vn -0.7071067924684207 -0.05773868831704379 -0.7047455057795323
vn -0.5773502814717738 0.6225657408022947 0.5282788571046105
vn 0.7071067924684207 0.05773868831704379 0.7047455057795323
vn 0.7071067924684209 -0.7047455057795324 0.057738688317043735
vn 0 -0.7624842062619953 -0.6470068277854687
vn -1 0 0
vn -0.7071067924684209 0.05773868831704369 0.7047455057795324
vn 0 0.08165483739439741 0.9966606681966007
vn 0.5773502814717738 -0.6225657408022947 -0.5282788571046105
vn -0.7071067924684209 -0.7047455057795324 0.05773868831704376
vn 0 -0.6470068277854687 0.7624842062619953
vn 0.5773502814717737 -0.5282788571046104 0.6225657408022947
vn -0.5773502814717737 -0.6225657408022947 -0.5282788571046104
vn 0 -0.9966606681966007 0.08165483739439741
vn -0.5773502814717737 -0.5282788571046105 0.6225657408022947
usemtl material_0_0
f 1//1 2//2 3//3
f 4//4 2//2 1//1
f 2//2 5//5 3//3
f 1//1 3//3 6//6
f 4//4 1//1 7//7
f 4//4 7//7 2//2
f 2//2 8//8 5//5
f 6//6 3//3 5//5
f 1//1 6//6 9//9
f 7//7 1//1 10//10
f 2//2 7//7 11//11
f 8//8 2//2 12//12
f 12//12 5//5 8//8
f 6//6 5//5 13//13
f 6//6 14//14 9//9
f 1//1 9//9 14//14
f 1//1 14//14 10//10
f 7//7 10//10 15//15
f 7//7 16//16 11//11
f 2//2 11//11 12//12
f 12//12 17//17 5//5
f 5//5 18//18 13//13
f 13//13 18//18 6//6
f 6//6 19//19 14//14
f 15//15 10//10 14//14
f 20//20 7//7 15//15
f 7//7 20//20 16//16
f 11//11 16//16 12//12
f 12//12 21//21 17//17
f 5//5 17//17 18//18
f 6//6 18//18 19//19
f 19//19 22//22 14//14
f 15//15 14//14 23//23
f 15//15 16//16 20//20
f 12//12 16//16 24//24
f 12//12 24//24 21//21
f 21//21 18//18 17//17
f 18//18 22//22 19//19
f 14//14 22//22 23//23
f 23//23 22//22 15//15
f 15//15 25//25 16//16
f 16//16 21//21 24//24
f 21//21 26//26 18//18
f 18//18 26//26 22//22
f 15//15 22//22 25//25
f 25//25 21//21 16//16
f 22//22 26//26 21//21
f 22//22 21//21 25//25
