# SSTK version 0.8.0
# 272
mtllib original-272.mtl
o group_48/ID1562#ID1562
v 0.068236 0.467470 0.407308
v 0.068237 0.467818 0.407602
v 0.068237 0.467497 0.407629
v 0.068236 0.467791 0.407281
v 0.068237 0.467818 0.407602
v 0.053105 0.467788 0.407317
v 0.053106 0.467815 0.407638
v 0.068236 0.467791 0.407281
v 0.068237 0.467497 0.407629
v 0.053106 0.467815 0.407638
v 0.053106 0.467494 0.407665
v 0.068237 0.467818 0.407602
v 0.068236 0.467470 0.407308
v 0.053106 0.467494 0.407665
v 0.053105 0.467467 0.407344
v 0.068237 0.467497 0.407629
v 0.053105 0.467788 0.407317
v 0.068236 0.467470 0.407308
v 0.053105 0.467467 0.407344
v 0.068236 0.467791 0.407281
v 0.053106 0.467815 0.407638
v 0.053105 0.467467 0.407344
v 0.053106 0.467494 0.407665
v 0.053105 0.467788 0.407317
vn 0.9999970557254806 0.00018574878262916854 -0.002419511884604367
vn -0.0003876979610655398 0.9964878930338482 -0.08373606586921076
vn 0.0023954604271322973 0.0837367589865976 0.9964850309782695
vn 0.00038769796106553976 -0.9964878930338482 0.08373606586921076
vn -0.002395460427132298 -0.0837367589865976 -0.9964850309782695
vn -0.9999970557254806 -0.00018574878262916854 0.002419511884604367
usemtl material_0_0
f 1//1 2//1 3//1
f 2//1 1//1 4//1
f 5//2 6//2 7//2
f 6//2 5//2 8//2
f 9//3 10//3 11//3
f 10//3 9//3 12//3
f 13//4 14//4 15//4
f 14//4 13//4 16//4
f 17//5 18//5 19//5
f 18//5 17//5 20//5
f 21//6 22//6 23//6
f 22//6 21//6 24//6
