# SSTK version 0.8.0
# 283
mtllib original-283.mtl
o group_59/ID1633#ID1633
v 0.052837 0.396918 0.413180
v 0.052837 0.397264 0.413476
v 0.052837 0.396943 0.413501
v 0.052837 0.397239 0.413155
v 0.052837 0.397264 0.413476
v 0.029860 0.397235 0.413156
v 0.029860 0.397260 0.413477
v 0.052837 0.397239 0.413155
v 0.052837 0.397264 0.413476
v 0.029860 0.396939 0.413501
v 0.052837 0.396943 0.413501
v 0.029860 0.397260 0.413477
v 0.052837 0.396918 0.413180
v 0.029860 0.396939 0.413501
v 0.029860 0.396914 0.413180
v 0.052837 0.396943 0.413501
v 0.029860 0.396914 0.413180
v 0.052837 0.397239 0.413155
v 0.052837 0.396918 0.413180
v 0.029860 0.397235 0.413156
v 0.029860 0.397260 0.413477
v 0.029860 0.396914 0.413180
v 0.029860 0.396939 0.413501
v 0.029860 0.397235 0.413156
vn 0.9999999860148032 0.00016330609938640506 -0.00003607645906831546
vn -0.00016558847419198411 0.9970660440756306 -0.07654590996147367
vn 0.000023470198696791826 0.0765459127628693 0.9970660573344421
vn 0.00016558847419198411 -0.9970660440756306 0.07654590996147367
vn -0.000023470198696791826 -0.0765459127628693 -0.9970660573344421
vn -0.9999999860148032 -0.00016330609938640506 0.00003607645906831546
usemtl material_0_0
f 1//1 2//1 3//1
f 2//1 1//1 4//1
f 5//2 6//2 7//2
f 6//2 5//2 8//2
f 9//3 10//3 11//3
f 10//3 9//3 12//3
f 13//4 14//4 15//4
f 14//4 13//4 16//4
f 17//5 18//5 19//5
f 18//5 17//5 20//5
f 21//6 22//6 23//6
f 22//6 21//6 24//6
